<?xml version="1.0" encoding="utf-8"?>
<!-- Generator: Adobe Illustrator 23.1.0, SVG Export Plug-In . SVG Version: 6.00 Build 0)  -->
<svg version="1.1" id="Layer_1" xmlns="http://www.w3.org/2000/svg" xmlns:xlink="http://www.w3.org/1999/xlink" x="0px" y="0px"
	 viewBox="0 0 2584.3 1548.6" style="enable-background:new 0 0 2584.3 1548.6;" xml:space="preserve">
<style type="text/css">
	.st0{display:none;fill:#FFFFFF;}
	.st1{fill:#D6851B;}
	.st2{display:none;}
	.st3{display:inline;}
	.st4{fill:#C65447;}
	.st5{fill:#E57970;}
	.st6{fill:#C45446;}
	.st7{fill:#D39E7A;}
	.st8{fill:#8C5F41;}
	.st9{fill:#E37970;}
	.st10{display:inline;fill:#D39E7A;}
	.st11{display:inline;fill:#E49963;}
	.st12{display:inline;fill:#C65447;}
	.st13{display:inline;fill:#FFB27D;}
	.st14{display:inline;fill:#1F2021;}
	.st15{display:inline;fill:#466AA5;}
	.st16{display:inline;fill:#E8945B;}
	.st17{display:inline;fill:#C45446;}
	.st18{display:inline;fill:#FFFFFF;}
	.st19{display:inline;fill:#AA413E;}
	.st20{display:inline;fill:#EFCBAB;}
	.st21{display:none;fill:#D39E7A;}
	.st22{display:none;fill:#F99746;}
	.st23{display:inline;fill:#183D01;}
	.st24{fill:#1F2021;}
	.st25{fill:#285B06;}
	.st26{fill:#D9935C;}
	.st27{fill:#CB8757;}
	.st28{fill:#434649;}
	.st29{fill:#EBF2F9;}
	.st30{fill:#183D01;}
	.st31{display:none;fill:#415DA5;}
	.st32{fill:#DA935B;}
	.st33{fill:#2B478B;}
	.st34{fill:#FFB27D;}
	.st35{fill:#E8945B;}
	.st36{display:inline;fill:#F99746;}
	.st37{display:inline;fill:#335051;}
	.st38{display:inline;fill:#396669;}
	.st39{display:inline;fill:#434649;}
	.st40{display:none;fill:#C45446;}
	.st41{display:none;opacity:0.5;fill:#699DEE;}
	.st42{fill:#163560;}
	.st43{fill:#82B479;}
	.st44{display:inline;fill:#A53D38;}
	.st45{display:inline;opacity:0.5;fill:#699DEE;}
	.st46{display:inline;fill:#F1A34F;}
	.st47{display:inline;fill:#EBF2F9;}
	.st48{fill:#335051;}
	.st49{fill:#396669;}
	.st50{display:none;fill:#283250;}
</style>
<g>
	<rect x="-209.4" y="-245" class="st0" width="3000" height="2000"/>
	<path class="st1" d="M2356.2,1546.8c0,0,343.9-247,187.2-569.3s-440.4,169.6-638.1-285.3c-197.7-454.9-242-803.2-768.4-659.5
		S826.4,553.4,550.9,591.3C275.4,629.2,57.8,765.7,184,1060.9S-3.2,1550-3.2,1550L2356.2,1546.8z"/>
	<g class="st2">
		<g class="st3">
			<polygon class="st4" points="718.3,383.5 717.6,366.9 716,332.3 715.4,316.3 671.4,316.3 670.4,332.3 668.2,366.9 667.2,383.5 
							"/>
			<polygon class="st5" points="719.1,394.7 667.1,394.7 664.9,383.5 720.6,383.5 			"/>
			<polygon class="st5" points="717.6,366.9 716,332.3 670.4,332.3 668.2,366.9 			"/>
		</g>
		<g class="st3">
			<polygon class="st4" points="718.3,371.2 717.6,354.7 716,320 715.4,304.1 671.4,304.1 670.4,320 668.2,354.7 667.2,371.2 			"/>
			<polygon class="st5" points="719.1,382.4 667.1,382.4 664.9,371.2 720.6,371.2 			"/>
			<polygon class="st5" points="717.6,354.7 716,320 670.4,320 668.2,354.7 			"/>
		</g>
		<g class="st3">
			<polygon class="st4" points="718.3,358.7 717.6,342.1 716,307.5 715.4,291.6 671.4,291.6 670.4,307.5 668.2,342.1 667.2,358.7 
							"/>
			<polygon class="st5" points="719.1,369.9 667.1,369.9 664.9,358.7 720.6,358.7 			"/>
			<polygon class="st5" points="717.6,342.1 716,307.5 670.4,307.5 668.2,342.1 			"/>
		</g>
		<g class="st3">
			<polygon class="st4" points="718.3,346.1 717.6,329.6 716,294.9 715.4,279 671.4,279 670.4,294.9 668.2,329.6 667.2,346.1 			"/>
			<polygon class="st5" points="719.1,357.3 667.1,357.3 664.9,346.1 720.6,346.1 			"/>
			<polygon class="st5" points="717.6,329.6 716,294.9 670.4,294.9 668.2,329.6 			"/>
		</g>
		<g class="st3">
			<polygon class="st4" points="718.3,333.5 717.6,316.9 716,282.3 715.4,266.3 671.4,266.3 670.4,282.3 668.2,316.9 667.2,333.5 
							"/>
			<polygon class="st5" points="719.1,344.7 667.1,344.7 664.9,333.5 720.6,333.5 			"/>
			<polygon class="st5" points="717.6,316.9 716,282.3 670.4,282.3 668.2,316.9 			"/>
		</g>
		<g class="st3">
			<polygon class="st4" points="718.3,321 717.6,304.4 716,269.8 715.4,253.8 671.4,253.8 670.4,269.8 668.2,304.4 667.2,321 			"/>
			<polygon class="st5" points="719.1,332.2 667.1,332.2 664.9,321 720.6,321 			"/>
			<polygon class="st5" points="717.6,304.4 716,269.8 670.4,269.8 668.2,304.4 			"/>
		</g>
		<g class="st3">
			<polygon class="st4" points="658.7,383.5 658,366.9 656.5,332.3 655.8,316.3 611.8,316.3 610.8,332.3 608.7,366.9 607.6,383.5 
							"/>
			<polygon class="st5" points="659.5,394.7 607.5,394.7 605.3,383.5 661,383.5 			"/>
			<polygon class="st5" points="658,366.9 656.5,332.3 610.8,332.3 608.7,366.9 			"/>
		</g>
		<g class="st3">
			<polygon class="st4" points="658.7,370.8 658,354.3 656.5,319.6 655.8,303.7 611.8,303.7 610.8,319.6 608.7,354.3 607.6,370.8 
							"/>
			<polygon class="st5" points="659.5,382 607.5,382 605.3,370.8 661,370.8 			"/>
			<polygon class="st5" points="658,354.3 656.5,319.6 610.8,319.6 608.7,354.3 			"/>
		</g>
		<g class="st3">
			<polygon class="st6" points="658.7,358.3 658,341.7 656.5,307.1 655.8,291.1 611.8,291.1 610.8,307.1 608.7,341.7 607.6,358.3 
							"/>
			<polygon class="st5" points="659.5,369.5 607.5,369.5 605.3,358.3 661,358.3 			"/>
			<polygon class="st5" points="658,341.7 656.5,307.1 610.8,307.1 608.7,341.7 			"/>
		</g>
		<g class="st3">
			<g>
				
					<rect x="381" y="504.7" transform="matrix(-1 -1.224647e-16 1.224647e-16 -1 1165.2631 1286.7777)" class="st7" width="403.4" height="277.3"/>
				
					<rect x="366.7" y="479.5" transform="matrix(-1 -1.224647e-16 1.224647e-16 -1 1164.4226 1009.4716)" class="st8" width="431.1" height="50.4"/>
				
					<rect x="366.7" y="748.4" transform="matrix(-1 -1.224647e-16 1.224647e-16 -1 1164.4226 1547.2775)" class="st8" width="431.1" height="50.4"/>
				<path class="st8" d="M715,529.9v26.3l75.9,28.6c6.1,2.3,9.1,9.1,6.7,15.2c-2.4,6-9.4,8.9-15.3,6.3l-68.8-29.8
					c-4,13.3-15.5,23.2-29.5,25.2v10.1c0,2.5-2,4.6-4.6,4.6c-2.5,0-4.6-2-4.6-4.6v-10c-17.9-2.1-31.9-17.3-31.9-35.8v-36.1H715z"/>
				<path class="st8" d="M450.3,529.9v26.3l-75.9,28.6c-6.1,2.3-9.1,9.1-6.7,15.2c2.4,6,9.4,8.9,15.3,6.3l68.8-29.8
					c4,13.3,15.5,23.2,29.5,25.2v10.1c0,2.5,2,4.6,4.6,4.6c2.5,0,4.6-2,4.6-4.6v-10c17.9-2.1,31.9-17.3,31.9-35.8v-36.1H450.3z"/>
				
					<rect x="419.3" y="394.7" transform="matrix(-1 -1.224647e-16 1.224647e-16 -1 1164.4226 874.1799)" class="st7" width="325.8" height="84.9"/>
			</g>
			<g>
				<path class="st6" d="M630.1,723.8c5.5,6.5,22.9,10.8,22.9,10.8l0,0c6.8,7.7,16.7,12.6,27.7,12.6c20.3,0,36.9-16.6,36.9-36.9
					v-14.4c0-1.6-0.1-3.1-0.3-4.6H644c-0.2,1.5-0.3,3.1-0.3,4.6v7.1c-4.9-1-11.6-1.9-15.1,0.3C622.8,706.8,624.6,717.3,630.1,723.8z
					 M634.4,707.7c2.9-0.5,6.9,1.5,9.4,5c0.3,4.3,1.3,8.4,2.9,12.1c-4.1-1-12.4-3.6-14.2-8.3C630.2,710.5,631.7,708.2,634.4,707.7z"
					/>
				<path class="st9" d="M711.2,691.2h-9.9c0.2,1.5,0.3,3.1,0.3,4.6v14.4c0,18.6-14,34.1-31.9,36.5c1.6,0.2,3.3,0.4,5,0.4
					c20.3,0,36.9-16.6,36.9-36.9v-14.4C711.5,694.3,711.4,692.8,711.2,691.2z"/>
				
					<rect x="665.6" y="743.9" transform="matrix(-1 -1.224647e-16 1.224647e-16 -1 1361.28 1492.3483)" class="st6" width="30.1" height="4.5"/>
			</g>
			<g>
				<path class="st6" d="M435.1,723.8c5.5,6.5,22.9,10.8,22.9,10.8l0,0c6.8,7.7,16.7,12.6,27.7,12.6c20.3,0,36.9-16.6,36.9-36.9
					v-14.4c0-1.6-0.1-3.1-0.3-4.6h-73.2c-0.2,1.5-0.3,3.1-0.3,4.6v7.1c-4.9-1-11.6-1.9-15.1,0.3
					C427.9,706.8,429.6,717.3,435.1,723.8z M439.4,707.7c2.9-0.5,6.9,1.5,9.4,5c0.3,4.3,1.3,8.4,2.9,12.1c-4.1-1-12.4-3.6-14.2-8.3
					C435.2,710.5,436.8,708.2,439.4,707.7z"/>
				<path class="st9" d="M516.3,691.3h-9.9c0.2,1.5,0.3,3.1,0.3,4.6v14.4c0,18.6-14,34.1-31.9,36.5c1.6,0.2,3.3,0.4,5,0.4
					c20.3,0,36.9-16.6,36.9-36.9v-14.4C516.6,694.3,516.5,692.8,516.3,691.3z"/>
				
					<rect x="470.6" y="743.9" transform="matrix(-1 -1.224647e-16 1.224647e-16 -1 971.3708 1492.36)" class="st6" width="30.1" height="4.5"/>
			</g>
		</g>
		
			<rect x="772" y="485.7" transform="matrix(-1 -1.224647e-16 1.224647e-16 -1 1552.6154 1009.1491)" class="st10" width="8.5" height="37.8"/>
		
			<rect x="756.1" y="485.7" transform="matrix(-1 -1.224647e-16 1.224647e-16 -1 1520.6473 1009.1491)" class="st10" width="8.5" height="37.8"/>
		
			<rect x="740.9" y="485.7" transform="matrix(-1 -1.224647e-16 1.224647e-16 -1 1490.2573 1009.1491)" class="st10" width="8.5" height="37.8"/>
	</g>
	<g class="st2">
		<path class="st11" d="M1239,1239.9c0,3.8,1.9,6.4,5.1,8.2c0,0,0,0,0,0c5.9,3.2,16.3,3.6,27.5,3.1c1.4-0.1,2.7-0.1,3.9-0.1
			c0.3,0,0.6,0,0.9,0c0.2,0,0.5,0,0.7,0c11.2,0.3,10,3.6,31.2,5.4c24.2,2.1,33.1-5.3,34.5-8.7c1.2-2.9-9.2-6.1-20.8-9.8
			c-0.6-0.2-1.1-0.4-1.7-0.5c-1.5-0.5-3.1-1-4.6-1.5c-13.8-4.6-27.4-10-30.8-24c-3.6-14.8,7.2-56.1,7.2-56.1l-38.3-4.1
			c0,0-3.7,43.2-6.1,56.7c-1.3,7.2-4.6,12.9-6.5,19.1c-0.1,0.4-0.3,0.9-0.4,1.3C1239.9,1232.4,1238.9,1236.1,1239,1239.9z"/>
		<path class="st12" d="M1239,1239.9c0,3.8,1.9,6.4,5.1,8.2c0,0,0,0,0,0c6.3,2.9,16.5,3.3,27.5,3c1.4,0,2.7,0,3.9,0
			c0.3,0,0.6,0,0.9,0c0.2,0,0.5,0,0.7,0c11.2,0.3,10,3.6,31.2,5.4c24.2,2.1,33.1-5.3,34.5-8.7c1.2-2.9-9.2-6.1-20.8-9.8
			c-3.2,1.3-18.7,6.6-37.1,3.2c-16.1-3-32.1-11.1-43.6-13.7c-0.1,0.4-0.3,0.9-0.4,1.3C1239.9,1232.4,1238.9,1236.1,1239,1239.9z"/>
		<path class="st11" d="M1487.4,1191.1c2.1,10.6,17.3,8.9,34.2,4.7c16.9-4.1,12.9,0.8,37-1.9c24.1-2.7,31.4-11.7,32.1-15.2
			c0.7-3.2-11.2-4.3-24-5.8c-1.6-0.2-3.2-0.4-4.8-0.6c-14.4-1.8-25-11.1-38.1-18.8c-12.4-7.2-30.9-36.7-30.9-36.7l-33,2.6
			c0,0,17.3,26.3,24.1,37.8c3.9,6.7,3.7,15.6,3.2,22.5C1486.9,1183.5,1486.6,1187.3,1487.4,1191.1z"/>
		<path class="st12" d="M1521.6,1195.8c16.9-4.1,12.9,0.8,37-1.9c24.1-2.7,31.4-11.7,32.1-15.2c0.7-3.2-11.2-4.3-24-5.8l-0.1,0.2
			c0,0-14.5,10.2-34.5,10.7c-16.3,0.4-33.7-4.3-45-4.1c-0.3,3.7-0.5,7.6,0.3,11.3C1489.5,1201.7,1504.7,1199.9,1521.6,1195.8z"/>
		<path class="st13" d="M1413.8,705.7c0,0,7.9-19.3,16.5-20.1c8.7-0.8,36.2-5.1,38.2-1.2c2,3.9,0,18.1-5.9,23.2
			c-5.9,5.1-42.5,13.4-42.5,13.4L1413.8,705.7z"/>
		<path class="st14" d="M1360.7,979.8l-71.2,191.7c0,0-10.9,1.1-21.4-2c-9.7-2.8-20.7-10.1-20.7-10.1s17.7-184,50.1-222.3
			C1329.8,898.8,1360.7,979.8,1360.7,979.8z"/>
		<path class="st15" d="M1079,902.2c0,0,204.7-69.2,250.3-54.5c45.6,14.7,182.7,287.4,182.7,287.4s-3.1,4.1-11.5,7.3
			c-7.9,2.9-26.9,2.8-26.9,2.8s-123.7-106-138.4-136.9c-14.7-30.9-20.6-60.4-35.3-57.4c-14.7,2.9-189.9,72.1-229.7,30.9
			c-39.8-41.2-29.4-94.8-29.4-94.8L1079,902.2z"/>
		<path class="st14" d="M1204.1,580.3c3.3-6.7,6.9-18.7,8.7-40.1c-0.3,2.1-4,29.1-14.3,44.3c-42.6,27.9-124.1,121.3-122.5,138.9
			c0,0-28.7-48.7-29.2-49c0,0-53-67.4,9.8-106c31.9-19.6,31.8-44.8,30.4-66.7c-1.3-21.9,8.7-116.1,72.7-91.4c0,0,10.3-4.6,14.9-3.9
			c0,0-3.8,0.7-5.7,2.7c7.4-0.4,18,0.1,26.9,5.1C1219.1,427.6,1240.1,547.1,1204.1,580.3z"/>
		<path class="st13" d="M1196,585.9c0.2,0.1-20.6,10.9-36.2,6.6c-14.7-4-24.3-23.1-24.1-23.1c6.2-1.2,8-9.8,7.9-46.5l2.8,0.6
			l47.3,9.4c0,0-1.1,14.9-1.1,28.9C1192.5,573.5,1193.3,584.6,1196,585.9z"/>
		<path class="st16" d="M1193.7,532.8c0,0-1.1,14.9-1.1,28.9c-26.5-0.7-40.5-24.9-46.2-38.3L1193.7,532.8z"/>
		<path class="st14" d="M1141.5,518.3c0,0-13.9-21.9-17.2-40.7c-2.4-13.4,4.4-63,54.3-55.8c0,0,14.5,1.4,28.1,10.6
			c10.8,7.3,26.4,23.1,9,66.4l-4.5,14.6L1141.5,518.3z"/>
		<path class="st13" d="M1202.5,546.1c0,0-62.6,1-62.7-38c0-39-8.2-65.1,31.8-67.4c40-2.3,47.8,12.6,50.9,25.6
			C1225.8,479.2,1218.8,544.8,1202.5,546.1z"/>
		<path class="st14" d="M1143.4,447.9c0,0,42.8-29.2,56.3-9c4.1-3.5,11.4-6.1,21.1,5.6c14.5,17.6,1.6,48.7,1.6,48.7
			c-6,0.7-7.4-19.8-10.5-29.7c-2.4-7.5-10.2-15.1-13.9-18.4c-5.5,12.3-20.5,41.8-41.2,47.1c-26.3,6.8-37.7-0.3-37.7-0.3
			S1139.2,475.9,1143.4,447.9z"/>
		<path class="st17" d="M1056.5,754.3c-6.2-25.9,14.8-76.1,36.8-117.7c19.9-37.7,40.6-68.3,42.4-67.2c52.5,31.1,57.2,5.3,57.2,5.3
			s47.7,6.3,61.2,29.6c18.7,32.1,39,128.5,59,127.1c9.2-0.7,101.4-35.3,101.4-35.3s15.4,14.4,12.4,32.1c0,0-45.6,30.5-84.1,50
			c-20.4,10.3-38.8,17.5-47.5,15.5c-17.6-4.1-45-44.8-59.8-68.8c0-0.1-0.1-0.1-0.1-0.2c-18.9,107,6.8,131.4-6.2,142.7
			c-13.7,11.9-33.4-5.7-76.6,13c-28.3,12.3-67.6,30.1-94.1,33.2c-13.9,1.6-24.2-0.8-27.6-10.2C1021.2,876,1068.3,803.7,1056.5,754.3
			z"/>
		<path class="st18" d="M1188.6,522.4c0,0,1.2,5,13.5,4.2c0,0,10.3-0.6,10-6.1C1212.1,520.5,1202.1,516.6,1188.6,522.4z"/>
		<path class="st19" d="M1031,903.3c3.4,9.4,13.7,11.8,27.6,10.2c18.3-8,97.4-38.6,96.6-59.4c-1.3-30.8-15.2-31.7-5.4-69.7
			c7.9-30.5-45.7-93.2-57.4-105.5c-21.9,41.6-42.1,49.6-35.9,75.5C1068.3,803.7,1021.2,876,1031,903.3z"/>
		<path class="st19" d="M1235.6,724.7c14.8,24,42.2,64.6,59.8,68.8c8.7,2,27.1-5.2,47.5-15.5c-14.9,3.8-29.3,3.7-43.4,2.4
			c-15.2-1.5-19.6-20.1-43.7-48.1C1240.2,714.2,1236.4,718.7,1235.6,724.7z"/>
		<path class="st13" d="M1162.3,783.6c0,0,13.3-10.3,25.8-7.9c12.5,2.5,18.7,11,18.2,15c-0.5,3.9-7.1,15-16.7,16
			c-9.6,1-36.8-5.9-36.8-5.9L1162.3,783.6z"/>
		<path class="st17" d="M1135.7,569.4c0,0-51,3.1-68.7,27.8c-24.9,34.7-68.1,176.3-56.3,208.7l155.3-0.7c0,0,3.8-17.6-1.5-26.1
			c-5.2-8.5-90.3-22.3-94.2-26.2c-3.9-3.9,49.1-76.6,49.1-88.3C1119.4,652.8,1135.7,569.4,1135.7,569.4z"/>
	</g>
	<g class="st2">
		<polygon class="st10" points="327.4,1545.4 2330.4,1545.4 2330.4,1171.4 327.4,1167.7 		"/>
		<rect x="327.4" y="868.5" class="st20" width="2003" height="97.8"/>
	</g>
	<path class="st21" d="M2356.5,868.5h-2053c-17.4,0-31.5-14.1-31.5-31.5v-7.5c0-17.4,14.1-31.5,31.5-31.5h2053
		c17.4,0,31.5,14.1,31.5,31.5v7.5C2387.9,854.4,2373.8,868.5,2356.5,868.5z"/>
	<polygon class="st22" points="342.5,1167.7 2315.3,1171.4 2315.3,966.3 342.5,966.3 	"/>
	<g class="st2">
		<path class="st13" d="M581.7,777.1c-6.2-2.9-18.5,1.3-25.7,4.2c-3.4,1.4-5.6,2.5-5.6,2.5L543,798h0.3h68.2
			C609.1,790.5,590.2,781.2,581.7,777.1z"/>
		<path class="st23" d="M556.1,781.6c-8.1-9.6-98.2-34.1-106.7-40.1c-8.5-6-14.4-59.9-14.4-59.9c-9.6-94.4-52.3-125.5-53.1-126l0,0
			c0,0,0.5,12.8,1.3,32.2c1.6,40.3,4.6,109.1,7.4,150.8c1.5,21.6,6.4,16.9,12.3,29.5c1.8,3.9,3.7,7.4,5.6,10.5
			c6,10,12.1,16.2,15.8,19.4H543l10.6-0.4C563.5,791.9,556.1,781.6,556.1,781.6C556.1,781.5,556.2,781.6,556.1,781.6z"/>
		<g class="st3">
			<path class="st24" d="M366.5,415.9c0,0-6.1-87.2-119.4-54.2c-25.7,7.5-22.4,85.1,39.9,114.7L366.5,415.9z"/>
			<path class="st25" d="M321.2,531.1c0,0,44.3,8,60.8,24.5c16.4,16.4,55.3,65,30.8,226.7c0,0-2,48.8-56.8,53.4
				C301.2,840.4,321.2,531.1,321.2,531.1z"/>
			<path class="st26" d="M219.3,933.4c7.6,53.1,58.8,191.1,57.3,238.7c-1.2,37.6-0.6,124.4,4.4,182.1c1.4,15.7,3,29.1,5,38.9
				c4.4,21.3,10,45.8,13.1,61.2c6.8,34.7,3.2,54.9,8.7,73.5c6.1,20.3,75.8,16.6,54.8,4.3c-7.5-4.4-18.4-13.8-23.8-25.9
				c-19.6-43.9,7.9-233.2,16.1-306.2c1.1-9.1,1.8-16.4,2.1-21.3c2.7-45.1,33.7-345.4,33.7-345.4
				C315.5,791.5,211.7,880.3,219.3,933.4z"/>
			<path class="st27" d="M219.3,933.4c7.6,53.1,58.8,191.1,57.3,238.7c-1.2,37.6-0.6,124.4,4.4,182.1l73.9-154.2
				c1.1-9.1,1.8-16.4,2.1-21.3c2.7-45.1,34.5-345.5,34.5-345.5C316.3,791.4,211.7,880.3,219.3,933.4z"/>
			<path class="st26" d="M382.3,843c0,0-64.5,296.7-71.9,341.2c-7.3,44.5-66.1,254.3-53.3,306.9c7.6,31,20.7,40.2,20.7,40.2
				c3.1,5.7-48,17-52.1-4.8c-5.2-27.6-6.3-66.4-14-132.1c-13.2-113.2,13-177.6,19.3-224.9c6.3-47.3-21.3-197.6-6-249
				C252,830.6,311.9,793.7,382.3,843z"/>
			<path class="st24" d="M399.7,1104.8c-11.4,4.7-24,8.2-37.1,10.7c0,0-0.1,0-0.1,0c-12.9,2.5-26.2,4-39.4,4.9
				c-18.6,1.3-37,1.2-53.3,0.5l-4.7-54.9l-5,19.9l-8.5,34.1c-7.9-0.5-14.9-1.2-20.9-1.8c-12.8-1.3-20.7-2.5-20.7-2.5
				c-14.5-119.2,2.9-194.3,22.5-238.7c0,0,0,0,0,0c6.2-14.1,12.6-25,18.4-33.4c3.1-4.5,5.9-8.2,8.5-11.2c2.1-2.4,3.9-4.4,5.4-5.9
				c2.9-3,4.6-4.3,4.6-4.3c6.7,2.6,13.3,4.7,19.7,6.6c4.6,1.3,9.1,2.4,13.5,3.4c0.1,0,0.1,0,0.2,0c3,0.7,6,1.2,8.9,1.8
				c1.1,0.2,2.2,0.4,3.2,0.5c3.4,0.5,6.8,1,10.1,1.4c19,2.2,35.1,1.6,46.8,0.5c10-1,16.6-2.4,18.8-2.9c0.5-0.1,0.8-0.2,0.8-0.2
				l0.1,3l1.6,51.8L399.7,1104.8z"/>
			<path class="st28" d="M288.4,1542.2h-61c-4.7-8.6-11-34.1-15.8-39.5c-0.3-0.4-0.7-0.8-1.1-1.3l-0.5,40.8h-5.5
				c-0.1-8.7-0.8-39.1-3.8-56.2c-3.3-6.2-5.6-12.3-4.6-14.8c2.1-5.3,21.7-17.1,21.7-17.1s14.5,72.3,21.3,74
				c16.3,4.1,32.7,2.6,37.3,2c0.8-0.1,8.2,3.2,10.9,7.5C288.4,1539.1,288.8,1540.7,288.4,1542.2z"/>
			<path class="st28" d="M370.1,1542.2h-61c-4.7-8.4-10.8-33.5-15.6-39.3l-0.5,39.3h-5.5c0-1.2,0-2.7-0.1-4.5
				c-0.2-11.1-1-33.3-3.2-48.3c-4.2-7.3-7.6-15.2-6.4-18.2c2.1-5.3,21.2-17,21.2-17s0.1,0.6,0.3,1.7c0,0.2,0.1,0.3,0.1,0.5
				c0,0.2,0.1,0.4,0.1,0.7c0,0.2,0.1,0.3,0.1,0.5c2.8,14,14.1,68.8,21.1,70.6c18.6,4.7,37.3,2,38.6,1.9c0,0,0.1,0,0.1,0
				S371.6,1535.9,370.1,1542.2z"/>
			<path class="st29" d="M402.9,789.5c-2,11.2-4.1,20.8-5.9,28.4c-0.1,0.5-0.3,1.1-0.4,1.6c-2.5,10.4-4.2,16.5-4.2,16.5
				c-0.3,0.1-0.6,0.2-0.9,0.3c-0.1,0.1-0.3,0.1-0.4,0.1c-0.3,0.1-0.5,0.2-0.8,0.3c-4.2,1.3-8.3,2.5-12.3,3.5
				c-22.5,5.6-42.4,6.1-59,4.2c-9.1-1-17.1-2.8-24.1-4.8c-1.6-0.5-3.2-0.9-4.6-1.4c-0.1,0-0.1,0-0.2-0.1c-3.8-1.3-7.3-2.6-10.3-3.8
				c-9.3-3.9-14.5-7.4-15-7.7c0,0,0,0,0,0c0.8-1.9,1.4-4.3,2-7c1.1-5.2,1.8-11.9,2.1-19.7c0.7-13.5,0.5-30.4-0.3-49
				c0-0.5,0-1.1-0.1-1.6c-0.9-23.3-2.7-49.1-4.5-74.2c-1.4-19.3-2.8-38.1-3.9-55c-0.3-5.2-0.7-10.2-0.9-14.9
				c-1.6-26.6-2-46.3,0.4-51.4c3.6-7.8,14.7-12.6,26.6-15.4c1.7-0.4,3.4-0.8,5.1-1.1c0.2,0-0.5-1.9-0.3-2c1.6-0.3,4.2,1.2,5.9,1
				c0.7-0.1,1.4-0.2,2-0.3c10.6-1.6,19.8-1.9,22.1-2c0.4,0,0.5,0,0.5,0s7.5,3.7,18.2,11.2c0.8,0.6,11.3-6.2,12.1-5.6
				c12.2,8.9,26.6,25,33.3,46.8c9.1,29.6,22.5,44.2,25.3,73.4C415,707,409.2,755.4,402.9,789.5z"/>
			<path class="st25" d="M224.6,841.2c22.7,4.7,58.9,2.3,85.8-5.4c8.9-2.5,16.8-5.7,22.8-9.4c24-14.8,35.7-124,31.5-165.4
				C360.6,619.8,291,535,291,535c-17.1,12.7-24.6,42.1-34.8,80.7C231.6,708.6,224.6,841.2,224.6,841.2z"/>
			<path class="st30" d="M224.6,841.2c22.7,4.7,58.9,2.3,85.8-5.4c9.9-14,17.7-31.1,22-52c12.2-60.3-36-125.7-76.1-168.1
				C231.6,708.6,224.6,841.2,224.6,841.2z"/>
			<path class="st31" d="M369.2,749.4l-53.5-38.6c-6.6-4.8-15.9-3.3-20.7,3.3l-59.6,82.6c-4.8,6.6-3.3,15.9,3.3,20.7l53.5,38.6
				c6.6,4.8,15.9,3.3,20.7-3.3l59.6-82.6C377.3,763.5,375.8,754.2,369.2,749.4z"/>
			<path class="st32" d="M321.8,790.8c0,0,26.1-2.6,29.4,1.8c3.2,4.4,0.3,21.4-14.4,23.2c-14.7,1.8-31.4-10.3-31.4-10.3L321.8,790.8
				z"/>
			<path class="st25" d="M291,535c0,0-46.5,5.5-66.6,47.3C204.2,624.2,182.5,731.9,188,742c5.4,10.1,70.5,64.3,124,71.3
				c0,0,11.6-14.7,10.9-27.9c0,0-72.1-45-78.3-57.4c-6.2-12.4,55-115.5,54.3-133.3C298,576.9,291,535,291,535z"/>
			<path class="st33" d="M343.4,398.6c0,0,27.2,3.3,28.8,34.8c0,0,11.9-49.9-31.2-48.8C297.8,385.6,343.4,398.6,343.4,398.6z"/>
			<path class="st34" d="M351.8,539.3c0,0-2.5-26.3-1.9-33.1v0c0.3-3.5,0.7-5.5,0.7-5.5l-0.7-0.2l-54.6-16.6c0,0.4,0,0.9-0.1,1.3
				c-0.7,14.7-1.5,26.2-2.5,35.1c-0.1,1.2-0.2,2.3-0.4,3.3c-0.5,4.5-1,8.3-1.5,11.4c10.6,4.6,19.3,7.8,26.5,9.9
				c19.6,5.7,28.1,3.4,31.7,0C352.3,542,351.9,539.7,351.8,539.3z"/>
			<path class="st35" d="M345.7,500.5v5.7c0,0-31.4,0.4-52.8,14c0.9-8.9,1.8-20.3,2.5-35.1L345.7,500.5z"/>
			<path class="st34" d="M360.7,504.4c0,0-66.1,13.3-73.8-28c-7.6-41.3-21.3-67.4,20.6-77.6c41.9-10.2,53,4,58.9,17.2
				C372.4,429.1,377.7,499.9,360.7,504.4z"/>
			<path class="st24" d="M338.3,389.6c0,0,18.7,23.4-15.4,44.8c-34.1,21.4-31.5,64.2-22.4,76.3c0,0-67.9-66.2-36.4-105.7
				C295.5,365.5,338.3,389.6,338.3,389.6z"/>
		</g>
	</g>
	<path class="st0" d="M2090,1493.5v-75.9h77.6c3,0,5.5-2.5,5.5-5.5v-20.7c0-3-2.5-5.5-5.5-5.5H2090v-244.8c0-8-6.6-14.6-14.6-14.6
		h-15.7c-8,0-14.6,6.6-14.6,14.6v244.8h-77.6c-3,0-5.5,2.5-5.5,5.5v20.7c0,3,2.5,5.5,5.5,5.5h77.6v75.9
		c-57.3,4.3-103.2,25-116.1,51.6h277C2193.2,1518.5,2147.3,1497.8,2090,1493.5z"/>
	<g class="st2">
		<path class="st11" d="M1984.1,578.9l-27.7,34.5l-52.4,2.6c-0.5-5-2.3-26.7-3.9-45.3c-1.2-15.2-2.3-28.2-2.3-28.2l55.4-48.5
			c0,0.3,2.9,16.4,3.3,18.8C1964,554.5,1984.1,578.9,1984.1,578.9z"/>
		<path class="st11" d="M1545.3,763.2c0,0-28.9-14.7-39-9.3c-10.1,5.4-28.3,26.4-30.7,31.6c-2.4,5.2-3.6,12.8,5.9,11.8
			c9.5-1,10.1-0.9,10.1-0.9s16.6-11.5,20.4-11.4c3.8,0.1,19.3,8.5,27.6,0.3C1547.8,776.9,1545.3,763.2,1545.3,763.2z"/>
		<path class="st36" d="M1773.2,1485c0,0-3.7,59.2-15.1,60c-1.5,0.1-58,0.1-58,0.1l-72.4-0.2c0,0,0.7-17.6,21.8-21.3
			c21.1-3.7,56.4-18.5,69.2-46.4C1732.1,1447.9,1773.2,1485,1773.2,1485z"/>
		<path class="st14" d="M2059,1112.7c-10.3,17.5-22.2,33.8-34.5,49.4c-38,47.9-112.2,61.1-119.4,98.4c-1.4,7.4-3.7,15.5-6.7,23.9
			c-3,8.6-6.7,17.5-11,26.8c-16.1,35-12.7,31.5-36.7,67.2c-41.6,61.6-75.3,119.7-75.3,119.7l-71.7-3.1c2.9-7.2,34.1-92.2,76-196.2
			c17-42.2,15.7-41.4,33.1-84.7c2.3-5.8,4.6-11.5,6.9-17.2c5.3-13.2,10.6-26.3,15.7-39c39.3-97.6,89.9-158.6,89.9-158.6
			s157-59.5,173.3-20.9C2112.1,1010.1,2101.2,1041.2,2059,1112.7z"/>
		<path class="st36" d="M1947,1348.4c0,0,52.1,28.2,48.1,39c-0.5,1.4-24.4,52.7-24.4,52.7l-30.8,65.3c0,0-15.6-7.8-10-28.4
			c5.6-20.7,7-58.9-12.9-82.3C1896,1370.1,1947,1348.4,1947,1348.4z"/>
		<path class="st37" d="M1892.1,566.1c1.1-0.4,70.9-17.1,78.2-14.3c7.3,2.9,11,17.5,11,17.5l-113.6,19.6
			C1867.7,588.9,1877.5,571.4,1892.1,566.1z"/>
		<path class="st11" d="M1883.1,547.5c0,0,74.3,3.4,75.7-42.9c1.4-46.3,11.9-77.1-35.5-81.2c-47.4-4.1-57.2,13.3-61.4,28.6
			C1857.8,467.3,1863.8,545.4,1883.1,547.5z"/>
		<path class="st14" d="M1863.6,447.1c0,0,17.5,48.9,27.3,44c9.8-4.9,18.7-9,21.2,6.5c2.4,15.5-7.3,36.7,25.3,31
			c32.6-5.7,56.8-100,44-113.2C1944.3,377.1,1812.7,401.9,1863.6,447.1z"/>
		<path class="st38" d="M2018.6,572c-53.2-16.5-150.6,13.1-150.6,13.1c-0.1,0.1-0.2,0.1-0.2,0.2c-16.7,5.6-37,16.9-51.4,39.8
			c-30,47.7-106.3,108.8-114.9,112.4c-8.6,3.7-123.9,11.1-160.6,18.5c0,0-16.1,23.5-5.1,35.7c11,12.2,177.9,7.1,187.7,6.3
			c36.3-2.9,76.6-18.4,110.4-34.6c0,0.1,0,0.1,0.1,0.2c0,0.1,0.1,0.2,0.1,0.2c69.4,167.6,7.3,187,34.8,209c1.9,1.5,4.7,3,8.2,4.4
			c46.8,18.7,206.4,24.5,225.1,2.3C2122.5,955.7,2087.7,593.3,2018.6,572z"/>
		<path class="st37" d="M1934.5,897.2c-3.2,22.8-21.5,79.1-57.3,80c-3.5-1.4-6.3-2.9-8.2-4.4c-27.5-22,34.6-41.3-34.8-209
			c0-0.1-0.1-0.2-0.1-0.2c11.6-8,30.4-17,42.6-3.2C1895.4,781.5,1937.8,873.6,1934.5,897.2z"/>
		<path class="st39" d="M1869,972.7c0,0-194.3,121-216.3,203.5c-22,82.5,272.1,225.9,272.1,225.9s31.2-27.5,36.7-47.7
			c0,0-138.4-121.4-166.2-155.8c-17.1-21.2,253-73.3,285.9-124.6c33-51.3,21.2-94.5,21.2-94.5L1869,972.7z"/>
	</g>
	<path class="st40" d="M2252.9,1105.3h-370.6c-7.4,0-13.5,6.1-13.5,13.5v74.1c0,7.4,6.1,13.5,13.5,13.5h370.6
		c7.4,0,13.5-6.1,13.5-13.5v-74.1C2266.3,1111.4,2260.3,1105.3,2252.9,1105.3z"/>
	<path class="st0" d="M1214.5,1493.5v-75.9h77.6c3,0,5.5-2.5,5.5-5.5v-20.7c0-3-2.5-5.5-5.5-5.5h-77.6v-244.8
		c0-8-6.6-14.6-14.6-14.6h-15.7c-8,0-14.6,6.6-14.6,14.6v244.8h-77.6c-3,0-5.5,2.5-5.5,5.5v20.7c0,3,2.5,5.5,5.5,5.5h77.6v75.9
		c-57.3,4.3-103.2,25-116.1,51.6h277C1317.7,1518.5,1271.8,1497.8,1214.5,1493.5z"/>
	<path class="st40" d="M1377.4,1105.3h-370.6c-7.4,0-13.5,6.1-13.5,13.5v74.1c0,7.4,6.1,13.5,13.5,13.5h370.6
		c7.4,0,13.5-6.1,13.5-13.5v-74.1C1390.9,1111.4,1384.8,1105.3,1377.4,1105.3z"/>
	<rect x="2217.6" y="131.5" class="st21" width="15.2" height="666.6"/>
	<rect x="709.7" y="91.6" class="st21" width="1690.7" height="39.9"/>
	<polygon class="st41" points="2116.6,191.7 2077.4,259.6 2159.6,259.6 2120.4,191.7 2120.4,142.9 2149.2,131.5 2087.8,131.5 
		2116.6,142.9 	"/>
	<polygon class="st41" points="2071,191.7 2031.8,259.6 2114,259.6 2074.8,191.7 2074.8,142.9 2103.6,131.5 2042.2,131.5 
		2071,142.9 	"/>
	<polygon class="st41" points="1734.4,191.7 1695.2,259.6 1777.4,259.6 1738.2,191.7 1738.2,142.9 1767,131.5 1705.6,131.5 
		1734.4,142.9 	"/>
	<polygon class="st41" points="1688.8,191.7 1649.6,259.6 1731.8,259.6 1692.6,191.7 1692.6,142.9 1721.4,131.5 1660,131.5 
		1688.8,142.9 	"/>
	<polygon class="st41" points="1534.4,191.7 1495.2,259.6 1577.4,259.6 1538.2,191.7 1538.2,142.9 1567,131.5 1505.6,131.5 
		1534.4,142.9 	"/>
	<polygon class="st41" points="1488.8,191.7 1449.6,259.6 1531.8,259.6 1492.6,191.7 1492.6,142.9 1521.4,131.5 1460,131.5 
		1488.8,142.9 	"/>
	<polygon class="st41" points="1643.3,191.7 1604,259.6 1686.3,259.6 1647.1,191.7 1647.1,142.9 1675.9,131.5 1614.5,131.5 
		1643.3,142.9 	"/>
	<polygon class="st41" points="1912.8,191.7 1873.6,259.6 1955.8,259.6 1916.6,191.7 1916.6,142.9 1945.4,131.5 1884,131.5 
		1912.8,142.9 	"/>
	<g class="st2">
		<g class="st3">
			
				<rect x="846.5" y="612.5" transform="matrix(-0.8248 0.5655 -0.5655 -0.8248 1927.3794 748.1562)" class="st42" width="2.5" height="120.5"/>
			<circle class="st43" cx="833.9" cy="652.7" r="6.7"/>
			<path class="st43" d="M837.2,667.4c0,3.7,3,6.7,6.7,6.7c3.7,0,6.7-3,6.7-6.7c0-3.7-3-6.7-6.7-6.7
				C840.2,660.7,837.2,663.7,837.2,667.4z"/>
		</g>
		<path class="st44" d="M900.8,696h-45.7l18.2,31.9c1.9,3.3,6.7,3.4,8.6,0.1L900.8,696z"/>
		<polygon class="st45" points="876,737.7 836.8,669.8 919,669.8 879.8,737.7 879.8,786.6 908.6,798 847.2,798 876,786.6 		"/>
	</g>
	<path class="st21" d="M1492.8,110.6v33.9h-10.9c-2.2,0-4,1.8-4,4l0,0c0,2.2,1.8,4,4,4h10.9h7.9v-7.9v-33.9H1492.8z"/>
	<path class="st21" d="M1537.4,110.6v33.9h-10.9c-2.2,0-4,1.8-4,4l0,0c0,2.2,1.8,4,4,4h10.9h7.9v-7.9v-33.9H1537.4z"/>
	<path class="st21" d="M1646.6,110.6v33.9h-10.9c-2.2,0-4,1.8-4,4l0,0c0,2.2,1.8,4,4,4h10.9h7.9v-7.9v-33.9H1646.6z"/>
	<path class="st21" d="M1692.2,110.6v33.9h-10.9c-2.2,0-4,1.8-4,4l0,0c0,2.2,1.8,4,4,4h10.9h7.9v-7.9v-33.9H1692.2z"/>
	<path class="st21" d="M1737.8,110.6v33.9h-10.9c-2.2,0-4,1.8-4,4l0,0c0,2.2,1.8,4,4,4h10.9h7.9v-7.9v-33.9H1737.8z"/>
	<path class="st21" d="M1916.3,110.6v33.9h-10.9c-2.2,0-4,1.8-4,4l0,0c0,2.2,1.8,4,4,4h10.9h7.9v-7.9v-33.9H1916.3z"/>
	<path class="st21" d="M2074.9,110.6v33.9h-10.9c-2.2,0-4,1.8-4,4l0,0c0,2.2,1.8,4,4,4h10.9h7.9v-7.9v-33.9H2074.9z"/>
	<path class="st21" d="M2120.4,110.6v33.9h-10.9c-2.2,0-4,1.8-4,4l0,0c0,2.2,1.8,4,4,4h10.9h7.9v-7.9v-33.9H2120.4z"/>
	<path class="st21" d="M1811.8,110.6v33.9h-10.9c-2.2,0-4,1.8-4,4l0,0c0,2.2,1.8,4,4,4h10.9h7.9v-7.9v-33.9H1811.8z"/>
	<path class="st21" d="M2016,110.6v33.9h-10.9c-2.2,0-4,1.8-4,4l0,0c0,2.2,1.8,4,4,4h10.9h7.9v-7.9v-33.9H2016z"/>
	<g class="st2">
		<path class="st45" d="M1458.4,690.1c10.5-13.7,7.5-45.9,6.1-56.7c-0.3-2.1-2-3.6-4.1-3.6h-18.8h-18.8c-2.1,0-3.9,1.6-4.1,3.6
			c-1.4,10.8-4.4,43,6.1,56.7c9,11.7,4,34.5,0.3,46.8c-1.3,4.2,1.9,8.5,6.3,8.5h10.1h10.1c4.4,0,7.6-4.2,6.3-8.5
			C1454.4,724.6,1449.4,701.9,1458.4,690.1z"/>
		<path class="st46" d="M1420.8,645.2c-0.8,13.9-0.4,33.5,6.3,43.3c7.8,11.4,3.5,33.6,0.3,45.6c-1.1,4.1,1.7,8.2,5.5,8.2h8.8h8.8
			c3.8,0,6.6-4.1,5.5-8.2c-3.2-12-7.5-34.2,0.3-45.6c6.7-9.8,7-29.5,6.3-43.3H1420.8z"/>
		<path class="st18" d="M1459.3,648.1h-35.5c-1.8,0-3.2-1.5-3.2-3.2l0,0c0-1.8,1.5-3.2,3.2-3.2h35.5c1.8,0,3.2,1.5,3.2,3.2l0,0
			C1462.5,646.7,1461.1,648.1,1459.3,648.1z"/>
	</g>
	<rect x="1536.3" y="504.9" class="st21" width="281.3" height="6.8"/>
	<g class="st2">
		<path class="st38" d="M1795,377.7c-3.3-2.4-5.1-6.3-5.1-10.3l0.3-58.5c0-3.1-2.5-5.6-5.6-5.7l-6.2,0c-3.1,0-5.6,2.5-5.7,5.6
			l-0.3,58.5c0,4.1-1.9,7.9-5.2,10.3c-6,4.3-10,11.3-10,19.2l-0.3,46.1l-0.2,35.9l-0.1,19.5c0,3.6,2.9,6.5,6.5,6.5l34.5,0.2
			c3.6,0,6.5-2.9,6.5-6.5l0.1-19.5l0.2-35.9l0.3-46.1C1804.8,389.1,1801,382.1,1795,377.7z"/>
		<path class="st14" d="M1790.8,310.8l-0.5,0l0-1.9c0-3.1-2.5-5.6-5.6-5.7l-6.2,0c-3.1,0-5.6,2.5-5.7,5.6l0,1.9l-0.7,0
			c-0.3,0-0.6,0.3-0.6,0.6l0,2.5c0,0.3,0.3,0.6,0.6,0.6l0.7,0l-0.1,24.3l17.4,0.1l0.1-24.3l0.5,0c0.3,0,0.6-0.3,0.6-0.6l0-2.5
			C1791.3,311.1,1791.1,310.8,1790.8,310.8z"/>
		<polygon class="st14" points="1804.5,443.1 1804.7,410.3 1757.2,410.1 1757,442.8 1756.8,478.7 1756.8,487 1804.2,487.3 
			1804.3,479 		"/>
	</g>
	<g class="st2">
		<path class="st38" d="M841.5,240.6c-3.3-2.4-5.1-6.3-5.1-10.3l0.3-58.5c0-3.1-2.5-5.6-5.6-5.7l-6.2,0c-3.1,0-5.6,2.5-5.7,5.6
			l-0.3,58.5c0,4.1-1.9,7.9-5.2,10.3c-6,4.3-10,11.3-10,19.2l-0.3,46.1l-0.2,35.9l-0.1,19.5c0,3.6,2.9,6.5,6.5,6.5l34.5,0.2
			c3.6,0,6.5-2.9,6.5-6.5l0.1-19.5L851,306l0.3-46.1C851.3,252,847.4,245,841.5,240.6z"/>
		<path class="st39" d="M837.2,173.7l-0.5,0l0-1.9c0-3.1-2.5-5.6-5.6-5.7l-6.2,0c-3.1,0-5.6,2.5-5.7,5.6l0,1.9l-0.7,0
			c-0.3,0-0.6,0.3-0.6,0.6l0,2.5c0,0.3,0.3,0.6,0.6,0.6l0.7,0l-0.1,24.3l17.4,0.1l0.1-24.3l0.5,0c0.3,0,0.6-0.3,0.6-0.6l0-2.5
			C837.8,174,837.5,173.7,837.2,173.7z"/>
		<polygon class="st39" points="851,306 851.2,273.3 803.7,273 803.5,305.7 803.3,341.6 803.2,349.9 850.7,350.2 850.8,341.9 		"/>
	</g>
	<g class="st2">
		<g class="st3">
			<path class="st28" d="M932.3,269.1c-3.3-2.4-5.1-6.3-5.1-10.3l0.3-39.5c0-3.1-2.5-5.6-5.6-5.7l-6.2,0c-3.1,0-5.6,2.5-5.7,5.6
				l-0.3,39.5c0,4.1-1.9,7.9-5.2,10.3c-6,4.3-10,11.3-10,19.2l-0.3,17.6l-0.2,35.9l-0.1,19.5c0,3.6,2.9,6.5,6.5,6.5l34.5,0.2
				c3.6,0,6.5-2.9,6.5-6.5l0.1-19.5l0.2-35.9l0.3-17.6C942.1,280.5,938.3,273.4,932.3,269.1z"/>
			<path class="st24" d="M928.1,221.2l-0.5,0l0-1.9c0-3.1-2.5-5.6-5.6-5.7l-6.2,0c-3.1,0-5.6,2.5-5.7,5.6l0,1.9l-0.7,0
				c-0.3,0-0.6,0.3-0.6,0.6l0,2.5c0,0.3,0.3,0.6,0.6,0.6l0.7,0L910,249l17.4,0.1l0.1-24.3l0.5,0c0.3,0,0.6-0.3,0.6-0.6l0-2.5
				C928.6,221.4,928.4,221.2,928.1,221.2z"/>
			<polygon class="st24" points="941.8,306 942,301.7 894.5,301.5 894.3,305.7 894.1,341.6 894.1,349.9 941.6,350.2 941.6,341.9 			
				"/>
		</g>
		
			<ellipse transform="matrix(0.7071 -0.7071 0.7071 0.7071 38.5014 744.591)" class="st47" cx="918.1" cy="325.8" rx="16.1" ry="16.1"/>
	</g>
	<g class="st2">
		<g class="st3">
			<path class="st28" d="M1594.5,406.2c-3.3-2.4-5.1-6.3-5.1-10.3l0.3-39.5c0-3.1-2.5-5.6-5.6-5.7l-6.2,0c-3.1,0-5.6,2.5-5.7,5.6
				l-0.3,39.5c0,4.1-1.9,7.9-5.2,10.3c-6,4.3-10,11.3-10,19.2l-0.3,17.6l-0.2,35.9l-0.1,19.5c0,3.6,2.9,6.5,6.5,6.5l34.5,0.2
				c3.6,0,6.5-2.9,6.5-6.5l0.1-19.5l0.2-35.9l0.3-17.6C1604.3,417.6,1600.5,410.5,1594.5,406.2z"/>
			<path class="st24" d="M1590.2,358.3l-0.5,0l0-1.9c0-3.1-2.5-5.6-5.6-5.7l-6.2,0c-3.1,0-5.6,2.5-5.7,5.6l0,1.9l-0.7,0
				c-0.3,0-0.6,0.3-0.6,0.6l0,2.5c0,0.3,0.3,0.6,0.6,0.6l0.7,0l-0.1,24.3l17.4,0.1l0.1-24.3l0.5,0c0.3,0,0.6-0.3,0.6-0.6l0-2.5
				C1590.8,358.5,1590.6,358.3,1590.2,358.3z"/>
			<polygon class="st24" points="1604,443.1 1604.2,438.8 1556.7,438.6 1556.5,442.8 1556.3,478.7 1556.3,487 1603.7,487.3 
				1603.8,479 			"/>
		</g>
		
			<ellipse transform="matrix(0.7071 -0.7071 0.7071 0.7071 135.511 1252.9758)" class="st47" cx="1580.2" cy="462.9" rx="16.1" ry="16.1"/>
	</g>
	<g class="st2">
		<g class="st3">
			<path class="st48" d="M1746,406.2c-3.3-2.4-5.1-6.3-5.1-10.3l0.3-39.5c0-3.1-2.5-5.6-5.6-5.7l-6.2,0c-3.1,0-5.6,2.5-5.7,5.6
				l-0.3,39.5c0,4.1-1.9,7.9-5.2,10.3c-6,4.3-10,11.3-10,19.2l-0.3,17.6l-0.2,35.9l-0.1,19.5c0,3.6,2.9,6.5,6.5,6.5l34.5,0.2
				c3.6,0,6.5-2.9,6.5-6.5l0.1-19.5l0.2-35.9l0.3-17.6C1755.9,417.6,1752,410.5,1746,406.2z"/>
			<path class="st24" d="M1741.8,358.3l-0.5,0l0-1.9c0-3.1-2.5-5.6-5.6-5.7l-6.2,0c-3.1,0-5.6,2.5-5.7,5.6l0,1.9l-0.7,0
				c-0.3,0-0.6,0.3-0.6,0.6l0,2.5c0,0.3,0.3,0.6,0.6,0.6l0.7,0l-0.1,24.3l17.4,0.1l0.1-24.3l0.5,0c0.3,0,0.6-0.3,0.6-0.6l0-2.5
				C1742.3,358.5,1742.1,358.3,1741.8,358.3z"/>
			<polygon class="st28" points="1755.5,443.1 1755.7,438.8 1708.3,438.6 1708.1,442.8 1707.8,478.7 1707.8,487 1755.3,487.3 
				1755.3,479 			"/>
		</g>
		<path class="st14" d="M1731.5,499L1731.5,499c-7.6,0-13.8-6.2-13.8-13.8v-42.1c0-7.6,6.2-13.8,13.8-13.8h0
			c7.6,0,13.8,6.2,13.8,13.8v42.1C1745.2,492.8,1739.1,499,1731.5,499z"/>
	</g>
	<g class="st2">
		<g class="st3">
			<path class="st24" d="M981.2,279.3c-3.3-2.4-5.1-6.3-5.1-10.3l0.3-58.5c0-3.1-2.5-5.6-5.6-5.7l-6.2,0c-3.1,0-5.6,2.5-5.7,5.6
				l-0.3,58.5c0,4.1-1.9,7.9-5.2,10.3c-6,4.3-10,11.3-10,19.2l-0.3,8.1l-0.2,35.9l-0.1,19.5c0,3.6,2.9,6.5,6.5,6.5l34.5,0.2
				c3.6,0,6.5-2.9,6.5-6.5l0.1-19.5l0.2-35.9l0.3-8.1C991,290.7,987.1,283.6,981.2,279.3z"/>
			<path class="st49" d="M976.9,212.4l-0.5,0l0-1.9c0-3.1-2.5-5.6-5.6-5.7l-6.2,0c-3.1,0-5.6,2.5-5.7,5.6l0,1.9l-0.7,0
				c-0.3,0-0.6,0.3-0.6,0.6l0,2.5c0,0.3,0.3,0.6,0.6,0.6l0.7,0l-0.1,24.3l17.4,0.1l0.1-24.3l0.5,0c0.3,0,0.6-0.3,0.6-0.6l0-2.5
				C977.5,212.6,977.2,212.4,976.9,212.4z"/>
			<polygon class="st49" points="990.7,306.7 990.9,302.4 943.4,302.1 943.2,306.4 943,342.3 943,350.6 990.4,350.8 990.5,342.6 			
				"/>
		</g>
		<path class="st38" d="M966.6,362.5L966.6,362.5c-7.6,0-13.8-6.2-13.8-13.8v-42.1c0-7.6,6.2-13.8,13.8-13.8l0,0
			c7.6,0,13.8,6.2,13.8,13.8v42.1C980.4,356.4,974.2,362.5,966.6,362.5z"/>
	</g>
	<rect x="778.4" y="366.9" class="st21" width="281.3" height="6.8"/>
	<path class="st50" d="M2625.6,1548.6H-44.5c-1.7,0-3.2-1.4-3.2-3.2l0,0c0-1.7,1.4-3.2,3.2-3.2h2670.1c1.7,0,3.2,1.4,3.2,3.2l0,0
		C2628.8,1547.1,2627.4,1548.6,2625.6,1548.6z"/>
</g>
</svg>
