<?xml version="1.0" encoding="utf-8"?>
<!-- Generator: Adobe Illustrator 23.1.0, SVG Export Plug-In . SVG Version: 6.00 Build 0)  -->
<svg version="1.1" id="Layer_1" xmlns="http://www.w3.org/2000/svg" xmlns:xlink="http://www.w3.org/1999/xlink" x="0px" y="0px"
	 viewBox="0 0 2107.6 1029.6" style="enable-background:new 0 0 2107.6 1029.6;" xml:space="preserve">
<style type="text/css">
	.st0{display:none;fill:#FFFFFF;}
	.st1{display:none;clip-path:url(#SVGID_2_);fill:#8C5F41;}
	.st2{display:none;}
	.st3{display:inline;fill:#B77446;}
	.st4{display:inline;fill:#EE9849;}
	.st5{display:inline;}
	.st6{fill:#434649;}
	.st7{display:inline;fill:#285493;}
	.st8{display:inline;fill:#434649;}
	.st9{display:inline;fill:#1F2021;}
	.st10{display:inline;fill:#A86337;}
	.st11{display:inline;fill:#C45446;}
	.st12{display:inline;fill:#FFFFFF;}
	.st13{display:inline;fill:#AA413E;}
	.st14{fill:#82B378;}
	.st15{fill:#ACD1A3;}
	.st16{fill:#E37970;}
	.st17{opacity:0.2;fill:#E37970;}
	.st18{fill:#80BDCC;}
	.st19{fill:#163560;}
	.st20{fill:#DDE3F2;}
	.st21{display:inline;fill:#2B478B;}
	.st22{display:inline;fill:#E58638;}
	.st23{fill:#E58638;}
	.st24{fill:#D39E7A;}
	.st25{fill:#8C5F41;}
	.st26{display:inline;fill:#D38957;}
	.st27{fill:#396669;}
	.st28{display:inline;fill:#E49963;}
	.st29{display:inline;fill:#396669;}
	.st30{display:inline;fill:#335051;}
	.st31{display:inline;fill:#ED975D;}
	.st32{display:inline;fill:#C65447;}
	.st33{display:inline;fill:#D68D5D;}
	.st34{display:inline;fill:#D39E7A;}
	.st35{fill:#A8D29F;}
	.st36{fill:#C45446;}
	.st37{display:none;fill:#283250;}
</style>
<g>
	<rect x="-450.1" y="-486.4" class="st0" width="3000" height="2000"/>
	<g>
		<defs>
			<path id="SVGID_1_" d="M62,1031.3c0,0-244.4-538.5,237.3-538.5c254.5,0,149.7-147.8,322.7-318.8c173.1-171,854-308.2,982.8,22
				c128.8,330.2-100.5,524,207.1,481c369.7-51.7,287.9,354.3,287.9,354.3H62z"/>
		</defs>
		<use xlink:href="#SVGID_1_"  style="overflow:visible;fill:#D6851B;"/>
		<clipPath id="SVGID_2_">
			<use xlink:href="#SVGID_1_"  style="overflow:visible;"/>
		</clipPath>
		<path class="st1" d="M2189.6,634.5h-600.8l-3.9-28.1c-0.1-0.6-0.3-1.2-0.5-1.8c2.4-43.2,12.1-78.6,13.8-103.7
			c4-13.6,1.4-21.5-2.3-26l3,0.5c-15.3-13.5-22.9-105.2-23.5-113c-0.1-1.2-0.3-2.5-0.5-3.9c-1.4-8.6-5.6-29.3-15.6-37.5l-42.2,3
			c0,0-16.2,7.7-28.3,43.4h0c-3,3.8-5.1,8.3-5.7,13.4c-2,16,8.2,22.2,8.2,22.2c1.6,18,6.1,39.2,14.3,40.1c0,0,3.5,0.2,8.7-0.2
			c0.1,5.7-0.4,13.1-2.5,20.6c-0.9,0.2-1.8,0.3-2.8,0.5c0,0,0-0.1,0-0.1c-0.5,0.1-1.1,0.2-1.7,0.4c-0.1,0-0.1,0-0.2,0
			c-0.5,0.1-0.9,0.2-1.3,0.4c-2.6,0.7-5.4,1.8-7.9,2.6c0,0-27.1,7.4-66.5,72.1h-5.8c-0.8-0.3-1.5-0.7-2.2-1
			c-0.6-0.3-1.4-0.6-2.2-0.9l0.3-6.5l0.8-18.3l0.4-8.8h1.2l-0.8-5.9h-27.6l-1.1,5.9h1.2l0.5,8.8l1.1,18.3l0.2,3.6
			c-2,0.3-3.6,0.8-4.4,1.6c-0.8,0.7-1.1,1.8-1,3.2H1379l0.4-8.4l0.8-18.3l0.4-8.8h1.2l-0.8-5.9h-27.6l-1.1,5.9h1.2l0.5,8.1
			c-2.8,0.6-5.3,1.4-7,2.3c-2.6,1.3-5.3,2.3-7.7,3.1c-23.3,3.4-41.3,4.3-53.1,5.4c0.8-2.4,0.7-4.5-0.5-5.7c-3.5-3.3-18.2-2-26.7,0.8
			c-41.6-57-70.6-75.1-70.6-75.1s-0.4-0.2-1.5-0.6c19.2-13.8-7-14.3-1.4-60.5c2.8-22.5-4.3-58.5-49.2-52.7
			c-44.9,5.8-59,49.9-50,69.5c9.1,19.6-13,24.3-20,45.4c-6,18.1-8,40.6-17.7,50.7c-26.7,28,14.5,68.8,49.9,73.1
			c0.1,3.6,0,7.3-0.3,11.2c-0.1,1.3-0.3,2.8-0.7,4.5c-2.5,12.7-10.8,34.6-16.1,51.4h-45.2c0,0,0,0,0,0h-239
			c-0.6-6.5-1.8-12.3-3.2-17.3c2.8-1.7,4.3-3.4,4.3-5.3c-0.3-13.2-33.5-82.5-44-94.2c0-9.5,0.1-23.3,0-32.5
			c1.4-6.3,2.2-11.9,2.4-16.5c0.1-1.6,0.1-3.2,0.1-4.6c0,0,0,0,0,0c0,0,0,0,0,0c-0.1-13.1-3.4-20.6-6.7-24.8
			c-3.3-4.2-6.6-5.1-6.6-5.1c-7.5-3-19.4-2.5-25-2v0l-0.1,0c-0.1,0-0.1,0-0.2,0l-7.5,0.7c0,0,0,0,0,0c-1,0.1-2.1,0.2-3.1,0.3
			c-4.2-2.2-11.4-12.1-16.3-28.5l0,0c0,0,1.6-9.9,7.5-8.4c9.1,2.4,20.1-19.1,9.4-41.1c-1.2-2.4-2.4-4.5-3.6-6.4
			c1.8,0.3,3.9,0.4,5.6,0c4.6-1.2,8.7-14.7,8.7-19c0-4.2-4.3-17-11.7-19.3c-7.3-2.3-16.3,4.9-16.3,4.9c2.3-5.8,15.5-7.4,15.5-7.4
			c-26.8,0.9-28.1,18.5-28.2,20.2c-20.8-11.1-40,24.2-43,30c-1.3,1.2-2.6,2.9-3.9,5.5c-6.1,12.8,6.4,29.7,6.4,29.7
			c5,13.7,13.3,30.1,20,29c0,0,2.3-0.5,5.7-1.7c0.9,2.9,1.8,6.3,2.7,9.7c0,0,0,0,0,0c0,0,0,0,0,0c1.6,6.6,2.8,12.9,1.9,14.8
			c0,0-6,2.5-7.1,3c-2.6,1.1-5,2.2-7,3.2c-8.1,4.1-11.3,7-11.3,7c0,0,0,0,0,0c0,0,0,0,0,0c0,0-9.2,16-10.5,20.1c0,0,0,0,0,0
			c-11.1,24.4-23,64.3-32.9,75.3c-2.8,3.1-11.8,8-22.1,12.9c-7.4-1.7-18.1-1.2-24.7,4c-9.1,7.1-19.3,5.2-24.8,6.2
			c-4.7,0.8-9.1,1.5-10.9,3.6h-3.6c0,28.2,21.3,51.3,48.7,54.2H-32.3c-8.6,0-15.7,7.1-15.7,15.7v365.3c0,8.6,7.1,15.7,15.7,15.7
			h963.3h105.4h1153.3c8.6,0,15.7-7.1,15.7-15.7V650.2C2205.3,641.6,2198.3,634.5,2189.6,634.5z M1491.4,401.1
			c0,0.6,0.1,1.2,0.1,1.8C1491.4,402.3,1491.4,401.7,1491.4,401.1z M679,634.5H573.8c13-1.4,24.7-7.4,33.3-16.3
			c0.2-0.1,0.3-0.1,0.5-0.2c11-4.3,22.7-10.2,26.1-10.9c0,0,0.1,0,0.1,0c0.3,0,0.5-0.1,0.8-0.2c4.7-1,10.4-2.2,16.5-3.6
			c4.4-1,8.9-2.1,13.6-3.3c3.8,16.2,8.7,28.7,14.6,32.3C679.2,633.1,679.1,633.8,679,634.5z M1341.9,531.7c3.2-0.5,7.4-0.9,13.2-1.1
			c0.1,0,0.1,0,0.1,0l0,0.2l0.5,8.2c-1.2-0.2-2.4-0.3-3.6-0.5c-2.4-0.8-5.2-1.8-7.7-3.1c-1.6-0.8-3.8-1.5-6.2-2.1
			C1340.2,532.5,1341.5,531.9,1341.9,531.7z M1204.7,521.4c1.9,2.1,3.9,4.1,5.8,6c-2.2,0.2-4.2,0.4-6.2,0.6
			C1204.4,525.8,1204.5,523.6,1204.7,521.4z M1468.3,596.4c-0.7,5.3-1.1,20.9-1.2,38.1H1208c-2.1-14.5-5.3-32.3-6-39.6
			c-1-11.5-0.6-25.3,0.2-39.1c10.8-3.6,21.1-7.7,29-10.9c13.4,9.5,23.4,13.3,23.4,13.3c0.8,0,1.6-0.1,2.4-0.2c0,0,0.1,0,0.1,0
			c0.8-0.1,1.6-0.1,2.4-0.2c0.1,0,0.2,0,0.3,0c0.7-0.1,1.5-0.2,2.2-0.3c0.2,0,0.4-0.1,0.6-0.1c0.6-0.1,1.3-0.2,1.9-0.3
			c0.3,0,0.6-0.1,1-0.2c0.5-0.1,1.1-0.2,1.6-0.3c0.4-0.1,0.9-0.2,1.3-0.2c0.4-0.1,0.9-0.2,1.3-0.3c0.5-0.1,1.1-0.2,1.6-0.3
			c0.4-0.1,0.7-0.1,1.1-0.2c0.6-0.1,1.2-0.3,1.8-0.4c0.2,0,0.4-0.1,0.6-0.1c0,0,0.1,0,0.1,0c1.9-0.4,3.7-0.9,5.6-1.3
			c0.1,0,0.2-0.1,0.3-0.1c1.9-0.5,3.7-1,5.6-1.5c0.1,0,0.3-0.1,0.4-0.1c1.9-0.5,3.7-1.1,5.6-1.6c0.1,0,0.3-0.1,0.4-0.1
			c2-0.6,3.9-1.2,5.8-1.8c6.4-2,12.7-4.3,18.4-6.5c3.2,4.8,9.7,9.7,19.1,10c5.7,0.2,10,0.6,13.2,1.1c1.8,0.8,21.8,10.1,43,16.8
			c7.9,2.5,16.1,4.8,23.9,6.6c7.3,1.6,14.3,2.8,20.4,3.1c0,0,8.7-3.3,20.8-11.5c4,1.5,8.2,3.2,12.7,4.7L1468.3,596.4z"/>
	</g>
	<g class="st2">
		<path class="st3" d="M478.3,1022c0.7,8.9,13.4,8.2,27.7,6.4c14.3-1.8,10.4,2.7,30.5,2.8c20,0.1,26.9-6.5,27.8-9.4
			c0.8-2.5-8.8-4.6-19.2-7.1c-1.3-0.3-2.6-0.6-3.9-0.9c-11.7-2.9-21.7-9.2-29.5-19.1c-8.7-11.1-16.6-61.8-16.6-61.8l-31.3,5.8
			c0,0,18.2,43.5,20.1,57.7c0.8,6.4-3.7,10.7-4.8,16.3C478.6,1015.8,478.1,1018.9,478.3,1022z"/>
		<path class="st4" d="M506,1029.2c5.7-1.4,10.5,1.9,30.6,2c20,0.1,26.9-6.5,27.8-9.4c0.8-2.5-8.8-4.6-19.2-7.1l-0.1,0.2
			c0,0-12.8,7-29.4,5.5c-13.5-1.2-27.2-6.8-36.5-7.7c-0.6,3-1.1,6.2-0.9,9.3C479.1,1030.9,489,1033.4,506,1029.2z"/>
		<g class="st5">
			<path class="st6" d="M506.3,969.4c0,0-8.2,5.4-15.9,6.8c-11.6,2.1-16.9-0.2-16.9-0.2S417.8,836.3,421,789.1
				c0.1-1.1,0.1-2.3,0.1-3.6c0.1-8.2-1.1-19.1-3.1-31.7c-0.7-4.6-1.6-9.4-2.6-14.4c-2.2-11.6-5-24.2-8-37c-1.3-5.6-2.7-11.3-4.1-17
				c-14-55.8-31.1-110.9-31.1-110.9s100.4-32.8,106.1-2.1c2.2,11.8,9.4,58.8,6.2,130.8c-2.6,57.9-0.9,103.1,4.1,155.6
				C492.9,904.8,500.5,944.4,506.3,969.4z"/>
		</g>
		<path class="st7" d="M421.2,785.5c0.1-8.2-1.1-19.1-3.1-31.7c-0.7-4.6-1.6-9.4-2.6-14.4c-2.2-11.6-5-24.2-8-37
			c-1.3-5.6-2.7-11.3-4.1-17c2-17,3.6-28.7,3.6-28.7S448.6,713.3,421.2,785.5z"/>
		<path class="st3" d="M351.7,1022c0.7,8.9,13.3,8.9,27.6,7.2c14.3-1.8,10.5,1.9,30.6,2c20,0.1,26.9-6.5,27.8-9.4
			c0.8-2.5-8.8-4.6-19.2-7.1c-1.3-0.3-2.6-0.6-3.9-0.9c-11.7-2.9-19.4-11.5-29.5-19.1c-9.5-7.1-2.9-41.8-2.9-41.8l-29.4-10.5
			c0,0,4.4,34.8,4.4,54c0,6.5-3.7,10.7-4.8,16.3C352,1015.8,351.4,1018.9,351.7,1022z"/>
		<path class="st4" d="M379.3,1029.2c3.3-0.8,10.5,1.9,30.6,2c20,0.1,26.9-6.5,27.8-9.4c0.8-2.5-8.8-4.6-19.2-7.1l-0.1,0.2
			c0,0-12.9,7-29.4,5.5c-13.5-1.2-27.2-6.8-36.5-7.7c-0.6,3-1.1,6.2-0.9,9.3C352.4,1030.9,360.9,1033.5,379.3,1029.2z"/>
		<path class="st8" d="M432.7,563.6c0,0-32.7,162.8-38.2,251.4c-5.5,88.6-12.4,162-12.4,162s-7.1,2.6-15.3,2.1
			c-8.6-0.5-15.5-3.2-15.5-3.2s-32.4-133.3-21.7-186.7c10.7-53.4,1.8-102.6-3.4-146.8c-7.4-63.5,21-93,40.8-113.1
			C387.2,509,432.7,563.6,432.7,563.6z"/>
		<path class="st9" d="M455.8,265.4c3.2-26.5-0.3-62.3-54-62.2c-46.3,0.1-73.5,58.8-62.8,81.9c10.7,23.1-15.4,28.7-23.5,53.5
			c-7,21.4-9.5,47.9-20.8,59.8c-36.6,38.4,35.2,97.4,78.4,84.9c78.8-22.7,89-26,86.2-88c-1.4-31.7-26.1-44-10.4-53.2
			C486.7,320.1,448.5,325.4,455.8,265.4z"/>
		<path class="st10" d="M444.2,334c-0.8,0-7.1-1.9-17.8-3c-5.2-15.6-2.4-32-2.4-32l-39.4-12c-1.9,41.8-5.7,47.1-6.4,47.7
			c-8.1,1.9-16.9,4.6-26.1,8.4c0,0,25.1,143.8,14.3,171.2c-10.8,27.4-14.9,51.8-14.9,51.8l117.1,1.5c0,0-1.6-94.2,3.8-127.5
			C477.9,406.7,444.2,334,444.2,334z"/>
		<path class="st3" d="M427.2,307.9c0,0-48.1-0.1-47.5-30c0.5-29.9-5.3-50.1,25.4-51.3c30.7-1.2,36.5,10.3,38.7,20.4
			C446.1,257,439.7,307.2,427.2,307.9z"/>
		<path class="st11" d="M537.3,473.7c7.2-0.3,14.3-2,24-2.7l-0.6-35.6c-7.7,0.1-13.6-3-15.2-5.3c-51.7-72.7-86.2-92.6-86.2-92.6
			s-3.9-2.3-19.2-4.4c0,0-2.2,27.6-16.4,30c-24.6,4.1-44.4-18.5-50.2-27.5c0,0-28.2,7.1-36.5,16.6c-6,6.8-5.2,23-3.4,33.2
			c0.6,3.2,1.2,5.9,1.8,7.4c1.7,4.6,8.4,38.5,11.4,52c0.1,0.3,0.1,0.7,0.2,1c0.2,0.9,0.4,1.7,0.6,2.4c0,0,0,0,0,0.1
			c0.2,0.7,0.3,1.3,0.4,1.6c0.1,0.2,0.1,0.4,0.2,0.7c0,0,0,0,0,0c4.4,13.9,7,28,5.4,45.4c-0.2,2-0.7,4.5-1.3,7.3
			c-3.9,20.2-20.3,59.9-23.7,78.2c2,4.1,6.4,7.4,11.8,10c7,3.4,15.7,5.7,22.6,7.2c5.3,1.2,13.5,2.6,23,3.7c5,0.6,10.4,1,15.9,1.4
			c0.8,0,1.5,0.1,2.3,0.1c35.3,1.8,74.8,0.9,79.9-15.9c2.5-8-7.4-56.4-8.7-70.8c-2.3-25.3,1.4-59.8,3.1-86.6
			C507.4,462.2,537.3,473.7,537.3,473.7z"/>
		<path class="st9" d="M410.6,220.7c0,0,5.3,10-10.2,26.9c-15.5,16.9-16.2,47.1-16.2,47.1S358,245.6,371.9,230
			C385.8,214.3,410.6,220.7,410.6,220.7z"/>
		<path class="st9" d="M396.7,209.1c0,0,23.4-7.8,46.7,15.1c10,9.9,8.5,29.3,3.1,40.5c0,0-8.2-24.1-23.2-29.4
			C408.3,230,396.7,209.1,396.7,209.1z"/>
		<path class="st12" d="M415.7,290.8c0,0,0.5,3.7,9.5,3.9c0,0,7.6,0.2,7.7-3.8C432.9,290.9,425.9,287.5,415.7,290.8z"/>
		<path class="st13" d="M429.1,549.6c-6.7,22.7-10.6,41.3-27.3,53.9c-5.5-0.3-10.8-0.8-15.9-1.4c-9.5-1.1-17.6-2.4-23-3.7
			c-6.9-1.6-15.5-3.8-22.6-7.2c-5.4-2.6-9.8-5.9-11.8-10c3.4-18.2,19.7-58,23.7-78.2c0.4-2,0.7-3.7,0.8-5.3
			c1.5-18.1-0.9-32.9-4.9-47.4c0,0,0,0,0,0c-0.2-0.8-0.4-1.5-0.7-2.3c0,0,0,0,0-0.1c-0.1-0.5-0.3-1.3-0.6-2.4
			c-0.1-0.3-0.1-0.6-0.2-1c-2.7-12.8-10.7-52.1-12.5-57.3c-0.6-1.7-0.2-5.4-0.8-8.9l14.1-13.6c0,0,80.9,34.5,98.7,82.2
			C464.1,494.9,438.7,517.1,429.1,549.6z"/>
		<path class="st13" d="M589.5,462.3c-17.9,5.7-37.4,10.7-52.2,11.4c0,0-30.3-11.6-59.4-44c-1.2-5.5-2.4-14.7,4.3-12.1
			c9.4,3.7,43.9,48.1,57,49.1C548.5,467.4,575.1,464.2,589.5,462.3z"/>
		<path class="st10" d="M677.5,441.7c-3.8-4.8-25-5.1-33.4-2.3c-3.2,1.1-6.6,1.8-9.6,2.3c-37.2,0.2-61.6-7-73.8-6.4
			c-3.5,7-8.9,19.6-7.5,36.5c9.5-0.8,20.5-2.3,30.1-3.9c25.9-4.4,49.9-8.1,52-8.8c3.8-0.1,8.8,0.1,15.5,0.9
			C669.8,462.2,681.3,446.5,677.5,441.7z"/>
		<g class="st5">
			<path class="st14" d="M507.6,427.8c1.5-0.9,4.4-0.6,6.5-0.1v-3c0-0.7,0-1.3,0.1-2h31.3c0.1,0.6,0.1,1.3,0.1,2v6.1
				c0,8.7-7.1,15.8-15.8,15.8c-4.7,0-8.9-2.1-11.8-5.4l0,0c0,0-7.5-1.8-9.8-4.6C505.9,433.8,505.1,429.3,507.6,427.8z M509.3,433.4
				c0.8,2,4.3,3.1,6.1,3.6c-0.7-1.6-1.1-3.4-1.3-5.2c-1.1-1.5-2.8-2.3-4-2.1C508.9,429.9,508.3,430.9,509.3,433.4z"/>
			<path class="st15" d="M543.1,424.6v6.1c0,8.7-7.1,15.8-15.8,15.8c-0.7,0-1.4-0.1-2.1-0.2c7.7-1,13.7-7.7,13.7-15.6v-6.1
				c0-0.7,0-1.3-0.1-2h4.2C543,423.3,543.1,423.9,543.1,424.6z"/>
			
				<rect x="523.4" y="445.2" transform="matrix(-1 -1.224647e-16 1.224647e-16 -1 1059.7297 892.2792)" class="st14" width="12.9" height="1.9"/>
		</g>
		<g class="st5">
			<path class="st14" d="M585.1,427.8c1.5-0.9,4.4-0.6,6.5-0.1v-3c0-0.7,0-1.3,0.1-2H623c0.1,0.6,0.1,1.3,0.1,2v6.1
				c0,8.7-7.1,15.8-15.8,15.8c-4.7,0-8.9-2.1-11.8-5.4l0,0c0,0-7.5-1.8-9.8-4.6C583.4,433.8,582.6,429.3,585.1,427.8z M586.8,433.4
				c0.8,2,4.3,3.1,6.1,3.6c-0.7-1.6-1.1-3.4-1.3-5.2c-1.1-1.5-2.8-2.3-4-2.1C586.4,429.9,585.8,430.9,586.8,433.4z"/>
			<path class="st15" d="M620.6,424.6v6.1c0,8.7-7.1,15.8-15.8,15.8c-0.7,0-1.4-0.1-2.1-0.2c7.7-1,13.7-7.7,13.7-15.6v-6.1
				c0-0.7,0-1.3-0.1-2h4.2C620.5,423.3,620.6,423.9,620.6,424.6z"/>
			
				<rect x="600.9" y="445.2" transform="matrix(-1 -1.224647e-16 1.224647e-16 -1 1214.7297 892.2755)" class="st14" width="12.9" height="1.9"/>
		</g>
		<g class="st5">
			<path class="st16" d="M548.5,411.1l0.2,3.9l0.1,2.9l0.8,18.4l0.1,1.6l0.4,9.2h25.3l0.6-9.2l0.1-1.6l1.1-18.4l0.2-2.9l0.3-5.2
				l-0.1-0.2c0,0-5.9-1.1-9.5,1.2c-3.5,2.3-7.4-2.2-10.6-0.9c-3.2,1.3-3.4,2.9-6,1.8C550.8,411.5,549.7,411.3,548.5,411.1z"/>
			<polygon class="st17" points="548.4,408.4 548.5,411.1 548.7,415 548.8,417.9 549.6,436.3 549.7,437.9 550.1,447.1 575.4,447.1 
				576,437.9 576.1,436.3 577.3,417.9 577.4,415 577.8,409.8 577.9,408.4 			"/>
			<path class="st17" d="M548.3,408.4c0-0.2,0-0.3,0-0.5c0-8.1,6.6-14.8,14.8-14.8c8.1,0,14.8,6.6,14.8,14.8c0,0.2,0,0.3,0,0.5
				H548.3z"/>
			<g>
				<path class="st18" d="M565.6,444.8l1.3-0.2c-0.1-0.8-4.2-55.4-4.8-59c-0.7-4-4.6-5.2-4.8-5.2l-0.1,0l-20.6-3.7l-0.2,1.3
					l20.6,3.6c0.3,0.1,3.3,1.1,3.8,4.2C561.4,389.4,565.5,444.6,565.6,444.8z"/>
			</g>
			<polygon class="st19" points="548.7,415 548.8,417.9 549.6,436.3 576.1,436.3 577.3,417.9 577.4,415 			"/>
		</g>
		<g class="st5">
			<path class="st20" d="M652.9,434c-0.1-0.2,0-4.5-7.2-6.1c-7.2-1.6-5.1-5.2-5.1-5.2s-10.5,5.1-8.4,11.3
				C634.3,440.1,652.9,434,652.9,434z"/>
			<polygon class="st16" points="632,447.1 653.3,447.1 656.9,431.7 628.9,431.7 			"/>
		</g>
		<path class="st21" d="M682,456H505.9c-2.5,0-4.5-2-4.5-4.5l0,0c0-2.5,2-4.5,4.5-4.5H682c2.5,0,4.5,2,4.5,4.5l0,0
			C686.4,454,684.4,456,682,456z"/>
		<path class="st4" d="M390,393.2h85.6c0,0,29.6,263.5,14.9,358.8H343.8C343.8,751.9,394.2,461.8,390,393.2z"/>
		<path class="st22" d="M446.2,447.2c-8-21.3-28.5-39.9-48.8-54.1H390c2.1,34.5-9.6,125-21.7,206.4l-7.5,49.1
			c16.8-12.6,61.7-76.5,68.3-99.2C438.7,517.1,464.1,494.9,446.2,447.2z"/>
		<path class="st11" d="M515.3,472.1c0,0-42.2,14.6-77.5,18.2c-10.2,1-19.9,1.4-28.1,0.7c0,0-35.3-16.3-58.2-59.4
			c-44.1-83.4-1.1-85.9-1.1-85.9s33.2,27.5,74.8,106.4c1.5,2.8,6,2.8,18,2c12.8-0.8,37.5,2.8,72.4,2.3c0,0,0.4,1.3,0.2,5.5
			C515.5,470.9,515.3,472.1,515.3,472.1z"/>
		<path class="st3" d="M566.4,454.1c-4.1-5.1-26.8-5.3-35.7-2.2c-5.2,1.8-10.9,2.7-14.7,3.2c0,0,0-0.1,0-0.1
			c-34.9,0.4-60-1.8-72.8-1c2.8,8.9,4,22.3-5.5,36.2c33.9-3.5,74.6-15.9,78.1-16.9c4-0.5,10.9-0.7,22.2,0.5
			C558.4,476,570.6,459.2,566.4,454.1z"/>
		<path class="st22" d="M354.1,496.8l30.7,1.5l-1.5,9.3l-29.8-3.1c-1.6-0.2-2.7-1.5-2.7-3.1l0.1-1.8
			C351.1,498,352.5,496.7,354.1,496.8z"/>
		<path class="st4" d="M366.4,337.6c0,0-4.1-1.6-7.4,2.5c0,0,26.1,37.6,31.6,53.9l9-0.8C399.5,393.2,378.5,350.5,366.4,337.6z"/>
		<g class="st5">
			<path class="st23" d="M397.7,393.3c-3.5-2.4-7-4.7-10.4-6.9c1.3,2.8,2.4,5.3,3.2,7.5L397.7,393.3z"/>
		</g>
		<path class="st4" d="M436.3,332.4c0,0,19.3,24.3,30.2,62.8l9.1-2c0,0-10.4-33.7-32.8-60.1C442.8,333.1,439,330.7,436.3,332.4z"/>
	</g>
	<g class="st2">
		<g class="st5">
			<g>
				<g>
					<path class="st24" d="M1568.3,832.8C1568.3,832.8,1568.4,832.8,1568.3,832.8c2.1,0,3.7-1.5,3.7-3.3
						c-2.1-128.8,47.7-227.8,48.2-228.8c0.8-1.6,0.7-5.3-4.7-5.8c-4.7-0.4-7.6,0.6-8.4,2.3c-0.1,0.3-11.2,23.8-23.6,64.8
						c-11.4,37.8-20,99.6-18.9,167.6C1564.7,831.4,1566.3,832.8,1568.3,832.8z"/>
				</g>
				<g>
					<path class="st24" d="M1457.3,832.8C1457.3,832.8,1457.3,832.8,1457.3,832.8c2.1,0,3.7-1.5,3.7-3.3
						c-2.1-128.8,47.7-227.8,48.2-228.8c0.8-1.6,0.7-5.3-4.7-5.8c-4.7-0.4-7.6,0.6-8.4,2.3c-0.1,0.3-11.2,23.8-23.6,64.8
						c-11.4,37.8-20,99.6-18.9,167.6C1453.6,831.4,1455.2,832.8,1457.3,832.8z"/>
				</g>
				<g>
					<path class="st24" d="M1601.2,640.3c1.8,0,3.3-1.1,3.6-2.7c0.3-1.8-1-3.5-3-3.8c-3.2-0.5-78.7-11.8-112.5-2.4
						c-1.9,0.5-3,2.4-2.4,4.1c0.6,1.7,2.7,2.7,4.6,2.1c32.1-8.9,108.3,2.4,109.1,2.6C1600.8,640.3,1601,640.3,1601.2,640.3z"/>
				</g>
				<g>
					<path class="st24" d="M1592.6,662c1.8,0,3.3-1.1,3.6-2.7c0.3-1.8-1-3.5-3-3.8c-3.2-0.5-78.7-11.8-112.5-2.4
						c-1.9,0.5-3,2.4-2.4,4.1c0.6,1.7,2.7,2.7,4.6,2.1c32.1-8.9,108.3,2.4,109.1,2.6C1592.2,661.9,1592.4,662,1592.6,662z"/>
				</g>
			</g>
			<path class="st24" d="M1572.8,832.8h-227.6c0,0,5.3-22,137.1-18.7C1575.5,816.4,1572.8,832.8,1572.8,832.8z"/>
			<g>
				<path class="st24" d="M1591.3,1030.3c-26.4-117.5-19.6-189.5-19.6-190.5c0.1-1.8-3.7-3.5-5.8-3.5c-2.1,0-11.2-0.5-12.2,1
					c-1.4,2-6.7,90.8,32.6,192.9H1591.3z"/>
			</g>
			<g>
				<path class="st24" d="M1398.1,1030.3c26.4-117.5,19.6-189.5,19.6-190.5c-0.1-1.8,3.7-3.5,5.8-3.5c2.1,0,11.2-0.5,12.2,1
					c1.4,2,6.7,90.8-32.6,192.9H1398.1z"/>
			</g>
			<g>
				<path class="st25" d="M1336.6,1030.3c26.4-117.5,19.6-189.5,19.6-190.5c-0.1-1.8,3.7-3.5,5.8-3.5c2.1,0,11.2-0.5,12.2,1
					c1.4,2,6.7,90.8-32.6,192.9H1336.6z"/>
			</g>
			<g>
				<path class="st25" d="M1524.5,1030.3c-26.4-117.5-19.6-189.5-19.6-190.5c0.1-1.8-3.7-3.5-5.8-3.5c-2.1,0-11.2-0.5-12.2,1
					c-1.4,2-6.7,90.8,32.6,192.9H1524.5z"/>
			</g>
			<path class="st23" d="M1343.9,839.9h229.9c1.9,0,3.5-1.6,3.5-3.5l0,0c0-1.9-1.6-3.5-3.5-3.5h-229.9c-1.9,0-3.5,1.6-3.5,3.5l0,0
				C1340.3,838.3,1341.9,839.9,1343.9,839.9z"/>
		</g>
		<g class="st5">
			<g>
				<g>
					<path class="st24" d="M687.8,833.7C687.8,833.7,687.8,833.7,687.8,833.7c-2.1,0-3.7-1.5-3.7-3.3
						c2.1-128.8-47.7-227.8-48.2-228.8c-0.8-1.6-0.7-5.3,4.7-5.8c4.7-0.4,7.6,0.6,8.4,2.3c0.1,0.3,11.2,23.8,23.6,64.8
						c11.4,37.8,20,99.6,18.9,167.6C691.5,832.3,689.8,833.7,687.8,833.7z"/>
				</g>
				<g>
					<path class="st24" d="M798.9,833.7C798.8,833.7,798.8,833.7,798.9,833.7c-2.1,0-3.7-1.5-3.7-3.3
						c2.1-128.8-47.7-227.8-48.2-228.8c-0.8-1.6-0.7-5.3,4.7-5.8c4.7-0.4,7.6,0.6,8.4,2.3c0.1,0.3,11.2,23.8,23.6,64.8
						c11.4,37.8,20,99.6,18.9,167.6C802.5,832.3,800.9,833.7,798.9,833.7z"/>
				</g>
				<g>
					<path class="st24" d="M654.9,641.2c-1.8,0-3.3-1.1-3.6-2.7c-0.3-1.8,1-3.5,3-3.8c3.2-0.5,78.7-11.8,112.5-2.4
						c1.9,0.5,3,2.4,2.4,4.1c-0.6,1.7-2.7,2.7-4.6,2.1c-32.1-8.9-108.3,2.4-109.1,2.6C655.3,641.2,655.1,641.2,654.9,641.2z"/>
				</g>
				<g>
					<path class="st24" d="M663.5,662.9c-1.8,0-3.3-1.1-3.6-2.7c-0.3-1.8,1-3.5,3-3.8c3.2-0.5,78.7-11.8,112.5-2.4
						c1.9,0.5,3,2.4,2.4,4.1c-0.6,1.7-2.7,2.7-4.6,2.1c-32.1-8.9-108.3,2.4-109.1,2.6C664,662.8,663.7,662.9,663.5,662.9z"/>
				</g>
			</g>
			<path class="st24" d="M683.4,833.7H911c0,0-5.3-22-137.1-18.7C680.6,817.3,683.4,833.7,683.4,833.7z"/>
			<g>
				<path class="st24" d="M664.8,1031.2c26.4-117.5,19.6-189.5,19.6-190.5c-0.1-1.8,3.7-3.5,5.8-3.5c2.1,0,11.2-0.5,12.2,1
					c1.4,2,6.7,90.8-32.6,193H664.8z"/>
			</g>
			<g>
				<path class="st24" d="M858.1,1031.2c-26.4-117.5-19.6-189.5-19.6-190.5c0.1-1.8-3.7-3.5-5.8-3.5c-2.1,0-11.2-0.5-12.2,1
					c-1.4,2-6.7,90.8,32.6,193H858.1z"/>
			</g>
			<g>
				<path class="st25" d="M919.5,1031.2c-26.4-117.5-19.6-189.5-19.6-190.5c0.1-1.8-3.7-3.5-5.8-3.5c-2.1,0-11.2-0.5-12.2,1
					c-1.4,2-6.7,90.8,32.6,193H919.5z"/>
			</g>
			<g>
				<path class="st25" d="M731.7,1031.2c26.4-117.5,19.6-189.5,19.6-190.5c-0.1-1.8,3.7-3.5,5.8-3.5c2.1,0,11.2-0.5,12.2,1
					c1.4,2,6.7,90.8-32.6,193H731.7z"/>
			</g>
			<path class="st23" d="M912.3,840.8H682.3c-1.9,0-3.5-1.6-3.5-3.5l0,0c0-1.9,1.6-3.5,3.5-3.5h229.9c1.9,0,3.5,1.6,3.5,3.5l0,0
				C915.8,839.2,914.2,840.8,912.3,840.8z"/>
		</g>
		<path class="st3" d="M1286.6,669.9c0,0-13.3-8.3-19.1-7c-5.8,1.3-21.6,5.8-22.1,12.3c-0.5,6.5,22.6,16.8,39.7,11
			C1302.1,680.4,1286.6,669.9,1286.6,669.9z"/>
		<path class="st26" d="M1357.1,1017.2c0,2.9-1.4,4.9-3.9,6.3c0,0,0,0,0,0c-4.5,2.5-11.8,0.6-20.4,0.2c-1.1,0-2.8,2.1-3.7,2.1
			c-0.2,0-0.5,0-0.7,0c-0.2,0-0.4,0-0.5,0c-8.6,0.2-7.7,2.8-23.9,4.2c-18.5,1.6-25.4-4.1-26.5-6.7c-0.9-2.2,7-4.7,15.9-7.5
			c0.4-0.1,0.9-0.3,1.3-0.4c1.2-0.4,2.4-0.8,3.6-1.2c10.6-3.5,21-7.7,23.6-18.4c2.8-11.4-5.5-43.1-5.5-43.1l29.4-3.2
			c0,0,2.8,33.1,4.7,43.5c1,5.5,3.5,9.9,5,14.6c0.1,0.3,0.2,0.7,0.3,1C1356.4,1011.4,1357.1,1014.2,1357.1,1017.2z"/>
		<g class="st5">
			<path class="st27" d="M1277.5,1023.2c0.6,1.4,1.8,5.4,9.6,7.1h29.5c0.1,0,0.2-0.1,0.3-0.1c9.7-4.3,17.5-4.8,23.6-4.9
				c3.3-0.1,6.1,0,8.4-0.3h0c1.4-0.2,2.7-0.6,3.8-1.2c0,0,0,0,0,0c0.2-0.1,0.3-0.2,0.5-0.3c0,0,0,0,0,0c0.1-0.1,0.3-0.2,0.4-0.3h0
				l0,0c0.3-0.2,0.5-0.3,0.8-0.5c0.1-0.1,0.2-0.2,0.4-0.3c0.1-0.1,0.2-0.2,0.3-0.3c0.1-0.1,0.2-0.2,0.2-0.2c0.1-0.1,0.3-0.3,0.4-0.5
				c0,0,0,0,0,0c0.1-0.1,0.1-0.2,0.2-0.3c0.1-0.1,0.1-0.2,0.2-0.3c0,0,0,0,0,0c0,0,0,0,0,0c0.1-0.1,0.1-0.2,0.2-0.3c0,0,0,0,0,0
				c0-0.1,0.1-0.1,0.1-0.2c0-0.1,0.1-0.2,0.1-0.3c0.1-0.1,0.1-0.3,0.2-0.4c0-0.1,0.1-0.2,0.1-0.3c0-0.1,0.1-0.3,0.1-0.5
				c0-0.1,0-0.2,0.1-0.4c0-0.1,0-0.2,0-0.3c0-0.1,0-0.2,0-0.4c0-0.2,0-0.4,0-0.5v0c0-0.2,0-0.3,0-0.5c0-0.2,0-0.3,0-0.5
				c0-0.2,0-0.3,0-0.5c0-0.2,0-0.3,0-0.5c0-0.2,0-0.5-0.1-0.7c0,0,0-0.1,0-0.1c0-0.1,0-0.3-0.1-0.4c0-0.2-0.1-0.4-0.1-0.6
				c-0.1-0.4-0.1-0.7-0.2-1.1c0-0.2-0.1-0.3-0.1-0.5c-0.1-0.4-0.2-0.7-0.2-1c0-0.2-0.1-0.4-0.1-0.5c-0.1-0.3-0.2-0.7-0.3-1
				c0-0.2-0.1-0.3-0.1-0.5c-0.1-0.3-0.2-0.7-0.3-1c-8.8,2.1-21.1,8.2-33.5,10.5c-0.2,0-0.4,0.1-0.6,0.1c-6.6,1.2-12.7,0.9-17.6,0.1
				c-5.3-0.8-9-2.1-10.3-2.6C1284.5,1018.6,1276.6,1021.1,1277.5,1023.2z"/>
			<polygon class="st27" points="1340.4,1030.3 1340.4,1028.1 1340.4,1026.5 1340.4,1025.3 1340.4,1024.4 1340.9,1024.3 
				1354.1,1022.2 1353.7,1023.2 1353.7,1023.2 1353.6,1023.2 1353.3,1023.8 1352.4,1025.6 1352.3,1025.6 1349.8,1030.3 			"/>
		</g>
		<path class="st9" d="M1508.9,734.7l-95.1-9.1c0,0-145.5,0.7-159.1,19.9c0,0-26,18,3.4,92.4c29.4,74.4,63.9,148.8,63.9,148.8
			s8.8,2.4,20.8,1.5c4.8-0.4,11.2-2,11.2-2s-6.6-111.1-21.3-154.3c-14.7-43.2-19.2-34.8,6.8-32.4c26,2.4,109.6,21.6,148,16.8
			C1525.8,811.5,1508.9,734.7,1508.9,734.7z"/>
		<path class="st28" d="M1375.4,1017.2c0,2.9-1.4,4.9-3.9,6.3c0,0,0,0,0,0c-4.5,2.5-11.8,0.6-20.4,0.2c-1.1,0-2.8,2.1-3.7,2.1
			c-0.2,0-0.5,0-0.7,0c-0.2,0-0.4,0-0.5,0c-8.6,0.2-7.7,2.8-23.9,4.2c-18.5,1.6-25.4-4.1-26.5-6.7c-0.9-2.2,7-4.7,15.9-7.5
			c0.4-0.1,0.9-0.3,1.3-0.4c1.2-0.4,2.4-0.8,3.6-1.2c10.6-3.5,21-7.7,23.6-18.4c2.8-11.4-5.5-43.1-5.5-43.1l29.4-3.2
			c0,0,2.8,33.1,4.7,43.5c1,5.5,3.5,9.9,5,14.6c0.1,0.3,0.2,0.7,0.3,1C1374.7,1011.4,1375.4,1014.2,1375.4,1017.2z"/>
		<path class="st8" d="M1522.1,741.4l-89.2-7.5c0,0-145.5,0.6-159.1,19.2c0,0-22,13.8,7.4,85.9s59.1,151.4,59.1,151.4
			s6.6,0.9,14.6,0.3c10-0.8,13.4-4.1,13.4-4.1s-2.1-98.6-16.8-140.5c-14.7-41.9-20.3-37.6,5.6-35.3c26,2.3,99,20.5,149.4,10.9
			C1544.6,814.5,1522.1,741.4,1522.1,741.4z"/>
		<g class="st5">
			<path class="st27" d="M1295.7,1022.9c0,0.1,0,0.2,0.1,0.3c0.5,1.3,1.6,4.9,8,6.7c0.5,0.1,1,0.3,1.6,0.4h29.5
				c1.9-0.9,3.8-1.6,5.5-2.2c4.4-1.5,8.4-2.2,11.9-2.5h0c2.3-0.2,4.4-0.3,6.4-0.3c5.5-0.1,9.7,0.1,12.8-1.8c0,0,0,0,0,0
				c0.1-0.1,0.3-0.2,0.4-0.3h0l0,0c0.3-0.2,0.5-0.3,0.8-0.5c0.1-0.1,0.2-0.2,0.4-0.3c0.1-0.1,0.2-0.2,0.3-0.3
				c0.1-0.1,0.2-0.2,0.2-0.2c0.1-0.1,0.1-0.2,0.2-0.3c0.1-0.1,0.1-0.2,0.2-0.3c0-0.1,0.1-0.1,0.1-0.2c0.1-0.1,0.1-0.2,0.2-0.3
				c0.1-0.1,0.1-0.2,0.2-0.3c0.1-0.2,0.2-0.3,0.2-0.5c0,0,0,0,0,0c0-0.1,0.1-0.2,0.1-0.3c0-0.1,0.1-0.2,0.1-0.2c0,0,0,0,0,0
				c0,0,0,0,0,0c0,0,0,0,0,0c0-0.1,0.1-0.2,0.1-0.3c0-0.1,0.1-0.2,0.1-0.4c0-0.1,0.1-0.2,0.1-0.4c0-0.1,0-0.2,0-0.2c0,0,0,0,0,0
				c0-0.1,0-0.2,0-0.4c0-0.2,0-0.4,0-0.5c0-2.9-0.7-5.8-1.5-8.5c-0.1-0.3-0.2-0.7-0.3-1c-4.8,1.1-10.6,3.4-16.9,5.7
				c-5.3,1.9-10.9,3.8-16.6,4.8c-7.2,1.4-13.8,1-18.9,0.1c-4.9-0.8-8.3-2-9.5-2.5c-2.9,0.9-5.6,1.8-8,2.6c-0.5,0.2-0.9,0.3-1.3,0.5
				c-0.4,0.2-0.8,0.3-1.2,0.5c-0.4,0.1-0.8,0.3-1.1,0.4c-0.2,0.1-0.3,0.1-0.5,0.2c-0.2,0.1-0.3,0.1-0.5,0.2
				c-0.3,0.1-0.6,0.3-0.9,0.4c-0.1,0.1-0.3,0.1-0.4,0.2c-0.3,0.1-0.5,0.3-0.7,0.4c-0.2,0.1-0.3,0.2-0.5,0.3
				c-0.1,0.1-0.2,0.2-0.3,0.2c0,0-0.1,0.1-0.1,0.1c-0.2,0.2-0.3,0.4-0.4,0.6c0,0,0,0.1,0,0.1c0,0,0,0,0,0
				C1295.7,1022.8,1295.7,1022.8,1295.7,1022.9z"/>
			<polygon class="st27" points="1358.7,1024.4 1358.7,1030.3 1368.2,1030.3 1372,1023.2 1372,1023.2 1372,1023.2 1372.5,1022.2 
				1359.3,1024.3 			"/>
		</g>
		<path class="st29" d="M1280.1,687.1c0.1,0.8,0.4,1.6,0.7,2.4c3.8,8.3,82.1,18.8,91.9,13.6c4.4-2.4,10.7-41.8,16.4-84.8
			c7-53.1,13.1-111.5,13.1-111.5s-32.5,10.3-36.3,27.6c-3.8,17.3-4.5,124.3-14.3,129.5c-9.8,5.3-51.2,0.8-65.5,3
			C1286,666.9,1278.6,678.7,1280.1,687.1z"/>
		<path class="st9" d="M1400,383.7c6.1-4.9,14.9-4.3,20.6-3.9c-1.5-1.5-4.3-2.1-4.3-2.1c3.5-0.5,11.4,3,11.4,3s29.8-15.3,43.6,23.9
			c0,0-2.4-3-5.7-6.3c8,22.5-0.1,56.6-25.2,62.7C1424.1,464.9,1337.6,433.8,1400,383.7z"/>
		<path class="st10" d="M1399.8,515.4c-0.2,0.1,15.8,8.3,27.7,5.1c11.3-3.1,18.6-17.7,18.5-17.7c-4.8-0.9-6.1-7.5-6-35.7l-2.2,0.4
			l-36.3,7.2c0,0,0.8,11.4,0.9,22.2C1402.4,505.9,1401.9,514.4,1399.8,515.4z"/>
		<path class="st9" d="M1441.6,463.5c0,0,10.6-16.8,13.2-31.2c1.8-10.3-3.4-48.3-41.6-42.8c0,0-11.1,1.1-21.5,8.1
			c-8.3,5.6-20.3,17.7-6.9,50.9l3.5,11.2L1441.6,463.5z"/>
		<path class="st3" d="M1394.8,484.8c0,0,48,0.8,48.1-29.1c0-29.9,6.3-50-24.4-51.7c-30.7-1.8-36.6,9.6-39.1,19.6
			C1376.9,433.6,1382.3,483.9,1394.8,484.8z"/>
		<path class="st9" d="M1396.6,403.2c0,0,13.2,35.1,33.3,40.3c20.2,5.2,28.9-0.2,28.9-0.2s-5.6-14.9-8.8-36.3
			C1450,407,1406.5,386.5,1396.6,403.2z"/>
		<path class="st30" d="M1383,551.1c0.8-3.4-6.4-6-8.1-2.9c-3.3,5.7-4,12.9-5.3,18.6c-3.8,16.3,0,38.7,0,38.7L1383,551.1z"/>
		<path class="st9" d="M1399.8,406.1c0,0-9.8,7.8-12.2,15.5c-2.4,7.6-3.5,23.3-8,22.8c0,0-9.9-23.9,1.2-37.4
			C1392.6,392.6,1399.8,406.1,1399.8,406.1z"/>
		<path class="st12" d="M1405.5,466.7c0,0-0.9,3.8-10.4,3.2c0,0-7.9-0.5-7.7-4.7C1387.4,465.3,1395.1,462.3,1405.5,466.7z"/>
		<path class="st30" d="M1280.1,687.1c0.1,0.8,0.4,1.6,0.7,2.4c3.8,8.3,82.1,18.8,91.9,13.6c4.4-2.4,12.1-51.5,6.5-95.4
			c-5.9,25.1-7.7,76.6-21.6,79.1C1341.9,689.5,1300.6,684.2,1280.1,687.1z"/>
		<path class="st29" d="M1366.7,607.4c19.5,93.8,3.2,108.3,13.3,117.5c0.1,0,9,3.9,9,4c10.5,9.1,10.8-1.9,43.9,12.4
			c15.8,6.8,36,15.9,53.7,21.3c6.7,2,12.9,3.5,18.5,4.2c10.6,1.3,18.6-0.6,21.2-7.8c7.5-20.9-28.6-76.4-19.6-114.3
			c0.1-0.3,0.2-0.7,0.2-1c0.7-3.3,0.8-7.1,0.4-11.3c-1.7-21.1-15-51.8-28.9-78.1c-15.3-28.9-31.1-52.4-32.5-51.5
			c-40.3,23.9-43.9,4-43.9,4S1360.1,575.4,1366.7,607.4z"/>
		<path class="st30" d="M1385.8,727.5C1385.9,727.6,1385.8,727.5,1385.8,727.5c10.5,9.1,14-0.6,47.1,13.7
			c15.8,6.8,36,15.9,53.7,21.3c9,1.6,15.8,3,18.5,4.2c10.6,1.3,18.6-0.6,21.2-7.8c7.5-20.9-28.6-76.4-19.6-114.3
			c0.1-0.3,0.2-0.7,0.2-1c0.8-3.7,0.9-7.5,0.4-11.3c-1.9-16.1-13.7-33.5-27.1-58.8c-8.9,9.5-76.1-1.5-60.2,91.9
			C1425,694,1390,705.3,1385.8,727.5z"/>
		<path class="st3" d="M1389.1,732.3c0,0-14.8-3.5-21.6-0.8c-6.8,2.8-20.3,9.8-19.1,13.6c1.3,3.8,17.3,5.8,24.1,2
			c6.8-3.8,11.8,1,20.1-1.8C1400.9,742.6,1389.1,732.3,1389.1,732.3z"/>
		<path class="st29" d="M1446,502.7c0,0,54.6,0.7,64.4,27.1c9.8,26.4,6.8,119-7.5,146.8s-95.6,65.5-104.7,67
			c-9,1.5-14.7-12.4-14.3-13.9c0.4-1.5,85.5-70.4,85.1-77.6S1446,502.7,1446,502.7z"/>
		<path class="st31" d="M1033.6,612.1c0,0,14-16.9,17-18.9c3-2,16.2-5.5,16.9-4.8c0.8,0.7,0.8,1.7-0.8,3.2c-1.6,1.4-7.9,5.1-7,5.5
			c0.9,0.4,19.7-9,22.4-5.8c2.7,3.1-1.5,16.1-8.8,22.4c-7.2,6.2-28.9,8.9-30.2,9.8C1031.5,630.8,1033.6,612.1,1033.6,612.1z"/>
		<path class="st28" d="M902.8,1017.7c0,2.8,1.4,4.8,3.9,6.1c0,0,0,0,0,0c4.5,2.4,12.5,2.7,21.1,2.3c1.1,0,2.1-0.1,3-0.1
			c0.2,0,0.5,0,0.7,0c0.2,0,0.4,0,0.5,0c8.6,0.2,7.7,2.7,23.9,4c18.5,1.5,22.3-6.9,23.4-9.4c0.9-2.1-3.9-1.6-12.8-4.4
			c-0.4-0.1-0.2-1.2-0.7-1.4c-1.2-0.4-2.4-0.7-3.6-1.1c-10.6-3.4-21.6-6.5-24.2-16.8c-2.8-11,5.5-41.7,5.5-41.7l-29.4-3.1
			c0,0-2.8,32.1-4.7,42.1c-1,5.3-3.5,9.6-5,14.2c-0.1,0.3-0.2,0.6-0.3,1C903.5,1012.1,902.8,1014.8,902.8,1017.7z"/>
		<path class="st32" d="M902.6,1021c0.2,2.8,1.8,4.6,4.4,5.7c0,0,0,0,0,0c5,1.8,12.8,1.4,21.2,0.5c1.1-0.1,2.1-0.2,3-0.3
			c0.2,0,0.5,0,0.7,0c0.2,0,0.4,0,0.5,0c8.5-0.5,7.8,2,24.2,2c18.6,0,24.9-6.1,25.8-8.6c0.7-2.2-7.4-3.9-16.5-5.9
			c-2.4,1.1-13.9,6.1-28.1,4.7c-12.5-1.2-25.2-6.1-34.2-7.4c-0.1,0.3-0.1,0.7-0.2,1C902.9,1015.4,902.4,1018.2,902.6,1021z"/>
		<path class="st28" d="M1093.4,982.3c1.6,8.2,13.3,6.8,26.2,3.6c13-3.2,9.9,0.6,28.4-1.4c18.5-2,24.1-8.9,24.7-11.7
			c0.5-2.4-8.6-3.3-18.4-4.4c-1.2-0.1-2.5-0.3-3.7-0.4c-11.1-1.4-19.2-8.5-29.2-14.4c-9.5-5.6-23.7-28.2-23.7-28.2l-25.4,2
			c0,0,13.3,20.2,18.5,29c3,5.2,2.9,12,2.5,17.3C1093,976.5,1092.8,979.4,1093.4,982.3z"/>
		<path class="st32" d="M1119.6,985.9c13-3.2,9.9,0.6,28.4-1.4c18.5-2,24.1-8.9,24.7-11.7c0.5-2.4-8.6-3.3-18.4-4.4l-0.1,0.2
			c0,0-11.1,7.9-26.5,8.2c-12.5,0.3-25.8-3.3-34.5-3.1c-0.2,2.9-0.4,5.8,0.2,8.7C1095,990.5,1106.6,989.1,1119.6,985.9z"/>
		<path class="st9" d="M996.2,820.2l-54.6,147.1c0,0-8.4,0.8-16.4-1.5c-7.4-2.1-15.9-7.7-15.9-7.7s13.6-141.2,38.4-170.6
			C972.5,758.1,996.2,820.2,996.2,820.2z"/>
		<path class="st8" d="M780.1,760.7c0,0,157-53.1,192-41.8c35,11.3,140.2,220.5,140.2,220.5s-2.4,3.2-8.8,5.6
			c-6,2.3-20.6,2.1-20.6,2.1s-94.9-81.3-106.2-105c-11.3-23.7-15.8-46.3-27.1-44.1s-145.7,55.3-176.2,23.7
			c-30.5-31.6-22.5-72.7-22.5-72.7L780.1,760.7z"/>
		<path class="st9" d="M876,513.7c2.5-5.2,5.3-14.4,6.7-30.8c-0.2,1.6-3,22.3-11,34c-32.7,21.4-95.2,93-94,106.6
			c0,0-22-37.4-22.4-37.6c0,0-40.7-51.7,7.5-81.3c24.5-15.1,24.4-34.4,23.3-51.2c-1-16.8,6.7-89,55.8-70.1c0,0,7.9-3.5,11.4-3
			c0,0-2.9,0.6-4.3,2.1c5.7-0.3,13.8,0.1,20.6,3.9C887.6,396.6,903.7,488.3,876,513.7z"/>
		<path class="st28" d="M869.8,518c0.2,0.1-15.8,8.3-27.7,5.1c-11.3-3.1-18.6-17.7-18.5-17.7c4.8-0.9,6.1-7.5,6-35.7l2.2,0.4
			l36.3,7.2c0,0-0.8,11.4-0.9,22.2C867.2,508.5,867.7,517.1,869.8,518z"/>
		<path class="st33" d="M868.1,477.3c0,0-0.8,11.4-0.9,22.2c-20.3-0.6-31-19.1-35.4-29.4L868.1,477.3z"/>
		<path class="st9" d="M828,466.2c0,0-10.6-16.8-13.2-31.2c-1.8-10.3,3.4-48.3,41.6-42.8c0,0,11.1,1.1,21.5,8.1
			c8.3,5.6,20.3,17.7,6.9,50.9l-3.5,11.2L828,466.2z"/>
		<path class="st28" d="M874.9,487.5c0,0-48,0.8-48.1-29.1c0-29.9-6.3-50,24.4-51.7c30.7-1.8,36.6,9.6,39.1,19.6
			C892.7,436.2,887.3,486.5,874.9,487.5z"/>
		<path class="st9" d="M873.1,405.9c0,0-13.2,35.1-33.3,40.3c-20.2,5.2-28.9-0.2-28.9-0.2s9.6-18.1,12.8-39.5
			C823.6,406.4,863.2,389.2,873.1,405.9z"/>
		<path class="st9" d="M869.8,408.7c0,0,9.8,7.8,12.2,15.5c2.4,7.6,3.5,23.3,8,22.8c0,0,9.9-23.9-1.2-37.4
			C877,395.3,869.8,408.7,869.8,408.7z"/>
		<path class="st11" d="M762.8,647.3c-4.7-19.9,11.4-58.4,28.2-90.3c15.3-28.9,31.1-52.4,32.5-51.5c40.3,23.9,43.9,4,43.9,4
			s36.6,4.9,46.9,22.7c14.3,24.6,29.9,98.6,45.2,97.5c7-0.5,77.8-27.1,77.8-27.1s11.8,11,9.5,24.6c0,0-35,23.4-64.5,38.3
			c-15.6,7.9-29.8,13.4-36.4,11.9c-13.5-3.2-34.5-34.4-45.9-52.8c0,0,0-0.1-0.1-0.1c-14.5,82.1,5.2,100.8-4.8,109.5
			c-10.5,9.1-25.6-4.4-58.7,10c-21.7,9.4-51.9,23.1-72.2,25.4c-10.6,1.3-18.6-0.6-21.2-7.8C735.7,740.6,771.9,685.1,762.8,647.3z"/>
		<path class="st12" d="M864.2,469.3c0,0,0.9,3.8,10.4,3.2c0,0,7.9-0.5,7.7-4.7C882.2,467.9,874.5,464.9,864.2,469.3z"/>
		<path class="st13" d="M743.3,761.5c2.6,7.2,10.5,9,21.2,7.8c14.1-6.1,74.8-29.6,74.1-45.6c-1-23.6-11.7-24.3-4.1-53.5
			c6-23.4-50-66.9-59-76.3c-16.8,31.9-17.3,33.4-12.6,53.3C771.9,685.1,735.7,740.6,743.3,761.5z"/>
		<path class="st11" d="M900.2,624.5c11.4,18.4,32.4,49.6,45.9,52.8c6.6,1.6,20.8-4,36.4-11.9c-11.4,2.9-22.5,2.9-33.3,1.8
			c-11.7-1.1-15.1-15.4-33.5-36.9C903.8,616.5,900.8,620,900.2,624.5z"/>
		<path class="st28" d="M844,669.7c0,0,10.2-7.9,19.8-6c9.6,1.9,14.3,8.5,13.9,11.5c-0.4,3-5.5,11.5-12.8,12.2
			c-7.3,0.8-28.2-4.5-28.2-4.5L844,669.7z"/>
		<path class="st11" d="M823.6,505.4c0,0-39.1,2.4-52.7,21.3c-19.1,26.6-52.2,135.2-43.2,160.1c0,0,37.2,3.9,63.7,3.9
			c13.9,0,55.4-4.4,55.4-4.4s2.9-13.5-1.1-20c-4-6.5-69.3-17.1-72.3-20.1c-3-3,37.7-58.7,37.7-67.8
			C811,569.4,823.6,505.4,823.6,505.4z"/>
		<path class="st34" d="M841.8,696.8h532.6c5.7,0,10.3,4.6,10.3,10.3v13.5c0,5.7-4.6,10.3-10.3,10.3H1117v260.9
			c45.3,1.8,83.8,17.3,99.6,38.5h-216.3c15.6-21.2,53.6-36.6,98.9-38.5V730.9H841.8c-5.7,0-10.3-4.6-10.3-10.3v-13.5
			C831.4,701.4,836.1,696.8,841.8,696.8z"/>
		<g class="st5">
			<path class="st14" d="M1162.3,582.5c0,0-15,25.4-21.7,57.4c0,0-3.5-34.4-14.6-48.5c0,0,7.2,37,3.3,57.9l23.4,3.1
				C1152.7,652.4,1151.6,607.7,1162.3,582.5z"/>
			<g>
				<path class="st35" d="M1104.3,589.6c0,0,16.9,37.8,21.1,63.3l11.3-2.9C1136.1,645.3,1124,604.5,1104.3,589.6z"/>
				<path class="st35" d="M1137.7,668.8c0-0.1,0-0.2,0.1-0.2l-0.1,0C1137.7,668.7,1137.7,668.8,1137.7,668.8z"/>
				<path class="st35" d="M1185.5,576.1c0,0-33.8,41.7-42.4,80.9c0,0,5.6-53-11.3-73.6c0,0,11.7,37.8,2.5,71.8l21.7,5.7
					C1156.1,661,1167.6,603.8,1185.5,576.1z"/>
			</g>
			<g>
				<polygon class="st36" points="1118.9,639.9 1119.5,653.9 1120.8,683.3 1121.4,696.8 1158.7,696.8 1159.6,683.3 1161.4,653.9 
					1162.3,639.9 				"/>
			</g>
		</g>
	</g>
	<path class="st37" d="M2187.1,1032.7H-87.3c-1.9,0-3.4-1.4-3.4-3.1l0,0c0-1.7,1.5-3.1,3.4-3.1h2274.4c1.9,0,3.4,1.4,3.4,3.1l0,0
		C2190.5,1031.3,2189,1032.7,2187.1,1032.7z"/>
</g>
</svg>
