<?xml version="1.0" encoding="utf-8"?>
<!-- Generator: Adobe Illustrator 23.1.0, SVG Export Plug-In . SVG Version: 6.00 Build 0)  -->
<svg version="1.1" id="Layer_1" xmlns="http://www.w3.org/2000/svg" xmlns:xlink="http://www.w3.org/1999/xlink" x="0px" y="0px"
	 viewBox="0 0 2673.3 1457" style="enable-background:new 0 0 2673.3 1457;" xml:space="preserve">
<style type="text/css">
	.st0{display:none;fill:#FFFFFF;}
	.st1{display:none;fill:#D39E7A;}
	.st2{fill:#C65447;}
	.st3{fill:#E57970;}
	.st4{fill:#C45446;}
	.st5{fill:#D39E7A;}
	.st6{fill:#8C5F41;}
	.st7{fill:#E37970;}
	.st8{fill:#E49963;}
	.st9{fill:#FFB27D;}
	.st10{fill:#1F2021;}
	.st11{fill:#466AA5;}
	.st12{fill:#E8945B;}
	.st13{fill:#FFFFFF;}
	.st14{fill:#AA413E;}
	.st15{fill:#EFCBAB;}
	.st16{fill:#F99746;}
	.st17{fill:#183D01;}
	.st18{fill:#285B06;}
	.st19{fill:#D9935C;}
	.st20{fill:#CB8757;}
	.st21{fill:#434649;}
	.st22{fill:#EBF2F9;}
	.st23{display:none;fill:#415DA5;}
	.st24{fill:#DA935B;}
	.st25{fill:#2B478B;}
	.st26{fill:#335051;}
	.st27{fill:#396669;}
	.st28{display:none;opacity:0.5;fill:#699DEE;}
	.st29{fill:#163560;}
	.st30{fill:#82B479;}
	.st31{fill:#A53D38;}
	.st32{opacity:0.5;fill:#699DEE;}
	.st33{fill:#F1A34F;}
	.st34{fill:#283250;}
</style>
<g>
	<rect x="-165" y="-336.6" class="st0" width="3000" height="2000"/>
	<path class="st1" d="M2400.7,1455.3c0,0,343.9-247,187.2-569.3c-156.7-322.3-440.4,169.6-638.1-285.3s-242-803.2-768.4-659.5
		S870.8,461.9,595.4,499.7S102.2,674.1,228.5,969.3S41.3,1458.4,41.3,1458.4L2400.7,1455.3z"/>
	<g>
		<g>
			<polygon class="st2" points="762.7,291.9 762,275.3 760.5,240.7 759.8,224.7 715.9,224.7 714.9,240.7 712.7,275.3 711.7,291.9 
							"/>
			<polygon class="st3" points="763.6,303.1 711.5,303.1 709.4,291.9 765,291.9 			"/>
			<polygon class="st3" points="762,275.3 760.5,240.7 714.9,240.7 712.7,275.3 			"/>
		</g>
		<g>
			<polygon class="st2" points="762.7,279.7 762,263.1 760.5,228.5 759.8,212.5 715.9,212.5 714.9,228.5 712.7,263.1 711.7,279.7 
							"/>
			<polygon class="st3" points="763.6,290.9 711.5,290.9 709.4,279.7 765,279.7 			"/>
			<polygon class="st3" points="762,263.1 760.5,228.5 714.9,228.5 712.7,263.1 			"/>
		</g>
		<g>
			<polygon class="st2" points="762.7,267.1 762,250.6 760.5,215.9 759.8,200 715.9,200 714.9,215.9 712.7,250.6 711.7,267.1 			"/>
			<polygon class="st3" points="763.6,278.3 711.5,278.3 709.4,267.1 765,267.1 			"/>
			<polygon class="st3" points="762,250.6 760.5,215.9 714.9,215.9 712.7,250.6 			"/>
		</g>
		<g>
			<polygon class="st2" points="762.7,254.6 762,238 760.5,203.4 759.8,187.4 715.9,187.4 714.9,203.4 712.7,238 711.7,254.6 			"/>
			<polygon class="st3" points="763.6,265.8 711.5,265.8 709.4,254.6 765,254.6 			"/>
			<polygon class="st3" points="762,238 760.5,203.4 714.9,203.4 712.7,238 			"/>
		</g>
		<g>
			<polygon class="st2" points="762.7,241.9 762,225.4 760.5,190.7 759.8,174.8 715.9,174.8 714.9,190.7 712.7,225.4 711.7,241.9 
							"/>
			<polygon class="st3" points="763.6,253.1 711.5,253.1 709.4,241.9 765,241.9 			"/>
			<polygon class="st3" points="762,225.4 760.5,190.7 714.9,190.7 712.7,225.4 			"/>
		</g>
		<g>
			<polygon class="st2" points="762.7,229.4 762,212.8 760.5,178.2 759.8,162.2 715.9,162.2 714.9,178.2 712.7,212.8 711.7,229.4 
							"/>
			<polygon class="st3" points="763.6,240.6 711.5,240.6 709.4,229.4 765,229.4 			"/>
			<polygon class="st3" points="762,212.8 760.5,178.2 714.9,178.2 712.7,212.8 			"/>
		</g>
		<g>
			<polygon class="st2" points="703.2,291.9 702.4,275.3 700.9,240.7 700.2,224.7 656.3,224.7 655.3,240.7 653.1,275.3 652.1,291.9 
							"/>
			<polygon class="st3" points="704,303.1 651.9,303.1 649.8,291.9 705.5,291.9 			"/>
			<polygon class="st3" points="702.4,275.3 700.9,240.7 655.3,240.7 653.1,275.3 			"/>
		</g>
		<g>
			<polygon class="st2" points="703.2,279.2 702.4,262.7 700.9,228 700.2,212.1 656.3,212.1 655.3,228 653.1,262.7 652.1,279.2 			
				"/>
			<polygon class="st3" points="704,290.4 651.9,290.4 649.8,279.2 705.5,279.2 			"/>
			<polygon class="st3" points="702.4,262.7 700.9,228 655.3,228 653.1,262.7 			"/>
		</g>
		<g>
			<polygon class="st4" points="703.2,266.7 702.4,250.2 700.9,215.5 700.2,199.6 656.3,199.6 655.3,215.5 653.1,250.2 652.1,266.7 
							"/>
			<polygon class="st3" points="704,277.9 651.9,277.9 649.8,266.7 705.5,266.7 			"/>
			<polygon class="st3" points="702.4,250.2 700.9,215.5 655.3,215.5 653.1,250.2 			"/>
		</g>
		<g>
			<g>
				
					<rect x="425.4" y="413.2" transform="matrix(-1 -1.224647e-16 1.224647e-16 -1 1254.1809 1103.6304)" class="st5" width="403.4" height="277.3"/>
				
					<rect x="411.1" y="388" transform="matrix(-1 -1.224647e-16 1.224647e-16 -1 1253.3405 826.3243)" class="st6" width="431.1" height="50.4"/>
				
					<rect x="411.1" y="656.9" transform="matrix(-1 -1.224647e-16 1.224647e-16 -1 1253.3405 1364.1301)" class="st6" width="431.1" height="50.4"/>
				<path class="st6" d="M759.4,438.4v26.3l75.9,28.6c6.1,2.3,9.1,9.1,6.7,15.2c-2.4,6-9.4,8.9-15.3,6.3l-68.8-29.8
					c-4,13.3-15.5,23.2-29.5,25.2v10.1c0,2.5-2,4.6-4.6,4.6c-2.5,0-4.6-2-4.6-4.6v-10c-17.9-2.1-31.9-17.3-31.9-35.8v-36.1H759.4z"
					/>
				<path class="st6" d="M494.7,438.4v26.3l-75.9,28.6c-6.1,2.3-9.1,9.1-6.7,15.2c2.4,6,9.4,8.9,15.3,6.3l68.8-29.8
					c4,13.3,15.5,23.2,29.5,25.2v10.1c0,2.5,2,4.6,4.6,4.6c2.5,0,4.6-2,4.6-4.6v-10c17.9-2.1,31.9-17.3,31.9-35.8v-36.1H494.7z"/>
				
					<rect x="463.8" y="303.1" transform="matrix(-1 -1.224647e-16 1.224647e-16 -1 1253.3405 691.0326)" class="st5" width="325.8" height="84.9"/>
			</g>
			<g>
				<path class="st4" d="M674.5,632.2c5.5,6.5,22.9,10.8,22.9,10.8l0,0c6.8,7.7,16.7,12.6,27.7,12.6c20.3,0,36.9-16.6,36.9-36.9
					v-14.4c0-1.6-0.1-3.1-0.3-4.6h-73.2c-0.2,1.5-0.3,3.1-0.3,4.6v7.1c-4.9-1-11.6-1.9-15.1,0.3
					C667.3,615.2,669.1,625.7,674.5,632.2z M678.8,616.2c2.9-0.5,6.9,1.5,9.4,5c0.3,4.3,1.3,8.4,2.9,12.1c-4.1-1-12.4-3.6-14.2-8.3
					C674.6,618.9,676.2,616.6,678.8,616.2z"/>
				<path class="st7" d="M755.7,599.7h-9.9c0.2,1.5,0.3,3.1,0.3,4.6v14.4c0,18.6-14,34.1-31.9,36.5c1.6,0.2,3.3,0.4,5,0.4
					c20.3,0,36.9-16.6,36.9-36.9v-14.4C756,602.7,755.9,601.2,755.7,599.7z"/>
				
					<rect x="710" y="652.3" transform="matrix(-1 -1.224647e-16 1.224647e-16 -1 1450.1979 1309.201)" class="st4" width="30.1" height="4.5"/>
			</g>
			<g>
				<path class="st4" d="M479.6,632.2c5.5,6.5,22.9,10.8,22.9,10.8l0,0c6.8,7.7,16.7,12.6,27.7,12.6c20.3,0,36.9-16.6,36.9-36.9
					v-14.4c0-1.6-0.1-3.1-0.3-4.6h-73.2c-0.2,1.5-0.3,3.1-0.3,4.6v7.1c-4.9-1-11.6-1.9-15.1,0.3
					C472.3,615.2,474.1,625.7,479.6,632.2z M483.9,616.2c2.9-0.5,6.9,1.5,9.4,5c0.3,4.3,1.3,8.4,2.9,12.1c-4.1-1-12.4-3.6-14.2-8.3
					C479.7,618.9,481.2,616.6,483.9,616.2z"/>
				<path class="st7" d="M560.7,599.7h-9.9c0.2,1.5,0.3,3.1,0.3,4.6v14.4c0,18.6-14,34.1-31.9,36.5c1.6,0.2,3.3,0.4,5,0.4
					c20.3,0,36.9-16.6,36.9-36.9v-14.4C561,602.7,560.9,601.2,560.7,599.7z"/>
				
					<rect x="515.1" y="652.4" transform="matrix(-1 -1.224647e-16 1.224647e-16 -1 1060.2886 1309.2126)" class="st4" width="30.1" height="4.5"/>
			</g>
		</g>
		
			<rect x="816.5" y="394.1" transform="matrix(-1 -1.224647e-16 1.224647e-16 -1 1641.5331 826.0018)" class="st5" width="8.5" height="37.8"/>
		
			<rect x="800.5" y="394.1" transform="matrix(-1 -1.224647e-16 1.224647e-16 -1 1609.5652 826.0018)" class="st5" width="8.5" height="37.8"/>
		
			<rect x="785.3" y="394.1" transform="matrix(-1 -1.224647e-16 1.224647e-16 -1 1579.1752 826.0018)" class="st5" width="8.5" height="37.8"/>
	</g>
	<g>
		<path class="st8" d="M1283.4,1148.4c0,3.8,1.9,6.4,5.1,8.2c0,0,0,0,0,0c5.9,3.2,16.3,3.6,27.5,3.1c1.4-0.1,2.7-0.1,3.9-0.1
			c0.3,0,0.6,0,0.9,0c0.2,0,0.5,0,0.7,0c11.2,0.3,10,3.6,31.2,5.4c24.2,2.1,33.1-5.3,34.5-8.7c1.2-2.9-9.2-6.1-20.8-9.8
			c-0.6-0.2-1.1-0.4-1.7-0.5c-1.5-0.5-3.1-1-4.6-1.5c-13.8-4.6-27.4-10-30.8-24c-3.6-14.8,7.2-56.1,7.2-56.1l-38.3-4.1
			c0,0-3.7,43.2-6.1,56.7c-1.3,7.2-4.6,12.9-6.5,19.1c-0.1,0.4-0.3,0.9-0.4,1.3C1284.4,1140.8,1283.4,1144.6,1283.4,1148.4z"/>
		<path class="st2" d="M1283.4,1148.4c0,3.8,1.9,6.4,5.1,8.2c0,0,0,0,0,0c6.3,2.9,16.5,3.3,27.5,3c1.4,0,2.7,0,3.9,0
			c0.3,0,0.6,0,0.9,0c0.2,0,0.5,0,0.7,0c11.2,0.3,10,3.6,31.2,5.4c24.2,2.1,33.1-5.3,34.5-8.7c1.2-2.9-9.2-6.1-20.8-9.8
			c-3.2,1.3-18.7,6.6-37.1,3.2c-16.1-3-32.1-11.1-43.6-13.7c-0.1,0.4-0.3,0.9-0.4,1.3C1284.4,1140.8,1283.4,1144.6,1283.4,1148.4z"
			/>
		<path class="st8" d="M1531.8,1099.5c2.1,10.6,17.3,8.9,34.2,4.7c16.9-4.1,12.9,0.8,37-1.9c24.1-2.7,31.4-11.7,32.1-15.2
			c0.7-3.2-11.2-4.3-24-5.8c-1.6-0.2-3.2-0.4-4.8-0.6c-14.4-1.8-25-11.1-38.1-18.8c-12.4-7.2-30.9-36.7-30.9-36.7l-33,2.6
			c0,0,17.3,26.3,24.1,37.8c3.9,6.7,3.7,15.6,3.2,22.5C1531.3,1091.9,1531.1,1095.8,1531.8,1099.5z"/>
		<path class="st2" d="M1566.1,1104.2c16.9-4.1,12.9,0.8,37-1.9c24.1-2.7,31.4-11.7,32.1-15.2c0.7-3.2-11.2-4.3-24-5.8l-0.1,0.2
			c0,0-14.5,10.2-34.5,10.7c-16.3,0.4-33.7-4.3-45-4.1c-0.3,3.7-0.5,7.6,0.3,11.3C1534,1110.1,1549.1,1108.4,1566.1,1104.2z"/>
		<path class="st9" d="M1458.3,614.1c0,0,7.9-19.3,16.5-20.1c8.7-0.8,36.2-5.1,38.2-1.2c2,3.9,0,18.1-5.9,23.2
			c-5.9,5.1-42.5,13.4-42.5,13.4L1458.3,614.1z"/>
		<path class="st10" d="M1405.2,888.2l-71.2,191.7c0,0-10.9,1.1-21.4-2c-9.7-2.8-20.7-10.1-20.7-10.1s17.7-184.1,50.1-222.3
			C1374.3,807.2,1405.2,888.2,1405.2,888.2z"/>
		<path class="st11" d="M1123.5,810.6c0,0,204.7-69.2,250.3-54.5c45.6,14.7,182.7,287.4,182.7,287.4s-3.1,4.1-11.5,7.3
			c-7.9,2.9-26.9,2.8-26.9,2.8s-123.7-106-138.4-136.9c-14.7-30.9-20.6-60.4-35.3-57.4c-14.7,2.9-189.9,72.1-229.7,30.9
			c-39.8-41.2-29.4-94.8-29.4-94.8L1123.5,810.6z"/>
		<path class="st10" d="M1248.5,488.7c3.3-6.7,6.9-18.7,8.7-40.1c-0.3,2.1-4,29.1-14.3,44.3c-42.6,27.9-124.1,121.3-122.5,138.9
			c0,0-28.7-48.7-29.2-49c0,0-53-67.4,9.8-106c31.9-19.6,31.8-44.8,30.4-66.7c-1.3-21.9,8.7-116.1,72.7-91.4c0,0,10.3-4.6,14.9-3.9
			c0,0-3.8,0.7-5.7,2.7c7.4-0.4,18,0.1,26.9,5.1C1263.6,336,1284.6,455.5,1248.5,488.7z"/>
		<path class="st9" d="M1240.4,494.3c0.2,0.1-20.6,10.9-36.2,6.6c-14.7-4-24.3-23.1-24.1-23.1c6.2-1.2,8-9.8,7.9-46.5l2.8,0.6
			l47.3,9.4c0,0-1.1,14.9-1.1,28.9C1237,481.9,1237.7,493.1,1240.4,494.3z"/>
		<path class="st12" d="M1238.1,441.2c0,0-1.1,14.9-1.1,28.9c-26.5-0.7-40.5-24.9-46.2-38.3L1238.1,441.2z"/>
		<path class="st10" d="M1186,426.7c0,0-13.9-21.9-17.2-40.7c-2.4-13.4,4.4-63,54.3-55.8c0,0,14.5,1.4,28.1,10.6
			c10.8,7.3,26.4,23.1,9,66.4l-4.5,14.6L1186,426.7z"/>
		<path class="st9" d="M1247,454.5c0,0-62.6,1-62.7-38c0-39-8.2-65.1,31.8-67.4c40-2.3,47.8,12.6,50.9,25.6
			C1270.3,387.7,1263.3,453.2,1247,454.5z"/>
		<path class="st10" d="M1187.9,356.3c0,0,42.8-29.2,56.3-9c4.1-3.5,11.4-6.1,21.1,5.6c14.5,17.6,1.6,48.7,1.6,48.7
			c-6,0.7-7.4-19.8-10.5-29.7c-2.4-7.5-10.2-15.1-13.9-18.4c-5.5,12.3-20.5,41.8-41.2,47.1c-26.3,6.8-37.7-0.3-37.7-0.3
			S1183.7,384.3,1187.9,356.3z"/>
		<path class="st4" d="M1101,662.8c-6.2-25.9,14.8-76.1,36.8-117.7c19.9-37.7,40.6-68.3,42.4-67.2c52.5,31.1,57.2,5.3,57.2,5.3
			s47.7,6.3,61.2,29.6c18.7,32.1,39,128.5,59,127.1c9.2-0.7,101.4-35.3,101.4-35.3s15.4,14.4,12.4,32.1c0,0-45.6,30.5-84.1,50
			c-20.4,10.3-38.8,17.5-47.5,15.5c-17.6-4.1-45-44.8-59.8-68.8c0-0.1-0.1-0.1-0.1-0.2c-18.9,107,6.8,131.4-6.2,142.7
			c-13.7,11.9-33.4-5.7-76.6,13c-28.3,12.3-67.6,30.1-94.1,33.2c-13.9,1.6-24.2-0.8-27.6-10.2C1065.6,784.5,1112.8,712.1,1101,662.8
			z"/>
		<path class="st13" d="M1233.1,430.8c0,0,1.2,5,13.5,4.2c0,0,10.3-0.6,10-6.1C1256.6,428.9,1246.6,425.1,1233.1,430.8z"/>
		<path class="st14" d="M1075.5,811.7c3.4,9.4,13.7,11.8,27.6,10.2c18.3-8,97.4-38.6,96.6-59.4c-1.3-30.8-15.2-31.7-5.4-69.7
			c7.9-30.5-45.7-93.2-57.4-105.5c-21.9,41.6-42.1,49.6-35.9,75.5C1112.8,712.1,1065.6,784.5,1075.5,811.7z"/>
		<path class="st14" d="M1280.1,633.2c14.8,24,42.2,64.6,59.8,68.8c8.7,2,27.1-5.2,47.5-15.5c-14.9,3.8-29.3,3.7-43.4,2.4
			c-15.2-1.5-19.6-20.1-43.7-48.1C1284.7,622.6,1280.8,627.2,1280.1,633.2z"/>
		<path class="st9" d="M1206.8,692c0,0,13.3-10.3,25.8-7.9c12.5,2.5,18.7,11,18.2,15c-0.5,3.9-7.1,15-16.7,16
			c-9.6,1-36.8-5.9-36.8-5.9L1206.8,692z"/>
		<path class="st4" d="M1180.2,477.8c0,0-51,3.1-68.7,27.8c-24.9,34.7-68.1,176.3-56.3,208.7l155.3-0.7c0,0,3.8-17.6-1.5-26.1
			c-5.2-8.5-90.3-22.3-94.2-26.2c-3.9-3.9,49.1-76.6,49.1-88.3C1163.8,561.2,1180.2,477.8,1180.2,477.8z"/>
	</g>
	<g>
		<polygon class="st5" points="371.8,1453.8 2374.9,1453.8 2374.9,1079.8 371.8,1076.1 		"/>
		<rect x="371.8" y="776.9" class="st15" width="2003" height="97.8"/>
	</g>
	<path class="st5" d="M2400.9,776.9h-2053c-17.4,0-31.5-14.1-31.5-31.5v-7.5c0-17.4,14.1-31.5,31.5-31.5h2053
		c17.4,0,31.5,14.1,31.5,31.5v7.5C2432.4,762.8,2418.3,776.9,2400.9,776.9z"/>
	<polygon class="st16" points="387,1076.1 2359.7,1079.8 2359.7,874.7 387,874.7 	"/>
	<g>
		<path class="st9" d="M626.1,685.6c-6.2-2.9-18.5,1.3-25.7,4.2c-3.4,1.4-5.6,2.5-5.6,2.5l-7.4,14.1h0.3H656
			C653.5,698.9,634.7,689.6,626.1,685.6z"/>
		<path class="st17" d="M600.6,690c-8.1-9.6-98.2-34.1-106.7-40.1c-8.5-6-14.4-59.9-14.4-59.9c-9.6-94.4-52.3-125.5-53.1-126l0,0
			c0,0,0.5,12.8,1.3,32.2c1.6,40.3,4.6,109.1,7.4,150.8c1.5,21.6,6.4,16.9,12.3,29.5c1.8,3.9,3.7,7.4,5.6,10.5
			c6,10,12.1,16.2,15.8,19.4h118.7l10.6-0.4C608,700.3,600.6,690,600.6,690C600.6,689.9,600.7,690,600.6,690z"/>
		<g>
			<path class="st10" d="M410.9,324.4c0,0-6.1-87.2-119.4-54.2c-25.7,7.5-22.4,85.1,39.9,114.7L410.9,324.4z"/>
			<path class="st18" d="M365.6,439.5c0,0,44.3,8,60.8,24.5c16.4,16.4,55.3,65,30.8,226.7c0,0-2,48.8-56.8,53.4
				C345.7,748.9,365.6,439.5,365.6,439.5z"/>
			<path class="st19" d="M263.7,841.8c7.6,53.1,58.8,191.1,57.3,238.7c-1.2,37.6-0.6,124.4,4.4,182.1c1.4,15.7,3,29.1,5,38.9
				c4.4,21.3,10,45.8,13.1,61.2c6.8,34.7,3.2,54.9,8.7,73.5c6.1,20.3,75.8,16.6,54.8,4.3c-7.5-4.4-18.4-13.8-23.8-25.9
				c-19.6-43.9,7.9-233.2,16.1-306.2c1.1-9.1,1.8-16.4,2.1-21.3c2.7-45.1,33.7-345.4,33.7-345.4C360,699.9,256.2,788.7,263.7,841.8z
				"/>
			<path class="st20" d="M263.7,841.8c7.6,53.1,58.8,191.1,57.3,238.7c-1.2,37.6-0.6,124.4,4.4,182.1l73.9-154.2
				c1.1-9.1,1.8-16.4,2.1-21.3c2.7-45.1,34.5-345.5,34.5-345.5C360.7,699.8,256.2,788.7,263.7,841.8z"/>
			<path class="st19" d="M426.8,751.5c0,0-64.5,296.7-71.9,341.2c-7.3,44.5-66.1,254.3-53.3,306.9c7.6,31,20.7,40.2,20.7,40.2
				c3.1,5.7-48,17-52.1-4.8c-5.2-27.6-6.3-66.4-14-132.1c-13.2-113.2,13-177.6,19.3-224.9c6.3-47.3-21.3-197.6-6-249
				C296.5,739,356.3,702.2,426.8,751.5z"/>
			<path class="st10" d="M444.1,1013.3c-11.4,4.7-24,8.2-37.1,10.7c0,0-0.1,0-0.1,0c-12.9,2.5-26.2,4-39.4,4.9
				c-18.6,1.3-37,1.2-53.3,0.5l-4.7-54.9l-5,19.9l-8.5,34.1c-7.9-0.5-14.9-1.2-20.9-1.8c-12.8-1.3-20.7-2.5-20.7-2.5
				c-14.5-119.2,2.9-194.3,22.5-238.7c0,0,0,0,0,0c6.2-14.1,12.6-25,18.4-33.4c3.1-4.5,5.9-8.2,8.5-11.2c2.1-2.4,3.9-4.4,5.4-5.9
				c2.9-3,4.6-4.3,4.6-4.3c6.7,2.6,13.3,4.7,19.7,6.6c4.6,1.3,9.1,2.4,13.5,3.4c0.1,0,0.1,0,0.2,0c3,0.7,6,1.2,8.9,1.8
				c1.1,0.2,2.2,0.4,3.2,0.5c3.4,0.5,6.8,1,10.1,1.4c19,2.2,35.1,1.6,46.8,0.5c10-1,16.6-2.4,18.8-2.9c0.5-0.1,0.8-0.2,0.8-0.2
				l0.1,3l1.6,51.8L444.1,1013.3z"/>
			<path class="st21" d="M332.9,1450.7h-61c-4.7-8.6-11-34.1-15.8-39.5c-0.3-0.4-0.7-0.8-1.1-1.3l-0.5,40.8h-5.5
				c-0.1-8.7-0.8-39.1-3.8-56.2c-3.3-6.2-5.6-12.3-4.6-14.8c2.1-5.3,21.7-17.1,21.7-17.1s14.5,72.3,21.3,74
				c16.3,4.1,32.7,2.6,37.3,2c0.8-0.1,8.2,3.2,10.9,7.5C332.8,1447.6,333.3,1449.1,332.9,1450.7z"/>
			<path class="st21" d="M414.6,1450.7h-61c-4.7-8.4-10.8-33.5-15.6-39.3l-0.5,39.3H332c0-1.2,0-2.7-0.1-4.5
				c-0.2-11.1-1-33.3-3.2-48.3c-4.2-7.3-7.6-15.2-6.4-18.2c2.1-5.3,21.2-17,21.2-17s0.1,0.6,0.3,1.7c0,0.2,0.1,0.3,0.1,0.5
				c0,0.2,0.1,0.4,0.1,0.7c0,0.2,0.1,0.3,0.1,0.5c2.8,14,14.1,68.8,21.1,70.6c18.6,4.7,37.3,2,38.6,1.9c0,0,0.1,0,0.1,0
				S416.1,1444.3,414.6,1450.7z"/>
			<path class="st22" d="M447.4,697.9c-2,11.2-4.1,20.8-5.9,28.4c-0.1,0.5-0.3,1.1-0.4,1.6c-2.5,10.4-4.2,16.5-4.2,16.5
				c-0.3,0.1-0.6,0.2-0.9,0.3c-0.1,0.1-0.3,0.1-0.4,0.1c-0.3,0.1-0.5,0.2-0.8,0.3c-4.2,1.3-8.3,2.5-12.3,3.5
				c-22.5,5.6-42.4,6.1-59,4.2c-9.1-1-17.1-2.8-24.1-4.8c-1.6-0.5-3.2-0.9-4.6-1.4c-0.1,0-0.1,0-0.2-0.1c-3.8-1.3-7.3-2.6-10.3-3.8
				c-9.3-3.9-14.5-7.4-15-7.7c0,0,0,0,0,0c0.8-1.9,1.4-4.3,2-7c1.1-5.2,1.8-11.9,2.1-19.7c0.7-13.5,0.5-30.4-0.3-49
				c0-0.5,0-1.1-0.1-1.6c-0.9-23.3-2.7-49.1-4.5-74.2c-1.4-19.3-2.8-38.1-3.9-55c-0.3-5.2-0.7-10.2-0.9-14.9
				c-1.6-26.6-2-46.3,0.4-51.4c3.6-7.8,14.7-12.6,26.6-15.4c1.7-0.4,3.4-0.8,5.1-1.1c0.2,0-0.5-1.9-0.3-2c1.6-0.3,4.2,1.2,5.9,1
				c0.7-0.1,1.4-0.2,2-0.3c10.6-1.6,19.8-1.9,22.1-2c0.4,0,0.5,0,0.5,0s7.5,3.7,18.2,11.2c0.8,0.6,11.3-6.2,12.1-5.6
				c12.2,8.9,26.6,25,33.3,46.8c9.1,29.6,22.5,44.2,25.3,73.4C459.5,615.4,453.6,663.8,447.4,697.9z"/>
			<path class="st18" d="M269.1,749.7c22.7,4.7,58.9,2.3,85.8-5.4c8.9-2.5,16.8-5.7,22.8-9.4c24-14.8,35.7-124,31.5-165.4
				c-4.1-41.3-73.7-126.1-73.7-126.1c-17.1,12.7-24.6,42.1-34.8,80.7C276,617.1,269.1,749.7,269.1,749.7z"/>
			<path class="st17" d="M269.1,749.7c22.7,4.7,58.9,2.3,85.8-5.4c9.9-14,17.7-31.1,22-52c12.2-60.3-36-125.7-76.1-168.1
				C276,617.1,269.1,749.7,269.1,749.7z"/>
			<path class="st23" d="M413.6,657.9l-53.5-38.6c-6.6-4.8-15.9-3.3-20.7,3.3l-59.6,82.6c-4.8,6.6-3.3,15.9,3.3,20.7l53.5,38.6
				c6.6,4.8,15.9,3.3,20.7-3.3l59.6-82.6C421.7,671.9,420.2,662.6,413.6,657.9z"/>
			<path class="st24" d="M366.2,699.2c0,0,26.1-2.6,29.4,1.8c3.2,4.4,0.3,21.4-14.4,23.2c-14.7,1.8-31.4-10.3-31.4-10.3L366.2,699.2
				z"/>
			<path class="st18" d="M335.5,443.4c0,0-46.5,5.5-66.6,47.3c-20.2,41.9-41.9,149.6-36.4,159.7c5.4,10.1,70.5,64.3,124,71.3
				c0,0,11.6-14.7,10.9-27.9c0,0-72.1-45-78.3-57.4c-6.2-12.4,55-115.5,54.3-133.3C342.5,485.3,335.5,443.4,335.5,443.4z"/>
			<path class="st25" d="M387.8,307c0,0,27.2,3.3,28.8,34.8c0,0,11.9-49.9-31.2-48.8C342.3,294,387.8,307,387.8,307z"/>
			<path class="st9" d="M396.3,447.7c0,0-2.5-26.3-1.9-33.1v0c0.3-3.5,0.7-5.5,0.7-5.5l-0.7-0.2l-54.6-16.6c0,0.4,0,0.9-0.1,1.3
				c-0.7,14.7-1.5,26.2-2.5,35.1c-0.1,1.2-0.2,2.3-0.4,3.3c-0.5,4.5-1,8.3-1.5,11.4c10.6,4.6,19.3,7.8,26.5,9.9
				c19.6,5.7,28.1,3.4,31.7,0C396.7,450.4,396.4,448.1,396.3,447.7z"/>
			<path class="st12" d="M390.1,408.9v5.7c0,0-31.4,0.4-52.8,14c0.9-8.9,1.8-20.3,2.5-35.1L390.1,408.9z"/>
			<path class="st9" d="M405.2,412.8c0,0-66.1,13.3-73.8-28c-7.6-41.3-21.3-67.4,20.6-77.6c41.9-10.2,53,4,58.9,17.2
				C416.8,337.5,422.2,408.3,405.2,412.8z"/>
			<path class="st10" d="M382.7,298c0,0,18.7,23.4-15.4,44.8c-34.1,21.4-31.5,64.2-22.4,76.3c0,0-67.9-66.2-36.4-105.7
				C339.9,273.9,382.7,298,382.7,298z"/>
		</g>
	</g>
	<path class="st13" d="M2134.5,1401.9V1326h77.6c3,0,5.5-2.5,5.5-5.5v-20.7c0-3-2.5-5.5-5.5-5.5h-77.6v-244.8
		c0-8-6.6-14.6-14.6-14.6h-15.7c-8,0-14.6,6.6-14.6,14.6v244.8H2012c-3,0-5.5,2.5-5.5,5.5v20.7c0,3,2.5,5.5,5.5,5.5h77.6v75.9
		c-57.3,4.3-103.2,25-116.1,51.6h277C2237.6,1426.9,2191.7,1406.2,2134.5,1401.9z"/>
	<g>
		<path class="st8" d="M2028.6,487.3l-27.7,34.5l-52.4,2.6c-0.5-5-2.3-26.7-3.9-45.3c-1.2-15.2-2.3-28.2-2.3-28.2l55.4-48.5
			c0,0.3,2.9,16.4,3.3,18.8C2008.4,462.9,2028.6,487.3,2028.6,487.3z"/>
		<path class="st8" d="M1589.8,671.6c0,0-28.9-14.7-39-9.3c-10.1,5.4-28.3,26.4-30.7,31.6c-2.4,5.2-3.6,12.8,5.9,11.8
			c9.5-1,10.1-0.9,10.1-0.9s16.6-11.5,20.4-11.4c3.8,0.1,19.3,8.5,27.6,0.3C1592.2,685.3,1589.8,671.6,1589.8,671.6z"/>
		<path class="st16" d="M1817.7,1393.4c0,0-3.7,59.2-15.1,60c-1.5,0.1-58,0.1-58,0.1l-72.4-0.2c0,0,0.7-17.6,21.8-21.3
			c21.1-3.7,56.4-18.5,69.2-46.4C1776.5,1356.3,1817.7,1393.4,1817.7,1393.4z"/>
		<path class="st10" d="M2103.5,1021.1c-10.3,17.5-22.2,33.8-34.5,49.4c-38,47.9-112.2,61.1-119.4,98.4c-1.4,7.4-3.7,15.5-6.7,23.9
			c-3,8.6-6.7,17.5-11,26.8c-16.1,35-12.7,31.5-36.7,67.2c-41.6,61.6-75.3,119.7-75.3,119.7l-71.7-3.1c2.9-7.2,34.1-92.2,76-196.2
			c17-42.2,15.7-41.4,33.1-84.7c2.3-5.8,4.6-11.5,6.9-17.2c5.3-13.2,10.6-26.3,15.7-39c39.3-97.6,89.9-158.6,89.9-158.6
			s157-59.5,173.3-20.9C2156.6,918.5,2145.6,949.6,2103.5,1021.1z"/>
		<path class="st16" d="M1991.5,1256.9c0,0,52.1,28.2,48.1,39c-0.5,1.4-24.4,52.7-24.4,52.7l-30.8,65.3c0,0-15.6-7.8-10-28.4
			c5.6-20.7,7-58.9-12.9-82.3C1940.5,1278.6,1991.5,1256.9,1991.5,1256.9z"/>
		<path class="st26" d="M1936.6,474.5c1.1-0.4,70.9-17.1,78.2-14.3c7.3,2.9,11,17.5,11,17.5l-113.6,19.6
			C1912.2,497.3,1921.9,479.8,1936.6,474.5z"/>
		<path class="st8" d="M1927.6,455.9c0,0,74.3,3.4,75.7-42.9c1.4-46.3,11.9-77.1-35.5-81.2c-47.4-4.1-57.2,13.3-61.4,28.6
			S1908.3,453.8,1927.6,455.9z"/>
		<path class="st10" d="M1908.1,355.5c0,0,17.5,48.9,27.3,44c9.8-4.9,18.7-9,21.2,6.5c2.4,15.5-7.3,36.7,25.3,31
			c32.6-5.7,56.8-100,44-113.2C1988.7,285.5,1857.2,310.3,1908.1,355.5z"/>
		<path class="st27" d="M2063.1,480.4c-53.2-16.5-150.6,13.1-150.6,13.1c-0.1,0.1-0.2,0.1-0.2,0.2c-16.7,5.6-37,16.9-51.4,39.8
			c-30,47.7-106.3,108.8-114.9,112.4c-8.6,3.7-123.9,11.1-160.6,18.5c0,0-16.1,23.5-5.1,35.7s177.9,7.1,187.7,6.3
			c36.3-2.9,76.6-18.4,110.4-34.6c0,0.1,0,0.1,0.1,0.2c0,0.1,0.1,0.2,0.1,0.2c69.4,167.6,7.3,187,34.8,209c1.9,1.5,4.7,3,8.2,4.4
			c46.8,18.7,206.4,24.5,225.1,2.3C2167,864.1,2132.1,501.8,2063.1,480.4z"/>
		<path class="st26" d="M1979,805.6c-3.2,22.8-21.5,79.1-57.3,80c-3.5-1.4-6.3-2.9-8.2-4.4c-27.5-22,34.6-41.3-34.8-209
			c0-0.1-0.1-0.2-0.1-0.2c11.6-8,30.4-17,42.6-3.2C1939.9,690,1982.2,782,1979,805.6z"/>
		<path class="st21" d="M1913.5,881.2c0,0-194.3,121-216.3,203.5c-22,82.5,272.1,225.9,272.1,225.9s31.2-27.5,36.7-47.7
			c0,0-138.4-121.4-166.2-155.8c-17.1-21.2,253-73.3,285.9-124.6c33-51.3,21.2-94.5,21.2-94.5L1913.5,881.2z"/>
	</g>
	<path class="st4" d="M2297.3,1013.8h-370.6c-7.4,0-13.5,6.1-13.5,13.5v74.1c0,7.4,6.1,13.5,13.5,13.5h370.6
		c7.4,0,13.5-6.1,13.5-13.5v-74.1C2310.8,1019.8,2304.7,1013.8,2297.3,1013.8z"/>
	<path class="st13" d="M1259,1401.9V1326h77.6c3,0,5.5-2.5,5.5-5.5v-20.7c0-3-2.5-5.5-5.5-5.5H1259v-244.8c0-8-6.6-14.6-14.6-14.6
		h-15.7c-8,0-14.6,6.6-14.6,14.6v244.8h-77.6c-3,0-5.5,2.5-5.5,5.5v20.7c0,3,2.5,5.5,5.5,5.5h77.6v75.9
		c-57.3,4.3-103.2,25-116.1,51.6h277C1362.2,1426.9,1316.3,1406.2,1259,1401.9z"/>
	<path class="st4" d="M1421.9,1013.8h-370.6c-7.4,0-13.5,6.1-13.5,13.5v74.1c0,7.4,6.1,13.5,13.5,13.5h370.6
		c7.4,0,13.5-6.1,13.5-13.5v-74.1C1435.3,1019.8,1429.3,1013.8,1421.9,1013.8z"/>
	<rect x="2262.1" y="39.9" class="st5" width="15.2" height="666.6"/>
	<rect x="754.1" class="st5" width="1690.7" height="39.9"/>
	<polygon class="st28" points="2161.1,100.1 2121.8,168.1 2204.1,168.1 2164.9,100.1 2164.9,51.3 2193.7,39.9 2132.3,39.9 
		2161.1,51.3 	"/>
	<polygon class="st28" points="2115.5,100.1 2076.3,168.1 2158.5,168.1 2119.3,100.1 2119.3,51.3 2148.1,39.9 2086.7,39.9 
		2115.5,51.3 	"/>
	<polygon class="st28" points="1778.9,100.1 1739.7,168.1 1821.9,168.1 1782.7,100.1 1782.7,51.3 1811.5,39.9 1750.1,39.9 
		1778.9,51.3 	"/>
	<polygon class="st28" points="1733.3,100.1 1694.1,168.1 1776.3,168.1 1737.1,100.1 1737.1,51.3 1765.9,39.9 1704.5,39.9 
		1733.3,51.3 	"/>
	<polygon class="st28" points="1578.8,100.1 1539.6,168.1 1621.8,168.1 1582.6,100.1 1582.6,51.3 1611.4,39.9 1550,39.9 
		1578.8,51.3 	"/>
	<polygon class="st28" points="1533.3,100.1 1494,168.1 1576.3,168.1 1537.1,100.1 1537.1,51.3 1565.9,39.9 1504.5,39.9 
		1533.3,51.3 	"/>
	<polygon class="st28" points="1687.7,100.1 1648.5,168.1 1730.7,168.1 1691.5,100.1 1691.5,51.3 1720.3,39.9 1658.9,39.9 
		1687.7,51.3 	"/>
	<polygon class="st28" points="1957.2,100.1 1918,168.1 2000.2,168.1 1961,100.1 1961,51.3 1989.8,39.9 1928.4,39.9 1957.2,51.3 	
		"/>
	<g>
		<g>
			
				<rect x="891" y="520.9" transform="matrix(-0.8248 0.5655 -0.5655 -0.8248 1956.7253 555.9152)" class="st29" width="2.5" height="120.5"/>
			<circle class="st30" cx="878.4" cy="561.1" r="6.7"/>
			<path class="st30" d="M881.7,575.9c0,3.7,3,6.7,6.7,6.7c3.7,0,6.7-3,6.7-6.7c0-3.7-3-6.7-6.7-6.7
				C884.7,569.2,881.7,572.2,881.7,575.9z"/>
		</g>
		<path class="st31" d="M945.2,604.4h-45.7l18.2,31.9c1.9,3.3,6.7,3.4,8.6,0.1L945.2,604.4z"/>
		<polygon class="st32" points="920.5,646.2 881.2,578.2 963.5,578.2 924.3,646.2 924.3,695 953.1,706.4 891.7,706.4 920.5,695 		
			"/>
	</g>
	<path class="st5" d="M1537.3,19v33.9h-10.9c-2.2,0-4,1.8-4,4l0,0c0,2.2,1.8,4,4,4h10.9h7.9v-7.9V19H1537.3z"/>
	<path class="st5" d="M1581.9,19v33.9H1571c-2.2,0-4,1.8-4,4l0,0c0,2.2,1.8,4,4,4h10.9h7.9v-7.9V19H1581.9z"/>
	<path class="st5" d="M1691.1,19v33.9h-10.9c-2.2,0-4,1.8-4,4l0,0c0,2.2,1.8,4,4,4h10.9h7.9v-7.9V19H1691.1z"/>
	<path class="st5" d="M1736.7,19v33.9h-10.9c-2.2,0-4,1.8-4,4l0,0c0,2.2,1.8,4,4,4h10.9h7.9v-7.9V19H1736.7z"/>
	<path class="st5" d="M1782.2,19v33.9h-10.9c-2.2,0-4,1.8-4,4l0,0c0,2.2,1.8,4,4,4h10.9h7.9v-7.9V19H1782.2z"/>
	<path class="st5" d="M1960.8,19v33.9h-10.9c-2.2,0-4,1.8-4,4l0,0c0,2.2,1.8,4,4,4h10.9h7.9v-7.9V19H1960.8z"/>
	<path class="st5" d="M2119.3,19v33.9h-10.9c-2.2,0-4,1.8-4,4l0,0c0,2.2,1.8,4,4,4h10.9h7.9v-7.9V19H2119.3z"/>
	<path class="st5" d="M2164.9,19v33.9H2154c-2.2,0-4,1.8-4,4l0,0c0,2.2,1.8,4,4,4h10.9h7.9v-7.9V19H2164.9z"/>
	<path class="st5" d="M1856.3,19v33.9h-10.9c-2.2,0-4,1.8-4,4l0,0c0,2.2,1.8,4,4,4h10.9h7.9v-7.9V19H1856.3z"/>
	<path class="st5" d="M2060.5,19v33.9h-10.9c-2.2,0-4,1.8-4,4l0,0c0,2.2,1.8,4,4,4h10.9h7.9v-7.9V19H2060.5z"/>
	<g>
		<path class="st32" d="M1502.9,598.6c10.5-13.7,7.5-45.9,6.1-56.7c-0.3-2.1-2-3.6-4.1-3.6H1486h-18.8c-2.1,0-3.9,1.6-4.1,3.6
			c-1.4,10.8-4.4,43,6.1,56.7c9,11.7,4,34.5,0.3,46.8c-1.3,4.2,1.9,8.5,6.3,8.5h10.1h10.1c4.4,0,7.6-4.2,6.3-8.5
			C1498.8,633,1493.9,610.3,1502.9,598.6z"/>
		<path class="st33" d="M1465.2,553.7c-0.8,13.9-0.4,33.5,6.3,43.3c7.8,11.4,3.5,33.6,0.3,45.6c-1.1,4.1,1.7,8.2,5.5,8.2h8.8h8.8
			c3.8,0,6.6-4.1,5.5-8.2c-3.2-12-7.5-34.2,0.3-45.6c6.7-9.8,7-29.5,6.3-43.3H1465.2z"/>
		<path class="st13" d="M1503.7,556.5h-35.5c-1.8,0-3.2-1.5-3.2-3.2l0,0c0-1.8,1.5-3.2,3.2-3.2h35.5c1.8,0,3.2,1.5,3.2,3.2l0,0
			C1507,555.1,1505.5,556.5,1503.7,556.5z"/>
	</g>
	<rect x="1580.7" y="413.4" class="st5" width="281.3" height="6.8"/>
	<g>
		<path class="st27" d="M1839.5,286.1c-3.3-2.4-5.1-6.3-5.1-10.3l0.3-58.5c0-3.1-2.5-5.6-5.6-5.7l-6.2,0c-3.1,0-5.6,2.5-5.7,5.6
			l-0.3,58.5c0,4.1-1.9,7.9-5.2,10.3c-6,4.3-10,11.3-10,19.2l-0.3,46.1l-0.2,35.9l-0.1,19.5c0,3.6,2.9,6.5,6.5,6.5l34.5,0.2
			c3.6,0,6.5-2.9,6.5-6.4l0.1-19.5l0.2-35.9l0.3-46.1C1849.3,297.5,1845.4,290.5,1839.5,286.1z"/>
		<path class="st10" d="M1835.2,219.2l-0.5,0l0-1.9c0-3.1-2.5-5.6-5.6-5.7l-6.2,0c-3.1,0-5.6,2.5-5.7,5.6l0,1.9l-0.7,0
			c-0.3,0-0.6,0.3-0.6,0.6l0,2.5c0,0.3,0.3,0.6,0.6,0.6l0.7,0l-0.1,24.3l17.4,0.1l0.1-24.3l0.5,0c0.3,0,0.6-0.3,0.6-0.6l0-2.5
			C1835.8,219.5,1835.5,219.2,1835.2,219.2z"/>
		<polygon class="st10" points="1849,351.5 1849.2,318.8 1801.7,318.5 1801.5,351.2 1801.3,387.1 1801.2,395.4 1848.7,395.7 
			1848.8,387.4 		"/>
	</g>
	<g>
		<path class="st27" d="M885.9,149c-3.3-2.4-5.1-6.3-5.1-10.3l0.3-58.5c0-3.1-2.5-5.6-5.6-5.7l-6.2,0c-3.1,0-5.6,2.5-5.7,5.6
			l-0.3,58.5c0,4.1-1.9,7.9-5.2,10.3c-6,4.3-10,11.3-10,19.2l-0.3,46.1l-0.2,35.9l-0.1,19.5c0,3.6,2.9,6.5,6.5,6.5l34.5,0.2
			c3.6,0,6.5-2.9,6.5-6.5l0.1-19.5l0.2-35.9l0.3-46.1C895.8,160.4,891.9,153.4,885.9,149z"/>
		<path class="st21" d="M881.7,82.1l-0.5,0l0-1.9c0-3.1-2.5-5.6-5.6-5.7l-6.2,0c-3.1,0-5.6,2.5-5.7,5.6l0,1.9l-0.7,0
			c-0.3,0-0.6,0.3-0.6,0.6l0,2.5c0,0.3,0.3,0.6,0.6,0.6l0.7,0l-0.1,24.3l17.4,0.1l0.1-24.3l0.5,0c0.3,0,0.6-0.3,0.6-0.6l0-2.5
			C882.3,82.4,882,82.1,881.7,82.1z"/>
		<polygon class="st21" points="895.4,214.4 895.6,181.7 848.2,181.4 848,214.2 847.8,250 847.7,258.3 895.2,258.6 895.2,250.3 		
			"/>
	</g>
	<g>
		<g>
			<path class="st21" d="M976.8,177.5c-3.3-2.4-5.1-6.3-5.1-10.3l0.3-39.5c0-3.1-2.5-5.6-5.6-5.7l-6.2,0c-3.1,0-5.6,2.5-5.7,5.6
				l-0.3,39.5c0,4.1-1.9,7.9-5.2,10.3c-6,4.3-10,11.3-10,19.2l-0.3,17.6l-0.2,35.9l-0.1,19.5c0,3.6,2.9,6.5,6.5,6.5l34.5,0.2
				c3.6,0,6.5-2.9,6.5-6.5l0.1-19.5l0.2-35.9l0.3-17.6C986.6,188.9,982.7,181.9,976.8,177.5z"/>
			<path class="st10" d="M972.5,129.6l-0.5,0l0-1.9c0-3.1-2.5-5.6-5.6-5.7l-6.2,0c-3.1,0-5.6,2.5-5.7,5.6l0,1.9l-0.7,0
				c-0.3,0-0.6,0.3-0.6,0.6l0,2.5c0,0.3,0.3,0.6,0.6,0.6l0.7,0l-0.1,24.3l17.4,0.1l0.1-24.3l0.5,0c0.3,0,0.6-0.3,0.6-0.6l0-2.5
				C973.1,129.9,972.8,129.6,972.5,129.6z"/>
			<polygon class="st10" points="986.3,214.4 986.5,210.2 939,209.9 938.8,214.2 938.6,250 938.5,258.3 986,258.6 986.1,250.3 			
				"/>
		</g>
		
			<ellipse transform="matrix(0.7071 -0.7071 0.7071 0.7071 116.2754 749.2069)" class="st22" cx="962.5" cy="234.2" rx="16.1" ry="16.1"/>
	</g>
	<g>
		<g>
			<path class="st21" d="M1638.9,314.6c-3.3-2.4-5.1-6.3-5.1-10.3l0.3-39.5c0-3.1-2.5-5.6-5.6-5.7l-6.2,0c-3.1,0-5.6,2.5-5.7,5.6
				l-0.3,39.5c0,4.1-1.9,7.9-5.2,10.3c-6,4.3-10,11.3-10,19.2l-0.3,17.6l-0.2,35.9l-0.1,19.5c0,3.6,2.9,6.5,6.5,6.5l34.5,0.2
				c3.6,0,6.5-2.9,6.5-6.4l0.1-19.5l0.2-35.9l0.3-17.6C1648.8,326,1644.9,319,1638.9,314.6z"/>
			<path class="st10" d="M1634.7,266.7l-0.5,0l0-1.9c0-3.1-2.5-5.6-5.6-5.7l-6.2,0c-3.1,0-5.6,2.5-5.7,5.6l0,1.9l-0.7,0
				c-0.3,0-0.6,0.3-0.6,0.6l0,2.5c0,0.3,0.3,0.6,0.6,0.6l0.7,0l-0.1,24.3l17.4,0.1l0.1-24.3l0.5,0c0.3,0,0.6-0.3,0.6-0.6l0-2.5
				C1635.3,267,1635,266.7,1634.7,266.7z"/>
			<polygon class="st10" points="1648.5,351.5 1648.7,347.3 1601.2,347 1601,351.2 1600.8,387.1 1600.7,395.4 1648.2,395.7 
				1648.2,387.4 			"/>
		</g>
		
			<ellipse transform="matrix(0.7071 -0.7071 0.7071 0.7071 213.285 1257.5917)" class="st22" cx="1624.7" cy="371.3" rx="16.1" ry="16.1"/>
	</g>
	<g>
		<g>
			<path class="st26" d="M1790.5,314.6c-3.3-2.4-5.1-6.3-5.1-10.3l0.3-39.5c0-3.1-2.5-5.6-5.6-5.7l-6.2,0c-3.1,0-5.6,2.5-5.7,5.6
				l-0.3,39.5c0,4.1-1.9,7.9-5.2,10.3c-6,4.3-10,11.3-10,19.2l-0.3,17.6l-0.2,35.9l-0.1,19.5c0,3.6,2.9,6.5,6.5,6.5l34.5,0.2
				c3.6,0,6.5-2.9,6.5-6.4l0.1-19.5l0.2-35.9l0.3-17.6C1800.3,326,1796.4,319,1790.5,314.6z"/>
			<path class="st10" d="M1786.2,266.7l-0.5,0l0-1.9c0-3.1-2.5-5.6-5.6-5.7l-6.2,0c-3.1,0-5.6,2.5-5.7,5.6l0,1.9l-0.7,0
				c-0.3,0-0.6,0.3-0.6,0.6l0,2.5c0,0.3,0.3,0.6,0.6,0.6l0.7,0l-0.1,24.3l17.4,0.1l0.1-24.3l0.5,0c0.3,0,0.6-0.3,0.6-0.6l0-2.5
				C1786.8,267,1786.6,266.7,1786.2,266.7z"/>
			<polygon class="st21" points="1800,351.5 1800.2,347.3 1752.7,347 1752.5,351.2 1752.3,387.1 1752.3,395.4 1799.7,395.7 
				1799.8,387.4 			"/>
		</g>
		<path class="st10" d="M1775.9,407.4L1775.9,407.4c-7.6,0-13.8-6.2-13.8-13.8v-42.1c0-7.6,6.2-13.8,13.8-13.8h0
			c7.6,0,13.8,6.2,13.8,13.8v42.1C1789.7,401.2,1783.5,407.4,1775.9,407.4z"/>
	</g>
	<g>
		<g>
			<path class="st10" d="M1025.6,187.7c-3.3-2.4-5.1-6.3-5.1-10.3l0.3-58.5c0-3.1-2.5-5.6-5.6-5.7l-6.2,0c-3.1,0-5.6,2.5-5.7,5.6
				l-0.3,58.5c0,4.1-1.9,7.9-5.2,10.3c-6,4.3-10,11.3-10,19.2l-0.3,8.1l-0.2,35.9l-0.1,19.5c0,3.6,2.9,6.5,6.5,6.5l34.5,0.2
				c3.6,0,6.5-2.9,6.5-6.5l0.1-19.5l0.2-35.9l0.3-8.1C1035.5,199.1,1031.6,192,1025.6,187.7z"/>
			<path class="st27" d="M1021.4,120.8l-0.5,0l0-1.9c0-3.1-2.5-5.6-5.6-5.7l-6.2,0c-3.1,0-5.6,2.5-5.7,5.6l0,1.9l-0.7,0
				c-0.3,0-0.6,0.3-0.6,0.6l0,2.5c0,0.3,0.3,0.6,0.6,0.6l0.7,0l-0.1,24.3l17.4,0.1l0.1-24.3l0.5,0c0.3,0,0.6-0.3,0.6-0.6l0-2.5
				C1022,121,1021.7,120.8,1021.4,120.8z"/>
			<polygon class="st27" points="1035.2,215.1 1035.3,210.8 987.9,210.6 987.7,214.8 987.5,250.7 987.4,259 1034.9,259.3 
				1034.9,251 			"/>
		</g>
		<path class="st27" d="M1011.1,271L1011.1,271c-7.6,0-13.8-6.2-13.8-13.8v-42.1c0-7.6,6.2-13.8,13.8-13.8l0,0
			c7.6,0,13.8,6.2,13.8,13.8v42.1C1024.9,264.8,1018.7,271,1011.1,271z"/>
	</g>
	<rect x="822.8" y="275.3" class="st5" width="281.3" height="6.8"/>
	<path class="st34" d="M2670.1,1457H0c-1.7,0-3.2-1.4-3.2-3.2l0,0c0-1.7,1.4-3.2,3.2-3.2h2670.1c1.7,0,3.2,1.4,3.2,3.2l0,0
		C2673.3,1455.6,2671.8,1457,2670.1,1457z"/>
</g>
</svg>
