<?xml version="1.0" encoding="utf-8"?>
<!-- Generator: Adobe Illustrator 23.1.0, SVG Export Plug-In . SVG Version: 6.00 Build 0)  -->
<svg version="1.1" id="Layer_1" xmlns="http://www.w3.org/2000/svg" xmlns:xlink="http://www.w3.org/1999/xlink" x="0px" y="0px"
	 viewBox="0 0 2281.2 821.8" style="enable-background:new 0 0 2281.2 821.8;" xml:space="preserve">
<style type="text/css">
	.st0{display:none;fill:#FFFFFF;}
	.st1{display:none;clip-path:url(#SVGID_2_);fill:#8C5F41;}
	.st2{fill:#B77446;}
	.st3{fill:#EE9849;}
	.st4{fill:#434649;}
	.st5{fill:#285493;}
	.st6{fill:#1F2021;}
	.st7{fill:#A86337;}
	.st8{fill:#C45446;}
	.st9{fill:#FFFFFF;}
	.st10{fill:#AA413E;}
	.st11{fill:#82B378;}
	.st12{fill:#ACD1A3;}
	.st13{fill:#E37970;}
	.st14{opacity:0.2;fill:#E37970;}
	.st15{fill:#80BDCC;}
	.st16{fill:#163560;}
	.st17{fill:#DDE3F2;}
	.st18{fill:#2B478B;}
	.st19{fill:#E58638;}
	.st20{fill:#D39E7A;}
	.st21{fill:#8C5F41;}
	.st22{fill:#D38957;}
	.st23{fill:#396669;}
	.st24{fill:#E49963;}
	.st25{fill:#335051;}
	.st26{fill:#ED975D;}
	.st27{fill:#C65447;}
	.st28{fill:#D68D5D;}
	.st29{fill:#A8D29F;}
	.st30{fill:#283250;}
</style>
<g>
	<rect x="-359.4" y="-694.2" class="st0" width="3000" height="2000"/>
	<g>
		<defs>
			<path id="SVGID_1_" d="M152.7,823.5c0,0-244.4-538.5,237.3-538.5c254.5,0,149.7-147.8,322.7-318.8c173.1-171,854-308.2,982.8,22
				c128.8,330.2-100.5,524,207.1,481c369.7-51.7,287.9,354.3,287.9,354.3H152.7z"/>
		</defs>
		<use xlink:href="#SVGID_1_"  style="display:none;overflow:visible;fill:#D6851B;"/>
		<clipPath id="SVGID_2_">
			<use xlink:href="#SVGID_1_"  style="display:none;overflow:visible;"/>
		</clipPath>
		<path class="st1" d="M2280.3,426.8h-600.8l-3.9-28.1c-0.1-0.6-0.3-1.2-0.5-1.8c2.4-43.2,12.1-78.6,13.8-103.7
			c4-13.6,1.4-21.5-2.3-26l3,0.5c-15.3-13.5-22.9-105.2-23.5-113c-0.1-1.2-0.3-2.5-0.5-3.9c-1.4-8.6-5.6-29.3-15.6-37.5l-42.2,3
			c0,0-16.2,7.7-28.3,43.4h0c-3,3.8-5.1,8.3-5.7,13.4c-2,16,8.2,22.2,8.2,22.2c1.6,18,6.1,39.2,14.3,40.1c0,0,3.5,0.2,8.7-0.2
			c0.1,5.7-0.4,13.1-2.5,20.6c-0.9,0.2-1.8,0.3-2.8,0.5c0,0,0-0.1,0-0.1c-0.5,0.1-1.1,0.2-1.7,0.4c-0.1,0-0.1,0-0.2,0
			c-0.5,0.1-0.9,0.2-1.3,0.4c-2.6,0.7-5.4,1.8-7.9,2.6c0,0-27.1,7.4-66.5,72.1h-5.8c-0.8-0.3-1.5-0.7-2.2-1
			c-0.6-0.3-1.4-0.6-2.2-0.9l0.3-6.5l0.8-18.3l0.4-8.8h1.2l-0.8-5.9h-27.6l-1.1,5.9h1.2l0.5,8.8l1.1,18.3l0.2,3.6
			c-2,0.3-3.6,0.8-4.4,1.6c-0.8,0.7-1.1,1.8-1,3.2h-13.2l0.4-8.4l0.8-18.3l0.4-8.8h1.2l-0.8-5.9h-27.6l-1.1,5.9h1.2l0.5,8.1
			c-2.8,0.6-5.3,1.4-7,2.3c-2.6,1.3-5.3,2.3-7.7,3.1c-23.3,3.4-41.3,4.3-53.1,5.4c0.8-2.4,0.7-4.5-0.5-5.7c-3.5-3.3-18.2-2-26.7,0.8
			c-41.6-57-70.6-75.1-70.6-75.1s-0.4-0.2-1.5-0.6c19.2-13.8-7-14.3-1.4-60.5c2.8-22.5-4.3-58.5-49.2-52.7
			c-44.9,5.8-59,49.9-50,69.5c9.1,19.6-13,24.3-20,45.4c-6,18.1-8,40.6-17.7,50.7c-26.7,28,14.5,68.8,49.9,73.1
			c0.1,3.6,0,7.3-0.3,11.2c-0.1,1.3-0.3,2.8-0.7,4.5c-2.5,12.7-10.8,34.6-16.1,51.4H1127c0,0,0,0,0,0h-239
			c-0.6-6.5-1.8-12.3-3.2-17.3c2.8-1.7,4.3-3.4,4.3-5.3c-0.3-13.2-33.5-82.5-44-94.2c0-9.5,0.1-23.3,0-32.5
			c1.4-6.3,2.2-11.9,2.4-16.5c0.1-1.6,0.1-3.2,0.1-4.6c0,0,0,0,0,0c0,0,0,0,0,0c-0.1-13.1-3.4-20.6-6.7-24.8
			c-3.3-4.2-6.6-5.1-6.6-5.1c-7.5-3-19.4-2.5-25-2v0l-0.1,0c-0.1,0-0.1,0-0.2,0l-7.5,0.7c0,0,0,0,0,0c-1,0.1-2.1,0.2-3.1,0.3
			c-4.2-2.2-11.4-12.1-16.3-28.5l0,0c0,0,1.6-9.9,7.5-8.4c9.1,2.4,20.1-19.1,9.4-41.1c-1.2-2.4-2.4-4.5-3.6-6.4
			c1.8,0.3,3.9,0.4,5.6,0c4.6-1.2,8.7-14.7,8.7-19c0-4.2-4.3-17-11.7-19.3c-7.3-2.3-16.3,4.9-16.3,4.9c2.3-5.8,15.5-7.4,15.5-7.4
			c-26.8,0.9-28.1,18.5-28.2,20.2c-20.8-11.1-40,24.2-43,30c-1.3,1.2-2.6,2.9-3.9,5.5c-6.1,12.8,6.4,29.7,6.4,29.7
			c5,13.7,13.3,30.1,20,29c0,0,2.3-0.5,5.7-1.7c0.9,2.9,1.8,6.3,2.7,9.7c0,0,0,0,0,0c0,0,0,0,0,0c1.6,6.6,2.8,12.9,1.9,14.8
			c0,0-6,2.5-7.1,3c-2.6,1.1-5,2.2-7,3.2c-8.1,4.1-11.3,7-11.3,7c0,0,0,0,0,0c0,0,0,0,0,0c0,0-9.2,16-10.5,20.1c0,0,0,0,0,0
			c-11.1,24.4-23,64.3-32.9,75.3c-2.8,3.1-11.8,8-22.1,12.9c-7.4-1.7-18.1-1.2-24.7,4c-9.1,7.1-19.3,5.2-24.8,6.2
			c-4.7,0.8-9.1,1.5-10.9,3.6h-3.6c0,28.2,21.3,51.3,48.7,54.2H58.3c-8.6,0-15.7,7.1-15.7,15.7v365.3c0,8.6,7.1,15.7,15.7,15.7
			h963.3H1127h1153.3c8.6,0,15.7-7.1,15.7-15.7V442.4C2296,433.8,2288.9,426.8,2280.3,426.8z M1582,193.3c0,0.6,0.1,1.2,0.1,1.8
			C1582.1,194.6,1582,194,1582,193.3z M769.6,426.8H664.5c13-1.4,24.7-7.4,33.3-16.3c0.2-0.1,0.3-0.1,0.5-0.2
			c11-4.3,22.7-10.2,26.1-10.9c0,0,0.1,0,0.1,0c0.3,0,0.5-0.1,0.8-0.2c4.7-1,10.4-2.2,16.5-3.6c4.4-1,8.9-2.1,13.6-3.3
			c3.8,16.2,8.7,28.7,14.6,32.3C769.9,425.3,769.7,426,769.6,426.8z M1432.6,324c3.2-0.5,7.4-0.9,13.2-1.1c0.1,0,0.1,0,0.1,0l0,0.2
			l0.5,8.2c-1.2-0.2-2.4-0.3-3.6-0.5c-2.4-0.8-5.2-1.8-7.7-3.1c-1.6-0.8-3.8-1.5-6.2-2.1C1430.9,324.8,1432.2,324.1,1432.6,324z
			 M1295.3,313.6c1.9,2.1,3.9,4.1,5.8,6c-2.2,0.2-4.2,0.4-6.2,0.6C1295.1,318,1295.2,315.8,1295.3,313.6z M1559,388.6
			c-0.7,5.3-1.1,20.9-1.2,38.1h-259.1c-2.1-14.5-5.3-32.3-6-39.6c-1-11.5-0.6-25.3,0.2-39.1c10.8-3.6,21.1-7.7,29-10.9
			c13.4,9.5,23.4,13.3,23.4,13.3c0.8,0,1.6-0.1,2.4-0.2c0,0,0.1,0,0.1,0c0.8-0.1,1.6-0.1,2.4-0.2c0.1,0,0.2,0,0.3,0
			c0.7-0.1,1.5-0.2,2.2-0.3c0.2,0,0.4-0.1,0.6-0.1c0.6-0.1,1.3-0.2,1.9-0.3c0.3,0,0.6-0.1,1-0.2c0.5-0.1,1.1-0.2,1.6-0.3
			c0.4-0.1,0.9-0.2,1.3-0.2c0.4-0.1,0.9-0.2,1.3-0.3c0.5-0.1,1.1-0.2,1.6-0.3c0.4-0.1,0.7-0.1,1.1-0.2c0.6-0.1,1.2-0.3,1.8-0.4
			c0.2,0,0.4-0.1,0.6-0.1c0,0,0.1,0,0.1,0c1.9-0.4,3.7-0.9,5.6-1.3c0.1,0,0.2-0.1,0.3-0.1c1.9-0.5,3.7-1,5.6-1.5
			c0.1,0,0.3-0.1,0.4-0.1c1.9-0.5,3.7-1.1,5.6-1.6c0.1,0,0.3-0.1,0.4-0.1c2-0.6,3.9-1.2,5.8-1.8c6.4-2,12.7-4.3,18.4-6.5
			c3.2,4.8,9.7,9.7,19.1,10c5.7,0.2,10,0.6,13.2,1.1c1.8,0.8,21.8,10.1,43,16.8c7.9,2.5,16.1,4.8,23.9,6.6
			c7.3,1.6,14.3,2.8,20.4,3.1c0,0,8.7-3.3,20.8-11.5c4,1.5,8.2,3.2,12.7,4.7L1559,388.6z"/>
	</g>
	<g>
		<path class="st2" d="M569,814.2c0.7,8.9,13.4,8.2,27.7,6.4c14.3-1.8,10.4,2.7,30.5,2.8c20,0.1,26.9-6.5,27.8-9.4
			c0.8-2.5-8.8-4.6-19.2-7.1c-1.3-0.3-2.6-0.6-3.9-0.9c-11.7-2.9-21.7-9.2-29.5-19.1c-8.7-11.1-16.6-61.8-16.6-61.8l-31.3,5.8
			c0,0,18.2,43.5,20.1,57.7c0.8,6.4-3.7,10.7-4.8,16.3C569.3,808,568.7,811.1,569,814.2z"/>
		<path class="st3" d="M596.6,821.4c5.7-1.4,10.5,1.9,30.6,2c20,0.1,26.9-6.5,27.8-9.4c0.8-2.5-8.8-4.6-19.2-7.1l-0.1,0.2
			c0,0-12.8,7-29.4,5.5c-13.5-1.2-27.2-6.8-36.5-7.7c-0.6,3-1.1,6.2-0.9,9.3C569.7,823.2,579.6,825.6,596.6,821.4z"/>
		<g>
			<path class="st4" d="M597,761.6c0,0-8.2,5.4-15.9,6.8c-11.6,2.1-16.9-0.2-16.9-0.2s-55.6-139.7-52.5-186.9
				c0.1-1.1,0.1-2.3,0.1-3.6c0.1-8.2-1.1-19.1-3.1-31.7c-0.7-4.6-1.6-9.4-2.6-14.4c-2.2-11.6-5-24.2-8-37c-1.3-5.6-2.7-11.3-4.1-17
				c-14-55.8-31.1-110.9-31.1-110.9s100.4-32.8,106.1-2.1c2.2,11.8,9.4,58.8,6.2,130.8c-2.6,57.9-0.9,103.1,4.1,155.6
				C583.6,697,591.1,736.6,597,761.6z"/>
		</g>
		<path class="st5" d="M511.8,577.7c0.1-8.2-1.1-19.1-3.1-31.7c-0.7-4.6-1.6-9.4-2.6-14.4c-2.2-11.6-5-24.2-8-37
			c-1.3-5.6-2.7-11.3-4.1-17c2-17,3.6-28.7,3.6-28.7S539.2,505.5,511.8,577.7z"/>
		<path class="st2" d="M442.3,814.2c0.7,8.9,13.3,8.9,27.6,7.2c14.3-1.8,10.5,1.9,30.6,2c20,0.1,26.9-6.5,27.8-9.4
			c0.8-2.5-8.8-4.6-19.2-7.1c-1.3-0.3-2.6-0.6-3.9-0.9c-11.7-2.9-19.4-11.5-29.5-19.1c-9.5-7.1-2.9-41.8-2.9-41.8l-29.4-10.5
			c0,0,4.4,34.8,4.4,54c0,6.5-3.7,10.7-4.8,16.3C442.6,808,442.1,811.1,442.3,814.2z"/>
		<path class="st3" d="M470,821.4c3.3-0.8,10.5,1.9,30.6,2c20,0.1,26.9-6.5,27.8-9.4c0.8-2.5-8.8-4.6-19.2-7.1l-0.1,0.2
			c0,0-12.9,7-29.4,5.5c-13.5-1.2-27.2-6.8-36.5-7.7c-0.6,3-1.1,6.2-0.9,9.3C443.1,823.2,451.6,825.7,470,821.4z"/>
		<path class="st4" d="M523.3,355.8c0,0-32.7,162.8-38.2,251.4c-5.5,88.6-12.4,162-12.4,162s-7.1,2.6-15.3,2.1
			c-8.6-0.5-15.5-3.2-15.5-3.2s-32.4-133.3-21.7-186.7c10.7-53.4,1.8-102.6-3.4-146.8c-7.4-63.5,21-93,40.8-113.1
			C477.9,301.2,523.3,355.8,523.3,355.8z"/>
		<path class="st6" d="M546.5,57.7c3.2-26.5-0.3-62.3-54-62.2c-46.3,0.1-73.5,58.8-62.8,81.9c10.7,23.1-15.4,28.7-23.5,53.5
			c-7,21.4-9.5,47.9-20.8,59.8c-36.6,38.4,35.2,97.4,78.4,84.9c78.8-22.7,89-26,86.2-88c-1.4-31.7-26.1-44-10.4-53.2
			C577.3,112.3,539.2,117.6,546.5,57.7z"/>
		<path class="st7" d="M534.9,126.2c-0.8,0-7.1-1.9-17.8-3c-5.2-15.6-2.4-32-2.4-32l-39.4-12c-1.9,41.8-5.7,47.1-6.4,47.7
			c-8.1,1.9-16.9,4.6-26.1,8.4c0,0,25.1,143.8,14.3,171.2c-10.8,27.4-14.9,51.8-14.9,51.8l117.1,1.5c0,0-1.6-94.2,3.8-127.5
			C568.5,199,534.9,126.2,534.9,126.2z"/>
		<path class="st2" d="M517.9,100.2c0,0-48.1-0.1-47.5-30c0.5-29.9-5.3-50.1,25.4-51.3c30.7-1.2,36.5,10.3,38.7,20.4
			C536.7,49.2,530.4,99.4,517.9,100.2z"/>
		<path class="st8" d="M627.9,265.9c7.2-0.3,14.3-2,24-2.7l-0.6-35.6c-7.7,0.1-13.6-3-15.2-5.3c-51.7-72.7-86.2-92.6-86.2-92.6
			s-3.9-2.3-19.2-4.4c0,0-2.2,27.6-16.4,30c-24.6,4.1-44.4-18.5-50.2-27.5c0,0-28.2,7.1-36.5,16.6c-6,6.8-5.2,23-3.4,33.2
			c0.6,3.2,1.2,5.9,1.8,7.4c1.7,4.6,8.4,38.5,11.4,52c0.1,0.3,0.1,0.7,0.2,1c0.2,0.9,0.4,1.7,0.6,2.4c0,0,0,0,0,0.1
			c0.2,0.7,0.3,1.3,0.4,1.6c0.1,0.2,0.1,0.4,0.2,0.7c0,0,0,0,0,0c4.4,13.9,7,28,5.4,45.4c-0.2,2-0.7,4.5-1.3,7.3
			c-3.9,20.2-20.3,59.9-23.7,78.2c2,4.1,6.4,7.4,11.8,10c7,3.4,15.7,5.7,22.6,7.2c5.3,1.2,13.5,2.6,23,3.7c5,0.6,10.4,1,15.9,1.4
			c0.8,0,1.5,0.1,2.3,0.1c35.3,1.8,74.8,0.9,79.9-15.9c2.5-8-7.4-56.4-8.7-70.8c-2.3-25.3,1.4-59.8,3.1-86.6
			C598,254.5,627.9,265.9,627.9,265.9z"/>
		<path class="st6" d="M501.2,12.9c0,0,5.3,10-10.2,26.9c-15.5,16.9-16.2,47.1-16.2,47.1s-26.1-49.1-12.2-64.8
			C476.5,6.5,501.2,12.9,501.2,12.9z"/>
		<path class="st6" d="M487.4,1.3c0,0,23.4-7.8,46.7,15.1c10,9.9,8.5,29.3,3.1,40.5c0,0-8.2-24.1-23.2-29.4
			C499,22.2,487.4,1.3,487.4,1.3z"/>
		<path class="st9" d="M506.4,83.1c0,0,0.5,3.7,9.5,3.9c0,0,7.6,0.2,7.7-3.8C523.6,83.1,516.5,79.7,506.4,83.1z"/>
		<path class="st10" d="M519.8,341.8c-6.7,22.7-10.6,41.3-27.3,53.9c-5.5-0.3-10.8-0.8-15.9-1.4c-9.5-1.1-17.6-2.4-23-3.7
			c-6.9-1.6-15.5-3.8-22.6-7.2c-5.4-2.6-9.8-5.9-11.8-10c3.4-18.2,19.7-58,23.7-78.2c0.4-2,0.7-3.7,0.8-5.3
			c1.5-18.1-0.9-32.9-4.9-47.4c0,0,0,0,0,0c-0.2-0.8-0.4-1.5-0.7-2.3c0,0,0,0,0-0.1c-0.1-0.5-0.3-1.3-0.6-2.4
			c-0.1-0.3-0.1-0.6-0.2-1c-2.7-12.8-10.7-52.1-12.5-57.3c-0.6-1.7-0.2-5.4-0.8-8.9l14.1-13.6c0,0,80.9,34.5,98.7,82.2
			C554.7,287.1,529.4,309.3,519.8,341.8z"/>
		<path class="st10" d="M680.1,254.6c-17.9,5.7-37.4,10.7-52.2,11.4c0,0-30.3-11.6-59.4-44c-1.2-5.5-2.4-14.7,4.3-12.1
			c9.4,3.7,43.9,48.1,57,49.1C639.2,259.6,665.8,256.4,680.1,254.6z"/>
		<path class="st7" d="M768.1,233.9c-3.8-4.8-25-5.1-33.4-2.3c-3.2,1.1-6.6,1.8-9.6,2.3c-37.2,0.2-61.6-7-73.8-6.4
			c-3.5,7-8.9,19.6-7.5,36.5c9.5-0.8,20.5-2.3,30.1-3.9c25.9-4.4,49.9-8.1,52-8.8c3.8-0.1,8.8,0.1,15.5,0.9
			C760.5,254.4,772,238.7,768.1,233.9z"/>
		<g>
			<path class="st11" d="M598.3,220c1.5-0.9,4.4-0.6,6.5-0.1v-3c0-0.7,0-1.3,0.1-2h31.3c0.1,0.6,0.1,1.3,0.1,2v6.1
				c0,8.7-7.1,15.8-15.8,15.8c-4.7,0-8.9-2.1-11.8-5.4l0,0c0,0-7.5-1.8-9.8-4.6C596.5,226,595.8,221.5,598.3,220z M599.9,225.7
				c0.8,2,4.3,3.1,6.1,3.6c-0.7-1.6-1.1-3.4-1.3-5.2c-1.1-1.5-2.8-2.3-4-2.1C599.6,222.1,598.9,223.1,599.9,225.7z"/>
			<path class="st12" d="M633.7,216.8v6.1c0,8.7-7.1,15.8-15.8,15.8c-0.7,0-1.4-0.1-2.1-0.2c7.7-1,13.7-7.7,13.7-15.6v-6.1
				c0-0.7,0-1.3-0.1-2h4.2C633.7,215.5,633.7,216.2,633.7,216.8z"/>
			
				<rect x="614.1" y="237.4" transform="matrix(-1 -1.224647e-16 1.224647e-16 -1 1241.0438 476.7264)" class="st11" width="12.9" height="1.9"/>
		</g>
		<g>
			<path class="st11" d="M675.8,220c1.5-0.9,4.4-0.6,6.5-0.1v-3c0-0.7,0-1.3,0.1-2h31.3c0.1,0.6,0.1,1.3,0.1,2v6.1
				c0,8.7-7.1,15.8-15.8,15.8c-4.7,0-8.9-2.1-11.8-5.4l0,0c0,0-7.5-1.8-9.8-4.6C674,226,673.3,221.5,675.8,220z M677.4,225.7
				c0.8,2,4.3,3.1,6.1,3.6c-0.7-1.6-1.1-3.4-1.3-5.2c-1.1-1.5-2.8-2.3-4-2.1C677.1,222.1,676.4,223.1,677.4,225.7z"/>
			<path class="st12" d="M711.2,216.8v6.1c0,8.7-7.1,15.8-15.8,15.8c-0.7,0-1.4-0.1-2.1-0.2c7.7-1,13.7-7.7,13.7-15.6v-6.1
				c0-0.7,0-1.3-0.1-2h4.2C711.2,215.5,711.2,216.2,711.2,216.8z"/>
			
				<rect x="691.6" y="237.4" transform="matrix(-1 -1.224647e-16 1.224647e-16 -1 1396.0439 476.7226)" class="st11" width="12.9" height="1.9"/>
		</g>
		<g>
			<path class="st13" d="M639.2,203.3l0.2,3.9l0.1,2.9l0.8,18.4l0.1,1.6l0.4,9.2h25.3l0.6-9.2l0.1-1.6l1.1-18.4l0.2-2.9l0.3-5.2
				l-0.1-0.2c0,0-5.9-1.1-9.5,1.2c-3.5,2.3-7.4-2.2-10.6-0.9c-3.2,1.3-3.4,2.9-6,1.8C641.5,203.7,640.4,203.5,639.2,203.3z"/>
			<polygon class="st14" points="639.1,200.6 639.2,203.3 639.4,207.3 639.5,210.2 640.3,228.6 640.4,230.1 640.8,239.3 
				666.1,239.3 666.7,230.1 666.8,228.6 667.9,210.2 668.1,207.3 668.4,202.1 668.5,200.6 			"/>
			<path class="st14" d="M638.9,200.6c0-0.2,0-0.3,0-0.5c0-8.1,6.6-14.8,14.8-14.8c8.1,0,14.8,6.6,14.8,14.8c0,0.2,0,0.3,0,0.5
				H638.9z"/>
			<g>
				<path class="st15" d="M656.2,237l1.3-0.2c-0.1-0.8-4.2-55.4-4.8-59c-0.7-4-4.6-5.2-4.8-5.2l-0.1,0l-20.6-3.7l-0.2,1.3l20.6,3.6
					c0.3,0.1,3.3,1.1,3.8,4.2C652,181.6,656.2,236.8,656.2,237z"/>
			</g>
			<polygon class="st16" points="639.4,207.3 639.5,210.2 640.3,228.6 666.8,228.6 667.9,210.2 668.1,207.3 			"/>
		</g>
		<g>
			<path class="st17" d="M743.6,226.2c-0.1-0.2,0-4.5-7.2-6.1c-7.2-1.6-5.1-5.2-5.1-5.2s-10.5,5.1-8.4,11.3
				C724.9,232.3,743.6,226.2,743.6,226.2z"/>
			<polygon class="st13" points="722.7,239.3 743.9,239.3 747.6,224 719.5,224 			"/>
		</g>
		<path class="st18" d="M772.6,248.2H596.5c-2.5,0-4.5-2-4.5-4.5l0,0c0-2.5,2-4.5,4.5-4.5h176.1c2.5,0,4.5,2,4.5,4.5l0,0
			C777.1,246.2,775.1,248.2,772.6,248.2z"/>
		<path class="st3" d="M480.7,185.4h85.6c0,0,29.6,263.5,14.9,358.8H434.5C434.5,544.2,484.8,254.1,480.7,185.4z"/>
		<path class="st19" d="M536.9,239.5c-8-21.3-28.5-39.9-48.8-54.1h-7.5c2.1,34.5-9.6,125-21.7,206.4l-7.5,49.1
			c16.8-12.6,61.7-76.5,68.3-99.2C529.4,309.3,554.7,287.1,536.9,239.5z"/>
		<path class="st8" d="M605.9,264.3c0,0-42.2,14.6-77.5,18.2c-10.2,1-19.9,1.4-28.1,0.7c0,0-35.3-16.3-58.2-59.4
			c-44.1-83.4-1.1-85.9-1.1-85.9s33.2,27.5,74.8,106.4c1.5,2.8,6,2.8,18,2c12.8-0.8,37.5,2.8,72.4,2.3c0,0,0.4,1.3,0.2,5.5
			C606.1,263.2,605.9,264.3,605.9,264.3z"/>
		<path class="st2" d="M657.1,246.4c-4.1-5.1-26.8-5.3-35.7-2.2c-5.2,1.8-10.9,2.7-14.7,3.2c0,0,0-0.1,0-0.1
			c-34.9,0.4-60-1.8-72.8-1c2.8,8.9,4,22.3-5.5,36.2c33.9-3.5,74.6-15.9,78.1-16.9c4-0.5,10.9-0.7,22.2,0.5
			C649.1,268.2,661.2,251.5,657.1,246.4z"/>
		<path class="st19" d="M444.8,289l30.7,1.5l-1.5,9.3l-29.8-3.1c-1.6-0.2-2.7-1.5-2.7-3.1l0.1-1.8C441.8,290.2,443.2,289,444.8,289z
			"/>
		<path class="st3" d="M457,129.8c0,0-4.1-1.6-7.4,2.5c0,0,26.1,37.6,31.6,53.9l9-0.8C490.2,185.4,469.2,142.7,457,129.8z"/>
		<g>
			<path class="st19" d="M488.4,185.5c-3.5-2.4-7-4.7-10.4-6.9c1.3,2.8,2.4,5.3,3.2,7.5L488.4,185.5z"/>
		</g>
		<path class="st3" d="M527,124.6c0,0,19.3,24.3,30.2,62.8l9.1-2c0,0-10.4-33.7-32.8-60.1C533.5,125.3,529.6,123,527,124.6z"/>
	</g>
	<g>
		<g>
			<g>
				<g>
					<path class="st20" d="M1659,625.1C1659,625.1,1659,625.1,1659,625.1c2.1,0,3.7-1.5,3.7-3.3c-2.1-128.8,47.7-227.8,48.2-228.8
						c0.8-1.6,0.7-5.3-4.7-5.8c-4.7-0.4-7.6,0.6-8.4,2.3c-0.1,0.3-11.2,23.8-23.6,64.8c-11.4,37.8-20,99.6-18.9,167.6
						C1655.3,623.6,1657,625.1,1659,625.1z"/>
				</g>
				<g>
					<path class="st20" d="M1547.9,625.1C1547.9,625.1,1547.9,625.1,1547.9,625.1c2.1,0,3.7-1.5,3.7-3.3
						c-2.1-128.8,47.7-227.8,48.2-228.8c0.8-1.6,0.7-5.3-4.7-5.8c-4.7-0.4-7.6,0.6-8.4,2.3c-0.1,0.3-11.2,23.8-23.6,64.8
						c-11.4,37.8-20,99.6-18.9,167.6C1544.2,623.6,1545.9,625.1,1547.9,625.1z"/>
				</g>
				<g>
					<path class="st20" d="M1691.9,432.5c1.8,0,3.3-1.1,3.6-2.7c0.3-1.8-1-3.5-3-3.8c-3.2-0.5-78.7-11.8-112.5-2.4
						c-1.9,0.5-3,2.4-2.4,4.1c0.6,1.7,2.7,2.7,4.6,2.1c32.1-8.9,108.3,2.4,109.1,2.6C1691.4,432.5,1691.7,432.5,1691.9,432.5z"/>
				</g>
				<g>
					<path class="st20" d="M1683.2,454.2c1.8,0,3.3-1.1,3.6-2.7c0.3-1.8-1-3.5-3-3.8c-3.2-0.5-78.7-11.8-112.5-2.4
						c-1.9,0.5-3,2.4-2.4,4.1c0.6,1.7,2.7,2.7,4.6,2.1c32.1-8.9,108.3,2.4,109.1,2.6C1682.8,454.2,1683,454.2,1683.2,454.2z"/>
				</g>
			</g>
			<path class="st20" d="M1663.4,625.1h-227.6c0,0,5.3-22,137.1-18.7C1666.2,608.7,1663.4,625.1,1663.4,625.1z"/>
			<g>
				<path class="st20" d="M1681.9,822.5c-26.4-117.5-19.6-189.5-19.6-190.5c0.1-1.8-3.7-3.5-5.8-3.5c-2.1,0-11.2-0.5-12.2,1
					c-1.4,2-6.7,90.8,32.6,192.9H1681.9z"/>
			</g>
			<g>
				<path class="st20" d="M1488.7,822.5c26.4-117.5,19.6-189.5,19.6-190.5c-0.1-1.8,3.7-3.5,5.8-3.5c2.1,0,11.2-0.5,12.2,1
					c1.4,2,6.7,90.8-32.6,192.9H1488.7z"/>
			</g>
			<g>
				<path class="st21" d="M1427.3,822.5c26.4-117.5,19.6-189.5,19.6-190.5c-0.1-1.8,3.7-3.5,5.8-3.5c2.1,0,11.2-0.5,12.2,1
					c1.4,2,6.7,90.8-32.6,192.9H1427.3z"/>
			</g>
			<g>
				<path class="st21" d="M1615.1,822.5c-26.4-117.5-19.6-189.5-19.6-190.5c0.1-1.8-3.7-3.5-5.8-3.5c-2.1,0-11.2-0.5-12.2,1
					c-1.4,2-6.7,90.8,32.6,192.9H1615.1z"/>
			</g>
			<path class="st19" d="M1434.5,632.1h229.9c1.9,0,3.5-1.6,3.5-3.5l0,0c0-1.9-1.6-3.5-3.5-3.5h-229.9c-1.9,0-3.5,1.6-3.5,3.5l0,0
				C1431,630.5,1432.6,632.1,1434.5,632.1z"/>
		</g>
		<g>
			<g>
				<g>
					<path class="st20" d="M778.5,626C778.4,626,778.4,626,778.5,626c-2.1,0-3.7-1.5-3.7-3.3c2.1-128.8-47.7-227.8-48.2-228.8
						c-0.8-1.6-0.7-5.3,4.7-5.8c4.7-0.4,7.6,0.6,8.4,2.3c0.1,0.3,11.2,23.8,23.6,64.8c11.4,37.8,20,99.6,18.9,167.6
						C782.1,624.5,780.5,626,778.5,626z"/>
				</g>
				<g>
					<path class="st20" d="M889.5,626C889.5,626,889.5,626,889.5,626c-2.1,0-3.7-1.5-3.7-3.3c2.1-128.8-47.7-227.8-48.2-228.8
						c-0.8-1.6-0.7-5.3,4.7-5.8c4.7-0.4,7.6,0.6,8.4,2.3c0.1,0.3,11.2,23.8,23.6,64.8c11.4,37.8,20,99.6,18.9,167.6
						C893.2,624.5,891.5,626,889.5,626z"/>
				</g>
				<g>
					<path class="st20" d="M745.6,433.4c-1.8,0-3.3-1.1-3.6-2.7c-0.3-1.8,1-3.5,3-3.8c3.2-0.5,78.7-11.8,112.5-2.4
						c1.9,0.5,3,2.4,2.4,4.1c-0.6,1.7-2.7,2.7-4.6,2.1c-32.1-8.9-108.3,2.4-109.1,2.6C746,433.4,745.8,433.4,745.6,433.4z"/>
				</g>
				<g>
					<path class="st20" d="M754.2,455.1c-1.8,0-3.3-1.1-3.6-2.7c-0.3-1.8,1-3.5,3-3.8c3.2-0.5,78.7-11.8,112.5-2.4
						c1.9,0.5,3,2.4,2.4,4.1c-0.6,1.7-2.7,2.7-4.6,2.1c-32.1-8.9-108.3,2.4-109.1,2.6C754.6,455.1,754.4,455.1,754.2,455.1z"/>
				</g>
			</g>
			<path class="st20" d="M774,626h227.6c0,0-5.3-22-137.1-18.7C771.2,609.6,774,626,774,626z"/>
			<g>
				<path class="st20" d="M755.5,823.4C781.9,706,775.1,633.9,775.1,633c-0.1-1.8,3.7-3.5,5.8-3.5c2.1,0,11.2-0.5,12.2,1
					c1.4,2,6.7,90.8-32.6,193H755.5z"/>
			</g>
			<g>
				<path class="st20" d="M948.7,823.4C922.3,706,929.1,633.9,929.1,633c0.1-1.8-3.7-3.5-5.8-3.5c-2.1,0-11.2-0.5-12.2,1
					c-1.4,2-6.7,90.8,32.6,193H948.7z"/>
			</g>
			<g>
				<path class="st21" d="M1010.1,823.4C983.7,706,990.5,633.9,990.6,633c0.1-1.8-3.7-3.5-5.8-3.5c-2.1,0-11.2-0.5-12.2,1
					c-1.4,2-6.7,90.8,32.6,193H1010.1z"/>
			</g>
			<g>
				<path class="st21" d="M822.3,823.4C848.7,706,841.9,633.9,841.9,633c-0.1-1.8,3.7-3.5,5.8-3.5c2.1,0,11.2-0.5,12.2,1
					c1.4,2,6.7,90.8-32.6,193H822.3z"/>
			</g>
			<path class="st19" d="M1002.9,633H773c-1.9,0-3.5-1.6-3.5-3.5l0,0c0-1.9,1.6-3.5,3.5-3.5h229.9c1.9,0,3.5,1.6,3.5,3.5l0,0
				C1006.4,631.4,1004.8,633,1002.9,633z"/>
		</g>
		<path class="st2" d="M1377.2,462.1c0,0-13.3-8.3-19.1-7c-5.8,1.3-21.6,5.8-22.1,12.3c-0.5,6.5,22.6,16.8,39.7,11
			C1392.8,472.7,1377.2,462.1,1377.2,462.1z"/>
		<path class="st22" d="M1447.8,809.4c0,2.9-1.4,4.9-3.9,6.3c0,0,0,0,0,0c-4.5,2.5-11.8,0.6-20.4,0.2c-1.1,0-2.8,2.1-3.7,2.1
			c-0.2,0-0.5,0-0.7,0c-0.2,0-0.4,0-0.5,0c-8.6,0.2-7.7,2.8-23.9,4.2c-18.5,1.6-25.4-4.1-26.5-6.7c-0.9-2.2,7-4.7,15.9-7.5
			c0.4-0.1,0.9-0.3,1.3-0.4c1.2-0.4,2.4-0.8,3.6-1.2c10.6-3.5,21-7.7,23.6-18.4c2.8-11.4-5.5-43.1-5.5-43.1l29.4-3.2
			c0,0,2.8,33.1,4.7,43.5c1,5.5,3.5,9.9,5,14.6c0.1,0.3,0.2,0.7,0.3,1C1447,803.6,1447.8,806.5,1447.8,809.4z"/>
		<g>
			<path class="st23" d="M1368.1,815.5c0.6,1.4,1.8,5.4,9.6,7.1h29.5c0.1,0,0.2-0.1,0.3-0.1c9.7-4.3,17.5-4.8,23.6-4.9
				c3.3-0.1,6.1,0,8.4-0.3h0c1.4-0.2,2.7-0.6,3.8-1.2c0,0,0,0,0,0c0.2-0.1,0.3-0.2,0.5-0.3c0,0,0,0,0,0c0.1-0.1,0.3-0.2,0.4-0.3h0
				l0,0c0.3-0.2,0.5-0.3,0.8-0.5c0.1-0.1,0.2-0.2,0.4-0.3c0.1-0.1,0.2-0.2,0.3-0.3c0.1-0.1,0.2-0.2,0.2-0.2c0.1-0.1,0.3-0.3,0.4-0.5
				c0,0,0,0,0,0c0.1-0.1,0.1-0.2,0.2-0.3c0.1-0.1,0.1-0.2,0.2-0.3c0,0,0,0,0,0c0,0,0,0,0,0c0.1-0.1,0.1-0.2,0.2-0.3c0,0,0,0,0,0
				c0-0.1,0.1-0.1,0.1-0.2c0-0.1,0.1-0.2,0.1-0.3c0.1-0.1,0.1-0.3,0.2-0.4c0-0.1,0.1-0.2,0.1-0.3c0-0.1,0.1-0.3,0.1-0.5
				c0-0.1,0-0.2,0.1-0.4c0-0.1,0-0.2,0-0.3c0-0.1,0-0.2,0-0.4c0-0.2,0-0.4,0-0.5v0c0-0.2,0-0.3,0-0.5c0-0.2,0-0.3,0-0.5
				c0-0.2,0-0.3,0-0.5c0-0.2,0-0.3,0-0.5c0-0.2,0-0.5-0.1-0.7c0,0,0-0.1,0-0.1c0-0.1,0-0.3-0.1-0.4c0-0.2-0.1-0.4-0.1-0.6
				c-0.1-0.4-0.1-0.7-0.2-1.1c0-0.2-0.1-0.3-0.1-0.5c-0.1-0.4-0.2-0.7-0.2-1c0-0.2-0.1-0.4-0.1-0.5c-0.1-0.3-0.2-0.7-0.3-1
				c0-0.2-0.1-0.3-0.1-0.5c-0.1-0.3-0.2-0.7-0.3-1c-8.8,2.1-21.1,8.2-33.5,10.5c-0.2,0-0.4,0.1-0.6,0.1c-6.6,1.2-12.7,0.9-17.6,0.1
				c-5.3-0.8-9-2.1-10.3-2.6C1375.2,810.8,1367.2,813.3,1368.1,815.5z"/>
			<polygon class="st23" points="1431.1,822.5 1431.1,820.4 1431.1,818.7 1431.1,817.5 1431.1,816.6 1431.6,816.5 1444.8,814.5 
				1444.3,815.4 1444.3,815.4 1444.3,815.4 1444,816 1443,817.8 1443,817.8 1440.5,822.5 			"/>
		</g>
		<path class="st6" d="M1599.5,526.9l-95.1-9.1c0,0-145.5,0.7-159.1,19.9c0,0-26,18,3.4,92.4c29.4,74.4,63.9,148.8,63.9,148.8
			s8.8,2.4,20.8,1.5c4.8-0.4,11.2-2,11.2-2s-6.6-111.1-21.3-154.3c-14.7-43.2-19.2-34.8,6.8-32.4c26,2.4,109.6,21.6,148,16.8
			C1616.5,603.8,1599.5,526.9,1599.5,526.9z"/>
		<path class="st24" d="M1466.1,809.4c0,2.9-1.4,4.9-3.9,6.3c0,0,0,0,0,0c-4.5,2.5-11.8,0.6-20.4,0.2c-1.1,0-2.8,2.1-3.7,2.1
			c-0.2,0-0.5,0-0.7,0c-0.2,0-0.4,0-0.5,0c-8.6,0.2-7.7,2.8-23.9,4.2c-18.5,1.6-25.4-4.1-26.5-6.7c-0.9-2.2,7-4.7,15.9-7.5
			c0.4-0.1,0.9-0.3,1.3-0.4c1.2-0.4,2.4-0.8,3.6-1.2c10.6-3.5,21-7.7,23.6-18.4c2.8-11.4-5.5-43.1-5.5-43.1l29.4-3.2
			c0,0,2.8,33.1,4.7,43.5c1,5.5,3.5,9.9,5,14.6c0.1,0.3,0.2,0.7,0.3,1C1465.3,803.6,1466.1,806.5,1466.1,809.4z"/>
		<path class="st4" d="M1612.8,533.7l-89.2-7.5c0,0-145.5,0.6-159.1,19.2c0,0-22,13.8,7.4,85.9s59.1,151.4,59.1,151.4
			s6.6,0.9,14.6,0.3c10-0.8,13.4-4.1,13.4-4.1s-2.1-98.6-16.8-140.5c-14.7-41.9-20.3-37.6,5.6-35.3c26,2.3,99,20.5,149.4,10.9
			C1635.3,606.7,1612.8,533.7,1612.8,533.7z"/>
		<g>
			<path class="st23" d="M1386.4,815.1c0,0.1,0,0.2,0.1,0.3c0.5,1.3,1.6,4.9,8,6.7c0.5,0.1,1,0.3,1.6,0.4h29.5
				c1.9-0.9,3.8-1.6,5.5-2.2c4.4-1.5,8.4-2.2,11.9-2.5h0c2.3-0.2,4.4-0.3,6.4-0.3c5.5-0.1,9.7,0.1,12.8-1.8c0,0,0,0,0,0
				c0.1-0.1,0.3-0.2,0.4-0.3h0l0,0c0.3-0.2,0.5-0.3,0.8-0.5c0.1-0.1,0.2-0.2,0.4-0.3c0.1-0.1,0.2-0.2,0.3-0.3
				c0.1-0.1,0.2-0.2,0.2-0.2c0.1-0.1,0.1-0.2,0.2-0.3c0.1-0.1,0.1-0.2,0.2-0.3c0-0.1,0.1-0.1,0.1-0.2c0.1-0.1,0.1-0.2,0.2-0.3
				c0.1-0.1,0.1-0.2,0.2-0.3c0.1-0.2,0.2-0.3,0.2-0.5c0,0,0,0,0,0c0-0.1,0.1-0.2,0.1-0.3c0-0.1,0.1-0.2,0.1-0.2c0,0,0,0,0,0
				c0,0,0,0,0,0c0,0,0,0,0,0c0-0.1,0.1-0.2,0.1-0.3c0-0.1,0.1-0.2,0.1-0.4c0-0.1,0.1-0.2,0.1-0.4c0-0.1,0-0.2,0-0.2c0,0,0,0,0,0
				c0-0.1,0-0.2,0-0.4c0-0.2,0-0.4,0-0.5c0-2.9-0.7-5.8-1.5-8.5c-0.1-0.3-0.2-0.7-0.3-1c-4.8,1.1-10.6,3.4-16.9,5.7
				c-5.3,1.9-10.9,3.8-16.6,4.8c-7.2,1.4-13.8,1-18.9,0.1c-4.9-0.8-8.3-2-9.5-2.5c-2.9,0.9-5.6,1.8-8,2.6c-0.5,0.2-0.9,0.3-1.3,0.5
				c-0.4,0.2-0.8,0.3-1.2,0.5c-0.4,0.1-0.8,0.3-1.1,0.4c-0.2,0.1-0.3,0.1-0.5,0.2c-0.2,0.1-0.3,0.1-0.5,0.2
				c-0.3,0.1-0.6,0.3-0.9,0.4c-0.1,0.1-0.3,0.1-0.4,0.2c-0.3,0.1-0.5,0.3-0.7,0.4c-0.2,0.1-0.3,0.2-0.5,0.3
				c-0.1,0.1-0.2,0.2-0.3,0.2c0,0-0.1,0.1-0.1,0.1c-0.2,0.2-0.3,0.4-0.4,0.6c0,0,0,0.1,0,0.1c0,0,0,0,0,0
				C1386.4,815,1386.4,815.1,1386.4,815.1z"/>
			<polygon class="st23" points="1449.4,816.6 1449.4,822.5 1458.8,822.5 1462.6,815.4 1462.6,815.4 1462.6,815.4 1463.1,814.5 
				1449.9,816.5 			"/>
		</g>
		<path class="st23" d="M1370.7,479.3c0.1,0.8,0.4,1.6,0.7,2.4c3.8,8.3,82.1,18.8,91.9,13.6c4.4-2.4,10.7-41.8,16.4-84.8
			c7-53.1,13.1-111.5,13.1-111.5s-32.5,10.3-36.3,27.6c-3.8,17.3-4.5,124.3-14.3,129.5c-9.8,5.3-51.2,0.8-65.5,3
			C1376.7,459.1,1369.2,471,1370.7,479.3z"/>
		<path class="st6" d="M1490.7,175.9c6.1-4.9,14.9-4.3,20.6-3.9c-1.5-1.5-4.3-2.1-4.3-2.1c3.5-0.5,11.4,3,11.4,3
			s29.8-15.3,43.6,23.9c0,0-2.4-3-5.7-6.3c8,22.5-0.1,56.6-25.2,62.7C1514.7,257.1,1428.3,226,1490.7,175.9z"/>
		<path class="st7" d="M1490.5,307.6c-0.2,0.1,15.8,8.3,27.7,5.1c11.3-3.1,18.6-17.7,18.5-17.7c-4.8-0.9-6.1-7.5-6-35.7l-2.2,0.4
			l-36.3,7.2c0,0,0.8,11.4,0.9,22.2C1493.1,298.1,1492.5,306.7,1490.5,307.6z"/>
		<path class="st6" d="M1532.2,255.7c0,0,10.6-16.8,13.2-31.2c1.8-10.3-3.4-48.3-41.6-42.8c0,0-11.1,1.1-21.5,8.1
			c-8.3,5.6-20.3,17.7-6.9,50.9l3.5,11.2L1532.2,255.7z"/>
		<path class="st2" d="M1485.4,277.1c0,0,48,0.8,48.1-29.1c0-29.9,6.3-50-24.4-51.7c-30.7-1.8-36.6,9.6-39.1,19.6
			C1467.6,225.8,1472.9,276.1,1485.4,277.1z"/>
		<path class="st6" d="M1487.2,195.5c0,0,13.2,35.1,33.3,40.3c20.2,5.2,28.9-0.2,28.9-0.2s-5.6-14.9-8.8-36.3
			C1540.7,199.2,1497.1,178.8,1487.2,195.5z"/>
		<path class="st25" d="M1473.7,343.3c0.8-3.4-6.4-6-8.1-2.9c-3.3,5.7-4,12.9-5.3,18.6c-3.8,16.3,0,38.7,0,38.7L1473.7,343.3z"/>
		<path class="st6" d="M1490.5,198.3c0,0-9.8,7.8-12.2,15.5c-2.4,7.6-3.5,23.3-8,22.8c0,0-9.9-23.9,1.2-37.4
			C1483.2,184.9,1490.5,198.3,1490.5,198.3z"/>
		<path class="st9" d="M1496.1,258.9c0,0-0.9,3.8-10.4,3.2c0,0-7.9-0.5-7.7-4.7C1478.1,257.5,1485.8,254.5,1496.1,258.9z"/>
		<path class="st25" d="M1370.7,479.3c0.1,0.8,0.4,1.6,0.7,2.4c3.8,8.3,82.1,18.8,91.9,13.6c4.4-2.4,12.1-51.5,6.5-95.4
			c-5.9,25.1-7.7,76.6-21.6,79.1C1432.5,481.7,1391.3,476.4,1370.7,479.3z"/>
		<path class="st23" d="M1457.4,399.6c19.5,93.8,3.2,108.3,13.3,117.5c0.1,0,9,3.9,9,4c10.5,9.1,10.8-1.9,43.9,12.4
			c15.8,6.8,36,15.9,53.7,21.3c6.7,2,12.9,3.5,18.5,4.2c10.6,1.3,18.6-0.6,21.2-7.8c7.5-20.9-28.6-76.4-19.6-114.3
			c0.1-0.3,0.2-0.7,0.2-1c0.7-3.3,0.8-7.1,0.4-11.3c-1.7-21.1-15-51.8-28.9-78.1c-15.3-28.9-31.1-52.4-32.5-51.5
			c-40.3,23.9-43.9,4-43.9,4S1450.7,367.6,1457.4,399.6z"/>
		<path class="st25" d="M1476.5,519.7C1476.5,519.8,1476.4,519.7,1476.5,519.7c10.5,9.1,14-0.6,47.1,13.7
			c15.8,6.8,36,15.9,53.7,21.3c9,1.6,15.8,3,18.5,4.2c10.6,1.3,18.6-0.6,21.2-7.8c7.5-20.9-28.6-76.4-19.6-114.3
			c0.1-0.3,0.2-0.7,0.2-1c0.8-3.7,0.9-7.5,0.4-11.3c-1.9-16.1-13.7-33.5-27.1-58.8c-8.9,9.5-76.1-1.5-60.2,91.9
			C1515.6,486.2,1480.7,497.5,1476.5,519.7z"/>
		<path class="st2" d="M1479.8,524.5c0,0-14.8-3.5-21.6-0.8c-6.8,2.8-20.3,9.8-19.1,13.6c1.3,3.8,17.3,5.8,24.1,2
			c6.8-3.8,11.8,1,20.1-1.8C1491.6,534.8,1479.8,524.5,1479.8,524.5z"/>
		<path class="st23" d="M1536.7,295c0,0,54.6,0.7,64.4,27.1c9.8,26.4,6.8,119-7.5,146.8s-95.6,65.5-104.7,67
			c-9,1.5-14.7-12.4-14.3-13.9c0.4-1.5,85.5-70.4,85.1-77.6S1536.7,295,1536.7,295z"/>
		<path class="st26" d="M1124.3,404.4c0,0,14-16.9,17-18.9c3-2,16.2-5.5,16.9-4.8c0.8,0.7,0.8,1.7-0.8,3.2c-1.6,1.4-7.9,5.1-7,5.5
			c0.9,0.4,19.7-9,22.4-5.8c2.7,3.1-1.5,16.1-8.8,22.4c-7.2,6.2-28.9,8.9-30.2,9.8C1122.2,423,1124.3,404.4,1124.3,404.4z"/>
		<path class="st24" d="M993.5,809.9c0,2.8,1.4,4.8,3.9,6.1c0,0,0,0,0,0c4.5,2.4,12.5,2.7,21.1,2.3c1.1,0,2.1-0.1,3-0.1
			c0.2,0,0.5,0,0.7,0c0.2,0,0.4,0,0.5,0c8.6,0.2,7.7,2.7,23.9,4c18.5,1.5,22.3-6.9,23.4-9.4c0.9-2.1-3.9-1.6-12.8-4.4
			c-0.4-0.1-0.2-1.2-0.7-1.4c-1.2-0.4-2.4-0.7-3.6-1.1c-10.6-3.4-21.6-6.5-24.2-16.8c-2.8-11,5.5-41.7,5.5-41.7l-29.4-3.1
			c0,0-2.8,32.1-4.7,42.1c-1,5.3-3.5,9.6-5,14.2c-0.1,0.3-0.2,0.6-0.3,1C994.2,804.3,993.5,807.1,993.5,809.9z"/>
		<path class="st27" d="M993.3,813.2c0.2,2.8,1.8,4.6,4.4,5.7c0,0,0,0,0,0c5,1.8,12.8,1.4,21.2,0.5c1.1-0.1,2.1-0.2,3-0.3
			c0.2,0,0.5,0,0.7,0c0.2,0,0.4,0,0.5,0c8.5-0.5,7.8,2,24.2,2c18.6,0,24.9-6.1,25.8-8.6c0.7-2.2-7.4-3.9-16.5-5.9
			c-2.4,1.1-13.9,6.1-28.1,4.7c-12.5-1.2-25.2-6.1-34.2-7.4c-0.1,0.3-0.1,0.7-0.2,1C993.5,807.6,993,810.4,993.3,813.2z"/>
		<path class="st24" d="M1184,774.5c1.6,8.2,13.3,6.8,26.2,3.6c13-3.2,9.9,0.6,28.4-1.4c18.5-2,24.1-8.9,24.7-11.7
			c0.5-2.4-8.6-3.3-18.4-4.4c-1.2-0.1-2.5-0.3-3.7-0.4c-11.1-1.4-19.2-8.5-29.2-14.4c-9.5-5.6-23.7-28.2-23.7-28.2l-25.4,2
			c0,0,13.3,20.2,18.5,29c3,5.2,2.9,12,2.5,17.3C1183.6,768.7,1183.5,771.7,1184,774.5z"/>
		<path class="st27" d="M1210.3,778.2c13-3.2,9.9,0.6,28.4-1.4c18.5-2,24.1-8.9,24.7-11.7c0.5-2.4-8.6-3.3-18.4-4.4l-0.1,0.2
			c0,0-11.1,7.9-26.5,8.2c-12.5,0.3-25.8-3.3-34.5-3.1c-0.2,2.9-0.4,5.8,0.2,8.7C1185.7,782.7,1197.3,781.3,1210.3,778.2z"/>
		<path class="st6" d="M1086.9,612.4l-54.6,147.1c0,0-8.4,0.8-16.4-1.5c-7.4-2.1-15.9-7.7-15.9-7.7s13.6-141.2,38.4-170.6
			C1063.2,550.3,1086.9,612.4,1086.9,612.4z"/>
		<path class="st4" d="M870.8,552.9c0,0,157-53.1,192-41.8c35,11.3,140.2,220.5,140.2,220.5s-2.4,3.2-8.8,5.6
			c-6,2.3-20.6,2.1-20.6,2.1s-94.9-81.3-106.2-105c-11.3-23.7-15.8-46.3-27.1-44.1S894.5,645.6,864,613.9
			c-30.5-31.6-22.5-72.7-22.5-72.7L870.8,552.9z"/>
		<path class="st6" d="M966.7,306c2.5-5.2,5.3-14.4,6.7-30.8c-0.2,1.6-3,22.3-11,34c-32.7,21.4-95.2,93-94,106.6
			c0,0-22-37.4-22.4-37.6c0,0-40.7-51.7,7.5-81.3c24.5-15.1,24.4-34.4,23.3-51.2c-1-16.8,6.7-89,55.8-70.1c0,0,7.9-3.5,11.4-3
			c0,0-2.9,0.6-4.3,2.1c5.7-0.3,13.8,0.1,20.6,3.9C978.3,188.8,994.4,280.5,966.7,306z"/>
		<path class="st24" d="M960.5,310.3c0.2,0.1-15.8,8.3-27.7,5.1c-11.3-3.1-18.6-17.7-18.5-17.7c4.8-0.9,6.1-7.5,6-35.7l2.2,0.4
			l36.3,7.2c0,0-0.8,11.4-0.9,22.2C957.9,300.7,958.4,309.3,960.5,310.3z"/>
		<path class="st28" d="M958.7,269.5c0,0-0.8,11.4-0.9,22.2c-20.3-0.6-31-19.1-35.4-29.4L958.7,269.5z"/>
		<path class="st6" d="M918.7,258.4c0,0-10.6-16.8-13.2-31.2c-1.8-10.3,3.4-48.3,41.6-42.8c0,0,11.1,1.1,21.5,8.1
			c8.3,5.6,20.3,17.7,6.9,50.9l-3.5,11.2L918.7,258.4z"/>
		<path class="st24" d="M965.5,279.7c0,0-48,0.8-48.1-29.1s-6.3-50,24.4-51.7c30.7-1.8,36.6,9.6,39.1,19.6
			C983.4,228.4,978,278.7,965.5,279.7z"/>
		<path class="st6" d="M963.7,198.1c0,0-13.2,35.1-33.3,40.3c-20.2,5.2-28.9-0.2-28.9-0.2s9.6-18.1,12.8-39.5
			C914.2,198.7,953.8,181.4,963.7,198.1z"/>
		<path class="st6" d="M960.5,201c0,0,9.8,7.8,12.2,15.5c2.4,7.6,3.5,23.3,8,22.8c0,0,9.9-23.9-1.2-37.4
			C967.7,187.5,960.5,201,960.5,201z"/>
		<path class="st8" d="M853.5,439.5c-4.7-19.9,11.4-58.4,28.2-90.3c15.3-28.9,31.1-52.4,32.5-51.5c40.3,23.9,43.9,4,43.9,4
			s36.6,4.9,46.9,22.7c14.3,24.6,29.9,98.6,45.2,97.5c7-0.5,77.8-27.1,77.8-27.1s11.8,11,9.5,24.6c0,0-35,23.4-64.5,38.3
			c-15.6,7.9-29.8,13.4-36.4,11.9c-13.5-3.2-34.5-34.4-45.9-52.8c0,0,0-0.1-0.1-0.1c-14.5,82.1,5.2,100.8-4.8,109.5
			c-10.5,9.1-25.6-4.4-58.7,10c-21.7,9.4-51.9,23.1-72.2,25.4c-10.6,1.3-18.6-0.6-21.2-7.8C826.4,532.9,862.5,477.4,853.5,439.5z"/>
		<path class="st9" d="M954.8,261.6c0,0,0.9,3.8,10.4,3.2c0,0,7.9-0.5,7.7-4.7C972.9,260.1,965.2,257.1,954.8,261.6z"/>
		<path class="st10" d="M833.9,553.8c2.6,7.2,10.5,9,21.2,7.8c14.1-6.1,74.8-29.6,74.1-45.6c-1-23.6-11.7-24.3-4.1-53.5
			c6-23.4-50-66.9-59-76.3c-16.8,31.9-17.3,33.4-12.6,53.3C862.5,477.4,826.4,532.9,833.9,553.8z"/>
		<path class="st8" d="M990.9,416.8c11.4,18.4,32.4,49.6,45.9,52.8c6.6,1.6,20.8-4,36.4-11.9c-11.4,2.9-22.5,2.9-33.3,1.8
			c-11.7-1.1-15.1-15.4-33.5-36.9C994.4,408.7,991.5,412.2,990.9,416.8z"/>
		<path class="st24" d="M934.6,461.9c0,0,10.2-7.9,19.8-6c9.6,1.9,14.3,8.5,13.9,11.5c-0.4,3-5.5,11.5-12.8,12.2
			c-7.3,0.8-28.2-4.5-28.2-4.5L934.6,461.9z"/>
		<path class="st8" d="M914.2,297.6c0,0-39.1,2.4-52.7,21.3c-19.1,26.6-52.2,135.2-43.2,160.1c0,0,37.2,3.9,63.7,3.9
			c13.9,0,55.4-4.4,55.4-4.4s2.9-13.5-1.1-20c-4-6.5-69.3-17.1-72.3-20.1c-3-3,37.7-58.7,37.7-67.8
			C901.7,361.6,914.2,297.6,914.2,297.6z"/>
		<path class="st20" d="M932.4,489H1465c5.7,0,10.3,4.6,10.3,10.3v13.5c0,5.7-4.6,10.3-10.3,10.3h-257.3v260.9
			c45.3,1.8,83.8,17.3,99.6,38.5h-216.3c15.6-21.2,53.6-36.6,98.9-38.5V523.1H932.4c-5.7,0-10.3-4.6-10.3-10.3v-13.5
			C922.1,493.6,926.8,489,932.4,489z"/>
		<g>
			<path class="st11" d="M1252.9,374.7c0,0-15,25.4-21.7,57.4c0,0-3.5-34.4-14.6-48.5c0,0,7.2,37,3.3,57.9l23.4,3.1
				C1243.4,444.6,1242.3,399.9,1252.9,374.7z"/>
			<g>
				<path class="st29" d="M1195,381.8c0,0,16.9,37.8,21.1,63.3l11.3-2.9C1226.7,437.5,1214.7,396.8,1195,381.8z"/>
				<path class="st29" d="M1228.3,461c0-0.1,0-0.2,0.1-0.2l-0.1,0C1228.3,460.9,1228.3,461,1228.3,461z"/>
				<path class="st29" d="M1276.2,368.3c0,0-33.8,41.7-42.4,80.9c0,0,5.6-53-11.3-73.6c0,0,11.7,37.8,2.5,71.8l21.7,5.7
					C1246.7,453.2,1258.3,396,1276.2,368.3z"/>
			</g>
			<g>
				<polygon class="st8" points="1209.6,432.1 1210.2,446.1 1211.5,475.5 1212.1,489.1 1249.4,489.1 1250.2,475.5 1252.1,446.1 
					1252.9,432.1 				"/>
			</g>
		</g>
	</g>
	<path class="st30" d="M2277.8,824.9H3.4c-1.9,0-3.4-1.4-3.4-3.1l0,0c0-1.7,1.5-3.1,3.4-3.1h2274.4c1.9,0,3.4,1.4,3.4,3.1l0,0
		C2281.2,823.5,2279.7,824.9,2277.8,824.9z"/>
</g>
</svg>
