<?xml version="1.0" encoding="utf-8"?>
<!-- Generator: Adobe Illustrator 23.1.0, SVG Export Plug-In . SVG Version: 6.00 Build 0)  -->
<svg version="1.1" id="Layer_1" xmlns="http://www.w3.org/2000/svg" xmlns:xlink="http://www.w3.org/1999/xlink" x="0px" y="0px"
	 viewBox="0 0 2404 1399.7" style="enable-background:new 0 0 2404 1399.7;" xml:space="preserve">
<style type="text/css">
	.st0{display:none;fill:#FFFFFF;}
	.st1{display:none;fill:#D39E7A;}
	.st2{fill:#285B06;}
	.st3{fill:#183D01;}
	.st4{fill:#EFCBAB;}
	.st5{fill:#FFEBDC;}
	.st6{fill:#EFCDAF;}
	.st7{fill:#B5815E;}
	.st8{fill:#8C5F41;}
	.st9{fill:#D39E7A;}
	.st10{opacity:0.74;fill:#396669;}
	.st11{fill:#E0AF8D;}
	.st12{fill:#C45446;}
	.st13{fill:#191A1B;}
	.st14{fill:#FFB27D;}
	.st15{fill:#E8945B;}
	.st16{fill:#2C3A64;}
	.st17{fill:#1F2021;}
	.st18{fill:#434649;}
	.st19{fill:#AA413E;}
	.st20{fill:#D6851B;}
	.st21{fill:#F99746;}
	.st22{fill:#ED7D2B;}
	.st23{fill:#FFFFFF;}
	.st24{fill:#C65447;}
	.st25{fill:#DCE3F1;}
	.st26{fill:#E57970;}
	.st27{fill:#B27D59;}
	.st28{fill:#2E3552;}
	.st29{fill:#543419;}
	.st30{fill:#E37970;}
</style>
<rect x="-297" y="-301.1" class="st0" width="3000" height="2000"/>
<g>
	<path class="st1" d="M-4.1,1179.3c-26.8,114.8,61.8,224.3,179.7,224.1l419.6-0.6l39-0.1l1266.9-4.1l417.9-1.4
		c0,0,158-278,63.8-557.9c-27.7-82.5-73.8-154.4-134.2-216.3c-179.3-183.8-344.7-208.8-480.3-196.3c-108.3,10-197.6,43.8-260,39.7
		c-140.7-9.2-74.4-287.6-602-386C823,64.9,730.1,52.9,637,52.8c-260.2-0.3-519.6,77.6-553.8,292.6c-4.9,31-5.2,64.9,0,101.8
		c3.6,26.1,9.9,53.7,19.1,82.8c17.1,54.1,90.1,158.2,128.8,223.6c123.5,208.7-23.5,259.5-169.5,342.3c-6,3.4-12,6.9-17.9,10.5
		C17.7,1122,3.1,1148.4-4.1,1179.3z"/>
	<g>
		<g>
			<path class="st2" d="M742.3,1070c0,0-52.6-61.4-3.2-100.4c0,0,36.1-21.8,65.5-20.1c0,0-32.4,49.3-18.9,56.2
				c13.5,7,31.5-60.6,31.5-60.6s82.1-8,108.5,4.7c0,0-70.2,57.4-55.4,60.9c14.8,3.4,90.6-53,90.6-53s76.4,13,72.4,59.6
				c-4.1,46.6-30.4,61-42,59.8c-11.6-1.2-79.3-27.1-80.8-17.6c-1.5,9.5,39.3,40.5,67.8,41.9c0,0-53.9,59.4-89.7,42.3
				c-35.8-17.2-38.9-44.3-61.2-54.5c-22.3-10.2-41.4-10.2-32.2,0.2s49.6,20.5,62.4,43.1c12.8,22.6,24.2,37.8-12.8,32.2
				c-37.1-5.6-97.3-32.7-99.9-63.7C742.3,1070,742.3,1070,742.3,1070z"/>
			<g>
				<path class="st2" d="M995.7,1018.6c0,0-207.6-8-253.4,51.4c0,0-10.1,30.4-41.3,58l-4.9,13.3c0,0,36-37.9,48.8-40.2
					C744.9,1101,724.8,1027.5,995.7,1018.6z"/>
				<path class="st2" d="M701,1128c0,0-44.6,33-47.7,91.8l8.1,0.7c0,0,14.2-60.9,40-84.7C727.1,1112.1,701,1128,701,1128z"/>
			</g>
		</g>
		<g>
			<path class="st2" d="M536.4,1013.8c0,0,74.7-60.3,25.5-116.5c0,0-37.4-33.3-72.1-37.6c0,0,33.5,90.6,16.3,95.8
				c-17.2,5.2-30.1-103.6-30.1-103.6s-94.1-27-127.6-17.9c0,0,69.5,82.2,51.5,83c-18,0.8-94.3-81.4-94.3-81.4s-92-1.3-97.3,53.9
				c-5.3,55.3,22.3,77.8,36.1,78.8c13.8,1.1,98.3-14.5,98-3.1c-0.3,11.4-54.6,38.7-88.2,34.3c0,0,50,81,95.5,68.7
				c45.5-12.3,54.9-43.3,83.2-50.4c28.2-7.1,50.5-2.9,37.5,7.2c-13,10.1-62.3,13.2-82.1,36.8c-19.8,23.6-36.4,38.9,8,40.4
				c44.4,1.5,120.6-17.1,130.3-52.8C536.4,1013.8,536.4,1013.8,536.4,1013.8z"/>
			<g>
				<path class="st2" d="M251.8,899.1c0,0,243.9,35.5,284.6,114.7c0,0,5.3,37.6,35.7,76.6l2.8,16.5c0,0-33.8-52-48.3-57.5
					C526.6,1049.5,565.9,968,251.8,899.1z"/>
				<path class="st2" d="M572,1090.5c0,0,44.9,48.1,35.7,117.4l-9.6-0.9c0,0-3.4-74.1-28.3-107.4C545,1066.2,572,1090.5,572,1090.5z
					"/>
			</g>
		</g>
		<g>
			<path class="st3" d="M691.5,928.1c0,0-110.4-61.8-58.9-145.7c0,0,41.2-51.5,85.4-64.8c0,0-23.6,125.1,0,128.1
				c23.6,2.9,16.2-141.3,16.2-141.3s116.3-55.9,161.9-51.5c0,0-72.1,122.2-48.6,119.2C871,769.1,952,645.4,952,645.4
				s119.2-22.1,138.4,48.6c19.1,70.7-11.8,106-29.4,110.4c-17.7,4.4-131,2.9-128.1,17.7c2.9,14.7,79.5,38.3,122.2,25
				c0,0-47.1,116.3-108.9,110.4c-61.8-5.9-81-44.2-119.2-47.1c-38.3-2.9-66.2,7.4-47.1,17.7c19.1,10.3,83.9,3.4,114.8,29.7
				c30.9,26.3,55.9,42.5-1.5,54.2c-57.4,11.8-160.4,4.4-181.1-39.7C691.5,928.1,691.5,928.1,691.5,928.1z"/>
			<g>
				<path class="st3" d="M1035.9,716.1c0,0-309.1,100.1-344.4,212c0,0,1.5,50-29.4,107.5v22.1c0,0,32.4-75.1,50-85.4
					C712.1,972.2,642.9,875.1,1035.9,716.1z"/>
				<path class="st3" d="M662,1035.5c0,0-47.7,72.4-20.5,160.5l12.3-3.3c0,0-11.9-97.1,13-145.9C691.8,998,662,1035.5,662,1035.5z"
					/>
			</g>
		</g>
		<path class="st4" d="M687.7,1387.1c119.4,0,216.3-96.8,216.3-216.3H471.5C471.5,1290.3,568.3,1387.1,687.7,1387.1z"/>
		<path class="st5" d="M741,1385.5c-8.8,1.1-17.8,1.7-26.9,1.7c-119.4,0-216.2-96.8-216.2-216.3h53.7
			C551.6,1281.2,634.2,1372.2,741,1385.5z"/>
		<path class="st4" d="M907,1398.1H468.5l0,0c0-14.7,11.9-26.7,26.7-26.7h385.1C895,1371.4,907,1383.4,907,1398.1L907,1398.1z"/>
		<rect x="464.4" y="1170.9" class="st6" width="444.5" height="6.6"/>
	</g>
	<g>
		<path class="st3" d="M1855.6,572.2c0,0-103.9-26.7-79.9-106.7c0,0,22.6-51.2,55.9-71.6c0,0,7.8,107.7,27.8,105
			c19.9-2.7-17.4-119.3-17.4-119.3s83.2-71.1,121.5-77.4c0,0-73.5,119.5-30.9,123c20.1,1.6,75.1-141.2,75.1-141.2s92.9-44,123.9,9.8
			c31,53.8,13.3,89.4-0.2,96.9c-13.5,7.5-106.7,30.8-101.1,42.3c5.6,11.4,73.5,14.1,105.6-6c0,0-13.4,105.5-65.3,114.1
			c-51.9,8.6-75.9-18.6-107.9-12.7c-32,5.9-52.7,20.4-34.8,24.7c17.9,4.3,69.5-15.4,100.5-0.6c31,14.8,55.1,22.7,10.6,44.8
			c-44.5,22.1-130.5,38.4-157,6.7C1855.6,572.2,1855.6,572.2,1855.6,572.2z"/>
		<g>
			<path class="st3" d="M1784.2,666.6c0,0-23.4,69.7,18,136l9.3-5.4c0,0-30.8-77-21-122.4C1800.4,629.4,1784.2,666.6,1784.2,666.6z"
				/>
		</g>
	</g>
	<g>
		<path class="st2" d="M1764.1,882.9c0,0-123.5-64.4-69.6-158.5c0,0,43.7-58.1,91.9-74.1c0,0-21.8,138.5,4.2,141
			c26,2.5,13.2-156.1,13.2-156.1s85.4-64.6,176.5-62c0,0-75.4,136.8-49.6,132.8c25.8-4,104.8-133,104.8-133s136.6-38,160,39.1
			c23.4,77.1-9.5,117-28.8,122.5c-19.3,5.4-144.1,7.5-140.4,23.6c3.7,16.1,88.7,39.5,135.3,23.5c0,0-48,129.5-116.3,125.1
			s-90.6-46-132.8-47.9c-42.2-2-72.7,10.3-51.3,21c21.4,10.7,92.5,1,127.4,28.9c34.9,27.9,63,44.9,0.2,59.8
			c-62.8,14.8-176.5,10.1-200.6-37.8S1764.1,882.9,1764.1,882.9z"/>
		<g>
			<path class="st2" d="M2136.3,638.3c0,0-337,120.3-372.2,244.6c0,0,3.3,55-28.9,119.2l0.7,24.3c0,0,33.2-83.7,52.3-95.6
				C1788.2,930.8,1708.8,826.2,2136.3,638.3z"/>
			<path class="st2" d="M1664.6,1002.2c0,0-50.1,81.2-17.3,177.4l13.4-4c0,0-16.3-106.4,9.6-161
				C1696.1,959.9,1664.6,1002.2,1664.6,1002.2z"/>
		</g>
	</g>
	<g>
		<path class="st7" d="M1734.4,1246.1h-732.1c-22.3,0-40.5-18.2-40.5-40.5V714.1c0-22.3,18.2-40.5,40.5-40.5h732.1
			c22.3,0,40.5,18.2,40.5,40.5v491.5C1774.8,1227.9,1756.6,1246.1,1734.4,1246.1z"/>
		<path class="st7" d="M1854.7,760.6H882c-29.6,0-53.8-24.2-53.8-53.8v-653C828.2,24.2,852.4,0,882,0h972.7
			c29.6,0,53.8,24.2,53.8,53.8v653C1908.4,736.4,1884.2,760.6,1854.7,760.6z"/>
		<path class="st7" d="M1882.7,1394.7H854c-14.2,0-25.8-11.6-25.8-25.8v-122.9c0-14.2,11.6-25.8,25.8-25.8h1028.7
			c14.2,0,25.7,11.6,25.7,25.8V1369C1908.4,1383.1,1896.8,1394.7,1882.7,1394.7z"/>
		<path class="st8" d="M1610.9,1246.6H878.8c-22.3,0-40.5-18.2-40.5-40.5V714.6c0-22.3,18.2-40.5,40.5-40.5h732.1
			c22.3,0,40.5,18.2,40.5,40.5v491.5C1651.4,1228.4,1633.2,1246.6,1610.9,1246.6z"/>
		<path class="st9" d="M1731.2,761.1H758.5c-29.6,0-53.8-24.2-53.8-53.8v-653c0-29.6,24.2-53.8,53.8-53.8h972.7
			c29.6,0,53.8,24.2,53.8,53.8v653C1785,736.9,1760.8,761.1,1731.2,761.1z"/>
		<path class="st9" d="M1733.6,1395.2H756.1c-13.8,0-25.1-11.3-25.1-25.1v-124.2c0-13.8,11.3-25.1,25.1-25.1h977.5
			c13.8,0,25.1,11.3,25.1,25.1v124.2C1758.7,1383.9,1747.4,1395.2,1733.6,1395.2z"/>
		<g>
			<path class="st4" d="M1506.7,982.2c-18.3-11.3-53.8-6.9-79.6-1.5v-37.3c0-8.3-0.6-16.4-1.6-24.3h-386.2c-1,8-1.6,16.1-1.6,24.3
				v75.8c0,107.1,87.6,194.7,194.7,194.7c58,0,110.2-25.7,146-66.3l0,0c0,0,91.9-22.6,120.7-56.9
				C1528,1056.6,1537.3,1001.2,1506.7,982.2z M1486.3,1052.3c-9.7,25.2-53.6,38.8-75.2,44c8.6-19.9,14-41.5,15.5-64.1
				c13.3-18.3,34.4-28.9,49.8-26.1C1490.3,1008.6,1498.6,1020.4,1486.3,1052.3z"/>
			<path class="st5" d="M1069.3,943.5v75.8c0,107.1,87.6,194.7,194.7,194.7c8.9,0,17.6-0.6,26.2-1.9
				c-94.8-12.8-168.5-94.6-168.5-192.8v-75.8c0-8.2,0.6-16.4,1.6-24.4h-52.3C1069.9,927.1,1069.3,935.3,1069.3,943.5z"/>
			<rect x="1152.8" y="1197" class="st4" width="158.9" height="23.8"/>
		</g>
		<path class="st4" d="M1017.3,151.4v423.5c0,24.6-20.1,44.7-44.7,44.7H840.4c-24.6,0-44.7-20.1-44.7-44.7V151.4
			c0-24.6,20.1-44.7,44.7-44.7h132.2C997.2,106.7,1017.3,126.8,1017.3,151.4z"/>
		<g>
			<path class="st4" d="M1371.1,111c0-19.5,15.8-35.3,35.3-35.3c19.5,0,35.3,15.8,35.3,35.3c0,19.5-15.8,35.3-35.3,35.3
				C1386.9,146.4,1371.1,130.6,1371.1,111z"/>
			<path class="st4" d="M1487.9,111c0-19.5,15.8-35.3,35.3-35.3c19.5,0,35.3,15.8,35.3,35.3c0,19.5-15.8,35.3-35.3,35.3
				C1503.7,146.4,1487.9,130.6,1487.9,111z"/>
			<path class="st4" d="M1599.9,111c0-19.5,15.8-35.3,35.3-35.3c19.5,0,35.3,15.8,35.3,35.3c0,19.5-15.8,35.3-35.3,35.3
				C1615.7,146.4,1599.9,130.6,1599.9,111z"/>
			<path class="st4" d="M1371.1,219.3c0-19.5,15.8-35.3,35.3-35.3c19.5,0,35.3,15.8,35.3,35.3c0,19.5-15.8,35.3-35.3,35.3
				C1386.9,254.6,1371.1,238.8,1371.1,219.3z"/>
			<path class="st4" d="M1487.9,219.3c0-19.5,15.8-35.3,35.3-35.3c19.5,0,35.3,15.8,35.3,35.3c0,19.5-15.8,35.3-35.3,35.3
				C1503.7,254.6,1487.9,238.8,1487.9,219.3z"/>
			<path class="st4" d="M1599.9,219.3c0-19.5,15.8-35.3,35.3-35.3c19.5,0,35.3,15.8,35.3,35.3c0,19.5-15.8,35.3-35.3,35.3
				C1615.7,254.6,1599.9,238.8,1599.9,219.3z"/>
			<path class="st4" d="M1655.4,345.5h-269.1c-8.3,0-15.2-6.8-15.2-15.2l0,0c0-8.3,6.8-15.2,15.2-15.2h269.1
				c8.4,0,15.2,6.8,15.2,15.2l0,0C1670.5,338.7,1663.7,345.5,1655.4,345.5z"/>
		</g>
		<g>
			<path class="st4" d="M1371.1,456.8c0-19.5,15.8-35.3,35.3-35.3c19.5,0,35.3,15.8,35.3,35.3c0,19.5-15.8,35.3-35.3,35.3
				C1386.9,492.1,1371.1,476.3,1371.1,456.8z"/>
			<path class="st4" d="M1487.9,456.8c0-19.5,15.8-35.3,35.3-35.3c19.5,0,35.3,15.8,35.3,35.3c0,19.5-15.8,35.3-35.3,35.3
				C1503.7,492.1,1487.9,476.3,1487.9,456.8z"/>
			<path class="st4" d="M1599.9,456.8c0-19.5,15.8-35.3,35.3-35.3c19.5,0,35.3,15.8,35.3,35.3c0,19.5-15.8,35.3-35.3,35.3
				C1615.7,492.1,1599.9,476.3,1599.9,456.8z"/>
			<path class="st4" d="M1371.1,565c0-19.5,15.8-35.3,35.3-35.3c19.5,0,35.3,15.8,35.3,35.3c0,19.5-15.8,35.3-35.3,35.3
				C1386.9,600.3,1371.1,584.5,1371.1,565z"/>
			<path class="st4" d="M1487.9,565c0-19.5,15.8-35.3,35.3-35.3c19.5,0,35.3,15.8,35.3,35.3c0,19.5-15.8,35.3-35.3,35.3
				C1503.7,600.3,1487.9,584.5,1487.9,565z"/>
			<path class="st4" d="M1599.9,565c0-19.5,15.8-35.3,35.3-35.3c19.5,0,35.3,15.8,35.3,35.3c0,19.5-15.8,35.3-35.3,35.3
				C1615.7,600.3,1599.9,584.5,1599.9,565z"/>
			<path class="st4" d="M1655.4,691.2h-269.1c-8.3,0-15.2-6.8-15.2-15.2l0,0c0-8.3,6.8-15.2,15.2-15.2h269.1
				c8.4,0,15.2,6.8,15.2,15.2l0,0C1670.5,684.4,1663.7,691.2,1655.4,691.2z"/>
		</g>
		<path class="st10" d="M1017.3,499.7v75.2c0,24.6-20.1,44.7-44.7,44.7H840.4c-24.6,0-44.7-20.1-44.7-44.7v-75.2H1017.3z"/>
		<path class="st11" d="M950.8,146.4h-88.5c-3.4,0-6.2-2.8-6.2-6.2l0,0c0-3.4,2.8-6.2,6.2-6.2h88.5c3.4,0,6.2,2.8,6.2,6.2l0,0
			C957,143.6,954.2,146.4,950.8,146.4z"/>
		<path class="st11" d="M981.5,202.5h-150c-3.4,0-6.2-2.8-6.2-6.2l0,0c0-3.4,2.8-6.2,6.2-6.2h150c3.4,0,6.2,2.8,6.2,6.2l0,0
			C987.7,199.7,984.9,202.5,981.5,202.5z"/>
		<path class="st11" d="M981.5,228.8h-150c-3.4,0-6.2-2.8-6.2-6.2l0,0c0-3.4,2.8-6.2,6.2-6.2h150c3.4,0,6.2,2.8,6.2,6.2l0,0
			C987.7,226,984.9,228.8,981.5,228.8z"/>
		<path class="st8" d="M1194.2,698.4L1194.2,698.4c-5.4,0-9.8-4.4-9.8-9.8V58.9c0-5.4,4.4-9.8,9.8-9.8l0,0c5.4,0,9.8,4.4,9.8,9.8
			v629.7C1204,694,1199.6,698.4,1194.2,698.4z"/>
		<path class="st7" d="M1253.6,858.2h-35.1c-26.7,0-48.6-21.8-48.6-48.5v-48.6h126.4v54.3C1296.4,838.9,1277.2,858.2,1253.6,858.2z"
			/>
		<path class="st7" d="M1231.9,892.6L1231.9,892.6c-7.1,0-12.9-5.8-12.9-12.9v-26.8c0-7.1,5.8-12.9,12.9-12.9l0,0
			c7.1,0,12.9,5.8,12.9,12.9v26.8C1244.8,886.8,1239,892.6,1231.9,892.6z"/>
	</g>
	<g>
		<path class="st12" d="M377.5,562.4c0,0,14.2,0,48.8,15.9c10.1,4.6,27.6,21.6,38.3,24.2c2,0.5,4.1,1,6.1,1.4
			c11.7,2.6,22.9,4.4,32.6,4.9c0,0,41.1-15.8,80.6-59.7c2.8-3.1,5.6-6.3,8.3-9.7c1.5-1.8,1-15.3-0.4-31.9c-2.5-30.9-7.7-73-7.7-73
			s-28.6,19.5-94.8,119.2c-2.1,3.2-7.5,2.8-20.5,0.3c-16.5-3.2-26.2,3.2-77-4.2c0,0-6.7-1-7.1,4.5
			C383.6,566.5,377.5,562.4,377.5,562.4z"/>
		<path class="st13" d="M634.9,258.3c0,0,77-55.8,96.7-2.5c0,0,20.8,15.6,19.1,57.4c-1.7,42.6-36.4,66.5-48.4,55.4
			c-7.7-7.1-18.4,6.7-18.4,6.7L634.9,258.3z"/>
		<path class="st13" d="M699.8,241.3c0,0,41.6-27.7,89.7,9.6c48.2,37.3-2.8,115.6,12.1,146.5c0,0-25.1-23.3-16.2-45.9
			c0,0-14.1,37.4,1.2,59.6c25.3,36.7-42,84.4-66.8,69.2c-20.3-12.4-2-19.8-30.4-69.2C671.7,380.4,764.1,321.8,699.8,241.3z"/>
		<path class="st14" d="M766.8,743.9c-23.9-53.6-35.3-68.8-35.7-85.6c-0.3-13.3,6.3-27.7,19-63c3-8.3,5.1-16.9,6.4-25.5
			c10.1-68-29.2-141.5-53.7-146.6c-6.8-1.8-18.3-26.4-18.2-65.9l-3.1,0.6L630,368.1c0,0,1.2,16.2,1.2,31.5c0,12.7-0.7,24.8-3.6,26.3
			c-3.7,0.3-5.9,0.6-5.9,0.6s-42.9,59.6-46.5,115c-3.6,55.4,34.4,79.5-0.3,190.3C539.5,844.9,780,773.5,766.8,743.9z"/>
		<path class="st15" d="M630,368.1c0,0,1.2,16.2,1.2,31.5c28.8-0.8,44-27.1,50.3-41.7L630,368.1z"/>
		<path class="st16" d="M686.8,352.3c0,0,15.1-23.9,18.7-44.2c2.6-14.6-4.8-68.5-59.1-60.8c0,0-15.8,1.6-30.6,11.6
			c-11.8,8-28.8,25.1-9.8,72.2l4.9,15.9L686.8,352.3z"/>
		<path class="st17" d="M706.4,1258.2c-17.1,68.2-43,120.5-43,120.5l-22.5-1.6c0,0,11-52.4,10.4-123.3
			c-0.4-49.5-6.6-108.1-26.1-163.9c-67.2-192.1-56.4-331.8-56.4-331.8l126.5,14.8l5.9,0.7c0.5,58.1,2,136.9,3.3,198.6
			c1.2,55.5,2.2,97,2.2,97C731,1121.5,722.2,1195.4,706.4,1258.2z"/>
		<path class="st18" d="M779,1247.3c-7.3,77.6-39.3,127.8-39.3,127.8l-10.7,7.8c0,0-10.2-54.7-17.4-119.7
			c-6.9-61.8-16.2-127.2-26.9-147.2c-42.2-79.2-54.9-378.1-54.9-378.1l128.2-6.4c12.9,21.7,18.5,57.2,19.9,97.7
			c3.4,102-20.6,235.1-24.2,254.3c0,0,0,0,0,0c-0.3,1.5,0.2,3,0.8,4.3C780.1,1138.3,783.8,1196,779,1247.3z"/>
		<path class="st12" d="M566.8,556c-1.3,55.3,4.6,134.6,12.6,192.5c1.3,9.3,2.6,39.3,9.3,44.9c31.2,25.9,82.8,16.7,100.8,12.7
			c15-3.3,26.7-19.2,35-47.6c2.8,19.8,8.9,43,22.8,44.4c2.9,0.3,5.7,0.5,8.2,0.6c16.8,0.6,22.9,10.9,25.3,3.4
			c0.8-2.5-7.7-29.5-7.9-33.8c-1.1-22.5-2.7-66.5-4.2-115.3c-0.5-15.2-0.9-30.9-1.4-46.5c-0.9-29.8-1.6-62-2.2-90.5
			c-0.5-24.9-0.9-47.1-1.1-62.5c-0.3-15.4-11.2-28.6-26.4-31.4c-4.8-0.9-9.6-1.6-14-2.1c-3.6-0.4-6.9-0.7-9.8-1
			c-6.6-0.5-11-0.7-11-0.7s0.2,8.1,0,17.8c-0.3,12.8-1.4,28.4-4.9,31.6c-0.4,0.4-1.3,0.8-2.6,1.3c0,0-0.1,0-0.1,0
			c-16.2,5.6-92.6,12.8-94.5,3.3c-0.2-0.9-0.1-1.9,0.1-3.2c0,0,0-0.1,0-0.1c1-5.9,5.8-15.5,11-24.6c0,0,0,0,0-0.1
			c6.2-11.1,13-21.4,13.9-23.1c0.1-0.1-1.5,0.1-2.7,0.2h0c-0.7,0.1-1.3,0.1-1.3,0.1c-3.6,0.5-6.8,0.9-9.7,1.3h0
			c-5.3,0.7-9.5,1.4-12.8,1.9c-10.1,1.7-12.6,2.9-15.1,4.9c-8.9,8.9-20.5,31-21.4,70.4C562.4,519.4,563.5,536.4,566.8,556z"/>
		<path class="st14" d="M779,1247.3c-7.3,77.6-39.3,127.8-39.3,127.8l-10.9,10c0,0-10-56.8-17.2-121.9
			C719.2,1263.7,752.6,1264.9,779,1247.3z"/>
		<path class="st19" d="M759.9,654.7c3.2,1.8,6.1,2.9,8.8,3.3c-0.5-15.2-0.9-30.9-1.4-46.5c-0.9-29.8-1.6-62-2.2-90.5
			c-16.4-16.3-36.2-19.4-36.2-19.4C699.2,512.3,723,633.8,759.9,654.7z"/>
		<path class="st14" d="M706.4,1258.2c-17.1,68.2-43,120.5-43,120.5l-22.5-1.6c0,0,11-52.4,10.4-123.3
			C659,1257.7,674.8,1261.6,706.4,1258.2z"/>
		<g>
			<path class="st20" d="M676.4,1397.5h-14.3c-4.8-0.8-8.4-2.1-13.3-2.8c-7.5-1-10.9,2.1-11.6,2.8c-0.1,0.1-0.1,0.1-0.1,0.1h-61
				c-1.5-2.2-0.1-7.3,1.4-11c1-2.5,3.1-4.5,5.7-5.2c6.5-1.9,19.2-3.5,30.9-14.1c6.6-5.9,31.7-21.8,31.7-21.8l0.1,0
				c0.6,0,3.2,0.8,14.6,10.5c5.9,5,16-7,16-7s1.9,1.6,3.3,4.5c1.1,2.3,2,5.5,1.3,9.4c-0.9,5.5,2,15.7,4.4,22.6
				c1.4,4.2,2.6,7.1,2.6,7.1S688.8,1396,676.4,1397.5z"/>
			<path class="st20" d="M679.8,1353.4c-3.4,2.4-10.7,7.2-15.5,7.8c-6.5,0.8-18.6-15.7-18.6-15.7l0.1,0c0.6,0,3.2,0.8,14.6,10.5
				c5.9,5,16-7,16-7S678.4,1350.5,679.8,1353.4z"/>
			<path class="st20" d="M676.4,1397.5h-14.3c-4.8-0.8-8.4-2.1-13.3-2.8c-7.5-1-10.9,2.1-11.6,2.8c-0.1,0.1-0.1,0.1-0.1,0.1h-61
				c-1.5-2.2-0.1-7.3,1.4-11c1.9-1.6,2.4,7.1,3.4,8.5c1,1.4,49.7,0.5,52.5-1.5c2.8-2,11.3-5.6,23-2.8c10.2,2.4,25.3-3.8,29.1-5.5
				c1.4,4.2,2.6,7.1,2.6,7.1S688.8,1396,676.4,1397.5z"/>
		</g>
		<g>
			<path class="st20" d="M753,1397.5h-14.3c-4.8-0.8-8.4-2.1-13.3-2.8c-7.5-1-10.9,2.1-11.6,2.8c-0.1,0.1-0.1,0.1-0.1,0.1h-60.9
				c-1.5-2.2-0.1-7.3,1.4-11c1-2.5,3.1-4.5,5.7-5.2c6.5-1.9,19.2-3.5,30.9-14.1c6.6-5.9,31.7-21.8,31.7-21.8l0.1,0
				c0.6,0,3.2,0.8,14.6,10.5c5.9,5,16-7,16-7s1.9,1.6,3.3,4.5c1.1,2.3,2,5.5,1.3,9.4c-0.9,5.5,2,15.7,4.4,22.6
				c1.4,4.2,2.6,7.1,2.6,7.1S765.3,1396,753,1397.5z"/>
			<path class="st20" d="M756.3,1353.4c-3.4,2.4-10.7,7.2-15.5,7.8c-6.5,0.8-18.6-15.7-18.6-15.7l0.1,0c0.6,0,3.2,0.8,14.6,10.5
				c5.9,5,16-7,16-7S754.9,1350.5,756.3,1353.4z"/>
			<path class="st20" d="M753,1397.5h-14.3c-4.8-0.8-8.4-2.1-13.3-2.8c-7.5-1-10.9,2.1-11.6,2.8c-0.1,0.1-0.1,0.1-0.1,0.1h-60.9
				c-1.5-2.2-0.1-7.3,1.4-11c1.9-1.6,2.4,7.1,3.4,8.5c1,1.4,49.7,0.5,52.5-1.5c2.8-2,11.3-5.6,23-2.8c10.2,2.4,25.3-3.8,29.1-5.5
				c1.4,4.2,2.6,7.1,2.6,7.1S765.3,1396,753,1397.5z"/>
		</g>
		<path class="st19" d="M464.6,602.5c2,0.5,4.1,1,6.1,1.4c11.7,2.6,22.9,4.4,32.6,4.9c0,0,41.1-15.8,80.6-59.7
			c2.8-3.1,5.6-6.3,8.3-9.7c1.5-1.8,1-15.3-0.4-31.9c-22.4,20.6-83.3,77.1-93.9,90.6c0,0-10.3,6.7-24.6-2.9
			C466.1,590.5,464.5,595.8,464.6,602.5z"/>
		<path class="st14" d="M617.6,374.6c0,0,65.8,17.9,76.3-23.2c10.5-41.1,26.1-66.5-15.4-79.7c-41.5-13.2-53.8,0.4-60.6,13.3
			C611,297.9,600.8,368.9,617.6,374.6z"/>
		<g>
			<path class="st21" d="M688,473.8h14c0,0,0,0,0-0.1c0.6-1.8,12.1-36.7,21.5-48.9c-3.6-0.4-6.9-0.7-9.8-1c-2.1,3-6.4,9.1-11,17.1
				C697.4,450.2,691.6,461.9,688,473.8z"/>
			<path class="st21" d="M588.7,473.8h14c0,0,3.9-12,9.1-24.6c0,0,0,0,0-0.1c3.4-8.4,7.4-17.2,11.2-22.9c-0.7,0.1-1.3,0.1-1.3,0.1
				c-3.6,0.5-6.8,0.9-9.7,1.3h0c-6.2,8.9-17.2,25.6-23,44.8C588.9,472.9,588.8,473.4,588.7,473.8z"/>
			<path class="st21" d="M562.1,1031.6c0,8.5,6.9,15.4,15.4,15.4H740c8.5,0,15.4-6.9,15.4-15.4l8.2-161.5l9.2-181.4
				c-0.2-1.8-3.6-55.5-4.7-56.9c-15.4-19.4-37.8-73.1-48.4-112.2c-3.7-13.7-5.9-25.6-6-33.7c0-6.7-5.3-12.1-11.8-12.2h-0.2l-8.9,0.1
				l-4.4,0c-0.3,0-0.7,0-1,0.1c-37.1,4.6-68.8,2.3-87.6-0.1c-3.3-0.4-6.2-0.9-8.7-1.3c-0.7-0.1-1.4-0.1-2.1-0.1
				c-4.5,0.3-8.2,3.9-8.6,8.7l-4.8,56.5l-6.6,77.4C566.8,631,562.1,1031.6,562.1,1031.6z"/>
		</g>
		<path class="st13" d="M648.7,263.1c0,0,5.8,52.9,31.7,67.1c25.9,14.2,39.9,9.8,39.9,9.8s-8.3-36.2-5.2-66.9
			C715,273.1,668.2,243.6,648.7,263.1z"/>
		<path class="st22" d="M657.1,586.5c0,0,25.9,227.6,106.6,283.7l9.2-181.4c-0.2-1.8-3.6-55.5-4.7-56.9
			c-15.4-19.4-37.8-73.1-48.4-112.2c-1.1,0.4-2,1.1-2.9,2C679.9,559.3,657.1,586.5,657.1,586.5z"/>
		<path class="st13" d="M652.2,268.1c0,0-16.3,7.3-22.2,17c-6,9.6-12.9,30.8-19,28.5c0,0-5.3-36.3,14.8-50.9
			C646.9,247.1,652.2,268.1,652.2,268.1z"/>
		<path class="st13" d="M649.2,269.1c0,0,0,53.8,30.9,78.9c0,0-27.1-40-21.6-74.1C664.1,239.8,649.2,269.1,649.2,269.1z"/>
		<path class="st23" d="M614.5,349.3c0,0-0.6,4.5,10,7.9c0,0,8.9,2.8,10.4-1.9C634.9,355.3,627.7,348.8,614.5,349.3z"/>
		<path class="st12" d="M499.1,572.7c0,0,54.1,27.2,101,38.4c13.5,3.2,26.5,5.5,37.6,6c0,0,50.4-15.5,88.9-69.4
			c74.3-104.1,16.9-115.3,16.9-115.3s-49.6,31-119.8,129.6c-2.5,3.5-8.6,2.7-24.6-0.6c-17-3.4-50.9-3-97.8-9.9c0,0-0.8,1.7-1.3,7.3
			C499,571,499.1,572.7,499.1,572.7z"/>
		<path class="st15" d="M377.5,562.4c0,0,20.2,3.2,54.5,24.4c11.2,7,26.2,14.3,38.8,17.1c5-22.4,1.6-39.9-1.9-50
			c-16.5-3.2-39.3,1.5-90.1-6L377.5,562.4z"/>
		<g>
			<g>
				<polygon class="st24" points="469.5,487.5 468.9,501.6 467.6,530.9 467.1,544.4 429.8,544.4 429,530.9 427.2,501.6 426.3,487.5 
									"/>
				<polygon class="st25" points="470.2,478.1 426.2,478.1 424.4,487.5 471.5,487.5 				"/>
				<polygon class="st26" points="468.9,501.6 467.6,530.9 429,530.9 427.2,501.6 				"/>
			</g>
			<g>
				<polygon class="st24" points="402,487.5 401.4,501.6 400.1,530.9 399.6,544.4 362.3,544.4 361.5,530.9 359.7,501.6 358.8,487.5 
									"/>
				<polygon class="st25" points="402.7,478.1 358.7,478.1 356.8,487.5 404,487.5 				"/>
				<polygon class="st26" points="401.4,501.6 400.1,530.9 361.5,530.9 359.7,501.6 				"/>
			</g>
			<rect x="320" y="544.4" class="st27" width="186.6" height="9.8"/>
		</g>
		<path class="st14" d="M497.8,574.1c0,0,55.3,25.7,102.2,37c-10.3-20.4-6.3-38.1-0.9-49.6c-17-3.4-51.2-4.9-98-11.8
			c0,0-0.6,3.6-1,9.2C499,571,497.8,574.1,497.8,574.1z"/>
		<path class="st14" d="M507.1,551.1c0,0-13.7-2.7-25.1-8.4c-11.4-5.7-41.9-9.5-48.4-3.4c-6.5,6.1,6.9,30.8,34.7,31.6
			c27.8,0.8,35.8,5.3,35.8,5.3L507.1,551.1z"/>
		<path class="st22" d="M775.5,628.8c4,0.1,28.4,13.9,29.5,19.1c1.1,5.2-37,21.5-37,21.5S771.5,628.7,775.5,628.8z M796.9,648.7
			c0.7-2.2-15.6-7.1-18.6-7.1c-3,0-8.9,26.3-8.9,26.3S796.2,650.8,796.9,648.7z"/>
		<path class="st22" d="M793.7,667.8c0.5,2.3-4,18.5-6.9,19.9c-2.9,1.4-17.8-18.5-17.8-18.5S793.1,665.5,793.7,667.8z M785.1,683.1
			c1.4,0.1,1.9-10.1,1.5-11.8c-0.4-1.7-16.5-1.4-16.5-1.4S783.8,683,785.1,683.1z"/>
		<path class="st22" d="M767.3,683.1c0,0,34.4,29.3,39.5,68c5.1,38.7,14.1,44.4,14.1,44.4s-4.4,3.1-7.5,1.5
			c-3.2-1.6-13.2-29-13.5-41.7c-0.3-12.8-15.8-50.1-32.5-60.3C750.7,684.8,767.3,683.1,767.3,683.1z"/>
		<path class="st14" d="M495.1,547.9c0,0-5.3-5.3-6.4-8.5c-1.1-3.2-17.8-7.7-19.1-6.5c-2.6,2.3,8,10.1,8,10.1L495.1,547.9z"/>
		<path class="st15" d="M377.5,562.4c0,0-16,6.1-25,4.1c-8.9-1.9-21.2-12.3-21.2-12.3h46.9L377.5,562.4z"/>
	</g>
	<path class="st28" d="M2399,1404.6H5c-2.7,0-5-2.2-5-5v0c0-2.7,2.2-5,5-5H2399c2.7,0,5,2.2,5,5l0,0
		C2404,1402.4,2401.8,1404.6,2399,1404.6z"/>
	<g id="man_14_">
		<path class="st14" d="M1614.7,299.8c0,0,80.8,22.1,120.9,0.4c0,0-8.9-16.3-29.1-22.8c-6.6-2.9-4.6-7.3-5-12.5
			c-1.2-18.7-3.1-29.2-3.1-29.2l-52.3-27.8l-11.7-6.2c2,8.6,3,16.7,3.2,24.3c0,0.6,0.1,1.2,0.1,1.8
			C1638.9,273.2,1614.7,299.8,1614.7,299.8z"/>
		<path class="st15" d="M1637.3,227.2c0,0,0.2,0.2,0.5,0.6c3.8,4.6,29.7,33.8,63.8,37c-1.2-18.7-3.1-29.2-3.1-29.2l-52.3-27.8
			c-4.6,8.1-7.5,15.4-8.5,18.1C1637.4,226.8,1637.3,227.2,1637.3,227.2z"/>
		<path class="st14" d="M1706.7,254.3c0,0-72.7,2.7-73.7-42.7c-1-45.3-11-75.5,35.4-79.1s55.8,13.5,59.8,28.5
			C1732.2,176.2,1725.6,252.5,1706.7,254.3z"/>
		<path class="st13" d="M1647.5,201.9c0,0-8.2-10.8-2-16.1c6.2-5.3,8.2,4.3,12.5,4.5c4.3,0.3,13.7-11.3,15.7-22.7
			c2-11.4,41.1,11.4,58.5,8.1c17.3-3.3,34.7-23.6,10.3-39c-14.4-9-86-55.1-119.7-22c-43,42.1,0,97.6,5.6,105.9
			c5.6,8.3,9.7,6.6,9.7,6.6S1651.9,213,1647.5,201.9z"/>
		<path class="st16" d="M1626.6,117.5c-0.4-3.4-1.4-12.6,0.5-18.6c0,0,1.6,9.3,3.8,13.8C1633.2,117.1,1626.6,117.5,1626.6,117.5z"/>
		<path class="st16" d="M1617.8,109.2c0,0,9.1-0.8,11,6.1l-2.4,4.8C1626.3,120.1,1625.2,111.1,1617.8,109.2z"/>
		<path class="st12" d="M1794,595.1l-215.6,16.5c0,0-0.4-37.2-0.8-86.6c-0.4-47.3-0.9-105.7-1.2-153.5c-0.2-42.8-0.2-77.1,0.1-86.9
			c0,0,14-6.2,52.1-8.1c0,0,27.2,33,54.1,23.3c26.9-9.7,19.2-26.4,19.2-26.4c2.7,0.1,5.3,0.1,8,0.2c4.2,0.2,8.3,0.4,12.3,0.7
			c14.4,1.1,27.7,3.1,38.9,6.4C1824.6,299.6,1794,595.1,1794,595.1z"/>
		<path class="st20" d="M1623.4,1395.3c-8.4-7.2-4.5-63.3-4.5-63.3s44.4-18.9,50.4,7.6c6,26.5,41.2,38.5,61.2,41.7
			c13.4,2.2,17.8,9.4,19.3,14H1623.4z"/>
		<path class="st20" d="M1843.2,1395.3c-8.4-7.2-3.4-47.5-3.4-47.5s28.3-35,40.2-10.7c12,24.4,50.2,41.1,70.2,44.3
			c13.4,2.2,17.8,9.4,19.3,14H1843.2z"/>
		<path class="st18" d="M1794.6,690.4c0,0,32.4,508.7,88.4,650.1c0,0-37.7,23.8-58.4,8c0,0-129.4-266.3-111.3-326.8
			c12.1-40.6-125.1-327.5-125.1-327.5L1794.6,690.4z"/>
		<path class="st17" d="M1581.6,660.6c-3-0.5-5.6,2.1-5.2,5.1c5.1,39.9,33.1,266.9,11.8,329.2c-26.4,77.4,25.8,344,25.8,344
			s39.3,16.7,65.4,0.6c0,0,8.1-288.5,19.3-345.9c11.2-57.3,71.5-304.7,71.5-304.7L1581.6,660.6z"/>
		<path class="st19" d="M1577.6,525c-0.4-47.3-0.9-105.7-1.2-153.5c17.2,5.8,45.8,20.5,52.5,54.5
			C1635.5,459.3,1605.5,507.3,1577.6,525z"/>
		<path class="st12" d="M1944.3,402.3c0,0-8.4-0.7-22-1.9c-28.6-2.6-80.1-7.8-123-14.7c0,0,0,0,0,0c-34.4-5.5-63.4-12-70.8-19.2
			c-21.1-20.3-11.4-92.5-11.4-92.5s22.2-0.3,44.1,6.8c59.2,19.1,181.7,62.8,195.8,85.7C1975,395.9,1944.3,402.3,1944.3,402.3z"/>
		<path class="st12" d="M1591.9,280.5c0,0-37.5,6.8-46.1,24.9c-8.6,18.1-63.9,152-59.9,201c0,0,8.9,16.7,21,25.4
			c0,0,56.7-9.5,60.8-49c0,0-2.9-5.7,0.3-10.9c3.2-5.2,72.3-70.2,72.7-89.7C1641,362.6,1591.9,280.5,1591.9,280.5z"/>
		<path class="st21" d="M1821.8,857.5l-20.4-403c0.1-21.2-9-37.7-12.9-54.3c-2.5-10.4-9.9-11.7-16.2-11.2
			c-5-12.2-40.2-97.3-50-114.7c-4-0.3-8.1-0.5-12.3-0.7c3.7,9.8,32.7,65.4,43,117.1L1738,391l-85,1.4
			c-1.8-8.3-24.8-113.2-33.6-115.4l-10.1,0.9c0,0,23.3,59.1,26.3,114.7h0l-3.8,0.1c-5.7,0.1-10.3,4.7-10.5,10.4
			c-0.9,45.4-44.2,75.2-44.2,75.2l-0.9,186.7c4.6,21.8,9.7,49,15,77.4c8.6,45.9,17.6,95.2,25.2,131c3.9,18.1,37.5,15.6,56,15.6H1792
			C1809.1,889,1822.7,874.6,1821.8,857.5z"/>
		<path class="st29" d="M1808.5,557.1c0,0-11.1,11.8-11.5,21.1l-14.1-1.9c0,0,16.2-18.9,26.5-21.4L1808.5,557.1z"/>
		<path class="st22" d="M1591.3,742.4L1591.3,742.4c-5.3-28.5-10.5-55.6-15-77.4l0.9-186.7c0,0,43.3-29.8,44.2-75.2
			C1621.4,403.2,1706.9,685.6,1591.3,742.4z"/>
		<g>
			<path class="st12" d="M1729.6,595.7c3.8,5.9,17.5,11.3,17.5,11.3l0,0c4.7,7,12.3,12.1,21.3,13.3c16.6,2.2,32-9.6,34.2-26.2
				l1.6-11.8c0.2-1.3,0.2-2.5,0.3-3.8l-59.9-8c-0.3,1.2-0.6,2.5-0.8,3.7l-0.8,5.8c-3.9-1.4-9.3-2.8-12.4-1.4
				C1725.5,581,1725.8,589.8,1729.6,595.7z M1734.9,583.1c2.5-0.1,5.5,2,7.2,5.1c-0.2,3.5,0.2,7,1.1,10.3c-3.2-1.3-9.8-4.3-10.7-8.4
				C1731.1,584.8,1732.7,583.2,1734.9,583.1z"/>
			<path class="st30" d="M1799.6,578l-8.1-1.1c0,1.3-0.1,2.5-0.3,3.8l-1.6,11.8c-2,15.2-15.1,26.4-30.1,26.4c1.3,0.4,2.6,0.7,4,0.8
				c16.6,2.2,32-9.6,34.2-26.2l1.6-11.8C1799.5,580.5,1799.5,579.2,1799.6,578z"/>
			
				<rect x="1756.1" y="617.7" transform="matrix(-0.9912 -0.1322 0.1322 -0.9912 3439.6201 1467.5546)" class="st12" width="24.9" height="3.7"/>
		</g>
		<path class="st14" d="M1743.5,589.8c-1.2,6.8-4.9,19.2-14.2,19.8c-9.3,0.6-67.8-14.2-67.8-14.2c-62.1-8.4-116-41.9-147.1-65.3
			c15.5-4.1,50.2-16.7,53.3-47.3c16.1,16.1,107.9,80.5,107.9,80.5c5.1-0.9,30.5-5.2,43.8-1.9C1734.2,565.1,1744.7,583,1743.5,589.8z
			"/>
		<g>
			<path class="st12" d="M1893.2,512.2l2.5,4c0.7,1.1,0.4,2.6-0.8,3.4l-50.2,31.3c-1.1,0.7-2.6,0.4-3.3-0.8l-2.5-4
				c-0.7-1.1-0.4-2.6,0.8-3.3l50.2-31.3C1891,510.7,1892.5,511,1893.2,512.2z"/>
			<path class="st19" d="M1893.2,512.9l2.5,4c0.7,1.1,0.4,2.6-0.8,3.4l-26,16.2c-1.1,0.7-2.6,0.4-3.4-0.8l-2.5-4
				c-0.7-1.1-0.4-2.6,0.8-3.3l26-16.2C1891,511.5,1892.5,511.8,1893.2,512.9z"/>
			<g>
				<path class="st12" d="M1872,568.4l1.1,5c0.3,1.1-0.2,2.3-1.2,2.9l-34.6,21.6c-0.8,0.5-1.9,0.5-2.6-0.1l-4.5-3.6
					c-0.3-0.2-0.5-0.5-0.7-0.8l-15.5-33.2l-4.4-2.3c-1.5-0.8-1.5-2.8-0.1-3.7l14.3-8.6l20.3-12.2c1.1-0.7,2.5-0.1,2.9,1.1l1.4,4.2
					l22.9,28.3C1871.7,567.4,1871.9,567.9,1872,568.4z"/>
				<path class="st19" d="M1872,569.2l1.1,5c0.3,1.1-0.2,2.3-1.2,2.9l-19.5,12.2c-0.8,0.5-1.9,0.5-2.6-0.1l-4.5-3.6
					c-0.3-0.2-0.5-0.5-0.7-0.8l-15.5-33.2l-4.4-2.3c-1.1-0.6-1.4-1.9-0.9-2.9l20.3-12.2c1.1-0.7,2.5-0.1,2.9,1.1l1.4,4.2l22.9,28.3
					C1871.7,568.1,1871.9,568.6,1872,569.2z"/>
			</g>
		</g>
		<path class="st23" d="M1693.6,231.7c0,0,1.1,4.8,13.1,4.1c0,0,10.1-0.6,9.8-5.9C1716.5,229.8,1706.7,226.1,1693.6,231.7z"/>
		<path class="st19" d="M1922.3,400.4c-28.6-2.6-80.1-7.8-123-14.7c0.6-0.3,19.9-11,41.6-7.7c22,3.3,64.8,6.2,77.3-0.6
			C1925.2,373.4,1927.2,387.4,1922.3,400.4z"/>
		<path class="st14" d="M1969.2,402.3c0-37.4-28.1-47.5-28.1-47.5s-11.3-5.9-26.1,12.5c-16.9,21.1-34.4,118-34.4,118
			s-17,15.3-15.3,29.5c1.7,14.2,6.9,36.6,15.3,33.6c8.4-3,18.6-15.8,21.5-24.8c2.5-7.6,1.6-21.3,1.3-25.7
			C1906.4,494.1,1969.2,412.5,1969.2,402.3z"/>
	</g>
</g>
</svg>
