<?xml version="1.0" encoding="utf-8"?>
<!-- Generator: Adobe Illustrator 23.1.0, SVG Export Plug-In . SVG Version: 6.00 Build 0)  -->
<svg version="1.1" id="Layer_1" xmlns="http://www.w3.org/2000/svg" xmlns:xlink="http://www.w3.org/1999/xlink" x="0px" y="0px"
	 viewBox="0 0 2421.8 1346.9" style="enable-background:new 0 0 2421.8 1346.9;" xml:space="preserve">
<style type="text/css">
	.st0{display:none;fill:#FFFFFF;}
	.st1{fill:#C77D23;}
	.st2{display:none;}
	.st3{display:inline;}
	.st4{fill:#285B06;}
	.st5{fill:#183D01;}
	.st6{display:inline;fill:#EFCBAB;}
	.st7{display:inline;fill:#FFEBDC;}
	.st8{display:inline;fill:#EFCDAF;}
	.st9{display:inline;fill:#183D01;}
	.st10{display:inline;fill:#285B06;}
	.st11{display:inline;fill:#B5815E;}
	.st12{display:inline;fill:#8C5F41;}
	.st13{display:inline;fill:#D39E7A;}
	.st14{fill:#EFCBAB;}
	.st15{fill:#FFEBDC;}
	.st16{display:inline;opacity:0.74;fill:#396669;}
	.st17{display:inline;fill:#E0AF8D;}
	.st18{display:inline;fill:#C45446;}
	.st19{display:inline;fill:#191A1B;}
	.st20{display:inline;fill:#FFB27D;}
	.st21{display:inline;fill:#E8945B;}
	.st22{display:inline;fill:#2C3A64;}
	.st23{display:inline;fill:#1F2021;}
	.st24{display:inline;fill:#434649;}
	.st25{display:inline;fill:#AA413E;}
	.st26{fill:#D6851B;}
	.st27{fill:#F99746;}
	.st28{display:inline;fill:#ED7D2B;}
	.st29{display:inline;fill:#FFFFFF;}
	.st30{fill:#C65447;}
	.st31{fill:#DCE3F1;}
	.st32{fill:#E57970;}
	.st33{fill:#B27D59;}
	.st34{display:none;fill:#2E3552;}
	.st35{display:inline;fill:#D6851B;}
	.st36{display:inline;fill:#F99746;}
	.st37{display:inline;fill:#543419;}
	.st38{fill:#C45446;}
	.st39{fill:#E37970;}
	.st40{fill:#AA413E;}
</style>
<rect x="-288.1" y="-353.9" class="st0" width="3000" height="2000"/>
<g>
	<path class="st1" d="M4.8,1126.5c-26.8,114.8,61.8,224.3,179.7,224.1l419.6-0.6l39-0.1l1266.9-4.1l417.9-1.4
		c0,0,158-278,63.8-557.9c-27.7-82.5-73.8-154.4-134.2-216.3c-179.3-183.8-344.7-208.8-480.3-196.3c-108.3,10-197.6,43.8-260,39.7
		c-140.7-9.2-74.4-287.6-602-386C831.9,12.1,739,0.1,645.9,0C385.7-0.3,126.3,77.6,92.1,292.6c-4.9,31-5.2,64.9,0,101.8
		c3.6,26.1,9.9,53.7,19.1,82.8c17.1,54.1,90.1,158.2,128.8,223.6C363.5,909.5,216.6,960.3,70.6,1043c-6,3.4-12,6.9-17.9,10.5
		C26.6,1069.2,12,1095.6,4.8,1126.5z"/>
	<g class="st2">
		<g class="st3">
			<path class="st4" d="M751.2,1017.2c0,0-52.6-61.4-3.2-100.4c0,0,36.1-21.8,65.5-20.1c0,0-32.4,49.3-18.9,56.2
				c13.5,7,31.5-60.6,31.5-60.6s82.1-8,108.5,4.7c0,0-70.2,57.4-55.4,60.9c14.8,3.4,90.6-53,90.6-53s76.4,13,72.4,59.6
				c-4.1,46.6-30.4,61-42,59.8c-11.6-1.2-79.3-27.1-80.8-17.6c-1.5,9.5,39.3,40.5,67.8,41.9c0,0-53.9,59.4-89.7,42.3
				c-35.8-17.2-38.9-44.3-61.2-54.5c-22.3-10.2-41.4-10.2-32.2,0.2s49.6,20.5,62.4,43.1c12.8,22.6,24.2,37.8-12.8,32.2
				c-37.1-5.6-97.3-32.7-99.9-63.7C751.2,1017.2,751.2,1017.2,751.2,1017.2z"/>
			<g>
				<path class="st4" d="M1004.6,965.8c0,0-207.6-8-253.4,51.4c0,0-10.1,30.4-41.3,58l-4.9,13.3c0,0,36-37.9,48.8-40.2
					C753.8,1048.2,733.7,974.7,1004.6,965.8z"/>
				<path class="st4" d="M709.8,1075.2c0,0-44.6,33-47.7,91.8l8.1,0.7c0,0,14.2-60.9,40-84.7C736,1059.3,709.8,1075.2,709.8,1075.2z
					"/>
			</g>
		</g>
		<g class="st3">
			<path class="st4" d="M545.2,961c0,0,74.7-60.3,25.5-116.5c0,0-37.4-33.3-72.1-37.6c0,0,33.5,90.6,16.3,95.8
				c-17.2,5.2-30.1-103.6-30.1-103.6s-94.1-27-127.6-17.9c0,0,69.5,82.2,51.5,83c-18,0.8-94.3-81.4-94.3-81.4s-92-1.3-97.3,53.9
				c-5.3,55.3,22.3,77.8,36.1,78.8c13.8,1.1,98.3-14.5,98-3.1c-0.3,11.4-54.6,38.7-88.2,34.3c0,0,50,81,95.5,68.7
				c45.5-12.3,54.9-43.3,83.2-50.4c28.2-7.1,50.5-2.9,37.5,7.2c-13,10.1-62.3,13.2-82.1,36.8c-19.8,23.6-36.4,38.9,8,40.4
				c44.4,1.5,120.6-17.1,130.3-52.8C545.2,961,545.2,961,545.2,961z"/>
			<g>
				<path class="st4" d="M260.7,846.3c0,0,243.9,35.5,284.6,114.7c0,0,5.3,37.6,35.7,76.6l2.8,16.5c0,0-33.8-52-48.3-57.5
					C535.4,996.7,574.8,915.2,260.7,846.3z"/>
				<path class="st4" d="M580.9,1037.7c0,0,44.9,48.1,35.7,117.4l-9.6-0.9c0,0-3.4-74.1-28.3-107.4
					C553.9,1013.4,580.9,1037.7,580.9,1037.7z"/>
			</g>
		</g>
		<g class="st3">
			<path class="st5" d="M700.3,875.3c0,0-110.4-61.8-58.9-145.7c0,0,41.2-51.5,85.4-64.8c0,0-23.6,125.1,0,128.1
				c23.6,2.9,16.2-141.3,16.2-141.3s116.3-55.9,161.9-51.5c0,0-72.1,122.2-48.6,119.2c23.6-2.9,104.5-126.6,104.5-126.6
				s119.2-22.1,138.4,48.6c19.1,70.7-11.8,106-29.4,110.4c-17.7,4.4-131,2.9-128.1,17.7c2.9,14.7,79.5,38.3,122.2,25
				c0,0-47.1,116.3-108.9,110.4c-61.8-5.9-81-44.2-119.2-47.1c-38.3-2.9-66.2,7.4-47.1,17.7c19.1,10.3,83.9,3.4,114.8,29.7
				c30.9,26.3,55.9,42.5-1.5,54.2c-57.4,11.8-160.4,4.4-181.1-39.7C700.3,875.3,700.3,875.3,700.3,875.3z"/>
			<g>
				<path class="st5" d="M1044.8,663.3c0,0-309.1,100.1-344.4,212c0,0,1.5,50-29.4,107.5v22.1c0,0,32.4-75.1,50-85.4
					C721,919.4,651.8,822.3,1044.8,663.3z"/>
				<path class="st5" d="M670.9,982.7c0,0-47.7,72.4-20.5,160.5l12.3-3.3c0,0-11.9-97.1,13-145.9
					C700.7,945.2,670.9,982.7,670.9,982.7z"/>
			</g>
		</g>
		<path class="st6" d="M696.6,1334.3c119.4,0,216.3-96.8,216.3-216.3H480.4C480.4,1237.5,577.2,1334.3,696.6,1334.3z"/>
		<path class="st7" d="M749.8,1332.7c-8.8,1.1-17.8,1.7-26.9,1.7c-119.4,0-216.2-96.8-216.2-216.3h53.7
			C560.5,1228.4,643.1,1319.4,749.8,1332.7z"/>
		<path class="st6" d="M915.9,1345.3H477.4l0,0c0-14.7,11.9-26.7,26.7-26.7h385.1C903.9,1318.6,915.9,1330.6,915.9,1345.3
			L915.9,1345.3z"/>
		<rect x="473.3" y="1118.1" class="st8" width="444.5" height="6.6"/>
	</g>
	<g class="st2">
		<path class="st9" d="M1864.5,519.4c0,0-103.9-26.7-79.9-106.7c0,0,22.6-51.2,55.9-71.6c0,0,7.8,107.7,27.8,105
			c19.9-2.7-17.4-119.3-17.4-119.3s83.2-71.1,121.5-77.4c0,0-73.5,119.5-30.9,123c20.1,1.6,75.1-141.2,75.1-141.2s92.9-44,123.9,9.8
			c31,53.8,13.3,89.4-0.2,96.9c-13.5,7.5-106.7,30.8-101.1,42.3c5.6,11.4,73.5,14.1,105.6-6c0,0-13.4,105.5-65.3,114.1
			c-51.9,8.6-75.9-18.6-107.9-12.7c-32,5.9-52.7,20.4-34.8,24.7c17.9,4.3,69.5-15.4,100.5-0.6c31,14.8,55.1,22.7,10.6,44.8
			c-44.5,22.1-130.5,38.4-157,6.7C1864.5,519.4,1864.5,519.4,1864.5,519.4z"/>
		<g class="st3">
			<path class="st5" d="M1793.1,613.8c0,0-23.4,69.7,18,136l9.3-5.4c0,0-30.8-77-21-122.4C1809.3,576.7,1793.1,613.8,1793.1,613.8z"
				/>
		</g>
	</g>
	<g class="st2">
		<path class="st10" d="M1772.9,830.1c0,0-123.5-64.4-69.6-158.5c0,0,43.7-58.1,91.9-74.1c0,0-21.8,138.5,4.2,141
			c26,2.5,13.2-156.1,13.2-156.1s85.4-64.6,176.5-62c0,0-75.4,136.8-49.6,132.8c25.8-4,104.8-133,104.8-133s136.6-38,160,39.1
			c23.4,77.1-9.5,117-28.8,122.5c-19.3,5.4-144.1,7.5-140.4,23.6c3.7,16.1,88.7,39.5,135.3,23.5c0,0-48,129.5-116.3,125.1
			s-90.6-46-132.8-47.9c-42.2-2-72.7,10.3-51.3,21c21.4,10.7,92.5,1,127.4,28.9c34.9,27.9,63,44.9,0.2,59.8
			c-62.8,14.8-176.5,10.1-200.6-37.8C1772.9,830.1,1772.9,830.1,1772.9,830.1z"/>
		<g class="st3">
			<path class="st4" d="M2145.1,585.5c0,0-337,120.3-372.2,244.6c0,0,3.3,55-28.9,119.2l0.7,24.3c0,0,33.2-83.7,52.3-95.6
				C1797.1,878,1717.7,773.4,2145.1,585.5z"/>
			<path class="st4" d="M1673.5,949.4c0,0-50.1,81.2-17.3,177.4l13.4-4c0,0-16.3-106.4,9.6-161
				C1705,907.1,1673.5,949.4,1673.5,949.4z"/>
		</g>
	</g>
	<g class="st2">
		<path class="st11" d="M1743.2,1193.3h-732.1c-22.3,0-40.5-18.2-40.5-40.5V661.3c0-22.3,18.2-40.5,40.5-40.5h732.1
			c22.3,0,40.5,18.2,40.5,40.5v491.5C1783.7,1175.1,1765.5,1193.3,1743.2,1193.3z"/>
		<path class="st11" d="M1863.5,707.8H890.9c-29.6,0-53.8-24.2-53.8-53.8V1c0-29.6,24.2-53.8,53.8-53.8h972.7
			c29.6,0,53.8,24.2,53.8,53.8v653C1917.3,683.6,1893.1,707.8,1863.5,707.8z"/>
		<path class="st11" d="M1891.6,1341.9H862.8c-14.2,0-25.8-11.6-25.8-25.8v-122.9c0-14.2,11.6-25.8,25.8-25.8h1028.7
			c14.2,0,25.7,11.6,25.7,25.8v122.9C1917.3,1330.3,1905.7,1341.9,1891.6,1341.9z"/>
		<path class="st12" d="M1619.8,1193.8H887.7c-22.3,0-40.5-18.2-40.5-40.5V661.8c0-22.3,18.2-40.5,40.5-40.5h732.1
			c22.3,0,40.5,18.2,40.5,40.5v491.5C1660.2,1175.6,1642,1193.8,1619.8,1193.8z"/>
		<path class="st13" d="M1740.1,708.3H767.4c-29.6,0-53.8-24.2-53.8-53.8V1.5c0-29.6,24.2-53.8,53.8-53.8h972.7
			c29.6,0,53.8,24.2,53.8,53.8v653C1793.8,684.1,1769.6,708.3,1740.1,708.3z"/>
		<path class="st13" d="M1742.5,1342.4H765c-13.8,0-25.1-11.3-25.1-25.1v-124.2c0-13.8,11.3-25.1,25.1-25.1h977.5
			c13.8,0,25.1,11.3,25.1,25.1v124.2C1767.6,1331.1,1756.3,1342.4,1742.5,1342.4z"/>
		<g class="st3">
			<path class="st14" d="M1515.6,929.4c-18.3-11.3-53.8-6.9-79.6-1.5v-37.3c0-8.3-0.6-16.4-1.6-24.3h-386.2c-1,8-1.6,16.1-1.6,24.3
				v75.8c0,107.1,87.6,194.7,194.7,194.7c58,0,110.2-25.7,146-66.3l0,0c0,0,91.9-22.6,120.7-56.9
				C1536.8,1003.8,1546.2,948.4,1515.6,929.4z M1495.2,999.5c-9.7,25.2-53.6,38.8-75.2,44c8.6-19.9,14-41.5,15.5-64.1
				c13.3-18.3,34.4-28.9,49.8-26.1C1499.2,955.8,1507.5,967.6,1495.2,999.5z"/>
			<path class="st15" d="M1078.2,890.7v75.8c0,107.1,87.6,194.7,194.7,194.7c8.9,0,17.6-0.6,26.2-1.9
				c-94.8-12.8-168.5-94.6-168.5-192.8v-75.8c0-8.2,0.6-16.4,1.6-24.4h-52.3C1078.8,874.3,1078.2,882.5,1078.2,890.7z"/>
			<rect x="1161.7" y="1144.2" class="st14" width="158.9" height="23.8"/>
		</g>
		<path class="st6" d="M1026.2,98.6v423.5c0,24.6-20.1,44.7-44.7,44.7H849.3c-24.6,0-44.7-20.1-44.7-44.7V98.6
			c0-24.6,20.1-44.7,44.7-44.7h132.2C1006.1,53.9,1026.2,74,1026.2,98.6z"/>
		<g class="st3">
			<path class="st14" d="M1380,58.3c0-19.5,15.8-35.3,35.3-35.3c19.5,0,35.3,15.8,35.3,35.3c0,19.5-15.8,35.3-35.3,35.3
				C1395.8,93.6,1380,77.8,1380,58.3z"/>
			<path class="st14" d="M1496.8,58.3c0-19.5,15.8-35.3,35.3-35.3c19.5,0,35.3,15.8,35.3,35.3c0,19.5-15.8,35.3-35.3,35.3
				C1512.6,93.6,1496.8,77.8,1496.8,58.3z"/>
			<path class="st14" d="M1608.8,58.3c0-19.5,15.8-35.3,35.3-35.3c19.5,0,35.3,15.8,35.3,35.3c0,19.5-15.8,35.3-35.3,35.3
				C1624.6,93.6,1608.8,77.8,1608.8,58.3z"/>
			<path class="st14" d="M1380,166.5c0-19.5,15.8-35.3,35.3-35.3c19.5,0,35.3,15.8,35.3,35.3c0,19.5-15.8,35.3-35.3,35.3
				C1395.8,201.8,1380,186,1380,166.5z"/>
			<path class="st14" d="M1496.8,166.5c0-19.5,15.8-35.3,35.3-35.3c19.5,0,35.3,15.8,35.3,35.3c0,19.5-15.8,35.3-35.3,35.3
				C1512.6,201.8,1496.8,186,1496.8,166.5z"/>
			<path class="st14" d="M1608.8,166.5c0-19.5,15.8-35.3,35.3-35.3c19.5,0,35.3,15.8,35.3,35.3c0,19.5-15.8,35.3-35.3,35.3
				C1624.6,201.8,1608.8,186,1608.8,166.5z"/>
			<path class="st14" d="M1664.2,292.7h-269.1c-8.3,0-15.2-6.8-15.2-15.2l0,0c0-8.3,6.8-15.2,15.2-15.2h269.1
				c8.4,0,15.2,6.8,15.2,15.2l0,0C1679.4,285.9,1672.6,292.7,1664.2,292.7z"/>
		</g>
		<g class="st3">
			<path class="st14" d="M1380,404c0-19.5,15.8-35.3,35.3-35.3c19.5,0,35.3,15.8,35.3,35.3c0,19.5-15.8,35.3-35.3,35.3
				C1395.8,439.3,1380,423.5,1380,404z"/>
			<path class="st14" d="M1496.8,404c0-19.5,15.8-35.3,35.3-35.3c19.5,0,35.3,15.8,35.3,35.3c0,19.5-15.8,35.3-35.3,35.3
				C1512.6,439.3,1496.8,423.5,1496.8,404z"/>
			<path class="st14" d="M1608.8,404c0-19.5,15.8-35.3,35.3-35.3c19.5,0,35.3,15.8,35.3,35.3c0,19.5-15.8,35.3-35.3,35.3
				C1624.6,439.3,1608.8,423.5,1608.8,404z"/>
			<path class="st14" d="M1380,512.2c0-19.5,15.8-35.3,35.3-35.3c19.5,0,35.3,15.8,35.3,35.3c0,19.5-15.8,35.3-35.3,35.3
				C1395.8,547.5,1380,531.7,1380,512.2z"/>
			<path class="st14" d="M1496.8,512.2c0-19.5,15.8-35.3,35.3-35.3c19.5,0,35.3,15.8,35.3,35.3c0,19.5-15.8,35.3-35.3,35.3
				C1512.6,547.5,1496.8,531.7,1496.8,512.2z"/>
			<path class="st14" d="M1608.8,512.2c0-19.5,15.8-35.3,35.3-35.3c19.5,0,35.3,15.8,35.3,35.3c0,19.5-15.8,35.3-35.3,35.3
				C1624.6,547.5,1608.8,531.7,1608.8,512.2z"/>
			<path class="st14" d="M1664.2,638.4h-269.1c-8.3,0-15.2-6.8-15.2-15.2l0,0c0-8.3,6.8-15.2,15.2-15.2h269.1
				c8.4,0,15.2,6.8,15.2,15.2l0,0C1679.4,631.6,1672.6,638.4,1664.2,638.4z"/>
		</g>
		<path class="st16" d="M1026.2,446.9v75.2c0,24.6-20.1,44.7-44.7,44.7H849.3c-24.6,0-44.7-20.1-44.7-44.7v-75.2H1026.2z"/>
		<path class="st17" d="M959.7,93.6h-88.5c-3.4,0-6.2-2.8-6.2-6.2l0,0c0-3.4,2.8-6.2,6.2-6.2h88.5c3.4,0,6.2,2.8,6.2,6.2l0,0
			C965.8,90.8,963.1,93.6,959.7,93.6z"/>
		<path class="st17" d="M990.4,149.7h-150c-3.4,0-6.2-2.8-6.2-6.2l0,0c0-3.4,2.8-6.2,6.2-6.2h150c3.4,0,6.2,2.8,6.2,6.2l0,0
			C996.6,146.9,993.8,149.7,990.4,149.7z"/>
		<path class="st17" d="M990.4,176h-150c-3.4,0-6.2-2.8-6.2-6.2l0,0c0-3.4,2.8-6.2,6.2-6.2h150c3.4,0,6.2,2.8,6.2,6.2l0,0
			C996.6,173.2,993.8,176,990.4,176z"/>
		<path class="st12" d="M1203.1,645.6L1203.1,645.6c-5.4,0-9.8-4.4-9.8-9.8V6.1c0-5.4,4.4-9.8,9.8-9.8l0,0c5.4,0,9.8,4.4,9.8,9.8
			v629.7C1212.9,641.2,1208.5,645.6,1203.1,645.6z"/>
		<path class="st11" d="M1262.5,805.4h-35.1c-26.7,0-48.6-21.8-48.6-48.5v-48.6h126.4v54.3C1305.3,786.2,1286,805.4,1262.5,805.4z"
			/>
		<path class="st11" d="M1240.8,839.8L1240.8,839.8c-7.1,0-12.9-5.8-12.9-12.9v-26.8c0-7.1,5.8-12.9,12.9-12.9l0,0
			c7.1,0,12.9,5.8,12.9,12.9v26.8C1253.7,834,1247.9,839.8,1240.8,839.8z"/>
	</g>
	<g class="st2">
		<path class="st18" d="M386.3,509.6c0,0,14.2,0,48.8,15.9c10.1,4.6,27.6,21.6,38.3,24.2c2,0.5,4.1,1,6.1,1.4
			c11.7,2.6,22.9,4.4,32.6,4.9c0,0,41.1-15.8,80.6-59.7c2.8-3.1,5.6-6.3,8.3-9.7c1.5-1.8,1-15.3-0.4-31.9c-2.5-30.9-7.7-73-7.7-73
			s-28.6,19.5-94.8,119.2c-2.1,3.2-7.5,2.8-20.5,0.3c-16.5-3.2-26.2,3.2-77-4.2c0,0-6.7-1-7.1,4.5
			C392.5,513.7,386.3,509.6,386.3,509.6z"/>
		<path class="st19" d="M643.8,205.5c0,0,77-55.8,96.7-2.5c0,0,20.8,15.6,19.1,57.4c-1.7,42.6-36.4,66.5-48.4,55.4
			c-7.7-7.1-18.4,6.7-18.4,6.7L643.8,205.5z"/>
		<path class="st19" d="M708.7,188.5c0,0,41.6-27.7,89.7,9.6c48.2,37.3-2.8,115.6,12.1,146.5c0,0-25.1-23.3-16.2-45.9
			c0,0-14.1,37.4,1.2,59.6c25.3,36.7-42,84.4-66.8,69.2c-20.3-12.4-2-19.8-30.4-69.2C680.6,327.6,773,269,708.7,188.5z"/>
		<path class="st20" d="M775.7,691.1c-23.9-53.6-35.3-68.8-35.7-85.6c-0.3-13.3,6.3-27.7,19-63c3-8.3,5.1-16.9,6.4-25.5
			c10.1-68-29.2-141.5-53.7-146.6c-6.8-1.8-18.3-26.4-18.2-65.9l-3.1,0.6l-51.5,10.2c0,0,1.2,16.2,1.2,31.5
			c0,12.7-0.7,24.8-3.6,26.3c-3.7,0.3-5.9,0.6-5.9,0.6s-42.9,59.6-46.5,115c-3.6,55.4,34.4,79.5-0.3,190.3
			C548.4,792.1,788.9,720.7,775.7,691.1z"/>
		<path class="st21" d="M638.9,315.3c0,0,1.2,16.2,1.2,31.5c28.8-0.8,44-27.1,50.3-41.7L638.9,315.3z"/>
		<path class="st22" d="M695.7,299.5c0,0,15.1-23.9,18.7-44.2c2.6-14.6-4.8-68.5-59.1-60.8c0,0-15.8,1.6-30.6,11.6
			c-11.8,8-28.8,25.1-9.8,72.2l4.9,15.9L695.7,299.5z"/>
		<path class="st23" d="M715.3,1205.4c-17.1,68.2-43,120.5-43,120.5l-22.5-1.6c0,0,11-52.4,10.4-123.3
			c-0.4-49.5-6.6-108.1-26.1-163.9c-67.2-192.1-56.4-331.8-56.4-331.8l126.5,14.8l5.9,0.7c0.5,58.1,2,136.9,3.3,198.6
			c1.2,55.5,2.2,97,2.2,97C739.9,1068.7,731.1,1142.6,715.3,1205.4z"/>
		<path class="st24" d="M787.9,1194.5c-7.3,77.6-39.3,127.8-39.3,127.8l-10.7,7.8c0,0-10.2-54.7-17.4-119.7
			c-6.9-61.8-16.2-127.2-26.9-147.2C651.5,984,638.8,685,638.8,685l128.2-6.4c12.9,21.7,18.5,57.2,19.9,97.7
			c3.4,102-20.6,235.1-24.2,254.3c0,0,0,0,0,0c-0.3,1.5,0.2,3,0.8,4.3C789,1085.5,792.7,1143.2,787.9,1194.5z"/>
		<path class="st18" d="M575.7,503.3c-1.3,55.3,4.6,134.6,12.6,192.5c1.3,9.3,2.6,39.3,9.3,44.9c31.2,25.9,82.8,16.7,100.8,12.7
			c15-3.3,26.7-19.2,35-47.6c2.8,19.8,8.9,43,22.8,44.4c2.9,0.3,5.7,0.5,8.2,0.6c16.8,0.6,22.9,10.9,25.3,3.4
			c0.8-2.5-7.7-29.5-7.9-33.8c-1.1-22.5-2.7-66.5-4.2-115.3c-0.5-15.2-0.9-30.9-1.4-46.5c-0.9-29.8-1.6-62-2.2-90.5
			c-0.5-24.9-0.9-47.1-1.1-62.5c-0.3-15.4-11.2-28.6-26.4-31.4c-4.8-0.9-9.6-1.6-14-2.1c-3.6-0.4-6.9-0.7-9.8-1
			c-6.6-0.5-11-0.7-11-0.7s0.2,8.1,0,17.8c-0.3,12.8-1.4,28.4-4.9,31.6c-0.4,0.4-1.3,0.8-2.6,1.3c0,0-0.1,0-0.1,0
			c-16.2,5.6-92.6,12.8-94.5,3.3c-0.2-0.9-0.1-1.9,0.1-3.2c0,0,0-0.1,0-0.1c1-5.9,5.8-15.5,11-24.6c0,0,0,0,0-0.1
			c6.2-11.1,13-21.4,13.9-23.1c0.1-0.1-1.5,0.1-2.7,0.2h0c-0.7,0.1-1.3,0.1-1.3,0.1c-3.6,0.5-6.8,0.9-9.7,1.3h0
			c-5.3,0.7-9.5,1.4-12.8,1.9c-10.1,1.7-12.6,2.9-15.1,4.9c-8.9,8.9-20.5,31-21.4,70.4C571.3,466.6,572.4,483.7,575.7,503.3z"/>
		<path class="st20" d="M787.9,1194.5c-7.3,77.6-39.3,127.8-39.3,127.8l-10.9,10c0,0-10-56.8-17.2-121.9
			C728.1,1210.9,761.5,1212.1,787.9,1194.5z"/>
		<path class="st25" d="M768.8,601.9c3.2,1.8,6.1,2.9,8.8,3.3c-0.5-15.2-0.9-30.9-1.4-46.5c-0.9-29.8-1.6-62-2.2-90.5
			c-16.4-16.3-36.2-19.4-36.2-19.4C708.1,459.6,731.9,581,768.8,601.9z"/>
		<path class="st20" d="M715.3,1205.4c-17.1,68.2-43,120.5-43,120.5l-22.5-1.6c0,0,11-52.4,10.4-123.3
			C667.9,1204.9,683.6,1208.8,715.3,1205.4z"/>
		<g class="st3">
			<path class="st26" d="M685.3,1344.7h-14.3c-4.8-0.8-8.4-2.1-13.3-2.8c-7.5-1-10.9,2.1-11.6,2.8c-0.1,0.1-0.1,0.1-0.1,0.1h-61
				c-1.5-2.2-0.1-7.3,1.4-11c1-2.5,3.1-4.5,5.7-5.2c6.5-1.9,19.2-3.5,30.9-14.1c6.6-5.9,31.7-21.8,31.7-21.8l0.1,0
				c0.6,0,3.2,0.8,14.6,10.5c5.9,5,16-7,16-7s1.9,1.6,3.3,4.5c1.1,2.3,2,5.5,1.3,9.4c-0.9,5.5,2,15.7,4.4,22.6
				c1.4,4.2,2.6,7.1,2.6,7.1S697.6,1343.2,685.3,1344.7z"/>
			<path class="st26" d="M688.7,1300.6c-3.4,2.4-10.7,7.2-15.5,7.8c-6.5,0.8-18.6-15.7-18.6-15.7l0.1,0c0.6,0,3.2,0.8,14.6,10.5
				c5.9,5,16-7,16-7S687.3,1297.7,688.7,1300.6z"/>
			<path class="st26" d="M685.3,1344.7h-14.3c-4.8-0.8-8.4-2.1-13.3-2.8c-7.5-1-10.9,2.1-11.6,2.8c-0.1,0.1-0.1,0.1-0.1,0.1h-61
				c-1.5-2.2-0.1-7.3,1.4-11c1.9-1.6,2.4,7.1,3.4,8.5c1,1.4,49.7,0.5,52.5-1.5c2.8-2,11.3-5.6,23-2.8c10.2,2.4,25.3-3.8,29.1-5.5
				c1.4,4.2,2.6,7.1,2.6,7.1S697.6,1343.2,685.3,1344.7z"/>
		</g>
		<g class="st3">
			<path class="st26" d="M761.9,1344.7h-14.3c-4.8-0.8-8.4-2.1-13.3-2.8c-7.5-1-10.9,2.1-11.6,2.8c-0.1,0.1-0.1,0.1-0.1,0.1h-60.9
				c-1.5-2.2-0.1-7.3,1.4-11c1-2.5,3.1-4.5,5.7-5.2c6.5-1.9,19.2-3.5,30.9-14.1c6.6-5.9,31.7-21.8,31.7-21.8l0.1,0
				c0.6,0,3.2,0.8,14.6,10.5c5.9,5,16-7,16-7s1.9,1.6,3.3,4.5c1.1,2.3,2,5.5,1.3,9.4c-0.9,5.5,2,15.7,4.4,22.6
				c1.4,4.2,2.6,7.1,2.6,7.1S774.2,1343.2,761.9,1344.7z"/>
			<path class="st26" d="M765.2,1300.6c-3.4,2.4-10.7,7.2-15.5,7.8c-6.5,0.8-18.6-15.7-18.6-15.7l0.1,0c0.6,0,3.2,0.8,14.6,10.5
				c5.9,5,16-7,16-7S763.8,1297.7,765.2,1300.6z"/>
			<path class="st26" d="M761.9,1344.7h-14.3c-4.8-0.8-8.4-2.1-13.3-2.8c-7.5-1-10.9,2.1-11.6,2.8c-0.1,0.1-0.1,0.1-0.1,0.1h-60.9
				c-1.5-2.2-0.1-7.3,1.4-11c1.9-1.6,2.4,7.1,3.4,8.5c1,1.4,49.7,0.5,52.5-1.5c2.8-2,11.3-5.6,23-2.8c10.2,2.4,25.3-3.8,29.1-5.5
				c1.4,4.2,2.6,7.1,2.6,7.1S774.2,1343.2,761.9,1344.7z"/>
		</g>
		<path class="st25" d="M473.5,549.7c2,0.5,4.1,1,6.1,1.4c11.7,2.6,22.9,4.4,32.6,4.9c0,0,41.1-15.8,80.6-59.7
			c2.8-3.1,5.6-6.3,8.3-9.7c1.5-1.8,1-15.3-0.4-31.9c-22.4,20.6-83.3,77.1-93.9,90.6c0,0-10.3,6.7-24.6-2.9
			C475,537.7,473.4,543.1,473.5,549.7z"/>
		<path class="st20" d="M626.5,321.8c0,0,65.8,17.9,76.3-23.2c10.5-41.1,26.1-66.5-15.4-79.7c-41.5-13.2-53.8,0.4-60.6,13.3
			C619.9,245.1,609.7,316.1,626.5,321.8z"/>
		<g class="st3">
			<path class="st27" d="M696.9,421.1h14c0,0,0,0,0-0.1c0.6-1.8,12.1-36.7,21.5-48.9c-3.6-0.4-6.9-0.7-9.8-1c-2.1,3-6.4,9.1-11,17.1
				C706.3,397.4,700.4,409.1,696.9,421.1z"/>
			<path class="st27" d="M597.6,421h14c0,0,3.9-12,9.1-24.6c0,0,0,0,0-0.1c3.4-8.4,7.4-17.2,11.2-22.9c-0.7,0.1-1.3,0.1-1.3,0.1
				c-3.6,0.5-6.8,0.9-9.7,1.3h0c-6.2,8.9-17.2,25.6-23,44.8C597.8,420.1,597.7,420.6,597.6,421z"/>
			<path class="st27" d="M571,978.9c0,8.5,6.9,15.4,15.4,15.4h162.5c8.5,0,15.4-6.9,15.4-15.4l8.2-161.5l9.2-181.4
				c-0.2-1.8-3.6-55.5-4.7-56.9c-15.4-19.4-37.8-73.1-48.4-112.2c-3.7-13.7-5.9-25.6-6-33.7c0-6.7-5.3-12.1-11.8-12.2h-0.2l-8.9,0.1
				l-4.4,0c-0.3,0-0.7,0-1,0.1c-37.1,4.6-68.8,2.3-87.6-0.1c-3.3-0.4-6.2-0.9-8.7-1.3c-0.7-0.1-1.4-0.1-2.1-0.1
				c-4.5,0.3-8.2,3.9-8.6,8.7l-4.8,56.5l-6.6,77.4C575.6,578.2,571,978.9,571,978.9z"/>
		</g>
		<path class="st19" d="M657.6,210.3c0,0,5.8,52.9,31.7,67.1c25.9,14.2,39.9,9.8,39.9,9.8s-8.3-36.2-5.2-66.9
			C723.9,220.3,677,190.8,657.6,210.3z"/>
		<path class="st28" d="M666,533.7c0,0,25.9,227.6,106.6,283.7l9.2-181.4c-0.2-1.8-3.6-55.5-4.7-56.9
			c-15.4-19.4-37.8-73.1-48.4-112.2c-1.1,0.4-2,1.1-2.9,2C688.8,506.5,666,533.7,666,533.7z"/>
		<path class="st19" d="M661,215.3c0,0-16.3,7.3-22.2,17c-6,9.6-12.9,30.8-19,28.5c0,0-5.3-36.3,14.8-50.9
			C655.8,194.3,661,215.3,661,215.3z"/>
		<path class="st19" d="M658.1,216.3c0,0,0,53.8,30.9,78.9c0,0-27.1-40-21.6-74.1C673,187,658.1,216.3,658.1,216.3z"/>
		<path class="st29" d="M623.4,296.5c0,0-0.6,4.5,10,7.9c0,0,8.9,2.8,10.4-1.9C643.8,302.5,636.6,296,623.4,296.5z"/>
		<path class="st18" d="M508,519.9c0,0,54.1,27.2,101,38.4c13.5,3.2,26.5,5.5,37.6,6c0,0,50.4-15.5,88.9-69.4
			c74.3-104.1,16.9-115.3,16.9-115.3s-49.6,31-119.8,129.6c-2.5,3.5-8.6,2.7-24.6-0.6c-17-3.4-50.9-3-97.8-9.9c0,0-0.8,1.7-1.3,7.3
			C507.9,518.3,508,519.9,508,519.9z"/>
		<path class="st21" d="M386.3,509.6c0,0,20.2,3.2,54.5,24.4c11.2,7,26.2,14.3,38.8,17.1c5-22.4,1.6-39.9-1.9-50
			c-16.5-3.2-39.3,1.5-90.1-6L386.3,509.6z"/>
		<g class="st3">
			<g>
				<polygon class="st30" points="478.4,434.7 477.8,448.8 476.5,478.1 475.9,491.6 438.7,491.6 437.9,478.1 436.1,448.8 
					435.2,434.7 				"/>
				<polygon class="st31" points="479.1,425.3 435,425.3 433.2,434.7 480.4,434.7 				"/>
				<polygon class="st32" points="477.8,448.8 476.5,478.1 437.9,478.1 436.1,448.8 				"/>
			</g>
			<g>
				<polygon class="st30" points="410.9,434.7 410.3,448.8 409,478.1 408.4,491.6 371.2,491.6 370.4,478.1 368.6,448.8 367.7,434.7 
									"/>
				<polygon class="st31" points="411.6,425.3 367.5,425.3 365.7,434.7 412.9,434.7 				"/>
				<polygon class="st32" points="410.3,448.8 409,478.1 370.4,478.1 368.6,448.8 				"/>
			</g>
			<rect x="328.9" y="491.6" class="st33" width="186.6" height="9.8"/>
		</g>
		<path class="st20" d="M506.7,521.3c0,0,55.3,25.7,102.2,37c-10.3-20.4-6.3-38.1-0.9-49.6c-17-3.4-51.2-4.9-98-11.8
			c0,0-0.6,3.6-1,9.2C507.9,518.3,506.7,521.3,506.7,521.3z"/>
		<path class="st20" d="M515.9,498.3c0,0-13.7-2.7-25.1-8.4c-11.4-5.7-41.9-9.5-48.4-3.4c-6.5,6.1,6.9,30.8,34.7,31.6
			c27.8,0.8,35.8,5.3,35.8,5.3L515.9,498.3z"/>
		<path class="st28" d="M784.4,576c4,0.1,28.4,13.9,29.5,19.1c1.1,5.2-37,21.5-37,21.5S780.4,575.9,784.4,576z M805.8,595.9
			c0.7-2.2-15.6-7.1-18.6-7.1c-3,0-8.9,26.3-8.9,26.3S805.1,598,805.8,595.9z"/>
		<path class="st28" d="M802.5,615c0.5,2.3-4,18.5-6.9,19.9c-2.9,1.4-17.8-18.5-17.8-18.5S802,612.7,802.5,615z M794,630.3
			c1.4,0.1,1.9-10.1,1.5-11.8c-0.4-1.7-16.5-1.4-16.5-1.4S792.7,630.2,794,630.3z"/>
		<path class="st28" d="M776.2,630.3c0,0,34.4,29.3,39.5,68c5.1,38.7,14.1,44.4,14.1,44.4s-4.4,3.1-7.5,1.5
			c-3.2-1.6-13.2-29-13.5-41.7c-0.3-12.8-15.8-50.1-32.5-60.3C759.5,632,776.2,630.3,776.2,630.3z"/>
		<path class="st20" d="M503.9,495.1c0,0-5.3-5.3-6.4-8.5c-1.1-3.2-17.8-7.7-19.1-6.5c-2.6,2.3,8,10.1,8,10.1L503.9,495.1z"/>
		<path class="st21" d="M386.3,509.6c0,0-16,6.1-25,4.1c-8.9-1.9-21.2-12.3-21.2-12.3h46.9L386.3,509.6z"/>
	</g>
	<path class="st34" d="M2407.9,1351.9H13.8c-2.7,0-5-2.2-5-5v0c0-2.7,2.2-5,5-5h2394.1c2.7,0,5,2.2,5,5l0,0
		C2412.9,1349.6,2410.6,1351.9,2407.9,1351.9z"/>
	<g id="man_14_" class="st2">
		<path class="st20" d="M1623.6,247c0,0,80.8,22.1,120.9,0.4c0,0-8.9-16.3-29.1-22.8c-6.6-2.9-4.6-7.3-5-12.5
			c-1.2-18.7-3.1-29.2-3.1-29.2l-52.3-27.8l-11.7-6.2c2,8.6,3,16.7,3.2,24.3c0,0.6,0.1,1.2,0.1,1.8
			C1647.8,220.4,1623.6,247,1623.6,247z"/>
		<path class="st21" d="M1646.2,174.5c0,0,0.2,0.2,0.5,0.6c3.8,4.6,29.7,33.8,63.8,37c-1.2-18.7-3.1-29.2-3.1-29.2l-52.3-27.8
			c-4.6,8.1-7.5,15.4-8.5,18.1C1646.3,174,1646.2,174.5,1646.2,174.5z"/>
		<path class="st20" d="M1715.6,201.6c0,0-72.7,2.7-73.7-42.7c-1-45.3-11-75.5,35.4-79.1c46.4-3.6,55.8,13.5,59.8,28.5
			C1741.1,123.4,1734.5,199.7,1715.6,201.6z"/>
		<path class="st19" d="M1656.4,149.1c0,0-8.2-10.8-2-16.1c6.2-5.3,8.2,4.3,12.5,4.5c4.3,0.3,13.7-11.3,15.7-22.7
			c2-11.4,41.1,11.4,58.5,8.1c17.3-3.3,34.7-23.6,10.3-39c-14.4-9-86-55.1-119.7-22c-43,42.1,0,97.6,5.6,105.9
			c5.6,8.3,9.7,6.6,9.7,6.6S1660.7,160.2,1656.4,149.1z"/>
		<path class="st22" d="M1635.5,64.7c-0.4-3.4-1.4-12.6,0.5-18.6c0,0,1.6,9.3,3.8,13.8C1642.1,64.3,1635.5,64.7,1635.5,64.7z"/>
		<path class="st22" d="M1626.6,56.4c0,0,9.1-0.8,11,6.1l-2.4,4.8C1635.2,67.3,1634.1,58.3,1626.6,56.4z"/>
		<path class="st18" d="M1802.9,542.3l-215.6,16.5c0,0-0.4-37.2-0.8-86.6c-0.4-47.3-0.9-105.7-1.2-153.5
			c-0.2-42.8-0.2-77.1,0.1-86.9c0,0,14-6.2,52.1-8.1c0,0,27.2,33,54.1,23.3c26.9-9.7,19.2-26.4,19.2-26.4c2.7,0.1,5.3,0.1,8,0.2
			c4.2,0.2,8.3,0.4,12.3,0.7c14.4,1.1,27.7,3.1,38.9,6.4C1833.5,246.8,1802.9,542.3,1802.9,542.3z"/>
		<path class="st35" d="M1632.3,1342.5c-8.4-7.2-4.5-63.3-4.5-63.3s44.4-18.9,50.4,7.6c6,26.5,41.2,38.5,61.2,41.7
			c13.4,2.2,17.8,9.4,19.3,14H1632.3z"/>
		<path class="st35" d="M1852.1,1342.5c-8.4-7.2-3.4-47.5-3.4-47.5s28.3-35,40.2-10.7c12,24.4,50.2,41.1,70.2,44.3
			c13.4,2.2,17.8,9.4,19.3,14H1852.1z"/>
		<path class="st24" d="M1803.5,637.6c0,0,32.4,508.7,88.4,650.1c0,0-37.7,23.8-58.4,8c0,0-129.4-266.3-111.3-326.8
			c12.1-40.6-125.1-327.5-125.1-327.5L1803.5,637.6z"/>
		<path class="st23" d="M1590.5,607.8c-3-0.5-5.6,2.1-5.2,5.1c5.1,39.9,33.1,266.9,11.8,329.2c-26.4,77.4,25.8,344,25.8,344
			s39.3,16.7,65.4,0.6c0,0,8.1-288.5,19.3-345.9c11.2-57.3,71.5-304.7,71.5-304.7L1590.5,607.8z"/>
		<path class="st25" d="M1586.4,472.2c-0.4-47.3-0.9-105.7-1.2-153.5c17.2,5.8,45.8,20.5,52.5,54.5
			C1644.4,406.5,1614.3,454.5,1586.4,472.2z"/>
		<path class="st18" d="M1953.2,349.5c0,0-8.4-0.7-22-1.9c-28.6-2.6-80.1-7.8-123-14.7c0,0,0,0,0,0c-34.4-5.5-63.4-12-70.8-19.2
			c-21.1-20.3-11.4-92.5-11.4-92.5s22.2-0.3,44.1,6.8c59.2,19.1,181.7,62.8,195.8,85.7C1983.9,343.2,1953.2,349.5,1953.2,349.5z"/>
		<path class="st18" d="M1600.8,227.7c0,0-37.5,6.8-46.1,24.9c-8.6,18.1-63.9,152-59.9,201c0,0,8.9,16.7,21,25.4
			c0,0,56.7-9.5,60.8-49c0,0-2.9-5.7,0.3-10.9c3.2-5.2,72.3-70.2,72.7-89.7C1649.9,309.8,1600.8,227.7,1600.8,227.7z"/>
		<path class="st36" d="M1830.7,804.7l-20.4-403c0.1-21.2-9-37.7-12.9-54.3c-2.5-10.4-9.9-11.7-16.2-11.2
			c-5-12.2-40.2-97.3-50-114.7c-4-0.3-8.1-0.5-12.3-0.7c3.7,9.8,32.7,65.4,43,117.1l-14.9,0.2l-85,1.4
			c-1.8-8.3-24.8-113.2-33.6-115.4l-10.1,0.9c0,0,23.3,59.1,26.3,114.7h0l-3.8,0.1c-5.7,0.1-10.3,4.7-10.5,10.4
			c-0.9,45.4-44.2,75.2-44.2,75.2l-0.9,186.7c4.6,21.8,9.7,49,15,77.4c8.6,45.9,17.6,95.2,25.2,131c3.9,18.1,37.5,15.6,56,15.6
			h119.5C1818,836.2,1831.6,821.8,1830.7,804.7z"/>
		<path class="st37" d="M1817.4,504.3c0,0-11.1,11.8-11.5,21.1l-14.1-1.9c0,0,16.2-18.9,26.5-21.4L1817.4,504.3z"/>
		<path class="st28" d="M1600.2,689.6L1600.2,689.6c-5.3-28.5-10.5-55.6-15-77.4l0.9-186.7c0,0,43.3-29.8,44.2-75.2
			C1630.2,350.4,1715.8,632.8,1600.2,689.6z"/>
		<g class="st3">
			<path class="st38" d="M1738.5,543c3.8,5.9,17.5,11.3,17.5,11.3l0,0c4.7,7,12.3,12.1,21.3,13.3c16.6,2.2,32-9.6,34.2-26.2
				l1.6-11.8c0.2-1.3,0.2-2.5,0.3-3.8l-59.9-8c-0.3,1.2-0.6,2.5-0.8,3.7l-0.8,5.8c-3.9-1.4-9.3-2.8-12.4-1.4
				C1734.4,528.3,1734.7,537,1738.5,543z M1743.8,530.3c2.5-0.1,5.5,2,7.2,5.1c-0.2,3.5,0.2,7,1.1,10.3c-3.2-1.3-9.8-4.3-10.7-8.4
				C1740,532,1741.6,530.4,1743.8,530.3z"/>
			<path class="st39" d="M1808.4,525.2l-8.1-1.1c0,1.3-0.1,2.5-0.3,3.8l-1.6,11.8c-2,15.2-15.1,26.4-30.1,26.4
				c1.3,0.4,2.6,0.7,4,0.8c16.6,2.2,32-9.6,34.2-26.2l1.6-11.8C1808.3,527.7,1808.4,526.4,1808.4,525.2z"/>
			
				<rect x="1765" y="564.9" transform="matrix(-0.9912 -0.1322 0.1322 -0.9912 3464.2903 1363.6067)" class="st38" width="24.9" height="3.7"/>
		</g>
		<path class="st20" d="M1752.3,537c-1.2,6.8-4.9,19.2-14.2,19.8c-9.3,0.6-67.8-14.2-67.8-14.2c-62.1-8.4-116-41.9-147.1-65.3
			c15.5-4.1,50.2-16.7,53.3-47.3c16.1,16.1,107.9,80.5,107.9,80.5c5.1-0.9,30.5-5.2,43.8-1.9C1743.1,512.3,1753.6,530.2,1752.3,537z
			"/>
		<g class="st3">
			<path class="st38" d="M1902.1,459.4l2.5,4c0.7,1.1,0.4,2.6-0.8,3.4l-50.2,31.3c-1.1,0.7-2.6,0.4-3.3-0.8l-2.5-4
				c-0.7-1.1-0.4-2.6,0.8-3.3l50.2-31.3C1899.9,457.9,1901.4,458.2,1902.1,459.4z"/>
			<path class="st40" d="M1902.1,460.1l2.5,4c0.7,1.1,0.4,2.6-0.8,3.4l-26,16.2c-1.1,0.7-2.6,0.4-3.4-0.8l-2.5-4
				c-0.7-1.1-0.4-2.6,0.8-3.3l26-16.2C1899.9,458.7,1901.4,459,1902.1,460.1z"/>
			<g>
				<path class="st38" d="M1880.9,515.6l1.1,5c0.3,1.1-0.2,2.3-1.2,2.9l-34.6,21.6c-0.8,0.5-1.9,0.5-2.6-0.1l-4.5-3.6
					c-0.3-0.2-0.5-0.5-0.7-0.8l-15.5-33.2l-4.4-2.3c-1.5-0.8-1.5-2.8-0.1-3.7l14.3-8.6l20.3-12.2c1.1-0.7,2.5-0.1,2.9,1.1l1.4,4.2
					l22.9,28.3C1880.6,514.6,1880.8,515.1,1880.9,515.6z"/>
				<path class="st40" d="M1880.9,516.4l1.1,5c0.3,1.1-0.2,2.3-1.2,2.9l-19.5,12.2c-0.8,0.5-1.9,0.5-2.6-0.1l-4.5-3.6
					c-0.3-0.2-0.5-0.5-0.7-0.8l-15.5-33.2l-4.4-2.3c-1.1-0.6-1.4-1.9-0.9-2.9l20.3-12.2c1.1-0.7,2.5-0.1,2.9,1.1l1.4,4.2l22.9,28.3
					C1880.6,515.4,1880.8,515.8,1880.9,516.4z"/>
			</g>
		</g>
		<path class="st29" d="M1702.5,178.9c0,0,1.1,4.8,13.1,4.1c0,0,10.1-0.6,9.8-5.9C1725.4,177.1,1715.6,173.3,1702.5,178.9z"/>
		<path class="st25" d="M1931.2,347.6c-28.6-2.6-80.1-7.8-123-14.7c0.6-0.3,19.9-11,41.6-7.7c22,3.3,64.8,6.2,77.3-0.6
			C1934.1,320.6,1936.1,334.6,1931.2,347.6z"/>
		<path class="st20" d="M1978.1,349.5c0-37.4-28.1-47.5-28.1-47.5s-11.3-5.9-26.1,12.5c-16.9,21.1-34.4,118-34.4,118
			s-17,15.3-15.3,29.5c1.7,14.2,6.9,36.6,15.3,33.6c8.4-3,18.6-15.8,21.5-24.8c2.5-7.6,1.6-21.3,1.3-25.7
			C1915.3,441.3,1978.1,359.7,1978.1,349.5z"/>
	</g>
</g>
</svg>
