<?xml version="1.0" encoding="utf-8"?>
<!-- Generator: Adobe Illustrator 23.1.0, SVG Export Plug-In . SVG Version: 6.00 Build 0)  -->
<svg version="1.1" xmlns="http://www.w3.org/2000/svg" xmlns:xlink="http://www.w3.org/1999/xlink" x="0px" y="0px"
	 viewBox="0 0 458.3 445.6" style="enable-background:new 0 0 458.3 445.6;" xml:space="preserve">
<style type="text/css">
	.st0{display:none;}
	.st1{display:inline;}
	.st2{fill:#1B75B8;}
	.st3{fill:#FFFFFF;}
	.st4{display:inline;fill:none;stroke:#1A4850;stroke-miterlimit:10;}
	.st5{display:inline;fill:#BBDEFB;}
	.st6{display:inline;fill:#9DCCED;}
	.st7{fill:none;}
	.st8{display:none;fill:#1A4850;}
	.st9{font-family:'Raleway-Regular';}
	.st10{font-size:8.7px;}
	.st11{display:inline;fill:#1A4850;}
	.st12{clip-path:url(#SVGID_2_);}
	.st13{fill:#F7E1E1;}
	.st14{fill:#7C4EE6;}
	.st15{fill:#8C5EEB;}
	.st16{fill:#A68CE4;}
	.st17{fill:#FFD7D7;}
	.st18{fill:#DBC3C3;}
	.st19{display:inline;fill:#FFECB3;}
	.st20{display:inline;fill:#D6BA76;}
	.st21{display:inline;fill:#339999;}
	.st22{display:inline;fill:#7CCDD8;}
	.st23{display:inline;fill:#4FBDC6;}
	.st24{fill:#0E2D80;}
	.st25{fill:#DD8866;}
	.st26{fill:#996CEF;}
	.st27{fill:#B186F5;}
	.st28{fill:#1A4850;}
	.st29{fill:#F3A17A;}
	.st30{fill:#DD774E;}
	.st31{fill:#ED7D66;}
	.st32{fill:none;stroke:#1A4850;stroke-width:0.5865;stroke-linecap:round;stroke-miterlimit:10;}
	.st33{fill:#DBCDF9;}
	.st34{fill:#2595AE;}
	.st35{fill:#373C7A;}
	.st36{fill:#78CAD2;}
	.st37{fill:#FFC24E;}
	.st38{fill:#18093C;}
	.st39{fill:#070316;}
	.st40{fill:none;stroke:#1A4850;stroke-width:0.6818;stroke-linecap:round;stroke-miterlimit:10;}
	.st41{fill:#EF9C7B;}
	.st42{display:none;fill:#D14E4E;}
	.st43{fill:#D37676;}
	.st44{fill:#F49390;}
	.st45{fill:#D14E4E;}
	.st46{fill:#E56361;}
	.st47{fill:#F7F9FA;}
</style>
<g id="BACKGROUND" class="st0">
	<g class="st1">
		<rect x="-280.5" y="-25.5" class="st2" width="750" height="500"/>
	</g>
</g>
<g id="OBJECTS">
	<g class="st0">
		
			<image style="display:inline;overflow:visible;opacity:0.25;" width="3039" height="1958" xlink:href="E3AC8B09.png"  transform="matrix(0.24 0 0 0.24 -259.5275 -12.5937)">
		</image>
		<g class="st1">
			<rect x="-226.2" y="20.8" class="st3" width="642.3" height="382.8"/>
		</g>
	</g>
	<text transform="matrix(1 0 0 1 -191.3552 160.8103)" class="st8" style="font-family:'Cabin-Bold'; font-size:26.1098px;">CONTACST US</text>
	<g class="st0">
		<path class="st4" d="M-138.7,293.7h-44.8c-4.3,0-7.8-3.5-7.8-7.8v0c0-4.3,3.5-7.8,7.8-7.8h44.8c4.3,0,7.8,3.5,7.8,7.8v0
			C-130.9,290.2-134.4,293.7-138.7,293.7z"/>
		<text transform="matrix(1 0 0 1 -180.8423 288.5291)" class="st11" style="font-family:'Raleway-Bold'; font-size:8.276px;">Learn more</text>
	</g>
	<g class="st0">
		<path class="st5" d="M-7.2,72h-176.4c-4.3,0-7.7-3.5-7.7-7.7l0,0c0-4.3,3.5-7.7,7.7-7.7H-7.2c4.3,0,7.7,3.5,7.7,7.7l0,0
			C0.5,68.5-2.9,72-7.2,72z"/>
		<path class="st6" d="M-1.5,64.2c0,3.5-2.8,6.3-6.3,6.3c-3.5,0-6.3-2.8-6.3-6.3c0-3.5,2.8-6.3,6.3-6.3C-4.3,58-1.5,60.8-1.5,64.2z"
			/>
	</g>
	<rect x="-191.4" y="256.2" class="st7" width="193.3" height="10.6"/>
	<text transform="matrix(1 0 0 1 -191.3552 262.4246)" class="st8 st9 st10">Intellegam mediocritatem id nam. </text>
	<rect x="-191.4" y="185.2" class="st7" width="194.1" height="49.9"/>
	<text transform="matrix(1 0 0 1 -191.3552 191.3474)" class="st0"><tspan x="0" y="0" class="st11 st9 st10">Lorem ipsum dolor sit amet, nam etiam regione ei. </tspan><tspan x="0" y="17.4" class="st11 st9 st10">Intellegam mediocritatem id nam. Pri in tritani </tspan><tspan x="0" y="34.8" class="st11 st9 st10">consequat consetetur.</tspan></text>
	<g>
		<defs>
			<rect id="SVGID_1_" x="-226.2" y="20.8" width="642.3" height="382.8"/>
		</defs>
		<clipPath id="SVGID_2_">
			<use xlink:href="#SVGID_1_"  style="overflow:visible;"/>
		</clipPath>
		<g class="st12">
			<path class="st13" d="M341.4,3c-32.8-1-62.4,4.2-92.8,16.5c-8.7,3.5-17.2,8.2-23,15.5c-14.8,18.4,0.3,31,7.3,48
				c1.6,3.8,2.4,8,1.3,11.9c-1.3,4.6-5.2,8.1-9.5,10.2c-19.6,9.1-42.2,0.2-62.6,5.1c-17.2,4.1-31.7,12.8-34.9,31.1
				c-2.9,16.8,2.5,35.4-10.3,49.3c-22.2,24.1-61.2,26.1-81.6,51.8c-44.4,56,23.6,122.7,67.2,152.9c49.6,34.4,110.2,51,169.7,56.8
				c28.4,2.7,57.1,3,85.5,0.6c32.1-2.7,65.1-7.3,96.1-16.7c0,0-8-420.4-8-420.4c-1-8.8-60.6-9.8-67.5-10.4
				C366.3,4.3,353.9,3.4,341.4,3z"/>
			<path class="st3" d="M262.7,55.3c0,0,1.7-8,10.5-7.6c8.8,0.4,8.7,9.8,8.7,9.8s2.7-3.4,6.5,0c3.8,3.4,3.3,9,3.3,9s2.7-3.4,5,0
				c2.3,3.4,21.1,5.3,21.1,5.3s-17.3-0.8-19.7,2.6c-2.4,3.4-11.4,1.6-11.4,1.6s-9,7.5-16.8,3.7c-7.8-3.8-9.3-3.7-9.3-3.7
				s-10.9,1.8-14.7-1.6c-3.8-3.4,0-6.8,0-6.8s-7.2-0.9-6.8-3.5c0.4-2.6,12-4.1,12-4.1S252.1,53,262.7,55.3z"/>
			<path class="st3" d="M413.3,109.6c0,0-2.3-10.6-13.9-10.1c-11.6,0.6-11.5,13.1-11.5,13.1s-3.6-4.5-8.6,0c-5,4.5-4.3,12-4.3,12
				s-3.5-4.5-6.6,0c-3.1,4.5-28,7-28,7s22.9-1,26.2,3.5c3.2,4.5,15.1,2.1,15.1,2.1s12,9.9,22.3,4.9s12.3-4.9,12.3-4.9
				s14.5,2.4,19.5-2.1c5-4.5,0-9,0-9s9.5-1.2,9-4.6c-0.5-3.4-16-5.4-16-5.4S427.4,106.6,413.3,109.6z"/>
			<path class="st3" d="M209.2,120.7c0,0-0.8-3.8-5-3.6s-4.2,4.7-4.2,4.7s-1.3-1.6-3.1,0c-1.8,1.6-1.6,4.3-1.6,4.3s-1.3-1.6-2.4,0
				c-1.1,1.6-10.1,2.5-10.1,2.5s8.3-0.4,9.5,1.3c1.2,1.6,5.5,0.7,5.5,0.7s4.3,3.6,8.1,1.8c3.7-1.8,4.4-1.8,4.4-1.8s5.2,0.9,7-0.7
				c1.8-1.6,0-3.3,0-3.3s3.4-0.4,3.3-1.7c-0.2-1.2-5.8-2-5.8-2S214.3,119.6,209.2,120.7z"/>
			<path class="st14" d="M288.3,202.2c0,0,3.9-39.3-23.7-43.3c-27.6-4-40.8,27.6-40.8,27.6s5.6-68-25.6-68c-31.2,0-29.6,69-29.6,69
				s-41.2,6.4-44.9,37.9c-3.7,31.5-8.2,158.6-8.2,158.6h167.9L288.3,202.2z"/>
			<path class="st15" d="M421.8,252.4c0,0-3.5-30.3-32.7-19.9c0,0,13.2-69.4-19.6-79.3c-32.8-9.9-36,29.7-36,29.7
				s-34.2-6.5-47.5,17.4c-13.3,23.9-13.9,171.1-13.9,171.1l149.6-4.5V252.4z"/>
			<path class="st16" d="M37.6,307.2c0,0,2.8-24,25.9-15.8c0,0-10.5-55,15.5-62.9c26-7.9,28.6,23.5,28.6,23.5s27.2-5.2,37.7,13.8
				c10.5,19,11,135.8,11,135.8l-118.7-3.5V307.2z"/>
			<path class="st17" d="M457.2,344.9c0,0-316.3-0.8-327.5,15.6c-11.2,16.3-103.8,15.1-129.2,43.1c-25.4,28,456.6,14,456.6,14V344.9
				z"/>
			<path class="st18" d="M432,372.5H202c-1.8,0-3.3-1.5-3.3-3.3l0,0c0-1.8,1.5-3.3,3.3-3.3h230c1.8,0,3.3,1.5,3.3,3.3l0,0
				C435.3,371,433.9,372.5,432,372.5z"/>
			<path class="st18" d="M189,391.2H96.1c-1.8,0-3.3-1.5-3.3-3.3l0,0c0-1.8,1.5-3.3,3.3-3.3H189c1.8,0,3.3,1.5,3.3,3.3l0,0
				C192.3,389.7,190.8,391.2,189,391.2z"/>
			<g class="st0">
				<path class="st19" d="M96.3,92.2c0,0,4.1-7.1,6-8.3c1.9-1.2,9.9,11.8,9.9,14.4c0,2.6-3.6,10.8-4.9,10.6
					C106.1,108.7,97.2,96.2,96.3,92.2z"/>
				<path class="st20" d="M102.5,85.9c0,0,1.8,9.8,2.7,11.4c0.9,1.6,5.4,1.6,5.4,1.6s-4.5,0.6-5.8-0.9
					C103.6,96.5,102.5,85.9,102.5,85.9z"/>
				<path class="st20" d="M98.2,92.5c0,0,4.1,0.6,5.7,1.5l0.4,0.8C104.3,94.7,103.9,94.2,98.2,92.5z"/>
				<path class="st20" d="M107.1,99c0,0,0.5,3.2,0.3,7.4c0,0,0.4-3.5,0.3-7.4H107.1z"/>
			</g>
			<g class="st0">
				<path class="st21" d="M93.2,81.3c0,0,5.9-19.2,16.3-23.3c0,0-1.1-1.4-3.5,0.5c0,0-0.6-1.2-1.9-0.9s-3.5,2.1-3.5,2.1
					s0.2-2.6-1.6-1.5c-1.8,1.1-2.8,2.9-2.8,2.9s-0.9-2-1.8-0.9c-0.9,1.1-1.7,3.5-1.7,3.5s-0.5-2.9-1.5-1.8c-1,1.1-0.9,4-0.9,4
					s-1-2.6-1.9-1.6c-0.9,1,0.1,5.4,0.1,5.4s-1.6-1.4-1.3,2.2c0.3,3.6,2.8,4.7,2.8,4.7s-1.6-1.3-1.7,0.5
					C88,78.9,91.2,82.3,93.2,81.3z"/>
				<path class="st22" d="M98.2,78.9c1.8-0.4,4.1,0.6,4.4,2.7c0.2,1.5-0.9,2.9-2.4,2.9c-1.6,0.1-2.7-1.5-4.2-1.3
					c-2.2,0.3-4.2,3.2-10.5,2.7c-6.2-0.5-8.3-8.1-8.8-10.7c-0.5-2.6-5.2-7-6.6-7.2s-0.9-2.4,1.4-1.4c0,0-1.4-1.8-0.9-2.7
					c0.6-0.8,2.3-0.1,2.3-0.1s-0.7-2-0.1-2.2c0.7-0.2,2.6,1.4,2.6,1.4s-0.7-2.9,0.4-2.6c1.1,0.3,1.2,2.3,1.2,2.3s1.2-1.2,1.5-0.6
					c0.4,0.6-1.6,5,1.3,9.8c2.1,3.5,6.7,5.4,10.4,6.4c1.6,0.4,3.2,0.7,4.8,0.8c0.7,0,1.4,0,2-0.1C97.5,79,97.9,78.9,98.2,78.9z"/>
				<path class="st23" d="M90.8,81.8c0,0-5.4-19.4,1.2-28.4c0,0-1.7-0.6-2.7,2.3c0,0-1.1-0.7-2,0.3c-0.9,1-1.8,3.7-1.8,3.7
					s-1.2-2.3-2.2-0.4c-1,1.9-0.8,4-0.8,4s-1.9-1.2-2,0.2c-0.1,1.4,0.5,3.8,0.5,3.8s-2-2.1-2.2-0.7c-0.2,1.5,1.5,3.9,1.5,3.9
					s-2.3-1.7-2.5-0.3c-0.2,1.4,3,4.5,3,4.5s-2.1-0.3,0.1,2.5c2.2,2.8,4.9,2.4,4.9,2.4s-2.1-0.2-1.2,1.3
					C85.1,82.5,89.6,83.8,90.8,81.8z"/>
				<path class="st23" d="M102.5,82.8c0,0,0.9,1.7,0.7,1.9c-0.2,0.2-1.6-0.5-1.6-0.5s-0.1,1.7-0.3,1.5c-0.2-0.2-1-1.2-1-1.2
					S101.9,83.8,102.5,82.8z"/>
				<path class="st21" d="M100.9,82c0.1,0.2,0,0.5-0.3,0.6c-0.2,0.1-0.5,0-0.6-0.3c-0.1-0.2,0-0.5,0.3-0.6
					C100.5,81.6,100.8,81.7,100.9,82z"/>
			</g>
			<g>
				<path class="st3" d="M278.8,368.4v-2.9c0-2.7-2.5-8.5-2.5-10.3c0-1.8-7,1.5-7,1.5s-0.1,3.6-2.4,6.1c-1.5,1.6-1.7,4.1-1.7,5.6
					H278.8z"/>
				<path class="st3" d="M228.9,368.4c0-6.6-2.5-13-2.5-13s-6.3-3-7.6,2.1c-1.3,5-7.8,6.2-11.1,6.6c-2.4,0.3-2.7,2.9-2.6,4.3H228.9z
					"/>
				<path class="st24" d="M264.3,238.9l13.5,121.6c0,0-3.7-3.1-9.1-0.9c0,0-21.3-92.5-30.7-100.7
					C228.6,250.7,264.3,238.9,264.3,238.9z"/>
				<path class="st25" d="M227.2,157.5c-8,4.6-18.6,36.5-18.2,46.9c0.4,10.4,8,30.5,8,30.5l5.2-6.9c0,0-3.8-24.7-3.6-26
					c0.2-1.2,8.6-24.6,8.6-24.6V157.5z"/>
				<path class="st26" d="M230.7,155c-5,2.7-10.3,4.6-17.4,26.3c0,0,3.7,7.2,10.2,7.9C230.1,189.9,230.7,155,230.7,155z"/>
				<path class="st24" d="M222.6,216.8c0,0-7.7,13.3-7.3,19c0.4,5.6,1.6,19.6,1.6,19.6l49.1,2c0,0,0.2-32.4-4.7-38.4
					C256.5,212.8,222.6,216.8,222.6,216.8z"/>
				<path class="st27" d="M218.6,224.6c0,0,2.2-59.2,6.5-64.7c4.3-5.5,10.7-8.2,23.3-7.6c12.6,0.6,22.1,8.3,23.2,14
					c1.2,5.7-6.7,61.4-6.7,61.4S231.8,245.8,218.6,224.6z"/>
				<g>
					<path class="st28" d="M241.5,121.6c0,0-4.9,3.6-2.8,11.5c2.1,7.9,6.7-9.6,6.7-9.6L241.5,121.6z"/>
					<path class="st29" d="M257.9,136.8c-3.4,12.7-17.4,10.5-19.2,5c-0.6-1.8-0.8-4.8-0.5-7.9c0.1-0.7,0.1-1.4,0.2-2.1
						c0.7-4.8,2.5-9.4,5.4-9.9C254.1,120,261.2,124.2,257.9,136.8z"/>
					<path class="st28" d="M248.3,131.7c-0.1,0.7-0.6,1.2-1,1.2c-0.4-0.1-0.6-0.7-0.5-1.4c0.1-0.7,0.6-1.2,1-1.2
						C248.2,130.4,248.5,131,248.3,131.7z"/>
					<path class="st28" d="M241.7,131.1c-0.1,0.7-0.6,1.2-1,1.2c-0.4-0.1-0.6-0.7-0.5-1.4c0.1-0.7,0.6-1.2,1-1.2
						C241.6,129.7,241.8,130.3,241.7,131.1z"/>
					<path class="st30" d="M242.7,132.4c0,0-2,2.5-3.2,1.8c-1.2-0.7-0.8,2.6,2.9,2.2C242.4,136.4,243.6,134.9,242.7,132.4z"/>
					<path class="st31" d="M250.7,134.5c0.1,0.6-0.5,1.2-1.2,1.2c-0.7,0.1-1.4-0.3-1.5-0.9c-0.1-0.6,0.5-1.2,1.2-1.2
						C250,133.5,250.6,133.9,250.7,134.5z"/>
					<path class="st31" d="M239.8,133.5c-0.2,0.5-1,0.7-1.6,0.4c0.1-0.7,0.1-1.4,0.2-2.1c0.2,0,0.4,0.1,0.6,0.2
						C239.7,132.3,240,133,239.8,133.5z"/>
					<path class="st32" d="M247.4,126.8c0,0,1.6,0,2.4,1"/>
					<path class="st32" d="M241.8,126.6c0,0-1.5-0.2-1.8,0.6"/>
					<path class="st28" d="M256.9,122c0,0-5.2-4.8-11.5-3.7c-6.3,1.1-6.3,4.2-3.5,6.2c2.8,2,13,3.1,13,3.1l0.7,9.9l-1.8,4.5
						l-0.1,1.5c0,0,5.1-0.8,6.9-9.8C262.4,124.7,256.9,122,256.9,122z"/>
					<path class="st29" d="M255.2,136c0,0,2.5-2.1,4.2-0.2c1.7,1.9-2.4,5.8-4.5,5.2C252.9,140.4,255.2,136,255.2,136z"/>
					<path class="st28" d="M240.5,138.1c0,0,3,0.6,4.2,0.4c1.2-0.2,0,1.5-2.4,1.3C240,139.6,240.5,138.1,240.5,138.1z"/>
					<path class="st33" d="M259.9,136.4c0,0,2.2-3.7-2-9.2c-0.1-0.2-0.2-0.3-0.4-0.5c-4.7-5.7-15.1-7.5-15.1-7.5s3.8-6.3,10.8-5
						c4,0.8,6.8,2.7,8.6,5.4c1.3,2,2.1,4.5,2.3,7.2C264.6,133.4,259.9,136.4,259.9,136.4z"/>
					<path class="st3" d="M261.8,119.7c-0.7,3.2-3.9,7.5-3.9,7.5c-0.1-0.2-0.2-0.3-0.4-0.5c-4.7-5.7-15.1-7.5-15.1-7.5
						s3.8-6.3,10.8-5C257.2,115,260,117,261.8,119.7z"/>
					<path class="st33" d="M240.2,121.1c0,0-3.7-4.7-1.3-6.8c2.4-2.1,10.5,0.1,14.3,2.8c3.8,2.6,4.3,9.6,4.3,9.6
						S245.1,116.7,240.2,121.1z"/>
				</g>
				<path class="st25" d="M242.2,145.2l0.9,11.4c0,0,2.9,2,10.3-1.3c0,0-2.1-8.9,2.1-14.3c0,0-1.1,0.1-1.3-1.2
					C254.1,139.8,250.9,147.2,242.2,145.2z"/>
				<path class="st29" d="M271.1,165.1c0,0-7,11.4-7.6,19.7c-0.6,8.3,6.5,18.2,8.1,24.6c0,0-5.2,14.9-11.1,21.3c0,0,2.5,6.6,3.7,8.1
					c0,0,15.3-13.8,18.5-25.1C285.9,202.5,271.1,165.1,271.1,165.1z"/>
				<path class="st26" d="M270.4,163.4c0,0-7.3-2.5-8.6,18.4c-0.4,6.1,4,14.5,4,14.5s5.9-6.1,14.3-4.1
					C280.1,192.1,276.5,167.8,270.4,163.4z"/>
				<path class="st24" d="M215.3,235.7c0,0-6.3,56.7,3.4,121.8c0,0,4.5,1.1,8.5,0.5c0,0,1.7-94,10.8-99.2c9.1-5.2-21-24-21-24"/>
			</g>
			<g>
				<path class="st34" d="M326,368.6v-2.3c0-2.7-2.5-7.6-2.5-9.4s-7,1.5-7,1.5s-0.1,2.7-2.4,5.2c-1.8,1.9-1.8,4.4-1.7,5.1H326z"/>
				<path class="st34" d="M278.3,368.6l1.2-0.6l0.6,0.6h4.6c0.5-1.3,2-6.4,0.6-9.9c-1.6-4.1-6.7-3-6.7-3s-3.4,4.8-5.4,5.6
					c-2,0.9-9.6,3.9-10.5,5.9c-0.3,0.6,0.2,1,0.1,1.3H278.3z"/>
				<path class="st35" d="M293.8,217.5c-2.6,37.9-9.8,87.7-17.5,140c0,0,1.5,2.5,10.1,1.2l26.6-111c0.1-0.3,0.4-0.5,0.7-0.5
					c0.4,0,0.7,0.3,0.8,0.7c0.3,8.4,3,34,1.5,111.2c0,0,4.5,2.5,9.4,0c0,0,17.1-114.2,13.2-136L293.8,217.5z"/>
				<path class="st34" d="M306,148.7c-9.6,3.5-22.1,21-24.1,32.9c-2,11.9,7.5,9.3,13,1.7C300.4,175.8,306,148.7,306,148.7z"/>
				<path class="st36" d="M291.2,197.8c0,0,2.5-43,13.5-48.4c12.2-6,29.9-2.8,37.1,3.6c6.3,5.6-1.3,41.5-1.5,54.7
					c-0.2,13.2,0.7,16.8,0.7,16.8s-37.5,12.5-49.1-2.6L291.2,197.8z"/>
				<g>
					<path class="st25" d="M316,139.7c0,0,0.7,4.3-0.6,9.1c0,0,2.5,4,11.3-0.1c0,0-0.2-8.7,1.4-12.3l-0.5-1
						C322.8,141.3,316,139.7,316,139.7z"/>
					<path class="st29" d="M316.1,114.8c3.6-5.8,16.6,3.2,16.3,7.7c-0.3,4.5-3.9,18-14,17.7C307.8,139.9,312.8,120.1,316.1,114.8z"
						/>
					<path class="st28" d="M322.5,126.1c-0.2,0.7-0.7,1.2-1.1,1.1c-0.4-0.1-0.6-0.8-0.4-1.5c0.2-0.7,0.7-1.2,1.1-1.1
						C322.5,124.7,322.7,125.3,322.5,126.1z"/>
					<path class="st28" d="M315.4,124.8c-0.2,0.7-0.7,1.2-1.1,1.1c-0.4-0.1-0.6-0.8-0.4-1.5c0.2-0.7,0.7-1.2,1.1-1.1
						C315.4,123.4,315.6,124.1,315.4,124.8z"/>
					<path class="st31" d="M324.8,129.1c0,0.6-0.6,1.1-1.4,1.2c-0.8,0-1.5-0.4-1.5-1.1c0-0.6,0.6-1.1,1.4-1.2
						C324.1,128,324.8,128.5,324.8,129.1z"/>
					<g>
						<path class="st37" d="M324.4,122.5c-0.1,0-0.2,0-0.2-0.1c-0.8-1-2.3-1.1-2.3-1.1c-0.2,0-0.3-0.2-0.3-0.3
							c0-0.2,0.2-0.3,0.3-0.3c0.1,0,1.8,0.2,2.7,1.4c0.1,0.1,0.1,0.3-0.1,0.4C324.6,122.5,324.5,122.5,324.4,122.5z"/>
					</g>
					<g>
						<path class="st37" d="M313.9,121.1C313.9,121.1,313.9,121.1,313.9,121.1c-0.3-0.1-0.3-0.2-0.3-0.4c0.4-1.1,2.1-0.7,2.3-0.7
							c0.2,0,0.3,0.2,0.2,0.4c0,0.2-0.2,0.3-0.4,0.2c-0.4-0.1-1.4-0.2-1.6,0.3C314.2,121,314.1,121.1,313.9,121.1z"/>
					</g>
					<path class="st28" d="M313,131.4c0,0,1.2,2.3,7.1,1.3C320.1,132.7,314.1,135.1,313,131.4z"/>
					<path class="st30" d="M316,127.3c0,0-5.6-2.4-5.6-1c0,1.5,4.9,2.7,4.9,2.7S316.1,128.6,316,127.3z"/>
					<path class="st37" d="M328,117.3c0,0-6.6,0.8-8.6-0.1c-2-0.9,1.8-1,1.8-1s-7,0.4-8.4-0.2c-1.4-0.7,2.6-2.4,2.6-2.4
						s-1.6-0.5-0.9-1.1c0.8-0.5,6-2.7,13.1-0.3c7,2.4,9.6,8.7,6.8,16.3c-2.1,5.7-6.3,7.8-6.3,7.8l-0.5-1c0,0,0.6-4.1,0.2-5.5
						C327.2,128.1,326.6,119.2,328,117.3z"/>
					<path class="st29" d="M327.9,130.6c0,0,3.2-4.1,4.6-0.8c1.4,3.3-3.8,6.2-5,5.7C326.4,134.9,327.9,130.6,327.9,130.6z"/>
				</g>
				<path class="st34" d="M342.8,154.3c-3.5-4.4-14.2,20-15.7,29.1c-1.5,9,6.6,11.5,6.6,11.5S353.3,167.5,342.8,154.3z"/>
				<path class="st29" d="M309.2,188.8c0,0-1.3,0.3-3.3,0.6c-7,1.2-22.8,3.1-23.9-2.5c-0.8-3.9,1.2-6.6,3.2-8.3
					c0.4-0.3,0.8-0.6,1.1-0.9c1.3-0.9,2.3-1.3,2.3-1.3C296.7,175.7,309.2,188.8,309.2,188.8z"/>
				<path class="st34" d="M326.7,144.2c0,0-3.3,3.9-7,4l-2.1,2.1l-1.1-2.4c0,0-0.7-1.8-0.4-3.3c0,0-5.1,1.3-6.7,8.3
					c0,0,3.1-3.8,5.2-4.2l2.6,3.3l2.1-0.9l2.4,4.6c0,0,7.7-5.3,9.1-7.9C330.8,147.8,328.4,144.2,326.7,144.2z"/>
				<path class="st25" d="M285.6,177.7C285.6,177.7,285.6,177.7,285.6,177.7c-0.1,0.1-0.1,0.2-0.2,0.4L285.6,177.7z"/>
				<path class="st25" d="M309.2,188.8c0,0-1.3,0.3-3.3,0.6c-7.7-2.7-11.4-10.1-13.1-10.8c-1.7-0.7-5.1-0.8-6.5-0.9
					c1.3-0.9,2.3-1.3,2.3-1.3C296.7,175.7,309.2,188.8,309.2,188.8z"/>
				<path class="st29" d="M327.3,182.4c0,0,10.6,3.9,6.4,12.5c-4.1,8.6-39.4-14.2-41.8-18.2l-3.4-0.3c0,0-0.5-0.7,0.6-2.3
					c1.1-1.6,4-2.7,4.6-2.4c0.7,0.3,2.5,2.4,2.5,2.4S317,181.4,327.3,182.4z"/>
				<path class="st25" d="M320.6,181.2c0,0,1.7-1,2.7-0.9c1,0,2.2-0.9,2.7-1c0.5-0.1,2.8-0.1,3.5,0.4c0.8,0.5,1.8,1.1,1.1,1.8
					c-0.8,0.8-1.4-0.8-3.1-0.7c0,0,1.4,1.1,1.8,2.4c0.5,1.3-0.2,1.7-1.2,0.9c-1-0.9-2.4-2-2.4-2s0,0.5,0,1.4
					C325.7,184.4,322.5,181.3,320.6,181.2z"/>
			</g>
			<g>
				<g>
					<path class="st25" d="M188.7,250.1c0,0-1.4,2.2-1.8,3.2c-0.4,1.3-0.2,4.3-0.2,4.3s0.1,0.3,0.5,0c0.7-0.4,0.1-2.1,1.1-2.6
						C189.4,254.6,188.7,250.1,188.7,250.1z"/>
					<path class="st29" d="M196,246.5c0,0-5.5-0.7-6.8,0.9c0,0-0.9,4.5-1.4,6c-0.6,1.6-0.3,7.2,0.6,8.1c2.3,2.6,2.4,2.4,2.9,1.8
						c0.5-0.6-1.4-2-1.5-2.8c-0.1-0.4,0.5-2.3,0.5-2.3c0,0.8,0.4,2.1,1.3,2.6c1.1,0.6,2,1.3,2.5,1c1-0.6-1.5-2.1-1.4-2.8
						c0.1-0.3,0.3-1.9,0.3-1.9c0.3,0.5,0.3,1.3,0.6,1.7c0.4,0.5,2.4,1.9,2.8,1.4c0.6-0.8-1.3-1.9-1.3-2.7c0-0.3,0.3-1.6,0.3-1.6
						s0.5,1,0.8,1.3c0.4,0.3,2.2,1.2,2.3,0.8c0.3-1.1-1.5-1.5-1.7-3c-0.1-1.3,0.4-4.2-0.3-5.5S196,246.5,196,246.5z"/>
				</g>
				<path class="st38" d="M169.6,387.9v-2.7c0-3.1-2.9-8.8-2.9-10.9c0-2.1-8.1,1.7-8.1,1.7s-0.1,3.2-2.8,6.1c-2.1,2.2-2.1,5.1-2,5.8
					H169.6z"/>
				<path class="st38" d="M114.5,387.9l1.4-0.7l0.7,0.7h5.3c0.5-1.5,2.3-7.4,0.7-11.4c-1.9-4.7-7.7-3.4-7.7-3.4s-4,5.5-6.3,6.5
					c-2.3,1-11.1,4.5-12.1,6.8c-0.3,0.7,0.2,1.1,0.1,1.5H114.5z"/>
				<path class="st35" d="M132.4,213.1c-3,43.9-11.3,101.4-20.3,161.9c0,0,1.8,2.9,11.7,1.4l30.7-128.5c0.1-0.3,0.5-0.6,0.8-0.6
					c0.5,0,0.9,0.4,0.9,0.8c0.4,9.7,3.5,39.3,1.8,128.6c0,0,5.2,2.9,10.8,0c0,0,19.8-132.1,15.2-157.3L132.4,213.1z"/>
				<path class="st39" d="M137.7,137.2c0,0-7.2,2.4-18.7,14.3c-9.4,9.8-11.9,6.4-11.9,6.4s-2.4-14.3,1.5-33c0,0-4.9,0.3-6.1-2.8
					c0,0-11.6,38.2-6,47.7c5.6,9.5,35.7-6.4,35.7-6.4L137.7,137.2z"/>
				<path class="st3" d="M184.8,228.1c0,0-8.4,8.8-33,4.9c-14-2.2-20.3-9-20.3-9s-4.5-76.1,0.5-82.6c3.6-4.7,10.6-6.7,19.8-7.1
					c3.5-0.2,7.2-0.1,11.3,0c3,0.1,5.8,0.6,8.4,1.3c10.3,2.9,17.5,9.6,18.6,14.9C191.5,157.3,184.8,228.1,184.8,228.1z"/>
				<path class="st28" d="M164.4,134.4c0,0,4.4,2.6,4.3,6.6c0,0,1.5-9.1-2-10.5C163.2,129.2,164.4,134.4,164.4,134.4z"/>
				<g>
					<path class="st29" d="M174.2,117.6c-5.8,14.1-21.6,9.6-22.9,3c-0.4-2.1-0.2-5.6,0.6-9.2c0.2-0.8,0.4-1.6,0.6-2.4
						c1.5-5.5,4.2-10.5,7.7-10.7C172.3,97.7,179.9,103.5,174.2,117.6z"/>
					<path d="M156.3,100.4c0,0,7.7-2.8,16.3,3.2c0,0-0.7,8.9-1.4,12.7c0,0,3.2,2.5-2.7,8.6c0,0,4.8,1.2,10-10.9
						c4.5-10.5-2.4-12.3-2.4-12.3s0.3-7-7.4-8.4c-7.7-1.4-11.8,0.2-12-3.6C156.5,85.9,147.6,96,156.3,100.4z"/>
					<path class="st28" d="M163.9,110.4c-0.3,0.8-0.8,1.3-1.3,1.2c-0.4-0.1-0.6-0.9-0.4-1.7c0.3-0.8,0.8-1.3,1.3-1.2
						C164,108.8,164.2,109.5,163.9,110.4z"/>
					<path class="st28" d="M156.3,108.6c-0.3,0.8-0.8,1.3-1.3,1.2c-0.4-0.1-0.6-0.9-0.4-1.7c0.3-0.8,0.8-1.3,1.3-1.2
						C156.4,107.1,156.6,107.8,156.3,108.6z"/>
					<path class="st30" d="M157.3,110.3c0,0-2.7,2.6-4,1.6c-1.3-0.9-1.3,2.8,3.1,2.9C156.4,114.9,158,113.3,157.3,110.3z"/>
					<path class="st28" d="M153.7,115.9c0,0-0.2,1.5,2.5,2c2.6,0.5,4.8-0.6,4.8-0.6s-2,5-5.9,3.7
						C151.9,120.1,153.7,115.9,153.7,115.9z"/>
					<ellipse class="st31" cx="164.7" cy="113.9" rx="1.6" ry="1.3"/>
					<path class="st31" d="M153.8,111.2c-0.4,0.6-1.2,0.7-1.9,0.2c0.2-0.8,0.4-1.6,0.6-2.4c0.2,0,0.5,0.1,0.7,0.3
						C153.9,109.8,154.2,110.6,153.8,111.2z"/>
					<path class="st40" d="M163.6,104.6c0,0,1.8,0.3,2.7,1.5"/>
					<path class="st40" d="M157.1,103.5c0,0-1.8-0.5-2.1,0.4"/>
					<path class="st29" d="M171.2,116.3c0,0,3.2-2,4.9,0.4c1.6,2.4-3.6,6.3-5.9,5.4C167.9,121.1,171.2,116.3,171.2,116.3z"/>
				</g>
				<path class="st25" d="M154.8,125.1l-0.6,13.3c0,0,3,2.8,12.1,0c0,0-1.1-10.6,4.5-16.2c0,0-0.9-0.2-2.4-0.5
					C168.3,121.7,164.7,128.6,154.8,125.1z"/>
				<path class="st29" d="M112.6,113.9c0,0-0.8,3.9-0.8,5.8s-1.1,7-5.6,6.3c-4.5-0.7-7.7-10.1-7.7-10.1c-0.6-3.7,1.9-5.6,1.9-5.6
					c-0.3-1.7,1.9-3.4,1.9-3.4l0.5-2.9c3.2,0.6,1.2,2.9,2.2,7.2c0.3,1,1.8,2.8,2.4,3.7h0c0.8,1.3,1.7,2.4,1.7,2.4s0,0,0,0
					c0.1-0.2,1.4-2.4,2.3-3.4C112.4,112.9,112.6,113.9,112.6,113.9z"/>
				<path class="st25" d="M99.4,114.2c0,0,1.1-1.9,1.8-1.6c0,0,0.5,0.8,0.3,1.6c-0.2,0.8-1.1,1.6-0.5,3.6c0.6,2,4.6-4.9,4.6-4.9
					c-1.6,1-2.8-2.1-2.2-3.4c0.5-1.3,0.4-2.1,0.1-2.6c-0.3-0.5-1,0-1,0s0.4,0.2,0.6,0.7c0.2,0.4,0.3,2.5-0.1,3.1
					c-0.4,0.6,0.2-0.7-0.5-0.8c-0.7-0.2-1.2,0.3-1.2,0.3s0.8,0,0.8,0.7c0,0.7-0.5,1.7-0.5,1.7S100.2,110.9,99.4,114.2z"/>
				<path class="st25" d="M109.2,117.3c0,0-2.3-0.1-2.4,2.1c-0.1,2.2-1.7,2.3-1.7,2.3s-0.4-5.1,2.4-6.8h0
					C108.3,116.2,109.2,117.3,109.2,117.3z"/>
				<path class="st38" d="M186.6,237c0,0-13.7,0.5-21.7-8.8c-7.7-9-6.4-69.2-5.2-77c0,0,4.2-4.6,7.7-7.3c3.1-2.3,4-7,4.1-8.2
					c10.3,2.9,17.5,9.6,18.6,14.9C191.5,157.3,186.6,237,186.6,237z"/>
				<path class="st38" d="M151.9,134.3c-1.4,2.2-4,7.2-4.8,14.4c-0.5,4.9-2.7,66.2-6.6,74.5c-1.7,3.6-11.4,10.9-11.4,10.9
					s-2-86.2,2.9-92.6C135.6,136.8,142.7,134.8,151.9,134.3z"/>
				<path class="st39" d="M166.7,130.6c0,0,7.3,0.1,9.1,7.6c1.8,7.5-7.7,13.3-7.7,13.3s-1.6-4-3.7-4c-2.1,0-4.7,3.6-4.7,3.6
					s2-4.5,5-6.8C167.7,142,170.5,135.5,166.7,130.6z"/>
				<path class="st39" d="M154.6,130.2c0,0-10.8,1.9-15,12.7c0,0,2.6-1.1,4.3,0c1.7,1.1,3.1,5.9,3.1,5.9s1.7-11.6,7.3-14.5
					L154.6,130.2z"/>
				<path class="st39" d="M187.3,145.2c0,0-6.9,12.3-6.3,20.3c0.3,3.8,7.4,34.5,7.4,34.5s-1.7,39,0.9,47.8c0,0,5.7-0.2,7-1.4
					c0,0,6.4-24.4,5.1-48.3C200.1,174.8,192.8,150.4,187.3,145.2z"/>
			</g>
			<g>
				<path class="st41" d="M338.8,367.7c0.5-0.5,1.1-1.2,1.8-2.3c1.4-2.3,4.2-1.8,4.2-1.8c0.9,0.7,1,4.1,1,4.9h1.1
					c0.4-1,1.7-5.3,1.3-7c-0.3-1.3-1.3-4.4-1.7-5.8c-0.1-0.4-0.2-0.8-0.2-1.2c1.2-5,5.3-22,12.4-35.7c5.7-10.9,7.5-15.2,8.6-25
					c1.1-9.8,10-34.2,10-34.2s-12.5-34-17.7-12.8c-5.2,21.1-5.8,47-6.7,52.2c-0.9,5.2-8.6,41.4-13.2,56.6c-0.9,2.9-5.2,8.7-6.8,10
					c0,0,0,0,0,0c-0.2,0.1-1.3,0.4-2.2,1.2c-0.3,0.2-0.5,0.5-0.8,0.9H338.8z"/>
				<path class="st38" d="M338.8,368.6c0.9,0,2.7-1.9,3.9-2.9c1.2-0.9,1.8-0.9,1.8-0.9c0.9,0.7,1.2,2.9,1.2,3.7h1.1
					c0.4-1,1.7-5.3,1.3-7c-0.3-1.3-1.1-3.1-1.3-5.6c-3.3-1.9-6.2,4.5-10.5,8.2c-2.2,1.8-3.5,1.5-3.5,1.5s0,0,0,0
					c-0.2,0.1-1.5,0.2-2.7,0.8c-1.8,1.1-1.8,1.7-2.1,2.1H338.8z"/>
				<path class="st29" d="M398.8,253.6c1.4,21.5-2.7,26.9-4.3,35.7c-1.2,6.7,2.2,16.4-1.2,27.2c-2.3,7.2-7.4,37.6-7.4,37.6v12.6
					h-8.5c0,0,3.4-14,3.4-19.3c0-22.7,3.1-49.8,2.7-60.1c-0.5-10.1-3.8-29.9-3.8-29.9L398.8,253.6z"/>
				<path class="st38" d="M388.2,220.5c0,0,13.2,11.6,12,43.5c0,0-11.7,2.7-27.8,2c-13.5-0.6-17.6-3.1-17.6-3.1
					c0.8-19.5,8.8-43.6,8.8-43.6S375.7,214.7,388.2,220.5z"/>
				<path class="st42" d="M378.4,138.6c0,0-4.8,0.3-4.8,5.9c0.1,5.5,0.6,13.6-1.5,17.4c-2.1,3.7-0.3,12,10.8,11.8
					c11.1-0.2,16.5,2.1,16.4-1.3C399.2,169,378.4,138.6,378.4,138.6z"/>
				<path class="st43" d="M375.8,166.9c-3.3-3.4-9.4-1.6-18.8,16.6c-7.4,14.3-1.8,19.8,1.8,18c3.7-1.8,13.2-12.9,13.2-12.9
					L375.8,166.9z"/>
				<path class="st44" d="M375.8,166.9c0,0,5.3,4.8,13,6.5c7.6,1.8,10.8-2.9,14.7,2c5.9,7.4-3.7,21-8.7,28
					c-1.9,2.6-5.8,9.9-6.6,16.9c0,0-13.2,3.8-24.7-1.1l-0.9-16.2C362.7,203.1,355.5,181.2,375.8,166.9z"/>
				<path class="st29" d="M355.3,193.2c1.7-4.3,30.3-13.3,30.3-13.3l2,3.1c0,0-23.8,18.9-28.7,18.4
					C353.9,201,353.7,197.2,355.3,193.2z"/>
				<path class="st43" d="M401.5,173.7c0,0-4.8,2.2-5.4,13.6c-0.4,7.8-4.2,21.4-4.2,21.4c3.4,10.3,7.6,4.5,8.6,2.5
					C407.1,199,412.5,177.6,401.5,173.7z"/>
				<g>
					<path class="st29" d="M395.3,140.6c0,0-14.6-4.9-17.5,5.4c-2.9,10.3,0,21,7.9,20.8C395.4,166.4,406.7,146.4,395.3,140.6z"/>
					<path class="st28" d="M385.6,152.4c0,0.7-0.4,1.2-0.8,1.1c-0.4,0-0.7-0.6-0.7-1.2c0-0.7,0.4-1.2,0.8-1.1
						C385.4,151.1,385.7,151.7,385.6,152.4z"/>
					<path class="st31" d="M388,155c0.1,0.6-0.5,1.2-1.3,1.3c-0.8,0.1-1.4-0.4-1.5-1c-0.1-0.6,0.5-1.2,1.3-1.3
						C387.2,154,387.9,154.4,388,155z"/>
					<path class="st28" d="M386,152.2c0,0-0.3-1.5-0.9-1.6c-0.5,0-1.4,1-1.4,1l-1-0.7l1,0.4c0,0,0.8-1.2,1.6-0.9
						C386,150.6,386,152.2,386,152.2z"/>
					<path class="st28" d="M379.5,151.4c0,0.7-0.4,1.2-0.8,1.1c-0.4,0-0.7-0.6-0.7-1.2c0-0.7,0.4-1.2,0.8-1.1
						C379.2,150.2,379.5,150.7,379.5,151.4z"/>
					<path class="st28" d="M379.9,151.2c0,0-0.3-1.5-0.9-1.6c-0.5,0-1.4,1-1.4,1l-1-0.7l1,0.4c0,0,0.8-1.2,1.6-0.9
						C379.9,149.6,379.9,151.2,379.9,151.2z"/>
					<g>
						<path class="st45" d="M386.8,148.7c-0.1,0-0.2-0.1-0.2-0.1c-0.6-1-1.8-0.8-1.8-0.8c-0.2,0-0.3-0.1-0.3-0.3
							c0-0.2,0.1-0.3,0.3-0.3c0.1,0,1.6-0.1,2.4,1.1c0.1,0.1,0,0.3-0.1,0.4C386.9,148.7,386.9,148.7,386.8,148.7z"/>
					</g>
					<g>
						<path class="st45" d="M380.1,147.2c-0.1,0-0.1,0-0.2-0.1c-0.9-0.7-1.9-0.3-2-0.2c-0.2,0.1-0.3,0-0.4-0.2
							c-0.1-0.2,0-0.3,0.2-0.4c0.1,0,1.4-0.6,2.6,0.3c0.1,0.1,0.1,0.3,0,0.4C380.3,147.1,380.2,147.2,380.1,147.2z"/>
					</g>
					<path class="st30" d="M379.9,153.3c0,0-2.6,0-2.4,0.9s1.8,2.1,1.8,2.1S380.5,154.4,379.9,153.3z"/>
					<path class="st28" d="M378.6,158c0,0,2.2,1.4,6.1,0.2c0,0-1.2,4.6-3.6,4C378.6,161.5,378.6,158,378.6,158z"/>
					<path class="st45" d="M389.5,145.9c0,0,3.3,4.3,3.2,9.8c0,0,2.5-3,3.7-0.4c1.3,2.6-3.9,6.4-3.9,6.4s0.1,6.6,2.3,6.7
						c2.3,0.1,8.2-12.6,6.9-16.9C400.5,147.2,396.4,142.9,389.5,145.9z"/>
					<path class="st25" d="M392.4,159.4c-1.1,3-5.4,8.2-10,6.8c0,0,0.6,3-1.3,4.6c0,0-1.3,1.3,0.7,2.6c6.1,4.1,10.3,1.2,10.9,0.1
						L394,160C392.8,160.8,392.4,159.4,392.4,159.4z"/>
					<path class="st46" d="M376.5,139.9c0,0,0.4,3.9,6.2,6.1c5.8,2.2,10.6,2.8,11.2,7.9c0.6,5.1-4.8,11.5-2.4,18.5
						c1.6,4.5,7.8,2.1,10,1.9c1-0.1,2.4,0.9,2.4,0.9s2.3-3.5-1.1-7.7c-2.1-2.6,1.4-12.2,0.4-17.4c-1-5.1-1.9-6-4.7-10.9
						c-2.8-4.9-13.4-5.4-16.1-2.1C382.5,137,376.5,134.4,376.5,139.9z"/>
				</g>
				<path class="st29" d="M400.8,209.5c1.7-7.5-2.3-6.3-4.4-29.6l-3.5,0.8l-0.4,4.9c0,0-2.6,19.4,0,25.2
					C395.2,216.6,399.8,214.1,400.8,209.5z"/>
				<g>
					<path class="st29" d="M384.6,180.2c0,0,1-6.8,2.1-8.5c1.1-1.7,2.9-4.5,2.9-4.5s1.2-0.7,0.1,2.8l1.2-0.6c0,0,0.6,0.9-0.1,2.5
						c0,0,0.2,0.5-0.1,1c0,0,0.5,0.7-0.3,1.8c-1,1.4,0.1,5.7-3,8.4C384.5,185.7,384.6,180.2,384.6,180.2z"/>
					<path class="st25" d="M389.8,170l-1.7,1.8l-1.3,2.1c0,0,0.3-1.5,1-2.5c0.7-1,2.3-2.7,2.3-2.7L389.8,170z"/>
					<path class="st25" d="M390.9,171.9c0,0,0.3-0.9-0.2-1c-0.5-0.1-2.9,1.7-3.2,4.2c0,0,0.5-1.2,1.1-2.1
						C389.3,172,390.8,170.4,390.9,171.9z"/>
					<path class="st25" d="M391,173.5c-0.4-1-1.3,0.8-1.7,1.6c-0.3,0.7-1,1.3-1,1.3s1-2.8,1.9-3.5C391,172.3,391,173.5,391,173.5z"
						/>
				</g>
				<g>
					<path class="st29" d="M394.5,183.8c0,0-1.7-0.9-2-3.1c-0.2-1.3,1-4.7,2.6-6.7c0,0,0.5-0.2,0.6,0.6c0,0,1.9-2.6,2.5-4.2
						c0.6-1.5,1-0.8,1-0.8l0,0.8c0,0,0.6-0.5,0.9,0.1c0.3,0.5-0.2,3.2-0.2,3.2s0.6-0.6,0,1.9C399.4,178.2,397,184.1,394.5,183.8z"/>
					<path class="st25" d="M395.6,174.7c0,0-0.1,1.5-0.6,2.3s-0.1,1.3-0.2,2.9c0,0,0.6-1.7,0.6-2.2
						C395.5,177.1,397,175.3,395.6,174.7z"/>
					<path class="st25" d="M399.1,170.6c0,0-0.7,2.4-2.4,4.8C396.8,175.3,398.2,171,399.1,170.6z"/>
					<path class="st25" d="M399.9,173.8c-0.7,0.3-1.1,2.5-1.7,3.4c-0.6,0.8-0.6-0.1,0-0.8c0.4-0.4,0.7-1.5,1.1-2.1
						C399.6,173.8,399.9,173.8,399.9,173.8z"/>
					<path class="st25" d="M400.1,171.5c0,0,0-0.2-0.2-0.2c-0.2-0.1-0.5,0.1-0.7,0.8c-0.2,0.6-1.5,4.1-1.9,4.2
						c-0.4,0.1,0.5-0.9,0.7-1.5c0.2-0.6,0.9-2.3,1.2-3.1C399.5,171,400.1,170.9,400.1,171.5z"/>
				</g>
				<path class="st38" d="M387.3,368.6c0.2-1.8-0.3-4.9-0.3-6.5c0-1.9-1.1-6.7-1.1-6.7c-0.4,3.4-1.3,5.5-1.7,7.2s-3.7,1.3-4.4,0
					c-0.7-1.3,0-7.2,0-7.2c-1.5,2.4-1.1,5.8-2.4,7c-0.9,0.8-1,4.5-1,6.2H387.3z"/>
			</g>
		</g>
	</g>
</g>
<g id="DESIGNED_BY_FREEPIK" class="st0">
	<g class="st1">
		<g id="XMLID_319_">
			<g id="XMLID_338_">
				<path id="XMLID_346_" class="st47" d="M104.6,440c-0.4,0.4-0.8,0.9-1.1,1.5l-0.5-0.2c-0.1-0.3-0.3-0.5-0.7-0.5
					c-0.3,0-0.6,0.3-0.5,0.7c0,0.3,0.3,0.6,0.7,0.5c0.1,0,0.1,0,0.2-0.1l0.5,0.2c-0.3,0.6-0.4,1.1-0.5,1.7l0.7,0.1
					c0.2-1.3,0.8-2.5,1.8-3.5L104.6,440z"/>
				<path id="XMLID_345_" class="st47" d="M110.1,437.7c-0.2,0-0.3,0-0.5,0l-0.1-0.6c0.2-0.1,0.3-0.4,0.3-0.6c0-0.4-0.4-0.7-0.8-0.6
					c-0.4,0-0.7,0.4-0.6,0.8c0,0.3,0.2,0.5,0.4,0.6l0.1,0.6c-0.7,0.1-1.4,0.3-2.1,0.6l0.3,0.7c0.9-0.4,1.9-0.7,3-0.7
					c0.5,0,1,0.1,1.5,0.2l0.2-0.7C111.2,437.7,110.6,437.7,110.1,437.7z"/>
				<path id="XMLID_344_" class="st47" d="M116.7,440.2c0.3,0,0.6-0.3,0.5-0.7c0-0.3-0.3-0.6-0.7-0.5c-0.3,0-0.5,0.3-0.5,0.6
					l-0.4,0.4c-0.4-0.4-0.9-0.8-1.4-1.1l-0.4,0.6c1.1,0.7,2,1.7,2.6,2.9l0.7-0.3c-0.3-0.6-0.6-1.1-0.9-1.5l0.4-0.4
					C116.5,440.2,116.6,440.2,116.7,440.2z"/>
				<path id="XMLID_343_" class="st47" d="M109.5,447.9c-0.4,0-0.8,0-1.2,0c-0.9,0-1.7-0.1-2.5-0.2c-0.4-0.1-0.8-0.2-1.3-0.3
					c1,1.9,3.1,3.1,5.4,3.1c2.9,0,5.3-1.9,5.9-4.5c-0.7,0.4-1.5,0.8-2.5,1.1C112.3,447.5,110.9,447.8,109.5,447.9z"/>
				<path id="XMLID_339_" class="st47" d="M110.1,439.2c-3.4,0-6.1,2.7-6.1,5.9c0,0.4,0,0.8,0.1,1.3c0.7,0.5,2.7,0.9,5.3,0.7
					c2.9-0.2,5.3-1,6.7-2.2c0-0.2,0-0.4,0-0.6C115.7,441.4,113.1,439.2,110.1,439.2z M107.9,445.7c-1,0-1.8-0.8-1.8-1.8
					c0-1,0.8-1.8,1.8-1.8c1,0,1.8,0.8,1.8,1.8C109.7,444.9,108.9,445.7,107.9,445.7z M112.6,444.8c-0.8,0-1.4-0.6-1.4-1.4
					s0.6-1.4,1.4-1.4s1.4,0.6,1.4,1.4S113.4,444.8,112.6,444.8z"/>
			</g>
			<path id="XMLID_336_" class="st47" d="M126.1,441c-0.3-0.1-0.8-0.3-1.4-0.2c-0.6,0.1-0.8,0.3-0.8,1v0.9h2.2v1.7h-2.2v5.5h-1.9
				v-5.5h-1.3v-1.7h1.3v-0.9c0-1.7,0.9-2.8,2.6-2.8c0.6,0,1.2,0.1,1.6,0.3V441z"/>
			<path id="XMLID_334_" class="st47" d="M130.8,444.4c-0.2,0-0.4,0-0.5,0c-0.9,0-1.5,0.5-1.5,1.6v3.9h-1.9v-7.2h1.9v0.8
				c0.5-0.7,1.1-1,2-1c0.4,0,0.8,0.1,1.1,0.3L130.8,444.4z"/>
			<path id="XMLID_331_" class="st47" d="M138.4,446.3c0,0.2,0,0.5,0,0.7h-5.1c0.2,1,0.9,1.5,1.8,1.5c0.6,0,1.3-0.3,1.8-0.7l1.1,1.2
				c-0.8,0.7-1.9,1.1-3.1,1.1c-2.2,0-3.7-1.5-3.7-3.8c0-2.3,1.5-3.8,3.6-3.8C137,442.5,138.4,444,138.4,446.3z M133.3,445.6h3.2
				c-0.2-0.9-0.7-1.4-1.6-1.4C134,444.2,133.5,444.7,133.3,445.6z"/>
			<path id="XMLID_328_" class="st47" d="M146.1,446.3c0,0.2,0,0.5,0,0.7H141c0.2,1,0.9,1.5,1.8,1.5c0.6,0,1.3-0.3,1.8-0.7l1.1,1.2
				c-0.8,0.7-1.9,1.1-3.1,1.1c-2.2,0-3.7-1.5-3.7-3.8c0-2.3,1.5-3.8,3.6-3.8C144.7,442.5,146.1,444,146.1,446.3z M141,445.6h3.2
				c-0.2-0.9-0.7-1.4-1.6-1.4C141.7,444.2,141.1,444.7,141,445.6z"/>
			<path id="XMLID_325_" class="st47" d="M154.4,446.3c0,2.2-1.5,3.8-3.5,3.8c-1,0-1.6-0.4-2.1-0.9v3.7h-1.9v-10.1h1.9v0.8
				c0.5-0.6,1.2-1,2.1-1C152.9,442.5,154.4,444.1,154.4,446.3z M148.8,446.3c0,1.1,0.7,2,1.8,2c1.1,0,1.9-0.9,1.9-2
				c0-1.1-0.7-2-1.9-2C149.5,444.3,148.8,445.1,148.8,446.3z"/>
			<path id="XMLID_322_" class="st47" d="M157.5,440.3c0,0.7-0.5,1.2-1.2,1.2c-0.7,0-1.2-0.5-1.2-1.2c0-0.7,0.5-1.2,1.2-1.2
				C157,439.1,157.5,439.6,157.5,440.3z M157.3,449.9h-1.9v-7.2h1.9V449.9z"/>
			<path id="XMLID_320_" class="st47" d="M160.5,445.2l2.7-2.6h2.4l-3.5,3.4l3.5,3.8h-2.4l-2.7-2.9v2.9h-1.9v-10.7h1.9V445.2z"/>
		</g>
		<g>
			<path class="st47" d="M28.9,449.8v-1.1c-0.5,0.7-1.4,1.2-2.4,1.2c-1.8,0-3.1-1.4-3.1-3.7c0-2.3,1.3-3.7,3.1-3.7
				c1,0,1.8,0.5,2.4,1.2V440H30v9.8H28.9z M28.9,447.9v-3.2c-0.4-0.6-1.2-1.1-2.1-1.1c-1.4,0-2.3,1.2-2.3,2.7s0.8,2.7,2.3,2.7
				C27.6,449,28.5,448.5,28.9,447.9z"/>
			<path class="st47" d="M31.4,446.2c0-2.1,1.5-3.7,3.5-3.7c2.1,0,3.4,1.7,3.4,3.8v0.3h-5.7c0.1,1.3,1,2.4,2.5,2.4
				c0.8,0,1.6-0.3,2.2-0.9l0.5,0.7c-0.7,0.7-1.7,1.1-2.8,1.1C32.9,450,31.4,448.5,31.4,446.2z M34.9,443.4c-1.5,0-2.3,1.3-2.3,2.4
				h4.6C37.2,444.7,36.5,443.4,34.9,443.4z"/>
			<path class="st47" d="M39.1,448.8l0.6-0.8c0.5,0.5,1.4,1,2.3,1c1.1,0,1.7-0.5,1.7-1.2c0-1.7-4.4-0.7-4.4-3.3c0-1.1,1-2,2.6-2
				c1.2,0,2.1,0.5,2.6,1l-0.5,0.8c-0.4-0.5-1.2-0.9-2.1-0.9c-1,0-1.6,0.5-1.6,1.1c0,1.6,4.4,0.5,4.4,3.3c0,1.2-1,2.1-2.8,2.1
				C40.8,450,39.8,449.6,39.1,448.8z"/>
			<path class="st47" d="M45.9,441c0-0.4,0.3-0.7,0.7-0.7c0.4,0,0.7,0.3,0.7,0.7c0,0.4-0.3,0.7-0.7,0.7
				C46.3,441.7,45.9,441.4,45.9,441z M46.1,449.8v-7.1h1.1v7.1H46.1z"/>
			<path class="st47" d="M49,451.6l0.6-0.8c0.6,0.7,1.3,1,2.3,1c1.2,0,2.3-0.6,2.3-2.1v-1c-0.5,0.7-1.4,1.3-2.4,1.3
				c-1.8,0-3.1-1.4-3.1-3.7c0-2.3,1.3-3.7,3.1-3.7c1,0,1.8,0.5,2.4,1.2v-1.1h1.1v6.9c0,2.3-1.6,3.1-3.4,3.1
				C50.7,452.7,49.9,452.4,49,451.6z M54.2,447.8v-3.1c-0.4-0.6-1.2-1.1-2.1-1.1c-1.4,0-2.3,1.1-2.3,2.7c0,1.6,0.8,2.7,2.3,2.7
				C52.9,448.9,53.8,448.4,54.2,447.8z"/>
			<path class="st47" d="M61.9,449.8v-4.6c0-1.2-0.6-1.6-1.6-1.6c-0.9,0-1.7,0.5-2.1,1.1v5.2h-1.1v-7.1h1.1v1
				c0.5-0.6,1.5-1.2,2.5-1.2c1.5,0,2.3,0.7,2.3,2.3v5H61.9z"/>
			<path class="st47" d="M64.4,446.2c0-2.1,1.5-3.7,3.5-3.7c2.1,0,3.4,1.7,3.4,3.8v0.3h-5.7c0.1,1.3,1,2.4,2.5,2.4
				c0.8,0,1.6-0.3,2.2-0.9l0.5,0.7c-0.7,0.7-1.7,1.1-2.8,1.1C65.9,450,64.4,448.5,64.4,446.2z M67.9,443.4c-1.5,0-2.3,1.3-2.3,2.4
				h4.6C70.2,444.7,69.5,443.4,67.9,443.4z"/>
			<path class="st47" d="M77.8,449.8v-1.1c-0.5,0.7-1.4,1.2-2.4,1.2c-1.8,0-3.1-1.4-3.1-3.7c0-2.3,1.3-3.7,3.1-3.7
				c1,0,1.8,0.5,2.4,1.2V440h1.1v9.8H77.8z M77.8,447.9v-3.2c-0.4-0.6-1.2-1.1-2.1-1.1c-1.4,0-2.3,1.2-2.3,2.7s0.8,2.7,2.3,2.7
				C76.6,449,77.4,448.5,77.8,447.9z"/>
			<path class="st47" d="M84.2,449.8V440h1.1v3.8c0.6-0.8,1.4-1.2,2.4-1.2c1.8,0,3.1,1.5,3.1,3.7c0,2.3-1.3,3.7-3.1,3.7
				c-1,0-1.9-0.5-2.4-1.2v1.1H84.2z M87.4,449c1.4,0,2.3-1.2,2.3-2.7s-0.8-2.7-2.3-2.7c-0.9,0-1.7,0.5-2.1,1.1v3.2
				C85.6,448.5,86.5,449,87.4,449z"/>
			<path class="st47" d="M92,451.6c0.2,0.1,0.4,0.1,0.6,0.1c0.5,0,0.8-0.2,1.1-0.7l0.5-1.1l-3-7.1h1.2l2.4,5.8l2.3-5.8h1.2l-3.5,8.5
				c-0.4,1-1.1,1.4-2.1,1.4c-0.2,0-0.6,0-0.8-0.1L92,451.6z"/>
		</g>
	</g>
</g>
</svg>
