<?xml version="1.0" encoding="utf-8"?>
<!-- Generator: Adobe Illustrator 23.1.0, SVG Export Plug-In . SVG Version: 6.00 Build 0)  -->
<svg version="1.1" xmlns="http://www.w3.org/2000/svg" xmlns:xlink="http://www.w3.org/1999/xlink" x="0px" y="0px"
	 viewBox="0 0 415.3 382.8" style="enable-background:new 0 0 415.3 382.8;" xml:space="preserve">
<style type="text/css">
	.st0{display:none;}
	.st1{display:inline;}
	.st2{fill:#1B75B8;}
	.st3{fill:#FFFFFF;}
	.st4{display:inline;fill:none;stroke:#1A4850;stroke-miterlimit:10;}
	.st5{display:inline;fill:#BBDEFB;}
	.st6{display:inline;fill:#9DCCED;}
	.st7{fill:none;}
	.st8{display:none;fill:#1A4850;}
	.st9{font-family:'Raleway-Regular';}
	.st10{font-size:8.7px;}
	.st11{display:inline;fill:#1A4850;}
	.st12{clip-path:url(#SVGID_2_);}
	.st13{fill:#F7E1E1;}
	.st14{fill:#7C4EE6;}
	.st15{fill:#8C5EEB;}
	.st16{fill:#A68CE4;}
	.st17{fill:#FFD7D7;}
	.st18{fill:#DBC3C3;}
	.st19{display:inline;fill:#FFECB3;}
	.st20{display:inline;fill:#D6BA76;}
	.st21{display:inline;fill:#339999;}
	.st22{display:inline;fill:#7CCDD8;}
	.st23{display:inline;fill:#4FBDC6;}
	.st24{fill:#0E2D80;}
	.st25{fill:#DD8866;}
	.st26{fill:#996CEF;}
	.st27{fill:#B186F5;}
	.st28{fill:#1A4850;}
	.st29{fill:#F3A17A;}
	.st30{fill:#DD774E;}
	.st31{fill:#ED7D66;}
	.st32{fill:none;stroke:#1A4850;stroke-width:0.5865;stroke-linecap:round;stroke-miterlimit:10;}
	.st33{fill:#DBCDF9;}
	.st34{fill:#2595AE;}
	.st35{fill:#373C7A;}
	.st36{fill:#78CAD2;}
	.st37{fill:#FFC24E;}
	.st38{fill:#18093C;}
	.st39{fill:#070316;}
	.st40{fill:none;stroke:#1A4850;stroke-width:0.6818;stroke-linecap:round;stroke-miterlimit:10;}
	.st41{fill:#EF9C7B;}
	.st42{display:none;fill:#D14E4E;}
	.st43{fill:#D37676;}
	.st44{fill:#F49390;}
	.st45{fill:#D14E4E;}
	.st46{fill:#E56361;}
	.st47{fill:#F7F9FA;}
</style>
<g id="BACKGROUND" class="st0">
	<g class="st1">
		<rect x="-281.4" y="-46.3" class="st2" width="750" height="500"/>
	</g>
</g>
<g id="OBJECTS">
	<g class="st0">
		
			<image style="display:inline;overflow:visible;opacity:0.25;" width="3039" height="1958" xlink:href="F78B78AA.png"  transform="matrix(0.24 0 0 0.24 -260.3745 -33.35)">
		</image>
		<g class="st1">
			<rect x="-227" class="st3" width="642.3" height="382.8"/>
		</g>
	</g>
	<text transform="matrix(1 0 0 1 -192.2022 140.054)" class="st8" style="font-family:'Cabin-Bold'; font-size:26.1098px;">CONTACST US</text>
	<g class="st0">
		<path class="st4" d="M-139.6,273h-44.8c-4.3,0-7.8-3.5-7.8-7.8v0c0-4.3,3.5-7.8,7.8-7.8h44.8c4.3,0,7.8,3.5,7.8,7.8v0
			C-131.8,269.5-135.3,273-139.6,273z"/>
		<text transform="matrix(1 0 0 1 -181.6893 267.7727)" class="st11" style="font-family:'Raleway-Bold'; font-size:8.276px;">Learn more</text>
	</g>
	<g class="st0">
		<path class="st5" d="M-8,51.2h-176.4c-4.3,0-7.7-3.5-7.7-7.7l0,0c0-4.3,3.5-7.7,7.7-7.7H-8c4.3,0,7.7,3.5,7.7,7.7l0,0
			C-0.3,47.7-3.8,51.2-8,51.2z"/>
		<path class="st6" d="M-2.4,43.5c0,3.5-2.8,6.3-6.3,6.3c-3.5,0-6.3-2.8-6.3-6.3c0-3.5,2.8-6.3,6.3-6.3C-5.2,37.2-2.4,40-2.4,43.5z"
			/>
	</g>
	<rect x="-192.2" y="235.5" class="st7" width="193.3" height="10.6"/>
	<text transform="matrix(1 0 0 1 -192.2022 241.6682)" class="st8 st9 st10">Intellegam mediocritatem id nam. </text>
	<rect x="-192.2" y="164.4" class="st7" width="194.1" height="49.9"/>
	<text transform="matrix(1 0 0 1 -192.2022 170.5911)" class="st0"><tspan x="0" y="0" class="st11 st9 st10">Lorem ipsum dolor sit amet, nam etiam regione ei. </tspan><tspan x="0" y="17.4" class="st11 st9 st10">Intellegam mediocritatem id nam. Pri in tritani </tspan><tspan x="0" y="34.8" class="st11 st9 st10">consequat consetetur.</tspan></text>
	<g>
		<defs>
			<rect id="SVGID_1_" x="-227" width="642.3" height="382.8"/>
		</defs>
		<clipPath id="SVGID_2_">
			<use xlink:href="#SVGID_1_"  style="overflow:visible;"/>
		</clipPath>
		<g class="st12">
			<path class="st13" d="M340.6-17.8c-32.8-1-62.4,4.2-92.8,16.5c-8.7,3.5-17.2,8.2-23,15.5c-14.8,18.4,0.3,31,7.3,48
				c1.6,3.8,2.4,8,1.3,11.9c-1.3,4.6-5.2,8.1-9.5,10.2c-19.6,9.1-42.2,0.2-62.6,5.1c-17.2,4.1-31.7,12.8-34.9,31.1
				c-2.9,16.8,2.5,35.4-10.3,49.3C94,193.8,55,195.8,34.5,221.5c-44.4,56,23.6,122.7,67.2,152.9c49.6,34.4,110.2,51,169.7,56.8
				c28.4,2.7,57.1,3,85.5,0.6c32.1-2.7,65.1-7.3,96.1-16.7c0,0-8-420.4-8-420.4c-1-8.8-60.6-9.8-67.5-10.4
				C365.4-16.4,353-17.4,340.6-17.8z"/>
			<path class="st3" d="M261.9,34.5c0,0,1.7-8,10.5-7.6c8.8,0.4,8.7,9.8,8.7,9.8s2.7-3.4,6.5,0c3.8,3.4,3.3,9,3.3,9s2.7-3.4,5,0
				c2.3,3.4,21.1,5.3,21.1,5.3s-17.3-0.8-19.7,2.6c-2.4,3.4-11.4,1.6-11.4,1.6s-9,7.5-16.8,3.7c-7.8-3.8-9.3-3.7-9.3-3.7
				s-10.9,1.8-14.7-1.6c-3.8-3.4,0-6.8,0-6.8s-7.2-0.9-6.8-3.5c0.4-2.6,12-4.1,12-4.1S251.3,32.2,261.9,34.5z"/>
			<path class="st3" d="M412.5,88.9c0,0-2.3-10.6-13.9-10.1C386.9,79.4,387,91.9,387,91.9s-3.6-4.5-8.6,0c-5,4.5-4.3,12-4.3,12
				s-3.5-4.5-6.6,0c-3.1,4.5-28,7-28,7s22.9-1,26.2,3.5c3.2,4.5,15.1,2.1,15.1,2.1s12,9.9,22.3,4.9c10.3-5,12.3-4.9,12.3-4.9
				s14.5,2.4,19.5-2.1c5-4.5,0-9,0-9s9.5-1.2,9-4.6c-0.5-3.4-16-5.4-16-5.4S426.6,85.9,412.5,88.9z"/>
			<path class="st3" d="M208.3,99.9c0,0-0.8-3.8-5-3.6s-4.2,4.7-4.2,4.7s-1.3-1.6-3.1,0c-1.8,1.6-1.6,4.3-1.6,4.3s-1.3-1.6-2.4,0
				c-1.1,1.6-10.1,2.5-10.1,2.5s8.3-0.4,9.5,1.3c1.2,1.6,5.5,0.7,5.5,0.7s4.3,3.6,8.1,1.8c3.7-1.8,4.4-1.8,4.4-1.8s5.2,0.9,7-0.7
				c1.8-1.6,0-3.3,0-3.3s3.4-0.4,3.3-1.7s-5.8-2-5.8-2S213.4,98.8,208.3,99.9z"/>
			<path class="st14" d="M287.5,181.4c0,0,3.9-39.3-23.7-43.3c-27.6-4-40.8,27.6-40.8,27.6s5.6-68-25.6-68c-31.2,0-29.6,69-29.6,69
				s-41.2,6.4-44.9,37.9c-3.7,31.5-8.2,158.6-8.2,158.6h167.9L287.5,181.4z"/>
			<path class="st15" d="M421,231.7c0,0-3.5-30.3-32.7-19.9c0,0,13.2-69.4-19.6-79.3c-32.8-9.9-36,29.7-36,29.7s-34.2-6.5-47.5,17.4
				s-13.9,171.1-13.9,171.1l149.6-4.5V231.7z"/>
			<path class="st16" d="M36.8,286.5c0,0,2.8-24,25.9-15.8c0,0-10.5-55,15.5-62.9c26-7.9,28.6,23.5,28.6,23.5s27.2-5.2,37.7,13.8
				c10.5,19,11,135.8,11,135.8l-118.7-3.5V286.5z"/>
			<path class="st17" d="M456.3,324.1c0,0-316.3-0.8-327.5,15.6C117.6,356,25.1,354.8-0.3,382.8c-25.4,28,456.6,14,456.6,14V324.1z"
				/>
			<path class="st18" d="M431.2,351.7h-230c-1.8,0-3.3-1.5-3.3-3.3l0,0c0-1.8,1.5-3.3,3.3-3.3h230c1.8,0,3.3,1.5,3.3,3.3l0,0
				C434.5,350.3,433,351.7,431.2,351.7z"/>
			<path class="st18" d="M188.2,370.4H95.2c-1.8,0-3.3-1.5-3.3-3.3l0,0c0-1.8,1.5-3.3,3.3-3.3h92.9c1.8,0,3.3,1.5,3.3,3.3l0,0
				C191.5,368.9,190,370.4,188.2,370.4z"/>
			<g class="st0">
				<path class="st19" d="M95.5,71.4c0,0,4.1-7.1,6-8.3c1.9-1.2,9.9,11.8,9.9,14.4c0,2.6-3.6,10.8-4.9,10.6
					C105.2,87.9,96.4,75.4,95.5,71.4z"/>
				<path class="st20" d="M101.7,65.1c0,0,1.8,9.8,2.7,11.4c0.9,1.6,5.4,1.6,5.4,1.6s-4.5,0.6-5.8-0.9
					C102.8,75.7,101.7,65.1,101.7,65.1z"/>
				<path class="st20" d="M97.4,71.7c0,0,4.1,0.6,5.7,1.5l0.4,0.8C103.4,74,103.1,73.5,97.4,71.7z"/>
				<path class="st20" d="M106.2,78.2c0,0,0.5,3.2,0.3,7.4c0,0,0.4-3.5,0.3-7.4H106.2z"/>
			</g>
			<g class="st0">
				<path class="st21" d="M92.3,60.5c0,0,5.9-19.2,16.3-23.3c0,0-1.1-1.4-3.5,0.5c0,0-0.6-1.2-1.9-0.9S99.8,39,99.8,39
					s0.2-2.6-1.6-1.5s-2.8,2.9-2.8,2.9s-0.9-2-1.8-0.9c-0.9,1.1-1.7,3.5-1.7,3.5s-0.5-2.9-1.5-1.8c-1,1.1-0.9,4-0.9,4
					s-1-2.6-1.9-1.6c-0.9,1,0.1,5.4,0.1,5.4s-1.6-1.4-1.3,2.2c0.3,3.6,2.8,4.7,2.8,4.7s-1.6-1.3-1.7,0.5
					C87.2,58.1,90.3,61.6,92.3,60.5z"/>
				<path class="st22" d="M97.4,58.1c1.8-0.4,4.1,0.6,4.4,2.7c0.2,1.5-0.9,2.9-2.4,2.9c-1.6,0.1-2.7-1.5-4.2-1.3
					c-2.2,0.3-4.2,3.2-10.5,2.7c-6.2-0.5-8.3-8.1-8.8-10.7c-0.5-2.6-5.2-7-6.6-7.2c-1.5-0.2-0.9-2.4,1.4-1.4c0,0-1.4-1.8-0.9-2.7
					c0.6-0.8,2.3-0.1,2.3-0.1s-0.7-2-0.1-2.2c0.7-0.2,2.6,1.4,2.6,1.4s-0.7-2.9,0.4-2.6c1.1,0.3,1.2,2.3,1.2,2.3s1.2-1.2,1.5-0.6
					c0.4,0.6-1.6,5,1.3,9.8c2.1,3.5,6.7,5.4,10.4,6.4c1.6,0.4,3.2,0.7,4.8,0.8c0.7,0,1.4,0,2-0.1C96.7,58.3,97,58.2,97.4,58.1z"/>
				<path class="st23" d="M89.9,61c0,0-5.4-19.4,1.2-28.4c0,0-1.7-0.6-2.7,2.3c0,0-1.1-0.7-2,0.3c-0.9,1-1.8,3.7-1.8,3.7
					s-1.2-2.3-2.2-0.4c-1,1.9-0.8,4-0.8,4s-1.9-1.2-2,0.2c-0.1,1.4,0.5,3.8,0.5,3.8s-2-2.1-2.2-0.7c-0.2,1.5,1.5,3.9,1.5,3.9
					S77,48,76.7,49.4c-0.2,1.4,3,4.5,3,4.5s-2.1-0.3,0.1,2.5c2.2,2.8,4.9,2.4,4.9,2.4s-2.1-0.2-1.2,1.3C84.3,61.8,88.8,63,89.9,61z"
					/>
				<path class="st23" d="M101.6,62c0,0,0.9,1.7,0.7,1.9c-0.2,0.2-1.6-0.5-1.6-0.5s-0.1,1.7-0.3,1.5c-0.2-0.2-1-1.2-1-1.2
					S101,63.1,101.6,62z"/>
				<path class="st21" d="M100,61.2c0.1,0.2,0,0.5-0.3,0.6c-0.2,0.1-0.5,0-0.6-0.3c-0.1-0.2,0-0.5,0.3-0.6
					C99.7,60.9,99.9,61,100,61.2z"/>
			</g>
			<g>
				<path class="st3" d="M277.9,347.7v-2.9c0-2.7-2.5-8.5-2.5-10.3c0-1.8-7,1.5-7,1.5s-0.1,3.6-2.4,6.1c-1.5,1.6-1.7,4.1-1.7,5.6
					H277.9z"/>
				<path class="st3" d="M228,347.7c0-6.6-2.5-13-2.5-13s-6.3-3-7.6,2.1c-1.3,5-7.8,6.2-11.1,6.6c-2.4,0.3-2.7,2.9-2.6,4.3H228z"/>
				<path class="st24" d="M263.5,218.1l13.5,121.6c0,0-3.7-3.1-9.1-0.9c0,0-21.3-92.5-30.7-100.7S263.5,218.1,263.5,218.1z"/>
				<path class="st25" d="M226.4,136.7c-8,4.6-18.6,36.5-18.2,46.9c0.4,10.4,8,30.5,8,30.5l5.2-6.9c0,0-3.8-24.7-3.6-26
					c0.2-1.2,8.6-24.6,8.6-24.6V136.7z"/>
				<path class="st26" d="M229.9,134.2c-5,2.7-10.3,4.6-17.4,26.3c0,0,3.7,7.2,10.2,7.9C229.2,169.1,229.9,134.2,229.9,134.2z"/>
				<path class="st24" d="M221.7,196c0,0-7.7,13.3-7.3,19c0.4,5.6,1.6,19.6,1.6,19.6l49.1,2c0,0,0.2-32.4-4.7-38.4
					C255.7,192.1,221.7,196,221.7,196z"/>
				<path class="st27" d="M217.8,203.8c0,0,2.2-59.2,6.5-64.7c4.3-5.5,10.7-8.2,23.3-7.6c12.6,0.6,22.1,8.3,23.2,14
					c1.2,5.7-6.7,61.4-6.7,61.4S231,225,217.8,203.8z"/>
				<g>
					<path class="st28" d="M240.6,100.8c0,0-4.9,3.6-2.8,11.5c2.1,7.9,6.7-9.6,6.7-9.6L240.6,100.8z"/>
					<path class="st29" d="M257,116.1c-3.4,12.7-17.4,10.5-19.2,5c-0.6-1.8-0.8-4.8-0.5-7.9c0.1-0.7,0.1-1.4,0.2-2.1
						c0.7-4.8,2.5-9.4,5.4-9.9C253.2,99.3,260.4,103.4,257,116.1z"/>
					<path class="st28" d="M247.5,111c-0.1,0.7-0.6,1.2-1,1.2c-0.4-0.1-0.6-0.7-0.5-1.4c0.1-0.7,0.6-1.2,1-1.2
						C247.4,109.6,247.6,110.2,247.5,111z"/>
					<path class="st28" d="M240.8,110.3c-0.1,0.7-0.6,1.2-1,1.2c-0.4-0.1-0.6-0.7-0.5-1.4c0.1-0.7,0.6-1.2,1-1.2
						C240.7,109,241,109.6,240.8,110.3z"/>
					<path class="st30" d="M241.8,111.6c0,0-2,2.5-3.2,1.8c-1.2-0.7-0.8,2.6,2.9,2.2C241.5,115.6,242.8,114.1,241.8,111.6z"/>
					<path class="st31" d="M249.9,113.7c0.1,0.6-0.5,1.2-1.2,1.2c-0.7,0.1-1.4-0.3-1.5-0.9c-0.1-0.6,0.5-1.2,1.2-1.2
						C249.1,112.7,249.8,113.1,249.9,113.7z"/>
					<path class="st31" d="M238.9,112.8c-0.2,0.5-1,0.7-1.6,0.4c0.1-0.7,0.1-1.4,0.2-2.1c0.2,0,0.4,0.1,0.6,0.2
						C238.9,111.5,239.2,112.2,238.9,112.8z"/>
					<path class="st32" d="M246.6,106c0,0,1.6,0,2.4,1"/>
					<path class="st32" d="M241,105.9c0,0-1.5-0.2-1.8,0.6"/>
					<path class="st28" d="M256,101.3c0,0-5.2-4.8-11.5-3.7c-6.3,1.1-6.3,4.2-3.5,6.2c2.8,2,13,3.1,13,3.1l0.7,9.9l-1.8,4.5
						l-0.1,1.5c0,0,5.1-0.8,6.9-9.8C261.6,104,256,101.3,256,101.3z"/>
					<path class="st29" d="M254.4,115.2c0,0,2.5-2.1,4.2-0.2c1.7,1.9-2.4,5.8-4.5,5.2C252,119.7,254.4,115.2,254.4,115.2z"/>
					<path class="st28" d="M239.7,117.4c0,0,3,0.6,4.2,0.4c1.2-0.2,0,1.5-2.4,1.3C239.1,118.9,239.7,117.4,239.7,117.4z"/>
					<path class="st33" d="M259.1,115.7c0,0,2.2-3.7-2-9.2c-0.1-0.2-0.2-0.3-0.4-0.5c-4.7-5.7-15.1-7.5-15.1-7.5s3.8-6.3,10.8-5
						c4,0.8,6.8,2.7,8.6,5.4c1.3,2,2.1,4.5,2.3,7.2C263.8,112.6,259.1,115.7,259.1,115.7z"/>
					<path class="st3" d="M261,98.9c-0.7,3.2-3.9,7.5-3.9,7.5c-0.1-0.2-0.2-0.3-0.4-0.5c-4.7-5.7-15.1-7.5-15.1-7.5s3.8-6.3,10.8-5
						C256.3,94.3,259.2,96.2,261,98.9z"/>
					<path class="st33" d="M239.3,100.4c0,0-3.7-4.7-1.3-6.8c2.4-2.1,10.5,0.1,14.3,2.8c3.8,2.6,4.3,9.6,4.3,9.6
						S244.3,96,239.3,100.4z"/>
				</g>
				<path class="st25" d="M241.3,124.5l0.9,11.4c0,0,2.9,2,10.3-1.3c0,0-2.1-8.9,2.1-14.3c0,0-1.1,0.1-1.3-1.2
					C253.2,119.1,250.1,126.4,241.3,124.5z"/>
				<path class="st29" d="M270.3,144.3c0,0-7,11.4-7.6,19.7c-0.6,8.3,6.5,18.2,8.1,24.6c0,0-5.2,14.9-11.1,21.3c0,0,2.5,6.6,3.7,8.1
					c0,0,15.3-13.8,18.5-25.1C285.1,181.8,270.3,144.3,270.3,144.3z"/>
				<path class="st26" d="M269.6,142.6c0,0-7.3-2.5-8.6,18.4c-0.4,6.1,4,14.5,4,14.5s5.9-6.1,14.3-4.1
					C279.3,171.4,275.6,147,269.6,142.6z"/>
				<path class="st24" d="M214.5,215c0,0-6.3,56.7,3.4,121.8c0,0,4.5,1.1,8.5,0.5c0,0,1.7-94,10.8-99.2c9.1-5.2-21-24-21-24"/>
			</g>
			<g>
				<path class="st34" d="M325.1,347.8v-2.3c0-2.7-2.5-7.6-2.5-9.4s-7,1.5-7,1.5s-0.1,2.7-2.4,5.2c-1.8,1.9-1.8,4.4-1.7,5.1H325.1z"
					/>
				<path class="st34" d="M277.5,347.8l1.2-0.6l0.6,0.6h4.6c0.5-1.3,2-6.4,0.6-9.9c-1.6-4.1-6.7-3-6.7-3s-3.4,4.8-5.4,5.6
					c-2,0.9-9.6,3.9-10.5,5.9c-0.3,0.6,0.2,1,0.1,1.3H277.5z"/>
				<path class="st35" d="M293,196.7c-2.6,37.9-9.8,87.7-17.5,140c0,0,1.5,2.5,10.1,1.2l26.6-111c0.1-0.3,0.4-0.5,0.7-0.5
					c0.4,0,0.7,0.3,0.8,0.7c0.3,8.4,3,34,1.5,111.2c0,0,4.5,2.5,9.4,0c0,0,17.1-114.2,13.2-136L293,196.7z"/>
				<path class="st34" d="M305.1,128c-9.6,3.5-22.1,21-24.1,32.9c-2,11.9,7.5,9.3,13,1.7C299.6,155,305.1,128,305.1,128z"/>
				<path class="st36" d="M290.3,177c0,0,2.5-43,13.5-48.4c12.2-6,29.9-2.8,37.1,3.6c6.3,5.6-1.3,41.5-1.5,54.7
					c-0.2,13.2,0.7,16.8,0.7,16.8s-37.5,12.5-49.1-2.6L290.3,177z"/>
				<g>
					<path class="st25" d="M315.2,119c0,0,0.7,4.3-0.6,9.1c0,0,2.5,4,11.3-0.1c0,0-0.2-8.7,1.4-12.3l-0.5-1
						C322,120.5,315.2,119,315.2,119z"/>
					<path class="st29" d="M315.2,94.1c3.6-5.8,16.6,3.2,16.3,7.7c-0.3,4.5-3.9,18-14,17.7C306.9,119.1,311.9,99.4,315.2,94.1z"/>
					<path class="st28" d="M321.6,105.3c-0.2,0.7-0.7,1.2-1.1,1.1c-0.4-0.1-0.6-0.8-0.4-1.5c0.2-0.7,0.7-1.2,1.1-1.1
						C321.6,103.9,321.8,104.6,321.6,105.3z"/>
					<path class="st28" d="M314.5,104.1c-0.2,0.7-0.7,1.2-1.1,1.1c-0.4-0.1-0.6-0.8-0.4-1.5c0.2-0.7,0.7-1.2,1.1-1.1
						C314.5,102.7,314.7,103.4,314.5,104.1z"/>
					<path class="st31" d="M324,108.3c0,0.6-0.6,1.1-1.4,1.2c-0.8,0-1.5-0.4-1.5-1.1c0-0.6,0.6-1.1,1.4-1.2
						C323.2,107.2,323.9,107.7,324,108.3z"/>
					<g>
						<path class="st37" d="M323.6,101.8c-0.1,0-0.2,0-0.2-0.1c-0.8-1-2.3-1.1-2.3-1.1c-0.2,0-0.3-0.2-0.3-0.3
							c0-0.2,0.2-0.3,0.3-0.3c0.1,0,1.8,0.2,2.7,1.4c0.1,0.1,0.1,0.3-0.1,0.4C323.7,101.7,323.7,101.8,323.6,101.8z"/>
					</g>
					<g>
						<path class="st37" d="M313.1,100.3C313.1,100.3,313,100.3,313.1,100.3c-0.3-0.1-0.3-0.2-0.3-0.4c0.4-1.1,2.1-0.7,2.3-0.7
							c0.2,0,0.3,0.2,0.2,0.4c0,0.2-0.2,0.3-0.4,0.2c-0.4-0.1-1.4-0.2-1.6,0.3C313.4,100.2,313.2,100.3,313.1,100.3z"/>
					</g>
					<path class="st28" d="M312.1,110.6c0,0,1.2,2.3,7.1,1.3C319.3,111.9,313.3,114.3,312.1,110.6z"/>
					<path class="st30" d="M315.1,106.6c0,0-5.6-2.4-5.6-1c0,1.5,4.9,2.7,4.9,2.7S315.2,107.8,315.1,106.6z"/>
					<path class="st37" d="M327.2,96.6c0,0-6.6,0.8-8.6-0.1c-2-0.9,1.8-1,1.8-1s-7,0.4-8.4-0.2s2.6-2.4,2.6-2.4s-1.6-0.5-0.9-1.1
						c0.8-0.5,6-2.7,13.1-0.3c7,2.4,9.6,8.7,6.8,16.3c-2.1,5.7-6.3,7.8-6.3,7.8l-0.5-1c0,0,0.6-4.1,0.2-5.5
						C326.3,107.3,325.7,98.5,327.2,96.6z"/>
					<path class="st29" d="M327,109.8c0,0,3.2-4.1,4.6-0.8c1.4,3.3-3.8,6.2-5,5.7C325.5,114.2,327,109.8,327,109.8z"/>
				</g>
				<path class="st34" d="M342,133.5c-3.5-4.4-14.2,20-15.7,29.1c-1.5,9,6.6,11.5,6.6,11.5S352.4,146.7,342,133.5z"/>
				<path class="st29" d="M308.3,168.1c0,0-1.3,0.3-3.3,0.6c-7,1.2-22.8,3.1-23.9-2.5c-0.8-3.9,1.2-6.6,3.2-8.3
					c0.4-0.3,0.8-0.6,1.1-0.9c1.3-0.9,2.3-1.3,2.3-1.3C295.9,155,308.3,168.1,308.3,168.1z"/>
				<path class="st34" d="M325.9,123.4c0,0-3.3,3.9-7,4l-2.1,2.1l-1.1-2.4c0,0-0.7-1.8-0.4-3.3c0,0-5.1,1.3-6.7,8.3
					c0,0,3.1-3.8,5.2-4.2l2.6,3.3l2.1-0.9l2.4,4.6c0,0,7.7-5.3,9.1-7.9C330,127,327.5,123.4,325.9,123.4z"/>
				<path class="st25" d="M284.8,157C284.8,157,284.8,157,284.8,157c0,0.1-0.1,0.2-0.2,0.4L284.8,157z"/>
				<path class="st25" d="M308.3,168.1c0,0-1.3,0.3-3.3,0.6c-7.7-2.7-11.4-10.1-13.1-10.8c-1.7-0.7-5.1-0.8-6.5-0.9
					c1.3-0.9,2.3-1.3,2.3-1.3C295.9,155,308.3,168.1,308.3,168.1z"/>
				<path class="st29" d="M326.4,161.6c0,0,10.6,3.9,6.4,12.5c-4.1,8.6-39.4-14.2-41.8-18.2l-3.4-0.3c0,0-0.5-0.7,0.6-2.3
					c1.1-1.6,4-2.7,4.6-2.4c0.7,0.3,2.5,2.4,2.5,2.4S316.1,160.6,326.4,161.6z"/>
				<path class="st25" d="M319.8,160.5c0,0,1.7-1,2.7-0.9c1,0,2.2-0.9,2.7-1s2.8-0.1,3.5,0.4c0.8,0.5,1.8,1.1,1.1,1.8
					c-0.8,0.8-1.4-0.8-3.1-0.7c0,0,1.4,1.1,1.8,2.4c0.5,1.3-0.2,1.7-1.2,0.9c-1-0.9-2.4-2-2.4-2s0,0.5,0,1.4
					C324.9,163.6,321.6,160.5,319.8,160.5z"/>
			</g>
			<g>
				<g>
					<path class="st25" d="M187.8,229.4c0,0-1.4,2.2-1.8,3.2c-0.4,1.3-0.2,4.3-0.2,4.3s0.1,0.3,0.5,0c0.7-0.4,0.1-2.1,1.1-2.6
						C188.5,233.8,187.8,229.4,187.8,229.4z"/>
					<path class="st29" d="M195.2,225.7c0,0-5.5-0.7-6.8,0.9c0,0-0.9,4.5-1.4,6c-0.6,1.6-0.3,7.2,0.6,8.1c2.3,2.6,2.4,2.4,2.9,1.8
						c0.5-0.6-1.4-2-1.5-2.8c-0.1-0.4,0.5-2.3,0.5-2.3c0,0.8,0.4,2.1,1.3,2.6c1.1,0.6,2,1.3,2.5,1c1-0.6-1.5-2.1-1.4-2.8
						c0.1-0.3,0.3-1.9,0.3-1.9c0.3,0.5,0.3,1.3,0.6,1.7c0.4,0.5,2.4,1.9,2.8,1.4c0.6-0.8-1.3-1.9-1.3-2.7c0-0.3,0.3-1.6,0.3-1.6
						s0.5,1,0.8,1.3c0.4,0.3,2.2,1.2,2.3,0.8c0.3-1.1-1.5-1.5-1.7-3c-0.1-1.3,0.4-4.2-0.3-5.5C195,227.6,195.2,225.7,195.2,225.7z"
						/>
				</g>
				<path class="st38" d="M168.8,367.1v-2.7c0-3.1-2.9-8.8-2.9-10.9c0-2.1-8.1,1.7-8.1,1.7s-0.1,3.2-2.8,6.1c-2.1,2.2-2.1,5.1-2,5.8
					H168.8z"/>
				<path class="st38" d="M113.6,367.1l1.4-0.7l0.7,0.7h5.3c0.5-1.5,2.3-7.4,0.7-11.4c-1.9-4.7-7.7-3.4-7.7-3.4s-4,5.5-6.3,6.5
					c-2.3,1-11.1,4.5-12.1,6.8c-0.3,0.7,0.2,1.1,0.1,1.5H113.6z"/>
				<path class="st35" d="M131.5,192.4c-3,43.9-11.3,101.4-20.3,161.9c0,0,1.8,2.9,11.7,1.4l30.7-128.5c0.1-0.3,0.5-0.6,0.8-0.6
					c0.5,0,0.9,0.4,0.9,0.8c0.4,9.7,3.5,39.3,1.8,128.6c0,0,5.2,2.9,10.8,0c0,0,19.8-132.1,15.2-157.3L131.5,192.4z"/>
				<path class="st39" d="M136.9,116.4c0,0-7.2,2.4-18.7,14.3c-9.4,9.8-11.9,6.4-11.9,6.4s-2.4-14.3,1.5-33c0,0-4.9,0.3-6.1-2.8
					c0,0-11.6,38.2-6,47.7c5.6,9.5,35.7-6.4,35.7-6.4L136.9,116.4z"/>
				<path class="st3" d="M184,207.4c0,0-8.4,8.8-33,4.9c-14-2.2-20.3-9-20.3-9s-4.5-76.1,0.5-82.6c3.6-4.7,10.6-6.7,19.8-7.1
					c3.5-0.2,7.2-0.1,11.3,0c3,0.1,5.8,0.6,8.4,1.3c10.3,2.9,17.5,9.6,18.6,14.9C190.7,136.5,184,207.4,184,207.4z"/>
				<path class="st28" d="M163.5,113.7c0,0,4.4,2.6,4.3,6.6c0,0,1.5-9.1-2-10.5C162.3,108.5,163.5,113.7,163.5,113.7z"/>
				<g>
					<path class="st29" d="M173.3,96.9c-5.8,14.1-21.6,9.6-22.9,3c-0.4-2.1-0.2-5.6,0.6-9.2c0.2-0.8,0.4-1.6,0.6-2.4
						c1.5-5.5,4.2-10.5,7.7-10.7C171.4,77,179.1,82.8,173.3,96.9z"/>
					<path d="M155.4,79.7c0,0,7.7-2.8,16.3,3.2c0,0-0.7,8.9-1.4,12.7c0,0,3.2,2.5-2.7,8.6c0,0,4.8,1.2,10-10.9
						c4.5-10.5-2.4-12.3-2.4-12.3s0.3-7-7.4-8.4c-7.7-1.4-11.8,0.2-12-3.6C155.6,65.1,146.8,75.2,155.4,79.7z"/>
					<path class="st28" d="M163.1,89.6c-0.3,0.8-0.8,1.3-1.3,1.2c-0.4-0.1-0.6-0.9-0.4-1.7c0.3-0.8,0.8-1.3,1.3-1.2
						C163.2,88,163.3,88.8,163.1,89.6z"/>
					<path class="st28" d="M155.5,87.9c-0.3,0.8-0.8,1.3-1.3,1.2c-0.4-0.1-0.6-0.9-0.4-1.7c0.3-0.8,0.8-1.3,1.3-1.2
						C155.6,86.3,155.7,87.1,155.5,87.9z"/>
					<path class="st30" d="M156.4,89.6c0,0-2.7,2.6-4,1.6c-1.3-0.9-1.3,2.8,3.1,2.9C155.6,94.1,157.2,92.6,156.4,89.6z"/>
					<path class="st28" d="M152.8,95.1c0,0-0.2,1.5,2.5,2c2.6,0.5,4.8-0.6,4.8-0.6s-2,5-5.9,3.7C151,99.3,152.8,95.1,152.8,95.1z"/>
					<ellipse class="st31" cx="163.8" cy="93.1" rx="1.6" ry="1.3"/>
					<path class="st31" d="M153,90.4c-0.4,0.6-1.2,0.7-1.9,0.2c0.2-0.8,0.4-1.6,0.6-2.4c0.2,0,0.5,0.1,0.7,0.3
						C153.1,89,153.3,89.9,153,90.4z"/>
					<path class="st40" d="M162.8,83.8c0,0,1.8,0.3,2.7,1.5"/>
					<path class="st40" d="M156.3,82.8c0,0-1.8-0.5-2.1,0.4"/>
					<path class="st29" d="M170.4,95.5c0,0,3.2-2,4.9,0.4c1.6,2.4-3.6,6.3-5.9,5.4C167,100.3,170.4,95.5,170.4,95.5z"/>
				</g>
				<path class="st25" d="M154,104.3l-0.6,13.3c0,0,3,2.8,12.1,0c0,0-1.1-10.6,4.5-16.2c0,0-0.9-0.2-2.4-0.5
					C167.5,100.9,163.8,107.8,154,104.3z"/>
				<path class="st29" d="M111.8,93.1c0,0-0.8,3.9-0.8,5.8s-1.1,7-5.6,6.3c-4.5-0.7-7.7-10.1-7.7-10.1c-0.6-3.7,1.9-5.6,1.9-5.6
					c-0.3-1.7,1.9-3.4,1.9-3.4l0.5-2.9c3.2,0.6,1.2,2.9,2.2,7.2c0.3,1,1.8,2.8,2.4,3.7h0c0.8,1.3,1.7,2.4,1.7,2.4s0,0,0,0
					c0.1-0.2,1.4-2.4,2.3-3.4C111.6,92.1,111.8,93.1,111.8,93.1z"/>
				<path class="st25" d="M98.6,93.4c0,0,1.1-1.9,1.8-1.6c0,0,0.5,0.8,0.3,1.6c-0.2,0.8-1.1,1.6-0.5,3.6c0.6,2,4.6-4.9,4.6-4.9
					c-1.6,1-2.8-2.1-2.2-3.4c0.5-1.3,0.4-2.1,0.1-2.6c-0.3-0.5-1,0-1,0s0.4,0.2,0.6,0.7c0.2,0.4,0.3,2.5-0.1,3.1
					c-0.4,0.6,0.2-0.7-0.5-0.8c-0.7-0.2-1.2,0.3-1.2,0.3s0.8,0,0.8,0.7c0,0.7-0.5,1.7-0.5,1.7S99.3,90.1,98.6,93.4z"/>
				<path class="st25" d="M108.4,96.5c0,0-2.3-0.1-2.4,2.1c-0.1,2.2-1.7,2.3-1.7,2.3s-0.4-5.1,2.4-6.8h0
					C107.5,95.5,108.4,96.5,108.4,96.5z"/>
				<path class="st38" d="M185.8,216.2c0,0-13.7,0.5-21.7-8.8c-7.7-9-6.4-69.2-5.2-77c0,0,4.2-4.6,7.7-7.3c3.1-2.3,4-7,4.1-8.2
					c10.3,2.9,17.5,9.6,18.6,14.9C190.7,136.5,185.8,216.2,185.8,216.2z"/>
				<path class="st38" d="M151,113.6c-1.4,2.2-4,7.2-4.8,14.4c-0.5,4.9-2.7,66.2-6.6,74.5c-1.7,3.6-11.4,10.9-11.4,10.9
					s-2-86.2,2.9-92.6C134.7,116.1,141.8,114.1,151,113.6z"/>
				<path class="st39" d="M165.8,109.9c0,0,7.3,0.1,9.1,7.6c1.8,7.5-7.7,13.3-7.7,13.3s-1.6-4-3.7-4c-2.1,0-4.7,3.6-4.7,3.6
					s2-4.5,5-6.8S169.6,114.8,165.8,109.9z"/>
				<path class="st39" d="M153.7,109.4c0,0-10.8,1.9-15,12.7c0,0,2.6-1.1,4.3,0c1.7,1.1,3.1,5.9,3.1,5.9s1.7-11.6,7.3-14.5
					L153.7,109.4z"/>
				<path class="st39" d="M186.4,124.5c0,0-6.9,12.3-6.3,20.3c0.3,3.8,7.4,34.5,7.4,34.5s-1.7,39,0.9,47.8c0,0,5.7-0.2,7-1.4
					c0,0,6.4-24.4,5.1-48.3C199.3,154.1,191.9,129.7,186.4,124.5z"/>
			</g>
			<g>
				<path class="st41" d="M338,347c0.5-0.5,1.1-1.2,1.8-2.3c1.4-2.3,4.2-1.8,4.2-1.8c0.9,0.7,1,4.1,1,4.9h1.1c0.4-1,1.7-5.3,1.3-7
					c-0.3-1.3-1.3-4.4-1.7-5.8c-0.1-0.4-0.2-0.8-0.2-1.2c1.2-5,5.3-22,12.4-35.7c5.7-10.9,7.5-15.2,8.6-25c1.1-9.8,10-34.2,10-34.2
					s-12.5-34-17.7-12.8c-5.2,21.1-5.8,47-6.7,52.2c-0.9,5.2-8.6,41.4-13.2,56.6c-0.9,2.9-5.2,8.7-6.8,10c0,0,0,0,0,0
					c-0.2,0.1-1.3,0.4-2.2,1.2c-0.3,0.2-0.5,0.5-0.8,0.9H338z"/>
				<path class="st38" d="M338,347.8c0.9,0,2.7-1.9,3.9-2.9c1.2-0.9,1.8-0.9,1.8-0.9c0.9,0.7,1.2,2.9,1.2,3.7h1.1
					c0.4-1,1.7-5.3,1.3-7c-0.3-1.3-1.1-3.1-1.3-5.6c-3.3-1.9-6.2,4.5-10.5,8.2c-2.2,1.8-3.5,1.5-3.5,1.5s0,0,0,0
					c-0.2,0.1-1.5,0.2-2.7,0.8c-1.8,1.1-1.8,1.7-2.1,2.1H338z"/>
				<path class="st29" d="M397.9,232.9c1.4,21.5-2.7,26.9-4.3,35.7c-1.2,6.7,2.2,16.4-1.2,27.2c-2.3,7.2-7.4,37.6-7.4,37.6v12.6
					h-8.5c0,0,3.4-14,3.4-19.3c0-22.7,3.1-49.8,2.7-60.1c-0.5-10.1-3.8-29.9-3.8-29.9L397.9,232.9z"/>
				<path class="st38" d="M387.3,199.7c0,0,13.2,11.6,12,43.5c0,0-11.7,2.7-27.8,2c-13.5-0.6-17.6-3.1-17.6-3.1
					c0.8-19.5,8.8-43.6,8.8-43.6S374.8,194,387.3,199.7z"/>
				<path class="st42" d="M377.6,117.9c0,0-4.8,0.3-4.8,5.9s0.6,13.6-1.5,17.4c-2.1,3.7-0.3,12,10.8,11.8s16.5,2.1,16.4-1.3
					C398.4,148.2,377.6,117.9,377.6,117.9z"/>
				<path class="st43" d="M375,146.1c-3.3-3.4-9.4-1.6-18.8,16.6c-7.4,14.3-1.8,19.8,1.8,18c3.7-1.8,13.2-12.9,13.2-12.9L375,146.1z
					"/>
				<path class="st44" d="M375,146.1c0,0,5.3,4.8,13,6.5c7.6,1.8,10.8-2.9,14.7,2c5.9,7.4-3.7,21-8.7,28c-1.9,2.6-5.8,9.9-6.6,16.9
					c0,0-13.2,3.8-24.7-1.1l-0.9-16.2C361.8,182.3,354.6,160.4,375,146.1z"/>
				<path class="st29" d="M354.4,172.4c1.7-4.3,30.3-13.3,30.3-13.3l2,3.1c0,0-23.8,18.9-28.7,18.4
					C353.1,180.2,352.8,176.5,354.4,172.4z"/>
				<path class="st43" d="M400.6,152.9c0,0-4.8,2.2-5.4,13.6c-0.4,7.8-4.2,21.4-4.2,21.4c3.4,10.3,7.6,4.5,8.6,2.5
					C406.3,178.2,411.6,156.8,400.6,152.9z"/>
				<g>
					<path class="st29" d="M394.5,119.8c0,0-14.6-4.9-17.6,5.4c-2.9,10.3,0,21,7.9,20.8C394.5,145.7,405.8,125.6,394.5,119.8z"/>
					<path class="st28" d="M384.8,131.6c0,0.7-0.4,1.2-0.8,1.1c-0.4,0-0.7-0.6-0.7-1.2c0-0.7,0.4-1.2,0.8-1.1
						C384.5,130.4,384.8,130.9,384.8,131.6z"/>
					<path class="st31" d="M387.1,134.3c0.1,0.6-0.5,1.2-1.3,1.3c-0.8,0.1-1.4-0.4-1.5-1c-0.1-0.6,0.5-1.2,1.3-1.3
						C386.4,133.2,387,133.7,387.1,134.3z"/>
					<path class="st28" d="M385.2,131.4c0,0-0.3-1.5-0.9-1.6c-0.5,0-1.4,1-1.4,1l-1-0.7l1,0.4c0,0,0.8-1.2,1.6-0.9
						C385.1,129.8,385.2,131.4,385.2,131.4z"/>
					<path class="st28" d="M378.7,130.6c0,0.7-0.4,1.2-0.8,1.1c-0.4,0-0.7-0.6-0.7-1.2c0-0.7,0.4-1.2,0.8-1.1
						C378.4,129.4,378.7,130,378.7,130.6z"/>
					<path class="st28" d="M379.1,130.5c0,0-0.3-1.5-0.9-1.6c-0.5,0-1.4,1-1.4,1l-1-0.7l1,0.4c0,0,0.8-1.2,1.6-0.9
						C379,128.9,379.1,130.5,379.1,130.5z"/>
					<g>
						<path class="st45" d="M386,128c-0.1,0-0.2-0.1-0.2-0.1c-0.6-1-1.8-0.8-1.8-0.8c-0.2,0-0.3-0.1-0.3-0.3c0-0.2,0.1-0.3,0.3-0.3
							c0.1,0,1.6-0.1,2.4,1.1c0.1,0.1,0,0.3-0.1,0.4C386.1,128,386,128,386,128z"/>
					</g>
					<g>
						<path class="st45" d="M379.2,126.4c-0.1,0-0.1,0-0.2-0.1c-0.9-0.7-1.9-0.3-2-0.2c-0.2,0.1-0.3,0-0.4-0.2
							c-0.1-0.2,0-0.3,0.2-0.4c0.1,0,1.4-0.6,2.6,0.3c0.1,0.1,0.1,0.3,0,0.4C379.4,126.4,379.3,126.4,379.2,126.4z"/>
					</g>
					<path class="st30" d="M379,132.5c0,0-2.6,0-2.4,0.9s1.8,2.1,1.8,2.1S379.6,133.7,379,132.5z"/>
					<path class="st28" d="M377.8,137.2c0,0,2.2,1.4,6.1,0.2c0,0-1.2,4.6-3.6,4C377.8,140.8,377.8,137.2,377.8,137.2z"/>
					<path class="st45" d="M388.7,125.1c0,0,3.3,4.3,3.2,9.8c0,0,2.5-3,3.7-0.4c1.3,2.6-3.9,6.4-3.9,6.4s0.1,6.6,2.3,6.7
						c2.3,0.1,8.2-12.6,6.9-16.9C399.6,126.4,395.5,122.1,388.7,125.1z"/>
					<path class="st25" d="M391.5,138.6c-1.1,3-5.4,8.2-10,6.8c0,0,0.6,3-1.3,4.6c0,0-1.3,1.3,0.7,2.6c6.1,4.1,10.3,1.2,10.9,0.1
						l1.3-13.6C391.9,140,391.5,138.6,391.5,138.6z"/>
					<path class="st46" d="M375.7,119.1c0,0,0.4,3.9,6.2,6.1c5.8,2.2,10.6,2.8,11.2,7.9c0.6,5.1-4.8,11.5-2.4,18.5
						c1.6,4.5,7.8,2.1,10,1.9c1-0.1,2.4,0.9,2.4,0.9s2.3-3.5-1.1-7.7c-2.1-2.6,1.4-12.2,0.4-17.4c-1-5.1-1.9-6-4.7-10.9
						c-2.8-4.9-13.4-5.4-16.1-2.1C381.7,116.2,375.6,113.6,375.7,119.1z"/>
				</g>
				<path class="st29" d="M399.9,188.8c1.7-7.5-2.3-6.3-4.4-29.6L392,160l-0.4,4.9c0,0-2.6,19.4,0,25.2
					C394.3,195.9,398.9,193.3,399.9,188.8z"/>
				<g>
					<path class="st29" d="M383.8,159.4c0,0,1-6.8,2.1-8.5c1.1-1.7,2.9-4.5,2.9-4.5s1.2-0.7,0.1,2.8l1.2-0.6c0,0,0.6,0.9-0.1,2.5
						c0,0,0.2,0.5-0.1,1c0,0,0.5,0.7-0.3,1.8c-1,1.4,0.1,5.7-3,8.4C383.6,165,383.8,159.4,383.8,159.4z"/>
					<path class="st25" d="M388.9,149.2l-1.7,1.9l-1.3,2.1c0,0,0.3-1.5,1-2.5c0.7-1,2.3-2.7,2.3-2.7L388.9,149.2z"/>
					<path class="st25" d="M390.1,151.1c0,0,0.3-0.9-0.2-1c-0.5-0.1-2.9,1.7-3.2,4.2c0,0,0.5-1.2,1.1-2.1
						C388.5,151.3,390,149.6,390.1,151.1z"/>
					<path class="st25" d="M390.1,152.8c-0.4-1-1.3,0.8-1.7,1.6c-0.3,0.7-1,1.3-1,1.3s1-2.8,1.9-3.5
						C390.1,151.5,390.1,152.8,390.1,152.8z"/>
				</g>
				<g>
					<path class="st29" d="M393.6,163.1c0,0-1.7-0.9-2-3.1c-0.2-1.3,1-4.7,2.6-6.7c0,0,0.5-0.2,0.6,0.6c0,0,1.9-2.6,2.5-4.2
						c0.6-1.5,1-0.8,1-0.8l0,0.8c0,0,0.6-0.5,0.9,0.1c0.3,0.5-0.2,3.2-0.2,3.2s0.6-0.6,0,1.9C398.5,157.4,396.1,163.4,393.6,163.1z"
						/>
					<path class="st25" d="M394.8,153.9c0,0-0.1,1.5-0.6,2.3c-0.5,0.8-0.1,1.3-0.2,2.9c0,0,0.6-1.7,0.6-2.2
						C394.6,156.3,396.1,154.6,394.8,153.9z"/>
					<path class="st25" d="M398.3,149.8c0,0-0.7,2.4-2.4,4.8C395.9,154.6,397.4,150.2,398.3,149.8z"/>
					<path class="st25" d="M399,153.1c-0.7,0.3-1.1,2.5-1.7,3.4c-0.6,0.8-0.6-0.1,0-0.8c0.4-0.4,0.7-1.5,1.1-2.1
						C398.7,153,399,153.1,399,153.1z"/>
					<path class="st25" d="M399.3,150.8c0,0,0-0.2-0.2-0.2c-0.2-0.1-0.5,0.1-0.7,0.8c-0.2,0.6-1.5,4.1-1.9,4.2
						c-0.4,0.1,0.5-0.9,0.7-1.5c0.2-0.6,0.9-2.3,1.2-3.1C398.6,150.2,399.2,150.1,399.3,150.8z"/>
				</g>
				<path class="st38" d="M386.4,347.8c0.2-1.8-0.3-4.9-0.3-6.5c0-1.9-1.1-6.7-1.1-6.7c-0.4,3.4-1.3,5.5-1.7,7.2
					c-0.4,1.7-3.7,1.3-4.4,0c-0.7-1.3,0-7.2,0-7.2c-1.5,2.4-1.1,5.8-2.4,7c-0.9,0.8-1,4.5-1,6.2H386.4z"/>
			</g>
		</g>
	</g>
</g>
<g id="DESIGNED_BY_FREEPIK" class="st0">
	<g class="st1">
		<g id="XMLID_319_">
			<g id="XMLID_338_">
				<path id="XMLID_346_" class="st47" d="M103.7,419.2c-0.4,0.4-0.8,0.9-1.1,1.5l-0.5-0.2c-0.1-0.3-0.3-0.5-0.7-0.5
					c-0.3,0-0.6,0.3-0.5,0.7c0,0.3,0.3,0.6,0.7,0.5c0.1,0,0.1,0,0.2-0.1l0.5,0.2c-0.3,0.6-0.4,1.1-0.5,1.7l0.7,0.1
					c0.2-1.3,0.8-2.5,1.8-3.5L103.7,419.2z"/>
				<path id="XMLID_345_" class="st47" d="M109.2,416.9c-0.2,0-0.3,0-0.5,0l-0.1-0.6c0.2-0.1,0.3-0.4,0.3-0.6c0-0.4-0.4-0.7-0.8-0.6
					c-0.4,0-0.7,0.4-0.6,0.8c0,0.3,0.2,0.5,0.4,0.6l0.1,0.6c-0.7,0.1-1.4,0.3-2.1,0.6l0.3,0.7c0.9-0.4,1.9-0.7,3-0.7
					c0.5,0,1,0.1,1.5,0.2l0.2-0.7C110.3,417,109.8,416.9,109.2,416.9z"/>
				<path id="XMLID_344_" class="st47" d="M115.8,419.5c0.3,0,0.6-0.3,0.5-0.7c0-0.3-0.3-0.6-0.7-0.5c-0.3,0-0.5,0.3-0.5,0.6
					l-0.4,0.4c-0.4-0.4-0.9-0.8-1.4-1.1l-0.4,0.6c1.1,0.7,2,1.7,2.6,2.9l0.7-0.3c-0.3-0.6-0.6-1.1-0.9-1.5l0.4-0.4
					C115.7,419.5,115.7,419.5,115.8,419.5z"/>
				<path id="XMLID_343_" class="st47" d="M108.7,427.1c-0.4,0-0.8,0-1.2,0c-0.9,0-1.7-0.1-2.5-0.2c-0.4-0.1-0.8-0.2-1.3-0.3
					c1,1.9,3.1,3.1,5.4,3.1c2.9,0,5.3-1.9,5.9-4.5c-0.7,0.4-1.5,0.8-2.5,1.1C111.5,426.8,110.1,427,108.7,427.1z"/>
				<path id="XMLID_339_" class="st47" d="M109.2,418.4c-3.4,0-6.1,2.7-6.1,5.9c0,0.4,0,0.8,0.1,1.3c0.7,0.5,2.7,0.9,5.3,0.7
					c2.9-0.2,5.3-1,6.7-2.2c0-0.2,0-0.4,0-0.6C114.9,420.7,112.3,418.4,109.2,418.4z M107,424.9c-1,0-1.8-0.8-1.8-1.8
					c0-1,0.8-1.8,1.8-1.8c1,0,1.8,0.8,1.8,1.8C108.9,424.1,108.1,424.9,107,424.9z M111.8,424c-0.8,0-1.4-0.6-1.4-1.4
					s0.6-1.4,1.4-1.4s1.4,0.6,1.4,1.4S112.5,424,111.8,424z"/>
			</g>
			<path id="XMLID_336_" class="st47" d="M125.2,420.3c-0.3-0.1-0.8-0.3-1.4-0.2c-0.6,0.1-0.8,0.3-0.8,1v0.9h2.2v1.7H123v5.5h-1.9
				v-5.5h-1.3v-1.7h1.3V421c0-1.7,0.9-2.8,2.6-2.8c0.6,0,1.2,0.1,1.6,0.3V420.3z"/>
			<path id="XMLID_334_" class="st47" d="M129.9,423.6c-0.2,0-0.4,0-0.5,0c-0.9,0-1.5,0.5-1.5,1.6v3.9h-1.9v-7.2h1.9v0.8
				c0.5-0.7,1.1-1,2-1c0.4,0,0.8,0.1,1.1,0.3L129.9,423.6z"/>
			<path id="XMLID_331_" class="st47" d="M137.6,425.5c0,0.2,0,0.5,0,0.7h-5.1c0.2,1,0.9,1.5,1.8,1.5c0.6,0,1.3-0.3,1.8-0.7l1.1,1.2
				c-0.8,0.7-1.9,1.1-3.1,1.1c-2.2,0-3.7-1.5-3.7-3.8c0-2.3,1.5-3.8,3.6-3.8C136.2,421.7,137.6,423.3,137.6,425.5z M132.5,424.8h3.2
				c-0.2-0.9-0.7-1.4-1.6-1.4C133.2,423.4,132.6,423.9,132.5,424.8z"/>
			<path id="XMLID_328_" class="st47" d="M145.2,425.5c0,0.2,0,0.5,0,0.7h-5.1c0.2,1,0.9,1.5,1.8,1.5c0.6,0,1.3-0.3,1.8-0.7l1.1,1.2
				c-0.8,0.7-1.9,1.1-3.1,1.1c-2.2,0-3.7-1.5-3.7-3.8c0-2.3,1.5-3.8,3.6-3.8C143.8,421.7,145.2,423.3,145.2,425.5z M140.1,424.8h3.2
				c-0.2-0.9-0.7-1.4-1.6-1.4C140.8,423.4,140.3,423.9,140.1,424.8z"/>
			<path id="XMLID_325_" class="st47" d="M153.6,425.5c0,2.2-1.5,3.8-3.5,3.8c-1,0-1.6-0.4-2.1-0.9v3.7h-1.9v-10.1h1.9v0.8
				c0.5-0.6,1.2-1,2.1-1C152.1,421.7,153.6,423.4,153.6,425.5z M147.9,425.5c0,1.1,0.7,2,1.8,2c1.1,0,1.9-0.9,1.9-2
				c0-1.1-0.7-2-1.9-2C148.7,423.5,147.9,424.4,147.9,425.5z"/>
			<path id="XMLID_322_" class="st47" d="M156.7,419.6c0,0.7-0.5,1.2-1.2,1.2c-0.7,0-1.2-0.5-1.2-1.2c0-0.7,0.5-1.2,1.2-1.2
				C156.1,418.3,156.7,418.9,156.7,419.6z M156.4,429.1h-1.9v-7.2h1.9V429.1z"/>
			<path id="XMLID_320_" class="st47" d="M159.6,424.5l2.7-2.6h2.4l-3.5,3.4l3.5,3.8h-2.4l-2.7-2.9v2.9h-1.9v-10.7h1.9V424.5z"/>
		</g>
		<g>
			<path class="st47" d="M28,429V428c-0.5,0.7-1.4,1.2-2.4,1.2c-1.8,0-3.1-1.4-3.1-3.7c0-2.3,1.3-3.7,3.1-3.7c1,0,1.8,0.5,2.4,1.2
				v-3.8h1.1v9.8H28z M28,427.1v-3.2c-0.4-0.6-1.2-1.1-2.1-1.1c-1.4,0-2.3,1.2-2.3,2.7c0,1.6,0.8,2.7,2.3,2.7
				C26.8,428.2,27.6,427.7,28,427.1z"/>
			<path class="st47" d="M30.5,425.5c0-2.1,1.5-3.7,3.5-3.7c2.1,0,3.4,1.7,3.4,3.8v0.3h-5.7c0.1,1.3,1,2.4,2.5,2.4
				c0.8,0,1.6-0.3,2.2-0.9l0.5,0.7c-0.7,0.7-1.7,1.1-2.8,1.1C32.1,429.2,30.5,427.7,30.5,425.5z M34,422.7c-1.5,0-2.3,1.3-2.3,2.4
				h4.6C36.3,424,35.6,422.7,34,422.7z"/>
			<path class="st47" d="M38.2,428.1l0.6-0.8c0.5,0.5,1.4,1,2.3,1c1.1,0,1.7-0.5,1.7-1.2c0-1.7-4.4-0.7-4.4-3.3c0-1.1,1-2,2.6-2
				c1.2,0,2.1,0.5,2.6,1l-0.5,0.8c-0.4-0.5-1.2-0.9-2.1-0.9c-1,0-1.6,0.5-1.6,1.1c0,1.6,4.4,0.5,4.4,3.3c0,1.2-1,2.1-2.8,2.1
				C39.9,429.2,38.9,428.9,38.2,428.1z"/>
			<path class="st47" d="M45.1,420.2c0-0.4,0.3-0.7,0.7-0.7c0.4,0,0.7,0.3,0.7,0.7c0,0.4-0.3,0.7-0.7,0.7
				C45.4,420.9,45.1,420.6,45.1,420.2z M45.3,429V422h1.1v7.1H45.3z"/>
			<path class="st47" d="M48.2,430.8l0.6-0.8c0.6,0.7,1.3,1,2.3,1c1.2,0,2.3-0.6,2.3-2.1v-1c-0.5,0.7-1.4,1.3-2.4,1.3
				c-1.8,0-3.1-1.4-3.1-3.7c0-2.3,1.3-3.7,3.1-3.7c1,0,1.8,0.5,2.4,1.2V422h1.1v6.9c0,2.3-1.6,3.1-3.4,3.1
				C49.9,431.9,49,431.7,48.2,430.8z M53.3,427v-3.1c-0.4-0.6-1.2-1.1-2.1-1.1c-1.4,0-2.3,1.1-2.3,2.7c0,1.6,0.8,2.7,2.3,2.7
				C52.1,428.2,52.9,427.6,53.3,427z"/>
			<path class="st47" d="M61,429v-4.6c0-1.2-0.6-1.6-1.6-1.6c-0.9,0-1.7,0.5-2.1,1.1v5.2h-1.1V422h1.1v1c0.5-0.6,1.5-1.2,2.5-1.2
				c1.5,0,2.3,0.7,2.3,2.3v5H61z"/>
			<path class="st47" d="M63.5,425.5c0-2.1,1.5-3.7,3.5-3.7c2.1,0,3.4,1.7,3.4,3.8v0.3h-5.7c0.1,1.3,1,2.4,2.5,2.4
				c0.8,0,1.6-0.3,2.2-0.9l0.5,0.7c-0.7,0.7-1.7,1.1-2.8,1.1C65.1,429.2,63.5,427.7,63.5,425.5z M67,422.7c-1.5,0-2.3,1.3-2.3,2.4
				h4.6C69.3,424,68.6,422.7,67,422.7z"/>
			<path class="st47" d="M77,429V428c-0.5,0.7-1.4,1.2-2.4,1.2c-1.8,0-3.1-1.4-3.1-3.7c0-2.3,1.3-3.7,3.1-3.7c1,0,1.8,0.5,2.4,1.2
				v-3.8h1.1v9.8H77z M77,427.1v-3.2c-0.4-0.6-1.2-1.1-2.1-1.1c-1.4,0-2.3,1.2-2.3,2.7c0,1.6,0.8,2.7,2.3,2.7
				C75.7,428.2,76.6,427.7,77,427.1z"/>
			<path class="st47" d="M83.3,429v-9.8h1.1v3.8c0.6-0.8,1.4-1.2,2.4-1.2c1.8,0,3.1,1.5,3.1,3.7c0,2.3-1.3,3.7-3.1,3.7
				c-1,0-1.9-0.5-2.4-1.2v1.1H83.3z M86.5,428.2c1.4,0,2.3-1.2,2.3-2.7c0-1.6-0.8-2.7-2.3-2.7c-0.9,0-1.7,0.5-2.1,1.1v3.2
				C84.8,427.7,85.7,428.2,86.5,428.2z"/>
			<path class="st47" d="M91.1,430.8c0.2,0.1,0.4,0.1,0.6,0.1c0.5,0,0.8-0.2,1.1-0.7l0.5-1.1l-3-7.1h1.2l2.4,5.8l2.3-5.8h1.2
				l-3.5,8.5c-0.4,1-1.1,1.4-2.1,1.4c-0.2,0-0.6,0-0.8-0.1L91.1,430.8z"/>
		</g>
	</g>
</g>
</svg>
