<?xml version="1.0" encoding="utf-8"?>
<!-- Generator: Adobe Illustrator 23.1.0, SVG Export Plug-In . SVG Version: 6.00 Build 0)  -->
<svg version="1.1" xmlns="http://www.w3.org/2000/svg" xmlns:xlink="http://www.w3.org/1999/xlink" x="0px" y="0px"
	 viewBox="0 0 2804 2807.1" style="enable-background:new 0 0 2804 2807.1;" xml:space="preserve">
<style type="text/css">
	.st0{display:none;}
	.st1{display:inline;}
	.st2{fill:#FFFFFF;}
	.st3{display:none;fill:url(#SVGID_1_);}
	.st4{fill:#A2E6EA;}
	.st5{fill:url(#SVGID_2_);}
	.st6{fill:#78CAD2;}
	.st7{opacity:0.5;fill:#FFFFFF;}
	.st8{fill:#2F11AA;}
	.st9{fill:#CAC2ED;}
	.st10{fill:#B394F0;}
	.st11{opacity:0.78;fill:#FFFFFF;}
	.st12{fill:url(#SVGID_3_);}
	.st13{fill:url(#SVGID_4_);}
	.st14{opacity:0.6;}
	.st15{opacity:0.6;fill:#FFFFFF;}
	.st16{fill:#F49390;}
	.st17{fill:#91B3FA;}
	.st18{fill:#7D97F4;}
	.st19{fill:url(#SVGID_5_);}
	.st20{fill:#6836E0;}
	.st21{fill:#A478F2;}
	.st22{filter:url(#Adobe_OpacityMaskFilter);}
	.st23{filter:url(#Adobe_OpacityMaskFilter_1_);}
	.st24{mask:url(#SVGID_6_);fill:url(#SVGID_7_);}
	.st25{fill:#8B5CEA;}
	.st26{fill:#FFB27D;}
	.st27{fill:#18093C;}
	.st28{fill:#EF9D65;}
	.st29{fill:#1D1B59;}
</style>
<g id="Background" class="st0">
	<g class="st1">
		<g>
			<rect x="-438.9" y="-437.2" class="st2" width="3710" height="3710"/>
		</g>
	</g>
</g>
<g id="Illustration">
	<g>
		<linearGradient id="SVGID_1_" gradientUnits="userSpaceOnUse" x1="2793.0251" y1="3044.2593" x2="279.5288" y2="180.7778">
			<stop  offset="0" style="stop-color:#DAE3FE"/>
			<stop  offset="1" style="stop-color:#E9EFFD"/>
		</linearGradient>
		<path class="st3" d="M2448.2,2411.5c-506.2,534.2-1283.8,376.2-1398.7,350.8c-144.8-32-489.3-108.1-746.4-408.7
			C-90.5,1893.5-50.8,1174.3,253.2,689.5c88.4-141.1,386.1-560.3,945.1-651.5c32.7-5.3,616.4-90.9,1086,303.1
			c63.3,53.1,165.5,149.3,255.1,289.4C2817.2,1065.3,2948.7,1883.3,2448.2,2411.5z"/>
		<g>
			<g>
				<path class="st4" d="M1879.6,993.9c-31.3,113.5-84,261.6-138.2,387.7l-19.5-3.4c68.1-151.7,143.3-362.5,176.5-615
					c33.5-254.6,25.6-572.3,166.8-698.6c117.5-105.1,528.3-51.6,662.8-30.7c16.8,2.6,23,23.6,10.3,34.9
					c-62.8,55.6-196.7,186.4-229.1,315.5c-42.7,170.2-200.4,281.8-343.4,314.7S1943.5,762.2,1879.6,993.9z"/>
				
					<linearGradient id="SVGID_2_" gradientUnits="userSpaceOnUse" x1="2043.0095" y1="179.7213" x2="2547.8635" y2="179.7213" gradientTransform="matrix(0.9849 0.1733 -0.1733 0.9849 -4.309 -101.6562)">
					<stop  offset="0" style="stop-color:#DAE3FE"/>
					<stop  offset="1" style="stop-color:#E9EFFD"/>
				</linearGradient>
				<path class="st5" d="M2541.6,110.9c-86.1,6.4-170.7,30.3-248,69.8c-38.7,19.6-75,44.3-107.6,73.3
					c-32.4,29.2-61.2,62.8-83.6,100.3l-8.4,14.1c-2.8,4.7-5.1,9.7-7.6,14.5c-2.4,4.9-5.1,9.8-7.3,14.6l-6.8,14.6
					c-9.1,19.4-18,38.9-26.8,58.5c-17.6,39.1-34.6,78.6-50.9,118.2c-32.8,79.3-63.1,159.7-88.4,241.8c-0.6,2,0.5,4.1,2.5,4.7
					c1.9,0.6,3.9-0.4,4.6-2.3l0-0.1c14.8-40,30.4-79.9,46.7-119.4c16.2-39.6,32.8-79,49.9-118.2l25.8-58.7l26.4-58.4
					c8.8-19.5,17.8-38.9,26.9-58.2l6.8-14.5c2.3-4.8,4.7-9.4,7.1-14.1c2.4-4.6,4.6-9.4,7.2-14l7.9-13.6c21.3-36.2,48.9-68.3,79.6-97
					c15.7-14,31.8-27.5,49.3-39.4l6.4-4.6l6.6-4.3c4.4-2.9,8.8-5.9,13.3-8.6c9.1-5.4,18-11,27.4-15.9c37-20.5,76.5-36.4,117-49.4
					c40.4-12.9,82.3-22.5,124.4-27.6l0.2,0c1.6-0.2,2.8-1.7,2.6-3.3C2544.6,111.9,2543.2,110.8,2541.6,110.9z"/>
			</g>
			<g>
				<path class="st6" d="M2108.9,1057.9c-21.9,137.1,14.5,191,35.4,241.2c3.7,8.9,9,21.5,14.9,36.6l-19.3,9.1
					c-5.5-21.9-12.2-43.4-20.5-63.7c-57-139.2-135.4-385.6-83.4-579.5c52-193.9,174.4-266.9,395.5-216.8
					c184.2,41.8,293.3,55.3,347.2,42c13.4-3.3,26.1,7.6,25.3,21.3c-4.2,73.1-30.8,248.9-185.4,310.1
					C2421.4,936.2,2130.8,920.8,2108.9,1057.9z"/>
				<path class="st7" d="M2455.3,677.7c-15.3-5.1-30.8-8.9-46.5-12.2c-15.7-3.3-31.5-6-47.5-7.8c-31.9-3.7-64.5-4.3-96.9,0
					c-16.2,2.2-32.3,5.6-48,10.6c-15.7,5.2-30.9,12-45.1,21c-3.5,2.4-7.1,4.5-10.4,7.1c-3.3,2.6-6.7,5.1-9.8,7.8l-18,16.5
					l-16.9,17.7l-15.5,19c-19.7,26.2-34.7,56-44.1,87.3c-9.6,31.3-13.3,63.9-13.8,96.2l-0.2,12.1c-0.1,4,0.3,8.1,0.4,12.1
					c0.5,8,0.7,16.1,1.3,24.1l2.6,23.9c0.7,8,2.4,15.8,3.7,23.8c5.1,31.6,12.9,62.6,21.5,93.3c0.5,1.7,2.3,2.7,4,2.2
					c1.6-0.5,2.6-2.1,2.3-3.7l0-0.1c-6.4-31-13-62-16.4-93.3c-2.2-15.6-3.1-31.3-4.4-47c-0.4-7.8-0.4-15.7-0.6-23.5
					c0-3.9-0.3-7.8-0.1-11.7l0.5-11.7c1.3-31.2,6.1-62.1,15.4-91.5c9.3-29.4,23.8-56.9,42.4-81.5l14.7-17.8l16-16.7l17.2-15.6
					c2.9-2.5,5.9-4.7,8.8-7c2.9-2.3,6.2-4.2,9.3-6.4c12.7-8.1,26.5-14.5,40.9-19.4c14.4-5,29.4-8.5,44.7-10.9
					c30.6-4.8,62-5.3,93.2-3.4c15.6,1.1,31.3,2.5,46.9,4.7c15.6,2.2,31.2,5,46.5,8.4l0.1,0c1.8,0.4,3.6-0.7,4-2.5
					C2457.8,679.9,2456.9,678.2,2455.3,677.7z"/>
			</g>
		</g>
		<g>
			<path class="st8" d="M148.2,500.2c0-96.3,78.1-174.4,174.4-174.4h1483.4c81.8,0,149.3,64.1,153.5,145.9l109.5,2150.7
				c3.3,64-47.1,117.9-111.1,119.1l-1700.2,30.9c-60.2,1.1-109.5-47.4-109.5-107.6V500.2z"/>
			<g>
				<path class="st9" d="M269.8,358.8c-0.2-30.8,26.9-54.7,57.5-50.5c202.6,27.5,899.2,112.4,1475.1,68.2
					c26.3-2,49.1,17.9,50.5,44.2L1967.6,2581c1.6,29.6-21,55-50.7,56.7c-242.2,14.3-1239.8,69.8-1595.7,32.5
					c-21.7-2.3-38.1-20.5-38.2-42.3L269.8,358.8z"/>
				<path class="st10" d="M293.6,413c-0.2-29.7,25.9-52.6,55.3-48.6c195,26.4,865.3,108.2,1419.6,65.7c25.3-1.9,47.2,17.2,48.6,42.5
					l110.5,2079c1.5,28.5-20.3,52.9-48.7,54.6c-233.1,13.8-1193.1,67.1-1535.6,31.3c-20.8-2.2-36.7-19.7-36.8-40.7L293.6,413z"/>
				<path class="st11" d="M474.1,573.3l20.7,445.7c0.7,14.8,12.7,26.6,27.5,27c82.5,2.3,339.8,8.6,485,1c16.4-0.9,29.4-14.1,30-30.6
					c2.8-83.6,8.8-326.9-10.2-428.6c-3.1-16.4-17.2-28.5-33.9-29l-487.9-17.1C487.6,541.1,473.3,555.7,474.1,573.3z"/>
				<linearGradient id="SVGID_3_" gradientUnits="userSpaceOnUse" x1="724.0798" y1="816.4927" x2="1099.7759" y2="-208.133">
					<stop  offset="0" style="stop-color:#FF928E"/>
					<stop  offset="1" style="stop-color:#FE7062"/>
				</linearGradient>
				<circle class="st12" cx="754.8" cy="732.6" r="95.8"/>
				<linearGradient id="SVGID_4_" gradientUnits="userSpaceOnUse" x1="812.9206" y1="849.0685" x2="1188.6169" y2="-175.5581">
					<stop  offset="0" style="stop-color:#FF928E"/>
					<stop  offset="1" style="stop-color:#FE7062"/>
				</linearGradient>
				<path class="st13" d="M609.3,1013.9h305.2c18.7,0,29.9-20.7,19.8-36.4c-25.9-40.6-80.2-100.2-174.1-97.5
					c-90.5,2.6-144.2,56.4-171.2,95C577.6,991.4,589.3,1013.9,609.3,1013.9z"/>
				<g class="st14">
					<path class="st2" d="M1707.7,612.1c2.4,0,4.4-2,4.3-4.4l-0.6-21c-0.1-2.4-2.1-4.5-4.6-4.5l-560.9-10c-2.4,0-3.8,1.8-3,4.1
						l11.2,31.7c0.8,2.3,3.5,4.2,5.9,4.2H1707.7z"/>
				</g>
				<g class="st14">
					<path class="st2" d="M1145.9,655.2c-2.4,0-3.8,1.8-3,4.1l11.2,31.7c0.8,2.3,3.5,4.2,5.9,4.2h547.7c2.4,0,4.4-2,4.3-4.4l-0.6-21
						c-0.1-2.4-2.1-4.5-4.6-4.5L1145.9,655.2z"/>
				</g>
				<g class="st14">
					<path class="st2" d="M1145.9,739.5c-2.4,0-3.8,1.8-3,4.1l11.2,31.7c0.8,2.3,3.5,4.2,5.9,4.2h547.7c2.4,0,4.4-2,4.3-4.4l-0.6-21
						c-0.1-2.4-2.1-4.5-4.6-4.5L1145.9,739.5z"/>
				</g>
				<g class="st14">
					<path class="st2" d="M1759.7,1186c2.4,0,4.3-2,4.1-4.4l-1.4-21c-0.2-2.4-2.3-4.4-4.7-4.5L478.4,1146c-2.4,0-3.2,1.5-1.7,3.4
						l26.4,33.1c1.5,1.9,4.8,3.5,7.2,3.5H1759.7z"/>
				</g>
				<g class="st14">
					<path class="st2" d="M478.4,1229c-2.4,0-3.2,1.5-1.7,3.4l26.4,33.1c1.5,1.9,4.8,3.5,7.2,3.5h1249.4c2.4,0,4.3-2,4.1-4.4
						l-1.4-21c-0.2-2.4-2.3-4.4-4.7-4.5L478.4,1229z"/>
				</g>
				<g>
					<path class="st2" d="M647.4,1795.8c-0.1,0-0.2,0-0.3,0l-105.8-1c-15.1-0.1-27.6-10.5-29-24.2l-9.3-88.8
						c-0.5-5.2,1.1-10.4,4.6-14.5c3.9-4.6,9.8-7.5,16.2-8l0,0c8.9-0.6,21.5-1.7,34.8-2.8c28-2.4,62.8-5.3,82.4-5.6
						c14.2-0.1,26.3,8.3,29.6,20.7c5.5,20.4,5,58.9,4,100C674.2,1785,662,1795.8,647.4,1795.8z M524.3,1667.4
						c-4.2,0.3-8,2.1-10.5,5.1c-2.1,2.4-3,5.4-2.7,8.4l9.3,88.8c1,9.5,10,16.8,21,16.9l105.8,1c0.1,0,0.1,0,0.2,0
						c10.3,0,18.7-7.2,19-16.2c1-40.5,1.5-78.4-3.7-97.7c-2.3-8.7-11.4-14.7-21.7-14.7c-19.3,0.2-54,3.2-81.8,5.6
						C545.9,1665.7,533.3,1666.8,524.3,1667.4L524.3,1667.4z"/>
					<path class="st15" d="M535.7,1676.6c22.2-1.5,70.5-6.4,93.4-6.7c9.7-0.1,18.2,5.7,20.5,14.2c4.4,16.3,3.8,48.9,3.1,79
						c-0.2,9-8.5,16.2-18.6,16.1l-84.5-0.8c-10.4-0.1-19-7.2-20-16.4l-7.4-70.9C521.4,1683.6,527.5,1677.1,535.7,1676.6z"/>
					<g class="st14">
						<path class="st2" d="M740.3,1736.8c3.1,11.6,13.6,19.7,25.6,19.6l978.8-8.3c11.1-0.1,19.9-9.2,19.7-20.3
							c-0.2-10.8-9-19.4-19.8-19.4l-978.8-4.5C748.6,1703.8,735.9,1720.1,740.3,1736.8z"/>
					</g>
					<path class="st16" d="M540.2,1690.5L540.2,1690.5c7.9-4.6,18-1.9,22.4,6.1l20.9,37.4c2.1,3.7,7.6,3.5,9.3-0.4l51.8-115.2
						c2.6-5.7,11.1-3.8,11,2.5c-0.5,35.2-9.9,102.2-66.2,158.3c0,0-31-12.1-56-66.9C529.8,1704.3,532.7,1694.9,540.2,1690.5z"/>
					<path class="st2" d="M647.4,2022.5c-0.1,0-0.2,0-0.3,0l-105.8-1c-15.1-0.1-27.6-10.5-29-24.2l-9.3-88.8
						c-0.5-5.2,1.1-10.4,4.6-14.5c3.9-4.6,9.8-7.5,16.2-8l0,0c8.9-0.6,21.5-1.7,34.8-2.8c28-2.4,62.8-5.3,82.4-5.6
						c0.1,0,0.3,0,0.4,0c13.9,0,25.9,8.5,29.2,20.7c5.5,20.4,5,58.9,4,100C674.2,2011.7,662,2022.5,647.4,2022.5z M524.3,1894.2
						c-4.2,0.3-8,2.2-10.5,5.1c-2.1,2.4-3,5.4-2.7,8.4l9.3,88.8c1,9.5,10,16.8,21,16.9l105.8,1c0.1,0,0.1,0,0.2,0
						c10.3,0,18.7-7.2,19-16.2c1-40.5,1.5-78.4-3.7-97.7c-2.3-8.7-11.5-14.9-21.7-14.7c-19.3,0.2-54,3.2-81.8,5.6
						C545.9,1892.5,533.3,1893.5,524.3,1894.2L524.3,1894.2z"/>
					<path class="st15" d="M535.7,1903.3c22.2-1.5,70.5-6.4,93.4-6.7c9.7-0.1,18.2,5.7,20.5,14.2c4.4,16.3,3.8,48.9,3.1,79
						c-0.2,9-8.5,16.2-18.6,16.1l-84.5-0.8c-10.4-0.1-19-7.2-20-16.4l-7.4-70.9C521.4,1910.4,527.5,1903.9,535.7,1903.3z"/>
					<g class="st14">
						<path class="st2" d="M740.3,1963.6c3.1,11.6,13.6,19.7,25.6,19.6l978.8-8.3c11.1-0.1,19.9-9.2,19.7-20.3
							c-0.2-10.8-9-19.4-19.8-19.4l-978.8-4.5C748.6,1930.5,735.9,1946.9,740.3,1963.6z"/>
					</g>
					<path class="st16" d="M540.2,1917.2L540.2,1917.2c7.9-4.6,18-1.9,22.4,6.1l20.9,37.4c2.1,3.7,7.6,3.5,9.3-0.4l51.8-115.2
						c2.6-5.7,11.1-3.8,11,2.5c-0.5,35.2-9.9,102.2-66.2,158.3c0,0-31-12.1-56-66.9C529.8,1931,532.7,1921.6,540.2,1917.2z"/>
					<path class="st2" d="M647.4,2249.2c-0.1,0-0.2,0-0.3,0l-105.8-1c-15.1-0.1-27.6-10.5-29-24.2l-9.3-88.8
						c-0.5-5.2,1.1-10.4,4.6-14.5c3.9-4.6,9.8-7.5,16.2-8l0,0c8.9-0.6,21.5-1.7,34.8-2.8c28-2.4,62.8-5.3,82.4-5.6
						c0.1,0,0.3,0,0.4,0c13.9,0,25.9,8.5,29.2,20.7c5.5,20.4,5,58.9,4,100C674.2,2238.5,662,2249.2,647.4,2249.2z M524.3,2120.9
						c-4.2,0.3-8,2.1-10.5,5.1c-2.1,2.4-3,5.4-2.7,8.4l9.3,88.8c1,9.5,10,16.8,21,16.9l105.8,1c0.1,0,0.1,0,0.2,0
						c10.3,0,18.7-7.2,19-16.2c1-40.5,1.5-78.4-3.7-97.7c-2.3-8.7-11.5-14.9-21.7-14.7c-19.3,0.2-54,3.2-81.8,5.6
						C545.9,2119.2,533.3,2120.3,524.3,2120.9L524.3,2120.9z"/>
					<path class="st15" d="M535.7,2130c22.2-1.5,70.5-6.4,93.4-6.7c9.7-0.1,18.2,5.7,20.5,14.2c4.4,16.3,3.8,48.9,3.1,79
						c-0.2,9-8.5,16.2-18.6,16.1l-84.5-0.8c-10.4-0.1-19-7.2-20-16.4l-7.4-70.9C521.4,2137.1,527.5,2130.6,535.7,2130z"/>
					<g class="st14">
						<path class="st2" d="M740.3,2190.3c3.1,11.6,13.6,19.7,25.6,19.6l978.8-8.3c11.1-0.1,19.9-9.2,19.7-20.3
							c-0.2-10.8-9-19.4-19.8-19.4l-978.8-4.5C748.6,2157.2,735.9,2173.6,740.3,2190.3z"/>
					</g>
					<path class="st16" d="M540.2,2144L540.2,2144c7.9-4.6,18-1.9,22.4,6.1l20.9,37.4c2.1,3.7,7.6,3.5,9.3-0.4l51.8-115.2
						c2.6-5.7,11.1-3.8,11,2.5c-0.5,35.2-9.9,102.2-66.2,158.3c0,0-31-12.1-56-66.9C529.8,2157.8,532.7,2148.4,540.2,2144z"/>
					<path class="st2" d="M647.4,2476c-0.1,0-0.2,0-0.3,0l-105.8-1c-15.1-0.1-27.6-10.5-29-24.2L503,2362
						c-0.5-5.2,1.1-10.4,4.6-14.5c3.9-4.6,9.8-7.5,16.2-8l0,0c8.9-0.6,21.5-1.7,34.8-2.8c28-2.4,62.8-5.3,82.4-5.6
						c0.1,0,0.3,0,0.4,0c13.9,0,25.9,8.5,29.2,20.7c5.5,20.4,5,58.9,4,100C674.2,2465.2,662,2476,647.4,2476z M524.3,2347.6
						c-4.2,0.3-8,2.1-10.5,5.1c-2.1,2.4-3,5.4-2.7,8.4l9.3,88.8c1,9.5,10,16.8,21,16.9l105.8,1c0.1,0,0.1,0,0.2,0
						c10.3,0,18.7-7.2,19-16.2c1-40.5,1.5-78.4-3.7-97.7c-2.3-8.7-11.5-14.9-21.7-14.7c-19.3,0.2-54,3.2-81.8,5.6
						C545.9,2345.9,533.3,2347,524.3,2347.6L524.3,2347.6z"/>
					<path class="st15" d="M535.7,2356.8c22.2-1.5,70.5-6.4,93.4-6.7c9.7-0.1,18.2,5.7,20.5,14.2c4.4,16.3,3.8,48.9,3.1,79
						c-0.2,9-8.5,16.2-18.6,16.1l-84.5-0.8c-10.4-0.1-19-7.2-20-16.4l-7.4-70.9C521.4,2363.8,527.5,2357.3,535.7,2356.8z"/>
					<g class="st14">
						<path class="st2" d="M740.3,2417L740.3,2417c3.1,11.6,13.6,19.7,25.6,19.6l978.8-8.3c11.1-0.1,19.9-9.2,19.7-20.3
							c-0.2-10.8-9-19.4-19.8-19.4l-978.8-4.5C748.6,2384,735.9,2400.3,740.3,2417z"/>
					</g>
				</g>
				<path class="st2" d="M632.8,1573.9c-0.1,0-0.2,0-0.3,0l-105.8-1c-15.1-0.1-27.6-10.5-29-24.2l-9.3-88.8
					c-0.5-5.2,1.1-10.4,4.6-14.5c3.9-4.6,9.8-7.5,16.2-8l0,0c8.9-0.6,21.5-1.7,34.8-2.8c28-2.4,62.8-5.3,82.4-5.6c0.1,0,0.3,0,0.4,0
					c13.9,0,25.9,8.5,29.2,20.7c5.5,20.4,5,58.9,4,100C659.5,1563.1,647.4,1573.9,632.8,1573.9z M509.7,1445.6
					c-4.2,0.3-8,2.1-10.5,5.1c-2.1,2.4-3,5.4-2.7,8.4l9.3,88.8c1,9.5,10,16.8,21,16.9l105.8,1c0.1,0,0.1,0,0.2,0
					c10.3,0,18.7-7.2,19-16.2c1-40.5,1.5-78.4-3.7-97.7c-2.3-8.7-11.5-14.9-21.7-14.7c-19.3,0.2-54,3.2-81.8,5.6
					C531.2,1443.9,518.6,1444.9,509.7,1445.6L509.7,1445.6z"/>
				<path class="st15" d="M521,1454.7c22.2-1.5,70.5-6.4,93.4-6.7c9.7-0.1,18.2,5.7,20.5,14.2c4.4,16.3,3.8,48.9,3.1,79
					c-0.2,9-8.5,16.2-18.6,16.1l-84.5-0.8c-10.4-0.1-19-7.2-20-16.4l-7.4-70.9C506.7,1461.8,512.8,1455.3,521,1454.7z"/>
				<g class="st14">
					<path class="st2" d="M725.7,1515L725.7,1515c3.1,11.6,13.6,19.7,25.6,19.6l978.8-8.3c11.1-0.1,19.9-9.2,19.7-20.3
						c-0.2-10.8-9-19.4-19.8-19.4l-978.8-4.5C733.9,1481.9,721.3,1498.3,725.7,1515z"/>
				</g>
				<path class="st16" d="M525.5,1468.6L525.5,1468.6c7.9-4.6,18-1.9,22.4,6.1l20.9,37.4c2.1,3.7,7.6,3.5,9.3-0.4l51.8-115.2
					c2.6-5.7,11.1-3.8,11,2.5c-0.5,35.2-9.9,102.2-66.2,158.3c0,0-31-12.1-56-66.9C515.1,1482.5,518,1473,525.5,1468.6z"/>
			</g>
			<path class="st8" d="M1156.4,32.5c-53.6-37.3-100.2-36.5-133-26.9c-29.9,8.8-49.3,37.7-46.5,68.8l14.1,154.4l168.3,14.9
				C1159.4,243.7,1261.5,105.6,1156.4,32.5z M1082.4,157c-23.2,0-42-18.8-42-42s18.8-42,42-42c23.2,0,42,18.8,42,42
				S1105.6,157,1082.4,157z"/>
			<path class="st17" d="M1007.9,163.9c-2.1,0-3.8-1.6-4-3.7l-2.3-24.6c-0.2-2.2,1.4-4.2,3.7-4.4c2.3-0.2,4.2,1.4,4.4,3.7l2.3,24.6
				c0.2,2.2-1.4,4.2-3.7,4.4C1008.2,163.9,1008,163.9,1007.9,163.9z M1003.5,115.7c-2.1,0-3.8-1.6-4-3.7l-1.7-18.7
				c-2.7-29.6,15.9-57.1,44.3-65.5c20.1-5.9,40.8-6.8,61.5-2.5c2.2,0.4,3.6,2.6,3.2,4.8c-0.5,2.2-2.6,3.6-4.8,3.2
				c-19.4-4-38.8-3.2-57.6,2.4c-24.7,7.3-40.8,31.2-38.5,57l1.7,18.7c0.2,2.2-1.4,4.2-3.7,4.4
				C1003.7,115.7,1003.6,115.7,1003.5,115.7z"/>
			<path class="st8" d="M761.4,328.6V251c0-26.8,22.2-48.3,49-47.3l535.2,18.3c23.8,0.8,43,19.6,44.4,43.3l4.5,74.6L761.4,328.6z"/>
			<path class="st17" d="M960.9,232.9h-23c-2.2,0-4.1-1.8-4.1-4.1c0-2.2,1.8-4.1,4.1-4.1h23c2.2,0,4.1,1.8,4.1,4.1
				C965,231,963.2,232.9,960.9,232.9z"/>
			<path class="st17" d="M790.3,304.2c-2.2,0-4.1-1.8-4.1-4.1v-31.4c0-24.3,19.7-44,44-44h84.6c2.2,0,4.1,1.8,4.1,4.1
				c0,2.2-1.8,4.1-4.1,4.1h-84.6c-19.8,0-35.9,16.1-35.9,35.9v31.4C794.4,302.4,792.6,304.2,790.3,304.2z"/>
			<path class="st18" d="M543.3,348.2c1.3-26.9,23.5-48,50.4-48l935.8,0c33.7,0,62.4,24.2,68.2,57.4l0.8,4.6
				c6.3,36.3-21.7,69.5-58.5,69.5H579.8c-22.1,0-39.6-18.4-38.6-40.5L543.3,348.2z"/>
		</g>
		<g class="st0">
			<g class="st1">
				<linearGradient id="SVGID_5_" gradientUnits="userSpaceOnUse" x1="1602.3044" y1="1855.8312" x2="3295.0867" y2="693.2579">
					<stop  offset="0" style="stop-color:#4F52FF"/>
					<stop  offset="1" style="stop-color:#4042E2"/>
				</linearGradient>
				<path class="st19" d="M1082.6,1012.4c12.7-11.9,29.8-17.8,47.2-16.2c185.2,16.7,530.8-72.6,756.7-303.7c15.7-16,44.3-7,62.3,6.5
					c251.2,187.7,667.6,226.6,812.1,234.6c29.9,1.6,54.2,24.8,57.2,54.6c131.5,1269.6-695.2,1729.7-866.6,1810.9
					c-18.7,8.9-40.8,7.6-58.4-3.4c-854.5-532.2-817.9-1224.4-829.7-1737.3C1062.9,1041,1069.9,1024.3,1082.6,1012.4z"/>
				<path class="st17" d="M1928.3,2707.7c-4,0-8-1.1-11.4-3.3c-327.7-209.5-541.4-460-653.1-765.8
					c-99.7-273.1-104.6-551.1-108.9-796.3l-0.6-32.7c-0.1-5.7,2-11,6-15.1c4-4.1,9.4-6.3,15.1-6.3h0c202.7,0,507-89.5,730.1-289.5
					c7.1-6.4,17.7-7.2,25.7-1.9c245.2,162.7,595.1,210.1,781.8,223.9c10.3,0.8,18.5,8.8,19.4,19.2
					c43.4,495.6-59.7,914.7-306.4,1245.6c-184.3,247.2-402.9,376-488.3,419.9l0,0C1934.9,2706.9,1931.6,2707.7,1928.3,2707.7z
					 M1175.6,1098.1c-3.2,0-6.1,1.2-8.2,3.3c-2.1,2.1-3.2,4.9-3.1,7.9l0.6,32.7c4.3,244.5,9.2,521.6,108.3,793.1
					c110.9,303.6,323.2,552.5,649.1,760.8c3.3,2.1,7.6,2.3,11.1,0.5l0,0c84.8-43.6,301.8-171.5,484.8-417
					c245.3-328.9,347.7-745.7,304.5-1238.8c-0.5-5.5-4.8-9.7-10.2-10.1c-187.7-13.8-539.5-61.5-786.6-225.5c-4.2-2.8-9.8-2.4-13.5,1
					C1687.2,1007.8,1380.1,1098.1,1175.6,1098.1L1175.6,1098.1z"/>
			</g>
		</g>
		<g>
			<path class="st20" d="M11.6,2520.4l7,218.3c1.2,38.1,32.5,68.3,70.7,68.6l522.7,3.1c25.6,0.2,47.4-18.4,51.1-43.6
				c8.2-55.1,18.6-153.7,6.9-246.3H11.6z"/>
			<path class="st2" d="M593.5,2796.9L593.5,2796.9l-3.8,0c-0.4,0-0.6-0.3-0.6-0.6c0-0.3,0.3-0.6,0.6-0.6h0l3.8,0
				c0.4,0,0.6,0.3,0.6,0.6C594.1,2796.6,593.8,2796.9,593.5,2796.9z M602.4,2796.8c-0.3,0-0.6-0.3-0.6-0.6c0-0.3,0.2-0.7,0.6-0.7
				c1.2-0.1,2.5-0.2,3.7-0.4c0.3-0.1,0.7,0.2,0.7,0.5c0,0.3-0.2,0.7-0.5,0.7C605,2796.6,603.7,2796.8,602.4,2796.8
				C602.4,2796.8,602.4,2796.8,602.4,2796.8z M580.8,2796.8L580.8,2796.8l-3.8,0c-0.4,0-0.6-0.3-0.6-0.6c0-0.3,0.3-0.6,0.6-0.6h0
				l3.8,0c0.4,0,0.6,0.3,0.6,0.6C581.4,2796.5,581.1,2796.8,580.8,2796.8z M568.1,2796.8L568.1,2796.8l-3.8,0
				c-0.4,0-0.6-0.3-0.6-0.6c0-0.3,0.3-0.6,0.6-0.6h0l3.8,0c0.4,0,0.6,0.3,0.6,0.6C568.7,2796.5,568.4,2796.8,568.1,2796.8z
				 M555.4,2796.7L555.4,2796.7l-3.8,0c-0.4,0-0.6-0.3-0.6-0.6c0-0.4,0.3-0.6,0.6-0.6l3.8,0c0.4,0,0.6,0.3,0.6,0.6
				C556,2796.4,555.8,2796.7,555.4,2796.7z M542.7,2796.6L542.7,2796.6l-3.8,0c-0.4,0-0.6-0.3-0.6-0.6c0-0.3,0.3-0.6,0.6-0.6h0
				l3.8,0c0.4,0,0.6,0.3,0.6,0.6C543.3,2796.3,543.1,2796.6,542.7,2796.6z M530,2796.5L530,2796.5l-3.8,0c-0.4,0-0.6-0.3-0.6-0.6
				c0-0.4,0.3-0.6,0.6-0.6l3.8,0c0.4,0,0.6,0.3,0.6,0.6C530.7,2796.2,530.4,2796.5,530,2796.5z M517.3,2796.5L517.3,2796.5l-3.8,0
				c-0.4,0-0.6-0.3-0.6-0.6c0-0.3,0.3-0.6,0.6-0.6h0l3.8,0c0.4,0,0.6,0.3,0.6,0.6C518,2796.2,517.7,2796.5,517.3,2796.5z
				 M504.6,2796.4L504.6,2796.4l-3.8,0c-0.4,0-0.6-0.3-0.6-0.6c0-0.3,0.3-0.6,0.6-0.6h0l3.8,0c0.4,0,0.6,0.3,0.6,0.6
				C505.3,2796.1,505,2796.4,504.6,2796.4z M491.9,2796.3L491.9,2796.3l-3.8,0c-0.4,0-0.6-0.3-0.6-0.6c0-0.3,0.3-0.6,0.6-0.6h0
				l3.8,0c0.4,0,0.6,0.3,0.6,0.6C492.6,2796,492.3,2796.3,491.9,2796.3z M479.3,2796.2L479.3,2796.2l-3.8,0c-0.4,0-0.6-0.3-0.6-0.6
				c0-0.3,0.3-0.6,0.6-0.6h0l3.8,0c0.4,0,0.6,0.3,0.6,0.6C479.9,2795.9,479.6,2796.2,479.3,2796.2z M466.6,2796.2L466.6,2796.2
				l-3.8,0c-0.4,0-0.6-0.3-0.6-0.6c0-0.3,0.3-0.6,0.6-0.6h0l3.8,0c0.4,0,0.6,0.3,0.6,0.6C467.2,2795.9,466.9,2796.2,466.6,2796.2z
				 M453.9,2796.1L453.9,2796.1l-3.8,0c-0.4,0-0.6-0.3-0.6-0.6c0-0.3,0.3-0.6,0.6-0.6h0l3.8,0c0.4,0,0.6,0.3,0.6,0.6
				C454.5,2795.8,454.2,2796.1,453.9,2796.1z M441.2,2796L441.2,2796l-3.8,0c-0.4,0-0.6-0.3-0.6-0.6c0-0.3,0.3-0.6,0.6-0.6h0l3.8,0
				c0.4,0,0.6,0.3,0.6,0.6C441.8,2795.7,441.5,2796,441.2,2796z M428.5,2795.9L428.5,2795.9l-3.8,0c-0.4,0-0.6-0.3-0.6-0.6
				c0-0.3,0.3-0.6,0.6-0.6h0l3.8,0c0.4,0,0.6,0.3,0.6,0.6C429.1,2795.6,428.8,2795.9,428.5,2795.9z M415.8,2795.9L415.8,2795.9
				l-3.8,0c-0.4,0-0.6-0.3-0.6-0.6c0-0.3,0.3-0.6,0.6-0.6h0l3.8,0c0.4,0,0.6,0.3,0.6,0.6C416.4,2795.6,416.1,2795.9,415.8,2795.9z
				 M403.1,2795.8L403.1,2795.8l-3.8,0c-0.4,0-0.6-0.3-0.6-0.6c0-0.3,0.3-0.6,0.6-0.6l3.8,0c0.4,0,0.6,0.3,0.6,0.6
				C403.7,2795.5,403.5,2795.8,403.1,2795.8z M390.4,2795.7L390.4,2795.7l-3.8,0c-0.4,0-0.6-0.3-0.6-0.6c0-0.3,0.3-0.6,0.6-0.6h0
				l3.8,0c0.4,0,0.6,0.3,0.6,0.6C391,2795.4,390.8,2795.7,390.4,2795.7z M377.7,2795.6L377.7,2795.6l-3.8,0c-0.4,0-0.6-0.3-0.6-0.6
				c0-0.4,0.3-0.6,0.6-0.6l3.8,0c0.4,0,0.6,0.3,0.6,0.6C378.4,2795.3,378.1,2795.6,377.7,2795.6z M365,2795.6L365,2795.6l-3.8,0
				c-0.4,0-0.6-0.3-0.6-0.6c0-0.3,0.3-0.6,0.6-0.6h0l3.8,0c0.4,0,0.6,0.3,0.6,0.6C365.7,2795.3,365.4,2795.6,365,2795.6z
				 M352.3,2795.5L352.3,2795.5l-3.8,0c-0.4,0-0.6-0.3-0.6-0.6c0-0.4,0.3-0.6,0.6-0.6l3.8,0c0.4,0,0.6,0.3,0.6,0.6
				C353,2795.2,352.7,2795.5,352.3,2795.5z M339.7,2795.4L339.7,2795.4l-3.8,0c-0.4,0-0.6-0.3-0.6-0.6c0-0.3,0.3-0.6,0.6-0.6h0
				l3.8,0c0.4,0,0.6,0.3,0.6,0.6C340.3,2795.1,340,2795.4,339.7,2795.4z M327,2795.3L327,2795.3l-3.8,0c-0.4,0-0.6-0.3-0.6-0.6
				c0-0.3,0.3-0.6,0.6-0.6h0l3.8,0c0.4,0,0.6,0.3,0.6,0.6C327.6,2795,327.3,2795.3,327,2795.3z M314.3,2795.3L314.3,2795.3l-3.8,0
				c-0.4,0-0.6-0.3-0.6-0.6c0-0.3,0.3-0.6,0.6-0.6h0l3.8,0c0.4,0,0.6,0.3,0.6,0.6C314.9,2795,314.6,2795.3,314.3,2795.3z
				 M301.6,2795.2L301.6,2795.2l-3.8,0c-0.4,0-0.6-0.3-0.6-0.6c0-0.3,0.3-0.6,0.6-0.6h0l3.8,0c0.4,0,0.6,0.3,0.6,0.6
				C302.2,2794.9,301.9,2795.2,301.6,2795.2z M288.9,2795.1L288.9,2795.1l-3.8,0c-0.4,0-0.6-0.3-0.6-0.6c0-0.3,0.3-0.6,0.6-0.6h0
				l3.8,0c0.4,0,0.6,0.3,0.6,0.6C289.5,2794.8,289.2,2795.1,288.9,2795.1z M276.2,2795L276.2,2795l-3.8,0c-0.4,0-0.6-0.3-0.6-0.6
				c0-0.3,0.3-0.6,0.6-0.6h0l3.8,0c0.4,0,0.6,0.3,0.6,0.6C276.8,2794.7,276.5,2795,276.2,2795z M263.5,2795L263.5,2795l-3.8,0
				c-0.4,0-0.6-0.3-0.6-0.6c0-0.3,0.3-0.6,0.6-0.6h0l3.8,0c0.4,0,0.6,0.3,0.6,0.6C264.1,2794.7,263.9,2795,263.5,2795z
				 M250.8,2794.9L250.8,2794.9l-3.8,0c-0.4,0-0.6-0.3-0.6-0.6c0-0.3,0.3-0.6,0.6-0.6h0l3.8,0c0.4,0,0.6,0.3,0.6,0.6
				C251.4,2794.6,251.2,2794.9,250.8,2794.9z M238.1,2794.8L238.1,2794.8l-3.8,0c-0.4,0-0.6-0.3-0.6-0.6c0-0.3,0.3-0.6,0.6-0.6h0
				l3.8,0c0.4,0,0.6,0.3,0.6,0.6C238.8,2794.5,238.5,2794.8,238.1,2794.8z M225.4,2794.7L225.4,2794.7l-3.8,0
				c-0.4,0-0.6-0.3-0.6-0.6c0-0.3,0.3-0.6,0.6-0.6l3.8,0c0.4,0,0.6,0.3,0.6,0.6C226.1,2794.5,225.8,2794.7,225.4,2794.7z
				 M212.7,2794.7L212.7,2794.7l-3.8,0c-0.4,0-0.6-0.3-0.6-0.6c0-0.3,0.3-0.6,0.6-0.6h0l3.8,0c0.3,0,0.6,0.3,0.6,0.6
				C213.4,2794.4,213.1,2794.7,212.7,2794.7z M200.1,2794.6L200.1,2794.6l-3.8,0c-0.4,0-0.6-0.3-0.6-0.6c0-0.4,0.3-0.6,0.6-0.6
				l3.8,0c0.4,0,0.6,0.3,0.6,0.6C200.7,2794.3,200.4,2794.6,200.1,2794.6z M187.4,2794.5L187.4,2794.5l-3.8,0
				c-0.4,0-0.6-0.3-0.6-0.6c0-0.3,0.3-0.6,0.6-0.6h0l3.8,0c0.4,0,0.6,0.3,0.6,0.6C188,2794.2,187.7,2794.5,187.4,2794.5z
				 M614.8,2794.4c-0.3,0-0.5-0.2-0.6-0.4c-0.1-0.3,0.1-0.7,0.4-0.8c1.2-0.4,2.4-0.8,3.5-1.3c0.3-0.1,0.7,0,0.8,0.3
				c0.1,0.3,0,0.7-0.3,0.8c-1.2,0.5-2.4,1-3.6,1.4C614.9,2794.4,614.8,2794.4,614.8,2794.4z M174.7,2794.4L174.7,2794.4l-3.8,0
				c-0.4,0-0.6-0.3-0.6-0.6c0-0.4,0.3-0.6,0.6-0.6l3.8,0c0.4,0,0.6,0.3,0.6,0.6C175.3,2794.2,175,2794.4,174.7,2794.4z M162,2794.4
				L162,2794.4l-3.8,0c-0.4,0-0.6-0.3-0.6-0.6c0-0.3,0.3-0.6,0.6-0.6h0l3.8,0c0.4,0,0.6,0.3,0.6,0.6
				C162.6,2794.1,162.3,2794.4,162,2794.4z M149.3,2794.3L149.3,2794.3l-3.8,0c-0.4,0-0.6-0.3-0.6-0.6c0-0.3,0.3-0.6,0.6-0.6h0
				l3.8,0c0.4,0,0.6,0.3,0.6,0.6C149.9,2794,149.6,2794.3,149.3,2794.3z M136.6,2794.2L136.6,2794.2l-3.8,0c-0.4,0-0.6-0.3-0.6-0.6
				c0-0.3,0.3-0.6,0.6-0.6h0l3.8,0c0.4,0,0.6,0.3,0.6,0.6C137.2,2793.9,136.9,2794.2,136.6,2794.2z M123.9,2794.1L123.9,2794.1
				l-3.8,0c-0.4,0-0.6-0.3-0.6-0.6c0-0.3,0.3-0.6,0.6-0.6h0l3.8,0c0.4,0,0.6,0.3,0.6,0.6C124.5,2793.9,124.3,2794.1,123.9,2794.1z
				 M111.2,2794.1L111.2,2794.1l-3.8,0c-0.4,0-0.6-0.3-0.6-0.6c0-0.3,0.3-0.6,0.6-0.6h0l3.8,0c0.4,0,0.6,0.3,0.6,0.6
				C111.8,2793.8,111.6,2794.1,111.2,2794.1z M98.5,2793.9C98.5,2793.9,98.5,2793.9,98.5,2793.9c-1.3-0.1-2.6-0.2-3.9-0.3
				c-0.3,0-0.6-0.3-0.6-0.7c0-0.3,0.3-0.6,0.7-0.6c1.2,0.1,2.5,0.2,3.8,0.3c0.4,0,0.6,0.3,0.6,0.7
				C99.1,2793.7,98.9,2793.9,98.5,2793.9z M86,2792.1c0,0-0.1,0-0.1,0c-1.2-0.3-2.5-0.6-3.7-1c-0.3-0.1-0.5-0.5-0.4-0.8
				c0.1-0.3,0.5-0.5,0.8-0.4c1.2,0.4,2.4,0.7,3.6,1c0.3,0.1,0.6,0.4,0.5,0.8C86.5,2791.9,86.3,2792.1,86,2792.1z M626.2,2788.9
				c-0.2,0-0.4-0.1-0.5-0.3c-0.2-0.3-0.1-0.7,0.2-0.9c1-0.7,2.1-1.4,3.1-2.2c0.3-0.2,0.7-0.2,0.9,0.1c0.2,0.3,0.2,0.7-0.1,0.9
				c-1,0.8-2.1,1.5-3.1,2.2C626.4,2788.9,626.3,2788.9,626.2,2788.9z M74,2788c-0.1,0-0.2,0-0.3-0.1c-1.2-0.5-2.3-1.1-3.5-1.7
				c-0.3-0.2-0.4-0.5-0.3-0.9c0.2-0.3,0.5-0.4,0.9-0.3c1.1,0.6,2.3,1.1,3.4,1.6c0.3,0.1,0.5,0.5,0.3,0.8
				C74.5,2787.9,74.2,2788,74,2788z M63,2781.7c-0.1,0-0.3,0-0.4-0.1c-1-0.7-2.1-1.5-3.1-2.3c-0.3-0.2-0.3-0.6-0.1-0.9
				c0.2-0.3,0.6-0.3,0.9-0.1c1,0.8,2,1.5,3,2.2c0.3,0.2,0.4,0.6,0.2,0.9C63.4,2781.6,63.2,2781.7,63,2781.7z M635.8,2780.7
				c-0.2,0-0.3-0.1-0.4-0.2c-0.3-0.2-0.3-0.6,0-0.9c0.8-0.9,1.6-1.9,2.4-2.9c0.2-0.3,0.6-0.3,0.9-0.1c0.3,0.2,0.3,0.6,0.1,0.9
				c-0.8,1-1.6,2-2.5,3C636.1,2780.6,635.9,2780.7,635.8,2780.7z M53.4,2773.5c-0.2,0-0.3-0.1-0.5-0.2c-0.9-0.9-1.8-1.9-2.6-2.8
				c-0.2-0.3-0.2-0.7,0.1-0.9c0.3-0.2,0.7-0.2,0.9,0.1c0.8,0.9,1.7,1.9,2.6,2.8c0.2,0.3,0.2,0.7,0,0.9
				C53.7,2773.5,53.5,2773.5,53.4,2773.5z M642.9,2770.2c-0.1,0-0.2,0-0.3-0.1c-0.3-0.2-0.4-0.5-0.3-0.9c0.6-1.1,1.1-2.3,1.6-3.4
				c0.1-0.3,0.5-0.5,0.8-0.3c0.3,0.1,0.5,0.5,0.3,0.8c-0.5,1.2-1,2.4-1.6,3.5C643.4,2770.1,643.1,2770.2,642.9,2770.2z M45.4,2763.7
				c-0.2,0-0.4-0.1-0.5-0.3c-0.7-1.1-1.4-2.2-2-3.3c-0.2-0.3-0.1-0.7,0.2-0.9c0.3-0.2,0.7-0.1,0.9,0.2c0.6,1.1,1.3,2.2,2,3.2
				c0.2,0.3,0.1,0.7-0.2,0.9C45.6,2763.6,45.5,2763.7,45.4,2763.7z M647.1,2758.3c0,0-0.1,0-0.1,0c-0.3-0.1-0.6-0.4-0.5-0.8
				c0.2-0.9,0.4-1.9,0.5-2.8l0.1-0.9c0.1-0.3,0.4-0.6,0.7-0.5c0.3,0.1,0.6,0.4,0.5,0.7l-0.1,0.9c-0.1,1-0.3,2-0.5,2.9
				C647.7,2758.1,647.4,2758.3,647.1,2758.3z M39.4,2752.5c-0.2,0-0.5-0.1-0.6-0.4c-0.5-1.2-1-2.4-1.4-3.6c-0.1-0.3,0.1-0.7,0.4-0.8
				c0.3-0.1,0.7,0.1,0.8,0.4c0.4,1.2,0.9,2.4,1.4,3.5c0.1,0.3,0,0.7-0.3,0.8C39.6,2752.5,39.5,2752.5,39.4,2752.5z M649,2745.8
				C649,2745.8,649,2745.8,649,2745.8c-0.4-0.1-0.7-0.4-0.6-0.7c0.2-1.2,0.3-2.5,0.5-3.8c0-0.3,0.4-0.6,0.7-0.5
				c0.3,0,0.6,0.4,0.5,0.7c-0.2,1.3-0.3,2.5-0.5,3.8C649.6,2745.5,649.3,2745.8,649,2745.8z M35.7,2740.4c-0.3,0-0.6-0.2-0.6-0.5
				c-0.3-1.3-0.5-2.5-0.7-3.8c-0.1-0.3,0.2-0.7,0.5-0.7c0.4,0,0.7,0.2,0.7,0.5c0.2,1.2,0.4,2.5,0.7,3.7c0.1,0.3-0.1,0.7-0.5,0.8
				C35.7,2740.4,35.7,2740.4,35.7,2740.4z M650.7,2733.2C650.7,2733.2,650.6,2733.2,650.7,2733.2c-0.4,0-0.7-0.4-0.6-0.7l0.5-3.8
				c0-0.3,0.4-0.6,0.7-0.6c0.3,0,0.6,0.4,0.6,0.7l-0.5,3.8C651.3,2732.9,651,2733.2,650.7,2733.2z M34.2,2727.8
				c-0.3,0-0.6-0.3-0.6-0.6l-0.1-3.8c0-0.4,0.3-0.6,0.6-0.7c0.4,0,0.6,0.3,0.7,0.6l0.1,3.8C34.9,2727.5,34.6,2727.8,34.2,2727.8
				L34.2,2727.8z M652.2,2720.6C652.2,2720.6,652.2,2720.6,652.2,2720.6c-0.4,0-0.7-0.4-0.6-0.7c0.1-1.2,0.3-2.5,0.4-3.8
				c0-0.3,0.4-0.6,0.7-0.6c0.3,0,0.6,0.4,0.6,0.7c-0.1,1.3-0.3,2.5-0.4,3.8C652.8,2720.3,652.5,2720.6,652.2,2720.6z M33.8,2715.1
				c-0.3,0-0.6-0.3-0.6-0.6l-0.1-3.8c0-0.4,0.3-0.6,0.6-0.7c0.3,0,0.6,0.3,0.7,0.6l0.1,3.8C34.5,2714.8,34.2,2715.1,33.8,2715.1
				L33.8,2715.1z M653.6,2708C653.6,2708,653.6,2708,653.6,2708c-0.4,0-0.7-0.4-0.6-0.7c0.1-1.3,0.3-2.5,0.4-3.8
				c0-0.3,0.3-0.6,0.7-0.6c0.3,0,0.6,0.3,0.6,0.7c-0.1,1.3-0.3,2.5-0.4,3.8C654.2,2707.7,653.9,2708,653.6,2708z M33.4,2702.4
				c-0.3,0-0.6-0.3-0.6-0.6l-0.1-3.8c0-0.4,0.3-0.6,0.6-0.7c0.3,0,0.6,0.3,0.7,0.6l0.1,3.8C34.1,2702.1,33.8,2702.4,33.4,2702.4
				L33.4,2702.4z M654.9,2695.3C654.8,2695.3,654.8,2695.3,654.9,2695.3c-0.4,0-0.7-0.3-0.6-0.7c0.1-1.3,0.2-2.5,0.3-3.8
				c0-0.3,0.3-0.6,0.7-0.6c0.3,0,0.6,0.3,0.6,0.7c-0.1,1.3-0.2,2.5-0.3,3.8C655.5,2695.1,655.2,2695.3,654.9,2695.3z M33,2689.7
				c-0.3,0-0.6-0.3-0.6-0.6l-0.1-3.8c0-0.4,0.3-0.6,0.6-0.7c0.3,0,0.6,0.3,0.7,0.6l0.1,3.8C33.7,2689.4,33.4,2689.7,33,2689.7
				L33,2689.7z M656,2682.7C655.9,2682.7,655.9,2682.7,656,2682.7c-0.4,0-0.7-0.3-0.6-0.7l0.3-3.8c0-0.3,0.3-0.6,0.7-0.6
				c0.3,0,0.6,0.3,0.6,0.7l-0.3,3.8C656.6,2682.4,656.3,2682.7,656,2682.7z M32.6,2677c-0.3,0-0.6-0.3-0.6-0.6l-0.1-3.8
				c0-0.4,0.3-0.6,0.6-0.7c0.3,0,0.6,0.3,0.7,0.6l0.1,3.8C33.3,2676.7,33,2677,32.6,2677C32.6,2677,32.6,2677,32.6,2677z
				 M656.9,2670C656.9,2670,656.9,2670,656.9,2670c-0.4,0-0.7-0.3-0.6-0.7l0.3-3.8c0-0.3,0.3-0.6,0.7-0.6c0.3,0,0.6,0.3,0.6,0.7
				l-0.3,3.8C657.5,2669.8,657.2,2670,656.9,2670z M32.2,2664.4c-0.3,0-0.6-0.3-0.6-0.6l-0.1-3.8c0-0.4,0.3-0.6,0.6-0.7
				c0.3,0,0.6,0.3,0.7,0.6l0.1,3.8C32.9,2664,32.6,2664.3,32.2,2664.4C32.2,2664.4,32.2,2664.4,32.2,2664.4z M657.7,2657.4
				C657.7,2657.4,657.7,2657.4,657.7,2657.4c-0.4,0-0.7-0.3-0.6-0.7c0.1-1.3,0.1-2.5,0.2-3.8c0-0.4,0.3-0.6,0.7-0.6
				c0.4,0,0.6,0.3,0.6,0.7c-0.1,1.3-0.1,2.5-0.2,3.8C658.3,2657.1,658,2657.4,657.7,2657.4z M31.8,2651.7c-0.3,0-0.6-0.3-0.6-0.6
				l-0.1-3.8c0-0.4,0.3-0.6,0.6-0.7c0.3,0,0.6,0.3,0.7,0.6l0.1,3.8C32.4,2651.4,32.2,2651.7,31.8,2651.7
				C31.8,2651.7,31.8,2651.7,31.8,2651.7z M658.3,2644.7L658.3,2644.7c-0.4,0-0.6-0.3-0.6-0.7c0.1-1.3,0.1-2.5,0.2-3.8
				c0-0.4,0.3-0.6,0.7-0.6c0.4,0,0.6,0.3,0.6,0.7c0,1.3-0.1,2.5-0.2,3.8C658.9,2644.4,658.7,2644.7,658.3,2644.7z M31.4,2639
				c-0.3,0-0.6-0.3-0.6-0.6l-0.1-3.8c0-0.4,0.3-0.6,0.6-0.7c0.3,0,0.6,0.3,0.7,0.6l0.1,3.8C32,2638.7,31.8,2639,31.4,2639
				C31.4,2639,31.4,2639,31.4,2639z M658.8,2632L658.8,2632c-0.4,0-0.6-0.3-0.6-0.7c0-1.3,0.1-2.5,0.1-3.8c0-0.4,0.3-0.6,0.7-0.6
				c0.4,0,0.6,0.3,0.6,0.7c0,1.3-0.1,2.5-0.1,3.8C659.4,2631.7,659.1,2632,658.8,2632z M31,2626.3c-0.3,0-0.6-0.3-0.6-0.6l-0.1-3.8
				c0-0.4,0.3-0.6,0.6-0.7c0.3,0,0.6,0.3,0.7,0.6l0.1,3.8C31.6,2626,31.4,2626.3,31,2626.3L31,2626.3z M659.1,2619.3
				C659.1,2619.3,659.1,2619.3,659.1,2619.3c-0.4,0-0.6-0.3-0.6-0.6c0-1.3,0-2.5,0-3.8c0-0.4,0.3-0.6,0.6-0.6c0.4,0,0.6,0.3,0.6,0.6
				c0,1.3,0,2.5,0,3.8C659.7,2619,659.4,2619.3,659.1,2619.3z M30.6,2613.6c-0.3,0-0.6-0.3-0.6-0.6l-0.1-3.8c0-0.3,0.3-0.6,0.6-0.7
				c0.3,0,0.6,0.3,0.7,0.6l0.1,3.8C31.2,2613.3,30.9,2613.6,30.6,2613.6L30.6,2613.6z M659.2,2606.6c-0.4,0-0.6-0.3-0.6-0.6v-0.3
				c0-1.2,0-2.3,0-3.5c0-0.3,0.3-0.6,0.6-0.6h0c0.4,0,0.6,0.3,0.6,0.6c0,1.2,0,2.3,0,3.5v0.3
				C659.8,2606.3,659.5,2606.6,659.2,2606.6z M30.2,2600.9c-0.3,0-0.6-0.3-0.6-0.6l-0.1-3.8c0-0.4,0.3-0.6,0.6-0.7
				c0.4,0,0.6,0.3,0.7,0.6l0.1,3.8C30.8,2600.6,30.5,2600.9,30.2,2600.9L30.2,2600.9z M659.1,2593.9c-0.3,0-0.6-0.3-0.6-0.6
				c0-1.3,0-2.5-0.1-3.8c0-0.4,0.3-0.6,0.6-0.6c0.3,0,0.6,0.3,0.6,0.6c0,1.3,0,2.5,0.1,3.8C659.7,2593.6,659.4,2593.9,659.1,2593.9
				L659.1,2593.9z M29.8,2588.2c-0.3,0-0.6-0.3-0.6-0.6l-0.1-3.8c0-0.4,0.3-0.6,0.6-0.7c0.3,0,0.6,0.3,0.7,0.6l0.1,3.8
				C30.4,2587.9,30.1,2588.2,29.8,2588.2C29.8,2588.2,29.8,2588.2,29.8,2588.2z M658.8,2581.2c-0.3,0-0.6-0.3-0.6-0.6
				c0-1.3-0.1-2.5-0.1-3.8c0-0.4,0.3-0.6,0.6-0.7c0.4,0,0.6,0.3,0.7,0.6c0,1.3,0.1,2.5,0.1,3.8
				C659.4,2580.9,659.1,2581.2,658.8,2581.2C658.8,2581.2,658.8,2581.2,658.8,2581.2z M29.4,2575.6c-0.3,0-0.6-0.3-0.6-0.6l-0.1-3.8
				c0-0.4,0.3-0.6,0.6-0.7c0.3,0,0.6,0.3,0.7,0.6l0.1,3.8C30,2575.3,29.7,2575.5,29.4,2575.6C29.4,2575.6,29.4,2575.6,29.4,2575.6z
				 M658.3,2568.6c-0.3,0-0.6-0.3-0.6-0.6c-0.1-1.3-0.1-2.5-0.2-3.8c0-0.4,0.2-0.6,0.6-0.7c0.3,0,0.6,0.2,0.7,0.6
				c0.1,1.3,0.1,2.5,0.2,3.8C658.9,2568.2,658.6,2568.5,658.3,2568.6L658.3,2568.6z M28.9,2562.9c-0.3,0-0.6-0.3-0.6-0.6l-0.1-3.8
				c0-0.4,0.3-0.6,0.6-0.7c0.4,0,0.6,0.3,0.7,0.6l0.1,3.8C29.6,2562.6,29.3,2562.9,28.9,2562.9C29,2562.9,28.9,2562.9,28.9,2562.9z
				 M657.5,2555.9c-0.3,0-0.6-0.3-0.6-0.6c-0.1-1.3-0.2-2.5-0.3-3.8c0-0.3,0.2-0.7,0.6-0.7c0.4,0,0.7,0.2,0.7,0.6
				c0.1,1.3,0.2,2.5,0.3,3.8C658.2,2555.6,657.9,2555.9,657.5,2555.9C657.5,2555.9,657.5,2555.9,657.5,2555.9z M28.5,2550.2
				c-0.3,0-0.6-0.3-0.6-0.6l-0.1-3.8c0-0.4,0.3-0.6,0.6-0.7c0.3-0.1,0.6,0.3,0.7,0.6l0.1,3.8C29.2,2549.9,28.9,2550.2,28.5,2550.2
				C28.6,2550.2,28.5,2550.2,28.5,2550.2z M656.5,2543.2c-0.3,0-0.6-0.2-0.6-0.6c-0.1-1.3-0.2-2.5-0.3-3.8c0-0.3,0.2-0.7,0.6-0.7
				c0.4,0,0.7,0.2,0.7,0.6c0.1,1.3,0.2,2.5,0.3,3.8C657.2,2542.9,656.9,2543.2,656.5,2543.2C656.6,2543.2,656.5,2543.2,656.5,2543.2
				z M28.1,2537.5c-0.3,0-0.6-0.3-0.6-0.6l-0.1-3.8c0-0.4,0.3-0.6,0.6-0.7c0.3,0,0.6,0.3,0.7,0.6l0.1,3.8
				C28.8,2537.2,28.5,2537.5,28.1,2537.5L28.1,2537.5z M655.3,2530.6c-0.3,0-0.6-0.2-0.6-0.6c-0.1-1.3-0.3-2.5-0.4-3.8
				c0-0.3,0.2-0.7,0.6-0.7c0.4,0,0.7,0.2,0.7,0.6c0.1,1.3,0.3,2.5,0.4,3.8C656,2530.3,655.7,2530.6,655.3,2530.6
				C655.3,2530.6,655.3,2530.6,655.3,2530.6z M27.7,2524.8c-0.3,0-0.6-0.3-0.6-0.6l-0.1-4.5h2.3c0.4,0,0.6,0.3,0.6,0.6
				c0,0.3-0.3,0.6-0.6,0.6h-1l0.1,3.2C28.4,2524.5,28.1,2524.8,27.7,2524.8L27.7,2524.8z M651.1,2521h-3.8c-0.4,0-0.6-0.3-0.6-0.6
				c0-0.4,0.3-0.6,0.6-0.6h3.8c0.4,0,0.6,0.3,0.6,0.6C651.8,2520.7,651.5,2521,651.1,2521z M638.4,2521h-3.8c-0.4,0-0.6-0.3-0.6-0.6
				c0-0.4,0.3-0.6,0.6-0.6h3.8c0.4,0,0.6,0.3,0.6,0.6C639.1,2520.7,638.8,2521,638.4,2521z M625.7,2521h-3.8c-0.4,0-0.6-0.3-0.6-0.6
				c0-0.4,0.3-0.6,0.6-0.6h3.8c0.4,0,0.6,0.3,0.6,0.6C626.4,2520.7,626.1,2521,625.7,2521z M613,2521h-3.8c-0.4,0-0.6-0.3-0.6-0.6
				c0-0.4,0.3-0.6,0.6-0.6h3.8c0.4,0,0.6,0.3,0.6,0.6C613.7,2520.7,613.4,2521,613,2521z M600.4,2521h-3.8c-0.4,0-0.6-0.3-0.6-0.6
				c0-0.4,0.3-0.6,0.6-0.6h3.8c0.4,0,0.6,0.3,0.6,0.6C601,2520.7,600.7,2521,600.4,2521z M587.7,2521h-3.8c-0.4,0-0.6-0.3-0.6-0.6
				c0-0.4,0.3-0.6,0.6-0.6h3.8c0.4,0,0.6,0.3,0.6,0.6C588.3,2520.7,588,2521,587.7,2521z M575,2521h-3.8c-0.4,0-0.6-0.3-0.6-0.6
				c0-0.4,0.3-0.6,0.6-0.6h3.8c0.4,0,0.6,0.3,0.6,0.6C575.6,2520.7,575.3,2521,575,2521z M562.3,2521h-3.8c-0.4,0-0.6-0.3-0.6-0.6
				c0-0.4,0.3-0.6,0.6-0.6h3.8c0.4,0,0.6,0.3,0.6,0.6C562.9,2520.7,562.6,2521,562.3,2521z M549.6,2521h-3.8c-0.4,0-0.6-0.3-0.6-0.6
				c0-0.4,0.3-0.6,0.6-0.6h3.8c0.4,0,0.6,0.3,0.6,0.6C550.2,2520.7,549.9,2521,549.6,2521z M536.9,2521h-3.8c-0.4,0-0.6-0.3-0.6-0.6
				c0-0.4,0.3-0.6,0.6-0.6h3.8c0.4,0,0.6,0.3,0.6,0.6C537.5,2520.7,537.2,2521,536.9,2521z M524.2,2521h-3.8c-0.4,0-0.6-0.3-0.6-0.6
				c0-0.4,0.3-0.6,0.6-0.6h3.8c0.4,0,0.6,0.3,0.6,0.6C524.8,2520.7,524.6,2521,524.2,2521z M511.5,2521h-3.8c-0.4,0-0.6-0.3-0.6-0.6
				c0-0.4,0.3-0.6,0.6-0.6h3.8c0.4,0,0.6,0.3,0.6,0.6C512.2,2520.7,511.9,2521,511.5,2521z M498.8,2521H495c-0.4,0-0.6-0.3-0.6-0.6
				c0-0.4,0.3-0.6,0.6-0.6h3.8c0.4,0,0.6,0.3,0.6,0.6C499.5,2520.7,499.2,2521,498.8,2521z M486.1,2521h-3.8c-0.4,0-0.6-0.3-0.6-0.6
				c0-0.4,0.3-0.6,0.6-0.6h3.8c0.4,0,0.6,0.3,0.6,0.6C486.8,2520.7,486.5,2521,486.1,2521z M473.4,2521h-3.8c-0.4,0-0.6-0.3-0.6-0.6
				c0-0.4,0.3-0.6,0.6-0.6h3.8c0.4,0,0.6,0.3,0.6,0.6C474.1,2520.7,473.8,2521,473.4,2521z M460.8,2521h-3.8c-0.4,0-0.6-0.3-0.6-0.6
				c0-0.4,0.3-0.6,0.6-0.6h3.8c0.4,0,0.6,0.3,0.6,0.6C461.4,2520.7,461.1,2521,460.8,2521z M448.1,2521h-3.8c-0.4,0-0.6-0.3-0.6-0.6
				c0-0.4,0.3-0.6,0.6-0.6h3.8c0.4,0,0.6,0.3,0.6,0.6C448.7,2520.7,448.4,2521,448.1,2521z M435.4,2521h-3.8c-0.4,0-0.6-0.3-0.6-0.6
				c0-0.4,0.3-0.6,0.6-0.6h3.8c0.4,0,0.6,0.3,0.6,0.6C436,2520.7,435.7,2521,435.4,2521z M422.7,2521h-3.8c-0.4,0-0.6-0.3-0.6-0.6
				c0-0.4,0.3-0.6,0.6-0.6h3.8c0.4,0,0.6,0.3,0.6,0.6C423.3,2520.7,423,2521,422.7,2521z M410,2521h-3.8c-0.4,0-0.6-0.3-0.6-0.6
				c0-0.4,0.3-0.6,0.6-0.6h3.8c0.4,0,0.6,0.3,0.6,0.6C410.6,2520.7,410.3,2521,410,2521z M397.3,2521h-3.8c-0.4,0-0.6-0.3-0.6-0.6
				c0-0.4,0.3-0.6,0.6-0.6h3.8c0.4,0,0.6,0.3,0.6,0.6C397.9,2520.7,397.6,2521,397.3,2521z M384.6,2521h-3.8c-0.4,0-0.6-0.3-0.6-0.6
				c0-0.4,0.3-0.6,0.6-0.6h3.8c0.4,0,0.6,0.3,0.6,0.6C385.2,2520.7,385,2521,384.6,2521z M371.9,2521h-3.8c-0.4,0-0.6-0.3-0.6-0.6
				c0-0.4,0.3-0.6,0.6-0.6h3.8c0.4,0,0.6,0.3,0.6,0.6C372.5,2520.7,372.3,2521,371.9,2521z M359.2,2521h-3.8c-0.4,0-0.6-0.3-0.6-0.6
				c0-0.4,0.3-0.6,0.6-0.6h3.8c0.4,0,0.6,0.3,0.6,0.6C359.9,2520.7,359.6,2521,359.2,2521z M346.5,2521h-3.8c-0.4,0-0.6-0.3-0.6-0.6
				c0-0.4,0.3-0.6,0.6-0.6h3.8c0.4,0,0.6,0.3,0.6,0.6C347.2,2520.7,346.9,2521,346.5,2521z M333.8,2521H330c-0.4,0-0.6-0.3-0.6-0.6
				c0-0.4,0.3-0.6,0.6-0.6h3.8c0.4,0,0.6,0.3,0.6,0.6C334.5,2520.7,334.2,2521,333.8,2521z M321.1,2521h-3.8c-0.4,0-0.6-0.3-0.6-0.6
				c0-0.4,0.3-0.6,0.6-0.6h3.8c0.4,0,0.6,0.3,0.6,0.6C321.8,2520.7,321.5,2521,321.1,2521z M308.5,2521h-3.8c-0.4,0-0.6-0.3-0.6-0.6
				c0-0.4,0.3-0.6,0.6-0.6h3.8c0.4,0,0.6,0.3,0.6,0.6C309.1,2520.7,308.8,2521,308.5,2521z M295.8,2521H292c-0.4,0-0.6-0.3-0.6-0.6
				c0-0.4,0.3-0.6,0.6-0.6h3.8c0.4,0,0.6,0.3,0.6,0.6C296.4,2520.7,296.1,2521,295.8,2521z M283.1,2521h-3.8c-0.4,0-0.6-0.3-0.6-0.6
				c0-0.4,0.3-0.6,0.6-0.6h3.8c0.4,0,0.6,0.3,0.6,0.6C283.7,2520.7,283.4,2521,283.1,2521z M270.4,2521h-3.8c-0.4,0-0.6-0.3-0.6-0.6
				c0-0.4,0.3-0.6,0.6-0.6h3.8c0.4,0,0.6,0.3,0.6,0.6C271,2520.7,270.7,2521,270.4,2521z M257.7,2521h-3.8c-0.4,0-0.6-0.3-0.6-0.6
				c0-0.4,0.3-0.6,0.6-0.6h3.8c0.4,0,0.6,0.3,0.6,0.6C258.3,2520.7,258,2521,257.7,2521z M245,2521h-3.8c-0.4,0-0.6-0.3-0.6-0.6
				c0-0.4,0.3-0.6,0.6-0.6h3.8c0.4,0,0.6,0.3,0.6,0.6C245.6,2520.7,245.3,2521,245,2521z M232.3,2521h-3.8c-0.4,0-0.6-0.3-0.6-0.6
				c0-0.4,0.3-0.6,0.6-0.6h3.8c0.4,0,0.6,0.3,0.6,0.6C232.9,2520.7,232.7,2521,232.3,2521z M219.6,2521h-3.8c-0.4,0-0.6-0.3-0.6-0.6
				c0-0.4,0.3-0.6,0.6-0.6h3.8c0.4,0,0.6,0.3,0.6,0.6C220.2,2520.7,220,2521,219.6,2521z M206.9,2521h-3.8c-0.4,0-0.6-0.3-0.6-0.6
				c0-0.4,0.3-0.6,0.6-0.6h3.8c0.4,0,0.6,0.3,0.6,0.6C207.6,2520.7,207.3,2521,206.9,2521z M194.2,2521h-3.8c-0.4,0-0.6-0.3-0.6-0.6
				c0-0.4,0.3-0.6,0.6-0.6h3.8c0.4,0,0.6,0.3,0.6,0.6C194.9,2520.7,194.6,2521,194.2,2521z M181.5,2521h-3.8c-0.4,0-0.6-0.3-0.6-0.6
				c0-0.4,0.3-0.6,0.6-0.6h3.8c0.4,0,0.6,0.3,0.6,0.6C182.2,2520.7,181.9,2521,181.5,2521z M168.8,2521H165c-0.4,0-0.6-0.3-0.6-0.6
				c0-0.4,0.3-0.6,0.6-0.6h3.8c0.4,0,0.6,0.3,0.6,0.6C169.5,2520.7,169.2,2521,168.8,2521z M156.2,2521h-3.8c-0.4,0-0.6-0.3-0.6-0.6
				c0-0.4,0.3-0.6,0.6-0.6h3.8c0.4,0,0.6,0.3,0.6,0.6C156.8,2520.7,156.5,2521,156.2,2521z M143.5,2521h-3.8c-0.4,0-0.6-0.3-0.6-0.6
				c0-0.4,0.3-0.6,0.6-0.6h3.8c0.4,0,0.6,0.3,0.6,0.6C144.1,2520.7,143.8,2521,143.5,2521z M130.8,2521H127c-0.4,0-0.6-0.3-0.6-0.6
				c0-0.4,0.3-0.6,0.6-0.6h3.8c0.4,0,0.6,0.3,0.6,0.6C131.4,2520.7,131.1,2521,130.8,2521z M118.1,2521h-3.8c-0.4,0-0.6-0.3-0.6-0.6
				c0-0.4,0.3-0.6,0.6-0.6h3.8c0.4,0,0.6,0.3,0.6,0.6C118.7,2520.7,118.4,2521,118.1,2521z M105.4,2521h-3.8c-0.4,0-0.6-0.3-0.6-0.6
				c0-0.4,0.3-0.6,0.6-0.6h3.8c0.4,0,0.6,0.3,0.6,0.6C106,2520.7,105.7,2521,105.4,2521z M92.7,2521h-3.8c-0.4,0-0.6-0.3-0.6-0.6
				c0-0.4,0.3-0.6,0.6-0.6h3.8c0.4,0,0.6,0.3,0.6,0.6C93.3,2520.7,93.1,2521,92.7,2521z M80,2521h-3.8c-0.4,0-0.6-0.3-0.6-0.6
				c0-0.4,0.3-0.6,0.6-0.6H80c0.4,0,0.6,0.3,0.6,0.6C80.6,2520.7,80.4,2521,80,2521z M67.3,2521h-3.8c-0.4,0-0.6-0.3-0.6-0.6
				c0-0.4,0.3-0.6,0.6-0.6h3.8c0.4,0,0.6,0.3,0.6,0.6C68,2520.7,67.7,2521,67.3,2521z M54.6,2521h-3.8c-0.4,0-0.6-0.3-0.6-0.6
				c0-0.4,0.3-0.6,0.6-0.6h3.8c0.4,0,0.6,0.3,0.6,0.6C55.3,2520.7,55,2521,54.6,2521z M41.9,2521h-3.8c-0.4,0-0.6-0.3-0.6-0.6
				c0-0.4,0.3-0.6,0.6-0.6h3.8c0.4,0,0.6,0.3,0.6,0.6C42.6,2520.7,42.3,2521,41.9,2521z"/>
			<path class="st20" d="M164.7,2361.9l1.6-16.8c1.8-4,5.5-6.9,9.8-7.6c16.3-2.6,56.7-7.1,76.1,7.4l2.9,19.6L164.7,2361.9z"/>
			<path class="st21" d="M215.6,2345.7c-3.7,0.9-7.5,0.9-11.3,0c-4.6-1.1-7.8-5.2-7.8-9.9l0-52.7h26.8l0,52.7
				C223.4,2340.5,220.2,2344.6,215.6,2345.7z"/>
			<path class="st20" d="M424.6,2361.9l1.6-16.8c1.8-4,5.5-6.9,9.8-7.6c16.3-2.6,56.7-7.1,76.1,7.4l2.9,19.6L424.6,2361.9z"/>
			<path class="st21" d="M475.4,2345.7c-3.7,0.9-7.5,0.9-11.3,0c-4.6-1.1-7.8-5.2-7.8-9.9l0-58.3h26.8l0,58.2
				C483.2,2340.5,480,2344.6,475.4,2345.7z"/>
			<path class="st20" d="M193.9,2296.1l288.5-9.5c6.6-0.2,12.2-5,13.3-11.4c1.6-9,3-22.6,0.9-36.6c-2.4-15.9-16.1-27.8-32.3-28.2
				c-53.8-1.3-190.8-1.2-266.3,28.6c-8,3.2-13.9,10-15.9,18.3c-1.9,7.9-3.2,18.5-0.7,29.3C182.7,2292.3,188,2296.3,193.9,2296.1z"/>
			<path class="st17" d="M188.9,2281.1c-0.6,0-1.2-0.5-1.3-1.1c0-0.5-1.1-11.3,1.7-21.7c2.1-7.9,8.4-14.3,16.4-16.6
				c16.1-4.7,46.8-12.7,71.9-13.4c0.7,0,1.3,0.5,1.3,1.2c0,0.7-0.5,1.3-1.2,1.3c-24.8,0.7-55.3,8.7-71.2,13.3
				c-7.1,2.1-12.7,7.8-14.6,14.9c-2.7,10-1.7,20.7-1.7,20.8c0.1,0.7-0.4,1.3-1.1,1.4C188.9,2281.1,188.9,2281.1,188.9,2281.1z"/>
			<path class="st20" d="M30.9,2355.4c93.2-1.2,496.4-5.4,613.5,8.7c10.1,1.2,18.3,8.6,20.5,18.5c6.9,31.3,20.8,104,19.2,176
				c-0.2,9.8-7.4,18.1-17.1,19.9L399.7,2629h-95l-284.9-56.6c-10-2-17.4-10.5-18-20.7c-1.9-36.2-4.7-121.3,5.1-176
				C9,2364.1,19,2355.5,30.9,2355.4z"/>
			<path class="st2" d="M397.5,2606.6h-3.8c-0.4,0-0.6-0.3-0.6-0.6c0-0.4,0.3-0.6,0.6-0.6h3.8c0.4,0,0.6,0.3,0.6,0.6
				C398.1,2606.3,397.8,2606.6,397.5,2606.6z M384.8,2606.6H381c-0.4,0-0.6-0.3-0.6-0.6c0-0.4,0.3-0.6,0.6-0.6h3.8
				c0.4,0,0.6,0.3,0.6,0.6C385.4,2606.3,385.1,2606.6,384.8,2606.6z M372.1,2606.6h-3.8c-0.4,0-0.6-0.3-0.6-0.6
				c0-0.4,0.3-0.6,0.6-0.6h3.8c0.4,0,0.6,0.3,0.6,0.6C372.7,2606.3,372.4,2606.6,372.1,2606.6z M359.4,2606.6h-3.8
				c-0.4,0-0.6-0.3-0.6-0.6c0-0.4,0.3-0.6,0.6-0.6h3.8c0.4,0,0.6,0.3,0.6,0.6C360,2606.3,359.7,2606.6,359.4,2606.6z M346.7,2606.6
				h-3.8c-0.4,0-0.6-0.3-0.6-0.6c0-0.4,0.3-0.6,0.6-0.6h3.8c0.4,0,0.6,0.3,0.6,0.6C347.3,2606.3,347,2606.6,346.7,2606.6z
				 M334,2606.6h-3.8c-0.4,0-0.6-0.3-0.6-0.6c0-0.4,0.3-0.6,0.6-0.6h3.8c0.4,0,0.6,0.3,0.6,0.6
				C334.6,2606.3,334.4,2606.6,334,2606.6z M321.3,2606.6h-3.8c-0.4,0-0.6-0.3-0.6-0.6c0-0.4,0.3-0.6,0.6-0.6h3.8
				c0.4,0,0.6,0.3,0.6,0.6C321.9,2606.3,321.7,2606.6,321.3,2606.6z M308.6,2606.6H307l-3.9-0.8c-0.3-0.1-0.6-0.4-0.5-0.7
				c0.1-0.3,0.4-0.6,0.7-0.5l3.7,0.7l1.5,0c0.4,0,0.6,0.3,0.6,0.6C309.3,2606.3,309,2606.6,308.6,2606.6z M406.2,2605
				c-0.3,0-0.6-0.2-0.6-0.5c-0.1-0.3,0.2-0.7,0.5-0.7l3.7-0.7c0.3-0.1,0.7,0.2,0.7,0.5c0.1,0.3-0.2,0.7-0.5,0.7l-3.7,0.7
				C406.3,2605,406.2,2605,406.2,2605z M294.5,2604.2c0,0-0.1,0-0.1,0l-3.7-0.7c-0.3-0.1-0.6-0.4-0.5-0.7c0.1-0.3,0.4-0.6,0.7-0.5
				l3.7,0.7c0.3,0.1,0.6,0.4,0.5,0.7C295.1,2603.9,294.8,2604.2,294.5,2604.2z M418.7,2602.6c-0.3,0-0.6-0.2-0.6-0.5
				c-0.1-0.3,0.2-0.7,0.5-0.7l3.7-0.7c0.3-0.1,0.7,0.2,0.7,0.5c0.1,0.3-0.2,0.7-0.5,0.7l-3.7,0.7
				C418.7,2602.6,418.7,2602.6,418.7,2602.6z M282.1,2601.7c0,0-0.1,0-0.1,0l-3.7-0.7c-0.3-0.1-0.6-0.4-0.5-0.7
				c0.1-0.3,0.4-0.6,0.7-0.5l3.7,0.7c0.3,0.1,0.6,0.4,0.5,0.7C282.6,2601.5,282.4,2601.7,282.1,2601.7z M431.1,2600.3
				c-0.3,0-0.6-0.2-0.6-0.5c-0.1-0.3,0.2-0.7,0.5-0.7l3.7-0.7c0.3-0.1,0.7,0.2,0.7,0.5c0.1,0.3-0.2,0.7-0.5,0.7l-3.7,0.7
				C431.2,2600.3,431.2,2600.3,431.1,2600.3z M269.6,2599.2c0,0-0.1,0-0.1,0l-3.7-0.7c-0.3-0.1-0.6-0.4-0.5-0.7
				c0.1-0.3,0.4-0.6,0.7-0.5l3.7,0.7c0.3,0.1,0.6,0.4,0.5,0.7C270.2,2599,269.9,2599.2,269.6,2599.2z M443.6,2597.9
				c-0.3,0-0.6-0.2-0.6-0.5c-0.1-0.3,0.2-0.7,0.5-0.7l3.7-0.7c0.3-0.1,0.7,0.2,0.7,0.5c0.1,0.3-0.2,0.7-0.5,0.7l-3.7,0.7
				C443.7,2597.9,443.6,2597.9,443.6,2597.9z M257.2,2596.7c0,0-0.1,0-0.1,0l-3.7-0.7c-0.3-0.1-0.6-0.4-0.5-0.7
				c0.1-0.3,0.4-0.6,0.7-0.5l3.7,0.7c0.3,0.1,0.6,0.4,0.5,0.7C257.7,2596.5,257.5,2596.7,257.2,2596.7z M456.1,2595.5
				c-0.3,0-0.6-0.2-0.6-0.5c-0.1-0.3,0.2-0.7,0.5-0.7l3.7-0.7c0.3-0.1,0.7,0.2,0.7,0.5c0.1,0.3-0.2,0.7-0.5,0.7l-3.7,0.7
				C456.1,2595.5,456.1,2595.5,456.1,2595.5z M244.7,2594.3c0,0-0.1,0-0.1,0l-3.7-0.7c-0.3-0.1-0.6-0.4-0.5-0.7
				c0.1-0.3,0.4-0.6,0.7-0.5l3.7,0.7c0.3,0.1,0.6,0.4,0.5,0.7C245.3,2594,245,2594.3,244.7,2594.3z M468.5,2593.2
				c-0.3,0-0.6-0.2-0.6-0.5c-0.1-0.3,0.2-0.7,0.5-0.7l3.7-0.7c0.3-0.1,0.7,0.2,0.7,0.5c0.1,0.3-0.2,0.7-0.5,0.7l-3.7,0.7
				C468.6,2593.2,468.6,2593.2,468.5,2593.2z M232.3,2591.8c0,0-0.1,0-0.1,0l-3.7-0.7c-0.3-0.1-0.6-0.4-0.5-0.7
				c0.1-0.3,0.4-0.6,0.7-0.5l3.7,0.7c0.3,0.1,0.6,0.4,0.5,0.7C232.8,2591.6,232.6,2591.8,232.3,2591.8z M481,2590.8
				c-0.3,0-0.6-0.2-0.6-0.5c-0.1-0.3,0.2-0.7,0.5-0.7l3.7-0.7c0.3-0.1,0.7,0.2,0.7,0.5c0.1,0.3-0.2,0.7-0.5,0.7l-3.7,0.7
				C481.1,2590.8,481,2590.8,481,2590.8z M219.8,2589.3c0,0-0.1,0-0.1,0l-3.7-0.7c-0.3-0.1-0.6-0.4-0.5-0.7c0.1-0.3,0.4-0.6,0.7-0.5
				l3.7,0.7c0.3,0.1,0.6,0.4,0.5,0.7C220.4,2589.1,220.1,2589.3,219.8,2589.3z M493.5,2588.5c-0.3,0-0.6-0.2-0.6-0.5
				c-0.1-0.3,0.2-0.7,0.5-0.7l3.7-0.7c0.3-0.1,0.7,0.2,0.7,0.5c0.1,0.3-0.2,0.7-0.5,0.7l-3.7,0.7
				C493.6,2588.5,493.5,2588.5,493.5,2588.5z M207.4,2586.8c0,0-0.1,0-0.1,0l-3.7-0.7c-0.3-0.1-0.6-0.4-0.5-0.7
				c0.1-0.3,0.4-0.6,0.7-0.5l3.7,0.7c0.3,0.1,0.6,0.4,0.5,0.7C207.9,2586.6,207.7,2586.8,207.4,2586.8z M505.9,2586.1
				c-0.3,0-0.6-0.2-0.6-0.5c-0.1-0.3,0.2-0.7,0.5-0.7l3.7-0.7c0.3-0.1,0.7,0.2,0.7,0.5c0.1,0.3-0.2,0.7-0.5,0.7l-3.7,0.7
				C506,2586.1,506,2586.1,505.9,2586.1z M194.9,2584.4c0,0-0.1,0-0.1,0l-3.7-0.7c-0.3-0.1-0.6-0.4-0.5-0.7c0.1-0.3,0.4-0.6,0.7-0.5
				l3.7,0.7c0.3,0.1,0.6,0.4,0.5,0.7C195.5,2584.1,195.2,2584.4,194.9,2584.4z M518.4,2583.7c-0.3,0-0.6-0.2-0.6-0.5
				c-0.1-0.3,0.2-0.7,0.5-0.7l3.7-0.7c0.3-0.1,0.7,0.2,0.7,0.5c0.1,0.3-0.2,0.7-0.5,0.7l-3.7,0.7
				C518.5,2583.7,518.5,2583.7,518.4,2583.7z M182.5,2581.9c0,0-0.1,0-0.1,0l-3.7-0.7c-0.3-0.1-0.6-0.4-0.5-0.7
				c0.1-0.3,0.4-0.6,0.7-0.5l3.7,0.7c0.3,0.1,0.6,0.4,0.5,0.7C183,2581.7,182.8,2581.9,182.5,2581.9z M530.9,2581.4
				c-0.3,0-0.6-0.2-0.6-0.5c-0.1-0.3,0.2-0.7,0.5-0.7l3.7-0.7c0.3-0.1,0.7,0.2,0.7,0.5c0.1,0.3-0.2,0.7-0.5,0.7l-3.7,0.7
				C531,2581.4,530.9,2581.4,530.9,2581.4z M170,2579.4c0,0-0.1,0-0.1,0l-3.7-0.7c-0.3-0.1-0.6-0.4-0.5-0.7c0.1-0.3,0.4-0.6,0.7-0.5
				l3.7,0.7c0.3,0.1,0.6,0.4,0.5,0.7C170.6,2579.2,170.3,2579.4,170,2579.4z M543.4,2579c-0.3,0-0.6-0.2-0.6-0.5
				c-0.1-0.3,0.2-0.7,0.5-0.7l3.7-0.7c0.3-0.1,0.7,0.2,0.7,0.5c0.1,0.3-0.2,0.7-0.5,0.7l-3.7,0.7C543.4,2579,543.4,2579,543.4,2579z
				 M157.6,2576.9c0,0-0.1,0-0.1,0l-3.7-0.7c-0.3-0.1-0.6-0.4-0.5-0.7c0.1-0.3,0.4-0.6,0.7-0.5l3.7,0.7c0.3,0.1,0.6,0.4,0.5,0.7
				C158.1,2576.7,157.9,2576.9,157.6,2576.9z M555.8,2576.7c-0.3,0-0.6-0.2-0.6-0.5c-0.1-0.3,0.2-0.7,0.5-0.7l3.7-0.7
				c0.3-0.1,0.7,0.2,0.7,0.5c0.1,0.3-0.2,0.7-0.5,0.7l-3.7,0.7C555.9,2576.7,555.9,2576.7,555.8,2576.7z M145.1,2574.5
				c0,0-0.1,0-0.1,0l-3.7-0.7c-0.3-0.1-0.6-0.4-0.5-0.7c0.1-0.3,0.4-0.6,0.7-0.5l3.7,0.7c0.3,0.1,0.6,0.4,0.5,0.7
				C145.7,2574.3,145.4,2574.5,145.1,2574.5z M568.3,2574.3c-0.3,0-0.6-0.2-0.6-0.5c-0.1-0.3,0.2-0.7,0.5-0.7l3.7-0.7
				c0.3-0.1,0.7,0.2,0.7,0.5c0.1,0.3-0.2,0.7-0.5,0.7l-3.7,0.7C568.4,2574.3,568.3,2574.3,568.3,2574.3z M132.7,2572
				c0,0-0.1,0-0.1,0l-3.7-0.7c-0.3-0.1-0.6-0.4-0.5-0.7c0.1-0.3,0.4-0.6,0.7-0.5l3.7,0.7c0.3,0.1,0.6,0.4,0.5,0.7
				C133.3,2571.8,133,2572,132.7,2572z M580.8,2572c-0.3,0-0.6-0.2-0.6-0.5c-0.1-0.3,0.2-0.7,0.5-0.7l3.7-0.7
				c0.3-0.1,0.7,0.2,0.7,0.5c0.1,0.3-0.2,0.7-0.5,0.7l-3.7,0.7C580.8,2571.9,580.8,2572,580.8,2572z M593.2,2569.6
				c-0.3,0-0.6-0.2-0.6-0.5c-0.1-0.3,0.2-0.7,0.5-0.7l3.7-0.7c0.3-0.1,0.7,0.2,0.7,0.5c0.1,0.3-0.2,0.7-0.5,0.7l-3.7,0.7
				C593.3,2569.6,593.3,2569.6,593.2,2569.6z M120.2,2569.5c0,0-0.1,0-0.1,0l-3.7-0.7c-0.3-0.1-0.6-0.4-0.5-0.7
				c0.1-0.3,0.4-0.6,0.7-0.5l3.7,0.7c0.3,0.1,0.6,0.4,0.5,0.7C120.8,2569.3,120.5,2569.5,120.2,2569.5z M605.7,2567.2
				c-0.3,0-0.6-0.2-0.6-0.5c-0.1-0.3,0.2-0.7,0.5-0.7l3.7-0.7c0.3-0.1,0.7,0.2,0.7,0.5c0.1,0.3-0.2,0.7-0.5,0.7l-3.7,0.7
				C605.8,2567.2,605.7,2567.2,605.7,2567.2z M107.8,2567c0,0-0.1,0-0.1,0l-3.7-0.7c-0.3-0.1-0.6-0.4-0.5-0.7
				c0.1-0.3,0.4-0.6,0.7-0.5l3.7,0.7c0.3,0.1,0.6,0.4,0.5,0.7C108.4,2566.8,108.1,2567,107.8,2567z M618.2,2564.9
				c-0.3,0-0.6-0.2-0.6-0.5c-0.1-0.3,0.2-0.7,0.5-0.7l3.7-0.7c0.3-0.1,0.7,0.2,0.7,0.5c0.1,0.3-0.2,0.7-0.5,0.7l-3.7,0.7
				C618.3,2564.9,618.2,2564.9,618.2,2564.9z M95.3,2564.6c0,0-0.1,0-0.1,0l-3.7-0.7c-0.3-0.1-0.6-0.4-0.5-0.7
				c0.1-0.3,0.4-0.6,0.7-0.5l3.7,0.7c0.3,0.1,0.6,0.4,0.5,0.7C95.9,2564.4,95.6,2564.6,95.3,2564.6z M630.6,2562.5
				c-0.3,0-0.6-0.2-0.6-0.5c-0.1-0.3,0.2-0.7,0.5-0.7l3.7-0.7c0.3-0.1,0.7,0.2,0.7,0.5c0.1,0.3-0.2,0.7-0.5,0.7l-3.7,0.7
				C630.7,2562.5,630.7,2562.5,630.6,2562.5z M82.9,2562.1c0,0-0.1,0-0.1,0l-3.7-0.7c-0.3-0.1-0.6-0.4-0.5-0.7
				c0.1-0.3,0.4-0.6,0.7-0.5l3.7,0.7c0.3,0.1,0.6,0.4,0.5,0.7C83.5,2561.9,83.2,2562.1,82.9,2562.1z M643.1,2560.2
				c-0.3,0-0.6-0.2-0.6-0.5c-0.1-0.3,0.2-0.7,0.5-0.7l3.7-0.7c0.3-0.1,0.7,0.2,0.7,0.5c0.1,0.3-0.2,0.7-0.5,0.7l-3.7,0.7
				C643.2,2560.2,643.2,2560.2,643.1,2560.2z M70.5,2559.6c0,0-0.1,0-0.1,0l-3.7-0.7c-0.3-0.1-0.6-0.4-0.5-0.7
				c0.1-0.3,0.4-0.6,0.7-0.5l3.7,0.7c0.3,0.1,0.6,0.4,0.5,0.7C71,2559.4,70.7,2559.6,70.5,2559.6z M655.6,2557.8
				c-0.3,0-0.6-0.2-0.6-0.5c-0.1-0.3,0.2-0.7,0.5-0.7l3.7-0.7c0.3-0.1,0.7,0.2,0.7,0.5c0.1,0.3-0.2,0.7-0.5,0.7l-3.7,0.7
				C655.7,2557.8,655.6,2557.8,655.6,2557.8z M58,2557.1c0,0-0.1,0-0.1,0l-3.7-0.7c-0.3-0.1-0.6-0.4-0.5-0.7
				c0.1-0.3,0.4-0.6,0.7-0.5l3.7,0.7c0.3,0.1,0.6,0.4,0.5,0.7C58.6,2556.9,58.3,2557.1,58,2557.1z M45.6,2554.7c0,0-0.1,0-0.1,0
				l-3.7-0.7c-0.3-0.1-0.6-0.4-0.5-0.7c0.1-0.3,0.4-0.6,0.7-0.5l3.7,0.7c0.3,0.1,0.6,0.4,0.5,0.7
				C46.1,2554.5,45.9,2554.7,45.6,2554.7z M33.1,2552.2c0,0-0.1,0-0.1,0l-3.7-0.7c-0.3-0.1-0.6-0.4-0.5-0.7c0.1-0.3,0.4-0.6,0.7-0.5
				l3.7,0.7c0.3,0.1,0.6,0.4,0.5,0.7C33.7,2552,33.4,2552.2,33.1,2552.2z M661.2,2549.7L661.2,2549.7c-0.4,0-0.6-0.3-0.6-0.6l0-2.3
				l0-1.5c0-0.4,0.3-0.6,0.6-0.6h0c0.3,0,0.6,0.3,0.6,0.6l0,1.5l0,2.3C661.8,2549.4,661.5,2549.7,661.2,2549.7z M24.6,2546.3
				c-0.3,0-0.6-0.3-0.6-0.6c-0.1-1.2-0.1-2.5-0.2-3.8c0-0.4,0.3-0.6,0.6-0.7c0.4,0,0.6,0.3,0.7,0.6c0.1,1.3,0.1,2.6,0.2,3.8
				C25.3,2546,25,2546.3,24.6,2546.3C24.7,2546.3,24.7,2546.3,24.6,2546.3z M661.1,2537c-0.3,0-0.6-0.3-0.6-0.6
				c0-1.3-0.1-2.5-0.1-3.8c0-0.4,0.3-0.6,0.6-0.7c0.4,0,0.6,0.3,0.7,0.6c0,1.3,0.1,2.5,0.1,3.8C661.7,2536.7,661.4,2537,661.1,2537
				L661.1,2537z M24.1,2533.6c-0.3,0-0.6-0.3-0.6-0.6l-0.1-3.8c0-0.4,0.3-0.6,0.6-0.7c0.3,0,0.6,0.3,0.7,0.6l0.1,3.8
				C24.7,2533.3,24.5,2533.6,24.1,2533.6C24.1,2533.6,24.1,2533.6,24.1,2533.6z M660.7,2524.3c-0.3,0-0.6-0.3-0.6-0.6
				c-0.1-1.3-0.1-2.5-0.2-3.8c0-0.4,0.3-0.6,0.6-0.7c0.3,0,0.6,0.3,0.7,0.6c0.1,1.3,0.1,2.5,0.2,3.8
				C661.3,2524,661.1,2524.3,660.7,2524.3C660.7,2524.3,660.7,2524.3,660.7,2524.3z M23.7,2520.9c-0.3,0-0.6-0.3-0.6-0.6l-0.1-3.8
				c0-0.4,0.3-0.6,0.6-0.7c0.4,0,0.6,0.3,0.7,0.6l0.1,3.8C24.3,2520.6,24,2520.9,23.7,2520.9L23.7,2520.9z M660,2511.6
				c-0.3,0-0.6-0.3-0.6-0.6c-0.1-1.3-0.2-2.5-0.2-3.8c0-0.4,0.2-0.7,0.6-0.7c0.4,0,0.7,0.2,0.7,0.6c0.1,1.3,0.2,2.5,0.2,3.8
				C660.7,2511.3,660.4,2511.6,660,2511.6C660.1,2511.6,660.1,2511.6,660,2511.6z M23.3,2508.2c-0.3,0-0.6-0.3-0.6-0.6l-0.1-3.8
				c0-0.4,0.3-0.6,0.6-0.6c0.3,0,0.6,0.3,0.6,0.6l0.1,3.8C24,2507.9,23.7,2508.2,23.3,2508.2L23.3,2508.2z M659.1,2499
				c-0.3,0-0.6-0.3-0.6-0.6c-0.1-1.3-0.2-2.5-0.3-3.8c0-0.3,0.2-0.7,0.6-0.7c0.3,0,0.7,0.2,0.7,0.6c0.1,1.3,0.2,2.5,0.3,3.8
				C659.8,2498.6,659.5,2498.9,659.1,2499C659.2,2499,659.2,2499,659.1,2499z M23.1,2495.5c-0.3,0-0.6-0.3-0.6-0.6l0-3.8
				c0-0.4,0.3-0.6,0.6-0.6h0c0.3,0,0.6,0.3,0.6,0.6l0,3.8C23.8,2495.2,23.5,2495.5,23.1,2495.5L23.1,2495.5z M658,2486.3
				c-0.3,0-0.6-0.2-0.6-0.6c-0.1-1.3-0.3-2.5-0.4-3.8c0-0.3,0.2-0.7,0.6-0.7c0.4,0,0.7,0.2,0.7,0.6c0.1,1.3,0.3,2.5,0.4,3.8
				C658.7,2486,658.4,2486.3,658,2486.3C658.1,2486.3,658,2486.3,658,2486.3z M23,2482.8c-0.4,0-0.6-0.3-0.6-0.6l0-2.2l0-1.6
				c0-0.4,0.3-0.6,0.6-0.6h0c0.4,0,0.6,0.3,0.6,0.6l0,1.6l0,2.2C23.7,2482.5,23.4,2482.8,23,2482.8L23,2482.8z M656.7,2473.7
				c-0.3,0-0.6-0.2-0.6-0.6c-0.1-1.3-0.3-2.5-0.4-3.8c0-0.3,0.2-0.7,0.6-0.7c0.4,0,0.7,0.2,0.7,0.6c0.2,1.3,0.3,2.5,0.4,3.8
				C657.3,2473.3,657.1,2473.7,656.7,2473.7C656.7,2473.7,656.7,2473.7,656.7,2473.7z M23.1,2470.1L23.1,2470.1
				c-0.4,0-0.6-0.3-0.6-0.6c0-1.3,0-2.5,0-3.8c0-0.3,0.3-0.6,0.6-0.6h0c0.4,0,0.6,0.3,0.6,0.6c0,1.3,0,2.5,0,3.8
				C23.7,2469.9,23.4,2470.1,23.1,2470.1z M655.1,2461.1c-0.3,0-0.6-0.2-0.6-0.6c-0.2-1.3-0.3-2.5-0.5-3.8c0-0.3,0.2-0.7,0.5-0.7
				c0.4,0,0.7,0.2,0.7,0.5c0.2,1.3,0.3,2.5,0.5,3.8C655.8,2460.7,655.6,2461,655.1,2461.1C655.2,2461.1,655.2,2461.1,655.1,2461.1z
				 M23.3,2457.5C23.3,2457.5,23.3,2457.5,23.3,2457.5c-0.4,0-0.6-0.3-0.6-0.6c0-1.3,0.1-2.5,0.1-3.8c0-0.4,0.3-0.6,0.7-0.6
				c0.4,0,0.6,0.3,0.6,0.7c0,1.3-0.1,2.5-0.1,3.8C23.9,2457.2,23.6,2457.5,23.3,2457.5z M653.4,2448.5c-0.3,0-0.6-0.2-0.6-0.5
				c-0.2-1.3-0.4-2.5-0.6-3.8c-0.1-0.3,0.2-0.7,0.5-0.7c0.3,0,0.7,0.2,0.7,0.5c0.2,1.2,0.4,2.5,0.6,3.8
				C654.1,2448.1,653.8,2448.5,653.4,2448.5C653.5,2448.5,653.4,2448.5,653.4,2448.5z M23.6,2444.8L23.6,2444.8
				c-0.4,0-0.6-0.3-0.6-0.7c0-1.3,0.1-2.5,0.1-3.8c0-0.4,0.3-0.6,0.7-0.6c0.4,0,0.6,0.3,0.6,0.7c-0.1,1.3-0.1,2.5-0.1,3.8
				C24.3,2444.5,24,2444.8,23.6,2444.8z M651.5,2436c-0.3,0-0.6-0.2-0.6-0.5c-0.2-1.3-0.4-2.5-0.6-3.8c-0.1-0.3,0.2-0.7,0.5-0.7
				c0.4-0.1,0.7,0.2,0.7,0.5c0.2,1.2,0.4,2.5,0.6,3.8c0.1,0.3-0.2,0.7-0.5,0.7C651.5,2436,651.5,2436,651.5,2436z M24.2,2432.1
				C24.2,2432.1,24.2,2432.1,24.2,2432.1c-0.4,0-0.7-0.3-0.6-0.7c0.1-1.3,0.1-2.5,0.2-3.8c0-0.4,0.3-0.6,0.7-0.6
				c0.4,0,0.6,0.3,0.6,0.7c-0.1,1.3-0.1,2.5-0.2,3.8C24.8,2431.8,24.5,2432.1,24.2,2432.1z M649.4,2423.4c-0.3,0-0.6-0.2-0.6-0.5
				c-0.2-1.3-0.4-2.5-0.7-3.7c-0.1-0.3,0.2-0.7,0.5-0.7c0.3-0.1,0.7,0.2,0.7,0.5c0.2,1.2,0.4,2.5,0.7,3.8c0.1,0.3-0.2,0.7-0.5,0.7
				C649.4,2423.4,649.4,2423.4,649.4,2423.4z M25,2419.4C25,2419.4,25,2419.4,25,2419.4c-0.4,0-0.7-0.3-0.6-0.7
				c0.1-1.3,0.2-2.5,0.3-3.8c0-0.3,0.3-0.6,0.7-0.6c0.3,0,0.6,0.3,0.6,0.7c-0.1,1.3-0.2,2.5-0.3,3.8
				C25.6,2419.1,25.3,2419.4,25,2419.4z M647.1,2411c-0.3,0-0.6-0.2-0.6-0.5c-0.2-1.3-0.5-2.5-0.7-3.7c-0.1-0.3,0.2-0.7,0.5-0.7
				c0.3-0.1,0.7,0.2,0.7,0.5c0.2,1.2,0.5,2.5,0.7,3.7c0.1,0.3-0.2,0.7-0.5,0.7C647.2,2410.9,647.1,2411,647.1,2411z M26.1,2406.8
				C26.1,2406.8,26,2406.8,26.1,2406.8c-0.4,0-0.7-0.3-0.6-0.7c0.1-1.3,0.3-2.5,0.4-3.8c0-0.3,0.3-0.6,0.7-0.6
				c0.3,0,0.6,0.3,0.6,0.7c-0.1,1.3-0.3,2.5-0.4,3.8C26.7,2406.5,26.4,2406.8,26.1,2406.8z M644.6,2398.5c-0.3,0-0.6-0.2-0.6-0.5
				c-0.3-1.3-0.5-2.5-0.8-3.7c-0.1-0.3,0.1-0.7,0.5-0.8c0.3-0.1,0.7,0.1,0.8,0.5c0.3,1.2,0.5,2.4,0.8,3.7c0.1,0.3-0.1,0.7-0.5,0.8
				C644.7,2398.5,644.7,2398.5,644.6,2398.5z M27.5,2394.1C27.5,2394.1,27.5,2394.1,27.5,2394.1c-0.4-0.1-0.7-0.4-0.6-0.7
				c0.2-1.3,0.3-2.5,0.5-3.8c0-0.3,0.4-0.6,0.7-0.5c0.3,0,0.6,0.4,0.5,0.7c-0.2,1.2-0.3,2.5-0.5,3.8
				C28.1,2393.9,27.8,2394.1,27.5,2394.1z M640.5,2387.4C640.5,2387.4,640.5,2387.4,640.5,2387.4c-1.3-0.1-2.6-0.3-3.9-0.4
				c-0.3,0-0.6-0.4-0.6-0.7c0-0.3,0.3-0.6,0.7-0.6c1.3,0.1,2.6,0.3,3.8,0.4c0.3,0,0.6,0.4,0.6,0.7
				C641.1,2387.2,640.9,2387.4,640.5,2387.4z M627.9,2386.1C627.9,2386.1,627.9,2386.1,627.9,2386.1c-1.3-0.1-2.6-0.2-3.8-0.3
				c-0.3,0-0.6-0.3-0.6-0.7c0-0.3,0.3-0.6,0.7-0.6c1.3,0.1,2.6,0.2,3.8,0.3c0.3,0,0.6,0.3,0.6,0.7
				C628.5,2385.9,628.2,2386.1,627.9,2386.1z M615.3,2385.1C615.3,2385.1,615.2,2385.1,615.3,2385.1c-1.3-0.1-2.6-0.2-3.8-0.3
				c-0.3,0-0.6-0.3-0.6-0.7c0-0.3,0.3-0.6,0.7-0.6c1.3,0.1,2.6,0.2,3.8,0.3c0.3,0,0.6,0.3,0.6,0.7
				C615.9,2384.8,615.6,2385.1,615.3,2385.1z M602.6,2384.2C602.6,2384.2,602.6,2384.2,602.6,2384.2l-3.8-0.2
				c-0.3,0-0.6-0.3-0.6-0.7c0-0.3,0.3-0.6,0.7-0.6l3.8,0.2c0.3,0,0.6,0.3,0.6,0.7C603.2,2383.9,602.9,2384.2,602.6,2384.2z
				 M589.9,2383.4C589.9,2383.4,589.9,2383.4,589.9,2383.4l-3.8-0.2c-0.4,0-0.6-0.3-0.6-0.7c0-0.4,0.3-0.6,0.7-0.6l3.8,0.2
				c0.3,0,0.6,0.3,0.6,0.7C590.6,2383.1,590.3,2383.4,589.9,2383.4z M577.3,2382.7C577.3,2382.7,577.2,2382.7,577.3,2382.7l-3.8-0.2
				c-0.4,0-0.6-0.3-0.6-0.7c0-0.3,0.3-0.6,0.7-0.6l3.8,0.2c0.3,0,0.6,0.3,0.6,0.7C577.9,2382.5,577.6,2382.7,577.3,2382.7z
				 M564.6,2382.1L564.6,2382.1l-3.8-0.2c-0.4,0-0.6-0.3-0.6-0.7c0-0.4,0.3-0.6,0.7-0.6l3.8,0.2c0.4,0,0.6,0.3,0.6,0.7
				C565.2,2381.9,564.9,2382.1,564.6,2382.1z M551.9,2381.6C551.9,2381.6,551.9,2381.6,551.9,2381.6l-3.8-0.1
				c-0.4,0-0.6-0.3-0.6-0.7c0-0.4,0.3-0.6,0.7-0.6l3.8,0.1c0.4,0,0.6,0.3,0.6,0.7C552.5,2381.3,552.2,2381.6,551.9,2381.6z
				 M29.4,2381.6c0,0-0.1,0-0.1,0c-0.3-0.1-0.6-0.4-0.5-0.7l0.2-1.2c0.2-1.1,1.1-1.9,2.2-1.9l0.3,0c0.4-0.1,0.6,0.3,0.6,0.6
				c0,0.3-0.3,0.6-0.6,0.6l-0.3,0c-0.5,0-0.9,0.3-1,0.8l-0.2,1.2C30,2381.4,29.7,2381.6,29.4,2381.6z M539.2,2381.1L539.2,2381.1
				l-3.8-0.1c-0.4,0-0.6-0.3-0.6-0.7c0-0.4,0.3-0.6,0.7-0.6l3.8,0.1c0.4,0,0.6,0.3,0.6,0.7C539.8,2380.9,539.6,2381.1,539.2,2381.1z
				 M526.5,2380.7C526.5,2380.7,526.5,2380.7,526.5,2380.7l-3.8-0.1c-0.4,0-0.6-0.3-0.6-0.7c0-0.4,0.3-0.6,0.7-0.6l3.8,0.1
				c0.4,0,0.6,0.3,0.6,0.7C527.2,2380.4,526.9,2380.7,526.5,2380.7z M513.8,2380.3C513.8,2380.3,513.8,2380.3,513.8,2380.3l-3.8-0.1
				c-0.4,0-0.6-0.3-0.6-0.7c0-0.4,0.3-0.6,0.7-0.6l3.8,0.1c0.4,0,0.6,0.3,0.6,0.7C514.5,2380,514.2,2380.3,513.8,2380.3z
				 M501.2,2380C501.2,2380,501.1,2380,501.2,2380l-3.8-0.1c-0.4,0-0.6-0.3-0.6-0.7c0-0.3,0.2-0.6,0.7-0.6l3.8,0.1
				c0.4,0,0.6,0.3,0.6,0.7C501.8,2379.7,501.5,2380,501.2,2380z M488.5,2379.7L488.5,2379.7l-3.8-0.1c-0.4,0-0.6-0.3-0.6-0.6
				c0-0.3,0.2-0.6,0.6-0.6l3.8,0.1c0.4,0,0.6,0.3,0.6,0.6C489.1,2379.4,488.8,2379.7,488.5,2379.7z M475.8,2379.4
				C475.8,2379.4,475.8,2379.4,475.8,2379.4l-3.8-0.1c-0.4,0-0.6-0.3-0.6-0.6c0-0.4,0.3-0.6,0.6-0.6l3.8,0.1c0.4,0,0.6,0.3,0.6,0.6
				C476.4,2379.1,476.1,2379.4,475.8,2379.4z M463.1,2379.1L463.1,2379.1l-3.8-0.1c-0.4,0-0.6-0.3-0.6-0.6c0-0.4,0.3-0.7,0.6-0.6
				l3.8,0.1c0.4,0,0.6,0.3,0.6,0.6C463.7,2378.8,463.4,2379.1,463.1,2379.1z M40.4,2378.9c-0.3,0-0.6-0.3-0.6-0.6
				c0-0.4,0.3-0.6,0.6-0.6l3.8,0c0.3,0,0.6,0.3,0.6,0.6c0,0.4-0.3,0.6-0.6,0.6L40.4,2378.9L40.4,2378.9z M450.4,2378.9L450.4,2378.9
				l-3.8-0.1c-0.4,0-0.6-0.3-0.6-0.6c0-0.3,0.3-0.6,0.6-0.6h0l3.8,0.1c0.4,0,0.6,0.3,0.6,0.6C451,2378.6,450.8,2378.9,450.4,2378.9z
				 M53.1,2378.8c-0.3,0-0.6-0.3-0.6-0.6c0-0.4,0.3-0.6,0.6-0.6l3.8,0c0.4,0,0.6,0.3,0.6,0.6c0,0.4-0.3,0.6-0.6,0.6L53.1,2378.8
				L53.1,2378.8z M437.7,2378.7L437.7,2378.7l-3.8-0.1c-0.4,0-0.6-0.3-0.6-0.6c0-0.4,0.3-0.6,0.6-0.6l3.8,0.1c0.3,0,0.6,0.3,0.6,0.6
				C438.3,2378.4,438.1,2378.7,437.7,2378.7z M65.8,2378.6c-0.3,0-0.6-0.3-0.6-0.6c0-0.4,0.3-0.6,0.6-0.6l3.8,0
				c0.4,0,0.6,0.3,0.6,0.6c0,0.4-0.3,0.6-0.6,0.6L65.8,2378.6L65.8,2378.6z M78.5,2378.5c-0.3,0-0.6-0.3-0.6-0.6
				c0-0.4,0.3-0.6,0.6-0.6l3.8,0c0.4,0,0.6,0.3,0.6,0.6c0,0.4-0.3,0.6-0.6,0.6L78.5,2378.5L78.5,2378.5z M425,2378.5L425,2378.5
				l-3.8-0.1c-0.4,0-0.6-0.3-0.6-0.6c0-0.3,0.3-0.6,0.6-0.6h0l3.8,0.1c0.4,0,0.6,0.3,0.6,0.6C425.7,2378.2,425.4,2378.5,425,2378.5z
				 M91.2,2378.4c-0.3,0-0.6-0.3-0.6-0.6c0-0.4,0.3-0.6,0.6-0.6l3.8,0c0.4,0,0.6,0.3,0.6,0.6c0,0.4-0.3,0.6-0.6,0.6L91.2,2378.4
				L91.2,2378.4z M412.3,2378.3L412.3,2378.3l-3.8,0c-0.4,0-0.6-0.3-0.6-0.6c0-0.4,0.3-0.7,0.6-0.6l3.8,0c0.4,0,0.6,0.3,0.6,0.6
				C413,2378,412.7,2378.3,412.3,2378.3z M103.9,2378.3c-0.3,0-0.6-0.3-0.6-0.6c0-0.4,0.3-0.6,0.6-0.6l3.8,0h0
				c0.3,0,0.6,0.3,0.6,0.6c0,0.4-0.3,0.6-0.6,0.6L103.9,2378.3L103.9,2378.3z M399.6,2378.2L399.6,2378.2l-3.8,0
				c-0.4,0-0.6-0.3-0.6-0.6c0-0.4,0.3-0.6,0.6-0.6l3.8,0c0.4,0,0.6,0.3,0.6,0.6C400.3,2377.9,400,2378.2,399.6,2378.2z
				 M116.6,2378.2c-0.3,0-0.6-0.3-0.6-0.6c0-0.4,0.3-0.6,0.6-0.6l3.8,0h0c0.3,0,0.6,0.3,0.6,0.6c0,0.4-0.3,0.6-0.6,0.6L116.6,2378.2
				L116.6,2378.2z M129.3,2378.1c-0.3,0-0.6-0.3-0.6-0.6c0-0.4,0.3-0.6,0.6-0.6l3.8,0h0c0.3,0,0.6,0.3,0.6,0.6
				c0,0.4-0.3,0.6-0.6,0.6L129.3,2378.1C129.3,2378.1,129.3,2378.1,129.3,2378.1z M387,2378L387,2378l-3.8,0c-0.4,0-0.6-0.3-0.6-0.6
				c0-0.3,0.3-0.6,0.6-0.6h0l3.8,0c0.4,0,0.6,0.3,0.6,0.6C387.6,2377.8,387.3,2378,387,2378z M142,2378c-0.3,0-0.6-0.3-0.6-0.6
				c0-0.4,0.3-0.6,0.6-0.6l3.8,0c0.3,0,0.6,0.3,0.6,0.6c0,0.4-0.3,0.6-0.6,0.6L142,2378L142,2378z M374.3,2377.9L374.3,2377.9
				l-3.8,0c-0.4,0-0.6-0.3-0.6-0.6c0-0.3,0.3-0.6,0.6-0.6h0l3.8,0c0.4,0,0.6,0.3,0.6,0.6C374.9,2377.7,374.6,2377.9,374.3,2377.9z
				 M154.7,2377.9c-0.3,0-0.6-0.3-0.6-0.6c0-0.4,0.3-0.6,0.6-0.6l3.8,0h0c0.4,0,0.6,0.3,0.6,0.6c0,0.4-0.3,0.6-0.6,0.6L154.7,2377.9
				L154.7,2377.9z M361.6,2377.8L361.6,2377.8l-3.8,0c-0.4,0-0.6-0.3-0.6-0.6c0-0.4,0.3-0.7,0.6-0.6l3.8,0c0.4,0,0.6,0.3,0.6,0.6
				C362.2,2377.6,361.9,2377.8,361.6,2377.8z M167.4,2377.8c-0.3,0-0.6-0.3-0.6-0.6c0-0.4,0.3-0.6,0.6-0.6l3.8,0h0
				c0.3,0,0.6,0.3,0.6,0.6c0,0.4-0.3,0.6-0.6,0.6L167.4,2377.8L167.4,2377.8z M348.9,2377.7L348.9,2377.7l-3.8,0
				c-0.4,0-0.6-0.3-0.6-0.6c0-0.4,0.3-0.6,0.6-0.6l3.8,0c0.4,0,0.6,0.3,0.6,0.6C349.5,2377.5,349.2,2377.7,348.9,2377.7z
				 M180.1,2377.7c-0.3,0-0.6-0.3-0.6-0.6c0-0.4,0.3-0.6,0.6-0.6l3.8,0h0c0.3,0,0.6,0.3,0.6,0.6c0,0.4-0.3,0.6-0.6,0.6L180.1,2377.7
				L180.1,2377.7z M336.2,2377.7L336.2,2377.7l-3.8,0c-0.4,0-0.6-0.3-0.6-0.6c0-0.3,0.3-0.6,0.6-0.6h0l3.8,0c0.4,0,0.6,0.3,0.6,0.6
				C336.8,2377.4,336.5,2377.7,336.2,2377.7z M192.8,2377.7c-0.3,0-0.6-0.3-0.6-0.6c0-0.4,0.3-0.6,0.6-0.6l3.8,0h0
				c0.4,0,0.6,0.3,0.6,0.6c0,0.4-0.3,0.6-0.6,0.6L192.8,2377.7L192.8,2377.7z M205.5,2377.6c-0.3,0-0.6-0.3-0.6-0.6
				c0-0.4,0.3-0.6,0.6-0.6l3.8,0h0c0.4,0,0.6,0.3,0.6,0.6c0,0.4-0.3,0.6-0.6,0.6L205.5,2377.6L205.5,2377.6z M323.5,2377.6
				L323.5,2377.6l-3.8,0c-0.4,0-0.6-0.3-0.6-0.6c0-0.3,0.3-0.6,0.6-0.6h0l3.8,0c0.4,0,0.6,0.3,0.6,0.6
				C324.1,2377.3,323.8,2377.6,323.5,2377.6z M218.2,2377.6c-0.3,0-0.6-0.3-0.6-0.6c0-0.4,0.3-0.6,0.6-0.6l3.8,0h0
				c0.3,0,0.6,0.3,0.6,0.6c0,0.4-0.3,0.6-0.6,0.6L218.2,2377.6L218.2,2377.6z M310.8,2377.6L310.8,2377.6l-3.8,0
				c-0.4,0-0.6-0.3-0.6-0.6c0-0.4,0.3-0.6,0.6-0.6h0l3.8,0c0.4,0,0.6,0.3,0.6,0.6C311.4,2377.3,311.2,2377.6,310.8,2377.6z
				 M230.8,2377.6c-0.4,0-0.6-0.3-0.6-0.6c0-0.4,0.3-0.6,0.6-0.6l3.8,0h0c0.4,0,0.6,0.3,0.6,0.6c0,0.4-0.3,0.6-0.6,0.6L230.8,2377.6
				L230.8,2377.6z M298.1,2377.5L298.1,2377.5l-3.8,0c-0.4,0-0.6-0.3-0.6-0.6c0-0.4,0.3-0.6,0.6-0.6h0l3.8,0c0.4,0,0.6,0.3,0.6,0.6
				C298.7,2377.3,298.5,2377.5,298.1,2377.5z M243.5,2377.5c-0.4,0-0.6-0.3-0.6-0.6c0-0.4,0.3-0.6,0.6-0.6l3.8,0
				c0.4,0,0.6,0.3,0.6,0.6c0,0.4-0.3,0.6-0.6,0.6L243.5,2377.5L243.5,2377.5z M285.4,2377.5L285.4,2377.5l-3.8,0
				c-0.4,0-0.6-0.3-0.6-0.6c0-0.4,0.3-0.6,0.6-0.6h0l3.8,0c0.4,0,0.6,0.3,0.6,0.6C286.1,2377.2,285.8,2377.5,285.4,2377.5z
				 M256.2,2377.5c-0.4,0-0.6-0.3-0.6-0.6c0-0.4,0.3-0.6,0.6-0.6l3.8,0c0.4,0,0.6,0.3,0.6,0.6c0,0.4-0.3,0.6-0.6,0.6L256.2,2377.5z
				 M272.7,2377.5L272.7,2377.5l-3.8,0c-0.4,0-0.6-0.3-0.6-0.6s0.3-0.6,0.6-0.6l3.8,0c0.4,0,0.6,0.3,0.6,0.6
				C273.4,2377.2,273.1,2377.5,272.7,2377.5z"/>
			<path class="st21" d="M390.7,2668.9h-83.2c-10.9,0-20.1-8.1-21.4-18.9l-9.6-80.1c-1.5-12.8,8.5-24,21.4-24h99.9
				c12.6,0,22.6,10.8,21.4,23.3l-7.1,80.1C411.2,2660.4,401.9,2668.9,390.7,2668.9z"/>
			<defs>
				<filter id="Adobe_OpacityMaskFilter" filterUnits="userSpaceOnUse" x="293.5" y="2560.6" width="108.8" height="93.6">
					<feFlood  style="flood-color:white;flood-opacity:1" result="back"/>
					<feBlend  in="SourceGraphic" in2="back" mode="normal"/>
				</filter>
			</defs>
			<mask maskUnits="userSpaceOnUse" x="293.5" y="2560.6" width="108.8" height="93.6" id="SVGID_6_">
				<g class="st22">
					<defs>
						<filter id="Adobe_OpacityMaskFilter_1_" filterUnits="userSpaceOnUse" x="293.5" y="2560.6" width="108.8" height="93.6">
							<feFlood  style="flood-color:white;flood-opacity:1" result="back"/>
							<feBlend  in="SourceGraphic" in2="back" mode="normal"/>
						</filter>
					</defs>
					<mask maskUnits="userSpaceOnUse" x="293.5" y="2560.6" width="108.8" height="93.6" id="SVGID_6_">
						<g class="st23">
						</g>
					</mask>
					<linearGradient id="SVGID_7_" gradientUnits="userSpaceOnUse" x1="293.4573" y1="2607.3965" x2="402.3019" y2="2607.3965">
						<stop  offset="0" style="stop-color:#FFFFFF"/>
						<stop  offset="1" style="stop-color:#000000"/>
					</linearGradient>
					<path class="st24" d="M380.5,2654.2h-63.3c-8.3,0-15.3-6.2-16.3-14.4l-7.3-60.9c-1.2-9.7,6.4-18.2,16.3-18.2h76.1
						c9.6,0,17.2,8.2,16.3,17.8l-5.4,60.9C396.1,2647.7,389,2654.2,380.5,2654.2z"/>
				</g>
			</mask>
			<path class="st25" d="M380.5,2654.2h-63.3c-8.3,0-15.3-6.2-16.3-14.4l-7.3-60.9c-1.2-9.7,6.4-18.2,16.3-18.2h76.1
				c9.6,0,17.2,8.2,16.3,17.8l-5.4,60.9C396.1,2647.7,389,2654.2,380.5,2654.2z"/>
		</g>
		<polygon class="st16" points="2185.2,1279.8 2383.2,1677.9 2637.8,1112.3 2373.4,1405.1 		"/>
		<g>
			<g>
				<path class="st26" d="M1456.9,1352.5c-1.3,4.1,13.6,10.3,22.4-6.4c0.3-8,5.2-42.4,0.4-48.9c-25.5-34.8-75-78.4-75-78.4
					c-8.4,8.2-1.5,16.4-1.5,16.4l24,25c-5,9.1-11.1,16.7-14,27.7c-2.2,8.3-0.8,17.2,3.4,24.8c4.2,7.6,10,17.5,15.4,25.2
					C1442.2,1352.4,1456.9,1352.5,1456.9,1352.5z"/>
			</g>
			<g>
				<path class="st27" d="M1886.5,2717.8c0,0,5.5,31.3,8.2,62.2c1.1,12.1-8.3,22.6-20.4,23.1c-41.2,1.7-129.4,5.1-161.1,3.6
					c-4.8-0.2-7.9-5.1-6.1-9.5c1.5-3.7,4.3-6.7,7.9-8.4l145.7-67L1886.5,2717.8z"/>
				<path class="st26" d="M1891,2699.4l-4.4,37.4c0,0-25.5,11.9-42.9-1.5l10.6-41.7L1891,2699.4z"/>
				<path class="st27" d="M1887.6,1996.1c1.9,9.8,10.3,487.5-40.8,701.6c-0.8,3.5,0.9,7.1,4.3,8.5c7.8,3.2,23.2,7.8,41.6,8.5
					c5.7,0.2,10.8-3.5,12.4-9c14.6-49.7,84.5-298.6,93.7-536.3c10.2-265.7,0-9,0-9l-6-164.2L1887.6,1996.1z"/>
				<path class="st27" d="M2054,2734.1c0,0,8.8,15.8,17.3,57.7c1.5,7.6-3.8,14.8-11.5,15.6c-13.6,1.3-34.6,3.1-51.4,2.9
					c-7.7-0.1-13.8-6.8-12.8-14.5c1.9-15.3,7.7-40.4,25.5-60L2054,2734.1z"/>
				<path class="st26" d="M2061.8,2686l-10.4,56.6c0,0-10.3,7.6-30.5,2.1l5-60.9L2061.8,2686z"/>
				<path class="st27" d="M2089.8,2010.7c41.8,252.1-9.1,623-26.2,695.6c-1,4.4-4.6,7.9-9.1,8.6c-7.7,1.3-20.2,2.3-32.7-1.3
					c-4.3-1.2-7.3-5.1-7.5-9.6c-2.3-58.7,1.8-419-37.1-561.4c-2-7.2-6.4-13.5-12.5-17.8l-75.5-53.7l-5.8-86.8L2089.8,2010.7z"/>
				<g>
					<path class="st16" d="M1823.6,1533.1c125.2-2.1,263.3,32.9,263.3,32.9c37.3,217.7,6.5,468.8,6.5,468.8
						c-96.9,25.4-206.2-15.5-206.2-15.5c-16.1-91-91.3-347.1-91.3-347.1c-61.2-7.6-111.5-25.2-153-48.6c31.6-36.7,46.6-83.4,53-111
						C1740.2,1526.4,1785,1533.7,1823.6,1533.1z"/>
					<path class="st26" d="M1453.9,1348.7c12.3-14.9,27.9-7.8,27.9-7.8c18.4,77.8,115,140.9,214.2,171.7c-6.5,27.6-21.4,74.3-53,111
						C1478.3,1531,1453.9,1348.7,1453.9,1348.7z"/>
				</g>
				<path class="st16" d="M2038.9,1687.2l48-121.2c0,0,116.9,79.4,136.1,180.2c-22.1,1.6-62.3,7.4-101.6,27.2
					C2112.8,1725.8,2038.9,1687.2,2038.9,1687.2z"/>
				<path class="st28" d="M1950.4,1431.5l39.8,115.2c0.7,1.9-0.1,4-1.9,5c-10.9,6-50,23.4-97.1-6.5c-4.9-3.1-8.3-8.2-9-14
					l-12.9-99.7H1950.4z"/>
				<g>
					<path class="st26" d="M1859.8,1354.8c0,0-43.7,82.3-38.1,115.6c5.6,33.3,59.8,30.9,107.1,3.9l33.1-88.9L1859.8,1354.8z"/>
					<path class="st29" d="M1926.7,1430.6c-1.9-0.9-2.6-3.2-1.5-5c3.5-5.4,10.1-16.3,12.2-25.8c0,0,7.9-5-20-11.7
						c-27.9-6.7-69.4-17-78.2-40.8c-8.5-23.1,13.9-81.3,49.6-35c1.4,1.8,4,1.8,5.4,0c5.9-7.6,21.2-23.4,42.6-13.8
						c20,9,22.2,23.6,22,31c-0.1,2.2,1.9,3.9,4,3.5c10.1-1.9,34.4-3.6,45.7,21.3c9.3,20.5,3.3,32.1-2.3,37.8c-1.8,1.8-1,4.9,1.4,5.6
						c6.6,2,15.2,7.7,14.4,23.2c-1.2,21.5-25.2,19.6-32.1,18.6c-1.1-0.2-2.3,0.2-3,1.1c-5.9,6.5-32.3,34.1-61,37.4
						c-2.5,0.3-4.4-2.2-3.6-4.5l12.4-36c0.6-1.7-0.2-3.5-1.8-4.2L1926.7,1430.6z"/>
					<path class="st26" d="M1921.7,1435.7c0,0,31.1-21.4,33.4-3.4c2.3,18-28,26.1-43.1,19.4L1921.7,1435.7z"/>
				</g>
				<path class="st26" d="M2121.4,1773.4c0,0,40.9,184.4,3.8,288c45.4,21,37,17.1,37,17.1s89.8-262.3,60.8-332.3
					C2165.9,1740.1,2137.6,1755.4,2121.4,1773.4z"/>
				<path class="st26" d="M2125.3,2061.4c0,0-23.4,30.3-21.5,42.3c1.9,12.1,2.3,17,2.3,17s11.8-8,11-18.3
					c-1.6,32.6-12.5,69.7-2.6,67.9c9.9-1.8,61.3-49.1,49.7-99.6C2137.8,2052.3,2130.4,2054.3,2125.3,2061.4z"/>
			</g>
		</g>
	</g>
</g>
</svg>
