<?xml version="1.0" encoding="utf-8"?>
<!-- Generator: Adobe Illustrator 23.1.0, SVG Export Plug-In . SVG Version: 6.00 Build 0)  -->
<svg version="1.1" id="_x2018_лой_x5F_1" xmlns="http://www.w3.org/2000/svg" xmlns:xlink="http://www.w3.org/1999/xlink"
	 x="0px" y="0px" viewBox="0 0 2905.3 1335.4" style="enable-background:new 0 0 2905.3 1335.4;" xml:space="preserve">
<style type="text/css">
	.st0{display:none;fill:#FFFFFF;}
	.st1{fill:#EBF3FA;}
	.st2{fill:#F2A16B;}
	.st3{fill:#FFB27D;}
	.st4{fill:#020007;}
	.st5{fill:#18093C;}
	.st6{fill:#7F50E7;}
	.st7{fill:#A477F2;}
	.st8{fill:#FCA56B;}
	.st9{fill:#2C3A64;}
	.st10{fill:#2B478B;}
	.st11{fill:#E8945B;}
	.st12{fill:#F2CCAA;}
	.st13{fill:#FFFFFF;}
	.st14{fill:#233862;}
	.st15{fill:#875AE9;}
	.st16{fill:#F59390;}
	.st17{opacity:0.8;}
	.st18{fill:#64BBBF;}
	.st19{fill:#78CAD2;}
	.st20{fill:#6137D3;}
	.st21{fill:#163560;}
	.st22{fill:#ED985F;}
	.st23{display:none;}
	.st24{display:inline;fill:#F9DDBF;}
	.st25{display:inline;fill:#ED7D2B;}
	.st26{display:inline;}
	.st27{fill:#F99746;}
	.st28{fill:#ED7D2B;}
	.st29{display:inline;fill:#FFF0E3;}
	.st30{fill:#FFF0E3;}
	.st31{fill:#F5A46B;}
	.st32{fill:#7D4EE7;}
	.st33{fill:#2E3552;}
	.st34{fill:#8097EC;}
	.st35{fill:#F8BBBA;}
	.st36{fill:url(#SVGID_1_);}
	.st37{fill:url(#SVGID_2_);}
</style>
<rect x="-160.9" y="-297.4" class="st0" width="3200" height="2000"/>
<g>
	<path class="st1" d="M2802.7,1332.7c-53.7,0-163.6,3.8-164.8,5.5h-277.2l-81.1-0.2h-726.5l-212.2-0.2H781.7l-233.6-0.2H125.7
		c0,0-0.7-1.4-2.1-4.2l-0.2-0.3c0,0-0.2-0.3-0.2-0.5c-0.9-1.4-351.5-553.4,227.3-825.5C577,400.7,457.6,188.1,792.8,59.4
		c432.2-166.1,550,75.2,1061.1,16.9c443.9-50.7,646.1,110.7,615,350.7c-14.6,112.7,85.8,199.1,184.9,214.6
		c273.4,42.8,263.6,293.2,241.3,477.2C2881.3,1232.1,2804.6,1332.7,2802.7,1332.7z"/>
	<path class="st2" d="M1151.2,898.8c0,0-3.5-4.3-8.8-5.6c-5.3-1.3-16.6-6.9-15.3-4c1.3,2.9,7.7,6.4,6.6,8.5c0,0-18.1-5-18.6-1.9
		c-0.5,3.2,6.4,15.3,14.1,17.9c2.6,0.9,20.4-2.6,20.4-2.6L1151.2,898.8z"/>
	<path class="st3" d="M1732.8,952.4c0,0-7.1-7.7-16.6-6.5c-4.8,0.6-11.8-7-11.5-2c0.4,4.9,7.4,16.4,9.7,18.3c4.7,3.8,15,2.6,15,2.6
		l12.6,7.8L1732.8,952.4z"/>
	<g>
		<path class="st4" d="M226.9,742.2c0,0-52.2,54.1-54.7,74.5c-2.5,20.4,25,52.2,25,52.2L226.9,742.2z"/>
		<path class="st5" d="M250.5,1303.4c0,0,1.8,28.7,7.4,29.1c0.7,0.1,28.2,0,28.2,0l35-0.3c0,0-0.2-8.4-10.5-10.2
			c-10.2-1.8-27.4-8.9-33.6-22.4C270.4,1285.3,250.5,1303.4,250.5,1303.4z"/>
		<path class="st5" d="M172.4,1303.5c0,0,1.8,28.7,7.4,29.1c0.7,0.1,28.2,0,28.2,0l35-0.3c0,0-0.2-8.4-10.5-10.2
			c-10.2-1.8-27.4-8.9-33.6-22.4C192.4,1285.5,172.4,1303.5,172.4,1303.5z"/>
		<path class="st6" d="M288.6,994.6c0,0-9,58.6-43,162.7c-34,104.1-38.5,149.2-38.5,149.2l-36.7-0.9c0,0-0.6-113.7,15.1-166.1
			s3-188.6,3-188.6L288.6,994.6z"/>
		<path class="st7" d="M306.4,953.8c0,0,1.5,88.3-13.6,196.8c-15,108.5-9.8,154.5-9.8,154.5l-36.6,1.3c0,0-22.1-108.4-16-162.7
			c6.2-54.3-30.4-186.2-30.4-186.2L306.4,953.8z"/>
		<path class="st3" d="M235.1,747.3l19.5,12.7l28.2-5.3c-0.4-2.3-2.3-11.7-4-20.2c-0.1-0.5-0.2-1-0.3-1.5
			c-1.5-7.3-2.7-13.5-2.7-13.5l-26.3-11.6l-9.8-4.3c0,0.2,0.8,8.1,0.9,9.2C242.3,733.3,235.1,747.3,235.1,747.3z"/>
		<path class="st4" d="M275.5,740.7c-0.5-0.2-34-10-37.6-8.8c-3.6,1.2-5.8,8.2-5.8,8.2l54.6,12.2
			C286.8,752.4,282.5,743.7,275.5,740.7z"/>
		<path class="st5" d="M186.1,965c5.7,25.8,99.9,28.7,124.1,5.2c2.8-2.7,2.9-15.1,1.8-31.9c-2.1-32.7-8.8-82-9.1-107.1
			c-0.2-12.2-1.8-24.6-4.1-35.9c-4.8-24-12-42.9-12-42.9s-46-14.8-54.6-12.2C190.7,752.4,180.4,939.2,186.1,965z"/>
		<path class="st4" d="M312,938.3c-2.1-32.7-8.8-82-9.1-107.1c-0.2-12.2-1.8-24.6-4.1-35.9l-27.7-4.8
			C271.2,790.5,244.4,901,312,938.3z"/>
		<path class="st3" d="M296.9,892.7c0,0-1.9,4.5,2.1,7.5c4,3,6.5,7.9,5.6,11.5c-0.9,3.6-9.6,9.5-12.6,8.5c-3-0.9-9.2-5.6-8.5-7.5
			c0.7-1.9-4.2-16.6,3.2-22.3C294.1,884.8,296.9,892.7,296.9,892.7z"/>
		<path class="st5" d="M265.7,745.8c0,0,27,5,48.6,36.6c21.6,31.6,35.8,55.2,31.8,66.6c-3.9,11.4-40,51.1-46.2,51.1
			c-6.2,0-16.3-4.5-16.9-14.7c0,0,23.8-39.6,18.8-45.3c-2.1-2.4-31.5-26-35.9-14.7C258.7,844.3,265.7,745.8,265.7,745.8z"/>
		<path class="st8" d="M242.4,713.2c5.8,9.8,27.4,18.2,36.3,21.3c-0.1-0.5-0.2-1-0.3-1.5c-1.5-7.3-2.7-13.5-2.7-13.5l-26.3-11.6
			C243.6,707.8,240,709.2,242.4,713.2z"/>
		<path class="st3" d="M285.7,717.8c0,0-42.4,13.3-50.3-13.2c-7.9-26.5-18.7-42.7,8.1-52.3c26.7-9.6,35-1.1,39.8,7.1
			C288,667.7,296.5,713.7,285.7,717.8z"/>
		<path class="st9" d="M281.6,657c0,0-2.6,30.9-9,29.6c-6.4-1.3-12.2-2.3-11.2,7c1,9.3,9.8,20-9.8,21.7c-19.7,1.7-48.1-49-42.7-58.6
			C224.3,628.9,304.1,623.1,281.6,657z"/>
	</g>
	<g>
		<path class="st3" d="M2497,850.6c0,0-3.6-6-5.8-9.3c-2.2-3.3-6.6-7.4-7.7-6.4c-1.1,1.1,3.4,5.4,3.2,6.9c-0.2,1.5-7.8-3.4-8.6-4.5
			c-1.6-2.2-6-4.6-6.5-1.8c-0.5,2.8,2.7,11.5,4.1,14c1.5,2.5,7.6,6.5,10.9,7.7c3.4,1.2,9.1,4,9.1,4L2497,850.6z"/>
		<path class="st10" d="M2650.2,654.7c-12.9-6.7-23.2-2.5-23.2-2.5c-39.4-4.6-51,41.4-50.4,57.2c0.5,15.8,2.3,32.8-15.3,53.4
			c-50.9,59.4,55.7,62,55.7,62c0.9-47.5,57.8-30.1,55.3-25.3C2745.2,817,2679.5,669.9,2650.2,654.7z"/>
		<path class="st5" d="M2598.4,856c0,0-3.8,7.5-10.6,16c-8.2,10.3-21,22.3-36.9,24.6c-7.6,1.1-15.1-0.5-21.9-3.6c0,0,0,0,0,0
			c-19.4-8.6-34-28.4-34-28.4c-3.4-9.3,2.2-15.6,2.2-15.6s39.1,8.8,42.9,6.9c3.7-1.9,25.5-64.5,30.6-72.4c5.2-7.9,22.8-12,22.8-12
			L2598.4,856z"/>
		<path class="st5" d="M2587.8,872c-8.2,10.3-21,22.3-36.9,24.6c-7.6,1.1-15.1-0.5-21.9-3.6c0.8,0.1,20.1,2.5,27.8-11.3
			c7.9-14.1,16.4-36.4,28.1-29C2589.9,856,2589.6,864,2587.8,872z"/>
		<path class="st5" d="M2744.4,1278.4c0,0,11.9,10.9,9.6,18.6c-2.3,7.7-13.1,12.9-14.6,22.4c-1.5,9.5-7.3,14.6-12.5,14.6s-25,0-25,0
			s-3.9-6.7,5.5-8.7c9.3-2,12.8-13.1,12.3-23.5c-0.6-10.3,0.9-24.1,0.9-24.1l19.8-4.6L2744.4,1278.4z"/>
		<path class="st5" d="M2643.3,1283c0,0,4.3,46.2-0.9,48.7l-67.1-0.1c0,0,0-7.7,10.8-9.5s29.7-8,32.9-22.1
			C2622.1,1286,2643.3,1283,2643.3,1283z"/>
		<path class="st3" d="M2691.1,951.8c-13.8-31-22.3-39.8-20.6-49.5c1.2-7.2-3.7-133.4-3.7-133.4c-1.6-0.5-4.9-1-6.7-1.4
			c-5.7-1.3-10.3-5.2-12.3-10.7c-2.3-6.6-4.2-16.3-4.2-28.5l-1.8,0.3l-29.7,5.9c0,0,0.7,9.4,0.7,18.2c0,0.1,0,0.1,0,0.2
			c0,7.7-5,14.4-12.3,16.5c-3.8,1.1-7,2-7,2s-10.9,31.2-13,63.2c-2.1,32,19.9,45.9-0.2,109.9
			C2559.8,1010.1,2698.7,968.9,2691.1,951.8z"/>
		<path class="st11" d="M2612.1,734.7c0,0,0.7,9.4,0.7,18.2c16.6-0.5,25.4-15.6,29-24.1L2612.1,734.7z"/>
		<path class="st3" d="M2606.6,743.1c0,0,39.4,0.6,39.4-23.9c0-24.5,5.1-41-20-42.4c-25.1-1.5-30,7.9-32,16.1
			C2591.9,701,2596.3,742.3,2606.6,743.1z"/>
		<path class="st10" d="M2608,676.2c0,0,10.8,28.8,27.3,33s23.7-0.2,23.7-0.2s-12.7-10.1-15.3-27.7
			C2643.7,681.3,2616.1,662.5,2608,676.2z"/>
		<path class="st10" d="M2610.7,678.5c0,0-8,3-11.3,8.8c-3.2,5.7-6,13.3-5.3,22.5c0,0-8.1-19.6,1-30.6
			C2604.8,667.5,2610.7,678.5,2610.7,678.5z"/>
		<path class="st1" d="M2615.1,727.8c0,0-2.7,3.6-8.2,3.3c-4.4-0.2-6.1-4-6.1-4S2608.9,725.2,2615.1,727.8z"/>
		<path class="st5" d="M2694.9,824.8c0,0,1,14.1,0,31c-0.7,11.2-12,26.2-13.6,29.9c-4,9.3-8.6,10.8-8.6,10.8l-35.2,8.6l-12.4,3
			l-39.1-11.7c0,0-17.8-49.7-10.6-77.6c7.1-28,18.1-47.4,18.1-47.4s31.9,31.2,73.4-2.6L2694.9,824.8z"/>
		<path class="st12" d="M2684.6,860.4c-0.7,11.2-1.7,21.7-3.3,25.4c-4,9.3-8.6,10.8-8.6,10.8l-35.2,8.6l-15.3-4.5
			c0,0,51.1-7.7,45.4-51.7L2684.6,860.4z"/>
		<path class="st6" d="M2588.5,904.2c0,0-19.3,60.2-20.6,80.7c-1.2,20.5,37,291.2,38.5,300.6c1.4,8.9,12.5,14.6,12.5,14.6
			s5.1,3,12.3,1c10.1-2.8,13.3-6.2,13.3-6.2s15.1-193.1,5.7-262c-9.3-69-9.4-128.6-9.4-128.6H2588.5z"/>
		<path class="st7" d="M2670.5,902.4c0,0,29.5,39.6,32.3,66.4c2.8,26.8,4.3,120.8,10.2,146.9c5.9,26.1,27.4,76.3,27.4,157.7
			c0,0-2.2,4.7-9.1,7.1c-2.2,0.8-5.2,1.6-8,2.2c-5.7,1.3-11.5-1.5-14.1-6.7c-14.6-29.3-60.9-123.8-63.3-143.5
			c-1.7-13.9-16.3-105.8-48.3-159.7c-7.7-12.9,4.7-64.4,4.7-64.4L2670.5,902.4z"/>
		<path class="st13" d="M2614.2,728.5c0,0-0.7,2.9-7.9,2.4c0,0-6-0.4-5.9-3.5C2600.5,727.4,2606.4,725.1,2614.2,728.5z"/>
		<path class="st14" d="M2585.4,894.9c0,0,7.8,6.1,23.2,6.5c18.4,0.4,64.1-4.7,64.1-4.7s2,5.7,1.9,11.7c0,0-55.8,14.1-88.1,2.1
			C2586.6,910.3,2582.4,902.5,2585.4,894.9z"/>
		<g>
			<path class="st13" d="M2604.2,917.2c-4.6,0-8.4-4.3-8.4-9.5c0-5.2,3.8-9.5,8.4-9.5c4.6,0,8.4,4.3,8.4,9.5
				C2612.6,912.9,2608.8,917.2,2604.2,917.2z M2604.2,900.9c-3.1,0-5.6,3-5.6,6.7c0,3.7,2.5,6.7,5.6,6.7s5.6-3,5.6-6.7
				C2609.8,904,2607.3,900.9,2604.2,900.9z"/>
		</g>
		
			<rect x="2632.2" y="839.7" transform="matrix(0.7542 -0.6567 0.6567 0.7542 70.9629 1972.6095)" class="st10" width="75.8" height="103.7"/>
		<path class="st3" d="M2659.8,905.9c0,0-22.2,3.4-22.1,8.4c0.1,5,4.6,14,9.1,14.7c5.7,0.9,17-13.8,17-13.8L2659.8,905.9z"/>
		<path class="st3" d="M2659.3,907.1c0,0-7.4-2.7-12.9-1.6c-5.5,1.1-10.5,0.3-9.3,2.3c1.2,2,8.6,1.2,9.8,2c1.2,0.8,1.2,0.3,1.2,0.3
			L2659.3,907.1z"/>
		<path class="st5" d="M2666.8,769c0,0,27.9,2,38.7,28c10.7,26,31,69.8,31,77.1c0,7.4-11.4,30-72.3,43.1c0,0-6.3-6.6-5.9-11.9
			c0,0,38.1-32.7,38-36.5c-0.2-7.2-6.2-16.8-39.7-50.2C2647.5,809.5,2666.8,769,2666.8,769z"/>
	</g>
	<g>
		<path class="st15" d="M885.1,1333.5c-14.7,0-29.4-1.3-43.8-3.9c-13.2-2.4-26.1-5.8-38.6-10.3c-19.5,1.8-39.1,1.9-58.6,0.1
			c-60-5.6-115.1-23.6-160.8-51.6c-10.9,2.4-22.1,3.2-33.6,2.6c-28-1.5-54.6-12-78.9-31.3c-23.1-18.4-43.1-43.8-59.3-75.4
			c-28.5-55.5-42.6-125.3-39.7-196.5c3.2-78.8,26.8-154.6,68.3-219.2c32.6-50.8,68.7-90.3,107.2-117.3
			c33.3-23.4,69.4-38.1,107.3-43.7c10.6-1.6,21-2.4,31.4-2.6c33-19.7,71-34.4,110.8-42.6c46.7-9.5,117.6-11.8,190.7,31.9
			c75.9,45.4,136.7,130,180.6,251.3c2.5,6.9,4.8,13.9,7,20.8c10.1,5.2,20.9,11.1,33.1,17.6l0.8,0.4c37.9,20.4,97.1,36.8,158.3,43.8
			c51,5.8,126.8,7.8,198.1-15.5c66.6-21.8,113.7-60.7,139.9-115.6l5.7,2.7c-27,56.6-75.3,96.6-143.6,118.9
			c-72.4,23.6-149.1,21.6-200.8,15.7c-62-7-122-23.7-160.6-44.5l-0.8-0.4c-10-5.4-19.1-10.3-27.5-14.7
			c17.6,60.9,21.1,120.4,10.1,177.3c-11,57.5-36.6,109.7-74,151.1c-10.9,12-22.6,22.9-34.8,32.5c-0.9,1.9-1.7,3.7-2.6,5.6
			c4.4,8.3,7,16.3,6.5,23.3c-0.8,11.4-13.7,21.4-38.4,29.7c-2,0.7-4.1,1.4-6.3,2c-20.2,20.4-44.5,35.4-73,44.8
			C939.1,1329.2,912,1333.5,885.1,1333.5z M817.8,1317.6c8.1,2.4,16.3,4.3,24.6,5.8c39.9,7.2,81.6,4.1,120.6-8.8
			c23.5-7.8,44.3-19.6,62-35.2c-33.4,8.3-78.4,13.8-126.9,15.7c-1.9,0.8-3.8,1.6-5.7,2.4C868.3,1307.2,843.3,1314,817.8,1317.6z
			 M592,1265.7c43.8,25.7,96.1,42.2,152.7,47.4c14.7,1.4,29.5,1.7,44.3,0.9c-16.2-6.9-31.4-15.5-45.5-25.7
			c-22.9-3.2-43.9-7.3-62.4-12.2c-24.2-6.5-44.1-14.3-59.5-23.4C612.1,1258.4,602.2,1262.7,592,1265.7z M757.3,1290.1
			c14.4,9.3,29.9,17,46.2,22.9c25.9-2.6,51.5-8.4,76-17.3c-23.7,0.5-47.9,0.1-71.9-1.3C790.2,1293.4,773.3,1292,757.3,1290.1z
			 M745.9,1282.3c19.3,2.6,40,4.5,62,5.8c29.6,1.6,59.7,1.9,88.6,0.8c17.7-7.7,34.3-16.9,49.8-27.5c-8.5-0.6-16.8-1.8-24.9-3.9
			c-19-4.8-34.7-16.1-47.4-34.8c-19.8,0.6-40.1-0.6-60.8-3.4c-49.3-6.9-89.7-21.9-120.7-44.7c-5.1,9-10.2,17-15.2,24.1
			c13.9,29.7,33.7,55.2,59,76.1C739.4,1277.3,742.7,1279.9,745.9,1282.3z M956.9,1261.7c-13.5,9.9-28.1,18.7-43.6,26.4
			c47.7-2.6,90.9-8.8,121.3-17.8c6-6.2,11.6-12.8,16.7-19.9c6-8.3,11.5-17.3,16.5-27c-15.1,10.5-31,19.1-47.3,25.5
			C999.1,1257.3,977.6,1261.6,956.9,1261.7z M627.7,1248.8c24.7,13.8,60.7,24.6,105.5,31.6c-0.3-0.3-0.6-0.5-0.9-0.8
			c-25.1-20.7-45-46-59.2-75.1c-6.7,9-13.2,16.4-19,22.3C645.6,1235.4,636.8,1242.7,627.7,1248.8z M1072.6,1227.9
			c-7.5,14.2-16,26.9-25.7,38.3c18.6-6.9,29-14.8,29.5-22.5C1076.6,1239.3,1075.4,1234,1072.6,1227.9z M675.1,591.3
			c-6.9,0.5-13.5,1.3-19.7,2.2c-36.9,5.5-72.1,19.8-104.6,42.6c-37.8,26.5-73.3,65.4-105.5,115.5c-40.8,63.6-64.1,138.3-67.3,216
			c-2.8,70.1,11,138.7,39,193.3c15.8,30.9,35.2,55.5,57.6,73.4c23.2,18.5,48.6,28.6,75.2,30c8.7,0.4,17.1,0,25.4-1.3
			c-28.8-18.8-53.5-41.7-73-68.1c-9.9-13.4-18.3-27.4-25.2-42.1c-21.6-11.6-39.3-28.4-52.9-50.3c-18.9-30.3-28.8-68.9-28.8-111.7
			c0-18,1.9-36.3,5.4-54c-2-51.6,19.3-111.4,60.1-168.6c39.1-54.9,90.1-98.9,140.1-120.8c5.6-2.4,11.1-4.6,16.5-6.4
			c7.1-8.2,14.9-16,23.2-23.4C651.3,608.1,662.8,599.3,675.1,591.3z M486.6,1157.4c6,11.7,13,22.9,21,33.7
			c20.3,27.4,46.4,51,76.9,70.1c10.7-2.6,21.1-6.7,31.1-12.3c-7.3-4.9-13.4-10.1-18.2-15.6c-17.2-19.7-32.4-40.4-44.9-61.1
			c-10.5-0.6-20.9-1.8-31.4-3.9C508.7,1165.8,497.2,1162.2,486.6,1157.4z M881.6,1222.4c11.4,15.4,25.1,24.9,41.4,29
			c10.2,2.6,20.9,3.9,31.8,4c18.3-13.6,34.6-29.2,48.5-46.4c7.3-9.1,13.9-18.5,19.7-28.3C981.1,1205.6,933,1219.7,881.6,1222.4z
			 M1032.8,1176.3c-6.9,12.7-15.1,25-24.6,36.7c-12.4,15.4-26.7,29.5-42.6,42.1c17.2-1.1,34.9-5.1,52.6-12.1
			c16.6-6.5,32.8-15.4,48.1-26.4c-6-9.5-14.6-20.3-25.7-32.1C1038.2,1181.8,1035.6,1179,1032.8,1176.3z M560,1172.4
			c11.8,19,25.9,38,42.1,56.6c5,5.7,11.5,11.1,19.5,16.2c9.7-6.1,19-13.7,27.9-22.8c6.3-6.4,13.2-14.4,20.5-24.4
			c-1.9-4.3-3.7-8.7-5.4-13.1c-1.8-4.6-3.4-9.3-4.8-14.1c-2.3-0.5-4.6-1.1-6.8-1.7c-5.7-1.6-11.2-3.6-16.5-6.1
			C611.7,1169.3,586,1173,560,1172.4z M701,1172.8c29.5,20.3,67.4,33.8,113.1,40.2c18.9,2.6,37.6,3.8,55.9,3.5
			c-8.2-13.6-15.1-30.5-20.9-51c-0.7-2.6-1.5-5.2-2.2-7.9c-8.4-1.2-16.9-2.6-25.3-4.4c-10.9-2.3-21.3-5.2-31.1-8.6
			c-19.6,9.5-39.6,17.6-59.4,22.8C720.5,1170,710.6,1171.8,701,1172.8z M853.7,1158.3c0.5,1.8,1,3.6,1.5,5.3
			c6.2,21.6,13.5,39,22.2,52.5c54.9-2.2,106-17.7,149.8-45.5c-8.6-8.4-18-16.9-28.1-25.4c-9.2,2.8-18.5,5.2-27.8,7.3
			C932.5,1161.1,893.1,1163,853.7,1158.3z M1037.2,1171.7c2.8,2.8,5.5,5.7,8.1,8.5c9,9.6,18.8,21.2,26.2,32.7
			c0.7-0.5,1.4-1.1,2.1-1.6c8.6-19.3,15.3-41,20.2-65c2-9.8,3.6-20,4.9-30.6c-9.6,11.7-20.3,22.8-31.8,33
			C1057.5,1157,1047.6,1164.7,1037.2,1171.7z M1106.3,1106.1c-1.5,14.5-3.6,28.3-6.2,41.3c-4,20-9.3,38.5-16,55.3
			c8.6-7.4,17-15.5,24.8-24.2c36-39.9,60.9-90.1,72-145.4c-10.3,10.6-30.7,30.3-59.6,51C1116.6,1091.7,1111.6,1099,1106.3,1106.1z
			 M666.8,1172.1c1.2,3.5,2.4,7.1,3.7,10.5c1.2,3.1,2.4,6.2,3.8,9.3c3.8-5.6,7.7-11.7,11.6-18.4C679.3,1173.5,673,1173,666.8,1172.1
			z M664.7,1165.3c5.9,1.1,12,1.7,18.3,1.8c-5.2-4.4-10-8.9-14.6-13.8c-2.1,0.7-4.2,1.5-6.4,2.2
			C662.9,1158.8,663.8,1162,664.7,1165.3z M711.9,1135.3c-4.9,11.5-9.9,22-15,31.4c10.3-0.8,21.2-2.6,32.5-5.6
			c17.5-4.6,35.3-11.5,52.8-19.7c-14.8-5.8-28.2-13.1-40.2-21.6C732.5,1125.1,722.4,1130.3,711.9,1135.3z M556,1165.9
			c24.3,1,48.5-1.9,71.9-7.3c-15.9-9.1-30.1-22.4-42.4-39.7c-6.7-9.4-12.7-19.3-17.9-29.5c-14.3-2.6-28.7-6.2-43.3-10.8
			c-1-0.3-2-0.6-3.1-1C525.8,1104.8,537.8,1135.1,556,1165.9z M1006.3,1143c8.9,7.6,17.2,15.2,24.9,22.7c6.1-12.3,11.1-25,14.8-38.1
			C1032.9,1133.5,1019.6,1138.6,1006.3,1143z M482.1,1148.1c12.2,6.3,25.6,10.9,40.2,13.8c8.7,1.7,17.5,2.9,26.2,3.5
			c-6.3-11-11.9-21.9-16.7-32.7c-8.9-20.2-14.7-39.6-17.4-57.6c-18.6-6.6-38-15.9-55.4-28.7C459.8,1082.7,467.5,1116.8,482.1,1148.1
			z M675,1150.9c4.9,5,10.1,9.7,15.6,14.1c4.2-7.8,8.5-16.4,12.6-25.7C694.1,1143.4,684.7,1147.3,675,1150.9z M646.4,1160.3
			c3.7,1.4,7.4,2.5,11.3,3.5c-0.6-2.1-1.1-4.2-1.7-6.4C652.9,1158.4,649.7,1159.4,646.4,1160.3z M1053.5,1124.1
			c-3.4,13-7.9,25.6-13.6,37.9c7.9-5.6,15.5-11.7,22.8-18.2c13.8-12.2,26.3-25.7,37.3-40.2c0.2-1.9,0.4-3.8,0.5-5.7
			c-4.4,2.8-8.9,5.5-13.5,8.3C1076.1,1112.8,1064.9,1118.8,1053.5,1124.1z M575.4,1090.7c4.5,8.5,9.6,16.7,15.2,24.5
			c13.4,18.9,28.8,32.6,46.4,41.1c5.9-1.5,11.7-3.2,17.5-5.1c-1.5-6.5-2.7-13.1-3.6-19.8c-0.4-0.5-0.7-1.1-1.1-1.6
			c-7.1-10.9-13.1-22.7-18-35.4C613.4,1094.9,594.5,1093.7,575.4,1090.7z M852,1151.7c39.5,5,79.1,3.2,118-5.4
			c7.8-1.7,15.6-3.7,23.3-6c-26.6-22.1-57.2-44-88.6-63.4c-6.9,4.3-14.2,8.9-21.8,13.8c-12.1,7.7-25.1,15.9-38.6,24.1
			C846.5,1127.7,849.1,1140.1,852,1151.7z M798.5,1140.4c7.8,2.5,15.9,4.6,24.4,6.4c7.4,1.6,14.9,2.9,22.3,4
			c-2.5-10.3-4.8-21.2-6.8-32.5C825.5,1126,812.1,1133.5,798.5,1140.4z M659.3,1142.8c0.4,2.2,0.9,4.4,1.3,6.5
			c1.1-0.4,2.1-0.7,3.2-1.1C662.3,1146.4,660.8,1144.6,659.3,1142.8z M657.1,1129.1c4,5.9,8.5,11.5,13.2,16.8
			c12.7-4.6,25-9.8,36.7-15.3c4-9.6,7.9-19.9,11.6-31c-1.3-1.4-2.6-2.8-3.9-4.2c-3.7-4.1-7.1-8.4-10.3-12.9c-3,0.9-5.9,1.8-8.9,2.6
			c-13.4,3.6-27.1,6.2-40.9,7.7C654.6,1105.2,655.4,1117.3,657.1,1129.1z M403.6,960.6c-1.2,10-1.8,20.2-1.8,30.2
			c-0.1,41.7,9.6,79.1,27.8,108.4c11.4,18.3,25.8,32.9,43.1,43.7c-13.3-31.4-20-65.4-20.2-101.3
			C429.3,1022.5,410.5,996.4,403.6,960.6z M910.8,1073.3c32,19.9,63,42.3,89.8,64.9c16-5,31.9-11.2,47.5-18.5
			c5.8-23.5,7.8-47.9,5.9-72.9c-9.7,7.9-19.9,14.3-30.5,18.8c-28.4,12.2-54.3,12.7-76.8,1.3c-4.2-2.1-8.2-4.6-12-7.4
			C927.3,1063.4,919.3,1068,910.8,1073.3z M748.1,1116.3c12.5,8.5,26.5,15.6,42,21.3c16.1-8,32-16.9,47.2-26
			c-2.8-16.4-5.2-33.7-7.3-51.6c-11.6,9.4-23.5,18.4-35.6,26.9C781.5,1095.9,765.9,1106.1,748.1,1116.3z M723.6,1104.6
			c-2.6,7.7-5.4,15-8.1,21.9c7.2-3.6,14.2-7.2,20.9-10.9C731.9,1112.1,727.7,1108.5,723.6,1104.6z M638.6,1094.1
			c3.1,7.9,6.7,15.4,10.7,22.5c-0.7-7.6-1-15.3-1.1-23.2C645,1093.7,641.8,1093.9,638.6,1094.1z M1059.9,1041.7
			c2.4,25.5,0.9,50.5-4.4,74.5c9.6-4.7,19.1-9.8,28.4-15.3c6-3.6,11.8-7.2,17.4-10.8c2.4-31.3,2.3-65.6-0.3-102.8
			C1089.5,1009,1075.5,1027.5,1059.9,1041.7z M725.9,1097.9c5.2,5.1,10.7,9.9,16.6,14.3c18.6-10.5,34.9-21.2,48.2-30.5
			c13.5-9.4,26.3-19.2,38.4-29.1c-0.6-5.5-1.3-11.1-1.9-16.7c-7.1-3.1-13.9-5.9-20.6-8.4c-23.1,18.5-47.4,33.3-72.8,44.3
			C731.2,1080.9,728.6,1089.6,725.9,1097.9z M835.8,1055.3c2.2,18.3,4.6,36,7.3,52.8c12.7-7.7,24.9-15.4,36.4-22.7
			c6.6-4.2,13-8.3,19.2-12.1c-1.7-1-3.4-2-5.1-3c-15.8-9.4-31.2-17.7-46-25C843.6,1048.6,839.7,1052,835.8,1055.3z M1107.4,1093.7
			C1107.4,1093.7,1107.4,1093.7,1107.4,1093.7C1107.4,1093.7,1107.4,1093.7,1107.4,1093.7
			C1107.4,1093.7,1107.4,1093.7,1107.4,1093.7z M710.8,1080.5c2.7,3.7,5.6,7.3,8.7,10.7c0.5,0.5,0.9,1,1.4,1.5
			c1.9-5.8,3.7-11.7,5.4-17.9C721.2,1076.9,716,1078.8,710.8,1080.5z M571.8,1083.6c19.6,3.4,38.8,4.9,57.7,4.4
			c-11.5-33.3-15.7-72.7-12.6-117.9c-3.2-2.9-6.2-5.9-9.1-9c-1.8-1.9-3.5-3.9-5.2-6c-14.4,6.7-27.1,13.1-37.5,18.9
			c-6.4,3.6-12.1,7.6-17.1,12c0,0.7,0,1.4,0.1,2.1C549.2,1021.8,557.4,1054.2,571.8,1083.6z M623,975.3
			c-2.5,43.2,1.9,80.8,13.2,112.5c4-0.2,8-0.5,12-0.8c0.2-12.1,1.1-24.5,2.7-37.1c0.1-2.4,1.2-23.4,9.7-52.1
			C646.8,992.1,634.2,984.6,623,975.3z M666.6,1000.2c-8.4,28.8-9.3,49.8-9.3,50.1l0,0.3c-1.6,12.2-2.5,24.1-2.7,35.8
			c13.3-1.5,26.4-4,39.2-7.4c2.3-0.6,4.5-1.3,6.8-1.9c-14.1-21.5-23.2-46.8-26.5-74.2C671.5,1002,669.1,1001.1,666.6,1000.2z
			 M1106.6,976.2c3.1,39.7,3.6,76.2,1.4,109.5c2.9-2,5.8-4,8.6-5.9c28.3-46.3,43.3-100.6,42.4-156.9c-0.4-25.6-8-42.8-23.1-52.7
			c-1.6-1.1-3.3-2-5.1-2.9C1131.1,903.3,1122.5,942.1,1106.6,976.2z M520.2,1070.5c2,0.7,4,1.3,6,2c12.7,4,25.4,7.3,37.9,9.7
			c-13.1-28-20.7-58.6-22.3-90.3c-11.2,11.9-18.3,26.4-21.2,43.3C518.7,1046.1,518.6,1057.9,520.2,1070.5z M680.7,1004.8
			c3.6,26.1,12.5,50,26.2,70.3c7.2-2.3,14.4-5,21.5-8c5.2-19.1,9.2-37.9,12.1-55.3c-2.3-0.1-4.6-0.2-6.9-0.2
			C714.9,1011.6,697.2,1009.3,680.7,1004.8z M1130.6,860.2c3.1,1.3,6.1,2.9,8.8,4.7c16.8,10.9,25.5,30.4,26,57.9
			c0.9,52.4-11.8,103.1-36,147.5c31.4-24,50.3-44.8,53.7-48.7c9-55,4.6-112.4-13.3-171.2c-15.6-8-29.1-14.3-42.5-19.1
			c1.6,8.5,2.7,17.3,3.2,26.4C1130.5,858.5,1130.5,859.3,1130.6,860.2z M852.7,1040.7c14.2,7,29,15.1,44.1,24
			c2.6,1.6,5.3,3.1,7.9,4.7c8.7-5.4,16.9-10.2,24.4-14.2c-14.1-11.8-26.1-28.3-36.6-47.9c-2.3,0.6-4.5,1.2-6.8,1.7
			C875.5,1019.7,864.4,1030.3,852.7,1040.7z M941.1,1056.4c2.8,1.8,5.6,3.5,8.4,4.9c21.1,10.6,44.4,10.1,71.4-1.5
			c11.3-4.8,22.1-11.8,32.3-20.7c-1.8-17.1-5.5-34.5-11-51.9c-2.2-7-4.8-13.6-7.7-19.9c-29.1,44.2-61,76.2-85.4,85.7
			C946.5,1053.9,943.9,1055,941.1,1056.4z M458.9,1038.6c15.1,11.8,33.3,21.7,54.6,29.6c-1.2-12.1-1-23.5,0.9-33.9
			c3.5-20.4,12.6-37.4,27.2-51c-0.6-38.1,7.1-76.3,22.5-111.1c-4-19-6.1-39.6-6.1-61.6c-6.7-0.3-13.3-0.4-19.8-0.3
			c-35.4,50.9-60.4,108.3-72.4,166C461.3,997.5,459,1018.3,458.9,1038.6z M746.9,1012.3c-2.8,16.4-6.4,33.8-11.1,51.6
			c22.1-10,43.3-23,63.6-38.9C780.2,1018.2,762.5,1013.9,746.9,1012.3z M898.8,1005.5c11.2,20.7,23.2,36.1,36.4,46.6
			c4.1-2,7.9-3.8,11.5-5.1c23-8.9,54.7-41,82.8-83.8c0.5-0.8,1.1-1.7,1.6-2.5c-8.6-16.1-19.7-29.7-33.5-40.8
			c-8,17.5-20.5,34.4-36.6,49.1C942.6,985.8,920.8,998.4,898.8,1005.5z M833.9,1038.8c0.3,3,0.7,5.9,1,8.9c2.2-1.8,4.3-3.6,6.4-5.5
			C838.8,1041.1,836.3,1040,833.9,1038.8z M833.1,1031.5c4.4,2,8.9,4,13.4,6.2c10.2-9,19.7-18,28.5-26.8c-8.4,1.1-16.6,1.3-24.5,0.6
			c-6.5-0.6-12.5-3.1-18.1-7c-0.7,0.7-1.3,1.3-2,1.9C831.3,1014.9,832.2,1023.3,833.1,1031.5z M1038.5,961c3.8,7.6,7,15.7,9.8,24.2
			c5.2,16.3,8.7,32.5,10.8,48.5c14.9-14.4,28.2-32.8,39-54.5c0.7-1.4,1.4-2.9,2.1-4.3c-2-25.2-5.2-51.6-9.4-79.3
			c-1.5-10-3.5-19.9-6-29.6C1073.7,898,1058,930.4,1038.5,961z M407.3,937.3c0,0.6,0.1,1.2,0.1,1.9c1.6,30.2,11.6,56.6,29.7,78.4
			c4.6,5.6,9.8,10.9,15.5,15.9c0.4-19,2.7-38.6,6.9-58.5c11.9-57.1,36.3-113.8,70.7-164.4c-11.9,0.6-23.5,2-34.7,4.2
			c-25.6,5-49.4,26.5-67,60.6C419.1,893.6,411.9,914.9,407.3,937.3z M812.2,1022.9c4.7,1.8,9.4,3.7,14.2,5.8
			c-0.6-5.5-1.2-11.1-1.8-16.7C820.5,1015.7,816.4,1019.4,812.2,1022.9z M748,1006c16.9,1.8,36.2,6.6,57.3,14.3
			c5.9-4.9,11.8-10,17.5-15.4c0.3-0.3,0.7-0.6,1-0.9c-0.3-2.7-0.5-5.3-0.8-8c-8.5-9.3-16-22.1-23.1-36.9
			c-16.3,4.7-29.5,6.6-38.4,4.4c-2.6-0.6-5.5-1.4-8.5-2.3C752.2,974.5,750.5,989.7,748,1006z M837,1000c4.4,2.9,9.1,4.8,14.1,5.2
			c10,0.9,20.6,0.2,31.4-2c1.8-1.8,3.5-3.7,5.2-5.5c-5.7-11.7-10.8-24.3-15.7-37.6C860.9,974.4,849.2,987.8,837,1000z M679.9,997.9
			c16.6,4.8,34.6,7.3,53.8,7.3c2.6,0,5.2,0.1,7.9,0.3c2.7-17,4.4-32.6,5.2-46.2c-14.8-4.9-32.9-12.7-51.2-23.5
			c-2.7,4.3-5.4,8.7-7.9,13.2c-3.2,5.7-6,11.4-8.5,17C678.6,976.8,678.9,987.5,679.9,997.9z M895.3,998.8c0.2,0.3,0.3,0.7,0.5,1
			c21.4-6.7,42.8-19,61-35.6c15.9-14.5,28.1-31.1,35.7-48.3c-9.4-6.9-20-12.6-31.6-17.2c-1.4-0.5-2.8-1.1-4.2-1.6
			c-3.3,1.3-6.7,2.7-10,4c-1.2,10.7-3,20.3-5,28.3C937.4,945.8,920.6,971.1,895.3,998.8z M829.1,993.3c1,1,1.9,1.9,2.9,2.8
			c13.1-13.1,25.7-27.6,37.5-43.1c-2-5.7-3.9-11.5-5.7-17.4c-13.9,5.7-27,10.9-39.1,15.3c1.5,13.5,2.8,27,4.2,40.4
			C828.9,992,829,992.7,829.1,993.3z M668.5,994.1c1.6,0.6,3.3,1.2,4.9,1.7c-0.4-4.6-0.6-9.1-0.8-13.8
			C671.1,986.2,669.7,990.2,668.5,994.1z M876.6,954.1c2.5,7,5.1,13.9,7.8,20.5c2.6,6.3,5.2,12.3,7.9,18
			c23.9-26.6,39.4-50,43.2-64.9c1.8-6.9,3.3-15,4.5-24c-13.7,5.6-27.3,11.3-40.4,16.8C892.4,932.2,884.7,943.4,876.6,954.1z
			 M623.5,967.5c11.5,10,24.6,18.1,39,24.2c2.8-8.6,6.2-17.8,10.5-27.3c0.8-13.1,2.7-26.4,5.7-39.5c-0.2-0.1-0.4-0.3-0.6-0.4
			c-18.4,6.6-36.1,13.5-52.3,20.4C624.8,952.6,624,960.1,623.5,967.5z M806,957.3c5,10.4,10.2,19.8,15.8,27.3
			c-1.1-10.5-2.2-21-3.3-31.5C814.2,954.7,810,956,806,957.3z M566.5,882.6c-12,30-18.5,63-18.7,95.3c4.3-3.4,9-6.5,14.1-9.3
			c10.1-5.7,22.5-11.9,36.5-18.5C584,931.1,573.3,908.5,566.5,882.6z M1089.8,860.6c3,11.1,5.4,22.5,7.2,34.1
			c3.6,23.6,6.4,46.4,8.4,68.2c12.9-31.4,19.6-66.2,18.9-98.3C1114.5,861.2,1102.8,860.1,1089.8,860.6z M608.6,952.4
			c1.3,1.5,2.6,3,3.9,4.4c1.7,1.8,3.3,3.5,5.1,5.2c0.4-4.7,0.9-9.4,1.5-14.3C615.5,949.3,612,950.9,608.6,952.4z M753.4,954.7
			c3.5,1.1,6.7,2,9.7,2.7c7.6,1.8,19.4,0.1,34.1-4.1c-6.7-14.7-13.1-31-19.6-47.6c-1.2-3-2.4-6-3.5-9c-9.3,2-18.3,4.2-26.8,6.4
			c3.4,8.3,5.5,16.7,6.1,25.3C753.8,935.6,753.8,944.5,753.4,954.7z M1000.3,913.8c14.1,11.1,25.7,24.7,34.8,40.7
			c18.8-30.1,34-61.9,44.5-93.1c-21.5,2.3-46,8.6-71.5,16.9C1007.6,890.1,1005,902.1,1000.3,913.8z M699.1,930.5
			c17.1,10.1,34,17.4,48.1,22.2c0.4-9.2,0.3-17.3-0.2-23.9c-0.6-8.2-2.6-16.2-5.9-24.1c-9.7,2.6-19.3,5.4-28.9,8.4
			C707.5,918.6,703.2,924.4,699.1,930.5z M780.3,895.3c1.1,2.7,2.1,5.4,3.2,8.1c6.6,16.9,13,33.4,19.8,48.1c4.6-1.4,9.5-3,14.5-4.8
			c-2.1-19-4.3-38.1-7-56.9C800.4,891.4,790.2,893.2,780.3,895.3z M684.3,928.7c-1.4,6.5-2.6,13.1-3.5,19.6c0.4-0.8,0.9-1.6,1.3-2.4
			c2.5-4.6,5.2-9.1,8-13.5C688.2,931.3,686.3,930,684.3,928.7z M570.7,872.8c6.4,29,17.8,54.1,33.7,74.5c5-2.3,10.2-4.6,15.5-6.9
			c2.5-19.3,6.2-39.5,11.1-60.6c-6.2-8.2-11.7-17.1-16.3-26.6c-5.2-10.7-8.9-21.7-11.2-33c-11.6,13.4-22.2,29.7-31,48.2
			C572,869.9,571.3,871.3,570.7,872.8z M869.6,933.2c1.5,4.6,2.9,9.2,4.5,13.7c5.2-7.1,10.3-14.4,15.2-21.9
			C882.6,927.8,876.1,930.5,869.6,933.2z M817.1,888.9c2.6,18.4,4.8,37,6.8,55.6c11.8-4.3,24.6-9.4,37.9-14.9
			c-4.4-14.3-8.4-29.1-12.3-44.1C838.7,886.2,827.8,887.4,817.1,888.9z M636.1,886.3c-4,17.8-7.1,34.9-9.4,51.3
			c14.2-6,29.3-11.9,45.1-17.6C659,910.4,646.8,899.2,636.1,886.3z M685.9,922.2c2.6,1.7,5.2,3.4,7.8,5c2.5-3.6,5-7.2,7.7-10.6
			c-5.1,1.7-10.2,3.4-15.3,5.1C685.9,921.9,685.9,922,685.9,922.2z M856,885c3.6,14,7.5,28.2,11.8,42.1c8.4-3.5,17-7.1,25.6-10.7
			c0.7-0.3,1.3-0.6,2-0.8c5.8-9.4,11.4-19,16.7-28.9C893.8,884.4,874.9,884,856,885z M637.9,878.4c11.9,15.3,26.2,28.2,41.1,39
			c0.6-0.2,1.1-0.4,1.7-0.6c4.5-16.8,10.8-33.3,18.8-49.1c1.4-2.7,2.8-5.4,4.3-8c0,0,0,0,0,0c-14.7-11.2-32.5-21.1-52.4-29
			c-2.2,6.1-4.2,12.3-6,18.8C642.7,859.3,640.2,869,637.9,878.4z M708.8,863.7c-1.2,2.3-2.5,4.6-3.6,6.9
			c-7.2,14.1-12.9,28.8-17.2,43.7c6.8-2.3,13.6-4.6,20.5-6.7c6.6-7.8,13.8-15.1,21.4-21.9C724.2,878,717.2,870.7,708.8,863.7z
			 M918.8,887.6c-4.3,8.1-8.7,16-13.4,23.7c11.6-4.9,23.5-9.8,35.5-14.7c0.1-1.4,0.3-2.9,0.4-4.4
			C933.9,890.3,926.4,888.8,918.8,887.6z M965.5,893.7c10.8,4.4,20.6,9.8,29.5,16.2c3.7-9.7,5.9-19.6,6.6-29.3
			C989.7,884.6,977.6,889,965.5,893.7z M609.5,650.7c-1.9,0.8-3.9,1.6-5.9,2.5c-48.2,21.1-99.6,65.5-137.4,118.7
			c-32.3,45.4-52.2,92.3-57.5,135.1c3.9-12.3,8.7-23.9,14.2-34.6c18.5-35.8,43.9-58.6,71.5-63.9c13-2.5,26.6-4,40.4-4.4
			c8.1-11.5,16.6-22.5,25.4-32.9c3.5-29.7,12-57.6,25.3-83.1C592.2,674.9,600.3,662.5,609.5,650.7z M733.6,890.9
			c-4.6,4.2-9.1,8.5-13.4,13.1c6-1.8,12-3.5,18.1-5.1C736.9,896.2,735.3,893.5,733.6,890.9z M738.4,886.7c2.3,3.4,4.3,6.9,6.1,10.5
			c9.2-2.4,18.2-4.6,27.1-6.6c-2.9-7.3-5.8-14.6-8.8-21.7c-3.1,1.9-6.1,3.9-9,6C748.5,878.6,743.4,882.5,738.4,886.7z M947.9,887.5
			c3,0.9,5.9,1.8,8.7,2.8c15.2-6,30.4-11.6,45.2-16.6c-0.1-18.1-5.2-36-14.3-52c-12.4,0.9-25.8,2.1-40.6,3.4
			c-0.4,1.2-0.9,2.4-1.3,3.5C948.6,849.5,949,869.7,947.9,887.5z M768.4,865.6c3.3,7.8,6.5,15.7,9.6,23.7c10.9-2.3,21.6-4.2,32-5.8
			c-1.7-11.8-3.5-23.4-5.6-34.9C791.6,853.3,779.6,859,768.4,865.6z M921.9,881.6c6.8,1.1,13.4,2.5,19.8,4.2
			c0.8-13.8,0.6-29-0.9-44.9C935,854.8,928.7,868.4,921.9,881.6z M810.4,846.3c2.1,11.9,4.1,24,5.8,36.2c10.9-1.5,21.4-2.7,31.7-3.4
			c-3-12-5.9-24-8.8-36.1c-0.4-1.5-0.7-3.1-1-4.6C828.6,840.6,819.3,843.2,810.4,846.3z M712,858.1c9,7.4,16.6,15.2,22.8,23.4
			c5-4.2,10.1-8.1,15.5-11.8c3.3-2.3,6.7-4.5,10.1-6.6c-6.6-15.1-13.5-29.4-21.3-41.9C729.1,832,720,844.5,712,858.1z M875.4,878.1
			c14,0,27.3,0.9,39.9,2.6c8.9-17,16.9-34.7,23.9-52.8c-0.1-0.7-0.2-1.3-0.3-2c-17.9,1.7-37.6,3.6-59.6,5.8
			c-12.1,1.2-23.7,3-34.9,5.4c0.3,1.5,0.6,3.1,1,4.6c2.8,12,5.8,24.5,9,37.2c0.9-0.1,1.9-0.1,2.8-0.1
			C863.4,878.2,869.4,878.1,875.4,878.1z M609.7,817.8c2.2,11.2,5.8,22.1,10.9,32.7c3.6,7.5,7.8,14.6,12.5,21.2
			c1.9-7.9,4-15.8,6.2-23.9c1.8-6.7,3.9-13.1,6.2-19.4C634,824.2,622,820.6,609.7,817.8z M994.6,821.1c8.4,15.7,13.2,32.9,13.6,50.5
			c7.8-2.5,15.4-4.8,22.9-6.9c18.9-5.2,35.7-8.5,50.5-9.9c-3.6-12-8-23.8-13.2-35.2C1048.5,818.4,1025,819,994.6,821.1z
			 M564.3,810.9c0,18.2,1.4,35.3,4.3,51.4c8.8-17.8,19.2-33.6,30.7-46.7C587.6,813.4,575.9,811.8,564.3,810.9z M743.6,816.3
			c8.2,12.9,15.5,27.8,22.3,43.4c11.7-6.8,24.2-12.6,37.4-17.5c-2.1-11.4-4.5-22.7-7-33.7c-2.1-9-4.3-17.6-6.7-25.9
			C773,790.6,757.5,802,743.6,816.3z M1096,854.1c10.6,0,20,1.2,28.1,3.7c-0.6-10-1.8-19.7-3.8-29c-7.7-2.5-15.4-4.4-23.5-5.9
			c-2.2,10.3-4.9,20.8-8.2,31.4C1091.1,854.2,1093.6,854.1,1096,854.1z M653.7,824.7c19.7,7.8,37.9,17.7,53.3,29.4
			c8.4-14.3,18-27.2,28.5-38.6c-16.9-25.1-35.2-37.3-55.9-37.4C669.2,791.9,660.5,807.4,653.7,824.7z M1075.5,820.1
			c3.5,8,6.6,16.1,9.4,24.3c2.2-7.6,4-15.1,5.6-22.5C1085.7,821.2,1080.7,820.6,1075.5,820.1z M1125.7,824
			c13.3,4.5,26.5,10.4,41.4,17.9c-1.6-4.8-3.2-9.7-5-14.5c-43.4-119.9-103.2-203.3-177.9-248c-71.3-42.6-140.6-40.5-186.1-31.2
			c-35.4,7.2-69.3,19.7-99.4,36.4c25.5,0.7,50.2,4.9,74.1,11.1c30.9-8.5,62.7-11.7,91.9-8.8c40.3,4,71.4,18.9,90,42.1
			c35.2-8.3,71.3,2.6,104.1,32.2c29.4,26.6,44.3,64.4,44,110.8c0.9,1.3,1.9,2.7,2.8,4C1114.6,789.8,1121.4,806.1,1125.7,824z
			 M795.3,779.8c2.5,8.7,4.9,17.7,7.1,27.2c2.5,10.8,4.8,21.8,6.9,33c8.9-3.1,18.2-5.7,27.7-7.9c-3.4-21.4-2.6-44.3,2.5-67.1
			C825.1,768.2,810.3,773.1,795.3,779.8z M846.3,763.6c-5.4,22.9-6.4,45.8-3.1,67.2c11.4-2.4,23.2-4.2,35.4-5.4
			c21.8-2.2,41.4-4.1,59.2-5.7c-1.8-10-4.1-20.1-7.2-30.2c-2.1-6.9-4.6-14-7.7-21.4C899.8,759.9,873.9,758.4,846.3,763.6z
			 M611.6,811.7c12.4,2.9,24.5,6.5,36.1,10.8c6.4-16,14.2-30.6,23.5-43.6C650.7,781.5,630.1,793.2,611.6,811.7z M1098,816.7
			c7.1,1.3,13.9,3,20.5,5c-3.7-14.3-9.2-27.4-16.3-38.9c-0.6,10.5-1.9,21.4-4,32.7C1098.2,815.9,1098.1,816.3,1098,816.7z
			 M959.3,788.3c-2.9,10-6.2,20.1-9.8,30.2c12.4-1.1,23.9-2.1,34.5-2.9C977.3,805.4,969,796.2,959.3,788.3z M931,771.2
			c2.2,5.6,4,11.1,5.6,16.3c2.9,9.5,5.2,19,6.9,28.4c3.9-10.7,7.3-21.3,10.3-31.8c-1.8-1.3-3.6-2.6-5.5-3.8
			C942.8,776.8,937,773.8,931,771.2z M1072.5,813.5c4.2,0.3,8.3,0.7,12.2,1.2c2.4,0.3,4.7,0.6,7,1c0.1-0.4,0.2-0.9,0.2-1.3
			c2.3-12.4,4-26.2,4.2-40.4c-15.5-20.8-36.8-35.5-63.5-43.7c-7.4-2.3-15.5-4.6-24.1-6.9C1035.9,750.8,1057.3,781,1072.5,813.5z
			 M961.1,781.7c12.1,9.4,22.2,20.8,30,33.4c30.9-2.2,54.4-2.9,74.2-2c-16.3-33.8-39.4-64.9-69.1-93c-7.2-1.8-14.8-3.6-22.6-5.3
			C971.8,735.2,967.6,758,961.1,781.7z M684.5,772.1c20.6,1.7,38.9,14.5,55.5,38.8c14.5-14.6,30.5-26.3,47.6-34.5
			c-6.6-22.1-14.3-41.7-23-58.9c-10.3,3.7-20.2,8.1-29.8,13.3C715.3,741.5,698.5,755.3,684.5,772.1z M564.4,804.6
			c12.6,0.9,25.2,2.6,37.6,5c-3.3-27,1.3-55.5,13.9-85.2c-17.4,14.5-34,31-49.6,49.3c-0.3,2.7-0.6,5.4-0.8,8.1
			C564.9,789.6,564.5,797.2,564.4,804.6z M626.8,715.6c-0.6,1.1-1.1,2.3-1.6,3.4c-14.3,30.6-20,59.8-17.2,87.4
			c20.8-20.5,44.3-32.8,67.5-34.4c0.3,0,0.6,0,0.9-0.1c15.1-19.1,33.6-34.8,55.4-46.7c9.6-5.3,19.6-9.7,29.9-13.4
			c-9.7-18.1-20.7-33.4-33.1-46.1c-0.3-0.4-0.7-0.7-1.1-1.1c-21.3,5.1-43.2,14.2-65.3,27C650.2,698.7,638.4,706.7,626.8,715.6z
			 M543.6,803.9c4.8,0,9.6,0.1,14.4,0.4c0.1-7.2,0.5-14.5,1-21.9c-5.6,7-11.1,14.1-16.4,21.5C543,803.9,543.3,803.9,543.6,803.9z
			 M927.7,763c8.4,3.2,16.5,7.2,24.1,12.1c1.3,0.8,2.6,1.7,3.9,2.6c6.1-22.8,10.1-44.6,11.6-64.1c-25-5.1-52.3-9.2-80.3-10.7
			C905.9,721.4,918.8,742.7,927.7,763z M770.7,715.4c8.6,17.1,16.2,36.5,22.8,58.3c16.2-7.2,32.2-12.4,47.6-15.6
			c2.6-10.1,6-20.1,10.1-30c3.8-9,8.2-17.7,13.1-25.9c-0.3,0-0.6,0-1,0C831.8,702.2,800.1,705.9,770.7,715.4z M999.3,714.4
			c12.9,3.2,24.7,6.6,35.2,9.8c25.1,7.7,45.8,20.9,61.5,39.4c-1.2-34.3-11.5-70.5-41.8-97.7c-30.3-27.3-63.3-37.9-95.7-31.3
			c5.7,8.5,9.9,17.9,12.4,28.2c2.1,8.7,3.2,18.9,3.4,30.1c6.1,4.8,12.1,9.8,17.9,15.1C994.7,710.1,997,712.2,999.3,714.4z
			 M621.3,646.4c-11.9,13.8-22,28.7-30.2,44.5c-11.5,22.1-19.3,46-23.3,71.4c17-19.1,35.1-36.1,54-50.8c10.7-21.2,28.8-47.4,59.6-71
			c-3.1-0.6-6.3-1-9.5-1.2C656.2,638.1,639.2,640.5,621.3,646.4z M877.6,754.2c14.6,0,28.6,2,41.8,6c-9.3-19.8-22.8-40.3-42.2-57.8
			c-1.8-0.1-3.7-0.1-5.5-0.1c-5.5,8.9-10.4,18.3-14.6,28.3c-3.7,8.7-6.7,17.5-9.1,26.3C858.1,755.1,868,754.2,877.6,754.2z
			 M974,708.5c4.2,0.9,8.4,1.8,12.5,2.8c-4-3.5-8-6.9-12.1-10.3C974.2,703.4,974.1,705.9,974,708.5z M734.8,663.1
			c12.3,13,23.2,28.4,32.9,46.6c31.9-10.5,66.4-14.2,100.5-13.8c0.1-0.2,0.3-0.4,0.4-0.7c-14.9-11.7-33-21.7-54.8-28.7
			C789.2,658.6,762.5,657.5,734.8,663.1z M879.8,696.2c30.6,1.2,60.7,5.5,87.9,11c0.2-3.8,0.3-7.6,0.3-11.2
			c-19-14.8-38.5-27.4-57.5-38.1c-12.3,9.7-23.6,22-33.4,36.1C878.1,694.7,878.9,695.4,879.8,696.2z M689.5,642.4
			c-20.1,14.7-40.2,34.2-55.6,60c8.2-5.9,16.6-11.3,25.1-16.2c21.2-12.3,42.3-21.2,62.9-26.7C712.3,651.4,701.5,645.7,689.5,642.4z
			 M768.7,653.2c16.3,0,32,2.4,47.1,7.3c22.4,7.2,41,17.4,56.4,29.4c9.5-13.6,20.5-25.6,32.4-35.4c-26.3-14.4-51.3-25.1-71.7-32.7
			c-22.7-8.5-42.7-14.8-60.5-19.5c-15,4.3-29.8,9.9-43.8,16.7c-10,4.9-21.1,11-32.4,18.7c12.3,4.1,23.5,10.8,33.3,20
			C742.8,654.7,755.9,653.2,768.7,653.2z M916.1,653.7c17.1,9.8,34.7,21.1,51.8,34.2c-0.4-8.7-1.4-16.6-3.1-23.6
			c-2.5-10.3-6.8-19.7-12.9-28.1c-9,2.5-17.9,6.3-26.7,11.5C922.2,649.6,919.1,651.6,916.1,653.7z M785,599.1
			c17.1,4.9,33.8,10.8,50.1,16.8c21.3,7.9,47.4,19.1,74.9,34.4c3.9-2.9,7.9-5.6,12-8c8.5-5,17-8.8,25.7-11.5
			c-17.7-20.6-46.6-33.9-83.8-37.6C838.8,590.7,811.7,592.8,785,599.1z M688,590.7c-15.6,9.4-30,20-43,31.5
			c-5.5,4.9-10.7,9.9-15.6,15.1c15.1-3.9,29.4-5.4,42.9-4.4c5.5,0.4,10.8,1.2,15.9,2.5c11-7.8,23.4-15.3,37.6-22.1
			c11.2-5.4,22.8-10.1,34.6-13.9C730.8,592.4,707.6,590.3,688,590.7z"/>
	</g>
	<g>
		<path class="st16" d="M643.6,340C661.3,271,691.4,211,772.6,211c71.3,0,135.9,62.8,131.2,140.2c-4.3,71.1-66.1,131.4-141.7,122.9
			C691.3,466.1,623.3,419,643.6,340z"/>
		<g class="st17">
			<path class="st13" d="M753.2,386.2c0-5.6,0.3-10.6,1-14.7c0.7-4.2,1.8-8,3.3-11.4c1.6-3.5,3.6-6.7,6-9.8c2.5-3.1,5.5-6.4,9.1-9.9
				c2.7-2.6,5.2-5.1,7.6-7.5c2.3-2.3,4.4-4.8,6.2-7.2c1.8-2.5,3.2-5.1,4.2-7.9c1-2.8,1.6-5.9,1.6-9.3c0-7.5-1.8-13.2-5.5-17.1
				c-3.7-3.9-9.1-5.9-16.3-5.9c-2.9,0-5.6,0.4-8.3,1.2c-2.7,0.8-5.1,2.1-7.3,3.8c-2.1,1.8-3.9,4-5.2,6.7c-1.3,2.7-2,6-2,9.8h-29
				c0.1-7.5,1.4-14.1,4.1-19.7c2.7-5.7,6.3-10.5,11-14.3c4.7-3.9,10.1-6.8,16.3-8.7c6.2-1.9,13-2.9,20.3-2.9c8,0,15.2,1,21.5,3.1
				c6.3,2.1,11.6,5.1,16,9.1c4.4,4,7.7,8.8,10,14.6c2.3,5.7,3.4,12.2,3.4,19.4c0,5.2-0.8,10.1-2.5,14.7c-1.7,4.5-3.9,8.8-6.7,12.8
				c-2.8,4-6,7.8-9.5,11.5c-3.6,3.7-7.3,7.3-11.1,10.9c-4.4,4-7.3,8.3-8.8,13.1c-1.5,4.7-2.2,10.1-2.3,16H753.2z M751.1,423.2
				c0-2.2,0.4-4.3,1.1-6.2c0.7-1.9,1.8-3.6,3.2-5c1.4-1.4,3.1-2.5,5.1-3.3c2-0.8,4.4-1.2,7-1.2c2.6,0,5,0.4,7,1.2
				c2,0.8,3.7,1.9,5.1,3.3c1.4,1.4,2.5,3.1,3.2,5c0.8,1.9,1.1,4,1.1,6.2c0,4.4-1.4,8-4.3,11c-2.9,2.9-6.9,4.4-12.2,4.4
				c-5.2,0-9.3-1.5-12.1-4.4C752.5,431.3,751.1,427.6,751.1,423.2z"/>
		</g>
	</g>
	<g>
		<polygon class="st18" points="1126.3,178.8 1010.5,212 1081.5,147.7 1087.9,164.3 1117.3,165.5 		"/>
		<polygon class="st19" points="1010.5,212 1101.8,147.7 1197.5,129.4 		"/>
		<polygon class="st19" points="1081.5,147.7 1010.5,212 1059.6,120.1 		"/>
	</g>
	<g>
		<polygon class="st18" points="2143.1,655.6 2263.8,672.8 2183.7,618.2 2179.6,635.7 2150.3,641 		"/>
		<polygon class="st19" points="2263.8,672.8 2163.4,621 2064.9,616.1 		"/>
		<polygon class="st19" points="2183.7,618.2 2263.8,672.8 2201.8,587.5 		"/>
	</g>
	<g>
		<g>
			<g>
				<path class="st15" d="M2079.3,1255.7c-113.3,0-225.6-50-300.3-133.7c-64-71.7-93.6-160.6-83.5-250.3l1.5,0.2l-1.5-0.2
					c13.9-122.7,55.4-217.8,123.3-282.6c64.4-61.5,152-95.5,260.4-101c126.9-6.5,224.5,29.7,290.2,107.4
					c28.7,34,51.3,76.2,67.2,125.3c14.4,44.7,23.4,95.5,26.6,151c3.4,58.6-1.8,111.8-15.4,158.2c-13.9,47.4-36.7,88.1-67.8,121.1
					C2314.3,1220.6,2213.2,1255.7,2079.3,1255.7z M2107.6,490.5c-9.2,0-18.7,0.2-28.2,0.7c-107.7,5.5-194.7,39.2-258.5,100.2
					c-67.3,64.3-108.5,158.8-122.3,280.8c-10.1,88.8,19.3,176.9,82.7,247.9c74.2,83.1,185.6,132.7,298.1,132.7
					c133.1,0,233.4-34.9,298.3-103.6c30.8-32.6,53.4-72.9,67.1-119.8c13.5-46.1,18.7-99,15.3-157.2c-3.2-55.2-12.1-105.7-26.4-150.2
					c-15.7-48.8-38.1-90.6-66.6-124.3C2307,526.4,2219.8,490.5,2107.6,490.5z"/>
				<path class="st15" d="M2079.3,1257.9c-113.9,0-226.8-50.2-301.9-134.4c-63.9-71.6-93.8-160.2-84.2-249.8l0,0l0.5-4.2l0,0
					c14.2-122.2,55.8-217,123.7-281.8c64.7-61.8,152.8-96,261.8-101.6c127.6-6.5,225.8,29.9,291.9,108.2
					c28.9,34.2,51.6,76.6,67.6,126c14.5,44.9,23.4,95.9,26.7,151.5c3.4,58.8-1.8,112.3-15.5,158.9c-14,47.7-37,88.7-68.3,121.9
					C2315.5,1222.5,2213.8,1257.9,2079.3,1257.9z M2107.6,492.6c-9.2,0-18.6,0.2-28.1,0.7c-107.2,5.5-193.7,39-257.1,99.6
					c-67,64-107.9,158-121.7,279.5c-10,88.2,19.2,175.7,82.2,246.3c73.8,82.6,184.6,132,296.5,132c132.5,0,232.3-34.6,296.8-103
					c30.5-32.4,53-72.4,66.6-119c13.4-45.8,18.6-98.5,15.2-156.5c-3.2-55-12-105.4-26.3-149.7c-15.6-48.5-37.9-90.1-66.2-123.6
					C2305.8,528.4,2219.1,492.6,2107.6,492.6z"/>
			</g>
		</g>
		<g>
			<g>
				<path class="st15" d="M2092.9,1272.8c-63.6,0-133.7-18.1-209.4-54.2c-102.3-48.7-182.2-142.1-213.7-249.8
					c-27-92.2-15.5-185.2,32.3-261.9c65.3-104.8,143.7-172.8,232.8-202.2c84.6-27.8,178.3-20.8,278.6,20.8
					c117.3,48.7,189.9,123.3,215.8,221.8c11.3,43.1,13.6,90.8,6.7,142c-6.2,46.6-20,96.3-41,147.7c-22.1,54.3-49.7,100.2-82,136.2
					c-32.9,36.8-71,63.8-113.3,80.2C2166.6,1266.3,2130.9,1272.8,2092.9,1272.8z M1703.4,707.7l1.3,0.8
					c-47.3,75.9-58.7,168-31.9,259.4c31.2,106.9,110.5,199.6,212,247.9c120.1,57.2,225.7,68.9,313.9,34.7
					c41.8-16.2,79.5-42.9,112.1-79.3c32-35.8,59.4-81.3,81.4-135.3c20.9-51.2,34.6-100.7,40.8-147c6.8-50.8,4.5-98.2-6.7-140.8
					c-25.6-97.5-97.6-171.4-214-219.7c-99.6-41.4-192.6-48.3-276.4-20.7c-88.4,29.1-166.2,96.7-231.2,200.9L1703.4,707.7z"/>
				<path class="st15" d="M2092.9,1274.9c-63.8,0-134.6-18.3-210.3-54.4c-102.8-49-183.1-142.9-214.8-251.2
					c-27.1-92.8-15.6-186.4,32.5-263.6c65.6-105.2,144.3-173.5,234-203c85-28,179.3-21,280,20.9c118,49,191,124.1,217,223.2
					c11.4,43.3,13.7,91.4,6.8,142.8c-6.2,46.8-20.1,96.6-41.1,148.3c-22.2,54.6-49.9,100.6-82.3,136.8
					c-33.2,37.1-71.5,64.2-114.1,80.7C2167.3,1268.3,2131,1274.9,2092.9,1274.9z M1706.5,709.7c-47,75.4-58.3,166.9-31.7,257.7
					c31.1,106.3,109.9,198.5,210.9,246.6c119.6,57,224.6,68.6,312.2,34.7c41.5-16.1,78.9-42.6,111.3-78.8
					c31.9-35.6,59.1-80.9,81-134.7c20.8-51,34.5-100.3,40.6-146.5c6.7-50.5,4.5-97.6-6.6-140c-25.4-96.8-97-170.2-212.8-218.3
					c-99.1-41.2-191.6-48.1-275-20.7C1848.6,538.6,1771.2,605.9,1706.5,709.7z"/>
			</g>
		</g>
		<g>
			<g>
				<path class="st15" d="M2114.5,1296.3c-92.4,0-187.2-44.4-282.3-132.2c-86.2-79.6-136.5-196.4-134.6-312.6
					c1.6-99.5,41.5-187.9,112.3-249l1,1.2l-1-1.2c96.8-83.6,195.1-126.8,292.2-128.5c92.1-1.6,182.7,34.1,269,106
					c101.1,84.2,150,180.2,145.3,285.4c-2,46-14.4,94-36.9,142.5c-20.4,44.2-49.3,89.1-85.8,133.5c-38.6,46.9-79.9,83.8-122.8,109.5
					c-43.8,26.3-89.8,41.3-136.6,44.5C2127.7,1296.1,2121.1,1296.3,2114.5,1296.3z M2107.9,477.3c-1.9,0-3.9,0-5.8,0
					c-96.4,1.7-194,44.6-290.2,127.7c-70.1,60.5-109.5,148.1-111.2,246.7c-1.9,115.3,48,231.2,133.6,310.2
					c101.2,93.4,202.1,137.4,299.7,130.6c46.3-3.2,91.8-18,135.2-44.1c42.6-25.6,83.7-62.2,122-108.8
					c36.3-44.2,65.1-88.9,85.4-132.8c22.3-48.1,34.6-95.7,36.6-141.3c4.6-104.2-43.9-199.4-144.2-282.9
					C2285,512.7,2197.2,477.3,2107.9,477.3z"/>
				<path class="st15" d="M2114.5,1298.4L2114.5,1298.4c-92.9,0-188.3-44.6-283.8-132.7c-86.6-80-137.2-197.4-135.3-314.2
					c1.6-99.3,41.2-187.7,111.4-249.2l0,0l3.2-2.8l0,0c96.6-83,194.8-125.9,292-127.6c92.6-1.6,183.6,34.2,270.4,106.5
					c101.6,84.6,150.8,181.2,146.1,287.2c-2,46.3-14.5,94.5-37.1,143.3c-20.5,44.3-49.5,89.4-86.1,134
					c-38.7,47.1-80.2,84.1-123.4,110c-44.1,26.5-90.4,41.5-137.6,44.8C2127.8,1298.2,2121.1,1298.4,2114.5,1298.4L2114.5,1298.4z
					 M2107.9,479.4c-1.9,0-3.8,0-5.8,0c-95.9,1.6-193.1,44.4-288.9,127.2c-69.6,60.1-108.8,147.2-110.4,245.1
					c-1.9,114.7,47.8,230,132.9,308.6c94.1,86.8,187.8,130.7,278.7,130.8c6.5,0,12.9-0.2,19.4-0.7c46-3.2,91.1-17.9,134.3-43.8
					c42.4-25.4,83.3-61.9,121.5-108.4c36.2-44.1,64.8-88.6,85.1-132.4c22.2-47.9,34.4-95.1,36.4-140.5
					c4.6-103.5-43.7-198.1-143.4-281.2C2284.1,514.6,2196.7,479.4,2107.9,479.4z"/>
			</g>
		</g>
		<g>
			<g>
				<path class="st15" d="M2000.5,1289.5c-36.2,0-70.8-6-103.1-18c-92.6-34.4-167-116.5-221.1-244.2c-45.8-108-43.5-235.2,6-340.3
					c42.5-90,115.2-154.1,204.8-180.7c122.6-36.3,230-35.2,319.2,3.3c84.6,36.5,152.4,106.3,201.5,207.4
					c57.4,118.3,62.4,226,14.9,320c-20.8,41.1-51.9,79.7-92.3,114.6c-36.8,31.8-81.6,60.9-133.2,86.3
					c-54.5,26.9-107.3,43.5-157,49.3C2026.7,1288.8,2013.5,1289.5,2000.5,1289.5z M1887.5,507.8l0.5,1.5
					c-88.8,26.3-160.8,89.9-202.9,179c-49.2,104.3-51.4,230.5-6,337.7c53.8,126.8,127.6,208.4,219.3,242.5
					c43.5,16.2,91.1,21.4,141.3,15.5c49.4-5.7,101.9-22.2,156-48.9c51.3-25.3,95.9-54.2,132.5-85.9c40.1-34.7,70.9-72.9,91.5-113.7
					c47.1-93.1,42.1-199.8-14.9-317.2c-48.8-100.4-116-169.7-199.9-205.9c-88.5-38.2-195.2-39.2-317-3.1L1887.5,507.8z"/>
				<path class="st15" d="M2000.5,1291.7c-36.4,0-71.4-6.1-103.9-18.2c-93.2-34.6-168-117.1-222.3-245.4
					c-46-108.6-43.8-236.4,6.1-342c42.7-90.5,115.9-155.1,206.1-181.8c123.1-36.5,231-35.3,320.6,3.4
					c85.1,36.7,153.2,106.8,202.6,208.4c57.7,118.9,62.7,227.2,14.9,321.8c-20.9,41.4-52.2,80.2-92.8,115.3
					c-36.9,31.9-81.9,61.1-133.6,86.6c-54.7,27-107.7,43.6-157.7,49.5C2027,1290.9,2013.5,1291.7,2000.5,1291.7z M1888.6,511.4
					c-88.2,26.1-159.8,89.3-201.6,177.9c-48.9,103.7-51.2,229.3-5.9,336c53.5,126.3,126.9,207.5,218.1,241.3
					c43.2,16,90.4,21.2,140.4,15.4c49.1-5.7,101.4-22.1,155.3-48.7c51.2-25.3,95.6-54.1,132.1-85.6c39.9-34.5,70.5-72.5,91-113
					c46.8-92.5,41.8-198.5-14.9-315.3c-48.5-100-115.4-168.9-198.9-204.9C2116.1,476.5,2009.9,475.4,1888.6,511.4z"/>
			</g>
		</g>
		<g>
			<g>
				<path class="st15" d="M2101.4,1255.7c-113.3,0-209.2-59.5-284-143.2c-64-71.7-110-151-99.8-240.8
					c13.9-122.7,55.4-217.8,123.3-282.6c64.4-61.5,152-95.5,260.4-101c126.9-6.5,224.5,29.7,290.2,107.4
					c28.7,34,51.3,76.2,67.2,125.3c14.4,44.7,23.4,95.5,26.6,151c3.4,58.6-1.8,111.8-15.4,158.2c-13.9,47.4-36.7,88.1-67.8,121.1
					C2336.5,1220.6,2235.4,1255.7,2101.4,1255.7z M1719.2,871.9l1.5,0.2c-10.1,88.8,38.5,168.2,101.9,239.2
					c74.2,83.1,166.4,141.4,278.9,141.4c133.1,0,233.4-34.9,298.3-103.6c30.8-32.6,53.4-72.9,67.1-119.8
					c13.5-46.1,18.7-99,15.3-157.2c-3.2-55.2-12.1-105.7-26.4-150.2c-15.7-48.8-38.1-90.6-66.6-124.3
					c-65-77-161.8-112.8-287.7-106.3c-107.7,5.5-194.7,39.2-258.5,100.2c-67.3,64.3-108.5,158.8-122.3,280.8L1719.2,871.9z"/>
				<path class="st15" d="M2101.4,1257.9c-54.2,0-107.1-13.6-157.5-40.5c-45.3-24.2-88.4-59-128.1-103.4
					c-35.8-40.1-61.4-77.5-78.1-114.2c-19.8-43.6-27.1-85.5-22.3-128.3c14-123.2,55.7-218.7,123.9-283.9
					c64.7-61.8,152.8-96,261.8-101.6c127.6-6.5,225.8,29.9,291.9,108.2c28.9,34.2,51.6,76.6,67.6,126
					c14.5,44.9,23.4,95.9,26.7,151.5c3.4,58.8-1.8,112.3-15.5,159c-14,47.7-37,88.7-68.3,121.9
					C2337.6,1222.5,2236,1257.9,2101.4,1257.9z M1722.8,872.4c-8.5,75.1,23.7,150.5,101.3,237.5c83.4,93.4,176.7,140.7,277.3,140.7
					c132.5,0,232.3-34.6,296.8-103c30.5-32.4,53-72.4,66.6-119c13.4-45.9,18.6-98.5,15.2-156.5c-3.2-55-12-105.4-26.3-149.7
					c-15.6-48.5-37.9-90.1-66.2-123.6c-64.6-76.4-160.8-112-286-105.6c-107.2,5.5-193.7,39-257.1,99.6
					C1777.5,656.8,1736.6,750.9,1722.8,872.4z M1743.7,1002.4c16.5,34.9,41.2,70.5,75.4,108.7c14.5,16.3,29.5,31.3,44.9,44.9
					c-14.6-13.1-29-27.6-43-43.3C1786.5,1074,1760.8,1037.6,1743.7,1002.4z"/>
			</g>
		</g>
	</g>
	<g>
		<path class="st6" d="M2026.4,1042.9c-0.2,0.3-0.4,0.7-0.6,1c-4.6,8-15.1,27.6-26.8,49c-5.5,10.2-11.3,20.8-16.7,30.7
			c-9.4,17.2-18,32.5-23,40.6c-5.1,8.2-8.8,14-10.3,16.3c0,0,0,0,0,0c-0.5,0.7-0.6,1.5-0.5,2.4c0.5,7.3,0.4,14.5-0.3,21.6
			c-7,69.7-54,107.1-54,107.1l-14,2.1c0,0,19.8-73.3,25.6-114.7c1-7,1.4-12.7,1.1-16.4c-1-10.8,0.9-26.6,4.5-44.8
			c6.5-32.3,18.3-72,28.6-103.8c0.7-2,20.3-73.1,20.3-73.1c16.5,14.4,76.7,20.4,76.7,20.4S2047.2,1005.9,2026.4,1042.9z"/>
		<path class="st5" d="M1850.9,1331.3h58.3c0,0,1.4-8.9-1.6-15.6c-2.9-6.5-7.1-6.7-0.5-16.8c-3.7,3.8-15.6,5.4-24.1,4.3
			c-1,1.7-6.7,12.9-10.1,15.4C1869,1321.3,1852,1320.3,1850.9,1331.3z"/>
		<path class="st20" d="M2026.4,1042.9c-0.2,0.3-0.4,0.7-0.6,1c-4.6,8-29.5,53.9-41.1,75.4c13.5-55.4,4.1-110.8,4.1-110.8
			L2026.4,1042.9z"/>
		<path class="st10" d="M1801.2,769.3c0,0-2.3-25.2,25.8-25.2c0,0-8.5,2.3-12.9,6.9c0,0,17.9-10.5,37.5,5.7
			c19.5,16.2,7.4,56.8,13.3,64.5c5.9,7.7,29.1,9.2,26.2,34.2c-2.8,24.9-73.4,56.1-68.8,76.7c0,0-27.6-40.6-7.9-59.2
			c0,0-9.6,9.1-10.6,19.9c0,0-2.6-21.1,10.8-27.8c11.9-6,21.6-27.8,20.6-31.7C1834.1,829.4,1801.2,769.3,1801.2,769.3z"/>
		<path class="st3" d="M1840.9,875c0,0-40,101-48.6,97.2c-8.6-3.7-59.4-19.9-59.4-19.9s1.8,14.4,2.6,15c7.4,5.9,44.9,34.8,67.3,36.2
			c24.9,1.6,58.6-71.7,58.6-71.7L1840.9,875z"/>
		<path class="st10" d="M1809.1,765.8c-0.4-1.5,33.3,15.2,35,17.1c15.8,17.5,11.3,40.4,2.3,40.6c-5.8,0.1-4.7,9.8-4.7,9.8
			l-64.6-27.3C1777.1,806,1784.9,760.6,1809.1,765.8z"/>
		<path class="st5" d="M1830.9,877.1c0,0-8.6,8.9-8.6,35.6c0,0,11.9,18.7,42.6,23.5C1864.9,936.2,1838.4,877.1,1830.9,877.1z"/>
		<path class="st6" d="M1980.9,985.5l-0.2-10.9c21.7,2.7,75-26,75-26s22.7,15.1,25.9,58.3c1.5,21.1,11.1,110.3,12.2,136.9
			c0.4,9.7,0.5,16.5,0.6,19.3c0,0,0,0,0,0c0,0.8,0.4,1.6,0.9,2.2c4.5,5.7,8.4,11.8,11.8,18.1c33.2,61.7,15.8,145.6,15.8,145.6
			l-7.7-2c0,0-28.1-86.9-46.4-124.6c-3.1-6.4-5.9-11.3-8.3-14.2c-6.9-8.4-14.2-22.6-21.3-39.7
			C2025.5,1116.2,1980.9,985.5,1980.9,985.5z"/>
		<path class="st5" d="M2076.4,1331.3h58.3c0,0,1.4-8.9-1.6-15.6c-2.9-6.5-7.5-9.4-6.4-17.2c-3.7,3.8-9.7,8.1-18.2,7
			c-1,1.7-6.7,10.6-10.1,13.1C2094.6,1321.3,2077.6,1320.3,2076.4,1331.3z"/>
		<path class="st5" d="M1868.8,948.7c7.8,1.3-1.3,7.6,9.5,8.7c15.3,1.7,31.2,2.8,39.5,6.1c3,1.2,5.1,2.7,5.7,4.6
			c3.6,10.8,19.4,27.5,19.4,27.5c101.6-4.6,112.7-47.1,112.7-47.1c-65.9-64-126.6-101.8-172.9-106.8c-7.9-0.9-17.9,4.2-25.1,7.3
			c-16.2,7.2-26.9,28-26.9,28S1839,943.6,1868.8,948.7z"/>
		<path class="st21" d="M1878.3,957.4c15.3,1.7,31.2,2.8,39.5,6.1c3.4-50.7-20.5-88.8-20.5-88.8S1881.7,938.3,1878.3,957.4z"/>
		<path class="st3" d="M1865.1,866.2c0,0,38.6-2.1,45.4,22.1c6.9,24.2-12.9,120.9-17.1,130.9c-7.7,18.2-45.4,70-45.4,70l-10.4-5.3
			c0,0,21.6-78.1,27.3-85.9C1873.7,985.7,1853.5,876.8,1865.1,866.2z"/>
		<path class="st3" d="M1840.4,1076.6c0,0-3.2,11.4-9.5,17.7c-2.9,2.9-5.5,11.6-5.6,16.1c0,0-0.5,3.7,1.1,3.4c1.6-0.4,3.4-8.4,6.3-8
			c0,0-1.5,9-3.1,11.5c-1.5,2.5-2.4,10.4-0.3,11.3c5.3,2.3,13-7.6,17.7-13.8c4.6-6.2,0.1-31.5,0.1-31.5L1840.4,1076.6z"/>
		<path class="st5" d="M1918.1,920.7c-0.1,0.6-36.5,6.7-59.3-4.9c0,0-19-59.6,8.2-56.7c27.2,2.9,43.3,11.4,44,24.4
			C1911.6,896.6,1918.1,920.7,1918.1,920.7z"/>
		<path class="st3" d="M1857.7,849.1c0,0-10.7,40-26.9,28c0.5-1.9-2.4-7.5-5.7-13.3c-4.2-7.3-9.3-14.7-9.3-14.7l21.8-19.1l1.3-1.1
			C1845.7,840.5,1852.3,845.1,1857.7,849.1z"/>
		<path class="st22" d="M1815.9,849.1c0,0,5,7.4,9.3,14.7c13.6-8.4,13.6-25.2,12.5-33.9L1815.9,849.1z"/>
		<path class="st3" d="M1815.3,858.7c0,0,33-18.3,21.2-38.7c-11.7-20.3-15.4-36.4-36.9-25.6c-21.5,10.8-21.1,20.9-18.8,28.7
			C1783,830.9,1806.4,863,1815.3,858.7z"/>
		<path class="st10" d="M1775.2,811.3c1.5-9,6.1-9.9,9.3-9.3c12.2-20.1,32.1-12.3,32.1-12.3c10.6,13.3,26,15.6,26,15.6
			s-3.8,7.1-19.6,11.5c-4.8,1.3-10.3,0.5-15.5-1.2c10.9,6.1,22.4,8.4,22.4,8.4c-20.8,1.9-40.5-17.1-42.6-19.1
			c-1,2.9-2.6,9.1-1.6,13.6c1.4,6.1,6.8,17.2,3.5,18.6C1789,837.2,1772.9,824.9,1775.2,811.3z"/>
	</g>
	<path class="st3" d="M1739.9,957c0,0-5.9,2.6-11.9-3.5c-3.1-3.1-8.5-4.8-5.7-6.5c2.8-1.7,10.4,1.8,12.2,2.4
		C1736.2,950,1739.9,957,1739.9,957z"/>
	<g>
		<path class="st16" d="M1960.6,287.8c17.7-68.8,47.6-128.6,128.6-128.6c71,0,135.5,62.6,130.8,139.7
			c-4.3,70.9-65.9,131-141.2,122.5C2008.1,413.5,1940.3,366.5,1960.6,287.8z"/>
		<g class="st17">
			<path class="st13" d="M2070.1,375.3c0-2.5,0.4-4.8,1.3-7c0.8-2.1,2.1-4,3.6-5.6c1.6-1.6,3.5-2.9,5.8-3.8c2.3-0.9,4.9-1.3,7.8-1.3
				c2.9,0,5.6,0.4,7.8,1.3c2.3,0.9,4.2,2.1,5.8,3.8c1.6,1.6,2.8,3.5,3.6,5.6c0.8,2.1,1.3,4.5,1.3,7c0,4.9-1.6,9-4.8,12.3
				c-3.2,3.3-7.8,5-13.7,5c-5.9,0-10.4-1.7-13.7-5C2071.7,384.3,2070.1,380.2,2070.1,375.3z M2102.1,333.2h-28l-3.1-137.6h34.3
				L2102.1,333.2z"/>
		</g>
	</g>
	<g>
		<path class="st16" d="M1117.7,429.8c39.7-154.5,106.9-288.8,288.8-288.8c159.5,0,304.2,140.5,293.6,313.6
			c-9.7,159.2-147.9,294.1-317.2,275.1C1224.4,712,1072.2,606.7,1117.7,429.8z"/>
		<g class="st23">
			<path class="st24" d="M1529,412c0.2,29.7-10.2,56.9-27.7,78.2c-15,18.3-23.5,41.1-23.5,64.8v34.1c0,9.7-3.5,18.5-9.4,25.4
				c-7.2,8.5-18,14-30,14h-63c-21.7,0-39.4-17.7-39.4-39.4v-34.1c0-23.6-8.3-46.5-23.4-64.7c-17.4-21.1-27.8-48.1-27.8-77.6
				c0-58.3,40.9-107,95.5-119.2c1.6-0.3,3.1-0.7,4.7-0.9c0.8-0.2,1.7-0.3,2.5-0.4c6.3-1,12.8-1.5,19.4-1.5
				C1474.3,290.7,1528.6,344.7,1529,412z"/>
			<path class="st25" d="M1438.2,628.5l-0.1,1l-1.7,13.3l-0.5,3.5v0l-0.5,3.5l-1.7,13.3l-0.5,3.5l0,0l-0.5,3.5l-0.3,1.9
				c-0.9,6.7-8.6,11.9-17.8,11.9H1394c-2.2,0-4.3-0.3-6.2-0.8h0c-1.8-0.5-3.4-1.2-4.8-2l-0.1-0.1c-1.2-0.7-2.2-1.5-3.1-2.4
				c-1.9-1.8-3.1-4-3.4-6.5l-0.7-5.1l-0.5-3.2v0l0-0.1v0l-0.5-3.2l-1.8-12.3l-0.5-3.2l0-0.1l-0.5-3.2l-1.9-13.3H1438.2z"/>
			<g class="st26">
				<path class="st27" d="M1430,628.5h-0.1h-11.6c-18.9,5.5-37.7,10.9-46.4,13.3l0.5,3.2l0,0.1l0.5,3.2c7-2,23.9-6.8,65.3-18.8
					l0.1-1H1430z"/>
				<path class="st27" d="M1375,663.8L1375,663.8L1375,663.8L1375,663.8l0.5,3.3c8.1-2.3,24.9-7.1,59.9-17.2l0.5-3.5v0l0.5-3.5
					c-22.1,6.4-48.9,14.1-61.8,17.8L1375,663.8z"/>
				<path class="st27" d="M1382.8,681.2l0.1,0.1c1.5,0.8,3.1,1.5,4.8,2h0c9.6-2.8,23.8-6.9,45-13l0.5-3.5l0,0l0.5-3.5
					c-18.9,5.5-40.6,11.7-54,15.6C1380.6,679.7,1381.6,680.5,1382.8,681.2z"/>
			</g>
			<g class="st26">
				<g>
					
						<rect x="1369" y="471.2" transform="matrix(0.986 -0.167 0.167 0.986 -72.6629 236.8564)" class="st28" width="5.5" height="158.4"/>
				</g>
				<g>
					
						<rect x="1362.3" y="548.9" transform="matrix(0.1799 -0.9837 0.9837 0.1799 638.5966 1869.3123)" class="st28" width="156.3" height="5.5"/>
				</g>
				<g>
					<path class="st28" d="M1421.5,500.6c-0.7,0-1.5-0.1-2.4-0.3c-1.5-0.3-2.4-1.4-2.7-3c-0.6-3.5,2.1-9.8,5.9-15.1
						c-2-3.5-4.6-6.3-7.4-7.2c-4.1-1.2-10.4,2.5-14.8,7.4c0.8,1.1,1.5,2.3,2.2,3.5c2.2,4.2,3.9,9.7,1.7,12.2
						c-0.8,0.9-2.5,1.8-5.8,0.5c-4.1-1.6-5.6-5.1-4.1-9.6c0.8-2.2,2.2-4.5,3.9-6.7c-3.4-4.4-7.9-7.8-12.4-7.2
						c-2.4,0.3-4.4,1.1-6.1,2.3c2.9,5.3,3.5,12.1,1.5,15.7c-1.3,2.5-3.7,3.2-6.6,2.2c-2.1-0.8-3.2-3.7-2.8-7.4
						c0.4-3.8,2.3-8,5.7-10.9c-0.9-1.4-2-2.6-3.2-3.6c-7.7-6-14.1,0.4-14.3,0.7l-1.2-1.2c0.1-0.1,7.7-7.8,16.6-0.9
						c1.3,1,2.5,2.4,3.5,3.9c1.9-1.3,4.1-2.2,6.8-2.5c5-0.6,10,2.9,13.7,7.6c4.8-5.2,11.6-9,16.3-7.6c3,0.9,5.8,3.8,8,7.4
						c2-2.6,4.2-4.9,6.4-6.3c3.5-2.3,5.8-1.8,7-0.9c1.3,0.9,2.5,2,3.4,3.4c1.1-0.8,2.2-1.5,3.2-2.1c4-2,7.8-1.9,10.4,0.4l-1.1,1.3
						c-2.9-2.5-6.7-1.2-8.6-0.2c-1.1,0.5-2.1,1.2-3.1,2c2.7,4.9,3.2,11.2,1.7,14.2c-1,1.9-2.7,2.6-4.7,1.9c-3.7-1.3-4.5-3.9-4.6-5.7
						c-0.2-3.6,2.3-7.7,5.5-10.7c-0.8-1.3-1.8-2.3-3-3.1c-1.6-1-3.7-0.1-5.2,0.9c-2.2,1.4-4.4,3.8-6.5,6.5
						c2.5,4.8,3.8,10.3,2.9,13.9C1426.6,498,1425.3,500.6,1421.5,500.6z M1423.2,483.9c-3.3,4.8-5.6,10.3-5.1,13.2
						c0.2,0.9,0.6,1.4,1.4,1.6c3.3,0.7,5.3-0.2,6-2.8C1426.3,492.8,1425.2,488.1,1423.2,483.9z M1399,483.8
						c-1.5,1.9-2.7,3.9-3.4,5.8c-1.3,3.7-0.2,6.3,3.1,7.5c1.3,0.5,3.1,0.9,4-0.1c1.3-1.5,0.5-5.7-1.9-10.3
						C1400.3,485.7,1399.7,484.7,1399,483.8z M1378.1,478.5c-2.9,2.6-4.6,6.3-4.9,9.6c-0.3,2.9,0.4,5.2,1.7,5.6
						c2.1,0.8,3.7,0.3,4.6-1.4C1381.2,489.2,1380.6,483.2,1378.1,478.5z M1439.8,479.5c-2.9,2.8-4.9,6.4-4.7,9.1
						c0.1,2,1.3,3.4,3.6,4.3c1.2,0.5,2.1,0.1,2.7-1C1442.6,489.3,1442,483.8,1439.8,479.5z"/>
				</g>
			</g>
			<path class="st29" d="M1470,337.6c10,9.5,8.8,26.9-4.1,30.7c-9.7,2.9-24.3-1-31.4-13.4c-7.2-12.4-3.9-22.6,4.9-27.7
				C1448.1,322.1,1459.5,327.8,1470,337.6z"/>
		</g>
		<g>
			<path class="st30" d="M1404.3,267.7h-1.2c-2.1,0-3.9-1.7-3.9-3.9v-48.1c0-2.1,1.7-3.9,3.9-3.9h1.2c2.1,0,3.9,1.7,3.9,3.9v48.1
				C1408.1,265.9,1406.4,267.7,1404.3,267.7z"/>
			<g>
				<path class="st30" d="M1549.8,323.6l-0.6-1.1c-1.1-1.8-0.4-4.2,1.4-5.2l23.6-13.6c1.8-1.1,4.2-0.4,5.2,1.4l0.6,1.1
					c1.1,1.8,0.4,4.2-1.4,5.2L1555,325C1553.2,326.1,1550.8,325.5,1549.8,323.6z"/>
				<path class="st30" d="M1565.9,390.9L1565.9,390.9c0-2.5,2-4.5,4.5-4.5h59.7c2.5,0,4.5,2,4.5,4.5l0,0c0,2.5-2,4.5-4.5,4.5h-59.7
					C1567.9,395.4,1565.9,393.4,1565.9,390.9z"/>
				<path class="st30" d="M1482.5,287.9L1482.5,287.9c-2.3-1-3.3-3.6-2.4-5.9l31.7-74.2c1-2.3,3.6-3.3,5.9-2.4l0,0
					c2.3,1,3.3,3.6,2.4,5.9l-31.7,74.2C1487.4,287.8,1484.8,288.8,1482.5,287.9z"/>
			</g>
			<g>
				<path class="st30" d="M1263.5,323.6l0.6-1.1c1.1-1.8,0.4-4.2-1.4-5.2l-23.6-13.6c-1.8-1.1-4.2-0.4-5.2,1.4l-0.6,1.1
					c-1.1,1.8-0.4,4.2,1.4,5.2l23.6,13.6C1260.1,326.1,1262.5,325.5,1263.5,323.6z"/>
				<path class="st30" d="M1247.4,390.9L1247.4,390.9c0-2.5-2-4.5-4.5-4.5h-59.7c-2.5,0-4.5,2-4.5,4.5l0,0c0,2.5,2,4.5,4.5,4.5h59.7
					C1245.4,395.4,1247.4,393.4,1247.4,390.9z"/>
				<path class="st30" d="M1330.8,287.9L1330.8,287.9c2.3-1,3.3-3.6,2.4-5.9l-31.7-74.2c-1-2.3-3.6-3.3-5.9-2.4l0,0
					c-2.3,1-3.3,3.6-2.4,5.9l31.7,74.2C1325.9,287.8,1328.5,288.8,1330.8,287.9z"/>
			</g>
		</g>
	</g>
	<g>
		<path class="st14" d="M1288.9,641.5c0.1-1.7,1.4-19.9,29.1-20.8c0,0-13.6,1.6-16,7.6c0,0,9.3-7.4,16.8-5c7.6,2.4,12,15.6,12,20
			c0,4.4-4.2,18.4-9,19.6c-1.8,0.5-3.9,0.3-5.8,0c1.3,2,2.5,4.2,3.7,6.6c11.1,22.7-0.3,44.9-9.7,42.5c-6-1.6-7.7,8.7-7.7,8.7
			l-58.4-47.2C1244.1,673.3,1265.5,629,1288.9,641.5z"/>
		<path class="st5" d="M1268.6,1310.5l12.4,4.6c0,0,53.8-74.7,60.5-140.4c1.2-11.7,0.8-23.1-1.8-33.6c0,0,0.5-3,1.4-8.3
			c0.4-2.5,1-5.5,1.5-8.9c1.8-10,4.2-23.8,6.9-39.4c6.3-36,14.5-81.9,20.9-115.7l-3.3-1.1l-36.1-11.7l-7.5-23.7l-26.9-7.1
			c0,0-6,11.8-11.4,67.3c-1,7.3-1.9,15.3-2.6,24c-2.1,26.6-2.2,59.6,2.6,97.3c1.2,9.7,2.8,19.6,4.7,29.9c1.4,7.5,1.6,17.7,1,29.5
			C1288.3,1227.1,1268.6,1310.5,1268.6,1310.5z"/>
		<path class="st4" d="M1282.7,1016.7l58.4,116.2c0.4-2.5,1-5.5,1.5-8.9c1.8-10,4.2-23.8,6.9-39.4c6.3-36,14.5-81.9,20.9-115.7
			l-3.3-1.1l-36.1-11.7l-7.5-23.7l-34.9-19.4c0,0,0,5.4-3,64.5C1284.6,984.8,1283.4,1008,1282.7,1016.7z"/>
		<path class="st5" d="M1308.4,940.2l1.4-11.6c22.7,6,85.8-22.1,85.8-22.1s19.3,24.6,16.4,70.9c-1.4,22.6-4,118.5-6.7,146.9
			c-1,10.3-1.8,17.6-2.2,20.5c0,0,0,0,0,0c-0.1,0.9,0.2,1.7,0.7,2.5c4,6.7,7.2,13.7,9.9,20.8c26.3,70.2-4.1,156.7-4.1,156.7
			l-7.9-3.2c0,0-17.3-96.2-31.4-138.7c-2.4-7.2-4.7-12.9-6.8-16.3c-6.1-9.9-11.8-26-16.9-45.2c-9.7-36.2-17.6-83.4-22.8-119.8
			C1319.5,970.9,1308.4,940.2,1308.4,940.2z"/>
		<path class="st31" d="M1147.6,898.4l-1.8,13.3c0,0,8-1.1,9.3-1.2c4.1-0.3,16.3-1.1,27.7-2.3c17.1-1.7,29.4-2.1,37.5-7.1
			c12.3-7.5,32.5-30.5,45.6-53.5c0.4-0.6,0.7-1.1,0.9-1.7c6.8-12.2,11.6-24.3,12-34c0.3-5.9-0.4-11-1.6-15.4
			c-1.6-5.8-4.2-10.4-6.9-13.9c-0.4-0.6-0.8-1.1-1.3-1.6c-4.5-5.3-8.9-7.6-8.9-7.6c-2.3-0.9-9.7,8.1-12.3,10.9l-2.1,6.3
			c-2.1,2.2-24.7,75-35,86.4c-4.4,4.9-24.9,12.5-43.7,17.7C1155,898.2,1147.6,898.4,1147.6,898.4z"/>
		<path class="st3" d="M1265.1,799.5c7.1,3.3,15.7,5.5,26.1,6.1c39,2.1,47.8-32,49.4-54.7c-5.6-2-10.5-1.8-13.4-1.7
			c-2.3,0.1-4.6,0.3-6.7,0.6c-1,0.1-2-0.2-2.7-0.8c-4.9-3.9-12.4-15.5-16.9-33.9l-1.7,0.8l-28.1,13.2c0,0,3,9.1,5.2,17.9
			c1,3.8,1.8,7.5,2.1,10.4c0.3,2.7-1.2,5.3-3.7,6.4c0,0,0,0,0,0s0,0,0,0C1274.4,764.6,1268.3,780.2,1265.1,799.5z"/>
		<path class="st7" d="M1403.7,919.2c-0.3,14.4-101.8,27.2-119.3,17.5c0,0-4.5-21.8-10.3-46.4c-1.7-7.4-3.6-15-5.5-22.4
			c-4.4-17.3-8.9-33-12.4-40.5c-0.4-0.8-0.7-1.5-1-2.3c-7.8-20.6,6.8-42.7-3.3-49.2c0,0,6-5.5,22.6-12c0,0,0,0,0,0
			c-0.3,1-1.7,14.7,1.1,20c5.6,10.6,27.7,5,37.7-8c5.9-7.6,10.5-15.4,12.5-22.6c0.5-1.6,1.2-4,1.2-4s18.6-2.5,29,1.7
			c0,0-4.1,9-5.6,18.8c-0.1,0.9-0.3,1.9-0.4,2.8c-0.2,2-0.3,4-0.1,5.9c0.1,2.6,1.5,4.8,3.6,7.1c1.9,2,4.5,4.1,7.5,6.2
			c1.9,1.4,4,2.9,6.1,4.5c0.2,11.6-0.6,30.8,1.5,51.2c0.5,5.2,2.3,10.1,5,14.5c1.1,1.8,2.3,3.4,3.7,5
			C1388.5,879.4,1404.1,917.5,1403.7,919.2z"/>
		<path class="st31" d="M1271.1,729.2c0,0,3,9.1,5.2,17.9c16.4-4.6,21.4-21.9,22.9-31.1L1271.1,729.2z"/>
		<path class="st3" d="M1267.7,738.9c0,0,39.3-9.1,33.3-33.5c-6-24.4-5-42-30.4-37.2c-25.4,4.8-27.9,15.3-27.9,23.9
			C1242.7,700.7,1257.3,740.6,1267.7,738.9z"/>
		<path class="st9" d="M1240.5,678.2c4.2-8.8,9.2-8.4,12.3-6.8c18.5-17.1,36.6-3.1,36.6-3.1c7,16.8,22.1,23.7,22.1,23.7
			s-6,6.2-23.5,6c-5.3,0-10.7-2.5-15.6-5.9c9.4,9.5,20.5,15.3,20.5,15.3c-21.9-4.2-36.6-29.6-38.1-32.3c-1.9,2.7-5.4,8.6-5.7,13.5
			c-0.4,6.7,1.9,19.7-1.9,20.2C1247,708.9,1234.1,691.5,1240.5,678.2z"/>
		<path class="st7" d="M1252.1,775.9c0,0-3.5,2-9.9,21.5c0,0,7.3,9.1,16.2,8.2C1258.4,805.6,1259.6,778.1,1252.1,775.9z"/>
		<path class="st6" d="M1363.8,1331.3h62.4c0,0,1.5-9.5-1.8-16.7c-3.1-6.9-8-10.1-6.8-18.5c-4,4.1-10.4,8.7-19.5,7.4
			c-1.1,1.8-7.1,11.4-10.8,14C1383.3,1320.6,1365.1,1319.5,1363.8,1331.3z"/>
		<path class="st6" d="M1229.8,1331.3h62.4c0,0,2.3-10-1.8-16.7c-3.6-6-2.2-9.4,0.4-14.4c-2.8,1.2-6.5,2.2-10.5,2
			c-3.1-0.2-6.4-1.6-9.3-3.3c-2.7,3.1-14.2,16.1-17.8,18.7C1249.2,1320.6,1231,1319.5,1229.8,1331.3z"/>
		<path class="st3" d="M1173.4,854.5c0,0-5.5-7.4-8.9-8.9c-3.4-1.5-6.7-11.1-8.6-8.2c-1.2,1.8,1.8,8.4,1,9.9
			c-0.7,1.5-8.3-1.7-9.6-3.8c-0.9-1.4-8.7-10.8-8.8-6.5c-0.2,4.3,6.6,20.9,10,23.1c3.4,2.1,16,5,16,5L1173.4,854.5z"/>
		<path class="st32" d="M1343.6,814.1c-14.1,34.5-68.5,77.3-68.5,77.3l-0.9-1.1c-1.7-7.4-3.6-15-5.5-22.4l57.9-53.9H1343.6z"/>
		<path class="st3" d="M1166.3,855.2l-1.8,9.9c0,0,31.1,7.1,37.9,8.6l0.1,0c11.8,2.3,25.2,4.8,36.8,6c8.2,0.8,15.6,1,21,0.3
			c0.5-0.1,1-0.2,1.6-0.3c13.3-2.7,35-18.5,54.7-37.1c2.7-2.6,5.4-5.2,8-7.7c9.5-9.5,18.1-19.1,24.6-27.9c3.9-5.2,7.2-10.1,9.4-14.4
			c0.8-1.5,1.5-2.9,2.1-4.3c11.2-24.8,0.5-33.8,0.5-33.8c-0.2-0.2-0.4-0.4-0.7-0.6c-2-1.3-4.9-0.9-8.5,0.9
			c-4.5,2.2-10.2,6.5-16.5,11.9c-9.9,8.8-69.4,81.2-83.3,83.9C1240,852.9,1166.3,855.2,1166.3,855.2z"/>
		<path class="st7" d="M1354.8,750.4c0,0,12.1,3.4,13.2,16.1c1.1,12.7-0.6,52-0.6,52s-39.6-11.4-55.8-35.6
			C1311.6,782.9,1340.7,750.8,1354.8,750.4z"/>
	</g>
	<path class="st33" d="M2891,1343.3H4.1c-2.3,0-4.1-1.8-4.1-4.1v-3.8c0-2.3,1.8-4.1,4.1-4.1H2891c2.3,0,4.1,1.8,4.1,4.1v3.8
		C2895.1,1341.5,2893.2,1343.3,2891,1343.3z"/>
</g>
<g>
	<path class="st19" d="M1452.8,604.3c-0.2-2-2.2-3.8-5.8-5.2c3.8-2.1,5.9-4.4,5.8-6.6c-0.5-6.7-21.8-10.5-47.5-8.4
		c-25.7,2.1-46,9.2-45.5,15.9c0.2,2,2.2,3.8,5.8,5.2c-3.8,2.1-5.9,4.4-5.8,6.6c0.2,2,2.2,3.8,5.8,5.2c-3.8,2.1-5.9,4.4-5.8,6.6
		c0.2,2,2.2,3.8,5.8,5.2c-3.8,2.1-5.9,4.4-5.8,6.6c0.2,3,4.5,5.4,11.5,6.9c-0.1,2.2,0,4.6,0.2,7.3c1,12.4,14.9,22.1,33.3,22.1
		c18.4,0,34.3-13.2,34.5-25.6c0-3-0.1-5.7-0.4-8.1c8.8-2.9,14.2-6.5,13.9-10c-0.2-2-2.2-3.8-5.8-5.2c3.8-2.1,5.9-4.4,5.8-6.6
		c-0.2-2-2.2-3.8-5.8-5.2C1450.8,608.8,1452.9,606.6,1452.8,604.3z"/>
	<g>
		<path class="st34" d="M1393.4,645c-7.6,0-14.6-0.6-20.4-1.7c-0.3-0.1-0.6-0.4-0.5-0.7c0.1-0.3,0.4-0.6,0.7-0.5
			c9,1.7,21.1,2.1,33.9,1.1c10.5-0.8,20.4-2.5,28.4-4.9c0.3-0.1,0.7,0.1,0.8,0.4c0.1,0.3-0.1,0.7-0.4,0.8c-8.2,2.4-18.1,4.1-28.7,5
			C1402.5,644.8,1397.9,645,1393.4,645z"/>
		<path class="st34" d="M1393.5,633.2c-9.9,0-18.8-0.9-25-2.7c-0.3-0.1-0.5-0.4-0.4-0.8c0.1-0.3,0.4-0.5,0.8-0.4
			c8.9,2.5,23.2,3.3,38.3,2.1c14.9-1.2,28.9-4.2,37.3-8.1c0.3-0.1,0.7,0,0.8,0.3c0.1,0.3,0,0.7-0.3,0.8c-8.5,3.9-22.6,7-37.7,8.2
			C1402.6,633,1398,633.2,1393.5,633.2z"/>
		<path class="st34" d="M1393.4,621.4c-10.7,0-20.1-1.1-26.4-3.2c-0.3-0.1-0.5-0.5-0.4-0.8c0.1-0.3,0.5-0.5,0.8-0.4
			c8.8,2.9,23.6,3.8,39.8,2.5c14.9-1.2,28.9-4.2,37.3-8.1c0.3-0.1,0.7,0,0.8,0.3c0.1,0.3,0,0.7-0.3,0.8c-8.5,3.9-22.6,7-37.7,8.2
			C1402.5,621.2,1397.9,621.4,1393.4,621.4z"/>
		<path class="st34" d="M1393.5,609.6c-8.5,0-16.2-0.7-22.2-2c-0.3-0.1-0.5-0.4-0.5-0.7c0.1-0.3,0.4-0.5,0.7-0.5
			c9,2,22,2.5,35.6,1.4c14.8-1.2,28.7-4.2,37.1-8c0.3-0.1,0.7,0,0.8,0.3c0.1,0.3,0,0.7-0.3,0.8c-8.5,3.9-22.5,6.9-37.5,8.1
			C1402.6,609.4,1397.9,609.6,1393.5,609.6z"/>
	</g>
	<path class="st35" d="M1342.6,544.8c-3.1-11-8.4-21.4-15.5-30.4c-15.3-19.3-40.2-58.4-43.3-111.9c-4.5-77.8,64.5-116.7,127.4-111.4
		c62.9,5.3,125,52.1,118.2,124.5c-4.2,44.5-29.1,78.3-47.6,97.7c-11.8,12.3-20.2,27.4-24.7,43.8c-5.6,20.1-18.8,45.1-50.3,46.7
		C1366,605.8,1349,567.8,1342.6,544.8z"/>
	<linearGradient id="SVGID_1_" gradientUnits="userSpaceOnUse" x1="1429.6365" y1="486.1114" x2="1438.6797" y2="773.4371">
		<stop  offset="0" style="stop-color:#D05245"/>
		<stop  offset="1" style="stop-color:#D8685F"/>
	</linearGradient>
	<path class="st36" d="M1417.1,588.3l22-143.2c0.5-3,1.9-4.9,3.3-4.4c1.3,0.5,2.1,3.3,1.6,6.3c0,0.1,0,0.2,0,0.3L1418.9,589
		c-0.2,1.1-0.7,1.7-1.2,1.5C1417.2,590.3,1417,589.3,1417.1,588.3z"/>
	<linearGradient id="SVGID_2_" gradientUnits="userSpaceOnUse" x1="1379.822" y1="487.6794" x2="1388.8651" y2="775.0058">
		<stop  offset="0" style="stop-color:#D05245"/>
		<stop  offset="1" style="stop-color:#D8685F"/>
	</linearGradient>
	<path class="st37" d="M1394.3,589.4l-22-143.2c-0.5-3-1.9-4.9-3.3-4.4c-1.3,0.5-2.1,3.3-1.6,6.3c0,0.1,0,0.2,0,0.3l25.1,141.9
		c0.2,1.1,0.7,1.7,1.2,1.5C1394.2,591.4,1394.4,590.4,1394.3,589.4z"/>
	<path class="st19" d="M1439,432.8c-0.6-0.9-1.9-1.2-2.9-0.8l-12.3,5.7l-4.3-12.1c-0.2-0.6-0.7-1.2-1.5-1.5
		c-1.4-0.6-3.1-0.1-3.8,1.2l0,0l-10.1,18.4l-9.4-26.2l0,0c-0.2-0.6-0.7-1.2-1.4-1.6c-1.6-0.9-3.6-0.4-4.6,0.9l-14.1,19.4
		c-0.6,0.8-0.4,1.9,0.5,2.4c0.9,0.6,2.3,0.5,3-0.3l12.4-13.8l11.2,24.9l0,0c0.2,0.4,0.5,0.7,1,1c1,0.5,2.4,0.2,2.9-0.8l10.8-17.3
		l4.1,8.8l0,0.1c0,0.1,0.1,0.1,0.1,0.2c0.6,0.9,1.9,1.2,2.9,0.7l14.6-6.8C1439.2,434.8,1439.5,433.6,1439,432.8z"/>
</g>
<g>
	<path d="M1684.8,929.2c0.3-1,0.9-3.1,1.4-4.3h0.1c0.2,0.3,0.3,0.5,0.4,0.7c-0.6,1.1-1.1,2.8-1.5,4.4c-0.1,0.1-0.3,0.3-0.4,0.4h-0.1
		c-0.3-1.4-1-3.2-2-4.9c0.2-0.2,0.3-0.4,0.5-0.6h0.1C1683.8,925.9,1684.6,928.1,1684.8,929.2L1684.8,929.2z"/>
	<path d="M1687.6,926.6v-0.2c0-0.3,0-0.5,0.1-0.7c0.1-0.2,0.2-0.6,0.7-1c0.3-0.3,0.6-0.4,1-0.5c0.3,0,0.6,0.1,0.7,0.3
		c0.1,0.1,0.1,0.2,0,0.3c0,0.1-0.1,0.1-0.2,0.2c-0.1,0.1-0.2,0.1-0.3,0c-0.2-0.2-0.4-0.3-0.7-0.3c-0.2,0-0.4,0.1-0.4,0.3
		c-0.1,0.2-0.2,0.6-0.2,1.3v0.4h1c0.1,0.1,0,0.3-0.1,0.4h-0.9v2.4c0,0.6,0.1,0.7,0.8,0.7v0.2h-2.1v-0.2c0.6-0.1,0.6-0.1,0.6-0.7
		v-2.5h-0.6l0-0.1l0.2-0.3H1687.6z"/>
	<path d="M1691.6,925.3c0.9,0,1.6,1.5,1.6,2.5c0,0.4,0,1-0.2,1.3c-0.2,0.4-0.9,0.9-1.6,0.9c-0.7,0-1.5-0.4-1.5-1.9
		C1689.8,926.6,1690.7,925.3,1691.6,925.3z M1692.8,928.2c0-0.3-0.4-2-1.3-2c-0.6,0-1.3,1-1.3,1.8c0,0.5,0.5,1.2,1.3,1.2
		C1692.3,929.2,1692.8,928.4,1692.8,928.2z"/>
	<path d="M1695.5,927.1c0.8,0.5,1.1,0.8,1.1,0.9c0,0.1-0.2,0.5-0.5,0.9c-0.4-0.3-0.8-0.6-1.1-0.8
		C1695.2,927.7,1695.4,927.4,1695.5,927.1z"/>
	<path d="M1701.3,929.6c-0.6,0.7-1.2,0.9-1.5,0.9c-1.1,0-1.7-0.9-1.7-1.8c0-0.6,0.2-1.1,0.6-1.5c0.4-0.4,0.8-0.7,1.3-0.7h0
		c0.7,0,1.3,0.6,1.3,1.3c0,0.2,0,0.2-0.2,0.3c-0.2,0-1.2,0.1-2.3,0.1c0,1.1,0.7,1.6,1.3,1.6c0.4,0,0.7-0.1,1-0.4L1701.3,929.6z
		 M1699.8,926.8c-0.4,0-0.8,0.3-0.9,1c0.5,0,0.9,0,1.4,0c0.2,0,0.2-0.1,0.2-0.2C1700.6,927.2,1700.3,926.8,1699.8,926.8
		L1699.8,926.8z"/>
	<path d="M1703.9,929.2c0.3-1,0.9-3.1,1.4-4.3h0.1c0.2,0.3,0.3,0.5,0.4,0.7c-0.6,1.1-1.1,2.8-1.5,4.4c-0.1,0.1-0.3,0.3-0.4,0.4h-0.1
		c-0.3-1.4-1-3.2-2-4.9c0.2-0.2,0.3-0.4,0.5-0.6h0.1C1702.9,925.9,1703.7,928.1,1703.9,929.2L1703.9,929.2z"/>
</g>
</svg>
