<?xml version="1.0" encoding="utf-8"?>
<!-- Generator: Adobe Illustrator 23.1.0, SVG Export Plug-In . SVG Version: 6.00 Build 0)  -->
<svg version="1.1" id="Illustration" xmlns="http://www.w3.org/2000/svg" xmlns:xlink="http://www.w3.org/1999/xlink" x="0px"
	 y="0px" viewBox="0 0 1200 800" style="enable-background:new 0 0 1200 800;" xml:space="preserve">
<style type="text/css">
	.st0{fill:#F49390;}
	.st1{display:none;opacity:0.5;fill:#CAC2ED;}
	.st2{fill:#6836E0;}
	.st3{opacity:0.5;fill:url(#SVGID_1_);}
	.st4{fill:#8E6BDD;}
	.st5{display:none;opacity:0.26;fill:#AF90EF;}
	.st6{fill:#885AE9;}
	.st7{fill:#F0F0F0;}
	.st8{fill:url(#SVGID_2_);}
	.st9{fill:#FFFFFF;}
	.st10{opacity:0.37;fill:#FFFFFF;}
	.st11{fill:url(#SVGID_3_);}
	.st12{fill:#78CAD2;}
	.st13{opacity:0.58;fill:#FFFFFF;}
	.st14{fill:#CBB4F9;}
	.st15{fill:#18093C;}
	.st16{fill:#EF9D65;}
	.st17{fill:#A477F2;}
	.st18{fill:#666694;}
	.st19{fill:#FFB27D;}
	.st20{fill:url(#SVGID_4_);}
	.st21{fill:url(#SVGID_5_);}
	.st22{fill:url(#SVGID_6_);}
	.st23{fill:#7F50E7;}
	.st24{fill:url(#SVGID_7_);}
	.st25{fill:url(#SVGID_8_);}
	.st26{fill:url(#SVGID_9_);}
	.st27{fill:url(#SVGID_10_);}
	.st28{fill:url(#SVGID_11_);}
	.st29{fill:url(#SVGID_12_);}
	.st30{fill:#F47E7E;}
	.st31{display:none;}
	.st32{display:inline;fill:#F47E7E;}
</style>
<g>
	<path class="st0" d="M803.6,117.2c-5.1-24.1-17.7-15.8-38.8-23.2c-21.1-7.4-14.9-33.8-28.1-42c-17.5-10.9-33.5-0.8-44.4,13.5
		c-18.1,23.7-30.4,4.4-52,14c-12.4,5.5-7.1,13.2-23.8,16.3c-11.7,2.2-24.4-2.9-35.9,0.2c-8.5,2.3-14.7,6.4-16.6,14.6
		c2.4,1.1,4.9,2.2,7.5,3.1c32.3,11.6,76.3,7.7,108.9,9.5C691.5,123.8,807.2,134.3,803.6,117.2z"/>
	<path class="st0" d="M1023.3,67.2c-5.5-6.8-13.8-9.6-21.9-7.5c-8.8,2.2-13.8,10.7-22,14c-14.3,5.9-34.2-5.7-45.1,9.4
		c-13.3,18.6-23.6,4.6-23.6,17.2s92.1,3.3,137.5,4c6.6,0.1,35.1-0.4,22.8-14c-3.8-4.2-9.2-4.9-14.3-5.9c-6.6-1.3-22.3-2-27.1-7.1
		c-2.6-2.8-3.6-6.7-5.9-9.7C1023.5,67.5,1023.4,67.4,1023.3,67.2z"/>
	<path class="st1" d="M213,96.2c-84.6,69.9,28.5,159.6-30.1,198.8c-58.6,39.2-301.1,115.6-56.9,267.1s251,252,425.4,156
		s161.9-113.2,305.4-48.3s293.5-36.1,242.5-155.8c-51-119.8-83.5-118.3-25.2-194.8c58.2-76.5-32.8-288.2-233.3-124.6
		S514.8,236,492.8,174.8C470.8,113.6,346.6-14.3,213,96.2z"/>
	<g>
		<path class="st2" d="M929.3,753.7c0,0,41-176.2,145.6-301.2c19.2-23,56.5-9.6,56.6,20.4C1132,560,1104.2,702.4,929.3,753.7z"/>
		
			<linearGradient id="SVGID_1_" gradientUnits="userSpaceOnUse" x1="-936.4171" y1="619.3892" x2="-811.5967" y2="619.3892" gradientTransform="matrix(0.9876 0.1568 -0.1568 0.9876 1980.7242 132.2967)">
			<stop  offset="0" style="stop-color:#B37CFF"/>
			<stop  offset="0.7717" style="stop-color:#E88FEC"/>
			<stop  offset="1" style="stop-color:#F895E7"/>
		</linearGradient>
		<path class="st3" d="M1105.2,471.1c-3.1,13.2-7.1,26.1-11.5,39c-4.4,12.8-9.2,25.5-14.5,38c-10.5,25-22.6,49.3-36.4,72.7
			c-6.9,11.7-14.2,23.2-22,34.3c-3.8,5.6-8,11-12,16.5c-4.2,5.4-8.3,10.8-12.7,15.9c-17.3,20.9-36.7,40.2-58.1,56.9
			c-0.6,0.5-1.6,0.4-2.1-0.3c-0.5-0.6-0.4-1.4,0.1-2l0,0c19.6-18.4,37.7-38.2,54-59.4c4.2-5.2,8-10.7,12.1-16
			c3.8-5.5,7.8-10.9,11.4-16.5c1.8-2.8,3.8-5.5,5.6-8.4l5.4-8.4c1.8-2.8,3.5-5.7,5.3-8.5c1.8-2.8,3.5-5.7,5.1-8.6
			c3.4-5.7,6.7-11.6,10-17.4c3.2-5.9,6.4-11.8,9.4-17.7c6.2-11.9,12-23.9,17.7-36.1c5.6-12.2,10.9-24.5,16-36.9
			c5.1-12.4,9.9-25,14.2-37.7l0,0c0.3-0.8,1.1-1.2,1.9-0.9C1105,469.6,1105.4,470.4,1105.2,471.1z"/>
	</g>
	<g>
		<path class="st4" d="M966.7,740.8c0,0,85.9-123.4,181.9-154.8c23.8-7.8,44.2,18.4,31,39.6C1152.7,668.8,1093.2,728.2,966.7,740.8z
			"/>
		<path class="st2" d="M1170.4,604.9c-7.4,6.7-14.9,13.1-22.6,19.4c-3.9,3.1-7.7,6.2-11.6,9.3c-3.9,3-7.8,6.1-11.7,9.1
			c-15.8,12-32,23.5-48.5,34.4c-8.2,5.5-16.7,10.7-25.1,16l-12.8,7.6c-2.1,1.3-4.3,2.5-6.4,3.8l-6.5,3.6
			c-17.2,9.9-35.1,18.6-53.1,26.9c-0.6,0.3-1.4,0-1.7-0.6c-0.3-0.6,0-1.4,0.6-1.7l0,0l13.3-6.6l6.6-3.3c2.2-1.1,4.4-2.3,6.5-3.5
			l13.1-6.9c4.3-2.4,8.6-4.9,12.9-7.3l6.4-3.7l6.4-3.8l12.7-7.6c8.3-5.3,16.8-10.5,24.9-16c8.3-5.4,16.4-11.1,24.5-16.7l12-8.6
			l11.9-8.8c4-2.9,7.9-6,11.8-9c3.9-3,7.8-6.1,11.7-9.2c7.7-6.2,15.4-12.4,22.8-18.9l0,0c0.5-0.5,1.3-0.4,1.8,0.1
			C1171,603.7,1170.9,604.4,1170.4,604.9z"/>
	</g>
	<path class="st5" d="M303.5,117.8C245.6,185,44.9,110.3,47,234.3C49.5,379.4,246.8,422,182.9,524s6.7,216.3,263.4,214.1
		C703,736,1116,608,1016.5,469c-99.5-139-33.2-146.1-28.4-207.6c4.9-61.4-45.5-196.2-244.3-83.8S450-52.4,303.5,117.8z"/>
	<g>
		<path class="st4" d="M323.8,681.6c-39.2,7.8-89.2-34.9-105.3-81.5c-16.6-48,13.8-68.1,13.6-134.7c-0.3-75.7-39.6-87.1-65.7-189.1
			c-5.9-23-39.9-156.2,2.3-181.2c39-23.1,148.4,43.2,167.6,127.9c13.7,60.5-28.6,85.8-12.5,156.2c14.2,61.8,51.4,62.7,65.7,122.3
			C406.9,574.2,375.2,671.3,323.8,681.6z"/>
		<path class="st2" d="M321,700c10.6-81.5-10-207.3-29.2-298.5c-20.7-98.7-44.2-179.2-44.5-180l-3.3,1c0.2,0.8,23.7,81.2,44.4,179.8
			c19.1,90.9,39.6,216.3,29.1,297.3L321,700z"/>
	</g>
	<g>
		<path class="st2" d="M285.9,711.3c51.4-26.8,69-118.7,39.8-148.6c-19.7-20.2-48,1-75.3-19.9c-34.9-26.7-9.2-77-36.6-142.3
			c-23.3-55.5-79.3-108.1-111.9-97.3c-34.2,11.3-52.2,95-23,145.4c19,32.8,48.1,34.4,54.4,64.9c7.3,35.4-28.1,51.5-28.2,85.8
			C104.5,661,217.9,746.7,285.9,711.3z"/>
		<path class="st6" d="M258.1,734.8c0.3,0,0.6-0.1,0.9-0.2c1-0.5,1.5-1.8,1-2.8c-68.1-140.3-88.1-303.2-88.3-304.8
			c-0.1-1.1-1.2-2-2.3-1.8c-1.1,0.1-2,1.2-1.8,2.3c0.2,1.6,20.3,165.2,88.7,306.1C256.6,734.4,257.4,734.8,258.1,734.8z"/>
		<path class="st7" d="M118.4,469.2c0.2,0,0.4-0.1,0.6-0.2c0.4-0.3,0.5-1,0.2-1.4C97.7,440,73.9,398.5,82.4,357.7
			c5.1-24.3,19.5-37,19.6-37.1c0.4-0.4,0.5-1,0.1-1.4c-0.4-0.4-1-0.5-1.4-0.1c-0.6,0.5-15,13.2-20.3,38.2
			c-4.8,22.9-2.3,60.9,37.1,111.5C117.8,469.1,118.1,469.2,118.4,469.2z"/>
		<path class="st7" d="M290.5,699c0.3,0,0.6-0.2,0.8-0.4c33-48.2,44.3-85.5,33.5-110.7c-9.6-22.5-33.9-26.6-34.2-26.7
			c-0.5-0.1-1.1,0.3-1.1,0.8c-0.1,0.5,0.3,1.1,0.8,1.1c0.2,0,23.5,4.1,32.6,25.5c10.5,24.6-0.7,61.2-33.3,108.8
			c-0.3,0.5-0.2,1.1,0.3,1.4C290.1,699,290.3,699,290.5,699z"/>
	</g>
	<g>
		<g>
			<linearGradient id="SVGID_2_" gradientUnits="userSpaceOnUse" x1="564.0187" y1="707.3893" x2="731.1212" y2="206.0807">
				<stop  offset="0" style="stop-color:#2B3582"/>
				<stop  offset="1" style="stop-color:#150E42"/>
			</linearGradient>
			<path class="st8" d="M995.5,725.6c0,7.2-5.9,13.1-13.1,13.1H274.9c-7.2,0-13.1-5.9-13.1-13.1L255.9,319c0-7.2,8.5-21.2,24-20.2
				l691.5-17.9c9-0.2,17.8,3.2,24.2,9.6c6.4,6.4,9.9,15.1,9.7,24.1L995.5,725.6z"/>
			<path class="st0" d="M982.6,713c0,6.8-5.6,12.4-12.4,12.4H291.9c-6.8,0-12.4-5.6-12.4-12.4L274,343.9
				c0.7-22.2,20.1-30.2,31.9-29.7l662.7-17.8c6.3-0.2,12.5,2.3,17,6.8s7,10.6,6.8,17L982.6,713z"/>
			<g>
				<path class="st9" d="M286.9,536.9c-0.5,0-1-0.4-1-1l-0.4-29.9c0-0.6,0.4-1,1-1c0.5,0,1,0.4,1,1l0.4,29.9
					C287.9,536.4,287.5,536.9,286.9,536.9C286.9,536.9,286.9,536.9,286.9,536.9z"/>
				<path class="st9" d="M285.8,463.5c-0.5,0-1-0.4-1-1l-1.7-114.6c0-7.7,2.4-13.8,7-18.2c8.4-8,21.5-7.6,22.1-7.6l211.6-5.7
					c0.6,0,1,0.4,1,1c0,0.6-0.4,1-1,1l-211.7,5.7c-0.6,0-12.9-0.4-20.7,7.1c-4.2,4-6.4,9.7-6.4,16.7l1.7,114.6
					C286.8,463,286.4,463.5,285.8,463.5C285.8,463.5,285.8,463.5,285.8,463.5z"/>
			</g>
			<path class="st10" d="M309.4,692.6c0.7-30.5,0.4-300.7-1.3-324c-1.8-23.3,34.6-27.7,90.4-30.3c55.8-2.6,526.5-13,538.6-14
				c27.2-2.2,32.9,38.5,30.2,126.9c-2,66.4-5.4,175.8-7,226.1c-0.5,15-12.7,26.9-27.7,26.9c-113.3,0.3-547.4,1.6-576.3,2.4
				C323,707.6,309.2,704.7,309.4,692.6z"/>
		</g>
		<linearGradient id="SVGID_3_" gradientUnits="userSpaceOnUse" x1="952.0292" y1="664.6198" x2="209.8278" y2="845.1552">
			<stop  offset="0" style="stop-color:#2B3582"/>
			<stop  offset="1" style="stop-color:#150E42"/>
		</linearGradient>
		<path class="st11" d="M1045.4,759.4H226.2c-4.1,0-7.5-3.4-7.5-7.5v-20.7c0-4.1,3.4-7.5,7.5-7.5h819.1c4.1,0,7.5,3.4,7.5,7.5v20.7
			C1052.9,756,1049.5,759.4,1045.4,759.4z"/>
	</g>
	<path class="st6" d="M788.6,148.5l-390-2.4c-12.8-0.1-23.1,10.6-22.4,23.4L403,723.7h434l24.1-495.1L788.6,148.5z"/>
	<path class="st12" d="M804.8,226.2c-12.7-0.4-22.5-11.4-21.5-24.1l4.2-52.9l73.6,79L804.8,226.2z"/>
	<path class="st13" d="M766,219H556c-6.1,0-11,4.9-11,11s4.9,11,11,11h210c6.1,0,11-4.9,11-11S772.1,219,766,219z"/>
	<path class="st13" d="M772.7,269H556.3c-6.3,0-11.3,4.9-11.3,11s5.1,11,11.3,11h216.3c6.3,0,11.3-4.9,11.3-11S778.9,269,772.7,269z
		"/>
	<path class="st13" d="M772.7,312H556.3c-6.3,0-11.3,4.9-11.3,11s5.1,11,11.3,11h216.3c6.3,0,11.3-4.9,11.3-11S778.9,312,772.7,312z
		"/>
	<path class="st13" d="M772.7,355H556.3c-6.3,0-11.3,4.9-11.3,11s5.1,11,11.3,11h216.3c6.3,0,11.3-4.9,11.3-11S778.9,355,772.7,355z
		"/>
	<path class="st13" d="M767.5,422h-315c-9.1,0-16.5,4.9-16.5,11s7.4,11,16.5,11h315c9.1,0,16.5-4.9,16.5-11S776.6,422,767.5,422z"/>
	<path class="st13" d="M767.5,465h-315c-9.1,0-16.5,4.9-16.5,11s7.4,11,16.5,11h315c9.1,0,16.5-4.9,16.5-11S776.6,465,767.5,465z"/>
	<path class="st13" d="M767.5,508h-315c-9.1,0-16.5,4.9-16.5,11s7.4,11,16.5,11h315c9.1,0,16.5-4.9,16.5-11S776.6,508,767.5,508z"/>
	<path class="st13" d="M767.5,575h-315c-9.1,0-16.5,4.9-16.5,11s7.4,11,16.5,11h315c9.1,0,16.5-4.9,16.5-11S776.6,575,767.5,575z"/>
	<path class="st13" d="M767.5,618h-315c-9.1,0-16.5,4.9-16.5,11s7.4,11,16.5,11h315c9.1,0,16.5-4.9,16.5-11S776.6,618,767.5,618z"/>
	<path class="st13" d="M767.5,661h-315c-9.1,0-16.5,4.9-16.5,11s7.4,11,16.5,11h315c9.1,0,16.5-4.9,16.5-11S776.6,661,767.5,661z"/>
	<g>
		<path class="st14" d="M482.6,377H365.4c-21.2,0-38.4-17.2-38.4-38.4V235.4c0-21.2,17.2-38.4,38.4-38.4h117.2
			c21.2,0,38.4,17.2,38.4,38.4v103.2C521,359.8,503.8,377,482.6,377z"/>
		<g>
			<path class="st9" d="M481,356.4h-16.3c-3.6,0-6.8-2.3-7.8-5.7l-6.7-20.9c-0.8-2.5-3.1-4.2-5.7-4.2H404c-2.6,0-4.9,1.7-5.7,4.2
				l-6.6,20.9c-1.1,3.4-4.3,5.7-7.8,5.7h-16c-5.7,0-9.7-5.7-7.7-11l41.4-113.7c3-8.3,10.9-13.7,19.6-13.7h7.6
				c8.8,0,16.7,5.6,19.7,13.9l40.4,113.6C490.7,350.8,486.7,356.4,481,356.4z M439.6,294.7l-13-42.7c-0.8-2.6-4.5-2.6-5.3,0
				c-3.4,12-9.6,32.1-12.9,42.6c-1.1,3.5,1.5,7,5.2,7h20.8C438,301.6,440.6,298.1,439.6,294.7z"/>
		</g>
		<path class="st9" d="M340,315.5h-1v-83.8c0-10.9,8.8-19.7,19.7-19.7h35.8v1h-35.8c-10.3,0-18.7,8.4-18.7,18.7V315.5z"/>
	</g>
	<g>
		<g>
			<path class="st12" d="M326.5,762.4c-1.5,0-2.8-0.9-3-2.3l-47.6-252c-0.3-1.5,0.8-2.9,2.5-3.2c1.7-0.2,3.2,0.8,3.5,2.2l47.6,252
				c0.3,1.5-0.8,2.9-2.5,3.2C326.8,762.4,326.7,762.4,326.5,762.4z"/>
			<path class="st12" d="M165.9,762.4c-0.2,0-0.4,0-0.6-0.1c-1.7-0.3-2.7-1.7-2.4-3.2L219,510.4c0.3-1.5,1.9-2.4,3.6-2.1
				c1.7,0.3,2.7,1.7,2.4,3.2l-56.1,248.7C168.6,761.5,167.3,762.4,165.9,762.4z"/>
			<path class="st12" d="M290.2,570.4h-81.4c-1.7,0-3.1-1.2-3.1-2.7c0-1.5,1.4-2.7,3.1-2.7h81.4c1.7,0,3.1,1.2,3.1,2.7
				C293.2,569.2,291.8,570.4,290.2,570.4z"/>
			<path class="st12" d="M288.7,570.4h-78.4c-1.6,0-2.9-1.2-2.9-2.7c0-1.5,1.3-2.7,2.9-2.7h78.4c1.6,0,2.9,1.2,2.9,2.7
				C291.6,569.2,290.3,570.4,288.7,570.4z"/>
			<path class="st12" d="M290.2,616h-81.4c-1.7,0-3.1-1.2-3.1-2.7c0-1.5,1.4-2.7,3.1-2.7h81.4c1.7,0,3.1,1.2,3.1,2.7
				C293.2,614.8,291.8,616,290.2,616z"/>
			<path class="st12" d="M297.5,616h-98.6c-1.7,0-3.1-1.2-3.1-2.7c0-1.5,1.4-2.7,3.1-2.7h98.6c1.7,0,3.1,1.2,3.1,2.7
				C300.6,614.8,299.2,616,297.5,616z"/>
			<path class="st12" d="M290.2,661.6h-81.4c-1.7,0-3.1-1.2-3.1-2.7c0-1.5,1.4-2.7,3.1-2.7h81.4c1.7,0,3.1,1.2,3.1,2.7
				C293.2,660.3,291.8,661.6,290.2,661.6z"/>
			<path class="st12" d="M307,661.6H188.9c-1.7,0-3.1-1.2-3.1-2.7c0-1.5,1.4-2.7,3.1-2.7H307c1.7,0,3.1,1.2,3.1,2.7
				C310,660.3,308.7,661.6,307,661.6z"/>
			<path class="st12" d="M290.2,707.1H179.4c-1.7,0-3.1-1.2-3.1-2.7c0-1.5,1.4-2.7,3.1-2.7h110.8c1.7,0,3.1,1.2,3.1,2.7
				C293.2,705.9,291.8,707.1,290.2,707.1z"/>
			<path class="st12" d="M314.6,707.1H179.4c-1.7,0-3.1-1.2-3.1-2.7c0-1.5,1.4-2.7,3.1-2.7h135.2c1.7,0,3.1,1.2,3.1,2.7
				C317.6,705.9,316.3,707.1,314.6,707.1z"/>
		</g>
		<g>
			<path class="st15" d="M217,554.1c0,0-2,3.1-2.5,11.9c0,0.8,0.6,1.5,1.4,1.5h15.5c0.6,0,1.1-0.6,0.9-1.2c-0.9-2.7-3.7-9.3-9.8-13
				L217,554.1z"/>
			<path class="st16" d="M216.3,548.2l0.9,7.4c0.1,0.6,0.6,1.1,1.2,1.2c0.8,0.1,2.1,0.2,3.3,0c1.1-0.2,1.9-1.2,1.9-2.3v-7.1
				L216.3,548.2z"/>
			<path class="st15" d="M255.4,553.3c0,0-3,4.6-2.9,11c0,1.5,1.3,2.7,2.8,2.7h24.1c1.1,0,1.6-1.5,0.7-2.1
				c-4.6-3.2-13.5-9.2-20-11.5H255.4z"/>
			<path class="st16" d="M252.9,545.4l1.9,9.1c0.2,1,1.2,1.7,2.2,1.5c0.6-0.1,1.3-0.4,2.1-0.9c0.7-0.5,1.1-1.3,1-2.2l-1.9-11
				L252.9,545.4z"/>
			<path class="st17" d="M219.7,418.9c0,0-6.5,5.7-7.7,12.7c-1.2,6.9,3.5,119.2,3.5,119.2s6.5,1.1,9.9-1c0,0,4-72.9,7-89.7
				c0,0,15.9,75.5,20.3,89.1c0,0,6.3,0.8,8.3-0.4c0,0-4.2-97.9-9.4-115.3L219.7,418.9z"/>
			<path class="st18" d="M232.2,457.8c-0.3,0-0.6-0.2-0.7-0.6l-2.7-10.3l-5.7-3.7c-0.3-0.2-0.5-0.7-0.2-1c0.2-0.3,0.7-0.5,1-0.2
				l6,3.8c0.2,0.1,0.3,0.3,0.3,0.4l2.8,10.6c0.1,0.4-0.1,0.8-0.5,0.9C232.3,457.8,232.2,457.8,232.2,457.8z"/>
			<path class="st15" d="M284,354c-27.4-2.3-34.6,3.4-34.6,3.4l13.2,20.8c0,0,26.9-0.5,46.3-15.4c-3.6-3.9-6.1-8.2-7.7-11.5
				C296.1,353.3,290.4,354.6,284,354z"/>
			<path class="st19" d="M327,313.8c0-0.9-1.2-1.1-1.6-0.3l-3.5,7.5c-0.7,1.4-0.9,3.1-0.6,4.6l1.2,4.3c0.4,2.1-0.2,4.3-1.5,6
				c-3.2,4-10.1,11.4-19.8,15.4c1.6,3.3,4.1,7.6,7.7,11.5c7.1-5.5,13.1-12.8,16.5-22.9c1.6-0.5,2.7-2,2.6-3.6L327,313.8z"/>
			<path class="st15" d="M293,366.1c-9.7-10.4-28-15.1-38.7-17c-4.7-0.8-9.3,1.7-10.9,6.2c-4.8,12.9-17.8,46.4-20.3,52.1
				c-2.1,4.7-4.2,9.3-5.6,12.2c-0.8,1.7-0.1,3.8,1.6,4.6c9,4.3,25.1,9.2,31.6,11.1c1.4,0.4,2.9-0.7,2.9-2.2c0-1.3,0.3-2.5,1-3.6
				l24.7-41.2c15.4,17.1,28.9,18.7,39.3,14.9c-1.7-5.4-2.9-10.8-3.4-16.2C299.9,384.4,293,366.1,293,366.1z"/>
			<path class="st16" d="M340.5,384.2l-2.8-3.7c-9,6.2-16.4,7.6-22.6,6.6c0.5,5.4,1.7,10.8,3.4,16.2
				C332.3,398.3,340.5,384.2,340.5,384.2z"/>
			<path class="st16" d="M338.6,384.3l15.6,0.6l14.3-8c-2.1-1.3-13.7,1.3-13.7,1.3s-12.2-1.8-15.5-1.8c-2.7,0-2.3,3.9-2.1,5.3
				c0,0.3,0.1,0.4,0.1,0.4L338.6,384.3z"/>
			<path class="st16" d="M269,330l-8.2,20.1c0,0,9.4,6.5,17.1,5.9l4.1-18L269,330z"/>
			<g>
				<path class="st19" d="M282.9,316.3c0.2,0.3,5.9,21.1,5.9,21.1l-12,3l-8.4-18.9C268.5,321.5,279.7,311.8,282.9,316.3z"/>
				
					<linearGradient id="SVGID_4_" gradientUnits="userSpaceOnUse" x1="-2690.7915" y1="289.4789" x2="-2688.0261" y2="391.7962" gradientTransform="matrix(-1 0 0 1 -2413.0532 0)">
					<stop  offset="0" style="stop-color:#CB236D"/>
					<stop  offset="1" style="stop-color:#4C246D"/>
				</linearGradient>
				<path class="st20" d="M273,324.3l3.6,10.3c0,0.1,0.1,0.3,0.2,0.4c0.5,0.7,2.4,3,4.6,0.9c2-1.9,3.9-3.5,5.6-3.9
					c0.8-0.1,1.5,0.3,1.7,1.1c0.5,1.9,1.6,6.2,2,10c0.1,0.8-0.5,1.5-1.2,1.6c-2.3,0.4-7.3,1.2-11.4,0.9c-0.6,0-1.1-0.4-1.3-0.9
					c-1.1-2.5-4.6-10-5.9-12c-1.2-1.8-4.2-1.8-5.5-1.7c-0.4,0-0.8-0.1-1.1-0.4c-1.1-1-3.2-3.4-0.2-6.3c0.6-0.6,0.6-1.6,0-2.2
					c-1.3-1.2-2.6-3.3-0.5-5.9c2.1-2.6,4.9-2.2,6.7-1.6c0.7,0.3,1.5,0,1.8-0.7c0.2-0.4,0.6-0.6,1.2-0.6c0.9,0.1,1.6-0.7,1.6-1.5
					c0-1.7,0.6-3.8,3.5-4.8c5.2-1.6,8.5,3.4,8.8,7.2c0.3,3.8-5.4,5.2-8.8,5c-2.6-0.2-4.5,2.4-5.3,3.6
					C272.9,323.4,272.8,323.9,273,324.3z"/>
				<path class="st19" d="M272.3,336.7c0,0-0.8-6.5-3.6-6.9c-2.7-0.3-5.4,1.9-2.7,5.6C269.4,340,272.3,336.7,272.3,336.7z"/>
			</g>
		</g>
	</g>
	<g>
		<path class="st15" d="M995.8,264.3c0,0-7.9,0.4-8.9,16.8c0,0,18.4,16.5,43.3,20.5c1.9,0.3-2.6-12.8-3.3-14.5
			C1023.7,278.6,1013.6,273.2,995.8,264.3z"/>
		<path class="st17" d="M906.3,245.1H923c0,0,51.5-56.9,85.2-62.6c0,0,23.5,30-1.3,86.1c-2,4.5-7.6,6.5-11.7,3.9
			c-1.2-0.8-2.1-1.9-2.7-3.2l2-47.9c0,0-43.9,38.4-51.5,45.8C935.4,274.6,896.6,270.1,906.3,245.1z"/>
		<path class="st15" d="M1068.4,364.5c-7-6.2-18.2-13.1-34.4-15.1l-5.5,3.3c0,0,3.5,5.1,9.9,10.6c5.9,3.4,14.9,8,22.4,9
			C1068.1,373.3,1069.1,368.9,1068.4,364.5z"/>
		<linearGradient id="SVGID_5_" gradientUnits="userSpaceOnUse" x1="1012.0833" y1="285.4643" x2="1049.0834" y2="175.4641">
			<stop  offset="0" style="stop-color:#2B3582"/>
			<stop  offset="1" style="stop-color:#150E42"/>
		</linearGradient>
		<path class="st21" d="M1026.9,287c-4.3,1.4-6.2,7.5-17.2,3.5c-10.6-3.9-18.5-9-22.6-11.9c-0.1,0.8-0.2,1.6-0.2,2.5
			c0,0,19.4,18.5,44.3,22.4c1.9,0.3,3.4-1.6,2.7-3.3C1032.6,297,1030.5,292.2,1026.9,287z"/>
		<linearGradient id="SVGID_6_" gradientUnits="userSpaceOnUse" x1="1076.9495" y1="307.2826" x2="1113.9497" y2="197.282">
			<stop  offset="0" style="stop-color:#2B3582"/>
			<stop  offset="1" style="stop-color:#150E42"/>
		</linearGradient>
		<path class="st22" d="M1073.7,369.7c-1.4-1.6-3.2-3.4-5.3-5.3c0.7,4.4-0.3,8.8-7.6,7.9c-7.5-1-16.5-5.6-22.4-9
			c7.3,6.3,18.5,12.9,32.6,12.5C1074.1,375.8,1075.8,372.1,1073.7,369.7z"/>
		<path class="st23" d="M906.9,257.3l78.5,0.9c0,0,44.9,37.1,53,93.7c0,0,1.4,4.2-6.8,4.9c0,0-27.1-17.7-44.8-49
			c-21.7-38.4-56.6-24.7-56.6-24.7c-42.3,14.4-56.8-7-57.2-12.1L906.9,257.3z"/>
		<path class="st16" d="M908.7,194c0,0,8.5,42.4,49.9,59.1l14.7-1.7l3.5,5.5l-34.6,1.1c0,0-29.5-11.7-45.2-43.6
			C896.5,213.4,887.9,195.6,908.7,194z"/>
		<path class="st15" d="M913.3,256.6c0,0-9.6-26.1-11.7-51.5c0,0,7-6,11.4-8.7c1.4-0.8,2-2.6,1.2-4.1c-3.2-6.7-22.8-33-24.2-33.4
			c-8-2-40.6-17.5-63.6,13.9c-9.9,13.5,2,55,46.7,98.1l1.5,0.3c5,1,10.2,0.2,14.7-2.2L913.3,256.6z"/>
		<path class="st19" d="M876.2,210.8c0,0,26.7,31.6,60.9,36.3c0,0,8.8-8,15.4-5.2c6.6,2.9,15.6,15.6,15.6,15.6h-43.9
			c0,0-41.5-1.5-62.2-26.6C863.7,222,868.7,216.7,876.2,210.8z"/>
		<path class="st16" d="M860.6,136.7l-5.8,19.5c-0.3,0.9,0.1,1.9,0.8,2.4c2.8,1.9,10.2,5.8,20.3,2c1.2-0.4,1.9-1.5,2-2.7l1.4-17
			L860.6,136.7z"/>
		<g>
			<path class="st19" d="M894.9,120.9c0,0-2.9,20.2-10.6,26.4c-7.8,6.2-22.9,1.5-28-13.7l10.2-26L894.9,120.9z"/>
			<linearGradient id="SVGID_7_" gradientUnits="userSpaceOnUse" x1="869.278" y1="69.679" x2="880.4416" y2="133.3525">
				<stop  offset="0" style="stop-color:#2B3582"/>
				<stop  offset="1" style="stop-color:#150E42"/>
			</linearGradient>
			<path class="st24" d="M865.3,124.5c0.6,0.2,1.2-0.2,1.3-0.8c0.3-1.9,1-5.6,2.4-8.1c0,0-0.7-2.7,6.7,1.4c7.4,4,18.6,9.9,25.2,6.4
				c6.4-3.4,12.9-20.6-4-17.4c-0.6,0.1-1.2-0.4-1.2-1c0.2-2.8-0.1-9.3-6.7-11.4c-6.2-2-9.5,0.8-10.9,2.5c-0.4,0.5-1.2,0.5-1.6,0
				c-1.8-2.4-6.9-7.5-14.2-4.3c-6.1,2.7-7,6.4-6.9,8.8c0,0.8-0.7,1.3-1.4,1c-1.9-0.9-4.9-1.3-7.7,2.3c-4,5,1.7,9.3,3.4,10.4
				c0.3,0.2,0.5,0.5,0.5,0.8c0,2.6,0.4,13.8,6.1,20.2c0.5,0.6,1.4,0.4,1.7-0.3l4.3-10.4c0.2-0.5,0.7-0.7,1.2-0.6L865.3,124.5z"/>
			<path class="st19" d="M865.3,126.6c0,0-2.7-10.8-6.7-7.3c-4,3.5,1.1,11.2,5.7,12.7L865.3,126.6z"/>
		</g>
		<linearGradient id="SVGID_8_" gradientUnits="userSpaceOnUse" x1="965.82" y1="224.7373" x2="1022.0978" y2="224.7373">
			<stop  offset="0" style="stop-color:#2B3582"/>
			<stop  offset="1" style="stop-color:#150E42"/>
		</linearGradient>
		<path class="st25" d="M965.8,259.8l19.7-65.7c0.8-2.7,3.2-4.6,6-4.8l26.6-1.8c2.7-0.2,4.7,2.5,3.8,5l-22,62.7
			c-0.7,2-2.5,3.4-4.7,3.7l-26.2,2.9L965.8,259.8z"/>
		<path class="st14" d="M1003.5,213.7c-0.7,1.4-2.6,1.9-4.3,1.1c-1.7-0.8-2.4-2.7-1.7-4.1c0.7-1.4,2.6-1.9,4.3-1.1
			C1003.4,210.4,1004.2,212.2,1003.5,213.7z"/>
		<linearGradient id="SVGID_9_" gradientUnits="userSpaceOnUse" x1="972.6506" y1="249.3378" x2="927.6505" y2="261.6711">
			<stop  offset="0" style="stop-color:#2B3582"/>
			<stop  offset="1" style="stop-color:#150E42"/>
		</linearGradient>
		<path class="st26" d="M969,261.9c0,0-0.1,0-0.1,0l-55.8-2.8c-1.4-0.1-2.4-1.2-2.4-2.6c0.1-1.4,1.2-2.5,2.6-2.4l55.8,2.8
			c1.4,0.1,2.4,1.2,2.4,2.6C971.5,260.8,970.4,261.9,969,261.9z"/>
		<linearGradient id="SVGID_10_" gradientUnits="userSpaceOnUse" x1="936.7365" y1="127.6609" x2="869.7364" y2="241.6609">
			<stop  offset="0" style="stop-color:#53D8FF"/>
			<stop  offset="1" style="stop-color:#3840F7"/>
		</linearGradient>
		<path class="st27" d="M901.6,205.5C901.6,205.5,901.6,205.5,901.6,205.5c-0.3,0-0.5-0.2-0.5-0.5c0-11.6-4.5-27.1-4.5-27.3
			c-0.1-0.3,0.1-0.5,0.3-0.6c0.3-0.1,0.5,0.1,0.6,0.3c0,0.2,4.6,15.8,4.5,27.5C902.1,205.3,901.9,205.5,901.6,205.5z"/>
		<linearGradient id="SVGID_11_" gradientUnits="userSpaceOnUse" x1="916.2172" y1="115.6014" x2="849.2171" y2="229.6014">
			<stop  offset="0" style="stop-color:#53D8FF"/>
			<stop  offset="1" style="stop-color:#3840F7"/>
		</linearGradient>
		<path class="st28" d="M876.2,211.3c-0.1,0-0.3-0.1-0.4-0.2c-0.1-0.2-12.3-15.7-16.5-26.3c-0.1-0.3,0-0.5,0.3-0.6
			c0.3-0.1,0.5,0,0.6,0.3c4.1,10.5,16.3,25.9,16.4,26.1c0.2,0.2,0.1,0.5-0.1,0.7C876.4,211.2,876.3,211.3,876.2,211.3z"/>
		<linearGradient id="SVGID_12_" gradientUnits="userSpaceOnUse" x1="908.7904" y1="111.2368" x2="841.7909" y2="225.2359">
			<stop  offset="0" style="stop-color:#53D8FF"/>
			<stop  offset="1" style="stop-color:#3840F7"/>
		</linearGradient>
		<path class="st29" d="M859.1,235l-0.4-0.2c-17.7-7.6-28.6-28.7-28.7-28.9c-0.1-0.2,0-0.5,0.2-0.7c0.2-0.1,0.5,0,0.7,0.2
			c0.1,0.2,10.7,20.7,27.8,28.2l1.8-2.5c0.2-0.2,0.5-0.3,0.7-0.1c0.2,0.2,0.3,0.5,0.1,0.7L859.1,235z"/>
	</g>
	<g>
		<path class="st12" d="M738.8,564.2c0,0-1.1-138.2,101.9-148.5c103.1-10.4,167.1,34.4,135.1,74.5c-32,40.1-80.1,75.8-123.1,47
			C809.8,508.3,764.9,508.1,738.8,564.2z"/>
		<path class="st13" d="M934.4,475.8c-0.2,0-0.4,0-0.5-0.2c-4.7-3-9.5-5.7-14.3-8.2c-0.5-0.3-0.7-0.9-0.4-1.3
			c0.3-0.5,0.9-0.7,1.3-0.4c4.9,2.5,9.8,5.3,14.5,8.3c0.5,0.3,0.6,0.9,0.3,1.4C935,475.6,934.7,475.8,934.4,475.8z"/>
		<path class="st13" d="M910,462.8c-0.1,0-0.3,0-0.4-0.1c-15.3-6.7-31.2-11.3-47.4-13.4c-0.5-0.1-0.9-0.6-0.9-1.1
			c0.1-0.5,0.6-0.9,1.1-0.9c16.4,2.2,32.5,6.7,48,13.5c0.5,0.2,0.7,0.8,0.5,1.3C910.8,462.6,910.4,462.8,910,462.8z"/>
		<path class="st13" d="M808,451.5c-0.4,0-0.9-0.3-1-0.8c-0.1-0.5,0.2-1.1,0.7-1.2c0.2,0,18.3-4.5,41.4-3.6c0.6,0,1,0.5,1,1
			c0,0.6-0.5,1-1,1c-22.8-0.8-40.7,3.5-40.9,3.6C808.2,451.5,808.1,451.5,808,451.5z"/>
		<path class="st13" d="M913.6,487c-0.2,0-0.4-0.1-0.5-0.2c-6.2-3.9-13.3-7.3-21.2-9.9c-0.5-0.2-0.8-0.7-0.6-1.3
			c0.2-0.5,0.7-0.8,1.3-0.6c8.1,2.7,15.4,6.1,21.7,10.1c0.5,0.3,0.6,0.9,0.3,1.4C914.2,486.9,913.9,487,913.6,487z"/>
		<path class="st13" d="M876.7,472.9c-0.1,0-0.1,0-0.2,0c-33.2-6.8-66.5-2-66.8-2c-0.5,0.1-1.1-0.3-1.1-0.8
			c-0.1-0.5,0.3-1.1,0.8-1.1c0.3,0,34-4.9,67.5,2c0.5,0.1,0.9,0.6,0.8,1.2C877.5,472.5,877.1,472.9,876.7,472.9z"/>
		<path class="st13" d="M920.8,512.8c-0.2,0-0.4-0.1-0.6-0.2c-4.6-3.5-10-6.6-16-9.2c-0.5-0.2-0.7-0.8-0.5-1.3
			c0.2-0.5,0.8-0.7,1.3-0.5c6.1,2.7,11.6,5.9,16.4,9.5c0.4,0.3,0.5,1,0.2,1.4C921.4,512.7,921.1,512.8,920.8,512.8z"/>
		<path class="st13" d="M893.4,499.3c-0.1,0-0.2,0-0.3,0c-13.5-4.3-29.4-7-47.3-7.9c-0.6,0-1-0.5-0.9-1c0-0.6,0.5-1,1-0.9
			c18.1,0.9,34.2,3.6,47.9,8c0.5,0.2,0.8,0.7,0.6,1.3C894.2,499,893.8,499.3,893.4,499.3z"/>
		<path class="st13" d="M810.9,491.9c-0.5,0-0.9-0.4-1-0.9c-0.1-0.5,0.3-1,0.9-1.1c0.1,0,9.8-1,23.8-0.9c0.6,0,1,0.5,1,1
			c0,0.5-0.5,1-1,1c0,0,0,0,0,0c-13.9-0.1-23.5,0.9-23.6,0.9C811,491.9,811,491.9,810.9,491.9z"/>
	</g>
	<g>
		<path class="st30" d="M1021.1,675.9c-0.1-0.9-1-1.7-2.6-2.3c1.7-0.9,2.6-1.9,2.6-2.9c-0.2-3-9.7-4.7-21.2-3.7
			c-11.4,0.9-20.5,4.1-20.3,7.1c0.1,0.9,1,1.7,2.6,2.3c-1.7,0.9-2.6,1.9-2.6,2.9c0.1,0.9,1,1.7,2.6,2.3c-1.7,0.9-2.6,1.9-2.6,2.9
			c0.1,0.9,1,1.7,2.6,2.3c-1.7,0.9-2.6,1.9-2.6,2.9c0.1,1.3,2,2.4,5.1,3.1c0,1,0,2,0.1,3.2c0.4,5.5,6.6,9.8,14.8,9.8
			c8.2,0,15.3-5.9,15.4-11.4c0-1.4,0-2.5-0.2-3.6c3.9-1.3,6.3-2.9,6.2-4.5c-0.1-0.9-1-1.7-2.6-2.3c1.7-0.9,2.6-1.9,2.6-2.9
			c-0.1-0.9-1-1.7-2.6-2.3C1020.3,677.8,1021.2,676.8,1021.1,675.9z"/>
		<g>
			<path class="st9" d="M994.7,694c-3.4,0-6.5-0.3-9.1-0.7c-0.1,0-0.2-0.2-0.2-0.3c0-0.1,0.2-0.2,0.3-0.2c4,0.8,9.4,0.9,15.1,0.5
				c4.7-0.4,9.1-1.1,12.7-2.2c0.1,0,0.3,0,0.3,0.2c0,0.1,0,0.3-0.2,0.3c-3.6,1.1-8.1,1.8-12.8,2.2C998.8,693.9,996.7,694,994.7,694z
				"/>
			<path class="st9" d="M994.8,688.7c-4.4,0-8.4-0.4-11.1-1.2c-0.1,0-0.2-0.2-0.2-0.3c0-0.1,0.2-0.2,0.3-0.2
				c4,1.1,10.4,1.5,17.1,0.9c6.7-0.5,12.9-1.9,16.6-3.6c0.1-0.1,0.3,0,0.4,0.1c0.1,0.1,0,0.3-0.1,0.4c-3.8,1.8-10.1,3.1-16.8,3.7
				C998.8,688.6,996.7,688.7,994.8,688.7z"/>
			<path class="st9" d="M994.7,683.5c-4.8,0-8.9-0.5-11.8-1.4c-0.1,0-0.2-0.2-0.2-0.3c0-0.1,0.2-0.2,0.3-0.2
				c3.9,1.3,10.5,1.7,17.7,1.1c6.7-0.5,12.9-1.9,16.6-3.6c0.1-0.1,0.3,0,0.4,0.1c0.1,0.1,0,0.3-0.1,0.4c-3.8,1.8-10.1,3.1-16.8,3.7
				C998.8,683.4,996.7,683.5,994.7,683.5z"/>
			<path class="st9" d="M994.7,678.2c-3.8,0-7.2-0.3-9.9-0.9c-0.1,0-0.2-0.2-0.2-0.3c0-0.1,0.2-0.2,0.3-0.2c4,0.9,9.8,1.1,15.9,0.6
				c6.6-0.5,12.8-1.9,16.5-3.6c0.1-0.1,0.3,0,0.4,0.1c0.1,0.1,0,0.3-0.1,0.4c-3.8,1.7-10.1,3.1-16.7,3.6
				C998.8,678.1,996.7,678.2,994.7,678.2z"/>
		</g>
		<path class="st30" d="M972,649.3c-1.4-4.9-3.8-9.5-6.9-13.5c-6.8-8.6-17.9-26.1-19.3-49.9c-2-34.7,28.8-52,56.8-49.7
			c28.1,2.4,55.7,23.2,52.7,55.5c-1.9,19.8-13,34.9-21.2,43.5c-5.3,5.5-9,12.2-11,19.5c-2.5,9-8.4,20.1-22.4,20.8
			C982.5,676.5,974.9,659.5,972,649.3z"/>
		<path class="st13" d="M1005.3,668.7l9.8-63.9c0.2-1.3,0.9-2.2,1.5-2c0.6,0.2,0.9,1.5,0.7,2.8c0,0,0,0.1,0,0.1L1006,669
			c-0.1,0.5-0.3,0.8-0.5,0.7C1005.3,669.6,1005.2,669.1,1005.3,668.7z"/>
		<path class="st13" d="M995.1,669.2l-9.8-63.9c-0.2-1.3-0.9-2.2-1.5-2c-0.6,0.2-0.9,1.5-0.7,2.8c0,0,0,0.1,0,0.1l11.2,63.3
			c0.1,0.5,0.3,0.8,0.5,0.7C995,670.1,995.1,669.7,995.1,669.2z"/>
		<path class="st9" d="M1015,599.3c-0.2-0.4-0.8-0.6-1.3-0.3l-5.5,2.6l-1.9-5.4c-0.1-0.3-0.3-0.5-0.7-0.7c-0.6-0.3-1.4,0-1.7,0.5
			l0,0l-4.5,8.2l-4.2-11.7l0,0c-0.1-0.3-0.3-0.5-0.6-0.7c-0.7-0.4-1.6-0.2-2.1,0.4l-6.3,8.7c-0.3,0.4-0.2,0.8,0.2,1.1
			c0.4,0.3,1,0.2,1.3-0.1l5.5-6.2l5,11.1l0,0c0.1,0.2,0.2,0.3,0.4,0.4c0.5,0.2,1.1,0.1,1.3-0.3l4.8-7.7l1.8,3.9l0,0c0,0,0,0.1,0,0.1
			c0.2,0.4,0.8,0.6,1.3,0.3l6.5-3C1015.1,600.3,1015.3,599.8,1015,599.3z"/>
		<path class="st9" d="M1034.3,627.3c-0.3,0-0.6-0.1-0.9-0.3c-0.7-0.5-0.8-1.4-0.3-2.1c1.7-2.2,3.2-4.6,4.5-6.9c0.4-0.7,1.3-1,2-0.5
			s1,1.3,0.5,2c-1.4,2.4-3,4.8-4.7,7.2C1035.2,627.1,1034.7,627.3,1034.3,627.3z"/>
		<path class="st9" d="M1042.4,613.4c-0.2,0-0.4,0-0.6-0.1c-0.8-0.3-1.1-1.2-0.8-2c10.3-23.8,1.4-43.7,1.3-43.9
			c-0.3-0.8,0-1.6,0.7-2c0.8-0.3,1.6,0,2,0.7c0.4,0.9,9.5,21.4-1.3,46.4C1043.5,613.1,1042.9,613.4,1042.4,613.4z"/>
	</g>
</g>
<g class="st31">
	<path class="st32" d="M663.6,358.4v-0.2c0-0.3,0-0.5,0.1-0.7c0.1-0.2,0.2-0.6,0.7-1c0.3-0.3,0.6-0.4,1-0.5c0.3,0,0.6,0.1,0.7,0.3
		c0.1,0.1,0.1,0.2,0,0.3c0,0.1-0.1,0.1-0.2,0.2c-0.1,0.1-0.2,0.1-0.3,0c-0.2-0.2-0.4-0.3-0.7-0.3c-0.2,0-0.4,0.1-0.4,0.3
		c-0.1,0.2-0.2,0.6-0.2,1.3v0.4h1c0.1,0.1,0,0.3-0.1,0.4h-0.9v2.4c0,0.6,0.1,0.7,0.8,0.7v0.2H663v-0.2c0.6-0.1,0.6-0.1,0.6-0.7v-2.5
		H663l0-0.1l0.2-0.3H663.6z"/>
	<path class="st32" d="M668.2,356.7c-0.1,0.2-0.2,0.5-0.3,0.8c-0.8,0.4-1.4,0.8-1.4,0.9c0,0.2,0.6,0.6,1.6,0.6c0.1,0,0.3,0,0.4,0
		c-0.1,0.2-0.2,0.5-0.3,0.6c-0.8,0.4-1.4,0.9-1.4,1.2c0,0.3,0.4,0.6,1.2,0.6c0.3,0,0.8,0,1.2-0.3l0,0c-0.1,0.2-0.5,0.7-0.5,0.8
		c-0.1,0.1-0.6,0.2-1,0.2c-0.6,0-1.3-0.3-1.3-1.2c0-0.6,0.3-0.9,0.8-1.4c-0.7-0.1-1.1-0.4-1.1-0.9c0-0.4,0.1-0.8,0.4-1
		C666.7,357.4,667.5,356.9,668.2,356.7L668.2,356.7z"/>
	<path class="st32" d="M672,360.9c0.3-1,0.9-3.1,1.4-4.3h0.1c0.2,0.3,0.3,0.5,0.4,0.7c-0.6,1.1-1.1,2.8-1.5,4.4
		c-0.1,0.1-0.3,0.3-0.4,0.4h-0.1c-0.3-1.4-1-3.2-2-4.9c0.2-0.2,0.3-0.4,0.5-0.6h0.1C671,357.7,671.7,359.9,672,360.9L672,360.9z"/>
	<path class="st32" d="M677.4,361.3c-0.6,0.7-1.2,0.9-1.5,0.9c-1.1,0-1.7-0.9-1.7-1.8c0-0.6,0.2-1.1,0.6-1.5
		c0.4-0.4,0.8-0.7,1.3-0.7h0c0.7,0,1.3,0.6,1.3,1.3c0,0.2,0,0.2-0.2,0.3c-0.2,0-1.2,0.1-2.3,0.1c0,1.1,0.7,1.6,1.3,1.6
		c0.4,0,0.7-0.1,1-0.4L677.4,361.3z M675.9,358.6c-0.4,0-0.8,0.3-0.9,1c0.5,0,0.9,0,1.4,0c0.2,0,0.2-0.1,0.2-0.2
		C676.6,359,676.3,358.6,675.9,358.6L675.9,358.6z"/>
	<path class="st32" d="M679.9,360.9c0.3-1,0.9-3.1,1.4-4.3h0.1c0.2,0.3,0.3,0.5,0.4,0.7c-0.6,1.1-1.1,2.8-1.5,4.4
		c-0.1,0.1-0.3,0.3-0.4,0.4h-0.1c-0.3-1.4-1-3.2-2-4.9c0.2-0.2,0.3-0.4,0.5-0.6h0.1C678.9,357.7,679.7,359.9,679.9,360.9
		L679.9,360.9z"/>
	<path class="st32" d="M685.3,361.3c-0.6,0.7-1.2,0.9-1.5,0.9c-1.1,0-1.7-0.9-1.7-1.8c0-0.6,0.2-1.1,0.6-1.5
		c0.4-0.4,0.8-0.7,1.3-0.7h0c0.7,0,1.3,0.6,1.3,1.3c0,0.2,0,0.2-0.2,0.3c-0.2,0-1.2,0.1-2.3,0.1c0,1.1,0.7,1.6,1.3,1.6
		c0.4,0,0.7-0.1,1-0.4L685.3,361.3z M683.8,358.6c-0.4,0-0.8,0.3-0.9,1c0.5,0,0.9,0,1.4,0c0.2,0,0.2-0.1,0.2-0.2
		C684.6,359,684.3,358.6,683.8,358.6L683.8,358.6z"/>
</g>
</svg>
