<?xml version="1.0" encoding="utf-8"?>
<!-- Generator: Adobe Illustrator 23.1.0, SVG Export Plug-In . SVG Version: 6.00 Build 0)  -->
<svg version="1.1" xmlns="http://www.w3.org/2000/svg" xmlns:xlink="http://www.w3.org/1999/xlink" x="0px" y="0px"
	 viewBox="0 0 2685.7 2685.3" style="enable-background:new 0 0 2685.7 2685.3;" xml:space="preserve">
<style type="text/css">
	.st0{display:none;}
	.st1{display:inline;}
	.st2{fill:#FFFFFF;}
	.st3{display:none;fill:#F4F7FA;}
	.st4{fill:#B2BCCC;}
	.st5{fill:#D8DEE8;}
	.st6{fill:#E6EBF4;}
	.st7{opacity:0.3;fill:#D8DEE8;}
	.st8{opacity:0.3;}
	.st9{clip-path:url(#SVGID_2_);}
	.st10{clip-path:url(#SVGID_4_);}
	.st11{fill:#FCFCFC;}
	.st12{fill:url(#SVGID_5_);}
	.st13{fill:url(#SVGID_6_);}
	.st14{fill:url(#SVGID_7_);}
	.st15{fill:#7F50E7;}
	.st16{fill:url(#SVGID_8_);}
	.st17{opacity:0.3;fill:url(#SVGID_9_);}
	.st18{opacity:0.48;fill:#FFFFFF;}
	.st19{fill:#BFC8D6;}
	.st20{fill:url(#SVGID_10_);}
	.st21{fill:url(#SVGID_11_);}
	.st22{fill:url(#SVGID_12_);}
	.st23{fill:#F4F7FA;}
	.st24{display:none;fill:url(#SVGID_13_);}
	.st25{fill:url(#SVGID_14_);}
	.st26{fill:url(#SVGID_15_);}
	.st27{opacity:0.48;}
	.st28{fill:url(#SVGID_16_);}
	.st29{fill:url(#SVGID_17_);}
	.st30{fill:url(#SVGID_18_);}
	.st31{display:none;fill:url(#SVGID_19_);}
	.st32{fill:#C67575;}
	.st33{fill:#F49390;}
</style>
<g id="Background" class="st0">
	<g class="st1">
		<g>
			<rect x="-560.2" y="-514.1" class="st2" width="3710" height="3710"/>
		</g>
	</g>
</g>
<g id="Illustration">
	<g>
		<path class="st3" d="M2651,1128C2575.3,632.1,2264.7,23,1651.1-40.8c0,0-465.9-56.7-925.1,29.2c-272.6,51-511.5,202.7-662.8,420.8
			c-151.2,218.1-201.7,484-140.4,737.5c39.8,164.7,66.7,335.1,59.3,504.3c-12.9,294.5-5.5,569.3,280.3,744.9
			c255.2,156.8,576.3,295.1,882.6,319.3c208.2,16.5,441.7-10.2,642.3-64.4C2810.1,2374.6,2726.8,1623.8,2651,1128z"/>
		<g>
			<g>
				<g>
					<path class="st4" d="M1526.8,503.1l-632.6,9.2V385.1c0-36.2,50.8-57.5,74.5-33.3l13.2,28.8c22,22.5,53.1,29.1,80.5,17.4
						l464.4-198V503.1z"/>
					<path class="st4" d="M1588.5,502.2l541.2-7.9l21.1-112.3c0-31.2-49.7-45.1-67.8-24.1l-19.7,23c-17,19.8-41.4,25.9-63.1,15.6
						l-411.7-194.9V502.2z"/>
				</g>
				<g>
					<path class="st5" d="M1548.4,507.5l-632.6,9.2V389.5c0-36.2,38.3-55,62-30.7l25.7,26.3c22,22.5,53.1,29.1,80.5,17.4l464.4-198
						V507.5z"/>
					<path class="st5" d="M1610.1,506.6l541.2-7.9V389c0-31.2-28.7-47.8-46.7-26.8l-19.7,23c-17,19.8-41.4,25.9-63.1,15.6
						l-411.7-194.9V506.6z"/>
				</g>
				<g>
					<g>
						<polygon class="st4" points="1473.3,1450.1 915.8,499.2 358.3,1445.5 353.5,1442 915.8,487.6 918.2,491.7 1478.1,1446.6 
													"/>
						<g>
							<path class="st5" d="M1494.7,1448.3c0,42.5-259.2,207.2-578.9,207.2c-319.7,0-578.9-164.7-578.9-207.2
								c0-42.5,259.2-76.9,578.9-76.9C1235.5,1371.4,1494.7,1405.9,1494.7,1448.3z"/>
							<ellipse class="st6" cx="915.8" cy="1445.4" rx="578.9" ry="76.9"/>
							<ellipse class="st7" cx="915.8" cy="1438.5" rx="559.9" ry="59.8"/>
						</g>
						<ellipse class="st5" cx="915.8" cy="493.4" rx="68.3" ry="76.3"/>
					</g>
					<g>
						<polygon class="st4" points="2638,1305.6 2151.3,487.7 1664.5,1301.6 1660.4,1298.6 2151.3,477.8 2153.3,481.3 2642.1,1302.6 
													"/>
						<g>
							<path class="st5" d="M2656.7,1304.1c0,36.5-226.3,178.2-505.4,178.2s-505.4-141.7-505.4-178.2c0-36.5,226.3-66.2,505.4-66.2
								S2656.7,1267.5,2656.7,1304.1z"/>
							<ellipse class="st6" cx="2151.3" cy="1301.2" rx="505.4" ry="66.2"/>
							<ellipse class="st7" cx="2151.3" cy="1297.2" rx="488.8" ry="53"/>
						</g>
						<ellipse class="st5" cx="2151.3" cy="482.7" rx="59.7" ry="65.6"/>
					</g>
				</g>
				<path class="st4" d="M1632.4,5L1525.6,0c-24.2-1.1-44,21.6-44,50.7v88.6l28.5,411.4c1.9,27.2,20.9,47.7,43.5,47.1l51.2-1.3
					c22.3-0.6,40.7-21.7,42.6-48.5l27.4-403V58.4C1674.8,30,1655.9,6.1,1632.4,5z"/>
				<path class="st5" d="M1654.9,5L1548.1,0c-24.2-1.1-44,21.6-44,50.7v88.6l28.5,411.4c1.9,27.2,20.9,47.7,43.5,47.1l51.2-1.3
					c22.3-0.6,40.7-21.7,42.6-48.5l27.4-403V58.4C1697.3,30,1678.4,6.1,1654.9,5z"/>
				<g class="st8">
					<path class="st5" d="M1632.6,402.2c-32.9-128.9-92.3-183-101.7-307.1c-2.5-33.5-0.9-64.7,3.1-92.9
						c-17.3,6.3-29.9,25.3-29.9,48.5v88.6l28.5,411.4c1.9,27.2,20.9,47.7,43.5,47.1l51.2-1.3c8.7-0.2,16.8-3.6,23.5-9.2
						C1654.3,509,1644.1,447.1,1632.6,402.2z"/>
				</g>
			</g>
		</g>
		<g>
			<g>
				<g>
					<g>
						<g>
							<defs>
								<path id="SVGID_1_" d="M647.7,2253c-23.5,38.9-64.4,91.7-108.7,153l739,107c-82.7-225.1-199.2-461.4-25.2-852.2
									c81.7-183.4,298.8-505.8,209.4-720.8c-101.8-245-303.2-139.2-354.3-328.8c-79.9-296.4-332.2-502.6-603.3-355.3
									c-267.5,145.4-258.6,676.6,94,1257.8C804.5,1959.2,770.3,2049.9,647.7,2253z"/>
							</defs>
							<use xlink:href="#SVGID_1_"  style="overflow:visible;fill:#6332DF;"/>
							<clipPath id="SVGID_2_">
								<use xlink:href="#SVGID_1_"  style="overflow:visible;"/>
							</clipPath>
							<g class="st9">
								<g>
									<path class="st2" d="M927.4,2418.5c5.3-97.1,5.4-188.9,5.6-286.1l0-32.4c-2.8-46.8-4.3-93-5.8-137.8
										c-3.3-101-6.4-196.3-23.5-297.6c-0.3-5.9-0.4-11.7-0.4-17.7c-0.1-21.7-0.2-44.2-12.8-65.7l-0.3-0.9
										C839.3,1045,677.2,511.1,408.4-6.5l3.8-2c269.1,517.9,431.3,1052.2,482.2,1588.1c13,22.4,13.1,46.3,13.2,67.4
										c0,6,0.1,11.7,0.4,17.3c17.1,101.3,20.2,196.8,23.6,297.9c1.5,44.7,3,90.9,5.8,137.8l0,32.5c-0.1,97.3-0.2,189.1-5.6,286.3
										L927.4,2418.5z"/>
									<path class="st2" d="M922.4,1943.7c-4.7-253.2,128.8-554,241.7-761.8c122.2-225,247.2-392.3,248.5-394l3.5,2.6
										c-1.2,1.7-126.1,168.8-248.2,393.5c-112.6,207.3-245.9,507.3-241.1,759.6L922.4,1943.7z"/>
									<path class="st2" d="M752.3,843.2c-20-268.4,21.2-554.8,34.7-648.9c2.6-18,4.3-29.9,4.2-32.2l4.3-0.1
										c0.1,2.6-1.2,12-4.3,33c-13.5,94-54.6,380-34.6,647.9L752.3,843.2z"/>
									<path class="st2" d="M848.9,1272.5C758.3,1041.2,284.7,836.2,280,834.1l1.7-4c4.8,2,480,207.8,571.2,440.7L848.9,1272.5z"
										/>
								</g>
							</g>
						</g>
					</g>
					<g>
						<g>
							<defs>
								<path id="SVGID_3_" d="M625.4,1436.2c4,343.1,169.5,230,322.1,263.9c176.1,254.8,192.7,491.2-70.2,695.3l-293-43.8
									c-108.7-5-236.3-38.3-229.1-183c8.1-163.7,46.9-267.7-137.9-348.1C32.5,1740.1-46.9,1593.4,28,1426.5
									C106.7,1251-78,1014.3,57,896.6C292.2,691.6,621.2,1079,625.4,1436.2z"/>
							</defs>
							<use xlink:href="#SVGID_3_"  style="overflow:visible;fill:#F49390;"/>
							<clipPath id="SVGID_4_">
								<use xlink:href="#SVGID_3_"  style="overflow:visible;"/>
							</clipPath>
							<g class="st10">
								<g>
									<path class="st11" d="M698.1,2050.2c-122.3-133.8-228.3-282.5-315-442c-87.4-160.8-154.1-330.5-198.1-504.2
										c-25.2-99.6-43-201.1-52.9-301.7l4.4-0.4c9.9,100.3,27.6,201.6,52.8,301c43.9,173.4,110.4,342.7,197.7,503.2
										c86.5,159.1,192.3,307.5,314.4,441.1L698.1,2050.2z"/>
									<path class="st11" d="M382.8,2238.6l-2-4c54.4-27.7,118.6-49.3,190.8-64.2c34.4-7.1,68.6-11.8,101.5-13.9l0.3,4.4
										c-32.8,2.1-66.7,6.8-100.9,13.9C500.7,2189.6,436.9,2211,382.8,2238.6z"/>
									<path class="st11" d="M440.2,1706.1c-151.3-146.3-473.3-133-476.5-132.8l-0.2-4.4c3.3-0.1,327.2-13.6,479.8,134
										L440.2,1706.1z"/>
									<path class="st11" d="M253.6,1324.1c-45.3-233.5,129.7-503.2,131.5-505.9l3.7,2.4c-1.8,2.7-175.7,271-130.8,502.7
										L253.6,1324.1z"/>
								</g>
							</g>
						</g>
					</g>
				</g>
			</g>
		</g>
		<g>
			<g>
				<linearGradient id="SVGID_5_" gradientUnits="userSpaceOnUse" x1="1147.9661" y1="2521.6643" x2="970.6031" y2="2596.1567">
					<stop  offset="0" style="stop-color:#40447E"/>
					<stop  offset="0.9964" style="stop-color:#3C3B6B"/>
				</linearGradient>
				<path class="st12" d="M2606.3,2424.6l-2524.8-22v65.1c0,17.7,11,32.7,25.9,35.4l713.9,128.1c8.5,1.5,17.1,1.9,25.6,1.2
					l1731.9-146.1c15.5-1.3,27.4-16.4,27.4-34.5V2424.6z"/>
				<linearGradient id="SVGID_6_" gradientUnits="userSpaceOnUse" x1="911.1323" y1="1739.9662" x2="718.6477" y2="1820.8097">
					<stop  offset="0" style="stop-color:#40447E"/>
					<stop  offset="0.9964" style="stop-color:#3C3B6B"/>
				</linearGradient>
				<path class="st13" d="M1793.5,2319.1l-1684.3,119c-30.1,2.1-54.6-20.5-54.6-50.6v-1204c0-30.1,24.5-54.4,54.6-54.4h1684.3
					c24.8,0,44.9,22,44.9,49.2v1088.4C1838.4,2293.9,1818.4,2317.4,1793.5,2319.1z"/>
				<linearGradient id="SVGID_7_" gradientUnits="userSpaceOnUse" x1="81.4926" y1="1783.7273" x2="1865.2997" y2="1783.7273">
					<stop  offset="0" style="stop-color:#40447E"/>
					<stop  offset="0.9964" style="stop-color:#3C3B6B"/>
				</linearGradient>
				<path class="st14" d="M1820.4,2319.1l-1684.3,119c-30.1,2.1-54.6-20.5-54.6-50.6v-1204c0-30.1,24.5-54.4,54.6-54.4h1684.3
					c24.8,0,44.9,22,44.9,49.2v1088.4C1865.3,2293.9,1845.2,2317.4,1820.4,2319.1z"/>
				<path class="st15" d="M1767.9,2242.4L199.2,2345.8c-24.5,1.6-44.5-17-44.5-41.5V1250.2c0-24.5,19.9-44.5,44.5-44.6l1568.7-6.5
					c20.5-0.1,37.1,18,37.1,40.3v960.1C1805,2221.8,1788.4,2241.1,1767.9,2242.4z"/>
				<linearGradient id="SVGID_8_" gradientUnits="userSpaceOnUse" x1="81.4926" y1="2443.3723" x2="2606.3098" y2="2443.3723">
					<stop  offset="0" style="stop-color:#40447E"/>
					<stop  offset="0.9964" style="stop-color:#3C3B6B"/>
				</linearGradient>
				<path class="st16" d="M1778.4,2313.7L81.5,2439l739.9,132.8c8.5,1.5,17.1,1.9,25.6,1.2l1759.3-148.4l-800.9-110
					C1796.4,2313.4,1787.4,2313.1,1778.4,2313.7z"/>
				<linearGradient id="SVGID_9_" gradientUnits="userSpaceOnUse" x1="329.0934" y1="2422.6853" x2="2179.011" y2="2422.6853">
					<stop  offset="0" style="stop-color:#40447E"/>
					<stop  offset="0.9964" style="stop-color:#3C3B6B"/>
				</linearGradient>
				<polygon class="st17" points="329.1,2442.2 1741.8,2336.3 2179,2395.9 778.5,2509 				"/>
				<path class="st18" d="M1414.6,1988.9c-129.8-69.9-231.9,18.7-330.5-68.7c-59.7-53-30.4-92.4-103.9-171.6
					c-81.4-87.6-134.4-58.2-216.2-137.1c-103.4-99.7-51.7-177.3-140.8-248.9c-108.1-86.9-224.7-6.5-327.6-89.8
					c-44.4-35.9-68.7-88.2-81.5-143.7H113.5c-17.6,0-32,14.3-32,31.9v1248.1c0,17.6,14.3,30.9,32,29.7L1830,2317
					c8.4-0.6,15.9-5.5,20.7-12.6c-125.7-4.6-202.9-46.7-252.2-90.2C1502,2128.9,1518.7,2044.9,1414.6,1988.9z"/>
			</g>
			<g>
				<g>
					<g>
						<path class="st19" d="M995.1,2126c-14.9,0.4-29.4-3.3-42-10.9c-38.3-23-95-60.9-146-110.6c-64.7-63.1-101.8-127.2-110-190.1
							l-0.1-1l-1.6-268.6c0-53.1,34.6-96.2,99.6-124.5c53.7-23.4,124.9-35,200.1-32.8c74.3,2.2,143.1,17.5,194,43
							c60.5,30.4,92.3,73.1,92.3,123.7l-1.4,256.6l-0.1,0.9c-7.4,60.3-41.6,122.6-102.1,185.6c-48.5,50.5-103.3,90.6-140.9,115.4
							C1024.4,2121,1010,2125.6,995.1,2126z"/>
						<linearGradient id="SVGID_10_" gradientUnits="userSpaceOnUse" x1="830.1255" y1="1404.0529" x2="1404.1642" y2="2342.9309">
							<stop  offset="0" style="stop-color:#FFFFFF"/>
							<stop  offset="0.9964" style="stop-color:#EBEFF2"/>
						</linearGradient>
						<path class="st20" d="M1009.8,2126c-14.7,0.4-29-3.3-41.5-10.9c-37.8-23-93.8-60.9-144.1-110.6
							c-63.8-63.1-100.5-127.2-108.5-190.1l-0.1-1l-1.6-268.6c0-53.1,34.2-96.2,98.3-124.5c53-23.4,123.2-35,197.4-32.8
							c73.3,2.2,141.2,17.5,191.4,43c59.7,30.4,91,73.1,91,123.7l-1.4,256.6l-0.1,0.9c-7.3,60.3-41.1,122.6-100.7,185.6
							c-47.8,50.5-101.9,90.6-139,115.4C1038.7,2121,1024.5,2125.6,1009.8,2126z"/>
						<linearGradient id="SVGID_11_" gradientUnits="userSpaceOnUse" x1="1134.516" y1="1938.6129" x2="668.3131" y2="1001.175">
							<stop  offset="0" style="stop-color:#FFFFFF"/>
							<stop  offset="0.9964" style="stop-color:#EBEFF2"/>
						</linearGradient>
						<path class="st21" d="M731.8,1545.1l1.6,267.2C751,1948.6,911.2,2059,981,2100.9c20,12,45.5,11.3,65.4-1.8
							c68.3-45,219.8-158.2,236-289.2l1.4-255.9C1283.8,1364.2,731.8,1346.8,731.8,1545.1z"/>
						<linearGradient id="SVGID_12_" gradientUnits="userSpaceOnUse" x1="784.7554" y1="1756.7512" x2="1234.8987" y2="1756.7512">
							<stop  offset="0" style="stop-color:#1F1346"/>
							<stop  offset="0.9964" style="stop-color:#2B1B5B"/>
						</linearGradient>
						<path class="st22" d="M1013.8,2059.8c-1.3,0-3.2-0.2-5.2-1.4c-28.7-17.4-84.4-53.8-132.9-101.4
							c-52.3-51.4-82.5-101.4-89.4-148.3l-1.5-262.8c0.1-25.2,20-46.8,59.1-64.1c43.7-19.3,105.7-29.4,169.9-27.9
							c63.6,1.5,123.8,14.3,165.5,35c36.9,18.3,55.6,39.9,55.6,64.2l-1.4,253.7c-6.5,45.4-34.8,94.4-84.5,145.9
							c-46.8,48.4-101.4,86.8-130,105.4C1017,2059.4,1015.1,2059.7,1013.8,2059.8z"/>
						<path class="st23" d="M1007.2,2041.8c-29-17.9-80.6-52.4-125.6-96.7c-49.2-48.4-77.7-94.9-84.3-137.8l-1.5-261.3
							c0-18,16.6-34.6,49.1-49c41.4-18.3,100.7-28,162.4-26.6c61.1,1.4,118.7,13.4,158.3,33c30.8,15.2,46.3,31.8,46.4,49.4
							l-1.4,252.8c-6.3,41.7-33.1,87.3-80.1,135.8C1086.9,1986.5,1036.1,2022.7,1007.2,2041.8z"/>
					</g>
				</g>
				<linearGradient id="SVGID_13_" gradientUnits="userSpaceOnUse" x1="899.1326" y1="1696.0492" x2="1126.0936" y2="1696.0492">
					<stop  offset="0" style="stop-color:#FFC444"/>
					<stop  offset="0.9964" style="stop-color:#F36F56"/>
				</linearGradient>
				<path class="st24" d="M1106.4,1660.5l-4.3-0.1l0.4-42.5c0.4-46.3-39.2-85.4-86.5-86.9c-50.1-1.6-93.2,37.5-93.3,87l-0.1,39
					l-2.4-0.1c-11.8-0.2-21.2,4.8-21.2,16.3v164.8c0,11.3,8.5,23,20.2,23h185c11.3,0,19.8-11.4,20-22.4l1.7-161.3
					C1126.2,1666,1117.7,1660.7,1106.4,1660.5z M1040.6,1818c-1.7,2.2-4.3,5.6-7,5.6l-40.4-0.1c-2.8,0-5.4-3.5-7-5.7
					c-1.6-2.2-2.1-6.1-1.3-8.7l18.3-59.6c-10.2-4.3-17.4-14.4-17.3-26c0-15.2,12.7-27.6,28.3-27.3c15.5,0.2,27.9,12.7,27.8,27.8
					c-0.1,11.5-7.3,21.2-17.5,25.1l17.5,60.3C1042.8,1812,1042.3,1815.8,1040.6,1818z M1077.9,1660l-130.2-2.5l0.1-38.9
					c0.1-37,30.7-66.2,68.1-65.2c34.8,1,62.6,29.7,62.3,63.9L1077.9,1660z"/>
			</g>
		</g>
		<g>
			<g>
				<g>
					<g>
						<g>
							<linearGradient id="SVGID_14_" gradientUnits="userSpaceOnUse" x1="2565.3022" y1="2494.3547" x2="2042.2488" y2="2048.166">
								<stop  offset="0" style="stop-color:#444B8C"/>
								<stop  offset="0.9964" style="stop-color:#26264F"/>
							</linearGradient>
							<path class="st25" d="M2496.3,1586.1v1004.7c0,15-16.4,19.4-35.1,21.2l-645,72.1l-9.9,1c-20.2,2-36.8-9.3-36.8-25V1610.3
								c0-15.7,16.6-29.1,36.8-29.7l13.4-0.4l647.3,2.1C2485.7,1581.7,2496.3,1571.1,2496.3,1586.1z"/>
							
								<linearGradient id="SVGID_15_" gradientUnits="userSpaceOnUse" x1="-1971.838" y1="3568.3435" x2="-114.1064" y2="3637.4495" gradientTransform="matrix(0 -1 1 0 -1435.1593 660.0168)">
								<stop  offset="0" style="stop-color:#444B8C"/>
								<stop  offset="0.9964" style="stop-color:#26264F"/>
							</linearGradient>
							<path class="st26" d="M2516.2,1584.9v1004.4c0,15-15.2,28.8-33.9,30.6l-655.7,63.7c-20.2,2-36.8-9.3-36.8-25V1609.1
								c0-15.7,16.6-29.1,36.8-29.7l655.7-20.7C2501,1558.1,2516.2,1569.9,2516.2,1584.9z"/>
							<path class="st15" d="M2495.2,1641.4v930.8c0,14-14.2,26.9-31.7,28.5l-616.6,59.1c-18.8,1.8-34.2-8.7-34.2-23.3v-970
								c0-14.6,15.4-27.1,34.2-27.8l616.6-21.7C2481,1616.4,2495.2,1627.4,2495.2,1641.4z"/>
						</g>
					</g>
					<g class="st27">
						<path class="st2" d="M2304.2,2162.9c-59.7-119.7-199.1-91.1-251.5-221.7c-31.2-77.9,7.6-114.8-15.8-209.8
							c-15.9-64.3-50.5-115.5-89.7-155.8l-120.7,3.8c-20.2,0.6-36.8,14-36.8,29.7v1049.6c0,15.7,16.6,26.9,36.8,25l527.7-51.3
							c-39.1-54.3-55.8-105.4-61.8-149.7C2273.8,2345.3,2357.2,2269.3,2304.2,2162.9z"/>
					</g>
				</g>
			</g>
			<g>
				<g>
					<g>
						<path class="st19" d="M2171.8,2384.4c-10.4,0.3-20.5-2.4-29.3-7.7c-26.6-16.2-65.6-42.9-100.4-77.7
							c-43.9-43.8-69-88.3-74.4-132.2l-0.1-0.7l-1.1-187.9c0-37.2,23.4-68.5,67.5-90.6c36.8-18.4,86-29.2,138.4-30.3
							c52.4-1.2,101.3,7.4,137.8,24.1c43.7,20,66.8,50.1,66.7,87l-1.5,187l-0.1,0.7c-5.5,43.9-30.4,89.6-74.1,135.6
							c-34.7,36.6-73.7,65.5-100.2,83.3C2192.3,2380.8,2182.2,2384,2171.8,2384.4z"/>
						<linearGradient id="SVGID_16_" gradientUnits="userSpaceOnUse" x1="2062.5254" y1="1874.1091" x2="2464.9929" y2="2532.3711">
							<stop  offset="0" style="stop-color:#FFFFFF"/>
							<stop  offset="0.9964" style="stop-color:#EBEFF2"/>
						</linearGradient>
						<path class="st28" d="M2182.1,2384.4c-10.3,0.3-20.3-2.4-29-7.7c-26.3-16.3-64.9-43-99.3-77.8
							c-43.4-43.8-68.2-88.4-73.6-132.3l-0.1-0.7l-1-188.2c0-37.2,23.1-68.6,66.8-90.7c36.4-18.4,85-29.2,136.9-30.3
							c51.8-1.1,100.2,7.5,136.3,24.2c43.2,20,66,50.1,65.9,87.1l-1.5,187.1l-0.1,0.7c-5.5,44-30.1,89.6-73.2,135.7
							c-34.3,36.7-72.8,65.6-99.1,83.4C2202.4,2380.8,2192.4,2384,2182.1,2384.4z"/>
						<linearGradient id="SVGID_17_" gradientUnits="userSpaceOnUse" x1="2275.7007" y1="2249.4971" x2="1948.4543" y2="1591.4719">
							<stop  offset="0" style="stop-color:#FFFFFF"/>
							<stop  offset="0.9964" style="stop-color:#EBEFF2"/>
						</linearGradient>
						<path class="st29" d="M1991,1977.3l1,187.4c11.9,95.3,121.4,172.2,169.9,201.8c14,8.5,31.9,8,45.8-1.3
							c48.4-32.4,157.4-115.1,169.4-210.6l1.5-186.5C2379.1,1829.4,1991.1,1838,1991,1977.3z"/>
						<linearGradient id="SVGID_18_" gradientUnits="userSpaceOnUse" x1="2026.9456" y1="2120.5564" x2="2343.1638" y2="2120.5564">
							<stop  offset="0" style="stop-color:#1F1346"/>
							<stop  offset="0.9964" style="stop-color:#2B1B5B"/>
						</linearGradient>
						<path class="st30" d="M2184.9,2337.1c-0.9,0-2.3-0.1-3.6-1c-20.1-12.3-58.8-37.9-92.2-71.2c-35.9-35.8-56.5-70.6-61.2-103.5
							l-1-185c0-17.8,13.7-33.6,40.5-47c30.1-15.1,73.1-24.3,118.1-25.3c44.9-1,87.7,6.2,117.6,19.8c26.6,12.1,40,27.2,40.1,44.9
							l-1.4,184.3c-4.7,33-25.3,68.9-61,106.5c-33.4,35.1-72.1,62.9-92.2,76.3C2187.2,2336.9,2185.8,2337.1,2184.9,2337.1z"/>
						<path class="st23" d="M2180.3,2324.3c-20.3-12.6-56.1-36.8-87.2-67.8c-33.8-33.7-53.2-66.1-57.7-96.2l-1-184.1
							c0-12.7,11.4-24.9,33.6-36c28.5-14.3,69.6-23,112.8-24c43.1-1,84.1,5.8,112.4,18.7c22.1,10.1,33.3,21.7,33.3,34.4l-1.4,183.3
							c-4.6,30.3-24,63.6-57.6,99C2236.5,2284.4,2200.6,2310.6,2180.3,2324.3z"/>
					</g>
				</g>
				<linearGradient id="SVGID_19_" gradientUnits="userSpaceOnUse" x1="2106.2366" y1="2078.2844" x2="2264.7561" y2="2078.2844">
					<stop  offset="0" style="stop-color:#FFC444"/>
					<stop  offset="0.9964" style="stop-color:#F36F56"/>
				</linearGradient>
				<path class="st31" d="M2250.7,2049.9l-3,0l0.3-30.6c0.4-33.4-27.7-60.4-61.1-60c-35.1,0.3-65.1,29.4-65.2,64.6l-0.1,27.7l-1.2,0
					c-8.2,0.1-14.2,3.9-14.2,12.1l-0.1,116.9c0,8,4.9,16.9,13,16.8l129.8-2.4c8-0.1,14.1-8.8,14.2-16.8l1.4-116.4
					C2264.9,2053.6,2258.8,2049.7,2250.7,2049.9z M2204,2164.2c-1.2,1.6-3,4.1-5,4.1l-28.3,0.5c-1.9,0-3.8-2.4-4.9-3.9
					c-1.1-1.5-1.5-4.3-0.9-6.2l12.9-42.9c-7.1-2.8-12.1-10-12.1-18.2c0-10.9,8.9-19.9,19.8-20.1c10.9-0.2,19.7,8.5,19.6,19.4
					c-0.1,8.2-5.2,15.3-12.3,18.3l12.3,42.8C2205.6,2159.8,2205.2,2162.6,2204,2164.2z M2230.5,2050.1l-91.4,1.2l0.1-27.7
					c0.1-26.3,21.4-48.1,47.7-48.3c24.5-0.3,44.2,19.6,43.9,44.2L2230.5,2050.1z"/>
			</g>
		</g>
		<g>
			<path class="st32" d="M102.4,2302.8l0.6,39.3c0.2,11.5,9.8,20,21.6,18.9l21.4-2c3,18.6,7.9,36.3,14.7,53l-17.6,11.7
				c-10.1,6.7-13.4,19.8-7.4,29.3l20.5,32.1c6,9.4,33,13.8,43.1,7.1l2.6-13.5c12.2,13.7,25.9,26,40.9,36.6l-9.1,16.9
				c-5.7,10.5-2,22.9,8.1,27.6l34.7,16.1c10.2,4.7,42.3,3.9,48-6.6l-10.7-20.1c17.8,5.1,36.6,8.3,56,9.3l0.3,17.4
				c0.2,11.4,9.7,19.7,21.2,18.6l39.3-4c11.5-1.2,20.7-11.4,20.5-22.8l-0.3-17.4c19.2-4.9,37.6-11.8,55-20.5l9,14.3
				c5.9,9.3,39.2,12.6,49.1,5.9l12.7-24c9.8-6.7,13-19.6,7.1-28.8l-9.3-14.8c14.3-13.3,27.3-28.1,38.7-43.9l16.4,7.8
				c9.9,4.7,38.6,5.9,44.1-4.4l2.6-41.1c5.5-10.3,2-22.5-7.9-27.3l-17.2-8.2c6.1-17.6,10.3-35.9,12.6-54.6l20.6-1.9
				c11.3-1.1,20.3-11.1,20.1-22.4l-0.6-38.5c-0.2-11.3-9.5-19.6-20.8-18.6l-21.8,2c-3.4-17.7-8.6-34.7-15.5-50.6l19.4-13
				c9.7-6.5,12.9-19.3,7.1-28.6l1.9-38.4c-5.8-9.3-40.1-4.9-49.9,1.6l-20.4,13.6c-11.6-12.7-24.5-24-38.6-33.9l11.9-22.1
				c5.5-10.3,2-22.6-8-27.4l-15.4-20.1c-10-4.9-41.1,3.1-46.7,13.5l-12.2,22.7c-16.5-4.8-33.8-7.9-51.7-9.2l-0.4-25.2
				c-0.2-11.4-9.6-19.9-21.1-18.9l-39.3,3.2c-11.5,0.9-20.8,11-20.6,22.4l0.4,25.3c-17.9,4.3-35.2,10.3-51.8,17.9l6.5-27
				c-6-9.4-38.4-5.4-48.4,1.1l-34.1,22.4c-10,6.6-13.3,19.6-7.3,29.1l12.8,20.3c-14.1,12.4-27,26.2-38.5,41l0.2-13.4
				c-10.2-4.9-44.8,2.8-50.5,13.3l-19.5,35.8c-5.7,10.5-2.1,23,8.2,27.8l20.4,9.7c-6.6,17.4-11.5,35.6-14.4,54.2l-22.6,2.1
				C111.7,2281,102.3,2291.2,102.4,2302.8z M248.6,2313c-1.3-86.5,68.7-162.8,155.8-170.4c86.6-7.5,157.4,55.8,158.7,141.4
				c1.3,85.6-67.5,161.8-154.1,170.3C321.9,2462.7,249.9,2399.5,248.6,2313z"/>
			<path class="st33" d="M128.8,2301.2l0.6,39.3c0.2,11.5,9.8,20,21.6,18.9l21.4-2c3,18.6,7.9,36.3,14.7,53l-17.6,11.7
				c-10.1,6.7-13.4,19.8-7.4,29.3l20.5,32.1c6,9.4,19,11.5,29.1,4.8l16.6-11.2c12.2,13.7,25.9,26,40.9,36.6l-9.1,16.9
				c-5.7,10.5-2,22.9,8.1,27.6l34.7,16.1c10.2,4.7,23,0,28.6-10.5l8.7-16.2c17.8,5.1,36.6,8.3,56,9.3l0.3,17.4
				c0.2,11.4,9.7,19.7,21.2,18.6l39.3-4c11.5-1.2,20.7-11.4,20.5-22.8l-0.3-17.4c19.2-4.9,37.6-11.8,55-20.5l9,14.3
				c5.9,9.3,18.6,11.4,28.4,4.7l33.4-22.8c9.8-6.7,13-19.6,7.1-28.8l-9.3-14.8c14.3-13.3,27.3-28.1,38.7-43.9l16.4,7.8
				c9.9,4.7,22.4,0.1,27.9-10.3l18.8-35.3c5.5-10.3,2-22.5-7.9-27.3l-17.2-8.2c6.1-17.6,10.3-35.9,12.6-54.6l20.6-1.9
				c11.3-1.1,20.3-11.1,20.1-22.4l-0.6-38.5c-0.2-11.3-9.5-19.6-20.8-18.6l-21.8,2c-3.4-17.7-8.6-34.7-15.5-50.6l19.4-13
				c9.7-6.5,12.9-19.3,7.1-28.6l-19.8-31.7c-5.8-9.3-18.4-11.6-28.2-5.1l-20.4,13.6c-11.6-12.7-24.5-24-38.6-33.9l11.9-22.1
				c5.5-10.3,2-22.6-8-27.4l-34-16.6c-10-4.9-22.6-0.4-28.2,9.9l-12.2,22.7c-16.5-4.8-33.8-7.9-51.7-9.2l-0.4-25.2
				c-0.2-11.4-9.6-19.9-21.1-18.9l-39.3,3.2c-11.5,0.9-20.8,11-20.6,22.4l0.4,25.3c-17.9,4.3-35.2,10.3-51.8,17.9l-13.1-20.7
				c-6-9.4-18.9-11.8-28.9-5.2l-34.1,22.4c-10,6.6-13.3,19.6-7.3,29.1l12.8,20.3c-14.1,12.4-27,26.2-38.5,41l-21.4-10.2
				c-10.2-4.9-23.2-0.3-28.9,10.1l-19.5,35.8c-5.7,10.5-2.1,23,8.2,27.8l20.4,9.7c-6.6,17.4-11.5,35.6-14.4,54.2l-22.6,2.1
				C138,2279.4,128.6,2289.6,128.8,2301.2z M274.9,2311.3c-1.3-86.5,68.7-162.8,155.8-170.4c86.6-7.5,157.4,55.8,158.7,141.4
				c1.3,85.6-67.5,161.8-154.1,170.3C348.3,2461.1,276.2,2397.9,274.9,2311.3z"/>
		</g>
	</g>
</g>
</svg>
