<?xml version="1.0" encoding="utf-8"?>
<!-- Generator: Adobe Illustrator 23.1.0, SVG Export Plug-In . SVG Version: 6.00 Build 0)  -->
<svg version="1.1" xmlns="http://www.w3.org/2000/svg" xmlns:xlink="http://www.w3.org/1999/xlink" x="0px" y="0px"
	 viewBox="0 0 318 262" style="enable-background:new 0 0 318 262;" xml:space="preserve">
<style type="text/css">
	.st0{display:none;}
	.st1{display:inline;fill:#C5D9FF;}
	.st2{display:inline;opacity:0.89;}
	.st3{opacity:0.89;}
	.st4{opacity:0.12;clip-path:url(#SVGID_2_);fill:#FFFFFF;}
	.st5{opacity:0.2;clip-path:url(#SVGID_2_);fill:#FFFFFF;}
	.st6{display:inline;}
	.st7{fill:#FFFFFF;}
	.st8{fill:none;}
	.st9{fill:#AF9CDA;}
	.st10{fill:#243762;}
	.st11{opacity:0.43;fill:#C5D9FF;}
	.st12{fill:#C5D9FF;}
	.st13{fill:none;stroke:#AF9CDA;stroke-miterlimit:10;}
	.st14{fill:#E4DFF4;}
	.st15{opacity:0.88;}
	.st16{fill:#D9D0EF;}
	.st17{fill:#B186F5;}
	.st18{fill:#18093C;}
	.st19{fill:#ECF1F7;}
	.st20{fill:#97D7DD;}
	.st21{opacity:0.33;fill:#AF9CDA;}
	.st22{fill:#F69089;}
	.st23{opacity:0.29;fill:#243762;}
	.st24{fill:#F7A9B4;}
	.st25{opacity:0.35;fill:#ECF1F7;}
</style>
<g id="BACKGROUND" class="st0">
	<rect x="-97" y="-120" class="st1" width="750" height="500"/>
	<g class="st2">
		<defs>
			<polygon id="SVGID_1_" class="st3" points="654,-119.7 654.1,376.2 -95.9,380 -95.9,227.7 -95.6,-120 			"/>
		</defs>
		<clipPath id="SVGID_2_">
			<use xlink:href="#SVGID_1_"  style="overflow:visible;"/>
		</clipPath>
		<path class="st4" d="M127.9,256.4c0-14.8-2.4-28.7-7.3-40.8c-11.4-28.1-29.3-42.2-42.4-49.2c-22.4-11.9-43.7-14.6-60.1-7.5
			c-17.5,7.5-23.6,23-30.2,39.4c-6,15-12.1,30.4-27.4,40.2c-13.8,8.8-27.3,4-41.6-1.1c-14.2-5.1-28.8-10.3-44.9-2.6
			c-17.2,8.2-31.1,27.2-32.5,44.3c-1,12.4,4.2,27.4,14.9,43.3c10.6,15.7,25.7,30.9,43.5,43.9C-52,401.5,2.1,411.5,44.6,393.2
			c30.8-13.2,56.9-41.8,71.6-78.4C123.9,295.4,127.9,275.2,127.9,256.4z"/>
		<path class="st4" d="M489-6.6c0-14.8-2.4-28.7-7.3-40.8c-11.4-28.1-29.3-42.2-42.4-49.2c-22.4-11.9-43.7-14.6-60.1-7.5
			c-17.5,7.5-23.6,23-30.2,39.4c-6,15-12.1,30.4-27.4,40.2c-13.8,8.8-27.3,4-41.6-1.1c-14.1-5.1-28.8-10.3-44.9-2.6
			c-17.2,8.2-31.1,27.2-32.5,44.3c-1,12.4,4.2,27.4,14.9,43.3c10.6,15.7,25.7,30.9,43.5,43.9c48.1,35.1,102.2,45.1,144.7,26.8
			c30.8-13.2,56.9-41.8,71.6-78.4C485,32.4,489,12.2,489-6.6z"/>
		<path class="st4" d="M743.1,120.1c0-14.8-2.4-28.7-7.3-40.8c-11.4-28.1-29.3-42.2-42.4-49.2c-22.4-11.9-43.7-14.6-60.1-7.5
			c-17.5,7.5-23.6,23-30.2,39.4c-6,15-12.1,30.4-27.4,40.2c-13.8,8.8-27.3,4-41.6-1.1c-14.2-5.1-28.8-10.3-44.9-2.6
			c-17.2,8.2-31.1,27.2-32.5,44.3c-1,12.4,4.2,27.4,14.9,43.3c10.6,15.7,25.7,30.9,43.5,43.9c48.1,35.1,102.2,45.1,144.7,26.8
			c30.8-13.2,56.9-41.8,71.6-78.4C739.1,159.1,743.1,138.9,743.1,120.1z"/>
		<path class="st4" d="M116-66.5c0-14.8-2.4-28.7-7.3-40.8c-11.4-28.1-29.3-42.2-42.4-49.2C43.9-168.3,22.6-171,6.2-164
			c-17.5,7.5-23.6,23-30.2,39.4c-6,15-12.1,30.4-27.4,40.2c-13.8,8.8-27.3,4-41.6-1.1c-14.2-5.1-28.8-10.3-44.9-2.6
			c-17.2,8.2-31.1,27.2-32.5,44.3c-1,12.4,4.2,27.4,14.9,43.3c10.6,15.7,25.7,30.9,43.5,43.9C-63.9,78.6-9.8,88.6,32.7,70.3
			C63.5,57.1,89.6,28.5,104.2-8C112-27.5,116-47.7,116-66.5z"/>
		<path class="st5" d="M111.4,229.1c-1,0-2.1,0-3.1-0.1c-17.1-1.4-36.1-15.7-44.3-33.2c-7.7-16.5-2.5-31.5,2.5-45.9
			c5-14.3,9.8-27.8,1.2-41.5C58.1,93.2,42.9,87,28.2,81C11.8,74.3-3.6,68-11.1,50.2c-7-16.7-4.4-38.4,7.5-61.2
			c6.9-13.3,21-31.5,49-43.1l0,0c27.3-11.3,64.2-9.6,98.6,4.4c36.3,14.8,64.7,41.3,77.9,72.6c9.7,23.1,11.6,48.8,5.5,76.4
			c-5.3,24-16.4,48.3-32.1,70.4C169.5,205.7,136.3,229.1,111.4,229.1z M85.9-61c-14.6,0-28.4,2.4-40.4,7.4
			C17.7-42.1,3.7-24-3.1-10.8c-11.8,22.6-14.4,44.2-7.5,60.7c7.4,17.7,22.8,23.9,39,30.5c14.8,6,30.1,12.2,39.8,27.7
			c8.7,13.9,4,27.6-1.1,42c-5,14.3-10.2,29.1-2.6,45.4c8.1,17.3,27,31.5,43.8,32.8c12.3,1,27.1-4.2,42.9-15.1
			c15.5-10.7,30.6-25.9,43.5-44c34.7-48.6,44.6-103.3,26.6-146.2C208.2-8,179.9-34.4,143.7-49.2C124.5-57,104.5-61,85.9-61z"/>
		<path class="st5" d="M338.7,394c-0.9,0.5-1.8,1-2.8,1.4c-15.6,7.1-39.1,3.8-54.6-7.6c-14.7-10.8-17.2-26.4-19.6-41.5
			c-2.4-15-4.7-29.1-18.7-37c-15.7-8.8-32-6.8-47.8-4.9c-17.5,2.1-34.1,4.1-49.1-7.9c-14.1-11.2-22.1-31.6-22.6-57.3
			c-0.3-15,3.4-37.9,22.4-61.6l0,0c18.6-23.2,51.7-39.6,88.6-44c38.9-4.6,76.4,4.8,102.8,25.9c19.5,15.5,33.4,37.2,41.2,64.4
			c6.8,23.6,8.6,50.3,5.3,77.3C378.4,345.2,360.5,381.9,338.7,394z M178.3,151.9c-12.8,7.1-23.8,15.9-31.9,26.1
			c-18.9,23.6-22.6,46.3-22.3,61.2c0.4,25.5,8.4,45.7,22.3,56.9c14.9,11.9,31.3,9.9,48.7,7.8c15.8-1.9,32.2-3.9,48.1,5
			c14.3,8,16.6,22.3,19,37.4c2.4,15,4.9,30.5,19.3,41.1c15.4,11.3,38.6,14.5,54,7.5c11.3-5.1,21.8-16.9,30.4-34
			c8.5-16.9,14.5-37.6,17.2-59.7c7.3-59.5-10-112.2-46.3-141.1c-26.3-21-63.6-30.3-102.4-25.7C214,136.7,194.6,142.9,178.3,151.9z"
			/>
		<path class="st5" d="M614,484.4c-0.9,0.5-1.8,1-2.8,1.4c-15.6,7.1-39.1,3.8-54.6-7.6c-14.7-10.8-17.2-26.4-19.6-41.5
			c-2.4-15-4.7-29.1-18.7-37c-15.7-8.8-32-6.8-47.8-4.9c-17.5,2.1-34.1,4.1-49.1-7.9c-14.1-11.2-22.1-31.6-22.6-57.3
			c-0.3-15,3.4-37.9,22.4-61.6l0,0c18.6-23.2,51.7-39.6,88.6-44c38.9-4.6,76.4,4.8,102.8,25.9c19.5,15.5,33.4,37.2,41.2,64.4
			c6.8,23.6,8.6,50.3,5.3,77.3C653.8,435.7,635.8,472.4,614,484.4z M453.6,242.4c-12.8,7.1-23.8,15.9-31.9,26.1
			c-18.9,23.6-22.6,46.3-22.3,61.2c0.4,25.5,8.4,45.7,22.3,56.9c14.9,11.9,31.3,9.9,48.7,7.8c15.8-1.9,32.2-3.9,48.1,5
			c14.3,8,16.6,22.3,19,37.4c2.4,15,4.9,30.5,19.3,41.1c15.4,11.3,38.6,14.5,54,7.5c11.3-5.1,21.8-16.9,30.4-34
			c8.5-16.9,14.5-37.6,17.2-59.7c7.3-59.5-10-112.2-46.3-141.1c-26.3-21-63.6-30.4-102.4-25.7C489.4,227.1,469.9,233.4,453.6,242.4z
			"/>
		<path class="st5" d="M631.1,96.8c-0.9,0.5-1.8,1-2.8,1.4c-15.6,7.1-39.1,3.8-54.6-7.6c-14.7-10.8-17.2-26.4-19.6-41.5
			c-2.4-15-4.7-29.1-18.7-37c-15.7-8.8-32-6.8-47.8-4.9c-17.5,2.1-34.1,4.1-49.1-7.9c-14.1-11.2-22.1-31.6-22.6-57.3
			c-0.3-15,3.4-37.9,22.4-61.6l0,0c18.6-23.2,51.7-39.6,88.6-44c38.9-4.6,76.4,4.8,102.8,25.9c19.5,15.5,33.4,37.2,41.2,64.4
			c6.8,23.6,8.6,50.3,5.3,77.3C670.9,48.1,652.9,84.7,631.1,96.8z M470.7-145.3c-12.8,7.1-23.8,15.9-31.9,26.1
			c-18.9,23.6-22.6,46.3-22.3,61.2c0.4,25.5,8.4,45.7,22.3,56.9c14.9,11.9,31.3,9.9,48.7,7.8c15.8-1.9,32.2-3.9,48.1,5
			c14.3,8,16.6,22.3,19,37.4c2.4,15,4.9,30.5,19.3,41.1c15.4,11.3,38.6,14.5,54,7.5c11.3-5.1,21.8-16.9,30.4-34
			C667.1,46.6,673,26,675.7,3.9c7.3-59.5-10-112.2-46.3-141.1c-26.3-21-63.6-30.3-102.4-25.7C506.5-160.5,487-154.3,470.7-145.3z"/>
	</g>
</g>
<g id="OBJECTS">
	<g>
		<g class="st0">
			<g class="st6">
				
					<image style="overflow:visible;opacity:0.42;" width="655" height="414" xlink:href="B6FFEC77.png"  transform="matrix(1 0 0 1 -42 -72)">
				</image>
				<g>
					<path class="st7" d="M582.5,319.2H-25.4c-4.4,0-8-3.3-8-7.4V-55.8c0-4.1,3.6-7.4,8-7.4h607.9c4.4,0,8,3.3,8,7.4v367.6
						C590.5,315.9,586.9,319.2,582.5,319.2z"/>
				</g>
			</g>
			<g class="st6">
				<g>
					<circle class="st8" cx="286.6" cy="291.5" r="3.3"/>
					<circle class="st8" cx="272" cy="291.5" r="3.3"/>
					<circle class="st8" cx="301.3" cy="291.5" r="3.3"/>
					<circle class="st9" cx="257.3" cy="291.5" r="3.8"/>
					<path class="st10" d="M272,287.3c-2.3,0-4.3,1.9-4.3,4.3c0,2.3,1.9,4.3,4.3,4.3c2.3,0,4.3-1.9,4.3-4.3
						C276.2,289.2,274.3,287.3,272,287.3z M272,294.8c-1.8,0-3.3-1.5-3.3-3.3c0-1.8,1.5-3.3,3.3-3.3s3.3,1.5,3.3,3.3
						C275.2,293.3,273.7,294.8,272,294.8z"/>
					<path class="st10" d="M286.6,287.3c-2.3,0-4.3,1.9-4.3,4.3c0,2.3,1.9,4.3,4.3,4.3c2.3,0,4.3-1.9,4.3-4.3
						C290.9,289.2,289,287.3,286.6,287.3z M286.6,294.8c-1.8,0-3.3-1.5-3.3-3.3c0-1.8,1.5-3.3,3.3-3.3c1.8,0,3.3,1.5,3.3,3.3
						C289.9,293.3,288.4,294.8,286.6,294.8z"/>
					<path class="st10" d="M301.3,287.3c-2.3,0-4.3,1.9-4.3,4.3c0,2.3,1.9,4.3,4.3,4.3c2.3,0,4.3-1.9,4.3-4.3
						C305.6,289.2,303.6,287.3,301.3,287.3z M301.3,294.8c-1.8,0-3.3-1.5-3.3-3.3c0-1.8,1.5-3.3,3.3-3.3s3.3,1.5,3.3,3.3
						C304.6,293.3,303.1,294.8,301.3,294.8z"/>
				</g>
				<g>
					<g>
						<path class="st11" d="M44.4-8.2l-77.8,0v-40h77.8c11,0,20,9,20,20v0C64.4-17.2,55.4-8.2,44.4-8.2z"/>
						<path class="st12" d="M0.5-8.2h-34v-40h34c11,0,20,9,20,20v0C20.5-17.2,11.6-8.2,0.5-8.2z"/>
						<g>
							<path class="st8" d="M23.5-31.2c-0.2-0.2-0.6-0.3-1-0.3c-0.4,0-0.8,0.1-1,0.3c-0.4,0.3-0.5,0.8-0.5,1.5v2.8
								c0,0.7,0.2,1.2,0.5,1.5c0.2,0.2,0.6,0.3,1,0.3c0.4,0,0.8-0.1,1-0.3c0.4-0.3,0.5-0.8,0.5-1.5v-2.8h3.7l-3.7,0
								C24.1-30.4,23.9-30.9,23.5-31.2z"/>
							<path class="st8" d="M49.3-31.2c-0.2-0.2-0.6-0.3-1-0.3c-0.4,0-0.8,0.1-1,0.3c-0.4,0.3-0.5,0.8-0.5,1.5v2.8
								c0,0.7,0.2,1.2,0.5,1.5c0.2,0.2,0.6,0.3,1,0.3c0.4,0,0.8-0.1,1-0.3c0.4-0.3,0.5-0.8,0.5-1.5v-2.8h3.7l-3.7,0
								C49.8-30.4,49.7-30.9,49.3-31.2z"/>
							<path class="st10" d="M8.4-21.6L8.4-21.6c0.2,0,0.3,0.1,0.4,0.1h5.5c0.5,0,1-0.2,1.3-0.5c0.4-0.3,0.5-0.8,0.5-1.3
								c0-0.5-0.2-1-0.5-1.3c-0.3-0.3-0.8-0.5-1.3-0.5l-3.6,0v-8.2c0-0.5-0.2-0.9-0.5-1.3c-0.3-0.3-0.8-0.5-1.3-0.5s-1,0.2-1.3,0.5
								C7.2-34.4,7-33.9,7-33.4v9.8c0,0.1,0,0.2,0,0.3c0,0.4,0.1,0.8,0.4,1.1C7.7-21.9,8-21.7,8.4-21.6z"/>
							<path class="st10" d="M22.5-21.4c1.4,0,2.7-0.5,3.7-1.5c1-1,1.6-2.4,1.6-4v-2.7h-3.7v2.8c0,0.7-0.2,1.2-0.5,1.5
								c-0.2,0.2-0.6,0.3-1,0.3c-0.4,0-0.8-0.1-1-0.3c-0.4-0.3-0.5-0.8-0.5-1.5v-2.8c0-0.7,0.2-1.2,0.5-1.5c0.2-0.2,0.6-0.3,1-0.3
								c0.4,0,0.8,0.1,1,0.3c0.4,0.3,0.5,0.8,0.5,1.5l3.7,0c0-1.7-0.6-3.1-1.6-4.1c-0.9-0.9-2.3-1.5-3.7-1.5c-1.4,0-2.7,0.5-3.7,1.5
								c-1,1-1.6,2.4-1.6,4.1v2.7c0,1.7,0.6,3.1,1.6,4C19.8-22,21.2-21.4,22.5-21.4z"/>
							<path class="st10" d="M35.6-21.4c1.1,0,2.1-0.3,3-0.9c0.9-0.6,1.6-1.5,2.1-2.7c0.1-0.1,0.1-0.3,0.1-0.6c0-0.2,0-0.4,0-0.6
								V-28c0-0.5-0.2-0.9-0.5-1.3c-0.3-0.3-0.8-0.5-1.3-0.5l-1.7,0c-0.5,0-0.9,0.2-1.3,0.5c-0.3,0.3-0.5,0.8-0.5,1.3
								c0,0.5,0.2,1,0.5,1.3c0.3,0.3,0.8,0.5,1.3,0.5h0.1v0.1c-0.2,0.3-0.4,0.5-0.6,0.7c-0.3,0.2-0.7,0.3-1.2,0.3
								c-0.4,0-0.7,0-1-0.2c-0.4-0.2-0.5-0.7-0.5-1.4v-3c0-0.7,0.2-1.2,0.6-1.5c0.3-0.2,0.6-0.2,1-0.2c0.3,0,0.5,0,0.7,0.1
								c0.3,0.1,0.5,0.2,0.6,0.4c0,0.1,0.1,0.2,0.2,0.4c0.3,0.4,0.7,0.6,1.3,0.6c0.5,0,1-0.2,1.4-0.5c0.3-0.3,0.5-0.8,0.5-1.3
								c0-0.4-0.1-0.8-0.4-1.2c-0.5-0.6-1-1.1-1.6-1.5c-0.8-0.5-1.6-0.7-2.7-0.7c-1.4,0-2.7,0.5-3.7,1.4c-1,0.9-1.6,2.3-1.6,4v3
								c0,1.7,0.6,3,1.6,4C32.9-21.9,34.2-21.4,35.6-21.4z"/>
							<path class="st10" d="M48.3-21.4c1.4,0,2.7-0.5,3.7-1.5c1-1,1.6-2.4,1.6-4v-2.7h-3.7v2.8c0,0.7-0.2,1.2-0.5,1.5
								c-0.2,0.2-0.6,0.3-1,0.3c-0.4,0-0.8-0.1-1-0.3c-0.4-0.3-0.5-0.8-0.5-1.5v-2.8c0-0.7,0.2-1.2,0.5-1.5c0.2-0.2,0.6-0.3,1-0.3
								c0.4,0,0.8,0.1,1,0.3c0.4,0.3,0.5,0.8,0.5,1.5l3.7,0c0-1.7-0.6-3.1-1.6-4.1c-0.9-0.9-2.3-1.5-3.7-1.5c-1.4,0-2.7,0.5-3.7,1.5
								c-1,1-1.6,2.4-1.6,4.1v2.7c0,1.7,0.6,3.1,1.6,4C45.6-22,46.9-21.4,48.3-21.4z"/>
						</g>
					</g>
					<g>
						<g>
							<g>
								<path class="st13" d="M549.9-38.5H491c-0.5,0-0.8,0.4-0.8,0.8v18.9c0,0.4,0.4,0.8,0.8,0.8h58.9c0.5,0,0.8-0.4,0.8-0.8v-18.9
									C550.7-38.2,550.4-38.5,549.9-38.5z"/>
							</g>
							<g>
								
									<text transform="matrix(1 0 0 1 144.0908 -26.6008)" class="st10" style="font-family:'Exo2-SemiBold'; font-size:7.8105px;">HOME</text>
							</g>
							<g>
								
									<text transform="matrix(1 0 0 1 321.2197 -26.6008)" class="st10" style="font-family:'Exo2-SemiBold'; font-size:7.8105px;">SERVICES</text>
							</g>
							<g>
								
									<text transform="matrix(1 0 0 1 228.1689 -26.6008)" class="st10" style="font-family:'Exo2-SemiBold'; font-size:7.8105px;">ABOUT US</text>
							</g>
							<g>
								
									<text transform="matrix(1 0 0 1 503.8486 -25.0818)" class="st9" style="font-family:'Exo2-SemiBold'; font-size:7.8105px;">SUPPORT</text>
							</g>
						</g>
					</g>
				</g>
				<g>
					<path class="st9" d="M433.5,184.8h-71c-0.6,0-1,0.4-1,1v24c0,0.6,0.4,1,1,1h71c0.6,0,1-0.4,1-1v-24
						C434.5,185.2,434.1,184.8,433.5,184.8z"/>
					<g>
						<g>
							<rect x="361.1" y="135.8" class="st8" width="160.4" height="46.5"/>
							<text transform="matrix(1 0 0 1 361.0872 141.513)"><tspan x="0" y="0" class="st10" style="font-family:'Colaborate-Thin'; font-size:8px;">Lorem ipsum dolor sit amet, consectetuer </tspan><tspan x="0" y="9.4" class="st10" style="font-family:'Colaborate-Thin'; font-size:8px;">adipiscing elit, sed diam nonummy nibhui smod </tspan><tspan x="0" y="18.8" class="st10" style="font-family:'Colaborate-Thin'; font-size:8px;">tincidunt ut laoreet jkdolore magna.</tspan></text>
						</g>
						<text transform="matrix(1 0 0 1 380.6402 199.9446)" class="st7" style="font-family:'Exo2-Bold'; font-size:7.8473px;">CONTACT</text>
						<g>
							<text transform="matrix(1 0 0 1 360.9568 92.5017)" class="st10" style="font-family:'Colaborate-Bold'; font-size:33px;">CONTACT US</text>
						</g>
						<g>
							
								<text transform="matrix(1 0 0 1 360.9568 120.9138)" class="st10" style="font-family:'Colaborate-Regular'; font-size:21px;">LANDING</text>
						</g>
					</g>
				</g>
			</g>
		</g>
		<g>
			<g>
				<g>
					<g>
						<g>
							<g>
								<path class="st14" d="M318.1,169.6c0.3-5.2,0.2-10.4-0.4-15.6c-2.8-24.3-15.2-47.2-33.6-63.4c-6.5-5.8-14-10.9-18.3-18.6
									c-7.2-12.8-6.6-27.6-15.5-40.2c-8.9-12.7-21.9-22.6-36.6-27.6c-43.7-15.1-104.9,9.5-99.4,62.2c0,0.2,0,0.5,0.1,0.8
									c0.7,10.9-7.8,20.1-18.8,20.4c-40.3,1-75,32-82.4,71.4c-4.8,25.3,3,53.1,21.6,71c13.8,13.4,32.4,20.7,50.9,25.8
									c37.2,10.1,76.4,12.2,114.7,8.4c35.9-3.6,73.8-13.9,97-41.6C309.9,207.7,317,188.8,318.1,169.6z"/>
							</g>
						</g>
					</g>
				</g>
				<g class="st15">
					<g>
						<path class="st16" d="M284.9,172.1c0.2-4.1,0.1-8.2-0.3-12.2c-2.2-19-11.9-37-26.3-49.7c-5.1-4.5-11-8.6-14.3-14.5
							c-5.6-10-5.2-21.6-12.2-31.5c-7-9.9-17.2-17.7-28.6-21.7C169,30.6,121,50,125.4,91.2c0,0.1,0,0.4,0.1,0.6
							c0.6,8.6-6.1,15.8-14.7,16c-31.6,0.7-58.8,25.1-64.6,55.9c-3.7,19.8,2.4,41.6,16.9,55.6c10.8,10.5,25.4,16.2,39.9,20.2
							c29.1,7.9,59.8,9.6,89.9,6.6c28.1-2.8,57.8-10.9,76-32.6C278.5,202,284.1,187.2,284.9,172.1z"/>
					</g>
				</g>
				
					<ellipse transform="matrix(0.2307 -0.973 0.973 0.2307 192.4568 321.5453)" class="st14" cx="299.6" cy="39.1" rx="9.9" ry="9.9"/>
				
					<ellipse transform="matrix(0.7071 -0.7071 0.7071 0.7071 4.791 66.8178)" class="st14" cx="83.1" cy="27.6" rx="11.4" ry="11.4"/>
				<circle class="st14" cx="14.6" cy="247.2" r="14.8"/>
			</g>
			<g>
				<g>
					<circle class="st17" cx="131.1" cy="78.4" r="52.3"/>
					<path class="st18" d="M167.4,116.1c-0.1,0-0.3,0-0.4-0.1c-0.2-0.2-0.2-0.5,0-0.7c9.8-9.8,15.2-22.8,15.2-36.6
						c0-13.8-5.4-26.9-15.2-36.6c-9.8-9.8-22.8-15.2-36.6-15.2s-26.9,5.4-36.6,15.2c-0.2,0.2-0.5,0.2-0.7,0c-0.2-0.2-0.2-0.5,0-0.7
						c10-10,23.2-15.5,37.4-15.5s27.4,5.5,37.4,15.5c10,10,15.5,23.2,15.5,37.4s-5.5,27.4-15.5,37.4
						C167.7,116,167.6,116.1,167.4,116.1z"/>
					<circle class="st7" cx="131.1" cy="78.4" r="39.8"/>
					<path class="st18" d="M131.1,118.7c-22.2,0-40.3-18.1-40.3-40.3s18.1-40.3,40.3-40.3c0.3,0,0.5,0.2,0.5,0.5
						c0,0.3-0.2,0.5-0.5,0.5c-21.7,0-39.3,17.6-39.3,39.3c0,21.7,17.6,39.3,39.3,39.3c0.3,0,0.5,0.2,0.5,0.5
						C131.6,118.5,131.4,118.7,131.1,118.7z"/>
					<path class="st18" d="M141.4,86h-10.8c-2.2,0-4-1.8-4-4V67c0-1.9,1.6-3.5,3.5-3.5c1.9,0,3.5,1.6,3.5,3.5v12h7.9
						c1.9,0,3.5,1.6,3.5,3.5S143.3,86,141.4,86z"/>
				</g>
			</g>
			<g>
				<path class="st18" d="M49.8,96.6l56.4,56.4c11,11,28.9,11,39.9,0l6.7-6.7c2.5-2.5,2.5-6.7,0-9.2l-23-23c-2.5-2.5-6.7-2.5-9.2,0
					l-11.5,11.5c-0.9,0.9-2.4,0.9-3.3,0L78,97.6c-0.9-0.9-0.9-2.3,0-3.2L89.4,83c2.5-2.5,2.5-6.7,0-9.2L65.7,50.2
					c-2.5-2.5-6.6-2.5-9.1-0.1l-6.4,6.2C38.8,67.3,38.7,85.4,49.8,96.6z"/>
				<g>
					<path class="st19" d="M51.6,57.4l31.7,31.7l1.1-1.1l5-5c2.5-2.5,2.5-6.7,0-9.2L65.7,50.2c-2.5-2.5-6.6-2.5-9.1-0.1l-6.4,6.2
						L51.6,57.4z"/>
					<path class="st10" d="M83.3,89.8l-32-32l-1.8-1.5l6.8-6.6c2.7-2.6,7.1-2.6,9.8,0.1l23.6,23.6c2.7,2.7,2.7,7.2,0,9.9L83.3,89.8z
						 M50.9,56.3l1,0.8l31.3,31.3l5.7-5.7c1.1-1.1,1.8-2.6,1.8-4.3c0-1.6-0.6-3.1-1.8-4.3L65.4,50.5c-2.3-2.3-6.1-2.3-8.4-0.1
						L50.9,56.3z"/>
				</g>
				<g>
					<path class="st19" d="M116,120.8l31.7,31.7l1.1-1.1l5-5c2.5-2.5,2.5-6.7,0-9.2l-23.6-23.6c-2.5-2.5-6.6-2.5-9.1-0.1l-6.4,6.2
						L116,120.8z"/>
					<path class="st10" d="M147.7,153.2l-32-32l-1.8-1.5l6.8-6.6c2.7-2.6,7.1-2.6,9.8,0.1l23.6,23.6c1.3,1.3,2.1,3.1,2.1,5
						c0,1.9-0.7,3.6-2.1,5L147.7,153.2z M115.4,119.6l1,0.8l31.3,31.3l5.7-5.7c1.1-1.1,1.8-2.6,1.8-4.3c0-1.6-0.6-3.1-1.8-4.3
						l-23.6-23.6c-2.3-2.3-6.1-2.3-8.4-0.1L115.4,119.6z"/>
				</g>
				<g>
					<line class="st19" x1="54" y1="53.7" x2="73.3" y2="73"/>
					<path class="st10" d="M73.3,73.5c-0.1,0-0.3,0-0.4-0.1L53.7,54c-0.2-0.2-0.2-0.5,0-0.7c0.2-0.2,0.5-0.2,0.7,0l19.3,19.3
						c0.2,0.2,0.2,0.5,0,0.7C73.6,73.4,73.5,73.5,73.3,73.5z"/>
				</g>
				<g>
					<line class="st19" x1="130.8" y1="130.5" x2="150.1" y2="149.8"/>
					<path class="st10" d="M150.1,150.3c-0.1,0-0.3,0-0.4-0.1l-19.3-19.3c-0.2-0.2-0.2-0.5,0-0.7c0.2-0.2,0.5-0.2,0.7,0l19.3,19.3
						c0.2,0.2,0.2,0.5,0,0.7C150.4,150.2,150.2,150.3,150.1,150.3z"/>
				</g>
			</g>
			<g>
				<path class="st18" d="M234.8,248.9L160.9,238c-8.4-1.2-14.1-9-12.9-17.4l26.5-179.2c1.2-8.4,9-14.1,17.4-12.9l73.9,10.9
					c8.4,1.2,14.1,9,12.9,17.4L252.2,236C250.9,244.4,243.2,250.2,234.8,248.9z"/>
				
					<rect x="128.1" y="90.3" transform="matrix(0.1463 -0.9892 0.9892 0.1463 47.1853 328.022)" class="st19" width="171" height="92.7"/>
				
					<rect x="218.8" y="12" transform="matrix(0.1463 -0.9892 0.9892 0.1463 134.4797 272.6672)" class="st17" width="12.8" height="92.7"/>
				<path class="st19" d="M199.6,237.8c-0.3,0-0.6,0-0.9-0.1c-1.6-0.2-3-1.1-3.9-2.4c-1-1.3-1.3-2.9-1.1-4.4c0.2-1.6,1.1-3,2.4-3.9
					c1.3-1,2.9-1.4,4.4-1.1c1.6,0.2,3,1.1,3.9,2.4c1,1.3,1.3,2.9,1.1,4.4C205.1,235.6,202.5,237.8,199.6,237.8z M199.6,226.8
					c-1.1,0-2.1,0.3-3,1c-1.1,0.8-1.8,2-2,3.3c-0.2,1.3,0.1,2.6,0.9,3.7c0.8,1.1,2,1.8,3.3,2c2.7,0.4,5.3-1.5,5.7-4.2
					c0.2-1.3-0.1-2.6-0.9-3.7c-0.8-1.1-2-1.8-3.3-2C200.1,226.8,199.8,226.8,199.6,226.8z"/>
				<path class="st19" d="M212.8,43.7c-0.1,0-0.2,0-0.3,0c-0.5-0.1-1-0.3-1.3-0.8c-0.3-0.4-0.4-0.9-0.4-1.4c0.1-0.5,0.3-1,0.8-1.3
					c0.4-0.3,0.9-0.4,1.4-0.4c0.5,0.1,1,0.3,1.3,0.8c0.3,0.4,0.4,0.9,0.4,1.4v0C214.6,43,213.8,43.7,212.8,43.7z M212.8,40.8
					c-0.2,0-0.4,0.1-0.5,0.2c-0.2,0.1-0.3,0.4-0.4,0.6c0,0.2,0,0.5,0.2,0.7c0.1,0.2,0.4,0.3,0.6,0.4c0.2,0,0.5,0,0.7-0.2
					c0.2-0.1,0.3-0.4,0.4-0.6l0,0c0-0.2,0-0.5-0.2-0.7c-0.1-0.2-0.4-0.3-0.6-0.4C212.9,40.8,212.9,40.8,212.8,40.8z"/>
				<path class="st19" d="M242.6,48.1c-0.1,0-0.2,0-0.3,0l-23.4-3.5c-0.5-0.1-1-0.3-1.3-0.8c-0.3-0.4-0.4-0.9-0.4-1.4s0.3-1,0.8-1.3
					c0.4-0.3,0.9-0.4,1.4-0.4l23.4,3.5c0.5,0.1,1,0.3,1.3,0.8c0.3,0.4,0.4,0.9,0.4,1.4c-0.1,0.5-0.3,1-0.8,1.3
					C243.5,47.9,243.1,48.1,242.6,48.1z M219.2,41.8c-0.5,0-0.8,0.3-0.9,0.8c0,0.2,0,0.5,0.2,0.7c0.1,0.2,0.4,0.3,0.6,0.4l23.4,3.5
					c0.5,0.1,1-0.3,1.1-0.8c0-0.2,0-0.5-0.2-0.7c-0.1-0.2-0.4-0.3-0.6-0.4l-23.4-3.5C219.3,41.8,219.3,41.8,219.2,41.8z"/>
				<path class="st20" d="M247.4,176.3l-64-9.5c-1-0.2-2,0.6-2.2,1.6l-2.5,16.6c-0.2,1,0.6,2,1.6,2.2l54.7,8.1l5.6,7.8l1-6.8
					l2.6,0.4c1,0.2,2-0.6,2.2-1.6l2.5-16.6C249.1,177.4,248.4,176.4,247.4,176.3z"/>
				<path class="st18" d="M235.1,195.8C235.1,195.8,235,195.8,235.1,195.8l-54.8-8.1c-0.6-0.1-1.2-0.4-1.6-0.9
					c-0.4-0.5-0.5-1.2-0.4-1.8l2.5-16.6c0.2-1.3,1.4-2.2,2.7-2l14.8,2.2c0.3,0,0.5,0.3,0.4,0.6c0,0.3-0.3,0.5-0.6,0.4l-14.8-2.2
					c-0.8-0.1-1.5,0.4-1.6,1.2l-2.5,16.6c-0.1,0.4,0,0.7,0.3,1c0.2,0.3,0.6,0.5,0.9,0.6l54.7,8.1c0.3,0,0.5,0.3,0.4,0.6
					C235.5,195.6,235.3,195.8,235.1,195.8z"/>
				<path class="st20" d="M257.6,107.5l-64-9.5c-1-0.2-2,0.6-2.2,1.6l-2.5,16.6c-0.2,1,0.6,2,1.6,2.2l54.7,8.1l5.6,7.8l1-6.8
					l2.6,0.4c1,0.2,2-0.6,2.2-1.6l2.5-16.6C259.3,108.6,258.6,107.6,257.6,107.5z"/>
				<path class="st18" d="M251.2,135.6L245,127l-54.5-8.1c-1.3-0.2-2.2-1.4-2-2.7c0-0.3,0.3-0.5,0.6-0.4c0.3,0,0.5,0.3,0.4,0.6
					c-0.1,0.4,0,0.7,0.3,1c0.2,0.3,0.6,0.5,0.9,0.6l54.9,8.1l5,7l0.9-6.1l3.1,0.5c0.4,0.1,0.7,0,1-0.3c0.3-0.2,0.5-0.6,0.6-0.9
					l1.6-11c0-0.3,0.3-0.5,0.6-0.4c0.3,0,0.5,0.3,0.4,0.6l-1.6,11c-0.1,0.6-0.4,1.2-0.9,1.6c-0.5,0.4-1.2,0.5-1.8,0.4l-2.1-0.3
					L251.2,135.6z"/>
				<path class="st17" d="M176.6,128.9l64,9.5c1,0.2,1.8,1.1,1.6,2.2l-2.5,16.6c-0.2,1-1.1,1.8-2.2,1.6l-54.7-8.1l-7.6,5.8l1-6.8
					l-2.6-0.4c-1-0.2-1.8-1.1-1.6-2.2l2.5-16.6C174.5,129.4,175.5,128.7,176.6,128.9z"/>
				<path class="st18" d="M237.8,159.2c-0.1,0-0.2,0-0.4,0l-34.2-5.1c-0.3,0-0.5-0.3-0.4-0.6c0-0.3,0.3-0.5,0.6-0.4l34.2,5.1
					c0.4,0.1,0.7,0,1-0.3c0.3-0.2,0.5-0.6,0.6-0.9l2.5-16.6c0.1-0.8-0.4-1.5-1.2-1.6c-0.3,0-0.5-0.3-0.4-0.6c0-0.3,0.3-0.5,0.6-0.4
					c1.3,0.2,2.2,1.4,2,2.7l-2.5,16.6c-0.1,0.6-0.4,1.2-0.9,1.6C238.8,159.1,238.3,159.2,237.8,159.2z"/>
				
					<rect x="194.4" y="167.1" transform="matrix(0.1463 -0.9892 0.9892 0.1463 -38.5075 382.3612)" class="st7" width="15.7" height="92.7"/>
				<path class="st20" d="M171.1,208.7c-0.5,3-3.3,5.2-6.3,4.7c-3-0.5-5.2-3.3-4.7-6.3c0.5-3,3.3-5.2,6.3-4.7
					C169.4,202.9,171.6,205.7,171.1,208.7z"/>
				<path class="st21" d="M238.8,223.9c-0.2,0-0.5,0-0.7-0.1l-59.5-8.8c-1.3-0.2-2.5-0.9-3.3-2c-0.8-1.1-1.1-2.4-0.9-3.7
					c0.4-2.7,2.9-4.6,5.7-4.2l59.5,8.8c2.7,0.4,4.6,2.9,4.2,5.6C243.3,222.1,241.2,223.9,238.8,223.9z M238.2,222.8
					c2.2,0.3,4.2-1.2,4.5-3.4c0.2-1.1-0.1-2.1-0.7-3c-0.6-0.9-1.6-1.4-2.6-1.6l-59.5-8.8c-2.2-0.3-4.2,1.2-4.5,3.4
					c-0.2,1.1,0.1,2.1,0.7,3c0.6,0.9,1.6,1.4,2.6,1.6L238.2,222.8z"/>
				<path class="st7" d="M186,54.4c-0.1,0-0.2,0-0.3,0c-1.1-0.2-1.8-1.2-1.7-2.2c0.1-0.5,0.4-1,0.8-1.3c0.4-0.3,0.9-0.4,1.5-0.4
					c1.1,0.2,1.8,1.2,1.7,2.2l0,0C187.8,53.7,186.9,54.4,186,54.4z M186,51.5c-0.2,0-0.4,0.1-0.6,0.2c-0.2,0.2-0.3,0.4-0.4,0.6
					c0,0.3,0,0.5,0.2,0.7c0.2,0.2,0.4,0.3,0.6,0.4c0.5,0.1,1-0.3,1.1-0.8l0,0c0-0.3,0-0.5-0.2-0.7c-0.2-0.2-0.4-0.3-0.6-0.4
					C186.1,51.5,186,51.5,186,51.5z"/>
				<path class="st7" d="M191.4,55.2c-0.1,0-0.2,0-0.3,0c-1.1-0.2-1.8-1.2-1.7-2.2c0.2-1.1,1.2-1.8,2.2-1.7c0.5,0.1,1,0.3,1.3,0.8
					c0.3,0.4,0.4,0.9,0.4,1.5c-0.1,0.5-0.4,1-0.8,1.3C192.2,55.1,191.8,55.2,191.4,55.2z M191.4,52.3c-0.5,0-0.9,0.3-0.9,0.8
					c0,0.3,0,0.5,0.2,0.7c0.2,0.2,0.4,0.3,0.6,0.4c0.3,0,0.5,0,0.7-0.2c0.2-0.2,0.3-0.4,0.4-0.6l0,0c0-0.3,0-0.5-0.2-0.7
					c-0.2-0.2-0.4-0.3-0.6-0.4C191.5,52.3,191.5,52.3,191.4,52.3z"/>
				<path class="st7" d="M196.7,56c-0.1,0-0.2,0-0.3,0c-1.1-0.2-1.8-1.2-1.6-2.2c0.2-1.1,1.2-1.8,2.2-1.7c1.1,0.2,1.8,1.2,1.7,2.2
					C198.5,55.3,197.7,56,196.7,56z M196.7,53.1c-0.2,0-0.4,0.1-0.6,0.2c-0.2,0.2-0.3,0.4-0.4,0.6c0,0.3,0,0.5,0.2,0.7
					c0.2,0.2,0.4,0.3,0.6,0.4c0.5,0.1,1-0.3,1.1-0.8c0.1-0.5-0.3-1-0.8-1.1C196.8,53.1,196.8,53.1,196.7,53.1z"/>
				<path class="st18" d="M271.4,72.2C271.4,72.2,271.4,72.2,271.4,72.2l-85-12.6c-0.3,0-0.5-0.3-0.4-0.6c0-0.3,0.3-0.5,0.6-0.4
					l84.9,12.6c0.3,0,0.5,0.3,0.4,0.6C271.9,72.1,271.6,72.2,271.4,72.2z"/>
				<path class="st7" d="M236,180.1C236,180.1,235.9,180.1,236,180.1l-45.4-6.7c-0.3,0-0.5-0.3-0.4-0.6c0-0.3,0.3-0.5,0.6-0.4
					l45.3,6.7c0.3,0,0.5,0.3,0.4,0.6C236.5,179.9,236.2,180.1,236,180.1z"/>
				<path class="st7" d="M209.2,181.7C209.1,181.7,209.1,181.7,209.2,181.7l-19.4-2.9c-0.3,0-0.5-0.3-0.4-0.6c0-0.3,0.3-0.5,0.6-0.4
					l19.3,2.9c0.3,0,0.5,0.3,0.4,0.6C209.6,181.5,209.4,181.7,209.2,181.7z"/>
				<path class="st7" d="M202.7,185.9C202.6,185.9,202.6,185.9,202.7,185.9l-13.6-2c-0.3,0-0.5-0.3-0.4-0.6c0-0.3,0.3-0.5,0.6-0.4
					l13.5,2c0.3,0,0.5,0.3,0.4,0.6C203.1,185.7,202.9,185.9,202.7,185.9z"/>
				<path class="st7" d="M235.2,185.5C235.2,185.5,235.1,185.5,235.2,185.5l-20-3c-0.3,0-0.5-0.3-0.4-0.6c0-0.3,0.3-0.5,0.6-0.4
					l19.9,2.9c0.3,0,0.5,0.3,0.4,0.6C235.7,185.3,235.4,185.5,235.2,185.5z"/>
				<g>
					<path class="st7" d="M230.5,142.5C230.4,142.5,230.4,142.5,230.5,142.5l-45.4-6.7c-0.3,0-0.5-0.3-0.4-0.6
						c0-0.3,0.3-0.5,0.6-0.4l45.3,6.7c0.3,0,0.5,0.3,0.4,0.6C230.9,142.3,230.7,142.5,230.5,142.5z"/>
					<path class="st7" d="M203.6,144.1C203.6,144.1,203.6,144.1,203.6,144.1l-19.4-2.9c-0.3,0-0.5-0.3-0.4-0.6
						c0-0.3,0.3-0.5,0.6-0.4l19.3,2.9c0.3,0,0.5,0.3,0.4,0.6C204.1,143.9,203.9,144.1,203.6,144.1z"/>
					<path class="st7" d="M223.7,152.2C223.7,152.2,223.6,152.2,223.7,152.2l-39.2-6.1c-0.3,0-0.5-0.3-0.4-0.6
						c0-0.3,0.3-0.5,0.6-0.4l39.1,6.1c0.3,0,0.5,0.3,0.4,0.6C224.1,152,223.9,152.2,223.7,152.2z"/>
					<path class="st7" d="M229.7,147.9C229.6,147.9,229.6,147.9,229.7,147.9l-20-3c-0.3,0-0.5-0.3-0.4-0.6c0-0.3,0.3-0.5,0.6-0.4
						l19.9,2.9c0.3,0,0.5,0.3,0.4,0.6C230.1,147.7,229.9,147.9,229.7,147.9z"/>
				</g>
				<path class="st17" d="M184.8,66.5l64,9.5c1,0.2,1.8,1.1,1.6,2.2l-2.5,16.6c-0.2,1-1.1,1.8-2.2,1.6L191,88.2l-7.6,5.8l1-6.8
					l-2.6-0.4c-1-0.2-1.8-1.1-1.6-2.2l2.5-16.6C182.8,67,183.7,66.3,184.8,66.5z"/>
				<path class="st18" d="M247.9,95.2C247.9,95.2,247.9,95.2,247.9,95.2c-0.3,0-0.5-0.3-0.5-0.6l2.5-16.6c0.1-0.4,0-0.7-0.3-1
					c-0.2-0.3-0.6-0.5-0.9-0.6L209,70.5c-0.3,0-0.5-0.3-0.4-0.6c0-0.3,0.3-0.5,0.6-0.4l39.7,5.9c0.6,0.1,1.2,0.4,1.6,0.9
					c0.4,0.5,0.5,1.2,0.4,1.8l-2.5,16.6C248.4,95,248.2,95.2,247.9,95.2z"/>
				<g>
					<path class="st7" d="M238.7,80.1C238.7,80.1,238.6,80.1,238.7,80.1l-45.4-6.7c-0.3,0-0.5-0.3-0.4-0.6c0-0.3,0.3-0.5,0.6-0.4
						l45.3,6.7c0.3,0,0.5,0.3,0.4,0.6C239.1,79.9,238.9,80.1,238.7,80.1z"/>
					<path class="st7" d="M211.9,81.6C211.8,81.6,211.8,81.6,211.9,81.6l-19.4-2.9c-0.3,0-0.5-0.3-0.4-0.6c0-0.3,0.3-0.5,0.6-0.4
						l19.3,2.9c0.3,0,0.5,0.3,0.4,0.6C212.3,81.5,212.1,81.6,211.9,81.6z"/>
					<path class="st7" d="M231.9,89.8C231.9,89.8,231.8,89.8,231.9,89.8l-39.2-6.1c-0.3,0-0.5-0.3-0.4-0.6c0-0.3,0.3-0.5,0.6-0.4
						l39.1,6.1c0.3,0,0.5,0.3,0.4,0.6C232.4,89.6,232.1,89.8,231.9,89.8z"/>
					<path class="st7" d="M237.9,85.5C237.9,85.5,237.8,85.5,237.9,85.5l-20-3c-0.3,0-0.5-0.3-0.4-0.6c0-0.3,0.3-0.5,0.6-0.4
						l19.9,2.9c0.3,0,0.5,0.3,0.4,0.6C238.3,85.3,238.1,85.5,237.9,85.5z"/>
				</g>
				<path class="st7" d="M246.2,111.9C246.2,111.9,246.2,111.9,246.2,111.9l-45.4-6.7c-0.3,0-0.5-0.3-0.4-0.6c0-0.3,0.3-0.5,0.6-0.4
					l45.3,6.7c0.3,0,0.5,0.3,0.4,0.6C246.7,111.8,246.5,111.9,246.2,111.9z"/>
				<path class="st7" d="M219.4,113.5C219.4,113.5,219.3,113.5,219.4,113.5l-19.4-2.9c-0.3,0-0.5-0.3-0.4-0.6c0-0.3,0.3-0.5,0.6-0.4
					l19.3,2.9c0.3,0,0.5,0.3,0.4,0.6C219.8,113.3,219.6,113.5,219.4,113.5z"/>
				<path class="st7" d="M212.9,117.7C212.9,117.7,212.8,117.7,212.9,117.7l-13.6-2c-0.3,0-0.5-0.3-0.4-0.6c0-0.3,0.3-0.5,0.6-0.4
					l13.5,2c0.3,0,0.5,0.3,0.4,0.6C213.3,117.5,213.1,117.7,212.9,117.7z"/>
				<path class="st7" d="M245.4,117.4C245.4,117.4,245.4,117.4,245.4,117.4l-20-3c-0.3,0-0.5-0.3-0.4-0.6c0-0.3,0.3-0.5,0.6-0.4
					l19.9,2.9c0.3,0,0.5,0.3,0.4,0.6C245.9,117.2,245.7,117.4,245.4,117.4z"/>
			</g>
			<g>
				<g>
					<path class="st22" d="M154.1,233.6L51.4,245.1c-2,0.2-3.8-1.2-4-3.2L40,176.2c0-0.1,0.1-0.2,0.2-0.2l109.4-12.3
						c0.1,0,0.2,0.1,0.2,0.2l7.4,65.8C157.4,231.6,156,233.3,154.1,233.6z"/>
					<path class="st18" d="M51,245.6c-2.1,0-3.8-1.5-4.1-3.6l-7.4-65.8c0-0.4,0.2-0.7,0.6-0.8l109.4-12.3c0.4,0,0.7,0.2,0.8,0.6
						l7.4,65.8c0.1,1.1-0.2,2.1-0.9,3c-0.7,0.8-1.6,1.4-2.7,1.5L51.5,245.6C51.3,245.6,51.2,245.6,51,245.6z M40.6,176.4l7.4,65.5
						c0.2,1.7,1.7,2.9,3.4,2.7L154,233.1l0.1,0.5l-0.1-0.5c0.8-0.1,1.5-0.5,2.1-1.1c0.5-0.6,0.7-1.4,0.6-2.3l-7.4-65.5L40.6,176.4z"
						/>
				</g>
				<path class="st23" d="M149.3,233.6l-92.8,11.6c-2,0.2,28.8-39.2,28.5-41.2L40,176.2c0-0.1,0.1-0.2,0.2-0.2l109.4-12.3
					c0.1,0,0.2,0.1,0.2,0.2l-37.4,37C112.6,202.8,151.2,233.3,149.3,233.6z"/>
				<g>
					<path class="st22" d="M40.2,176l45.2-44.7c2.7-2.7,6.9-3.2,10.1-1.2l53.8,33.4c0.1,0.1,0.1,0.2,0,0.2L40,176"/>
					<path class="st18" d="M40.1,176.5l-0.1-0.7l-0.1-0.1l0.1-0.1l0,0l0,0l45.1-44.6c2.9-2.8,7.3-3.4,10.7-1.2l53.8,33.4
						c0.2,0.1,0.3,0.4,0.3,0.7c-0.1,0.3-0.3,0.4-0.5,0.5L40.1,176.5z M91.2,129.4c-2,0-3.9,0.8-5.4,2.2l-44.2,43.7l106.5-12
						l-52.8-32.8C94,129.7,92.6,129.4,91.2,129.4z"/>
				</g>
				<path class="st23" d="M40.2,176l45.2-44.7c2.7-2.7,6.9-3.2,10.1-1.2l53.8,33.4c0.1,0.1,0.1,0.2,0,0.2L40,176"/>
				<g>
					<path class="st24" d="M90.4,197.1l-34,47.3l92.8-10.5l-43.7-38.6C101,191.3,94,192.1,90.4,197.1z"/>
					<path class="st18" d="M55.4,245L90,196.8l0.4,0.3l-0.4-0.3c1.8-2.5,4.5-4.1,7.5-4.4c3-0.3,6.1,0.6,8.3,2.6l44.5,39.3L55.4,245z
						 M98.8,193.3c-0.4,0-0.7,0-1.1,0.1c-2.7,0.3-5.2,1.8-6.8,4l-33.3,46.4l90.6-10.2l-42.8-37.8
						C103.5,194.1,101.1,193.3,98.8,193.3z"/>
				</g>
				<g>
					<path class="st7" d="M45.7,143.6l71.5-8.1c4.7-0.5,8.9,2.3,9.3,6.4l4.6,40.8L111.3,201l-26.3,3l-26-16.2l-4.5-39.5L45.7,143.6z
						"/>
					<path class="st10" d="M84.9,204.5L58.6,188l-4.4-39.5l-6.8-5.6l69.9-7.9c2.4-0.3,4.7,0.3,6.6,1.6c1.9,1.3,3,3.2,3.3,5.3l4.6,41
						l-20.2,18.6L84.9,204.5z M59.5,187.4l25.6,16l25.9-2.9l19.6-18L126,142c-0.2-1.8-1.2-3.4-2.9-4.6c-1.7-1.1-3.8-1.6-5.9-1.4
						l-69.9,7.9l7.6,4L59.5,187.4z"/>
				</g>
				<path class="st23" d="M90.4,193l-34,51.4l92.8-10.5l-43.7-42.6C101,187.2,94,188,90.4,193z"/>
				<g>
					<path class="st22" d="M90.4,197.1l-34,47.3l92.8-10.5l-43.7-38.6C101,191.3,94,192.1,90.4,197.1z"/>
					<path class="st10" d="M55.4,245L90,196.8l0.4,0.3l-0.4-0.3c1.8-2.5,4.5-4.1,7.5-4.4c3-0.3,6.1,0.6,8.3,2.6l44.5,39.3L55.4,245z
						 M98.8,193.3c-0.4,0-0.7,0-1.1,0.1c-2.7,0.3-5.2,1.8-6.8,4l-33.3,46.4l90.6-10.2l-42.8-37.8
						C103.5,194.1,101.1,193.3,98.8,193.3z"/>
				</g>
				<g>
					<line class="st18" x1="40.2" y1="176.1" x2="85" y2="203.9"/>
					
						<rect x="62.1" y="163.7" transform="matrix(0.5289 -0.8487 0.8487 0.5289 -131.767 142.6592)" class="st18" width="1" height="52.7"/>
				</g>
				<g>
					<line class="st18" x1="149.8" y1="163.7" x2="112.4" y2="200.9"/>
					
						<rect x="104.7" y="181.8" transform="matrix(0.7096 -0.7047 0.7047 0.7096 -90.3811 145.318)" class="st18" width="52.7" height="1"/>
				</g>
				<path class="st25" d="M93.7,207.5l-25,34.7l68.2-7.7l-32.1-28.3C101.5,203.3,96.3,203.9,93.7,207.5z"/>
				<path class="st18" d="M65,157.1c-0.3,0-0.5-0.2-0.5-0.4c0-0.3,0.2-0.5,0.4-0.6l51.8-5.8c0.3,0,0.5,0.2,0.6,0.4
					c0,0.3-0.2,0.5-0.4,0.6L65,157.1C65.1,157.1,65,157.1,65,157.1z"/>
				<path class="st18" d="M67,174.8c-0.3,0-0.5-0.2-0.5-0.4c0-0.3,0.2-0.5,0.4-0.6l51.8-5.8c0.3,0,0.5,0.2,0.6,0.4
					c0,0.3-0.2,0.5-0.4,0.6L67,174.8C67,174.8,67,174.8,67,174.8z"/>
				<path class="st18" d="M66,165.8c-0.3,0-0.5-0.2-0.5-0.4c0-0.3,0.2-0.5,0.4-0.6l22.4-2.5c0.3,0,0.5,0.2,0.6,0.4
					c0,0.3-0.2,0.5-0.4,0.6L66,165.8C66,165.8,66,165.8,66,165.8z"/>
				<path class="st18" d="M94.3,162.7c-0.3,0-0.5-0.2-0.5-0.4c0-0.3,0.2-0.5,0.4-0.6l23.6-2.7c0.3,0,0.5,0.2,0.6,0.4
					c0,0.3-0.2,0.5-0.4,0.6L94.3,162.7C94.3,162.7,94.3,162.7,94.3,162.7z"/>
				<path class="st18" d="M68.1,184.7c-0.3,0-0.5-0.2-0.5-0.4c0-0.3,0.2-0.5,0.4-0.6l22.4-2.5c0.3,0,0.5,0.2,0.6,0.4
					c0,0.3-0.2,0.5-0.4,0.6L68.1,184.7C68.2,184.7,68.2,184.7,68.1,184.7z"/>
				<g>
					<path class="st19" d="M56.6,166.4l-12.5,1.4l-2-17.8c-0.4-3.3,2-6.3,5.3-6.6l0.6-0.1c3.3-0.4,6.3,2,6.6,5.3L56.6,166.4z"/>
					<path class="st10" d="M43.6,168.4l-2.1-18.3c-0.2-1.7,0.3-3.4,1.4-4.8c1.1-1.4,2.6-2.2,4.3-2.4l0.6-0.1
						c1.7-0.2,3.4,0.3,4.8,1.4c1.4,1.1,2.2,2.6,2.4,4.3l2.1,18.3L43.6,168.4z M48.6,143.8c-0.2,0-0.4,0-0.6,0l-0.6,0.1
						c-1.5,0.2-2.8,0.9-3.7,2c-0.9,1.1-1.3,2.6-1.2,4l1.9,17.3L56,166l-2-17.3c-0.2-1.5-0.9-2.8-2-3.7
						C51,144.2,49.8,143.8,48.6,143.8z"/>
				</g>
			</g>
		</g>
	</g>
</g>
<g id="DESIGNED_BY_FREEPIK" class="st0">
	<g class="st6">
		<g>
			<g id="XMLID_197_">
				<g id="XMLID_216_">
					<path id="XMLID_224_" class="st7" d="M288.1,343.6c-0.4,0.4-0.8,0.9-1.1,1.4l-0.5-0.2c-0.1-0.3-0.3-0.5-0.7-0.5
						c-0.3,0-0.6,0.3-0.5,0.7c0,0.3,0.3,0.6,0.7,0.5c0.1,0,0.1,0,0.2-0.1l0.4,0.2c-0.3,0.6-0.4,1.1-0.5,1.7l0.7,0.1
						c0.2-1.3,0.8-2.5,1.8-3.5L288.1,343.6z"/>
					<path id="XMLID_223_" class="st7" d="M293.5,341.3c-0.2,0-0.3,0-0.5,0l-0.1-0.6c0.2-0.1,0.3-0.4,0.3-0.6c0-0.4-0.4-0.7-0.8-0.6
						c-0.4,0-0.7,0.4-0.6,0.8c0,0.3,0.2,0.5,0.4,0.6l0.1,0.6c-0.7,0.1-1.4,0.3-2.1,0.6l0.3,0.7c0.9-0.4,1.9-0.7,3-0.7
						c0.5,0,1,0.1,1.5,0.2l0.2-0.7C294.6,341.4,294.1,341.3,293.5,341.3z"/>
					<path id="XMLID_222_" class="st7" d="M300.1,343.9c0.3,0,0.6-0.3,0.5-0.7c0-0.3-0.3-0.6-0.7-0.5c-0.3,0-0.5,0.3-0.5,0.6
						l-0.4,0.4c-0.4-0.4-0.9-0.8-1.4-1.1l-0.4,0.6c1.1,0.7,2,1.7,2.6,2.9l0.7-0.3c-0.2-0.6-0.6-1.1-0.9-1.5l0.4-0.3
						C300,343.9,300,343.9,300.1,343.9z"/>
					<path id="XMLID_221_" class="st7" d="M293,351.5c-0.4,0-0.8,0-1.2,0c-0.9,0-1.7-0.1-2.5-0.2c-0.4-0.1-0.8-0.2-1.3-0.3
						c1,1.9,3.1,3.1,5.4,3.1c2.8,0,5.2-1.9,5.9-4.5c-0.7,0.4-1.5,0.8-2.4,1.1C295.8,351.2,294.4,351.4,293,351.5z"/>
					<path id="XMLID_217_" class="st7" d="M293.5,342.8c-3.3,0-6.1,2.7-6.1,5.9c0,0.4,0,0.8,0.1,1.3c0.7,0.5,2.7,0.9,5.3,0.7
						c2.9-0.2,5.3-1,6.6-2.1c0-0.2,0-0.4,0-0.6C299.2,345,296.6,342.8,293.5,342.8z M291.4,349.3c-1,0-1.8-0.8-1.8-1.8
						s0.8-1.8,1.8-1.8c1,0,1.8,0.8,1.8,1.8S292.4,349.3,291.4,349.3z M296.1,348.4c-0.7,0-1.4-0.6-1.4-1.4s0.6-1.4,1.4-1.4
						c0.7,0,1.4,0.6,1.4,1.4S296.8,348.4,296.1,348.4z"/>
				</g>
				<path id="XMLID_214_" class="st7" d="M309.5,344.7c-0.3-0.1-0.8-0.3-1.4-0.2c-0.5,0.1-0.8,0.3-0.8,1v0.9h2.2v1.7h-2.2v5.4h-1.9
					V348H304v-1.7h1.3v-0.9c0-1.7,0.9-2.8,2.6-2.8c0.6,0,1.2,0.1,1.6,0.3L309.5,344.7z"/>
				<path id="XMLID_212_" class="st7" d="M314.2,348c-0.2,0-0.4,0-0.5,0c-0.9,0-1.5,0.5-1.5,1.6v3.9h-1.9v-7.1h1.9v0.8
					c0.4-0.7,1.1-1,2-1c0.4,0,0.8,0.1,1.1,0.3L314.2,348z"/>
				<path id="XMLID_209_" class="st7" d="M321.8,349.9c0,0.2,0,0.5,0,0.6h-5.1c0.2,1,0.9,1.5,1.8,1.5c0.6,0,1.3-0.3,1.8-0.7l1.1,1.2
					c-0.8,0.7-1.8,1.1-3,1.1c-2.2,0-3.7-1.5-3.7-3.7c0-2.2,1.5-3.8,3.6-3.8C320.4,346.1,321.8,347.6,321.8,349.9z M316.7,349.2h3.2
					c-0.2-0.9-0.7-1.4-1.6-1.4C317.4,347.8,316.9,348.3,316.7,349.2z"/>
				<path id="XMLID_206_" class="st7" d="M329.4,349.9c0,0.2,0,0.5,0,0.6h-5.1c0.2,1,0.9,1.5,1.8,1.5c0.6,0,1.3-0.3,1.8-0.7l1.1,1.2
					c-0.8,0.7-1.8,1.1-3,1.1c-2.2,0-3.7-1.5-3.7-3.7c0-2.2,1.5-3.8,3.6-3.8C328,346.1,329.4,347.6,329.4,349.9z M324.3,349.2h3.2
					c-0.2-0.9-0.7-1.4-1.6-1.4C325,347.8,324.5,348.3,324.3,349.2z"/>
				<path id="XMLID_203_" class="st7" d="M337.7,349.9c0,2.1-1.5,3.8-3.5,3.8c-1,0-1.6-0.4-2.1-0.9v3.7h-1.9v-10.1h1.9v0.8
					c0.5-0.6,1.2-1,2.1-1C336.2,346.1,337.7,347.7,337.7,349.9z M332.1,349.9c0,1.1,0.7,2,1.8,2c1.1,0,1.8-0.9,1.8-2
					c0-1.1-0.7-2-1.8-2C332.8,347.9,332.1,348.8,332.1,349.9z"/>
				<path id="XMLID_200_" class="st7" d="M340.8,344c0,0.7-0.5,1.2-1.2,1.2c-0.7,0-1.2-0.5-1.2-1.2c0-0.7,0.5-1.2,1.2-1.2
					C340.3,342.7,340.8,343.3,340.8,344z M340.6,353.5h-1.9v-7.1h1.9V353.5z"/>
				<path id="XMLID_198_" class="st7" d="M343.8,348.9l2.7-2.5h2.4l-3.5,3.4l3.5,3.8h-2.4l-2.7-2.9v2.9h-1.9v-10.6h1.9V348.9z"/>
			</g>
			<g>
				<path class="st7" d="M212.7,353.4v-1.1c-0.5,0.7-1.4,1.2-2.4,1.2c-1.8,0-3.1-1.4-3.1-3.7c0-2.2,1.3-3.7,3.1-3.7
					c0.9,0,1.8,0.5,2.4,1.2v-3.7h1.1v9.7H212.7z M212.7,351.5v-3.2c-0.4-0.6-1.2-1.1-2.1-1.1c-1.4,0-2.3,1.2-2.3,2.7
					c0,1.6,0.8,2.7,2.3,2.7C211.4,352.6,212.3,352.1,212.7,351.5z"/>
				<path class="st7" d="M215.2,349.9c0-2,1.5-3.7,3.5-3.7c2.1,0,3.4,1.7,3.4,3.8v0.3h-5.7c0.1,1.3,1,2.4,2.5,2.4
					c0.8,0,1.6-0.3,2.2-0.9l0.5,0.7c-0.7,0.7-1.6,1.1-2.8,1.1C216.7,353.6,215.2,352.1,215.2,349.9z M218.6,347.1
					c-1.5,0-2.2,1.3-2.3,2.3h4.6C220.9,348.4,220.2,347.1,218.6,347.1z"/>
				<path class="st7" d="M222.8,352.5l0.6-0.8c0.5,0.5,1.4,1,2.3,1c1.1,0,1.7-0.5,1.7-1.2c0-1.7-4.4-0.7-4.4-3.3c0-1.1,0.9-2,2.6-2
					c1.2,0,2,0.5,2.6,1l-0.5,0.8c-0.4-0.5-1.2-0.9-2.1-0.9c-1,0-1.6,0.5-1.6,1.1c0,1.5,4.4,0.5,4.4,3.3c0,1.2-0.9,2.1-2.8,2.1
					C224.5,353.6,223.5,353.2,222.8,352.5z"/>
				<path class="st7" d="M229.7,344.6c0-0.4,0.3-0.7,0.7-0.7c0.4,0,0.7,0.3,0.7,0.7c0,0.4-0.3,0.7-0.7,0.7
					C230,345.3,229.7,345,229.7,344.6z M229.9,353.4v-7h1.1v7H229.9z"/>
				<path class="st7" d="M232.8,355.2l0.6-0.8c0.6,0.7,1.3,1,2.3,1c1.2,0,2.3-0.6,2.3-2.1v-1c-0.5,0.7-1.4,1.3-2.4,1.3
					c-1.8,0-3.1-1.4-3.1-3.6c0-2.3,1.3-3.7,3.1-3.7c0.9,0,1.8,0.5,2.4,1.2v-1.1h1.1v6.8c0,2.3-1.6,3.1-3.4,3.1
					C234.4,356.3,233.6,356,232.8,355.2z M237.9,351.4v-3.1c-0.4-0.6-1.2-1.1-2.1-1.1c-1.4,0-2.3,1.1-2.3,2.7c0,1.5,0.8,2.7,2.3,2.7
					C236.6,352.5,237.5,352,237.9,351.4z"/>
				<path class="st7" d="M245.5,353.4v-4.6c0-1.2-0.6-1.6-1.6-1.6c-0.9,0-1.7,0.5-2.1,1.1v5.1h-1.1v-7h1.1v1
					c0.5-0.6,1.5-1.2,2.5-1.2c1.5,0,2.2,0.7,2.2,2.3v4.9H245.5z"/>
				<path class="st7" d="M248.1,349.9c0-2,1.5-3.7,3.5-3.7c2.1,0,3.4,1.7,3.4,3.8v0.3h-5.7c0.1,1.3,1,2.4,2.5,2.4
					c0.8,0,1.6-0.3,2.2-0.9l0.5,0.7c-0.7,0.7-1.6,1.1-2.8,1.1C249.6,353.6,248.1,352.1,248.1,349.9z M251.5,347.1
					c-1.5,0-2.2,1.3-2.3,2.3h4.6C253.8,348.4,253.1,347.1,251.5,347.1z"/>
				<path class="st7" d="M261.4,353.4v-1.1c-0.5,0.7-1.4,1.2-2.4,1.2c-1.8,0-3.1-1.4-3.1-3.7c0-2.2,1.3-3.7,3.1-3.7
					c0.9,0,1.8,0.5,2.4,1.2v-3.7h1.1v9.7H261.4z M261.4,351.5v-3.2c-0.4-0.6-1.2-1.1-2.1-1.1c-1.4,0-2.3,1.2-2.3,2.7
					c0,1.6,0.8,2.7,2.3,2.7C260.2,352.6,261,352.1,261.4,351.5z"/>
				<path class="st7" d="M267.7,353.4v-9.7h1.1v3.7c0.6-0.8,1.4-1.2,2.4-1.2c1.8,0,3.1,1.5,3.1,3.7c0,2.3-1.3,3.7-3.1,3.7
					c-1,0-1.9-0.5-2.4-1.2v1.1H267.7z M270.9,352.6c1.4,0,2.3-1.2,2.3-2.7c0-1.6-0.8-2.7-2.3-2.7c-0.9,0-1.7,0.5-2.1,1.1v3.2
					C269.2,352.1,270.1,352.6,270.9,352.6z"/>
				<path class="st7" d="M275.5,355.2c0.2,0.1,0.4,0.1,0.6,0.1c0.5,0,0.8-0.2,1.1-0.7l0.5-1.1l-2.9-7.1h1.2l2.3,5.8l2.3-5.8h1.2
					l-3.5,8.5c-0.4,1-1.1,1.4-2.1,1.4c-0.2,0-0.6,0-0.8-0.1L275.5,355.2z"/>
			</g>
		</g>
	</g>
</g>
</svg>
