<svg id="Capa_1" enable-background="new 0 0 512 512" height="512" viewBox="0 0 512 512" width="512" xmlns="http://www.w3.org/2000/svg"><g><path d="m474.5 83.5h-377c-18.11 0-33.261 12.904-36.745 30h-23.255c-20.678 0-37.5 16.822-37.5 37.5v240c0 20.678 16.822 37.5 37.5 37.5h377c18.11 0 33.261-12.904 36.745-30h23.255c20.678 0 37.5-16.822 37.5-37.5v-240c0-20.678-16.822-37.5-37.5-37.5zm-22.5 75h45v45h-45zm-354.5-60h377c12.406 0 22.5 10.093 22.5 22.5v22.5h-45.755c-3.484-17.096-18.635-30-36.745-30h-338.21c3.096-8.729 11.433-15 21.21-15zm377 285h-22.5v-142.5c0-4.142-3.357-7.5-7.5-7.5s-7.5 3.358-7.5 7.5v150c0 12.407-10.094 22.5-22.5 22.5h-377c-12.406 0-22.5-10.093-22.5-22.5v-240c0-12.407 10.094-22.5 22.5-22.5h377c12.406 0 22.5 10.093 22.5 22.5v60c0 4.142 3.357 7.5 7.5 7.5h52.5v142.5c0 12.407-10.094 22.5-22.5 22.5z"/><path d="m384.5 278.5h-317c-4.143 0-7.5 3.358-7.5 7.5v30c0 4.142 3.357 7.5 7.5 7.5h317c4.143 0 7.5-3.358 7.5-7.5v-30c0-4.142-3.357-7.5-7.5-7.5zm-7.5 30h-302v-15h302z"/><path d="m384.5 338.5h-128.5c-4.143 0-7.5 3.358-7.5 7.5s3.357 7.5 7.5 7.5h128.5c4.143 0 7.5-3.358 7.5-7.5s-3.357-7.5-7.5-7.5z"/><path d="m82.5 263.5h75c12.406 0 22.5-10.093 22.5-22.5v-45c0-12.407-10.094-22.5-22.5-22.5h-75c-12.406 0-22.5 10.093-22.5 22.5v45c0 12.407 10.094 22.5 22.5 22.5zm-7.5-67.5c0-4.136 3.364-7.5 7.5-7.5h75c4.136 0 7.5 3.364 7.5 7.5v45c0 4.136-3.364 7.5-7.5 7.5h-75c-4.136 0-7.5-3.364-7.5-7.5z"/></g></svg>