<?xml version="1.0" encoding="utf-8"?>
<!-- Generator: Adobe Illustrator 23.1.0, SVG Export Plug-In . SVG Version: 6.00 Build 0)  -->
<svg version="1.1" xmlns="http://www.w3.org/2000/svg" xmlns:xlink="http://www.w3.org/1999/xlink" x="0px" y="0px"
	 viewBox="0 0 2633.4 2701.1" style="enable-background:new 0 0 2633.4 2701.1;" xml:space="preserve">
<style type="text/css">
	.st0{fill:#FFFFFF;}
	.st1{display:none;fill:#F4F7FA;}
	.st2{clip-path:url(#SVGID_2_);}
	.st3{fill:#FCFDFE;}
	.st4{fill:#A87CF2;}
	.st5{clip-path:url(#SVGID_4_);}
	.st6{opacity:0.7;fill:#FFFFFF;}
	.st7{fill:url(#SVGID_5_);}
	.st8{fill:url(#SVGID_6_);}
	.st9{fill:url(#SVGID_7_);}
	.st10{fill:url(#SVGID_8_);}
	.st11{fill:url(#SVGID_9_);}
	.st12{fill:url(#SVGID_10_);}
	.st13{fill:url(#SVGID_11_);}
	.st14{fill:url(#SVGID_12_);}
	.st15{fill:#DADFE5;}
	.st16{fill:url(#SVGID_13_);}
	.st17{fill:url(#SVGID_14_);}
	.st18{fill:url(#SVGID_15_);}
	.st19{fill:url(#SVGID_16_);}
	.st20{fill:url(#SVGID_17_);}
	.st21{fill:url(#SVGID_18_);}
	.st22{fill:url(#SVGID_19_);}
	.st23{fill:url(#SVGID_20_);}
	.st24{fill:url(#SVGID_21_);}
	.st25{fill:#F49390;}
	.st26{opacity:0.67;fill:#F4F7FA;}
	.st27{fill:url(#SVGID_22_);}
	.st28{opacity:0.3;fill:url(#SVGID_23_);}
	.st29{fill:#C1CAD4;}
	.st30{fill:#2B1B5B;}
	.st31{fill:url(#SVGID_24_);}
	.st32{fill:#FFB27D;}
	.st33{fill:url(#SVGID_25_);}
	.st34{fill:url(#SVGID_26_);}
	.st35{fill:url(#SVGID_27_);}
	.st36{fill:#163560;}
	.st37{opacity:0.3;fill:url(#SVGID_28_);}
	.st38{opacity:0.3;}
	.st39{fill:url(#SVGID_29_);}
	.st40{opacity:0.3;fill:url(#SVGID_30_);}
</style>
<g id="Background">
	<g>
		<g>
			<rect y="0" class="st0" width="2633.4" height="2695.9"/>
		</g>
	</g>
</g>
<g id="Illustration">
	<g>
		<path class="st1" d="M617.6,180.1C523.1,312.4,630,529.7,490.8,628.5C355.2,724.7,191.7,563,64,645.6
			c-189.4,122.6-161,693.2,110.2,1050.4c81.6,107.4,150.2,149.6,179.5,270.4c63,259.4-169.5,410.9-126.9,539.4
			c95.9,289.2,1614.9,547,2234.6-312.6c289.4-401.4,338.2-985,88.1-1431.3C2097.6-44.4,829.7-116.8,617.6,180.1z"/>
		<g>
			<g>
				<g>
					<defs>
						<path id="SVGID_1_" d="M1099.1,1830.5c19-4.6,56.3-31.4,63.1-42.4c45.5-73.2,139.5-204.6,124.2-294.4
							c-2.6-15.3-73.2-22-84.4-35.1c-43.9-15.2-60.1-17.7-94.8-52.7c-102.4-103.2,79.1-338.4-167.7-386.7
							c-180.8-35.4-321.7,41.1-332.8-232.2C595.5,513.7,325.8,43.2,60.3,264.1C-92,390.8,100.3,603,34.6,782.5
							c-62.5,170.5,20.8,296,203.2,374.1c182.5,78,99,162.8,66,321.9c-39.6,191.2,247.9,192.5,380.7,181.8
							C791.4,1651.6,1069.5,1701.7,1099.1,1830.5z"/>
					</defs>
					<use xlink:href="#SVGID_1_"  style="overflow:visible;fill:#6332DF;"/>
					<clipPath id="SVGID_2_">
						<use xlink:href="#SVGID_1_"  style="overflow:visible;"/>
					</clipPath>
					<g class="st2">
						<g>
							<path class="st3" d="M1222.8,1648.9l1.4-3.9C620.9,1429.3,211,879.2,127.7,173.3l-4.1,0.5C163,508.3,280.7,819.6,463.9,1074
								C656.5,1341.5,918.9,1540.3,1222.8,1648.9z"/>
							<path class="st3" d="M278.3,1556c159.5-72.6,436.1-104.7,616.6-71.5l0.8-4.1c-181.2-33.3-459-1.1-619.1,71.8L278.3,1556z"/>
							<path class="st3" d="M1104.8,1605.2l2.4-3.4c-77.4-55.8-123.7-148.5-137.5-275.7c-10.1-93.3-2.9-202.5,21.5-324.7l-4.1-0.8
								c-24.5,122.6-31.7,232.3-21.6,326C979.6,1455,1026.4,1548.7,1104.8,1605.2z"/>
							<path class="st3" d="M439.3,1036.9l2.6-3.2C301.4,921,112.5,907.6-21.2,916.2l0.3,4.2C112,911.8,299.8,925.1,439.3,1036.9z"
								/>
							<path class="st3" d="M246.3,672.6l4.1-0.8c-36.8-199.5,59.3-389.5,119.9-485l-3.5-2.2C305.8,280.7,209.2,471.7,246.3,672.6z"
								/>
						</g>
					</g>
				</g>
			</g>
		</g>
		<g>
			<path class="st4" d="M1284.6,1650.2c63.3-86.2,26.9-244.5-27.7-340.6c-63.8-112.2-126.9-94.7-169.8-185.8
				c-79.8-169.7,106.3-300.1,39.4-477.6c-54.7-145.1-199.8-113-253-276.4c-38.4-117.9,18.7-191.3-48.6-283
				c-5.8-7.8-69-91.4-156.8-86.6c-88.6,4.9-150.5,97-174.4,162.6c-44.2,121.2,34.7,169.7,35,332.6
				c0.5,221.8-145.4,263.2-111.3,426.4c28.2,134.8,134.1,137.6,162.4,287.7c26.2,139.3-55.6,187.5-29,279.6
				C612.3,1700.8,1155.4,1826,1284.6,1650.2z"/>
			<g>
				<defs>
					<path id="SVGID_3_" d="M1284.6,1650.2c63.3-86.2,26.9-244.5-27.7-340.6c-63.8-112.2-126.9-94.7-169.8-185.8
						c-79.8-169.7,106.3-300.1,39.4-477.6c-54.7-145.1-199.8-113-253-276.4c-38.4-117.9,18.7-191.3-48.6-283
						c-5.8-7.8-69-91.4-156.8-86.6c-88.6,4.9-150.5,97-174.4,162.6c-44.2,121.2,34.7,169.7,35,332.6
						c0.5,221.8-145.4,263.2-111.3,426.4c28.2,134.8,134.1,137.6,162.4,287.7c26.2,139.3-55.6,187.5-29,279.6
						C612.3,1700.8,1155.4,1826,1284.6,1650.2z"/>
				</defs>
				<use xlink:href="#SVGID_3_"  style="overflow:visible;fill:#A87CF2;"/>
				<clipPath id="SVGID_4_">
					<use xlink:href="#SVGID_3_"  style="overflow:visible;"/>
				</clipPath>
				<g class="st5">
					<path class="st6" d="M1196.9,1787.3c-0.1,0-0.3,0-0.4,0c-92.9-19.7-177.6-57.9-251.8-113.7c-70.3-52.9-143-107.5-168.7-197.5
						c-19.5-68.4-0.1-114.9,24.4-173.9c23.5-56.5,52.7-126.8,52.2-238.7c-0.3-63.9-0.7-143.5-47.5-223.3
						c-27.2-46.4-56.2-68.1-81.7-87.2c-26.5-19.9-49.3-37-59.1-76.1c-15.8-62.9,4-113.1,26.8-171.3c13.9-35.4,28.3-72.1,36.9-116.3
						C752,264.8,706.6,123.4,592.8-31c-0.6-0.8-0.4-2,0.4-2.7c0.8-0.6,2-0.4,2.7,0.4C710.3,122,755.9,264.4,731.6,389.9
						c-8.7,44.6-23.1,81.4-37.1,117c-22.6,57.6-42.1,107.3-26.6,169c9.5,37.8,30.8,53.8,57.7,74c25.8,19.4,55.1,41.3,82.7,88.3
						c47.4,80.7,47.8,160.8,48.1,225.2c0.5,112.7-28.9,183.4-52.5,240.2c-24.2,58.3-43.4,104.3-24.2,171.4
						c25.3,88.8,97.5,143,167.3,195.5c73.7,55.4,157.9,93.5,250.3,113c1,0.2,1.7,1.2,1.5,2.2
						C1198.6,1786.7,1197.8,1787.3,1196.9,1787.3z"/>
					<path class="st6" d="M826.3,880.4c-0.3,0-0.6-0.1-0.9-0.3c-0.9-0.5-1.2-1.7-0.7-2.6c92.6-162.1,118.1-292.3,123.1-373
						c5.5-87.4-11.2-137.1-11.4-137.6c-0.3-1,0.2-2.1,1.2-2.4c1-0.3,2.1,0.2,2.4,1.2c0.2,0.5,17,50.7,11.6,138.8
						c-5,81.1-30.6,212-123.6,374.9C827.6,880.1,827,880.4,826.3,880.4z"/>
					<path class="st6" d="M848,1156.3c-0.2,0-0.5,0-0.7-0.1c-211.9-80.4-306.1-217.5-347.8-318.4c-45.2-109.4-40.3-201-40.2-201.9
						c0.1-1,1-1.8,2-1.8c1,0.1,1.8,1,1.8,2c-0.1,0.9-5,91.8,40,200.4c41.5,100.2,135.1,236.3,345.6,316.2c1,0.4,1.5,1.5,1.1,2.4
						C849.5,1155.8,848.7,1156.3,848,1156.3z"/>
					<path class="st6" d="M868.1,1617.4c-0.6,0-1.2-0.3-1.6-0.8c-0.6-0.9-0.4-2,0.5-2.6c175.6-122.2,242.5-259.9,267.7-353.9
						c27.2-101.8,12.9-175.6,12.7-176.3c-0.2-1,0.5-2,1.5-2.2c1-0.2,2,0.5,2.2,1.5c0.1,0.7,14.7,75.4-12.8,178
						c-25.3,94.7-92.6,233.3-269.2,356.1C868.9,1617.2,868.5,1617.4,868.1,1617.4z"/>
					<path class="st6" d="M729.6,369.5c-0.3,0-0.6-0.1-0.9-0.2C577.6,286,522.2,165.1,502.3,78.2c-21.5-94.1-7.2-169.5-7-170.2
						c0.2-1,1.2-1.7,2.2-1.5c1,0.2,1.7,1.2,1.5,2.2c-0.1,0.7-14.4,75.5,7,168.8c19.7,86,74.7,205.9,224.5,288.4
						c0.9,0.5,1.3,1.7,0.7,2.6C731,369.1,730.3,369.5,729.6,369.5z"/>
				</g>
			</g>
		</g>
		<g>
			<g>
				<g>
					
						<linearGradient id="SVGID_5_" gradientUnits="userSpaceOnUse" x1="-4111.7842" y1="2325.3496" x2="-4077.387" y2="2354.2744" gradientTransform="matrix(-1 0 0 1 -1682.0483 0)">
						<stop  offset="0" style="stop-color:#444B8C"/>
						<stop  offset="0.9964" style="stop-color:#26264F"/>
					</linearGradient>
					<path class="st7" d="M2300.4,2381.8c0,45.2,27.8,81.8,62.2,81.8c34.3,0,62.2-36.6,62.2-81.8c0-45.2-27.8-81.8-62.2-81.8
						C2328.2,2300,2300.4,2336.7,2300.4,2381.8z"/>
					
						<linearGradient id="SVGID_6_" gradientUnits="userSpaceOnUse" x1="-4089.4775" y1="2391.0586" x2="-3965.1321" y2="2391.0586" gradientTransform="matrix(-1 0 0 1 -1682.0483 0)">
						<stop  offset="0" style="stop-color:#444B8C"/>
						<stop  offset="0.9964" style="stop-color:#26264F"/>
					</linearGradient>
					<path class="st8" d="M2283.1,2391.1c0,45.2,27.8,81.8,62.2,81.8c34.3,0,62.2-36.6,62.2-81.8c0-45.2-27.8-81.8-62.2-81.8
						C2310.9,2309.3,2283.1,2345.9,2283.1,2391.1z"/>
					
						<linearGradient id="SVGID_7_" gradientUnits="userSpaceOnUse" x1="-4053.3628" y1="2392.7063" x2="-4001.2583" y2="2392.7063" gradientTransform="matrix(-1 0 0 1 -1682.0483 0)">
						<stop  offset="0" style="stop-color:#444B8C"/>
						<stop  offset="0.9964" style="stop-color:#26264F"/>
					</linearGradient>
					<path class="st9" d="M2319.2,2392.7c0,18.9,11.7,34.3,26.1,34.3c14.4,0,26.1-15.3,26.1-34.3c0-18.9-11.7-34.3-26.1-34.3
						C2330.9,2358.4,2319.2,2373.8,2319.2,2392.7z"/>
				</g>
				<linearGradient id="SVGID_8_" gradientUnits="userSpaceOnUse" x1="2238.6492" y1="2344.7153" x2="2362.5757" y2="2344.7153">
					<stop  offset="0" style="stop-color:#444B8C"/>
					<stop  offset="0.9964" style="stop-color:#26264F"/>
				</linearGradient>
				<path class="st10" d="M2362.6,2291.2v89.8c0,13.2-10.7,23.9-23.9,23.9l0,0c-7.6,0-14.8-3.6-19.3-9.8l-80.8-110.6L2362.6,2291.2z
					"/>
			</g>
			<g>
				<g>
					
						<linearGradient id="SVGID_9_" gradientUnits="userSpaceOnUse" x1="-3446.1487" y1="2253.6326" x2="-3411.7517" y2="2282.5574" gradientTransform="matrix(-1 0 0 1 -1682.0483 0)">
						<stop  offset="0" style="stop-color:#444B8C"/>
						<stop  offset="0.9964" style="stop-color:#26264F"/>
					</linearGradient>
					<path class="st11" d="M1634.8,2310.1c0,45.2,27.8,81.8,62.2,81.8c34.3,0,62.2-36.6,62.2-81.8c0-45.2-27.8-81.8-62.2-81.8
						C1662.6,2228.3,1634.8,2264.9,1634.8,2310.1z"/>
					
						<linearGradient id="SVGID_10_" gradientUnits="userSpaceOnUse" x1="-3423.8406" y1="2319.343" x2="-3299.4951" y2="2319.343" gradientTransform="matrix(-1 0 0 1 -1682.0483 0)">
						<stop  offset="0" style="stop-color:#444B8C"/>
						<stop  offset="0.9964" style="stop-color:#26264F"/>
					</linearGradient>
					<path class="st12" d="M1617.4,2319.3c0,45.2,27.8,81.8,62.2,81.8c34.3,0,62.2-36.6,62.2-81.8c0-45.2-27.8-81.8-62.2-81.8
						C1645.3,2237.6,1617.4,2274.2,1617.4,2319.3z"/>
					
						<linearGradient id="SVGID_11_" gradientUnits="userSpaceOnUse" x1="-3387.7258" y1="2320.99" x2="-3335.623" y2="2320.99" gradientTransform="matrix(-1 0 0 1 -1682.0483 0)">
						<stop  offset="0" style="stop-color:#444B8C"/>
						<stop  offset="0.9964" style="stop-color:#26264F"/>
					</linearGradient>
					<path class="st13" d="M1653.6,2321c0,18.9,11.7,34.3,26.1,34.3c14.4,0,26.1-15.3,26.1-34.3c0-18.9-11.7-34.3-26.1-34.3
						C1665.2,2286.7,1653.6,2302.1,1653.6,2321z"/>
				</g>
				<linearGradient id="SVGID_12_" gradientUnits="userSpaceOnUse" x1="1573.0153" y1="2272.9993" x2="1696.9399" y2="2272.9993">
					<stop  offset="0" style="stop-color:#444B8C"/>
					<stop  offset="0.9964" style="stop-color:#26264F"/>
				</linearGradient>
				<path class="st14" d="M1696.9,2219.5v89.8c0,13.2-10.7,23.9-23.9,23.9l0,0c-7.6,0-14.8-3.6-19.3-9.8l-80.8-110.6L1696.9,2219.5z
					"/>
			</g>
			<path class="st15" d="M2371.9,2305.2c8.2,0,15.2-6.2,16.2-14.5c1-8.9-5.4-17-14.4-18l-788.3-88.8c-42.9-7.4-78.7-40-90.2-82.9
				L1165,871.5c-17.6-65.5-74.8-112.6-142.4-117.2L782.7,740c-9-0.6-16.7,6.3-17.2,15.3c-0.5,9,6.3,16.7,15.3,17.2l239.6,14.3
				c53.6,3.7,99.1,41.1,113,93.1l330.2,1229.4c14.8,55.2,60.8,97.1,117.1,106.8l789.2,89C2370.6,2305.2,2371.2,2305.2,2371.9,2305.2
				z"/>
			<path class="st15" d="M1823.4,1821.2c7.1,0,13.6-4.7,15.7-11.8l185.6-649.5c2.5-8.7-2.5-17.7-11.2-20.2
				c-8.6-2.5-17.7,2.5-20.2,11.2l-185.6,649.5c-2.5,8.7,2.5,17.7,11.2,20.2C1820.4,1821,1822,1821.2,1823.4,1821.2z"/>
			<path class="st15" d="M1633.5,1794.1c7.8,0,14.6-5.5,16-13.4l114.5-643.4c1.6-8.9-4.3-17.3-13.2-18.9
				c-8.9-1.6-17.3,4.3-18.9,13.2l-114.5,643.4c-1.6,8.9,4.3,17.3,13.2,18.9C1631.6,1794,1632.6,1794.1,1633.5,1794.1z"/>
			<path class="st15" d="M1515.6,1773c0.2,0,0.5,0,0.7,0c9-0.4,16-8,15.6-17l-26.4-636.6c-0.4-9-7.6-16.1-17-15.6
				c-9,0.4-16,8-15.6,17l26.4,636.6C1499.6,1766.1,1506.9,1773,1515.6,1773z"/>
			<path class="st15" d="M2082.5,1845c6.8,0,13.2-4.3,15.5-11.1l217.9-649.8c2.9-8.5-1.7-17.8-10.3-20.6
				c-8.5-2.8-17.8,1.7-20.6,10.3L2067,1823.5c-2.9,8.5,1.7,17.8,10.3,20.6C2079,1844.7,2080.7,1845,2082.5,1845z"/>
			
				<linearGradient id="SVGID_13_" gradientUnits="userSpaceOnUse" x1="-2472.9744" y1="774.5151" x2="-1871.3024" y2="774.5151" gradientTransform="matrix(-1 0 0 1 -1682.0483 0)">
				<stop  offset="0" style="stop-color:#40447E"/>
				<stop  offset="0.9964" style="stop-color:#3C3B6B"/>
			</linearGradient>
			<path class="st16" d="M221.8,829.2c0.9,0,1.8,0,2.7-0.1L761,785c17.9-1.5,31.3-17.2,29.8-35.2c-1.5-18-17.2-31.3-35.2-29.8
				l-536.5,44.1c-17.9,1.5-31.3,17.2-29.8,35.2C190.8,816.3,205,829.2,221.8,829.2z"/>
			<g>
				<g>
					
						<linearGradient id="SVGID_14_" gradientUnits="userSpaceOnUse" x1="-3527.7876" y1="2548.4055" x2="-3493.3904" y2="2577.3303" gradientTransform="matrix(-1 0 0 1 -1682.0483 0)">
						<stop  offset="0" style="stop-color:#444B8C"/>
						<stop  offset="0.9964" style="stop-color:#26264F"/>
					</linearGradient>
					<path class="st17" d="M1716.4,2604.9c0,45.2,27.8,81.8,62.2,81.8c34.3,0,62.2-36.6,62.2-81.8s-27.8-81.8-62.2-81.8
						C1744.2,2523.1,1716.4,2559.7,1716.4,2604.9z"/>
					
						<linearGradient id="SVGID_15_" gradientUnits="userSpaceOnUse" x1="-3505.481" y1="2614.1155" x2="-3381.1357" y2="2614.1155" gradientTransform="matrix(-1 0 0 1 -1682.0483 0)">
						<stop  offset="0" style="stop-color:#444B8C"/>
						<stop  offset="0.9964" style="stop-color:#26264F"/>
					</linearGradient>
					<path class="st18" d="M1699.1,2614.1c0,45.2,27.8,81.8,62.2,81.8c34.3,0,62.2-36.6,62.2-81.8c0-45.2-27.8-81.8-62.2-81.8
						C1726.9,2532.3,1699.1,2568.9,1699.1,2614.1z"/>
					
						<linearGradient id="SVGID_16_" gradientUnits="userSpaceOnUse" x1="-3469.3662" y1="2615.7622" x2="-3417.262" y2="2615.7622" gradientTransform="matrix(-1 0 0 1 -1682.0483 0)">
						<stop  offset="0" style="stop-color:#444B8C"/>
						<stop  offset="0.9964" style="stop-color:#26264F"/>
					</linearGradient>
					<path class="st19" d="M1735.2,2615.8c0,18.9,11.7,34.3,26.1,34.3c14.4,0,26.1-15.3,26.1-34.3c0-18.9-11.7-34.3-26.1-34.3
						C1746.9,2581.5,1735.2,2596.8,1735.2,2615.8z"/>
				</g>
				<linearGradient id="SVGID_17_" gradientUnits="userSpaceOnUse" x1="1654.6526" y1="2567.7715" x2="1778.5773" y2="2567.7715">
					<stop  offset="0" style="stop-color:#444B8C"/>
					<stop  offset="0.9964" style="stop-color:#26264F"/>
				</linearGradient>
				<path class="st20" d="M1778.6,2514.3v89.8c0,13.2-10.7,23.9-23.9,23.9l0,0c-7.6,0-14.8-3.6-19.3-9.8l-80.8-110.6L1778.6,2514.3z
					"/>
			</g>
			<g>
				<g>
					
						<linearGradient id="SVGID_18_" gradientUnits="userSpaceOnUse" x1="-2951.4893" y1="2490.7122" x2="-2917.0923" y2="2519.637" gradientTransform="matrix(-1 0 0 1 -1682.0483 0)">
						<stop  offset="0" style="stop-color:#444B8C"/>
						<stop  offset="0.9964" style="stop-color:#26264F"/>
					</linearGradient>
					<path class="st21" d="M1140.1,2547.2c0,45.2,27.8,81.8,62.2,81.8c34.3,0,62.2-36.6,62.2-81.8c0-45.2-27.8-81.8-62.2-81.8
						C1167.9,2465.4,1140.1,2502,1140.1,2547.2z"/>
					
						<linearGradient id="SVGID_19_" gradientUnits="userSpaceOnUse" x1="-2929.1816" y1="2556.4216" x2="-2804.8359" y2="2556.4216" gradientTransform="matrix(-1 0 0 1 -1682.0483 0)">
						<stop  offset="0" style="stop-color:#444B8C"/>
						<stop  offset="0.9964" style="stop-color:#26264F"/>
					</linearGradient>
					<path class="st22" d="M1122.8,2556.4c0,45.2,27.8,81.8,62.2,81.8c34.3,0,62.2-36.6,62.2-81.8c0-45.2-27.8-81.8-62.2-81.8
						C1150.6,2474.6,1122.8,2511.3,1122.8,2556.4z"/>
					
						<linearGradient id="SVGID_20_" gradientUnits="userSpaceOnUse" x1="-2893.0669" y1="2558.0676" x2="-2840.9644" y2="2558.0676" gradientTransform="matrix(-1 0 0 1 -1682.0483 0)">
						<stop  offset="0" style="stop-color:#444B8C"/>
						<stop  offset="0.9964" style="stop-color:#26264F"/>
					</linearGradient>
					<path class="st23" d="M1158.9,2558.1c0,18.9,11.7,34.3,26.1,34.3c14.4,0,26.1-15.3,26.1-34.3c0-18.9-11.7-34.3-26.1-34.3
						C1170.6,2523.8,1158.9,2539.1,1158.9,2558.1z"/>
				</g>
				<linearGradient id="SVGID_21_" gradientUnits="userSpaceOnUse" x1="1078.3546" y1="2510.0791" x2="1202.2793" y2="2510.0791">
					<stop  offset="0" style="stop-color:#444B8C"/>
					<stop  offset="0.9964" style="stop-color:#26264F"/>
				</linearGradient>
				<path class="st24" d="M1202.3,2456.6v89.8c0,13.2-10.7,23.9-23.9,23.9l0,0c-7.6,0-14.8-3.6-19.3-9.8l-80.8-110.6L1202.3,2456.6z
					"/>
			</g>
			<path class="st15" d="M2617.1,1210.1c8.5,0,15.6-6.6,16.2-15.1c0.6-9-6.1-16.8-15.1-17.4l-1403.9-101.1c-1.3-0.1-2.6,0-3.9,0.2
				l-581.2,99c-8.9,1.5-14.8,9.9-13.3,18.8c1.5,8.9,9.8,14.8,18.8,13.3l579.3-98.7L2615.9,1210
				C2616.3,1210.1,2616.7,1210.1,2617.1,1210.1z"/>
			<g>
				<path class="st25" d="M1003.9,120.1v1654.2L2167,1699c26.4-1.5,46.9-20,46.9-42.3V180.3c0-22.9-21.7-41.7-49-42.4L1003.9,120.1z
					"/>
				<path class="st26" d="M944.8,169v1556.4l1168.4-71.4c24.9-1.5,44.1-18.8,44.1-39.8V225.2c0-21.6-20.4-39.2-46.1-39.8L944.8,169z
					"/>
				<linearGradient id="SVGID_22_" gradientUnits="userSpaceOnUse" x1="2468.637" y1="166.0097" x2="2017.6433" y2="584.5316">
					<stop  offset="0" style="stop-color:#FF9085"/>
					<stop  offset="1" style="stop-color:#FB6FBB"/>
				</linearGradient>
				<path class="st27" d="M2295.7,541.7h-128.3V228.7h128.3c2.6,0,4.8,2.1,4.8,4.8V537C2300.4,539.6,2298.3,541.7,2295.7,541.7z"/>
				<path class="st25" d="M931.5,167v1565.7c0,23.9,20.8,44.3,48.9,48l939.5,122.5c29.5,3.2,55.6-16.1,55.6-41.1V133.2
					c0-23.3-22.8-42-50.5-41.4l-937.6,26.7C956.2,119.4,931.5,140.8,931.5,167z"/>
				<g>
					<g>
						<path class="st0" d="M1207.1,752.6l363.1,13v671.8l86.7,8.7v26.6l-444.1-45.6v-25.5l79.4,7.9V781.4l-85.1-3.3V752.6z
							 M1427.9,660.7c-52.5-1.4-89.6-15.2-111.6-41.5c-21.9-26.2-32.8-58.3-32.8-96.3c0-38,11.9-69.3,35.7-94
							c23.9-24.8,60.6-37.2,110.1-37.2c50,0,88.4,11.4,114.8,34.4c26.5,23.1,39.9,55.9,39.9,98.5c0,42.6-12.8,76.4-38.3,101.2
							C1520.3,650.5,1480.9,662.1,1427.9,660.7z"/>
					</g>
				</g>
				<linearGradient id="SVGID_23_" gradientUnits="userSpaceOnUse" x1="1779.8698" y1="555.876" x2="351.1089" y2="1966.7798">
					<stop  offset="0" style="stop-color:#FF9085"/>
					<stop  offset="1" style="stop-color:#FB6FBB"/>
				</linearGradient>
				<path class="st28" d="M1368.1,1420.5c-13.5-182.8,121.1-226.5,98.4-439.8c-32.9-308.9-336-412.1-310.8-666.3
					c7.9-79.4,45.2-147.7,89.8-203.3l-258.3,7.4c-31.1,0.9-55.8,22.3-55.8,48.5v1565.7c0,23.9,20.8,44.3,48.9,48l723.8,94.4
					C1451.7,1699.6,1377.3,1544,1368.1,1420.5z"/>
			</g>
			<path class="st29" d="M2140.1,1354.9c1.6,0,3.2-0.2,4.7-0.7l477-144.8c8.6-2.6,13.5-11.7,10.9-20.3c-2.6-8.6-11.8-13.5-20.3-10.9
				l-473.9,143.9L633.6,1175.5c-9.1-1-16.9,5.7-17.8,14.6c-0.9,9,5.7,16.9,14.6,17.8l1508.1,146.9
				C2139,1354.9,2139.5,1354.9,2140.1,1354.9z"/>
			<path class="st15" d="M813.6,1867.3c0.8,0,1.7-0.1,2.5-0.2l571.9-87.7l870.1,83.7c9,0.8,16.9-5.7,17.8-14.7
				c0.9-9-5.7-16.9-14.7-17.8l-872.1-83.9c-1.3-0.1-2.7-0.1-4,0.1l-573.9,88.1c-8.9,1.4-15,9.7-13.6,18.6
				C798.7,1861.6,805.7,1867.3,813.6,1867.3z"/>
			<path class="st29" d="M1850.6,1965.9c6.2,0,12-3.6,14.7-9.3l289.5-611c3.9-8.1,0.4-17.9-7.8-21.7c-8.1-3.8-17.9-0.4-21.7,7.8
				l-284.6,600.7l-1025.6-97.5c-9.1-0.9-16.9,5.7-17.8,14.7c-0.9,9,5.7,16.9,14.7,17.8l1037,98.6
				C1849.5,1965.9,1850,1965.9,1850.6,1965.9z"/>
			<path class="st29" d="M1850.5,1965.9c1.3,0,2.7-0.2,4-0.5l409.1-102.7c4.4-1.1,8.2-4,10.3-8l357.5-653.1
				c4.3-7.9,1.4-17.8-6.5-22.1c-7.9-4.3-17.8-1.4-22.1,6.5l-354,646.9l-402.2,101c-8.7,2.2-14,11-11.8,19.8
				C1836.6,1961,1843.2,1965.9,1850.5,1965.9z"/>
			<path class="st29" d="M2034.8,1577.2c1.6,0,3.1-0.2,4.6-0.7l449.3-131.7c8.6-2.5,13.6-11.6,11.1-20.2
				c-2.5-8.6-11.6-13.6-20.2-11.1l-446.3,130.8L706.5,1428.6c-9.1-0.9-16.9,5.9-17.7,14.8c-0.8,9,5.9,16.9,14.8,17.7l1329.7,116
				C2033.8,1577.1,2034.3,1577.2,2034.8,1577.2z"/>
			<path class="st29" d="M1925,1808.8c1.5,0,3-0.2,4.4-0.6l430.4-120.6c8.7-2.4,13.7-11.4,11.3-20.1c-2.4-8.7-11.4-13.7-20.1-11.3
				L1923.5,1776l-1152-100.8c-8.9-0.9-16.9,5.9-17.7,14.8c-0.8,9,5.9,16.9,14.8,17.7l1154.9,101
				C1924.1,1808.8,1924.5,1808.8,1925,1808.8z"/>
			<path class="st29" d="M1638.8,1945.8c7,0,13.5-4.6,15.6-11.7l184.6-619.4c2.6-8.6-2.3-17.7-11-20.3c-8.6-2.6-17.7,2.3-20.3,11
				l-184.6,619.4c-2.6,8.6,2.3,17.7,11,20.3C1635.7,1945.6,1637.3,1945.8,1638.8,1945.8z"/>
			<path class="st29" d="M1434.6,1926.4c7.8,0,14.6-5.6,16-13.5l110.7-627.6c1.6-8.9-4.4-17.3-13.2-18.9
				c-8.8-1.5-17.3,4.4-18.9,13.2l-110.7,627.6c-1.6,8.9,4.4,17.3,13.2,18.9C1432.7,1926.3,1433.6,1926.4,1434.6,1926.4z"/>
			<path class="st29" d="M1204.2,1900.2c8.6,0,15.8-6.7,16.3-15.4l34.9-623.1c0.5-9-6.4-16.7-15.4-17.2c-9.1-0.4-16.7,6.4-17.2,15.4
				l-34.9,623.1c-0.5,9,6.4,16.7,15.4,17.2C1203.6,1900.2,1203.9,1900.2,1204.2,1900.2z"/>
			<path class="st29" d="M986,1875.7c0.3,0,0.6,0,0.9,0c9-0.5,15.9-8.1,15.4-17.1l-33.2-633.1c-0.5-9-8.1-15.9-17.1-15.4
				c-9,0.5-15.9,8.1-15.4,17.1l33.2,633.1C970.2,1869,977.4,1875.7,986,1875.7z"/>
			<path class="st29" d="M1974.3,1934.9c6.1,0,11.9-3.4,14.7-9.2l298.4-620.2c3.9-8.1,0.5-17.9-7.6-21.8c-8.1-3.9-17.9-0.5-21.8,7.6
				l-298.4,620.2c-3.9,8.1-0.5,17.9,7.6,21.8C1969.5,1934.4,1971.9,1934.9,1974.3,1934.9z"/>
			<path class="st29" d="M2140,1893.2c6,0,11.8-3.3,14.6-9l316.8-634.5c4-8.1,0.8-17.8-7.3-21.9c-8.1-4-17.9-0.7-21.9,7.3
				l-316.8,634.5c-4,8.1-0.8,17.8,7.3,21.9C2135.1,1892.7,2137.6,1893.2,2140,1893.2z"/>
			<path class="st29" d="M1781.7,2539.4c2.1,0,4.1-0.4,6-1.1l590.1-234.2c8.4-3.3,12.5-12.8,9.1-21.2c-3.3-8.4-12.8-12.5-21.2-9.1
				l-586.3,232.7l-711.9-87c-50.7-6.2-92.2-42-105.7-91.2L571.7,911.5c-17.8-64.7-74.7-111.4-141.6-116.2l-207.1-15
				c-8.9-0.5-16.8,6.1-17.4,15.1c-0.6,9,6.1,16.8,15.1,17.4l207.1,15c53.2,3.8,98.4,41,112.5,92.3l390.2,1416.7
				c17.1,62,69.4,107.1,133.2,114.9l716,87.5C1780.4,2539.4,1781,2539.4,1781.7,2539.4z"/>
		</g>
		<g>
			<path class="st30" d="M1003.9,1079.3c0,0,182.4,73,151.4,270.4c-31,197.4-302.2,135.5-302.2,135.5l-15.9-135.5
				c0,0,206.2,8.6,180.2-118.1c-28.3-138-52.4-139.5-52.4-139.5L1003.9,1079.3z"/>
			
				<linearGradient id="SVGID_24_" gradientUnits="userSpaceOnUse" x1="2334.1689" y1="2535.3613" x2="2352.2517" y2="2860.8516" gradientTransform="matrix(-1 0 0 1 3142.4758 0)">
				<stop  offset="0" style="stop-color:#444B8C"/>
				<stop  offset="0.9964" style="stop-color:#26264F"/>
			</linearGradient>
			<path class="st31" d="M763,2651.1c0,0-2.3,18-0.7,24c1.5,6,53.8,10.4,71.6,8.3c17.8-2.1-10.6-20.2-21.9-23.6
				C800.7,2656.4,763,2651.1,763,2651.1z"/>
			<path class="st32" d="M789.3,2621.1l-5.5,36.1c0,0-14.1,6.3-20.8,0.1l-0.7-37.8L789.3,2621.1z"/>
			
				<linearGradient id="SVGID_25_" gradientUnits="userSpaceOnUse" x1="2661.4553" y1="2517.1838" x2="2679.5374" y2="2842.6616" gradientTransform="matrix(-1 0 0 1 3142.4758 0)">
				<stop  offset="0" style="stop-color:#444B8C"/>
				<stop  offset="0.9964" style="stop-color:#26264F"/>
			</linearGradient>
			<path class="st33" d="M494.4,2619.5c0,0,11.1,8.2,8.1,18.1c-3,9.9-28.9,49.4-47.3,60.6c-18.5,11.2-12.7-12.2-7.3-26.7
				c5.4-14.6,19.1-46.6,24.5-52C477.8,2614.1,494.4,2619.5,494.4,2619.5z"/>
			<path class="st32" d="M514.4,2579.8c-5.4,15-10.5,27.3-14.6,36.3c-8.9,20.1-13.8,27.6-19.3,34.1c-4.8,5.7-16.2,17.8-19.3,15.8
				c-3.1-2,5.2-16.8,21.3-60c2.3-6.3,9.7-26.2,9.7-26.2l0,0H514.4z"/>
			
				<linearGradient id="SVGID_26_" gradientUnits="userSpaceOnUse" x1="2228.7954" y1="2410.1389" x2="2411.3047" y2="2165.1924" gradientTransform="matrix(-1 0 0 1 3142.4758 0)">
				<stop  offset="0" style="stop-color:#444B8C"/>
				<stop  offset="0.9964" style="stop-color:#26264F"/>
			</linearGradient>
			<path class="st34" d="M898.9,1954.9c3.8,37.6,7.5,95.9,2,166.8c-7.2,92.3-25.6,150.6-48.7,249c-14.1,60.1-33.2,148.6-50.4,259.3
				c-4,2.3-15.8,8.3-30.9,6.1c-8.5-1.3-14.8-4.6-18.6-7.1c-45.2-138.2-31.9-223.9-10-277.3c9.3-22.7,20.6-40.7,26.6-75.7
				c8-46.3-1.9-72.1-16-179.3c-10-76.4-8.3-88.2-1.6-99.6C777.9,1951.2,859.5,1952.1,898.9,1954.9z"/>
			
				<linearGradient id="SVGID_27_" gradientUnits="userSpaceOnUse" x1="2364.3723" y1="2440.5376" x2="2791.8276" y2="2041.8998" gradientTransform="matrix(-1 0 0 1 3142.4758 0)">
				<stop  offset="0" style="stop-color:#444B8C"/>
				<stop  offset="0.9964" style="stop-color:#26264F"/>
			</linearGradient>
			<path class="st35" d="M743.2,1970.9c-27.7,143.1-54.9,218.3-75.5,260.8c-5.1,10.5-22,44.3-38,92.8
				c-14.2,42.9-20.1,74.5-23.1,88.4c-9.6,43.9-33.2,107.9-96.7,191.9c-0.8,0.5-11.6,6.6-22,1.1c-5.2-2.8-7.9-7.2-8.9-9.2
				c8.3-80.3,17.8-147.8,26.1-199.9c1.7-10.9,9.4-58.7,21.4-121.9c4.7-24.7,11.6-60.9,19.8-98.1c10.3-46.3,26-109.3,50.2-184.8
				C645.4,1985,694.3,1978,743.2,1970.9z"/>
			<path class="st36" d="M720.6,1395.2c22.1-5.5,59.9-6.4,90.9-33.8c4.9-4.3,34.4-34.6,30-76.4c-0.4-4-5.4-45.8-36.8-60.1
				c-13.7-6.2-26.8-4.7-36.5-3.6c-26.3,3.1-37.2,15.5-58.4,24.4c-26.6,11.2-50.5,8.7-74.4,6.7c-48.1-4-67-28.7-109.4-45.7
				c-52.2-20.9-122.5-23.1-166.9-0.6c-78.8,39.9-33.1,136.2-121.5,184.7c-29,15.9-35.6,6.5-99.6,33.8
				c-64.1,27.3-96.1,40.9-104.9,71.2c-12.2,42,21.4,102.1,67.7,125.8c45.2,23.1,88.4,5.3,106,29.3c12.5,17.1-5.4,31.5,2.5,61.8
				c10.1,39.2,52.8,65,59.6,69.1c63.9,38.7,185,12,259.2-50.4C661.9,1618.8,600.7,1425.4,720.6,1395.2z"/>
			
				<linearGradient id="SVGID_28_" gradientUnits="userSpaceOnUse" x1="2252.0764" y1="2427.4856" x2="2434.5852" y2="2182.5393" gradientTransform="matrix(-1 0 0 1 3142.4758 0)">
				<stop  offset="0" style="stop-color:#444B8C"/>
				<stop  offset="0.9964" style="stop-color:#26264F"/>
			</linearGradient>
			<path class="st37" d="M742.2,2351.7c9.3-22.8,20.6-40.7,26.6-75.7c8-46.3-1.9-72.1-16-179.3c-10-76.4-8.3-88.2-1.6-99.6
				c14.5-24.9,45.2-35.9,76.6-40.4c-0.4,1.6-0.8,3.2-1.2,4.8c-16.4,75.1,46.3,120.9,18,203.5c-14,40.7-36.2,50-41.4,97.3
				c-4.9,44.2,12.8,53.5,9,93.7c-5.6,60.1-48.3,74.6-59.4,120.7c-7.2,29.9-1.1,73.6,51.6,136.9c-0.9,5.5-1.8,10.9-2.6,16.5
				c-4,2.3-15.8,8.3-30.9,6.1c-8.5-1.3-14.8-4.6-18.6-7.1C707,2490.7,720.4,2405,742.2,2351.7z"/>
			<path class="st30" d="M956.8,1394c-4.1-6.4-17.3-24.3-73.3-37.5c-28-6.6-79.9-17.9-146.6-3.8c-91.6,19.4-148.7,74.4-170.2,97.5
				c17.6,11.5,66.1,46.4,90.2,112.7c7.5,20.6,29.6,91.2-2,157.2c-18.2,38.1-50.4,66.6-74.9,88.4c-36.7,32.6-55.7,37.6-68,66.7
				c-13.4,31.8,0.1,47.2-16.5,69c-17.9,23.3-38.8,12.5-69.1,36.1c-31,24.2-20,44.1-48.2,70.8c-41,38.8-95.4,26.2-97.9,43.7
				c-2.2,15,36.5,35.4,69.3,43.7c65,16.4,121.8-11.1,138.6-19.6c46.7-23.5,38.6-38.6,74.2-56.5c59.6-30,100.4,3.4,236.2,6.8
				c73.5,1.9,110.7,2.3,131.1-22.6c18.6-22.7,8.8-47.7-2.3-155.1c0,0,0,0,0,0c-3.6-35.9-11.1-111-11.1-153.8
				c0-25.3,8.7-66.6,26.3-149.3c1-4.9,10.5-49.5,18.2-109.2C967.5,1425.6,966.5,1409.1,956.8,1394z"/>
			<g class="st38">
				
					<linearGradient id="SVGID_29_" gradientUnits="userSpaceOnUse" x1="2526.4119" y1="1347.0172" x2="2630.886" y2="1985.9196" gradientTransform="matrix(-1 0 0 1 3142.4758 0)">
					<stop  offset="0" style="stop-color:#FFC444"/>
					<stop  offset="0.9964" style="stop-color:#F36F56"/>
				</linearGradient>
				<path class="st39" d="M378,2051.3c28.2-26.7,17.2-46.6,48.2-70.8c30.3-23.6,51.2-12.8,69.1-36.1c16.6-21.7,3.1-37.2,16.5-69
					c12.3-29.2,31.3-34.2,68-66.7c24.5-21.7,56.7-50.3,74.9-88.4c31.6-66.1,9.5-136.6,2-157.2c-24-66.3-72.6-101.3-90.2-112.7
					c1.7-1.8,3.7-3.9,5.8-6.1c115.9,15.9,183.5,82.9,191.8,102.7c19.3,45.8-11.3,62.7-12.1,194.9c-0.4,63.2,6.4,88.1-14.1,114.5
					c-23.4,30.2-50.5,20.8-84.4,60.3c-26.1,30.3-21.9,49.5-46.2,62.3c-26.2,13.7-42.8-2.3-72.3,4c-49.3,10.5-59.8,67.3-92.4,98.4
					c-24.6,23.5-70.2,40-160.1,22.3c-2.1-3-3.1-6-2.7-8.7C282.6,2077.5,337,2090.1,378,2051.3z"/>
			</g>
			<path class="st32" d="M774.5,1281.2c0,0-5.8,46.7-23.1,57.4c-17.2,10.7-45.1,24.7-48.2,28.5c-3.1,3.8,106.8,15.6,161.3-11.9l0,0
				c-18-3.7-22.8-5.1-22.8-5.1c-4.9-1.4-14-3.9-23.1-9.1c-6.2-3.5-16.2-10.4-25.4-23.5l0.2-25.9L774.5,1281.2z"/>
			<path class="st32" d="M771.8,1297.7c0,0,11.2,15.4,28.9,9c15.8-5.8,6.4-46.5-6.2-51.2c-4.2-1.6-11.8-0.9-17,2.3
				c-3.6,2.2-13.2,14.2-7.7,27.6c-4-1.2-7.5-0.1-8.4,1.9c-1.1,2.5,2.3,5.9,3,6.7C767.2,1296.7,770.4,1297.5,771.8,1297.7z"/>
			<path class="st32" d="M974.5,1082.9l-25.8-13.2c0,0,54.4-3.4,67.6-23.1c13.1-19.7,22.5-19.7,16-6.6c-4.5,8.9-24.1,28.3-36.2,39.8
				C990.3,1085.3,981.7,1086.5,974.5,1082.9z"/>
			<path class="st30" d="M690.9,1588.1c11.5,24.4-41.3,81.3-100,108.3c-12,5.5-97.9,45-136.2,7c-31.6-31.4-11.2-96.3-3.9-119.5
				c35.8-113.8,145.7-171.6,191.8-192.5c34.4,86,14.1,124.3,6.2,136.2c-8.3,12.5-31.6,38.7-56.2,61.9
				c-17.4,16.3-28.2,24.2-26.7,26.7c1.8,3.2,22.2-2.8,101.2-41.3C676.1,1576.4,686.9,1579.8,690.9,1588.1z"/>
			<g>
				<path class="st25" d="M886.3,1445.4l-139.9,13.1c-2.9,0.3-5.4,2.3-6.2,5.2L688,1646c-1.4,4.8,2.5,9.5,7.5,9.1l141-12.4
					c3-0.3,5.5-2.3,6.3-5.2l51.1-182.9C895.2,1449.6,891.3,1445,886.3,1445.4z"/>
				
					<linearGradient id="SVGID_30_" gradientUnits="userSpaceOnUse" x1="2270.26" y1="1925.3016" x2="2290.3379" y2="1749.0602" gradientTransform="matrix(-1 0 0 1 3142.4758 0)">
					<stop  offset="0" style="stop-color:#311944"/>
					<stop  offset="0.5554" style="stop-color:#6F2B60"/>
					<stop  offset="1" style="stop-color:#A03976"/>
				</linearGradient>
				<path class="st40" d="M793.2,1603.1c5.3-28.8-11-51.2,4.6-78.2c16-27.8,44.2-23.1,64.4-46c6.4-7.3,12.2-17.6,15-32.7l9.1-0.9
					c5-0.5,8.9,4.2,7.6,9l-51.1,182.9c-0.8,2.9-3.3,4.9-6.3,5.2l-71.6,6.3C783.1,1632.6,790.7,1616.8,793.2,1603.1z"/>
			</g>
			<path class="st32" d="M670.9,1582.4c0,0,48.2-49.3,67.8-56.6c19.6-7.3,2.2,44.7-9.2,52c-11.5,7.3-16,10.1-24.9,11.3
				c-9,1.1-9,1.1-9,1.1l-11.8,6.3C683.8,1596.5,668.7,1594.7,670.9,1582.4z"/>
		</g>
	</g>
</g>
</svg>
