<?xml version="1.0" encoding="utf-8"?>
<!-- Generator: Adobe Illustrator 23.1.0, SVG Export Plug-In . SVG Version: 6.00 Build 0)  -->
<svg version="1.0" xmlns="http://www.w3.org/2000/svg" xmlns:xlink="http://www.w3.org/1999/xlink" x="0px" y="0px"
	 viewBox="0 0 500 500" style="enable-background:new 0 0 500 500;" xml:space="preserve">
<style type="text/css">
	.st0{display:none;}
	.st1{display:inline;fill:#FFFFFF;}
	.st2{opacity:0.46;}
	.st3{fill:#B3ABDB;}
	.st4{fill:#373C7A;}
	.st5{opacity:0.1;}
	.st6{fill:#FFFFFF;}
	.st7{fill:#D5D1DE;}
	.st8{fill:#B186F5;}
	.st9{fill:#8A91E6;}
	.st10{fill:#7B8DFF;}
	.st11{fill:#7E72AC;}
	.st12{fill:#6332DF;}
	.st13{fill:#78CAD2;}
	.st14{fill:#2A2E5E;}
	.st15{fill:#F49390;}
	.st16{fill:#FE9B88;}
	.st17{fill:#0E3266;}
	.st18{opacity:0.05;}
	.st19{fill:#363A68;}
	.st20{fill:#FE8D77;}
	.st21{fill:#310047;}
	.st22{fill:#2A95AD;}
	.st23{fill:#082951;}
	.st24{fill:#EFF4DF;}
	.st25{fill:#CE7E7E;}
	.st26{fill:#A3CFD1;}
	.st27{fill:#C0A5F2;}
	.st28{fill:#401671;}
	.st29{fill:#4929CF;}
	.st30{fill:#24004D;}
	.st31{display:inline;}
	.st32{fill:#1D262D;}
</style>
<g id="BACKGROUND" class="st0">
	<rect class="st1" width="500" height="500"/>
</g>
<g id="OBJECTS">
	<g class="st2">
		<path class="st3" d="M381.82,113.29c41.82,48.57,62.47,118.43,35.83,190.11c-6.67,17.94-19.37,34.29-35.41,40.66
			c-19.5,7.75-39.36-0.09-58.88-3.21c-61.31-9.78-125.31,28.13-188.21,29.84c-25.55,0.7-51.52-5.14-70.45-22.55
			c-23.26-21.38-32.98-58.39-29.37-94.32c5.61-55.73,40.51-108.14,78.25-145.25c35.47-34.87,80.26-57.23,124.98-60.72
			C290.83,43.8,344.68,70.15,381.82,113.29z"/>
	</g>
	<path class="st4" d="M190,205l9,3l1.1,25.55l-0.09,1.45H214c0,0-3.62-36.82-4-38c0,0-20.82-4.78-21.18-5.17
		c-0.03,0.04-7.12-2.99-7.86-2.01c-1.16,1.54-10.8,28.85-15.53,45.18H179L190,205z"/>
	<g class="st5">
		<ellipse cx="269.18" cy="405.92" rx="221.19" ry="14.74"/>
	</g>
	<g>
		<g>
			<g>
				<g>
					<path class="st6" d="M337.31,161.35c-1.95,0-3.85,0.22-5.68,0.63c-5.5-13.89-19.06-23.71-34.91-23.71s-29.4,9.82-34.91,23.71
						c-1.83-0.41-3.73-0.63-5.68-0.63c-14.36,0-25.99,11.64-25.99,25.99c0,0.82,0.04,1.62,0.12,2.42c-0.07,0.06-0.12,0.13-0.12,0.19
						c0,1.83,29.78,3.32,66.52,3.32c36.74,0,66.52-1.48,66.52-3.32c0.09-0.86,0.13-1.73,0.13-2.61
						C363.3,172.98,351.66,161.35,337.31,161.35z"/>
				</g>
			</g>
		</g>
		<g>
			<g>
				<g>
					<path class="st6" d="M116.8,194.82c-1.95,0-3.85,0.22-5.68,0.63c-5.5-13.89-19.06-23.71-34.91-23.71s-29.4,9.82-34.91,23.71
						c-1.83-0.41-3.73-0.63-5.68-0.63c-14.36,0-25.99,11.64-25.99,25.99c0,0.82,0.04,1.62,0.12,2.42c-0.07,0.06-0.12,0.13-0.12,0.19
						c0,1.83,29.78,3.32,66.52,3.32c36.74,0,66.52-1.48,66.52-3.32c0.09-0.86,0.13-1.73,0.13-2.61
						C142.8,206.45,131.16,194.82,116.8,194.82z"/>
				</g>
			</g>
		</g>
		<g>
			<g>
				<g>
					<path class="st6" d="M449.43,216.78c-1.95,0-3.85,0.22-5.68,0.63c-5.5-13.89-19.06-23.71-34.91-23.71
						c-15.85,0-29.4,9.82-34.91,23.71c-1.83-0.41-3.73-0.63-5.68-0.63c-14.36,0-25.99,11.64-25.99,25.99c0,0.82,0.04,1.62,0.12,2.42
						c-0.07,0.06-0.12,0.13-0.12,0.19c0,1.83,29.78,3.32,66.52,3.32c36.74,0,66.52-1.48,66.52-3.32c0.09-0.86,0.13-1.73,0.13-2.61
						C475.43,228.42,463.79,216.78,449.43,216.78z"/>
				</g>
			</g>
		</g>
		<g>
			<g>
				<g>
					<path class="st6" d="M206.43,81.78c-1.95,0-3.85,0.22-5.68,0.63c-5.5-13.89-19.06-23.71-34.91-23.71s-29.4,9.82-34.91,23.71
						c-1.83-0.41-3.73-0.63-5.68-0.63c-14.36,0-25.99,11.64-25.99,25.99c0,0.82,0.04,1.62,0.12,2.42c-0.07,0.06-0.12,0.13-0.12,0.19
						c0,1.83,29.78,3.32,66.52,3.32c36.74,0,66.52-1.48,66.52-3.32c0.09-0.86,0.13-1.73,0.13-2.61
						C232.43,93.42,220.79,81.78,206.43,81.78z"/>
				</g>
			</g>
		</g>
	</g>
	<g>
		<g>
			<g>
				<g>
					<g>
						<g>
							<path class="st7" d="M110.15,409.1h240.74l-31.95-182.44H58.96l28.63,163.48C89.5,401.1,99.02,409.1,110.15,409.1z"/>
						</g>
					</g>
				</g>
			</g>
			<g>
				<polygon class="st8" points="58.96,226.66 88.36,394.53 94.59,394.53 65.19,226.66 				"/>
			</g>
		</g>
		<g>
			<path class="st7" d="M454.38,409.1H108.12c-9.95,0-18.46-7.15-20.18-16.95l-1.31-7.5h379.29v12.92
				C465.91,403.94,460.75,409.1,454.38,409.1z"/>
		</g>
		<g>
			<path class="st8" d="M221.17,397.57v-12.92H86.62l2.28,13.04c1.16,6.6,6.89,11.42,13.59,11.42H232.7
				C226.34,409.1,221.17,403.94,221.17,397.57z"/>
		</g>
		<g>
			<polygon class="st9" points="87.29,388.45 465.91,388.45 465.91,384.65 86.62,384.65 			"/>
		</g>
		<g>
			<polygon class="st10" points="336.62,375.99 311.97,235.22 76.39,235.22 101.03,375.99 			"/>
		</g>
		<g>
			<path class="st11" d="M198.38,231.55l-0.18-1.03c-0.11-0.65-0.68-1.13-1.34-1.13h-3.51c-0.85,0-1.49,0.76-1.34,1.6l0.18,1.03
				c0.11,0.65,0.68,1.13,1.34,1.13h3.51C197.88,233.15,198.52,232.38,198.38,231.55z"/>
		</g>
		<g>
			<polygon class="st11" points="128.47,394.53 112.44,394.53 113.26,399.21 129.29,399.21 			"/>
		</g>
		<g>
			<polygon class="st11" points="150.67,394.53 134.64,394.53 135.46,399.21 151.49,399.21 			"/>
		</g>
		<g>
			<g>
				<polygon class="st12" points="336.77,372 108.53,372 86.79,246.38 315.03,246.38 				"/>
			</g>
			<g>
				<polygon class="st12" points="316.02,252.02 79.17,252.02 76.21,235.22 313.06,235.22 				"/>
			</g>
			<g>
				<polygon class="st13" points="330.33,345.86 294.61,345.86 280,263.02 315.73,263.02 				"/>
			</g>
			<g>
				<g>
					<path class="st9" d="M309.63,246.87c-0.12,0-0.24-0.04-0.33-0.12l-5.44-4.62c-0.22-0.18-0.24-0.51-0.06-0.73
						c0.19-0.22,0.51-0.24,0.73-0.06l5.44,4.62c0.22,0.18,0.24,0.51,0.06,0.73C309.92,246.8,309.77,246.87,309.63,246.87z"/>
				</g>
				<g>
					<path class="st9" d="M305,246.87c-0.12,0-0.23-0.04-0.33-0.12c-0.22-0.18-0.25-0.51-0.07-0.73l3.81-4.62
						c0.18-0.22,0.51-0.25,0.73-0.07c0.22,0.18,0.25,0.51,0.07,0.73l-3.81,4.62C305.3,246.8,305.15,246.87,305,246.87z"/>
				</g>
			</g>
			<g>
				<g>
					<g>
						<polygon class="st14" points="137.49,266.55 108.78,266.55 108.11,262.74 136.82,262.74 						"/>
					</g>
					<g>
						<polygon class="st15" points="140.01,280.82 111.3,280.82 108.61,265.59 137.32,265.59 						"/>
					</g>
				</g>
				<g>
					<g>
						<polygon class="st14" points="140.68,284.63 111.97,284.63 111.3,280.82 140.01,280.82 						"/>
					</g>
					<g>
						<polygon class="st15" points="143.19,298.9 114.49,298.9 111.8,283.67 140.51,283.67 						"/>
					</g>
				</g>
			</g>
			<g>
				<path class="st9" d="M299.89,246.9h-4.69c-0.25,0-0.46-0.18-0.51-0.43l-0.83-4.69c-0.03-0.15,0.01-0.3,0.11-0.42
					c0.1-0.12,0.24-0.18,0.4-0.18h4.69c0.25,0,0.46,0.18,0.51,0.43l0.83,4.69c0.03,0.15-0.01,0.3-0.11,0.42
					C300.19,246.83,300.05,246.9,299.89,246.9z M295.64,245.87h3.64l-0.65-3.66h-3.64L295.64,245.87z"/>
			</g>
			<g>
				<polygon class="st12" points="337.47,375.99 100.62,375.99 99.22,368.01 336.06,368.01 				"/>
			</g>
			<g>
				<polygon class="st12" points="110.4,368.01 99.22,368.01 79.17,252.02 90.36,252.02 				"/>
			</g>
			<g>
				<polygon class="st14" points="318.71,279.91 282.98,279.91 282.43,276.79 318.16,276.79 				"/>
			</g>
			<g>
				<polygon class="st14" points="321.68,296.79 285.95,296.79 285.4,293.67 321.13,293.67 				"/>
			</g>
			<g>
				<polygon class="st14" points="324.66,313.68 288.93,313.68 288.38,310.56 324.11,310.56 				"/>
			</g>
			<g>
				<polygon class="st14" points="327.64,330.56 291.91,330.56 291.36,327.44 327.09,327.44 				"/>
			</g>
			<g>
				<polygon class="st6" points="291.07,350.29 155.69,350.29 140.26,262.74 275.63,262.74 				"/>
			</g>
		</g>
	</g>
	<g>
		<g>
			<g>
				<g>
					<g>
						<polygon class="st7" points="125.48,378.38 120.7,377.44 126,366.08 130.08,368.38 						"/>
					</g>
				</g>
				<g>
					<g>
						<g>
							<path class="st14" d="M138.71,384.37c-0.04-1.42-0.58-5.55-3.58-5.55l-4.98-0.07l-1.05-3.55c-0.36-1.18-1.55-1.29-1.8-0.78
								c-0.85,1.77-1.09,2.59-2.11,2.64l-3.81-0.05c-1.66,0-1.57,0.97-1.58,2.2c0,0-0.04,4.17-0.04,5.17H138.71z"/>
						</g>
					</g>
					<g>
						<g>
							<path class="st4" d="M133.53,384.37h5.18c-0.04-1.42-0.58-5.55-3.58-5.55l-1.6-0.02V384.37z"/>
						</g>
					</g>
					<g>
						<g>
							<polygon class="st4" points="138.81,385.65 119.86,385.65 119.77,384.29 138.72,384.29 							"/>
						</g>
					</g>
				</g>
			</g>
		</g>
		<g>
			<g>
				<path class="st14" d="M121.31,370.06l8.77,2.17c26.69-50.58-11.6-40.6-37.77-19.11c2.63,2.37,5.25,4.75,7.88,7.12
					c9.89-9.02,25.01-17.36,29.3-14.28C132.07,347.81,128.38,356.43,121.31,370.06z"/>
			</g>
		</g>
		<g>
			<path class="st16" d="M112.84,341.56c-1.51,0-2.99-0.27-4.41-0.86c-6.68-2.77-9.76-11.58-9.17-26.2
				c0.05-1.31,1.16-2.33,2.48-2.28c1.31,0.05,2.34,1.16,2.28,2.48c-0.49,12.06,1.72,19.73,6.23,21.6c4.34,1.8,11.55-1.64,17.94-8.56
				c0.89-0.97,2.4-1.03,3.37-0.13c0.97,0.89,1.03,2.4,0.13,3.37C126.61,336.49,119.44,341.56,112.84,341.56z"/>
		</g>
		<g>
			<g>
				<g>
					<polygon class="st7" points="78.25,336.73 78.1,312.21 154.97,312.26 155.12,336.78 					"/>
				</g>
				<g>
					
						<rect x="55.26" y="307.54" transform="matrix(6.175517e-03 1 -1 6.175517e-03 391.6303 255.0129)" class="st7" width="24.52" height="33.98"/>
				</g>
				<g>
					<polygon class="st12" points="178.46,323.37 154.97,312.26 155.12,336.78 178.46,326.71 					"/>
				</g>
				<g>
					<path class="st7" d="M154.27,312.36L154.27,312.36c4.99-0.03,5.14,24.27,0.15,24.3l0,0
						C149.43,336.69,149.28,312.39,154.27,312.36z"/>
				</g>
				<g>
					<path class="st17" d="M174.82,321.65c0.3,2.69,0.31,3.89,0.07,6.6l4.63-1.69c1.17-0.64,1.2-2.31,0.06-3L174.82,321.65z"/>
				</g>
				<g>
					<path class="st12" d="M50.45,312.38L50.45,312.38c4.99-0.03,5.14,24.48,0.15,24.52l0,0C45.61,336.93,45.46,312.41,50.45,312.38
						z"/>
				</g>
				<g>
					<g>
						<path class="st11" d="M126.03,315.67h-11.26c-0.99,0-1.79,0.8-1.79,1.79c0,0.99,0.8,1.79,1.79,1.79h11.26V315.67z"/>
					</g>
					<g>
						<path class="st11" d="M139.67,315.67h-11.29v3.58h11.29c0.99,0,1.79-0.8,1.79-1.79C141.46,316.47,140.66,315.67,139.67,315.67
							z"/>
					</g>
				</g>
				<g>
					<g>
						<path class="st9" d="M126.03,314.44h-11.26c-0.99,0-1.79,0.8-1.79,1.79c0,0.99,0.8,1.79,1.79,1.79h11.26V314.44z"/>
					</g>
					<g>
						<path class="st9" d="M139.67,314.44h-11.29v3.58h11.29c0.99,0,1.79-0.8,1.79-1.79C141.46,315.24,140.66,314.44,139.67,314.44z
							"/>
					</g>
				</g>
				<g>
					<path class="st17" d="M50.5,320.14L50.5,320.14c1.83-0.01,1.89,8.98,0.06,8.99l0,0C48.73,329.15,48.67,320.16,50.5,320.14z"/>
				</g>
				<g class="st18">
					<path d="M180.36,325.5c0.19-0.7-0.07-1.51-0.78-1.94l-4.75-1.91l-19.86-9.38l0,0.26l0-0.26l-70.53-0.05l0-0.04l-6.33,0.04h0
						l-27.65,0.17c-2.61,0.02-3.81,6.73-3.65,13.12H180.36z"/>
				</g>
			</g>
		</g>
		<g class="st5">
			<path d="M49.59,438.45c0,2.85,18.69,5.15,41.75,5.15c23.06,0,41.75-2.31,41.75-5.15c0-2.85-18.69-5.15-41.75-5.15
				C68.28,433.3,49.59,435.6,49.59,438.45z"/>
		</g>
		<g>
			<g>
				<g>
					<g>
						<path class="st19" d="M83.83,431.4h-6.07v-4.05c0-0.86,0.69-1.55,1.55-1.55h2.97c0.86,0,1.55,0.69,1.55,1.55V431.4z"/>
					</g>
				</g>
			</g>
			<g>
				<g>
					<g>
						<rect x="76.86" y="418.64" class="st7" width="5.2" height="11.16"/>
					</g>
				</g>
			</g>
			<g>
				<g>
					<path class="st14" d="M85.23,435.75h-9.7v-4.5c0-0.8,0.65-1.45,1.45-1.45h5.23c1.67,0,3.02,1.35,3.02,3.02V435.75z"/>
				</g>
			</g>
			<g>
				<g>
					<polygon class="st4" points="75.53,435.75 85.23,435.75 85.33,437.47 75.63,437.47 					"/>
				</g>
			</g>
		</g>
		<g>
			<g>
				<path class="st14" d="M82.95,424.22c-2.89,0-4.47,0-7.35,0l-1.17-71.76c2.89,0,7.19,0,10.07,0L82.95,424.22z"/>
			</g>
		</g>
		<g>
			<path class="st14" d="M75.24,360.41c6.47,2.18,27.07,0.13,27.15,0.1l0.83-12.57c0,0-23.69-5.58-29.4-0.57
				C71.88,349.08,72.67,359.54,75.24,360.41z"/>
		</g>
		<g>
			<path class="st13" d="M103.22,347.95l-29.4-0.57l-1.15-36.79c0-6.28,5.09-11.37,11.37-11.37h10.18c6.28,0,10.45,4.17,10.45,10.45
				L103.22,347.95z"/>
		</g>
		<g>
			<path class="st16" d="M111.55,341.47c-0.1,0-0.21-0.01-0.31-0.02c-1.73-0.22-3.31-0.82-4.72-1.77c-1.57-1.07-2.91-2.57-3.98-4.48
				c-2.55-4.53-3.65-11.49-3.28-20.69c0.05-1.31,1.14-2.33,2.48-2.28c1.31,0.05,2.34,1.16,2.28,2.48
				c-0.34,8.3,0.56,14.41,2.67,18.16c0.71,1.26,1.55,2.22,2.5,2.87c0.8,0.54,1.67,0.86,2.66,0.99c1.3,0.17,2.22,1.36,2.06,2.67
				C113.75,340.6,112.73,341.47,111.55,341.47z"/>
		</g>
		<g>
			<path class="st13" d="M105.05,321.16c0,0-6.45,0.27-9.82-0.04c-1.19-3.21-1.19-6.93-0.35-10.25c0.84-3.32,2.71-6.37,5.28-8.63
				C100.89,301.59,106.37,315.75,105.05,321.16z"/>
		</g>
		<g>
			<g>
				<path class="st20" d="M97.83,288.66H96.7v-5.25h1.5l1.11,3.06c0.36,0.98-0.28,2.09-1.32,2.18
					C97.93,288.66,97.88,288.66,97.83,288.66z"/>
			</g>
			<g>
				<path class="st16" d="M93.59,297.63c0,0-5.61,0-5.61,0v-19.44c0,0,10.09,0,10.22,0c0.17,0,0.26,13.36,0.26,13.36
					C98.45,296.03,96.45,297.63,93.59,297.63z"/>
			</g>
			<g>
				<path class="st21" d="M98.41,282.27h-0.47c-0.17,0-0.31-0.14-0.31-0.31l0,0c0-0.17,0.14-0.31,0.31-0.31h0.47
					c0.17,0,0.31,0.14,0.31,0.31l0,0C98.72,282.13,98.58,282.27,98.41,282.27z"/>
			</g>
			<g>
				<path class="st4" d="M96.02,269.46h-9.73c-0.21,0-0.41,0.02-0.62,0.04c-0.26-0.02-0.53-0.04-0.8-0.04l0,0
					c-5.57,0-10.08,4.51-10.08,10.08v24.01c0,5.57,4.51,10.08,10.08,10.08l0,0c5.57,0,10.08-4.51,10.08-10.08v-22.3
					c0-0.68,0.55-1.23,1.23-1.23l0,0c3.18,0,5.7-2.8,5.23-6.07C101.04,271.34,98.67,269.46,96.02,269.46z"/>
			</g>
		</g>
	</g>
	<g>
		<g>
			<g>
				<g>
					<g>
						
							<rect x="353.98" y="377.76" transform="matrix(0.0119 -0.9999 0.9999 0.0119 -31.0739 735.6208)" class="st7" width="5.37" height="11.54"/>
					</g>
				</g>
				<g>
					<g>
						<g>
							<path class="st4" d="M344.13,373.13c0.39,0.05,6.09-2.64,6.05,0.46l0.01,3.49l3.66,1.13c0.74,0.23,1.21,0.74,1.22,1.3
								l0.01,0.83c0,0.2-0.12,0.28-0.35,0.29c-1.93,0.11-2.85,0.27-2.85,1.3l0,4.23c-0.02,1.72-1.02,1.61-2.29,1.61
								c0,0-4.31-0.01-5.34-0.03L344.13,373.13z"/>
						</g>
					</g>
					<g>
						<path class="st14" d="M344.33,387.74l0.17-14.22l5.68,0.07l0-1.66c0.04-3.04-4.08-3.68-5.62-3.76l0-0.01l-1.5-0.02
							l-0.23,19.59L344.33,387.74z"/>
					</g>
				</g>
			</g>
		</g>
		<g>
			<g>
				<g>
					<g>
						
							<rect x="363.3" y="387.64" transform="matrix(-0.6137 -0.7895 0.7895 -0.6137 279.9777 923.814)" class="st7" width="5.37" height="11.54"/>
					</g>
				</g>
				<g>
					<g>
						<g>
							<path class="st4" d="M349.7,393.09c0.33-0.2,3.12-5.86,5.02-3.41l2.18,2.72l3.57-1.4c0.72-0.28,1.41-0.18,1.76,0.26
								l0.53,0.64c0.13,0.16,0.08,0.29-0.09,0.44c-1.44,1.28-2.06,1.99-1.42,2.79l2.64,3.31c1.05,1.36,0.2,1.89-0.79,2.68
								c0,0-3.38,2.68-4.2,3.31L349.7,393.09z"/>
						</g>
					</g>
					<g>
						<path class="st14" d="M358.96,404.4l-8.73-11.23l4.49-3.49l-1.04-1.3c-1.87-2.4-5.49-0.34-6.74,0.56l-0.01-0.01l-1.19,0.92
							l12.02,15.46L358.96,404.4z"/>
					</g>
				</g>
			</g>
		</g>
		<g>
			<polygon class="st4" points="431.9,382.25 460.26,382.25 461.25,367.83 432.24,372.24 			"/>
		</g>
		<g>
			<path class="st4" d="M439.55,387.86c0.45,0.14-0.4-7.83,5.48-10.47c-37-26.82-33.15-27.16-73.53,5.27l6.88,8.28
				C414.85,362.04,403.74,364.99,439.55,387.86z"/>
		</g>
		<g>
			<path class="st16" d="M389.59,335.25c-0.85,0-1.68-0.45-2.14-1.24l-1.17-2.04c-0.68-1.18-0.27-2.68,0.91-3.36
				c1.18-0.68,2.68-0.27,3.36,0.91l1.17,2.05c0.67,1.18,0.26,2.68-0.92,3.36C390.43,335.14,390.01,335.25,389.59,335.25z"/>
		</g>
		<path class="st14" d="M453.13,388H360v-10l103-2v2C463,383.45,458.58,388,453.13,388z"/>
		<path class="st4" d="M415.46,358.51c-11.09-3.27-25.44,9.04-50.16,28.9l6.88,8.28c21.58-17.1,32.7-27.8,40.54-25.07L415.46,358.51
			z"/>
		<polygon class="st14" points="463,379 433,381 433,366 463,366 		"/>
		<g>
			<path class="st17" d="M449.35,339.55L449.35,339.55c-8.15,0.07-14.81-6.48-14.88-14.63l-0.18-21.07
				c-0.07-8.15,6.48-14.81,14.63-14.88l0,0c8.15-0.07,14.81,6.48,14.88,14.63l0.18,21.07C464.05,332.82,457.5,339.48,449.35,339.55z
				"/>
		</g>
		<g>
			<path class="st20" d="M424.04,343.87c-0.59,0-1.13-0.04-1.62-0.1c-9.32-1.17-17.16-11.49-18.63-20.4l4.7-0.77
				c1.16,7.05,7.62,15.58,14.52,16.45c6.18,0.78,10.18-5.22,12.44-10.39l4.36,1.91C434.93,341.73,428.36,343.87,424.04,343.87z"/>
		</g>
		<g>
			<path class="st22" d="M444.01,332.99c-1.37,4.59-3.25,6.66-6.84,9.82c-5.16-1.62-6.7-3.41-7.51-6.92c1.58-2.78,2.92-5.71,4-8.72
				C437.93,328.38,440.34,330.5,444.01,332.99z"/>
		</g>
		<g>
			<path class="st13" d="M466,372c0,0-16,4-33-3l-0.31-37.74c0.11-6.49,5.47-11.66,11.96-11.55l10.53,0.18
				c6.49,0.11,11.66,5.47,11.55,11.96L466,372z"/>
		</g>
		<g>
			<g>
				<path class="st20" d="M449.86,309.46l4,0.07l-0.22,12.28c-0.04,2.35-1.98,4.21-4.32,4.17l0,0c-2.35-0.04-4.21-1.98-4.17-4.32
					l0.11-6L449.86,309.46z"/>
			</g>
			<g>
				<g>
					<path class="st20" d="M437.55,303.04l0.13,5.78c-1.12-0.28-2.23-1.29-2.21-2.39l0.02-1.14
						C435.5,304.19,436.43,303.29,437.55,303.04z"/>
				</g>
				<g>
					<path class="st16" d="M437.52,311.18l-0.13-8.58c0.09-4.26,1.26-6.78,4.97-6.64l11.85,0.18l-0.03,14.03
						C454,320.9,437.73,321.04,437.52,311.18z"/>
				</g>
				<g>
					<g>
						<g>
							<g>
								<g>
									<g>
										<g>
											<g>
												<path class="st23" d="M441.12,306.03c-0.01,0.47-0.39,0.84-0.86,0.83c-0.47-0.01-0.84-0.39-0.83-0.86
													c0.01-0.47,0.39-0.84,0.86-0.83C440.75,305.18,441.12,305.57,441.12,306.03z"/>
											</g>
										</g>
									</g>
								</g>
							</g>
						</g>
						<g>
							<g>
								<g>
									<g>
										<g>
											<path class="st23" d="M447.76,306.13c-0.01,0.47-0.39,0.84-0.86,0.83c-0.47-0.01-0.84-0.39-0.83-0.86
												c0.01-0.47,0.39-0.84,0.86-0.83C447.4,305.28,447.77,305.67,447.76,306.13z"/>
										</g>
									</g>
								</g>
							</g>
						</g>
					</g>
				</g>
				<g>
					<path class="st24" d="M448.32,309.14c-0.45,2.38-2.74,4.15-5.04,4.12s-3.83-1.86-4.21-4.26L448.32,309.14z"/>
				</g>
				<g>
					<path class="st20" d="M443.37,308.77C443.37,308.77,443.37,308.77,443.37,308.77c-0.48-0.01-1.06-0.07-1.31-0.46
						c-0.31-0.48-0.03-1.16,0.44-2.28c0.11-0.27,0.23-0.56,0.36-0.88c0.06-0.15,0.23-0.22,0.38-0.16c0.15,0.06,0.22,0.23,0.16,0.38
						c-0.13,0.32-0.25,0.62-0.37,0.89c-0.34,0.81-0.64,1.52-0.49,1.73c0.04,0.07,0.21,0.19,0.83,0.2c0.16,0,0.29,0.14,0.29,0.3
						C443.66,308.65,443.53,308.77,443.37,308.77z"/>
				</g>
				<g>
					<path class="st16" d="M455.01,303.21l-0.9-0.01l-0.09,5.9l0.9,0.01c1.32,0.02,2.4-1.03,2.42-2.35l0.02-1.14
						C457.37,304.31,456.32,303.23,455.01,303.21z"/>
				</g>
				<g>
					<path class="st17" d="M453.64,301.19l-8.37-0.44c-1.64-0.1-2.89-1.5-2.79-3.14l0,0c0.1-1.64,0.07-5.08,1.7-4.99l6.38,2.48
						c1.64,0.1,2.89,1.5,2.79,3.14l0,0C453.26,299.88,455.28,301.28,453.64,301.19z"/>
				</g>
				<g>
					<path class="st17" d="M447.77,303.8c0,0-0.01,0-0.02,0l-1.57-0.09c-0.16-0.01-0.28-0.15-0.28-0.31
						c0.01-0.16,0.12-0.28,0.31-0.28l1.57,0.09c0.16,0.01,0.28,0.15,0.28,0.31C448.05,303.68,447.92,303.8,447.77,303.8z"/>
				</g>
				<g>
					<path class="st17" d="M440.9,303.56c0,0-0.01,0-0.02,0l-1.57-0.09c-0.16-0.01-0.28-0.15-0.28-0.31
						c0.01-0.16,0.13-0.26,0.31-0.28l1.57,0.09c0.16,0.01,0.28,0.15,0.28,0.31C441.18,303.44,441.05,303.56,440.9,303.56z"/>
				</g>
				<g>
					<path class="st17" d="M452.06,295.42l-0.13,8.88c-0.03,1.81,1.42,3.31,3.23,3.33l0,0c1.8,0.03,3.67,0.45,3.69-1.35l-0.3-7.49
						c0.03-1.81-1.42-3.31-3.23-3.33L452.06,295.42z"/>
				</g>
			</g>
		</g>
		<g>
			<path class="st20" d="M448.88,329.54L448.88,329.54c5.22,0.09,9.57-3.84,10.11-8.93c-1.19-0.43-2.47-0.69-3.82-0.72l-10.53-0.18
				c-1.97-0.03-3.83,0.42-5.48,1.25C439.85,325.74,443.91,329.45,448.88,329.54z"/>
		</g>
		<g>
			<g>
				
					<rect x="327.06" y="277.21" transform="matrix(0.9629 0.2697 -0.2697 0.9629 99.5973 -89.9153)" class="st8" width="99.89" height="80.53"/>
			</g>
			<g>
				<g>
					
						<rect x="332.87" y="283.79" transform="matrix(0.9629 0.2697 -0.2697 0.9629 99.5972 -89.9152)" class="st6" width="88.26" height="67.37"/>
				</g>
				<g>
					<polygon class="st15" points="416.45,340.27 404.51,299.61 368.25,332.66 358.62,299.85 328.4,327.39 325.42,338.02 
						410.41,361.82 					"/>
				</g>
			</g>
		</g>
		<g>
			<path class="st16" d="M429.07,362.27c-5.58,0-11.77-1.01-18.55-3.02c-1.3-0.39-2.05-1.76-1.66-3.06c0.39-1.3,1.76-2.05,3.06-1.66
				c14.21,4.23,25.38,3.7,33.18-1.57c9.43-6.36,11.47-17.89,11.91-22.55c0.13-1.35,1.31-2.35,2.68-2.22
				c1.35,0.13,2.35,1.33,2.22,2.68c-0.51,5.36-2.89,18.63-14.06,26.17C442.7,360.52,436.42,362.27,429.07,362.27z"/>
		</g>
		<g>
			<path class="st13" d="M459.84,322.64c-0.16,0.13-7.94,17.83-7.94,17.82c1.08,3.17,5.26,4.98,8.44,4.57
				c3.23-0.42,4.67-16,5.03-17.3L459.84,322.64z"/>
		</g>
	</g>
	<g>
		<g>
			<path class="st20" d="M244.3,200.33c-4.49,0-18.34-2.62-22.19-33.79l4.73-0.58c2.72,22.02,10.82,29.71,17.58,29.61
				c6.85-0.12,12.87-7.72,13.71-17.3l4.74,0.41c-1.06,12.17-8.96,21.48-18.37,21.65C244.43,200.33,244.36,200.33,244.3,200.33z"/>
		</g>
		<g>
			<path class="st25" d="M217.25,166.06c-1.06,4.67,0.49,9.16,2.07,13.68c3.12,0.93,8.42-1.14,9.64-2.68
				c-1.08-2.65-0.36-6.74,0.21-10.34C224.86,165.67,221.67,165.69,217.25,166.06z"/>
		</g>
		<g>
			<path class="st15" d="M180.52,189.82c0,0,17.33,11.89,29.45,9.91l17.99-29.61c3.09-5.71,0.97-12.85-4.74-15.94l-9.26-5.01
				c-5.71-3.09-12.85-0.97-15.94,4.74L180.52,189.82z"/>
		</g>
		<g>
			<g>
				<path class="st20" d="M224.29,141.65l-3.8-2.06l-6.32,11.67c-1.21,2.23-0.38,5.02,1.85,6.22l0,0c2.23,1.21,5.02,0.38,6.22-1.85
					l3.09-5.7L224.29,141.65z"/>
			</g>
			<g>
				<g>
					<path class="st20" d="M237.54,144.98l-3.13,5.27c1.18,0.32,2.73-0.03,3.29-1.06l0.58-1.06
						C238.83,147.11,238.45,145.8,237.54,144.98z"/>
				</g>
				<g>
					<path class="st16" d="M233.33,152.52l4.59-7.85c2.14-3.98,2.37-6.92-1.13-8.71l-11.04-6.01l-7.28,12.96
						C213.05,152.91,228,161.51,233.33,152.52z"/>
				</g>
				<g>
					<g>
						<g>
							<g>
								<g>
									<g>
										<g>
											<g>
												<path class="st23" d="M232.69,145.89c-0.24,0.43-0.08,0.98,0.36,1.21c0.43,0.24,0.98,0.08,1.21-0.36
													c0.24-0.43,0.08-0.98-0.36-1.21C233.47,145.3,232.93,145.46,232.69,145.89z"/>
											</g>
										</g>
									</g>
								</g>
							</g>
						</g>
						<g>
							<g>
								<g>
									<g>
										<g>
											<path class="st23" d="M226.5,142.52c-0.24,0.43-0.08,0.98,0.36,1.21c0.43,0.24,0.98,0.08,1.21-0.36
												c0.24-0.43,0.08-0.98-0.36-1.21C227.28,141.93,226.74,142.09,226.5,142.52z"/>
										</g>
									</g>
								</g>
							</g>
						</g>
					</g>
				</g>
				<g>
					<path class="st24" d="M224.42,145.01c-0.83,2.43,0.36,5.26,2.5,6.43c2.14,1.16,4.51,0.27,6.1-1.74L224.42,145.01z"/>
				</g>
				<g>
					<path class="st20" d="M230.37,147.15c-0.26,0-0.57-0.11-0.92-0.33c-0.15-0.09-0.19-0.28-0.1-0.43c0.09-0.15,0.28-0.19,0.43-0.1
						c0.33,0.2,0.57,0.28,0.69,0.22c0.32-0.17,0.39-1.3,0.45-2.4c0.01-0.17,0.16-0.31,0.33-0.29c0.17,0.01,0.3,0.16,0.29,0.33
						c-0.09,1.56-0.15,2.59-0.78,2.92C230.64,147.12,230.51,147.15,230.37,147.15z"/>
				</g>
				<g>
					<path class="st17" d="M229.36,141.13c-0.05,0-0.09-0.01-0.14-0.03l-1.49-0.73c-0.15-0.08-0.22-0.26-0.14-0.41
						c0.08-0.15,0.26-0.21,0.41-0.14l1.49,0.73c0.15,0.08,0.22,0.26,0.14,0.41C229.58,141.07,229.47,141.13,229.36,141.13z"/>
				</g>
				<g>
					<path class="st17" d="M235.82,144.49c-0.05,0-0.09-0.01-0.14-0.03l-1.49-0.73c-0.15-0.08-0.22-0.26-0.14-0.41
						c0.08-0.15,0.26-0.22,0.41-0.14l1.49,0.73c0.15,0.08,0.22,0.26,0.14,0.41C236.05,144.43,235.94,144.49,235.82,144.49z"/>
				</g>
				<g>
					<path class="st17" d="M228.83,130.42l-3.82,7.28c-0.93,1.69-4.12,3.86-6.29,2.68c-1.11-0.6-4.67-1.82-2.58-6.21
						c0.78-1.64,1.56-2.94,2.65-4.86c1.22-2.13,3.98-2.18,6.13-1.01L228.83,130.42z"/>
				</g>
				<g>
					<path class="st16" d="M221.76,136.27l1,0.54l-2.99,5.49l-1-0.54c-1.46-0.79-2.09-2.43-1.43-3.65l0.58-1.06
						C218.58,135.83,220.3,135.48,221.76,136.27z"/>
				</g>
				<g>
					<path class="st17" d="M242.16,131.96l-10.88-6.08c-2.37-1.32-5.43-0.75-6.98,1.49c-1.24,1.79-1.19,4.02-0.15,5.71
						c-0.01,0.02-0.03,0.03-0.04,0.05l-3.68,6.24c-0.39,0.66-0.1,1.54,0.65,1.98h0c0.75,0.43,1.67,0.25,2.05-0.4l2.54-4.31
						c0.48-0.81,1.52-1.1,2.35-0.63l8.9,4.97c2.42,1.35,5.56,0.71,7.07-1.62C245.64,136.8,244.77,133.42,242.16,131.96z"/>
				</g>
			</g>
		</g>
		<g>
			<path class="st16" d="M260.86,179.71c-0.65,0-1.3-0.26-1.78-0.76c-0.94-0.98-0.9-2.54,0.08-3.48l1.7-1.62
				c0.98-0.94,2.54-0.9,3.48,0.08c0.94,0.98,0.9,2.54-0.08,3.48l-1.71,1.63C262.08,179.49,261.47,179.71,260.86,179.71z"/>
		</g>
		<g>
			<g>
				<polygon class="st7" points="222.07,212.77 249.37,234.9 319.48,148.37 319.42,145.51 292.17,126.25 222.01,209.91 				"/>
			</g>
			<g>
				
					<rect x="253.14" y="122.03" transform="matrix(-0.777 -0.6295 0.6295 -0.777 369.1775 486.2048)" class="st6" width="35.15" height="111.36"/>
			</g>
			<g>
				<path class="st17" d="M305.95,144.3c-1.52,1.87-1.23,4.62,0.64,6.13c1.87,1.52,4.61,1.23,6.13-0.64
					c1.52-1.87,1.23-4.61-0.64-6.13C310.21,142.14,307.46,142.43,305.95,144.3z"/>
			</g>
			<g>
				<path class="st12" d="M309.32,152.54c-1.25,0-2.46-0.43-3.45-1.23c-1.14-0.92-1.85-2.24-2.01-3.7c-0.15-1.46,0.27-2.89,1.2-4.03
					l0,0c1.91-2.35,5.38-2.72,7.73-0.81c1.14,0.92,1.85,2.24,2.01,3.7c0.15,1.46-0.27,2.89-1.2,4.03c-0.92,1.14-2.24,1.85-3.7,2.01
					C309.71,152.53,309.52,152.54,309.32,152.54z M306.83,145.02c-0.54,0.67-0.79,1.51-0.7,2.36c0.09,0.86,0.51,1.63,1.18,2.17
					c0.67,0.54,1.51,0.79,2.36,0.7c0.86-0.09,1.63-0.51,2.17-1.18c0.54-0.67,0.79-1.51,0.7-2.36c-0.09-0.86-0.51-1.63-1.18-2.17
					C309.98,143.42,307.95,143.64,306.83,145.02L306.83,145.02z"/>
			</g>
			<g>
				<g>
					
						<rect x="272.99" y="147.23" transform="matrix(-0.777 -0.6295 0.6295 -0.777 413.7559 458.9112)" class="st15" width="30.35" height="17.87"/>
				</g>
				<g>
					<path class="st26" d="M292.26,174.36c-0.13,0-0.26-0.04-0.37-0.13l-14.24-11.54c-0.25-0.2-0.29-0.57-0.09-0.82
						c0.2-0.25,0.57-0.29,0.82-0.09l14.24,11.54c0.25,0.2,0.29,0.57,0.09,0.82C292.6,174.28,292.43,174.36,292.26,174.36z"/>
				</g>
			</g>
			<g>
				<g>
					
						<rect x="258.57" y="165.04" transform="matrix(-0.777 -0.6295 0.6295 -0.777 376.9167 481.4663)" class="st8" width="30.35" height="17.87"/>
				</g>
				<g>
					<path class="st26" d="M277.83,192.16c-0.13,0-0.26-0.04-0.37-0.13l-14.25-11.54c-0.25-0.2-0.29-0.57-0.09-0.82
						c0.2-0.25,0.57-0.29,0.82-0.09l14.25,11.54c0.25,0.2,0.29,0.57,0.09,0.82C278.17,192.09,278,192.16,277.83,192.16z"/>
				</g>
			</g>
			<g>
				<g>
					
						<rect x="244.14" y="182.84" transform="matrix(-0.777 -0.6295 0.6295 -0.777 340.0792 504.021)" class="st12" width="30.35" height="17.87"/>
				</g>
				<g>
					<path class="st26" d="M263.41,209.96c-0.13,0-0.26-0.04-0.37-0.13l-14.24-11.54c-0.25-0.2-0.29-0.57-0.09-0.82
						c0.2-0.25,0.57-0.29,0.82-0.09l14.24,11.54c0.25,0.2,0.29,0.57,0.09,0.82C263.75,209.89,263.58,209.96,263.41,209.96z"/>
				</g>
			</g>
			<g>
				<g>
					
						<rect x="229.72" y="200.64" transform="matrix(-0.777 -0.6295 0.6295 -0.777 303.2387 526.5765)" class="st13" width="30.35" height="17.87"/>
				</g>
				<g>
					<path class="st26" d="M248.99,227.77c-0.13,0-0.26-0.04-0.37-0.13l-14.24-11.54c-0.25-0.2-0.29-0.57-0.09-0.82
						c0.2-0.25,0.57-0.29,0.82-0.09l14.24,11.54c0.25,0.2,0.29,0.57,0.09,0.82C249.32,227.69,249.16,227.77,248.99,227.77z"/>
				</g>
			</g>
		</g>
		<g>
			<path class="st16" d="M234.06,205.44c-0.18,0-0.37-0.02-0.55-0.06c-15.96-3.64-26.54-10.46-31.44-20.27
				c-6.02-12.05-1.57-24.78,0.62-29.7c0.55-1.24,2.01-1.8,3.25-1.25c1.24,0.55,1.8,2.01,1.25,3.25c-1.91,4.27-5.79,15.32-0.71,25.49
				c4.21,8.42,13.67,14.37,28.13,17.67c1.33,0.3,2.15,1.62,1.85,2.95C236.2,204.67,235.19,205.44,234.06,205.44z"/>
		</g>
		<g>
			<path class="st15" d="M208.55,149.27c0.07,0.19-0.1,20.78-0.1,20.78c-2.5,2.23-9.52,2.87-12.09,0.94
				c-2.61-1.96,4.54-18.7,4.87-20.01L208.55,149.27z"/>
		</g>
	</g>
	<g>
		<g>
			
				<ellipse transform="matrix(0.6753 -0.7375 0.7375 0.6753 -154.7393 248.5743)" class="st8" cx="204.97" cy="300.04" rx="19.33" ry="23.05"/>
		</g>
		<g>
			<polygon class="st15" points="261.38,336.89 222.41,279.26 203.75,336.89 			"/>
		</g>
		<g>
			<path class="st27" d="M226.07,300.04c-0.83-4.69-3.13-9.03-6.34-12.53l-10.89,33.64C220.42,321.06,228.12,311.65,226.07,300.04z"
				/>
		</g>
		<g>
			<polygon class="st28" points="182.13,276.77 180.12,279.21 177.25,276.77 179.26,274.33 			"/>
		</g>
		<g>
			<polygon class="st28" points="186.22,299.95 184.21,302.39 181.34,299.95 183.35,297.51 			"/>
		</g>
		<g>
			<polygon class="st28" points="190.3,323.12 188.29,325.56 185.42,323.12 187.43,320.68 			"/>
		</g>
		<g>
			<path class="st28" d="M187.7,322.49c-0.32,0-0.61-0.23-0.67-0.56l-7.68-43.53c-0.06-0.37,0.18-0.72,0.55-0.79
				c0.36-0.07,0.72,0.18,0.79,0.55l7.68,43.53c0.07,0.37-0.18,0.72-0.55,0.79C187.78,322.48,187.74,322.49,187.7,322.49z"/>
		</g>
		<g>
			<g>
				<g>
					<g>
						<polygon class="st29" points="259.19,285.98 249.94,285.98 248.32,276.74 257.56,276.74 						"/>
					</g>
					<g>
						<polygon class="st15" points="270.13,285.98 260.89,285.98 259.26,276.74 268.5,276.74 						"/>
					</g>
				</g>
				<g>
					<g>
						<polygon class="st15" points="261.17,297.25 251.93,297.25 250.3,288.01 259.54,288.01 						"/>
					</g>
					<g>
						<polygon class="st29" points="272.12,297.25 262.88,297.25 261.25,288.01 270.49,288.01 						"/>
					</g>
				</g>
				<g>
					<g>
						<polygon class="st29" points="263.16,308.52 253.92,308.52 252.29,299.27 261.53,299.27 						"/>
					</g>
					<g>
						<polygon class="st15" points="274.1,308.52 264.86,308.52 263.23,299.27 272.47,299.27 						"/>
					</g>
				</g>
			</g>
		</g>
		<g>
			<polygon class="st30" points="276.81,313.9 252.59,313.9 252,310.61 276.23,310.61 			"/>
		</g>
	</g>
</g>
<g id="DESIGNED_BY_FREEPIK" class="st0">
	<g class="st31">
		<g id="XMLID_1_">
			<g id="XMLID_20_">
				<g id="XMLID_28_">
					<g>
						<g>
							<g>
								<g>
									<path class="st32" d="M260.1,465.47c-0.43,0.44-0.8,0.93-1.11,1.45l-0.47-0.24c-0.07-0.3-0.35-0.5-0.66-0.47
										c-0.33,0.04-0.57,0.34-0.53,0.67c0.04,0.33,0.34,0.57,0.67,0.53c0.07-0.01,0.13-0.03,0.18-0.05l0.45,0.23
										c-0.25,0.55-0.43,1.14-0.54,1.74l0.75,0.13c0.23-1.31,0.85-2.51,1.79-3.47L260.1,465.47z"/>
								</g>
							</g>
						</g>
					</g>
				</g>
				<g id="XMLID_27_">
					<g>
						<g>
							<g>
								<g>
									<path class="st32" d="M265.59,463.16c-0.17,0-0.34,0.01-0.51,0.02l-0.07-0.63c0.19-0.15,0.3-0.39,0.27-0.64
										c-0.05-0.39-0.4-0.67-0.8-0.63c-0.39,0.05-0.67,0.4-0.63,0.8c0.03,0.25,0.19,0.46,0.4,0.56l0.07,0.62
										c-0.71,0.12-1.4,0.33-2.06,0.65l0.33,0.68c0.93-0.45,1.94-0.67,3-0.67c0.5,0,0.99,0.05,1.48,0.16l0.16-0.74
										C266.69,463.22,266.14,463.16,265.59,463.16z"/>
								</g>
							</g>
						</g>
					</g>
				</g>
				<g id="XMLID_26_">
					<g>
						<g>
							<g>
								<g>
									<path class="st32" d="M272.19,465.71c0.33-0.04,0.57-0.34,0.53-0.67c-0.04-0.33-0.34-0.57-0.67-0.53
										c-0.31,0.04-0.54,0.3-0.53,0.61l-0.42,0.36c-0.42-0.43-0.89-0.81-1.41-1.14l-0.4,0.64c1.13,0.71,2.02,1.73,2.56,2.93
										l0.69-0.31c-0.25-0.55-0.57-1.07-0.94-1.55l0.4-0.35C272.06,465.72,272.13,465.72,272.19,465.71z"/>
								</g>
							</g>
						</g>
					</g>
				</g>
				<g id="XMLID_25_">
					<g>
						<g>
							<g>
								<g>
									<path class="st32" d="M265.04,473.37c-0.39,0.02-0.77,0.03-1.16,0.03c-0.88,0-1.73-0.06-2.48-0.18
										c-0.39-0.06-0.85-0.15-1.27-0.29c1.05,1.86,3.07,3.13,5.39,3.13c2.86,0,5.26-1.92,5.95-4.5c-0.68,0.45-1.51,0.83-2.46,1.12
										C267.84,473.05,266.46,473.29,265.04,473.37z"/>
								</g>
							</g>
						</g>
					</g>
				</g>
				<g id="XMLID_21_">
					<g>
						<g>
							<g>
								<g>
									<path class="st32" d="M265.59,464.68c-3.35,0-6.08,2.67-6.08,5.94c0,0.43,0.05,0.85,0.14,1.26
										c0.67,0.48,2.71,0.89,5.35,0.73c2.88-0.17,5.3-0.96,6.67-2.16c-0.01-0.19-0.02-0.39-0.05-0.58
										C271.24,466.91,268.65,464.68,265.59,464.68z M263.43,471.19c-1.02,0-1.85-0.83-1.85-1.85c0-1.02,0.83-1.85,1.85-1.85
										c1.02,0,1.85,0.83,1.85,1.85C265.28,470.36,264.45,471.19,263.43,471.19z M268.17,470.29c-0.75,0-1.36-0.61-1.36-1.36
										s0.61-1.36,1.36-1.36c0.75,0,1.36,0.61,1.36,1.36S268.92,470.29,268.17,470.29z"/>
								</g>
							</g>
						</g>
					</g>
				</g>
			</g>
			<g id="XMLID_18_">
				<g>
					<g>
						<g>
							<g>
								<path class="st32" d="M281.6,466.55c-0.29-0.12-0.81-0.31-1.38-0.24c-0.55,0.07-0.84,0.34-0.84,1.01v0.87h2.23v1.72h-2.23
									v5.45h-1.93v-5.45h-1.34v-1.72h1.34v-0.89c0-1.68,0.9-2.78,2.57-2.78c0.64,0,1.16,0.12,1.59,0.31L281.6,466.55z"/>
							</g>
						</g>
					</g>
				</g>
			</g>
			<g id="XMLID_16_">
				<g>
					<g>
						<g>
							<g>
								<path class="st32" d="M286.3,469.88c-0.18-0.03-0.36-0.05-0.53-0.05c-0.9,0-1.51,0.55-1.51,1.61v3.91h-1.93v-7.17h1.87v0.78
									c0.45-0.67,1.14-0.98,2.02-0.98c0.41,0,0.85,0.13,1.09,0.34L286.3,469.88z"/>
							</g>
						</g>
					</g>
				</g>
			</g>
			<g id="XMLID_13_">
				<g>
					<g>
						<g>
							<g>
								<path class="st32" d="M293.97,471.76c0,0.22-0.01,0.49-0.04,0.65h-5.08c0.21,1.04,0.93,1.49,1.84,1.49
									c0.62,0,1.3-0.25,1.81-0.69l1.13,1.24c-0.81,0.75-1.85,1.09-3.06,1.09c-2.2,0-3.72-1.5-3.72-3.75c0-2.26,1.48-3.8,3.63-3.8
									C292.54,467.99,293.96,469.52,293.97,471.76z M288.85,471.09h3.18c-0.18-0.92-0.73-1.44-1.56-1.44
									C289.55,469.65,289.02,470.2,288.85,471.09z"/>
							</g>
						</g>
					</g>
				</g>
			</g>
			<g id="XMLID_10_">
				<g>
					<g>
						<g>
							<g>
								<path class="st32" d="M301.62,471.76c0,0.22-0.01,0.49-0.04,0.65h-5.08c0.21,1.04,0.93,1.49,1.84,1.49
									c0.62,0,1.3-0.25,1.81-0.69l1.13,1.24c-0.81,0.75-1.85,1.09-3.06,1.09c-2.2,0-3.72-1.5-3.72-3.75c0-2.26,1.48-3.8,3.63-3.8
									C300.2,467.99,301.61,469.52,301.62,471.76z M296.5,471.09h3.18c-0.18-0.92-0.73-1.44-1.56-1.44
									C297.21,469.65,296.67,470.2,296.5,471.09z"/>
							</g>
						</g>
					</g>
				</g>
			</g>
			<g id="XMLID_7_">
				<g>
					<g>
						<g>
							<g>
								<path class="st32" d="M309.96,471.76c0,2.15-1.49,3.77-3.47,3.77c-0.96,0-1.64-0.38-2.11-0.93v3.71h-1.92v-10.13h1.89v0.79
									c0.47-0.58,1.15-0.98,2.14-0.98C308.47,467.99,309.96,469.61,309.96,471.76z M304.29,471.76c0,1.13,0.75,1.98,1.84,1.98
									c1.14,0,1.85-0.88,1.85-1.98c0-1.1-0.71-1.98-1.85-1.98C305.03,469.79,304.29,470.63,304.29,471.76z"/>
							</g>
						</g>
					</g>
				</g>
			</g>
			<g id="XMLID_4_">
				<g>
					<g>
						<g>
							<g>
								<path class="st32" d="M313.07,465.84c0,0.7-0.54,1.23-1.24,1.23c-0.7,0-1.23-0.53-1.23-1.23c0-0.7,0.53-1.24,1.23-1.24
									C312.53,464.59,313.07,465.14,313.07,465.84z M312.81,475.35h-1.93v-7.17h1.93V475.35z"/>
							</g>
						</g>
					</g>
				</g>
			</g>
			<g id="XMLID_2_">
				<g>
					<g>
						<g>
							<g>
								<path class="st32" d="M316.03,470.74l2.7-2.55h2.37l-3.48,3.38l3.5,3.8h-2.38l-2.72-2.9v2.9h-1.93V464.7h1.93V470.74z"/>
							</g>
						</g>
					</g>
				</g>
			</g>
		</g>
		<g>
			<g>
				<g>
					<g>
						<g>
							<g>
								<path class="st32" d="M184.41,475.29v-1.05c-0.53,0.72-1.39,1.23-2.39,1.23c-1.85,0-3.15-1.41-3.15-3.71
									c0-2.26,1.29-3.72,3.15-3.72c0.95,0,1.82,0.47,2.39,1.25v-3.76h1.1v9.77H184.41z M184.41,473.37v-3.21
									c-0.4-0.62-1.24-1.14-2.12-1.14c-1.42,0-2.27,1.17-2.27,2.74c0,1.57,0.85,2.72,2.27,2.72
									C183.17,474.48,184.02,473.99,184.41,473.37z"/>
							</g>
						</g>
					</g>
				</g>
			</g>
			<g>
				<g>
					<g>
						<g>
							<g>
								<path class="st32" d="M186.93,471.74c0-2.05,1.46-3.71,3.49-3.71c2.14,0,3.4,1.67,3.4,3.79v0.28h-5.73
									c0.09,1.33,1.03,2.45,2.55,2.45c0.81,0,1.63-0.32,2.18-0.89l0.53,0.72c-0.7,0.7-1.65,1.08-2.81,1.08
									C188.44,475.46,186.93,473.96,186.93,471.74z M190.4,468.95c-1.51,0-2.26,1.27-2.31,2.36h4.64
									C192.72,470.25,192.01,468.95,190.4,468.95z"/>
							</g>
						</g>
					</g>
				</g>
			</g>
			<g>
				<g>
					<g>
						<g>
							<g>
								<path class="st32" d="M194.61,474.35l0.57-0.79c0.47,0.54,1.36,1.01,2.33,1.01c1.08,0,1.67-0.51,1.67-1.22
									c0-1.71-4.38-0.66-4.38-3.28c0-1.1,0.95-2.04,2.64-2.04c1.2,0,2.05,0.45,2.62,1.03l-0.51,0.76
									c-0.42-0.51-1.2-0.89-2.11-0.89c-0.97,0-1.57,0.48-1.57,1.11c0,1.55,4.38,0.53,4.38,3.28c0,1.19-0.95,2.14-2.78,2.14
									C196.31,475.46,195.32,475.11,194.61,474.35z"/>
							</g>
						</g>
					</g>
				</g>
			</g>
			<g>
				<g>
					<g>
						<g>
							<g>
								<path class="st32" d="M201.48,466.47c0-0.41,0.34-0.75,0.73-0.75c0.41,0,0.75,0.34,0.75,0.75c0,0.41-0.34,0.73-0.75,0.73
									C201.81,467.2,201.48,466.88,201.48,466.47z M201.67,475.29v-7.07h1.1v7.07H201.67z"/>
							</g>
						</g>
					</g>
				</g>
			</g>
			<g>
				<g>
					<g>
						<g>
							<g>
								<path class="st32" d="M204.58,477.11l0.56-0.82c0.59,0.7,1.29,0.97,2.3,0.97c1.17,0,2.27-0.57,2.27-2.12v-1.01
									c-0.51,0.72-1.38,1.26-2.37,1.26c-1.85,0-3.15-1.38-3.15-3.66c0-2.27,1.29-3.68,3.15-3.68c0.95,0,1.8,0.47,2.37,1.25v-1.07
									h1.1v6.87c0,2.34-1.64,3.08-3.37,3.08C206.24,478.16,205.42,477.93,204.58,477.11z M209.71,473.25v-3.09
									c-0.38-0.62-1.23-1.14-2.11-1.14c-1.42,0-2.27,1.13-2.27,2.7c0,1.55,0.85,2.7,2.27,2.7
									C208.48,474.41,209.33,473.87,209.71,473.25z"/>
							</g>
						</g>
					</g>
				</g>
			</g>
			<g>
				<g>
					<g>
						<g>
							<g>
								<path class="st32" d="M217.41,475.29v-4.63c0-1.24-0.63-1.64-1.58-1.64c-0.86,0-1.68,0.53-2.09,1.1v5.17h-1.1v-7.07h1.1
									v1.03c0.5-0.59,1.46-1.2,2.52-1.2c1.48,0,2.26,0.75,2.26,2.29v4.97H217.41z"/>
							</g>
						</g>
					</g>
				</g>
			</g>
			<g>
				<g>
					<g>
						<g>
							<g>
								<path class="st32" d="M219.93,471.74c0-2.05,1.46-3.71,3.49-3.71c2.14,0,3.4,1.67,3.4,3.79v0.28h-5.73
									c0.09,1.33,1.03,2.45,2.55,2.45c0.81,0,1.63-0.32,2.18-0.89l0.53,0.72c-0.7,0.7-1.66,1.08-2.81,1.08
									C221.44,475.46,219.93,473.96,219.93,471.74z M223.4,468.95c-1.51,0-2.26,1.27-2.31,2.36h4.64
									C225.72,470.25,225.02,468.95,223.4,468.95z"/>
							</g>
						</g>
					</g>
				</g>
			</g>
			<g>
				<g>
					<g>
						<g>
							<g>
								<path class="st32" d="M233.35,475.29v-1.05c-0.53,0.72-1.39,1.23-2.39,1.23c-1.85,0-3.15-1.41-3.15-3.71
									c0-2.26,1.29-3.72,3.15-3.72c0.95,0,1.82,0.47,2.39,1.25v-3.76h1.1v9.77H233.35z M233.35,473.37v-3.21
									c-0.4-0.62-1.25-1.14-2.12-1.14c-1.42,0-2.27,1.17-2.27,2.74c0,1.57,0.85,2.72,2.27,2.72
									C232.1,474.48,232.95,473.99,233.35,473.37z"/>
							</g>
						</g>
					</g>
				</g>
			</g>
			<g>
				<g>
					<g>
						<g>
							<g>
								<path class="st32" d="M239.69,475.29v-9.77h1.1v3.76c0.57-0.78,1.42-1.25,2.39-1.25c1.85,0,3.15,1.46,3.15,3.72
									c0,2.3-1.3,3.71-3.15,3.71c-1,0-1.86-0.51-2.39-1.23v1.05H239.69z M242.9,474.48c1.44,0,2.29-1.16,2.29-2.72
									c0-1.57-0.85-2.74-2.29-2.74c-0.86,0-1.73,0.53-2.11,1.14v3.21C241.17,473.99,242.04,474.48,242.9,474.48z"/>
							</g>
						</g>
					</g>
				</g>
			</g>
			<g>
				<g>
					<g>
						<g>
							<g>
								<path class="st32" d="M247.53,477.06c0.16,0.07,0.43,0.12,0.6,0.12c0.48,0,0.81-0.16,1.05-0.75l0.47-1.07l-2.96-7.15h1.19
									l2.36,5.8l2.34-5.8h1.2l-3.54,8.51c-0.42,1.03-1.14,1.42-2.08,1.44c-0.23,0-0.6-0.04-0.81-0.1L247.53,477.06z"/>
							</g>
						</g>
					</g>
				</g>
			</g>
		</g>
	</g>
</g>
</svg>
