<svg id="Capa_1" enable-background="new 0 0 512 512" height="512" viewBox="0 0 512 512" width="512" xmlns="http://www.w3.org/2000/svg"><path d="m472.387 468.076h-180.755c-1.42-2.897-2.515-5.943-3.288-9.076h152.545c8.642 0 15.673-7.031 15.673-15.673v-29.482l23.514-5.366c8.321-1.9 13.547-10.216 11.648-18.537l-.56-2.455c-7.413-32.482-39.869-52.876-72.353-45.467l-152.018 34.691v-154.823c0-8.398-6.236-15.348-14.317-16.512v-126.336c0-11.14-9.063-20.203-20.204-20.203h-12.958v-1.908-8.062-11.414-17.25c0-11.14-9.064-20.203-20.204-20.203h-16.979c-11.14 0-20.203 9.063-20.203 20.203v184.982h-8.764v-86.797c0-8.286-6.741-15.026-15.026-15.026h-21.42v-13.599c0-4.137-3.354-7.491-7.491-7.491s-7.491 3.353-7.491 7.491v16.267c-3.922 2.714-6.5 7.238-6.5 12.358v86.797h-20.923v-176.492c0-7.561 6.151-13.711 13.712-13.711 7.56 0 13.711 6.15 13.711 13.711v28.904c0 4.137 3.354 7.491 7.491 7.491s7.491-3.353 7.491-7.491v-28.904c-.001-15.821-12.873-28.693-28.694-28.693s-28.693 12.872-28.693 28.693v7.877c-13.815.687-24.842 12.142-24.842 26.123v60.947c0 3.921-3.19 7.111-7.112 7.111-4.137 0-7.491 3.353-7.491 7.491s3.354 7.491 7.491 7.491c12.182 0 22.093-9.91 22.093-22.092v-60.948c0-5.717 4.317-10.437 9.861-11.091v153.583h-1.188c-9.21 0-16.703 7.493-16.703 16.703v231.623c0 4.137 3.354 7.491 7.491 7.491s7.491-3.353 7.491-7.491v-231.623c0-.949.772-1.721 1.722-1.721h191.946c.949 0 1.722.772 1.722 1.721v158.241l-56.476 12.888c-8.321 1.899-13.547 10.215-11.648 18.535l.56 2.457c2.521 11.046 7.965 20.93 15.707 28.815v26.26c-7.703 2.576-13.277 9.845-13.277 18.403v5.098c0 1.527.195 3.006.53 4.432h-93.326c-12.971 0-24.839-6.567-31.749-17.567-2.2-3.503-6.824-4.562-10.327-2.358-3.503 2.2-4.559 6.823-2.359 10.327 9.668 15.392 26.279 24.581 44.435 24.581h378.505c10.705 0 19.414-8.709 19.414-19.413v-5.098c0-10.705-8.709-19.413-19.414-19.413zm-295.478-411.147v-8.062-3.923h27.423v3.923 8.062 5.164c-2.665 1.73-4.891 4.069-6.494 6.821h-20.929zm60.585 50.774v8.062 11.985h-27.423v-11.985-8.062-3.923h27.423zm-27.423 35.028h27.423v62.454h-27.423zm27.423-63.691v9.759h-27.423v-9.759c0-2.879 2.343-5.222 5.222-5.222h16.979c2.88 0 5.222 2.342 5.222 5.222zm-55.363-64.059h16.979c2.88 0 5.222 2.343 5.222 5.222v9.759h-27.423v-9.759c0-2.879 2.343-5.222 5.222-5.222zm-5.222 68.914h18.181v12.395 11.413 8.062 19.476 69.945h-18.181zm-66.647 34.449 27.92.045v86.797h-27.962zm132.779 342.668c4.51 0 9.055-.508 13.56-1.536l15.92-3.633c.539 4.173 1.517 8.273 2.902 12.232h-60.487v-14.081c8.744 4.637 18.347 7.018 28.105 7.018zm-44.187-50.335-.56-2.456c-.061-.269.108-.537.376-.598l223.474-50.997c24.43-5.577 48.84 9.765 54.415 34.194l.56 2.454c.061.269-.108.538-.376.599l-54.118 12.349c-4.034.921-6.557 4.936-5.636 8.97s4.937 6.554 8.969 5.637l15.624-3.565v26.063c0 .381-.31.691-.692.691h-116.553l70.48-16.083c4.034-.921 6.557-4.936 5.637-8.97-.921-4.033-4.935-6.551-8.969-5.636l-138.217 31.541c-11.834 2.698-24.011.63-34.289-5.828-10.277-6.458-17.424-16.531-20.125-28.365zm277.965 81.91c0 2.444-1.988 4.432-4.432 4.432h-258.037-8.259c-2.444 0-4.432-1.988-4.432-4.432v-5.098c0-2.444 1.988-4.432 4.432-4.432h266.296c2.444 0 4.432 1.988 4.432 4.432z"/></svg>