<?xml version="1.0" encoding="utf-8"?>
<!-- Generator: Adobe Illustrator 23.1.0, SVG Export Plug-In . SVG Version: 6.00 Build 0)  -->
<svg version="1.1" xmlns="http://www.w3.org/2000/svg" xmlns:xlink="http://www.w3.org/1999/xlink" x="0px" y="0px"
	 viewBox="0 0 2757.9 2738.6" style="enable-background:new 0 0 2757.9 2738.6;" xml:space="preserve">
<style type="text/css">
	.st0{display:none;}
	.st1{display:inline;}
	.st2{fill:#FFFFFF;}
	.st3{display:none;fill:#F4F7FA;}
	.st4{clip-path:url(#SVGID_2_);fill:#A87CF2;}
	.st5{opacity:0.5;clip-path:url(#SVGID_2_);}
	.st6{fill:#BEB8F2;}
	.st7{fill:#6332DF;}
	.st8{opacity:0.5;clip-path:url(#SVGID_4_);}
	.st9{fill:#FCFDFE;}
	.st10{fill:#F49390;}
	.st11{opacity:0.5;clip-path:url(#SVGID_6_);}
	.st12{fill:#97A6B7;}
	.st13{fill:#D8DEE8;}
	.st14{fill:#B395F0;}
	.st15{fill:#CAC2ED;}
	.st16{fill:url(#SVGID_7_);}
	.st17{fill:#F4F7FA;}
	.st18{fill:url(#SVGID_8_);}
	.st19{fill:#18093C;}
	.st20{fill:url(#SVGID_9_);}
	.st21{fill:#26264F;}
	.st22{fill:url(#SVGID_10_);}
	.st23{fill:url(#SVGID_11_);}
	.st24{opacity:0.48;fill:#FFFFFF;}
	.st25{fill:#2B1B5B;}
	.st26{fill:#FFB27D;}
	.st27{opacity:0.3;fill:#18093C;}
	.st28{fill:#7F50E7;}
	.st29{fill:#A477F2;}
	.st30{fill:#C67575;}
	.st31{fill:#163560;stroke:#6B3976;stroke-miterlimit:10;}
	.st32{fill:#163560;}
	.st33{fill:#F36F56;}
</style>
<g id="Background" class="st0">
	<g class="st1">
		<g>
			<rect x="-455.8" y="-493.5" class="st2" width="3710" height="3710"/>
		</g>
	</g>
</g>
<g id="Illustration">
	<g>
		<path class="st3" d="M669.3,129.8c-94.4,135.2,16.3,354.4-123.8,456c-136.4,99-304-63.3-432.5,21.9
			C-77.7,734.2-42.9,1312.4,235.9,1671.7c83.8,108.1,153.9,150.1,184.9,272.3c66.6,262.4-167.5,418.5-123,548.3
			c100.3,292.2,1643.4,537.4,2262.5-340.8c289.2-410.2,332.4-1002.4,74.1-1452.2C2167.6-113.6,881.2-173.5,669.3,129.8z"/>
		<g>
			<g>
				<defs>
					<path id="SVGID_1_" d="M1121.6,1576.5l197.5-95c0,0-11.5-119.2-94.3-167.4c-168.9-98.4-70.9-239.4-38.7-304.7
						c48.5-98.3,48.4-206.2-84.4-189.3c-132.8,16.9-103.1-215.8-1.8-363.3C1199,312.4,999.6,52.9,756.3,345.7
						C611.1,520.5,735.2,704,775.9,811.6c40.7,107.5-108.8,189.9,4.4,290.8c96.7,86.1,219.7,123.7,190.3,229
						C941.1,1436.7,974.3,1523,1121.6,1576.5z"/>
				</defs>
				<clipPath id="SVGID_2_">
					<use xlink:href="#SVGID_1_"  style="overflow:visible;"/>
				</clipPath>
				<path class="st4" d="M1121.6,1576.5l197.5-95c0,0-11.5-119.2-94.3-167.4c-168.9-98.4-70.9-239.4-38.7-304.7
					c48.5-98.3,45-193.6-73.2-199.6c-133.7-6.8-114.3-205.5-13-353C1199,312.4,999.6,52.9,756.3,345.7
					C611.1,520.5,735.2,704,775.9,811.6c40.7,107.5-108.8,189.9,4.4,290.8c96.7,86.1,219.7,123.7,190.3,229
					C941.1,1436.7,974.3,1523,1121.6,1576.5z"/>
				<g class="st5">
					<path class="st6" d="M1215.9,1553.7l3.7-2.7c-1.7-2.3-169.7-234.8-266.8-515.5c-89.5-258.6-135.3-612.3,154.6-828.4l-2.8-3.7
						c-129,96.2-203.4,227.2-221.1,389.3c-14.1,129.5,7.7,279,64.9,444.4C1045.8,1318.4,1214.2,1551.4,1215.9,1553.7z"/>
					<path class="st6" d="M879,660.7l3.9-2.5c-83.4-129.5-125-350.3-125.4-352.5l-4.5,0.8C753.4,308.8,795.2,530.5,879,660.7z"/>
					<path class="st6" d="M893.8,553c98.3-154.9,249.6-176,251.1-176.2l-0.6-4.6c-1.5,0.2-154.9,21.5-254.4,178.3L893.8,553z"/>
					<path class="st6" d="M1026.2,1215.5c-47.9-219,196.3-395.7,198.8-397.3l-2.1-4.1c-2.6,1.3-249.5,181.4-201.2,402.4
						L1026.2,1215.5z"/>
					<path class="st6" d="M984.9,1132.9l3.7-2.8C901.6,1016.5,723,995.4,721.2,995.2l-0.5,4.6C722.5,1000,899.2,1020.8,984.9,1132.9
						z"/>
					<path class="st6" d="M1194,1513.8c-30.8-79.4,49.3-192.5,50.1-193.6l-3.8-2.7c-3.4,4.7-82.4,116.3-50.7,198L1194,1513.8z"/>
					<path class="st6" d="M1153.4,1459.3l3.8-2.7c-39-54.9-161.4-78.1-201.7-85.7c-5.7-1.1-10.6-2-11.4-2.3l-1.8,4.3
						c1.2,0.5,4.4,1.1,12.4,2.6C994.5,1383,1115.5,1405.9,1153.4,1459.3z"/>
				</g>
			</g>
			<g>
				<path class="st7" d="M926.1,1382.3c67.6,2.5,75.3,62.2,97.3,104.9c-3.2,5.7-3.6,9.7-5.6,16.1c-17.7,57.8-37.5,78.7-63.9,132.9
					c-5.7,11.7-32.8,40.9-44.6,52.1l-22.4,20.6c0,0-153.8-24.8-149.4-113.3c4.4-88.5-138.7-130.6-211.8-162.2
					c-44.9-19.4-59.2-42.7-74.5-52.4c-162.4-103.5-240.3-80.6-272.4-146.7c-35.5-73,49.4-121.7,15-203.1
					C155,939.2,20.7,939.7,3.4,844.5c-3-16.3-5.6-33.2-0.7-54.8c12.1-53.3,59.5-75.6,40.1-129.2C3.8,552.6,37.9,430,154.1,408.3
					C268.9,387,380.7,547.8,396.3,806.8c32.1,182.9,62.3,201.7,144.3,232.7c57.5,21.7,227.6,42.6,239.2,149.2
					C791.4,1295.2,848.8,1379.5,926.1,1382.3z"/>
				<g>
					<defs>
						<path id="SVGID_3_" d="M1047.5,1543.9L894,1707.3c0,0-160.9-23.1-156.5-111.6c4.4-88.5-138.7-130.6-211.8-162.2
							c-198.2-85.8-57.1-292.8-301.5-424.4c-65-35-202.2-78.7-220.8-164.6c-21.1-97.8,64.4-115,39.4-184
							C3.8,552.6,37.9,430,154.1,408.3C268.9,387,380.7,547.8,396.3,806.8c32.1,182.9,62.3,201.7,144.3,232.7
							c57.5,21.7,227.6,42.6,239.2,149.2c11.6,106.6,38.1,197.5,115.4,200.4C1012.8,1393.3,1047.5,1543.9,1047.5,1543.9z"/>
					</defs>
					<clipPath id="SVGID_4_">
						<use xlink:href="#SVGID_3_"  style="overflow:visible;"/>
					</clipPath>
					<g class="st8">
						<path class="st9" d="M971.6,1610.2l-2.6,3.6c-19.9-14.4-39.7-29.2-59-43.9c-142.7-109.2-269.2-228.8-376-355.4
							c-90.4-107.3-168-221.2-230.5-338.4c-50.3-94.3-91.1-191.3-121.4-288.3c-21.3-68.2-37.2-135.7-47.3-200.6
							c-1.8-11.3-2.9-23-4-34.4c-1.5-15.1-3-30.7-6-45.5l4.2-1.2c3,15,4.6,30.7,6.1,45.9c1.1,11.3,2.3,22.9,4,34.1
							c10,64.7,25.9,132,47.1,200c30.2,96.8,71,193.5,121.1,287.6c62.4,117,139.8,230.6,230,337.7
							c106.6,126.4,232.9,245.8,375.4,354.8C931.9,1581.1,951.7,1595.8,971.6,1610.2z"/>
						<path class="st9" d="M389.3,1012.7l-3.5,2.7C284.6,869.3-11.8,790.7-14.8,789.9l1.3-4.2C-10.5,786.5,287.4,865.5,389.3,1012.7
							z"/>
						<path class="st9" d="M709.5,1393.4l-3.2,3c-80.8-90.2-44-332.9-43.6-335.4l4.2,0.4C666.5,1063.9,630,1304.6,709.5,1393.4z"/>
						<path class="st9" d="M760,1440.2l-2.7,3.5c-62.9-47.7-176.5-76.6-319.7-81.4c-7.2-0.2-7.2-0.2-7.8-0.7l2.7-3.6l-1.3,1.8
							l0.6-2.1c0.5,0.1,3.2,0.2,6.3,0.3C582.1,1362.9,696.5,1392.1,760,1440.2z"/>
						<path class="st9" d="M935.7,1583.4l-3.5,2.7c-50.1-71.6-10.5-203.4-10.1-204.7l4.1,1C925.7,1383.6,886.8,1513.4,935.7,1583.4z
							"/>
						<path class="st9" d="M968.5,1616.1c-68.7-17.9-146.3-16-237.1,5.9l-0.7-4.2c91.5-22.1,169.7-24,239.1-5.9L968.5,1616.1z"/>
						<path class="st9" d="M204.9,642.9l-3.7,2.5c-51.5-84.7-126-160.1-150.4-184.9c-5.9-6-8-8.1-8.6-9l3.6-2.6
							c0.5,0.7,3.8,4.1,8.1,8.4C78.5,482.2,153.1,557.8,204.9,642.9z"/>
						<path class="st9" d="M267.6,794.9l-4.1,1.3c-22-92.2,78.7-263.7,83-271l3.6,2C349,529,246,704.4,267.6,794.9z"/>
					</g>
				</g>
			</g>
			<g>
				<path class="st10" d="M1003.4,1381c-7.1,8.7,38.7,41.3-41.1,29.6c-19.9-2.9,46.5-68.6,0,0c-9,13.3-182-82-191-68.7
					c-37.9-7.5-72.3-21.5-58.1-70.2c22-75.5-85-142.7-134.3-148.3c-61-6.9-202.5-25.9-170.2-143.1c26.9-97.6,63.6-156.1-34-223.4
					c-97.6-67.3-124.5-163.6-58-256.3c69.9-97.5-6.6-258.8,88.5-315.6C570.8,85.9,711.8,352.6,666,567.8
					c-45.7,215.2,78,151,163.9,196.6c7.7,4.7,19.4,12.5,31.3,24.4c73.6,73.1,32.3,171.9,62.3,280
					C964.6,1216.2,1015.4,1366.3,1003.4,1381z"/>
				<g>
					<defs>
						<path id="SVGID_5_" d="M940.4,1129.4l-140.2,219.8c-37.8-5.6-103-23.1-87.1-77.4c22-75.5-85-142.7-134.3-148.3
							c-61-6.9-202.5-25.9-170.2-143.1c26.9-97.6,63.6-156.1-34-223.4c-97.6-67.3-124.5-163.6-58-256.3
							c69.9-97.5-6.6-258.8,88.5-315.6C570.8,85.9,711.8,352.6,666,567.8c-45.7,215.2,78,151,163.9,196.6
							c117.2,62.3-7.6,208,10.3,277.3C854.2,1096.1,906.2,1119.2,940.4,1129.4z"/>
					</defs>
					<clipPath id="SVGID_6_">
						<use xlink:href="#SVGID_5_"  style="overflow:visible;"/>
					</clipPath>
					<g class="st11">
						<path class="st9" d="M841.5,1212.5l-3.9,4.1C554.9,947.8,410.4,533.7,460.5,135.9l5.4,0.4C416,532.4,559.9,944.7,841.5,1212.5
							z"/>
						<path class="st9" d="M700.5,1051.8l-3,4.8c-130.8-80.1-307-25.1-308.8-24.6l-1.4-5.3C389.1,1026.2,567.6,970.4,700.5,1051.8z"
							/>
						<path class="st9" d="M790.9,1161.5l-4.8,2.9c-75-137.6,68.2-400.4,69.7-403.1l4.7,2.5C859,766.4,717.3,1026.6,790.9,1161.5z"
							/>
						<path class="st9" d="M524.3,708.6l-4.6,3.3c-68.8-103-259-128-261-128.2l1-5.5C261.7,578.4,454.3,603.7,524.3,708.6z"/>
						<path class="st9" d="M466.9,462.2l-5.5,0.1c4.9-145.6,144.4-290.2,145.9-291.7l3.8,3.8C609.7,175.8,471.8,318.9,466.9,462.2z"
							/>
					</g>
				</g>
			</g>
		</g>
		<g>
			<g>
				<g>
					<path class="st12" d="M2614.1,1954.9l-56.3,0.1c-3.9-37.2-12.8-72.9-26.1-106.4l47.6-27.6c13-7.5,17.5-24.6,10-38.1l-20-36
						c-7.5-13.6-24.3-18.6-37.4-11.1l-47,26.7c-21.9-30.7-48-58.3-77.6-82.1l27-46.5c7.8-13.3,3.2-30.9-10.3-39.2l-36-22.3
						c-13.6-8.4-31.1-4.5-39,9l-27.1,46c-34.8-16.2-72.5-27.9-112.1-34.2v-54.5c0-16.1-13.2-29.7-29.6-30.5l-43.8-2
						c-16.6-0.8-30.1,11.8-30.1,28.1v55.1c-40.9,3.4-80.4,12.6-117.4,26.8l-29.3-49.8c-8.6-14.6-27.7-20.3-42.7-12.6l-40.1,20.6
						c-15.2,7.8-20.4,26.1-11.6,40.8l30.3,51c-33.2,23.5-62.8,51.5-87.9,83.4l-54.8-31c-15.5-8.8-35.5-4.2-44.5,10.2l-24.1,38.6
						c-9.1,14.6-3.7,33.5,12,42.2l56.7,31.4c-15.7,36.2-26.4,75.1-31,115.7l-68,0.1c-18.3,0-33.2,13.9-33.2,31v45.4
						c0,17.1,14.9,30.8,33.2,30.5l69.8-0.9c5.9,39.6,17.5,77.4,34.1,112.4l-61.7,35c-15.7,8.9-21.1,27.9-12,42.3l24.1,38.3
						c9,14.3,29,18.6,44.5,9.6l62.4-36.2c24.9,29.5,53.9,55.4,86,76.9l-36,61c-8.8,14.9-3.6,33.1,11.6,40.6l40.1,20
						c15,7.5,34.1,1.5,42.7-13.2l35.7-61.2c35.2,12.4,72.5,20.3,111,23v68.3c0,16.3,13.5,28.6,30.1,27.6l43.8-2.6
						c16.4-1,29.6-14.8,29.6-30.9v-67.5c37.4-6.4,73-17.6,106.2-32.8l33.1,55.6c7.9,13.3,25.4,17,39,8.4l36-22.8
						c13.5-8.5,18.1-26.1,10.3-39.4l-32.1-54.7c28.7-22.7,54.3-49.1,76.1-78.2l53.6,29.6c13.1,7.3,29.9,2.1,37.4-11.6l20-36.3
						c7.5-13.6,3.1-30.5-10-37.9l-51.8-29.3c14-32.9,23.8-67.9,28.8-104.4l57.8-0.7c14.9-0.2,27-12.8,27-28.1v-40.8
						C2641.1,1967.3,2629,1954.9,2614.1,1954.9z M2158.3,2290.9c-166.6,6.2-306-123.1-306-289c0-165.9,139.4-297,306-292.9
						c161,3.9,287.5,133.3,287.5,289.1C2445.7,2153.9,2319.2,2285,2158.3,2290.9z"/>
					<polygon class="st12" points="1971.8,1551.6 1931.7,1550.2 1917.9,1586.2 					"/>
					<polygon class="st12" points="2369.5,1568.2 2415.7,1568.7 2415.7,1602.8 					"/>
					<polygon class="st12" points="2545.7,1732.8 2591.8,1734.6 2580.3,1760.4 					"/>
					<polygon class="st12" points="2618.1,1955.4 2664.6,1959.1 2649.4,1981.7 					"/>
					<polygon class="st12" points="2540.6,2274.9 2585.8,2281.3 2591.4,2244.4 					"/>
					<polygon class="st12" points="2367.8,2441.3 2408.4,2448.6 2411.6,2418.7 					"/>
					<polygon class="st12" points="2165,2513.2 2128.5,2506.7 2159.9,2460.2 					"/>
					<polygon class="st12" points="1967.7,2474 1925.3,2465.2 1958,2425.6 					"/>
					<polygon class="st12" points="1729.4,1714.3 1773.6,1715.7 1756.1,1748 					"/>
					<polygon class="st12" points="1641.3,2061.4 1681.9,2067.4 1678.7,2034.2 					"/>
					<polygon class="st12" points="1728.4,2304.4 1768.1,2310.8 1771.3,2284.5 					"/>
				</g>
				<path class="st13" d="M2659.6,1958.6l-56.8,0.1c-3.9-37.5-12.9-73.5-26.3-107.3l48-27.8c13.1-7.6,17.6-24.8,10-38.4l-20.2-36.3
					c-7.6-13.7-24.5-18.7-37.8-11.2l-47.4,26.9c-22.1-30.9-48.4-58.8-78.2-82.8l27.3-46.8c7.8-13.4,3.2-31.1-10.4-39.5l-36.3-22.5
					c-13.7-8.5-31.3-4.5-39.3,9l-27.3,46.4c-35.1-16.4-73.1-28.2-113.1-34.5v-55c0-16.2-13.3-30-29.8-30.7l-44.2-2
					c-16.7-0.8-30.3,11.9-30.3,28.3v55.6c-41.3,3.4-81,12.7-118.4,27.1l-29.5-50.2c-8.7-14.8-27.9-20.5-43-12.7l-40.4,20.7
					c-15.3,7.8-20.5,26.3-11.7,41.1l30.6,51.4c-33.4,23.6-63.3,51.9-88.7,84l-55.3-31.3c-15.7-8.9-35.8-4.3-44.9,10.3l-24.3,38.9
					c-9.2,14.7-3.7,33.7,12.1,42.5l57.2,31.6c-15.9,36.5-26.6,75.7-31.2,116.6l-68.6,0.1c-18.5,0-33.5,14-33.5,31.3v45.8
					c0,17.2,15,31,33.5,30.8l70.4-0.9c5.9,40,17.7,78,34.4,113.4l-62.2,35.3c-15.9,9-21.3,28.1-12.1,42.7l24.3,38.6
					c9.1,14.5,29.2,18.8,44.9,9.7l62.9-36.5c25.1,29.7,54.3,55.8,86.8,77.5l-36.2,61.5c-8.8,15-3.6,33.4,11.7,41l40.4,20.1
					c15.1,7.5,34.4,1.5,43-13.3l36-61.7c35.5,12.5,73.1,20.5,112,23.2v68.8c0,16.4,13.6,28.9,30.3,27.9l44.2-2.6
					c16.5-1,29.8-14.9,29.8-31.1v-68.1c37.7-6.5,73.6-17.7,107.1-33.1l33.4,56.1c8,13.4,25.6,17.2,39.3,8.5l36.3-23
					c13.6-8.6,18.2-26.4,10.4-39.7l-32.4-55.2c29-22.9,54.8-49.5,76.7-78.8l54,29.9c13.3,7.3,30.2,2.1,37.8-11.7l20.2-36.6
					c7.6-13.7,3.1-30.8-10-38.2l-52.2-29.5c14.1-33.2,24-68.5,29-105.3l58.3-0.7c15-0.2,27.2-12.9,27.2-28.4v-41.1
					C2686.8,1971.1,2674.6,1958.6,2659.6,1958.6z M2200,2297.3c-168,6.2-308.6-124.1-308.6-291.4c0-167.2,140.6-299.4,308.6-295.3
					c162.3,3.9,289.8,134.4,289.8,291.5C2489.8,2159.2,2362.3,2291.3,2200,2297.3z"/>
			</g>
		</g>
		<g>
			<path class="st7" d="M1951.6,1810.3c-36.5,1.1-72.1-8.1-103-26.6c-94-56.3-232.8-149.4-357.8-271.1
				c-158.5-154.5-249.6-311.6-269.5-465.9l-0.3-2.4l-3.9-658.2c0-130.1,84.8-235.7,244.1-305c131.6-57.3,306-85.7,490.3-80.4
				c182.1,5.3,350.7,42.9,475.4,105.5c148.3,74.4,226.1,179,226.1,303.1l-3.5,628.9l-0.3,2.3c-18.2,147.7-102,300.4-250.1,454.8
				c-118.8,123.8-253,222-345.2,282.8C2023.4,1798.1,1988.1,1809.3,1951.6,1810.3z"/>
			<path class="st14" d="M1987.8,1810.3c-36,1.1-71.2-8.1-101.6-26.6c-92.7-56.3-229.8-149.4-353-271.1
				c-156.4-154.5-246.3-311.6-266-465.9l-0.3-2.4l-3.8-658.2c0-130.1,83.7-235.7,240.9-305c129.9-57.3,302-85.7,483.8-80.4
				c179.7,5.3,346,42.9,469.1,105.5c146.3,74.4,223.1,179,223.1,303.1l-3.5,628.9l-0.3,2.3c-18,147.7-100.7,300.4-246.8,454.8
				c-117.2,123.8-249.7,222-340.7,282.8C2058.6,1798.1,2023.7,1809.3,1987.8,1810.3z"/>
			<path class="st15" d="M1306.5,386.5l3.8,654.9c43.1,334.1,435.8,604.6,606.8,707.4c49,29.4,111.6,27.7,160.3-4.3
				c167.5-110.2,538.6-387.6,578.3-708.8l3.5-627.2C2659.2-56.8,1306.5-99.3,1306.5,386.5z"/>
			<linearGradient id="SVGID_7_" gradientUnits="userSpaceOnUse" x1="1436.1692" y1="905.2943" x2="2539.3503" y2="905.2943">
				<stop  offset="0" style="stop-color:#311944"/>
				<stop  offset="1" style="stop-color:#A87CF2"/>
			</linearGradient>
			<path class="st16" d="M1997.5,1647.9c-3.1,0.1-7.9-0.4-12.7-3.4c-70.4-42.6-206.9-132-325.7-248.6
				c-128.3-126-202.2-248.5-219.2-363.6l-3.8-644c0.2-61.8,49.1-114.7,145-157c107-47.2,259-72,416.4-68.3
				c155.8,3.7,303.3,35.1,405.6,85.8c90.4,44.9,136.2,97.8,136.3,157.4l-3.5,621.7c-15.8,111.3-85.3,231.4-207.2,357.5
				c-114.6,118.6-248.5,212.7-318.5,258.4C2005.4,1647.1,2000.6,1647.8,1997.5,1647.9z"/>
			<path class="st17" d="M1981.4,1603.9c-71.1-43.8-197.6-128.4-307.9-237c-120.5-118.6-190.3-232.5-206.7-337.8l-3.7-640.3
				c0.1-44.2,40.7-84.7,120.4-120c101.4-44.9,246.7-68.6,397.9-65.2c149.8,3.4,291,33,388.1,81c75.4,37.3,113.5,78,113.6,121.1
				l-3.5,619.4c-15.4,102.2-81.2,214-196.2,332.8C2176.5,1468.4,2052.2,1557.1,1981.4,1603.9z"/>
			<g>
				<linearGradient id="SVGID_8_" gradientUnits="userSpaceOnUse" x1="1690.1971" y1="983.3548" x2="2297.0947" y2="983.3548">
					<stop  offset="0" style="stop-color:#6332DF"/>
					<stop  offset="1" style="stop-color:#A87CF2"/>
				</linearGradient>
				<path class="st18" d="M2235.9,765.6l-478.9,4.3c-36.8,0.3-66.8,29-66.8,64.1v306.8c0,34.8,29.9,61.9,66.6,60.4l477.2-19.5
					c33.9-1.4,61.5-29.5,61.6-62.8l1.5-293.1C2297.3,792.2,2269.9,765.3,2235.9,765.6z"/>
				<path class="st19" d="M2062,941.5c0.1-33.9-29-60.7-64.5-58.4c-31.4,2-57.5,27.4-59.3,57.9c-1.4,23.6,11.4,44.1,30.9,54.5
					c8.3,4.4,12.4,13.7,10.7,22.8l-13.8,77.5c-1.8,9.9,6.1,18.5,16.4,18.2l35-1.2c10.2-0.4,18-9.5,16.3-19.2l-13.4-76.8
					c-1.6-9.2,3.1-18.3,11.4-23.2C2049.8,982.6,2061.9,963.3,2062,941.5z"/>
				<linearGradient id="SVGID_9_" gradientUnits="userSpaceOnUse" x1="1736.4448" y1="601.827" x2="2255.5496" y2="601.827">
					<stop  offset="0" style="stop-color:#6332DF"/>
					<stop  offset="1" style="stop-color:#A87CF2"/>
				</linearGradient>
				<path class="st20" d="M2229.1,735.1c-14.4,0.1-26-11.3-25.9-25.5l0.3-66.8c0.3-67.1-55.2-122.3-124.4-123l-156.3-1.6
					c-71.6-0.7-130.4,55.1-130.5,124.4l-0.1,68.9c0,14.6-12.5,26.6-27.9,26.7c-15.4,0.1-28-11.7-28-26.4l0-69.2
					c0-99,84.3-178.4,186.5-177l156.4,2.2c98.2,1.4,176.7,80,176.3,175.1l-0.3,66.6C2255.2,723.5,2243.5,735,2229.1,735.1z"/>
			</g>
		</g>
		<g>
			<path class="st21" d="M2757.9,2531.4l-2567.7-21.9v64.8c0,17.6,11.2,32.5,26.4,35.2L942.7,2737c8.6,1.5,17.4,1.9,26,1.2
				L2730,2592.8c15.7-1.3,27.9-16.3,27.9-34.3V2531.4z"/>
			<g>
				<path class="st21" d="M1826.2,2427.7L216.8,2546.1c-28.8,2.1-52.2-20.4-52.2-50.3V1297.4c0-29.9,23.4-54.2,52.2-54.2h1609.3
					c23.7,0,42.9,21.9,42.9,49v1083.3C1869.1,2402.6,1849.9,2425.9,1826.2,2427.7z"/>
				<linearGradient id="SVGID_10_" gradientUnits="userSpaceOnUse" x1="190.2934" y1="1894.7489" x2="1894.724" y2="1894.7489">
					<stop  offset="0" style="stop-color:#444B8C"/>
					<stop  offset="0.9964" style="stop-color:#26264F"/>
				</linearGradient>
				<path class="st22" d="M1851.8,2427.7L242.5,2546.1c-28.8,2.1-52.2-20.4-52.2-50.3V1297.4c0-29.9,23.4-54.2,52.2-54.2h1609.3
					c23.7,0,42.9,21.9,42.9,49v1083.3C1894.7,2402.6,1875.5,2425.9,1851.8,2427.7z"/>
				<path class="st2" d="M1801.7,2351.3L302.8,2454.2c-23.4,1.6-42.5-16.9-42.5-41.3V1363.7c0-24.4,19-44.3,42.5-44.4l1498.9-6.5
					c19.6-0.1,35.4,17.9,35.4,40.1v955.6C1837.1,2330.8,1821.3,2349.9,1801.7,2351.3z"/>
				<path class="st2" d="M1104,1276c0,11.1-8.3,20.2-18.5,20.2c-10.2,0-18.6-9-18.6-20.1c0-11.2,8.3-20.2,18.6-20.2
					C1095.7,1255.9,1104,1264.9,1104,1276z"/>
			</g>
			<linearGradient id="SVGID_11_" gradientUnits="userSpaceOnUse" x1="190.2934" y1="2550.1077" x2="2757.949" y2="2550.1077">
				<stop  offset="0" style="stop-color:#444B8C"/>
				<stop  offset="0.9964" style="stop-color:#26264F"/>
			</linearGradient>
			<path class="st23" d="M1916,2421.1L190.3,2545.8l752.4,132.2c8.6,1.5,17.4,1.9,26,1.2l1789.2-147.7l-814.5-109.5
				C1934.3,2420.7,1925.1,2420.4,1916,2421.1z"/>
			<polygon class="st21" points="442.1,2546.9 1878.8,2441.5 2323.4,2500.8 899.1,2613.4 			"/>
			<g>
				<path class="st13" d="M907.6,2410.9l-611.5,41.1c-17.9,1.2-33.2-13-33.2-31V1350.1c0-17.1,13.8-31,30.9-31.1l613.7-2.5V2410.9z"
					/>
				<polygon class="st13" points="1697.2,1826.9 1053,1849.6 1053,1784.4 1697.2,1764.2 				"/>
				<polygon class="st13" points="1697.2,1929.6 1053,1956.3 1053,1891.1 1697.2,1866.9 				"/>
				<polygon class="st2" points="844.5,1838.6 474.6,1851.2 474.6,1802.5 844.5,1790.9 				"/>
				<polygon class="st2" points="844.5,1916.7 474.6,1931 474.6,1882.3 844.5,1869 				"/>
				<polygon class="st2" points="844.5,1994.8 474.6,2010.7 474.6,1962.1 844.5,1947.1 				"/>
				<polygon class="st2" points="844.5,2072.9 474.6,2090.5 474.6,2041.8 844.5,2025.2 				"/>
				<polygon class="st13" points="1337.7,2049.4 1053,2063 1053,1997.8 1337.7,1985.4 				"/>
				<g>
					<path class="st13" d="M1291.8,1539v97.9c0,28.3,23.8,50.6,53.1,49.8l72.6-1.9c28.9-0.8,52.3-24.1,52.3-52.1v-96.8L1291.8,1539z
						 M1358.7,1640.1l13.5-40.9c-5.8-3-9.7-8.9-9.7-15.7c0-10,8.4-18.3,18.8-18.5c10.4-0.2,18.8,7.8,18.8,17.8
						c0,6.8-3.9,12.9-9.7,16.1l13.4,40.2L1358.7,1640.1z"/>
					<path class="st13" d="M1449.1,1527.4c-7.7,0.1-13.9-5.8-13.9-13.3c0-28.8-24.1-51.9-53.9-51.5c-29.9,0.4-54.3,24.2-54.3,53.2
						c0,7.5-6.3,13.7-14.2,13.9c-7.8,0.1-14.2-5.9-14.2-13.4c0-44.1,37.2-80.3,82.6-80.8c45.2-0.5,81.8,34.6,81.8,78.2
						C1463.1,1521.1,1456.8,1527.3,1449.1,1527.4z"/>
				</g>
			</g>
			<path class="st24" d="M242.5,2546.1l1601.2-117.9l8.1-0.6c10.9-0.8,20.8-6.2,28.3-14.3c-115.2-6.3-186.8-47.2-233-89.4
				c-92.7-84.8-76.6-168.5-176.6-224.3c-124.7-69.6-222.7,18.6-317.4-68.4c-57.4-52.7-29.2-92.1-99.8-170.9
				c-78.2-87.3-129.1-57.9-207.7-136.5c-99.3-99.3-49.7-176.6-135.2-247.9c-103.8-86.5-215.8-6.4-314.6-89.4
				c-42.6-35.8-66-87.8-78.2-143.2h-75.2c-28.8,0-52.2,24.2-52.2,54.2v1198.4C190.3,2525.7,213.7,2548.2,242.5,2546.1z"/>
		</g>
		<g>
			<path class="st25" d="M1318.5,2086c28.9-18.9,13.1-113.1-32.7-176.7c-65.1-90.3-195.7-126.1-219.7-96
				c-24.6,30.8,60.3,133.4,74.1,150C1190.2,2023.8,1284.3,2108.4,1318.5,2086z"/>
			<path class="st19" d="M1635.8,2670.2c-5.2,6.6-5.6,18.2-0.3,23.5c5.2,5.2,12.1,0.5,32.7-0.4c22-1,28.1,3.8,42.8-1.4
				c5.9-2.1,16.3-6.9,15.7-11.2c-0.4-3-5.9-4.2-24.5-8.9c-26.4-6.7-26.3-7.2-31.8-7.7C1656.6,2662.7,1642.6,2661.4,1635.8,2670.2z"
				/>
			<path class="st26" d="M1647.3,2633.3l13.7,35.9c-0.7,2-11.4,9.4-21.3,6l-19-34.4L1647.3,2633.3z"/>
			<path class="st19" d="M1498.8,2712.7c-5.2,6.6-5.6,18.2-0.3,23.5c5.2,5.2,12.1,0.5,32.7-0.4c22-1,28.1,3.8,42.8-1.4
				c5.9-2.1,16.3-6.9,15.7-11.2c-0.4-3-5.9-4.2-24.5-8.9c-26.4-6.7-26.3-7.2-31.8-7.7C1519.6,2705.2,1505.6,2703.9,1498.8,2712.7z"
				/>
			<path class="st26" d="M1510.2,2675.8l13.7,35.9c-0.7,2-11.4,9.4-21.3,6l-19-34.4L1510.2,2675.8z"/>
			<path class="st25" d="M824.8,1837.4c34.1-14.5,86.5-32.3,152.3-37.2c74.1-5.5,133.6-9.9,177.3,22.1
				c106,77.6,9.4,289.5,77.8,436.1c7.5,16.1,29.6,67.1,17.9,124.7c-2.2,10.6-7.5,20.1-16.7,36.1c-53.8,94.1-223,114-306.5,42
				c-44.1-38-80.5-27.8-85-74.6C824.5,2202,839.5,2015.4,824.8,1837.4z"/>
			<path class="st27" d="M916.1,2068c-17-37.6-5.6-83-38.6-100c-12.1-6.2-26.6-8.2-42.2-6.7c11.9,135.8,24.6,271.5,38.4,413.1
				c4.6,46.8,10.6,48.7,59.1,86.4c56.2,43.7,148,52.5,224.7,31.2c-106.5-55.1-184-114.7-177.7-171.1
				c7.3-65.7,124.6-93.6,116.4-139.3C1087.5,2133.2,953.2,2150.3,916.1,2068z"/>
			<path class="st25" d="M857.5,1839.2c-36-20.6-114.2,43.8-156.2,98.6c-19.5,25.4-87.4,114-60.8,224.2c4.3,18,24.4,102,100.3,138.2
				c67.9,32.5,155.2,16.4,221.8-41.7c9-9.3,18-18.5,27-27.8c8.7-10.9,17.4-21.9,26.2-32.8c-15.8-11.3-42.5-27.3-78.9-36.2
				c-55.5-13.5-89.2,15.1-103.4-1c-17.5-19.8,28.2-62.6,34.3-152.7C869.6,1983.8,897.7,1862.2,857.5,1839.2z"/>
			<path class="st28" d="M956.7,2416.9c-17.2,75.3,22.5,42.3,104.8-6.1c86.6-50.9,278.5-129.1,369.3-52
				c67.7,57.4,30.3,158.8,135.9,259.6c18.6,17.8,35.9,29.8,46.6,36.8c17-8.6,34.1-17.2,51.1-25.7c3.9-40.8,14.2-197.7-93.9-329.6
				c-26.1-31.9-75.9-93.1-154.8-114.8C1202.3,2126.6,972.6,2347.4,956.7,2416.9z"/>
			<path class="st29" d="M868.6,2354.3c-11.5,43.4,5.3,91.1,31.4,119.5c58.1,63.1,176.9,47.3,249.7,17
				c88.5-36.8,104.7-93.2,141.3-82.4c57,16.9,27.6,156.3,135.9,259.6c18.6,17.8,35.9,29.8,46.6,36.8c17-8.6,34.1-17.2,51.1-25.7
				c6.3-94.8-8.9-169.3-22.6-216.5c-15.7-54.2-29.7-102.8-72-147.5c-52.6-55.5-117.1-71.6-154.1-80.4
				C1119.5,2197.8,898.6,2241.6,868.6,2354.3z"/>
			<g>
				<polygon class="st10" points="1356,2203.3 942.7,2227.6 1056.4,2272.5 1359,2230.1 				"/>
				<path class="st30" d="M929,2239.7L929,2239.7c0.6,7.7,5.9,14.3,13.4,16.4l135.7,42l-2-35.9l-133.3-34.5
					C935.3,2226.1,928.4,2232.1,929,2239.7z"/>
			</g>
			<path class="st26" d="M986.7,2218.7c-2.6-0.4,10.1-31.1,22-28.6c11.9,2.6,71.5,31.4,77.7,44.7c6.2,13.2,6.2,13.2,6.2,13.2
				s-24.8,3.8-40.6-0.3C1036.2,2243.8,1007.6,2221.8,986.7,2218.7z"/>
			<g>
				<g>
					<path class="st10" d="M1068.4,2009.8l-9.5,267.1c-0.3,9.2,13.5,21.9,22.6,20.8l424.9-57.8c7-0.9,12.4-6.4,13.1-13.5l34.7-259.8
						c0.9-9.4-16.5-17.8-26-16.8l-446.4,45.6C1074.4,1996.1,1068.6,2002.3,1068.4,2009.8z"/>
					<path class="st10" d="M1078.7,2016.8l-9.5,267.1c-0.3,9.2,7.7,16.5,16.8,15.4l430.7-52.4c7-0.9,12.4-6.4,13.1-13.5l25.2-260.3
						c0.9-9.4-7-17.3-16.5-16.4l-446.4,45.6C1084.7,2003.1,1079,2009.3,1078.7,2016.8z"/>
				</g>
				<path class="st30" d="M1347.2,2197c-38.9-13.2-27.9-44.7-75.2-79.4c-62.5-45.8-120.8-19.6-144.7-56.9
					c-7.4-11.6-11.9-30.2-2.8-61.6l-32.3,3.3c-7.5,0.8-13.2,6.9-13.5,14.4l-9.5,267.1c-0.3,9.2,7.7,16.5,16.8,15.4l430.7-52.4
					c7-0.9,12.4-6.4,13.1-13.5l3.5-35.9c-13.7-6.3-29.8-11.8-48.4-14.2C1420.6,2175.2,1392,2212.2,1347.2,2197z"/>
			</g>
			<g>
				<path class="st26" d="M976.6,1698.4c2.3,27.5,0.8,49.5-1,64.6c-2.1,17.3-4.1,21.9-6.9,25.7c-4.2,5.7-10.8,10.8-49.5,23.5
					c-21,6.9-23.8,7-24.1,9.1c-1.5,10.5,59.5,41.6,119.2,28.6c36.6-7.9,68.6-31.5,65.7-42.4c-2.9-11-39.4-2.3-51.8-21.6
					c-8.7-13.5-1.6-34,7.3-51.2C1024.3,1717,987.7,1716.1,976.6,1698.4z"/>
				<g>
					<path class="st31" d="M1056.7,1727.6c10.7-9.8,14.9-29.7,7.3-44.1c-6.5-12.4-19.7-16.4-27.5-18.8c-22.8-6.9-53.9-2.6-68.1,17
						c-8.4,11.6-0.1,40.4,1.1,45.5c1.3,5.8,5.2,8.4,8.4,13.2c4.4,6.6,11.2,17.1,22.2,34.6c1.9-4.2,4.5-9.4,8.2-14.8
						c1.4-2.1,7-10.3,14.5-16.5C1037.5,1731,1046.5,1737,1056.7,1727.6z"/>
					<path class="st26" d="M982.6,1758.7c0,0,10.7,27.9,41.5,31.5c27.6,3.2,42.8-57.2,27.7-73.4c-5-5.4-16.3-9.3-26.3-8.4
						c-5.9,0.5-8.2,2.5-17.8,3.2c-8.9,0.6-11.1-0.7-14,1c-3.7,2.1-7.2,8.3-5.2,27.1c-4.2-6.2-10.1-9.4-14.9-8.1
						c-0.8,0.2-2.9,1.1-4.3,2.9C964.3,1740.8,969,1750.9,982.6,1758.7z"/>
					<path class="st32" d="M993.2,1708.7c1.1,1.2-3.8,5.4-5.4,12.3c-3.1,13.4,7.6,32.1,21.3,36c8.1,2.3,11.3-2.2,25.1-1.2
						c8.6,0.7,15.4,3,19.6,4.8c1.6,15.6-5.2,29.6-16.3,34.6c-12,5.4-24.8-1.5-30.1-4.4c-3.6-1.9-15-8.2-19.4-20.5
						c-4.5-12.9,3.3-18.7-2.9-28c-3.1-4.7-7.8-7.3-11.3-15.9c-1-2.3-1.5-4.3-1.8-5.7C980.5,1714.5,991.6,1706.9,993.2,1708.7z"/>
					<path class="st33" d="M1043,1764.3c0,0-6.5,2-16.5-0.4c-0.5-0.1-1.1-0.1-1.2,0.2c-0.4,0.9,5.3,6.4,11.7,5.9
						c4.5-0.4,8.6-3.9,8.2-5C1045,1764.4,1044,1764.3,1043,1764.3z"/>
				</g>
			</g>
		</g>
	</g>
</g>
</svg>
