<?xml version="1.0" encoding="utf-8"?>
<!-- Generator: Adobe Illustrator 23.1.0, SVG Export Plug-In . SVG Version: 6.00 Build 0)  -->
<svg version="1.1" xmlns="http://www.w3.org/2000/svg" xmlns:xlink="http://www.w3.org/1999/xlink" x="0px" y="0px"
	 viewBox="0 0 2789.1 2769.2" style="enable-background:new 0 0 2789.1 2769.2;" xml:space="preserve">
<style type="text/css">
	.st0{display:none;}
	.st1{display:inline;}
	.st2{fill:#FFFFFF;}
	.st3{fill:url(#SVGID_1_);}
	.st4{fill:#B394F0;}
	.st5{opacity:0.6;fill:#FFFFFF;}
	.st6{opacity:0.78;fill:#FFFFFF;}
	.st7{fill:url(#SVGID_2_);}
	.st8{fill:url(#SVGID_3_);}
	.st9{opacity:0.6;}
	.st10{fill:url(#SVGID_4_);}
	.st11{fill:url(#SVGID_5_);}
	.st12{fill:url(#SVGID_6_);}
	.st13{fill:url(#SVGID_7_);}
	.st14{fill:url(#SVGID_8_);}
	.st15{fill:#A2E6EA;}
	.st16{opacity:0.5;fill:#FFFFFF;}
	.st17{fill:#78CAD2;}
	.st18{fill:#2F11AA;}
	.st19{fill:#E1D4F9;}
	.st20{fill:#FF8F8A;}
	.st21{fill:url(#SVGID_9_);}
	.st22{fill:url(#SVGID_10_);}
	.st23{fill:#E2D6F9;}
	.st24{opacity:0.6;fill:#E2D6F9;}
	.st25{fill:url(#SVGID_11_);}
	.st26{fill:url(#SVGID_12_);}
	.st27{fill:url(#SVGID_13_);}
	.st28{fill:url(#SVGID_14_);}
	.st29{fill:url(#SVGID_15_);}
	.st30{fill:#18093C;}
	.st31{fill:url(#SVGID_16_);}
	.st32{fill:url(#SVGID_17_);}
	.st33{fill:#FFB27D;}
	.st34{fill:url(#SVGID_18_);}
	.st35{fill:#6836E0;}
	.st36{fill:#EF9D65;}
	.st37{fill:url(#SVGID_19_);}
</style>
<g id="Background" class="st0">
	<g class="st1">
		<g>
			<rect x="-460" y="-455" class="st2" width="3710" height="3710"/>
		</g>
	</g>
</g>
<g id="Illustration">
	<g>
		<linearGradient id="SVGID_1_" gradientUnits="userSpaceOnUse" x1="2793.5522" y1="3002.7808" x2="292.4219" y2="153.3872">
			<stop  offset="0" style="stop-color:#DAE3FE"/>
			<stop  offset="1" style="stop-color:#E9EFFD"/>
		</linearGradient>
		<path class="st3" d="M2450.4,2373.1c-503.7,531.6-1277.5,374.3-1391.9,349c-144.1-31.8-486.9-107.6-742.7-406.7
			C-75.8,1857.7-36.3,1142.1,266.2,659.6c88-140.4,384.2-557.5,940.4-648.3C1239.1,6.1,1820-79.1,2287.3,313
			c63,52.9,164.7,148.6,253.9,288C2817.6,1033.5,2948.5,1847.5,2450.4,2373.1z"/>
		<g>
			<path class="st4" d="M1358.9,142.8c5.7-27.9,34.7-44.2,61.5-34.7c177.7,63.3,790.4,272.6,1318.8,342.3
				c24.1,3.2,40.9,25.5,37.1,49.5L2469,2472.1c-4.2,27-29.5,45.6-56.5,41.6c-221.4-33.1-1132.6-172.9-1446.7-274.3
				c-19.1-6.2-30.5-25.8-26.5-45.4L1358.9,142.8z"/>
			<path class="st5" d="M1370.2,196.2c5.5-26.8,33.4-42.6,59.2-33.4c171,61,760.6,262.3,1269.1,329.4c23.2,3.1,39.3,24.5,35.7,47.6
				l-295.8,1897.9c-4.1,26-28.3,43.9-54.4,40c-213.1-31.9-1089.9-166.4-1392.3-264c-18.4-5.9-29.3-24.8-25.5-43.7L1370.2,196.2z"/>
			<path class="st6" d="M1536.7,352.8c-15.8-3.9-31.5,6.5-34.1,22.5l-66.1,406.3c-2.2,13.5,6.4,26.4,19.7,29.6
				c74.1,17.8,305.1,72.4,437.7,93.2c15,2.4,29.3-7.2,32.9-21.9c18.4-74.9,70.2-293.4,72.3-388.9c0.3-15.4-10.1-29-25.1-32.7
				L1536.7,352.8z"/>
			
				<linearGradient id="SVGID_2_" gradientUnits="userSpaceOnUse" x1="2276.3123" y1="-91.6856" x2="1609.2902" y2="901.3522" gradientTransform="matrix(0.9785 0.2062 -0.2062 0.9785 -384.4154 60.4715)">
				<stop  offset="0" style="stop-color:#FDF53F"/>
				<stop  offset="1" style="stop-color:#D93C65"/>
			</linearGradient>
			<circle class="st7" cx="1725.7" cy="572.6" r="88.4"/>
			
				<linearGradient id="SVGID_3_" gradientUnits="userSpaceOnUse" x1="2390.2122" y1="-15.1668" x2="1723.2025" y2="977.8523" gradientTransform="matrix(0.9785 0.2062 -0.2062 0.9785 -384.4154 60.4715)">
				<stop  offset="0" style="stop-color:#FDF53F"/>
				<stop  offset="1" style="stop-color:#D93C65"/>
			</linearGradient>
			<path class="st8" d="M1540.8,798.8l275.6,58.1c16.9,3.6,31-13,24.9-29.1c-15.7-41.6-53.3-105.7-138.7-121.1
				c-82.2-14.9-140.9,23.5-172.6,53.2C1516.5,772.5,1522.8,795,1540.8,798.8z"/>
			<g class="st9">
				<path class="st2" d="M2597.2,642.6c8.6,1.8,16.8-2.8,18.1-10.3c1.3-7.5-4.6-15.2-13.2-17.2L2121,504.7
					c-8.6-2-14.7,3.6-13.5,12.3l0.9,7c1.2,8.7,9.2,17.4,17.8,19.2L2597.2,642.6z"/>
			</g>
			<g class="st9">
				<path class="st2" d="M2105.2,579.7c-8.6-2-14.7,3.6-13.5,12.3l0.9,7c1.2,8.7,9.2,17.4,17.8,19.2l471.1,99.3
					c8.6,1.8,16.8-2.8,18.1-10.3c1.3-7.5-4.6-15.2-13.2-17.2L2105.2,579.7z"/>
			</g>
			<g class="st9">
				<path class="st2" d="M2089.1,655.8c-8.6-2-14.7,3.6-13.5,12.3l0.9,7c1.2,8.7,9.2,17.4,17.8,19.2l471.1,99.3
					c8.6,1.8,16.8-2.8,18.1-10.3c1.3-7.5-4.6-15.2-13.2-17.2L2089.1,655.8z"/>
			</g>
			<g class="st9">
				<path class="st2" d="M2534.9,1170.6c8.6,1.8,16.6-2.9,17.6-10.4s-5.1-15.2-13.7-17.1L1409.2,895.7c-8.6-1.9-12.4,3-8.5,10.9
					l6.8,13.6c4,7.9,14.2,15.8,22.9,17.6L2534.9,1170.6z"/>
			</g>
			<g class="st9">
				<path class="st2" d="M1393.4,970.7c-8.6-1.9-12.4,3-8.5,10.9l6.8,13.6c4,7.9,14.2,15.8,22.9,17.6l1104.6,232.8
					c8.6,1.8,16.6-2.9,17.6-10.4c1.1-7.5-5.1-15.2-13.7-17.1L1393.4,970.7z"/>
			</g>
			<path class="st5" d="M1361.9,1094.9c27.6,3.6,78.8,13.4,106.9,18.9c11.9,2.3,20.6,12.6,21,24.7c0.7,23.6-0.1,64.1-9.7,105.2
				c-2.9,12.3-15.1,20-27.4,17.3l-103.3-22.9c-12.7-2.8-21.2-14.8-19.7-27.7l11.4-99.3C1342.3,1100.9,1351.6,1093.5,1361.9,1094.9z"
				/>
			<g class="st9">
				<path class="st2" d="M1544.8,1175.2c-8.5-2.2-16,3.2-16.5,12l-1,17.2c-0.5,8.8,6.1,17.5,14.8,19.3l251.4,53
					c8.6,1.8,17.1-3.8,18.8-12.4l0.8-4.3c1.7-8.7-3.9-17.5-12.4-19.7L1544.8,1175.2z"/>
			</g>
			<path class="st5" d="M1925.7,1213.7c27.6,3.6,78.8,13.4,106.9,18.9c11.9,2.3,20.6,12.6,21,24.7c0.7,23.6-0.1,64.1-9.7,105.2
				c-2.9,12.3-15.1,20-27.4,17.3l-103.3-22.9c-12.7-2.8-21.2-14.8-19.7-27.7l11.4-99.3C1906.1,1219.7,1915.5,1212.3,1925.7,1213.7z"
				/>
			<g class="st9">
				<path class="st2" d="M2108.7,1294c-8.5-2.2-16,3.2-16.5,12l-1,17.2c-0.5,8.8,6.1,17.5,14.8,19.3l251.4,53
					c8.6,1.8,17.1-3.8,18.8-12.4l0.8-4.3c1.7-8.7-3.9-17.5-12.4-19.7L2108.7,1294z"/>
			</g>
			<g>
				<path class="st2" d="M1426.5,1511.9c-0.1,0-0.2,0-0.3-0.1l-95.3-21c-13.6-3-22.9-14.8-21.6-27.4l8.5-81.9
					c0.5-4.8,2.9-9.1,6.9-12.2c4.4-3.4,10.3-4.9,16.1-4.1l0,0c8.2,1.1,19.7,2.6,31.9,4.1c25.7,3.2,57.7,7.1,75.4,10.6
					c12.8,2.6,22.1,12.5,22.8,24.3c1.1,19.4-6.7,54.2-15.4,91.1C1452.7,1507.3,1439.7,1514.7,1426.5,1511.9z M1339.8,1372.6
					c-3.8-0.5-7.7,0.4-10.5,2.6c-2.3,1.8-3.8,4.3-4,7.1l-8.5,81.9c-0.9,8.8,5.9,17.1,15.8,19.3l95.3,21c0.1,0,0.1,0,0.2,0
					c9.3,2,18.3-3,20.2-11c8.6-36.3,16.3-70.5,15.3-88.9c-0.5-8.3-7.5-15.4-16.8-17.4c-17.5-3.5-49.3-7.4-74.9-10.5
					C1359.6,1375.2,1348,1373.8,1339.8,1372.6L1339.8,1372.6z"/>
				<path class="st5" d="M1348.3,1383.1c20.4,2.9,64.9,7.6,85.6,11.7c8.8,1.7,15.4,8.7,15.8,16.7c0.9,15.6-5.8,44.9-12.3,71.9
					c-1.9,8.1-10.8,13-19.9,11l-76.2-16.8c-9.4-2.1-15.8-10.1-14.9-18.6l6.8-65.4C1334,1386.7,1340.8,1382,1348.3,1383.1z"/>
				<g class="st9">
					<path class="st2" d="M1521.6,1476.4c0.6,11.1,8.5,20.3,19.4,22.5l885.2,178.7c10,2,19.7-4.5,21.6-14.6
						c1.8-9.8-4.4-19.2-14.1-21.3l-882.8-190.3C1535.3,1448.1,1520.8,1460.5,1521.6,1476.4z"/>
				</g>
				
					<linearGradient id="SVGID_4_" gradientUnits="userSpaceOnUse" x1="2258.9592" y1="545.0345" x2="1760.5651" y2="1395.6761" gradientTransform="matrix(0.9785 0.2062 -0.2062 0.9785 -384.4154 60.4715)">
					<stop  offset="0" style="stop-color:#A737D5"/>
					<stop  offset="1" style="stop-color:#EF497A"/>
				</linearGradient>
				<path class="st10" d="M1349.7,1396.5L1349.7,1396.5c8-2.7,16.6,1.7,19.1,9.8l11.7,37.7c1.2,3.8,6.2,4.6,8.5,1.4l68.6-94.2
					c3.4-4.7,10.8-1.3,9.5,4.4c-7.2,31.7-28.4,90.4-89.9,130.3c0,0-25.7-16.8-37.8-71.1C1337.6,1407,1342.1,1399.1,1349.7,1396.5z"
					/>
				<path class="st2" d="M1383.3,1716.6c-0.1,0-0.2,0-0.3-0.1l-95.3-21c-13.6-3-22.9-14.8-21.6-27.4l8.5-81.9
					c0.5-4.8,2.9-9.1,6.9-12.2c4.4-3.4,10.3-4.9,16.1-4.1l0,0c8.2,1.1,19.7,2.6,31.9,4.1c25.7,3.2,57.7,7.1,75.4,10.6
					c0.1,0,0.3,0.1,0.4,0.1c12.6,2.6,21.8,12.6,22.4,24.3c1.1,19.4-6.7,54.2-15.4,91.1C1409.5,1712,1396.5,1719.4,1383.3,1716.6z
					 M1296.6,1577.3c-3.8-0.5-7.7,0.4-10.5,2.6c-2.3,1.8-3.8,4.3-4,7.1l-8.5,81.9c-0.9,8.8,5.9,17.1,15.8,19.3l95.3,21
					c0.1,0,0.1,0,0.2,0c9.3,2,18.3-3,20.2-11c8.6-36.3,16.3-70.5,15.2-88.9c-0.5-8.3-7.5-15.6-16.8-17.4
					c-17.5-3.5-49.3-7.4-74.9-10.5C1316.4,1579.9,1304.8,1578.5,1296.6,1577.3L1296.6,1577.3z"/>
				<path class="st5" d="M1305.2,1587.8c20.4,2.9,64.9,7.6,85.6,11.7c8.8,1.7,15.4,8.7,15.8,16.7c0.9,15.6-5.8,44.9-12.3,71.9
					c-1.9,8.1-10.8,13-19.9,11l-76.2-16.8c-9.4-2.1-15.8-10.1-14.9-18.6l6.8-65.4C1290.9,1591.4,1297.6,1586.7,1305.2,1587.8z"/>
				<g class="st9">
					<path class="st2" d="M1478.4,1681.1c0.6,11.1,8.5,20.3,19.4,22.5l885.2,178.7c10,2,19.7-4.5,21.6-14.6
						c1.8-9.8-4.4-19.2-14.1-21.3l-882.8-190.3C1492.2,1652.8,1477.6,1665.2,1478.4,1681.1z"/>
				</g>
				
					<linearGradient id="SVGID_5_" gradientUnits="userSpaceOnUse" x1="2350.1965" y1="598.4924" x2="1851.8013" y2="1449.1357" gradientTransform="matrix(0.9785 0.2062 -0.2062 0.9785 -384.4154 60.4715)">
					<stop  offset="0" style="stop-color:#A737D5"/>
					<stop  offset="1" style="stop-color:#EF497A"/>
				</linearGradient>
				<path class="st11" d="M1306.6,1601.2L1306.6,1601.2c8-2.7,16.6,1.7,19.1,9.8l11.7,37.7c1.2,3.8,6.2,4.6,8.5,1.4l68.6-94.2
					c3.4-4.7,10.8-1.3,9.5,4.4c-7.2,31.7-28.4,90.4-89.9,130.3c0,0-25.7-16.8-37.8-71.1C1294.5,1611.7,1299,1603.7,1306.6,1601.2z"
					/>
				<path class="st2" d="M1340.2,1921.3c-0.1,0-0.2,0-0.3-0.1l-95.3-21c-13.6-3-22.9-14.8-21.6-27.4l8.5-81.9
					c0.5-4.8,2.9-9.2,6.9-12.2c4.4-3.4,10.3-5,16.1-4.1l0,0c8.2,1.1,19.7,2.6,31.9,4.1c25.7,3.2,57.7,7.1,75.4,10.6
					c0.1,0,0.3,0.1,0.4,0.1c12.6,2.6,21.8,12.6,22.4,24.3c1.1,19.4-6.7,54.2-15.4,91.1C1366.4,1916.7,1353.4,1924.1,1340.2,1921.3z
					 M1253.5,1782c-3.8-0.5-7.7,0.4-10.5,2.6c-2.3,1.8-3.8,4.3-4,7.1l-8.5,81.9c-0.9,8.8,5.9,17.1,15.8,19.3l95.3,21
					c0.1,0,0.1,0,0.2,0c9.3,2,18.3-3,20.2-11c8.6-36.3,16.3-70.5,15.2-88.9c-0.5-8.3-7.5-15.6-16.8-17.4
					c-17.5-3.5-49.3-7.4-74.9-10.5C1273.3,1784.6,1261.7,1783.2,1253.5,1782L1253.5,1782z"/>
				<path class="st5" d="M1262,1792.5c20.4,2.9,64.9,7.6,85.6,11.7c8.8,1.7,15.4,8.7,15.8,16.7c0.9,15.6-5.8,44.9-12.3,71.9
					c-1.9,8.1-10.8,13-19.9,11l-76.2-16.8c-9.4-2.1-15.8-10.1-14.9-18.6l6.8-65.4C1247.7,1796.1,1254.5,1791.4,1262,1792.5z"/>
				<g class="st9">
					<path class="st2" d="M1435.3,1885.8c0.6,11.1,8.5,20.3,19.4,22.5l885.2,178.7c10,2,19.7-4.5,21.6-14.6
						c1.8-9.8-4.4-19.2-14.1-21.3l-882.8-190.3C1449,1857.5,1434.5,1869.9,1435.3,1885.8z"/>
				</g>
				
					<linearGradient id="SVGID_6_" gradientUnits="userSpaceOnUse" x1="2426.9092" y1="808.1849" x2="1771.1262" y2="1722.5334" gradientTransform="matrix(0.9785 0.2062 -0.2062 0.9785 -384.4154 60.4715)">
					<stop  offset="0" style="stop-color:#A737D5"/>
					<stop  offset="1" style="stop-color:#EF497A"/>
				</linearGradient>
				<path class="st12" d="M1263.4,1805.9L1263.4,1805.9c8-2.7,16.6,1.7,19.1,9.8l11.7,37.7c1.2,3.8,6.2,4.6,8.5,1.4l68.6-94.2
					c3.4-4.7,10.8-1.3,9.5,4.4c-7.2,31.7-28.4,90.4-89.9,130.3c0,0-25.7-16.8-37.8-71.1C1251.4,1816.4,1255.8,1808.4,1263.4,1805.9z
					"/>
				<path class="st2" d="M1297.1,2126c-0.1,0-0.2,0-0.3-0.1l-95.3-21c-13.6-3-22.9-14.8-21.6-27.4l8.5-81.9
					c0.5-4.8,2.9-9.2,6.9-12.2c4.4-3.4,10.3-5,16.1-4.1l0,0c8.2,1.1,19.7,2.6,31.9,4.1c25.7,3.2,57.7,7.1,75.4,10.6
					c0.1,0,0.3,0.1,0.4,0.1c12.6,2.6,21.8,12.6,22.4,24.3c1.1,19.4-6.7,54.2-15.4,91.1C1323.3,2121.4,1310.3,2128.8,1297.1,2126z
					 M1210.3,1986.7c-3.8-0.5-7.7,0.4-10.5,2.6c-2.3,1.8-3.8,4.3-4,7.1l-8.5,81.9c-0.9,8.8,5.9,17.1,15.8,19.3l95.3,21
					c0.1,0,0.1,0,0.2,0c9.3,2,18.3-3,20.2-11c8.6-36.3,16.3-70.5,15.2-88.9c-0.5-8.3-7.5-15.7-16.8-17.4
					c-17.5-3.5-49.3-7.4-74.9-10.5C1230.1,1989.3,1218.6,1987.9,1210.3,1986.7L1210.3,1986.7z"/>
				<path class="st5" d="M1218.9,1997.1c20.4,2.9,64.9,7.6,85.6,11.7c8.8,1.7,15.4,8.7,15.8,16.7c0.9,15.6-5.8,44.9-12.3,71.9
					c-1.9,8.1-10.8,13-19.9,11l-76.2-16.8c-9.4-2.1-15.8-10.1-14.9-18.6l6.8-65.4C1204.6,2000.8,1211.3,1996.1,1218.9,1997.1z"/>
				<g class="st9">
					<path class="st2" d="M1392.2,2090.5L1392.2,2090.5c0.6,11.1,8.5,20.3,19.4,22.5l885.2,178.7c10,2,19.7-4.5,21.6-14.6
						c1.8-9.8-4.4-19.2-14.1-21.3l-882.8-190.3C1405.9,2062.2,1391.4,2074.6,1392.2,2090.5z"/>
				</g>
				
					<linearGradient id="SVGID_7_" gradientUnits="userSpaceOnUse" x1="2532.6704" y1="705.4087" x2="2034.2755" y2="1556.0515" gradientTransform="matrix(0.9785 0.2062 -0.2062 0.9785 -384.4154 60.4715)">
					<stop  offset="0" style="stop-color:#A737D5"/>
					<stop  offset="1" style="stop-color:#EF497A"/>
				</linearGradient>
				<path class="st13" d="M1220.3,2010.6L1220.3,2010.6c8-2.7,16.6,1.7,19.1,9.8l11.7,37.7c1.2,3.8,6.2,4.6,8.5,1.4l68.6-94.2
					c3.4-4.7,10.8-1.3,9.5,4.4c-7.2,31.7-28.4,90.4-89.9,130.3c0,0-25.7-16.8-37.8-71.1C1208.2,2021.1,1212.7,2013.1,1220.3,2010.6z
					"/>
			</g>
		</g>
		<g>
			<path class="st4" d="M27.2,408.8c-5.8-27.8,14.3-54.4,42.7-56.2c188.2-12.4,833.7-63.5,1346.3-209.2c23.4-6.6,47.6,7.2,53.7,30.7
				l500.5,1932.2c6.9,26.5-8.9,53.6-35.4,60.6c-216.4,57.4-1108.2,290.8-1436.8,322.4c-20,1.9-38.2-11.5-42.3-31.2L27.2,408.8z"/>
			<path class="st5" d="M58.7,453.4c-5.6-26.8,13.8-52.3,41.1-54.1c181.1-11.9,802.3-61.1,1295.6-201.3c22.5-6.4,45.8,6.9,51.7,29.5
				l481.7,1859.4c6.6,25.5-8.6,51.5-34.1,58.3c-208.2,55.3-1066.5,279.8-1382.7,310.3c-19.2,1.9-36.8-11.1-40.7-30L58.7,453.4z"/>
			<path class="st6" d="M251.3,565.2l100.6,399.2c3.3,13.3,16.3,21.7,29.8,19.4c75.1-13.1,308.8-54.6,438.7-88.1
				c14.7-3.8,24-18.2,21.5-33.2c-12.8-76.1-52-297.2-87.9-385.6c-5.8-14.3-20.8-22.6-36-20L273.7,531
				C257.7,533.7,247.3,549.4,251.3,565.2z"/>
			
				<ellipse transform="matrix(6.799243e-02 -0.9977 0.9977 6.799243e-02 -158.1141 1146.1692)" class="st4" cx="534.4" cy="657.7" rx="88.4" ry="88.4"/>
			<path class="st4" d="M454.5,938.8l276-56.1c16.9-3.4,23.3-24.2,11.3-36.6c-30.9-31.9-90.9-75.8-175.3-56.2
				c-81.4,19-120,77.5-137.3,117.4C421.7,924.3,436.4,942.5,454.5,938.8z"/>
			<g class="st9">
				<path class="st2" d="M1362.1,376.1c8.6-1.8,14.3-9.2,12.6-16.6c-1.7-7.4-10.2-12.1-18.9-10.5l-485.5,89.6
					c-8.7,1.6-12.1,9.1-7.5,16.7l3.6,6.1c4.5,7.6,15.3,12.3,23.9,10.6L1362.1,376.1z"/>
			</g>
			<g class="st9">
				<path class="st2" d="M885.5,513.7c-8.7,1.6-12.1,9.1-7.5,16.7l3.6,6.1c4.5,7.6,15.3,12.3,23.9,10.6l471.8-95.8
					c8.6-1.8,14.3-9.2,12.6-16.6c-1.7-7.4-10.2-12.1-18.9-10.5L885.5,513.7z"/>
			</g>
			<g class="st9">
				<path class="st2" d="M901,589.9c-8.7,1.6-12.1,9.1-7.5,16.7l3.6,6.1c4.5,7.6,15.3,12.3,23.9,10.6l471.8-95.8
					c8.6-1.8,14.3-9.2,12.6-16.6c-1.7-7.4-10.2-12.1-18.9-10.5L901,589.9z"/>
			</g>
			<g class="st9">
				<path class="st2" d="M1514.5,885.5c8.6-1.8,14.1-9.2,12.1-16.5c-2-7.3-10.7-12-19.4-10.3L372.1,1079.9
					c-8.7,1.7-10.2,7.7-3.5,13.4l11.6,9.7c6.8,5.7,19.4,8.9,28,7.1L1514.5,885.5z"/>
			</g>
			<g class="st9">
				<path class="st2" d="M387.3,1155.1c-8.7,1.7-10.2,7.7-3.5,13.4l11.6,9.7c6.8,5.7,19.4,8.9,28,7.1l1106.2-224.7
					c8.6-1.8,14.1-9.2,12.1-16.5c-2-7.3-10.7-12-19.4-10.3L387.3,1155.1z"/>
			</g>
			<path class="st5" d="M407.7,1281.5c26.8-7.6,77.7-19,105.7-25.1c11.9-2.6,23.9,3.4,29.1,14.4c10,21.4,25.4,58.9,32.8,100.4
				c2.2,12.4-5.9,24.4-18.3,26.8L453.1,1418c-12.8,2.5-25.3-5.1-29.1-17.6l-28.9-95.7C392.1,1294.8,397.8,1284.4,407.7,1281.5z"/>
			<g class="st9">
				<path class="st2" d="M607.5,1282.6c-8.7,1.4-13.4,9.3-10.3,17.6l5.9,16.2c3,8.3,12.6,13.6,21.2,11.9l251.7-51.1
					c8.6-1.8,14.2-10.2,12.3-18.9l-0.9-4.2c-1.9-8.6-10.5-14.5-19.2-13.1L607.5,1282.6z"/>
			</g>
			<path class="st5" d="M972.4,1166.8c26.8-7.6,77.7-19,105.7-25.1c11.9-2.6,23.9,3.4,29.1,14.4c10,21.4,25.4,58.9,32.8,100.4
				c2.2,12.4-5.9,24.4-18.3,26.8l-103.9,19.9c-12.8,2.5-25.3-5.1-29.1-17.6l-28.9-95.7C956.8,1180.1,962.5,1169.7,972.4,1166.8z"/>
			<g class="st9">
				<path class="st2" d="M1172.2,1167.9c-8.7,1.4-13.4,9.3-10.3,17.6l5.9,16.2c3,8.3,12.6,13.6,21.2,11.9l251.7-51.1
					c8.6-1.8,14.2-10.2,12.3-18.9l-0.9-4.2c-1.9-8.6-10.5-14.5-19.2-13.1L1172.2,1167.9z"/>
			</g>
			<g>
				<path class="st2" d="M632.5,1638.7c-0.1,0-0.2,0-0.3,0.1l-95.8,18.5c-13.7,2.6-26.9-4.5-30.7-16.5l-24.7-78.5
					c-1.5-4.6-0.9-9.6,1.5-14c2.7-4.9,7.5-8.6,13.2-10.2l0,0c7.9-2.2,19.1-5.5,30.9-8.9c24.9-7.3,55.8-16.4,73.5-20.2
					c12.8-2.7,25.3,2.7,30.6,13.3c8.7,17.4,15.4,52.4,22,89.7C654.7,1624.1,645.8,1636,632.5,1638.7z M497.7,1545.3
					c-3.7,1-6.9,3.4-8.6,6.6c-1.4,2.6-1.7,5.5-0.9,8.1l24.7,78.5c2.7,8.4,12.2,13.4,22.1,11.4l95.8-18.5c0.1,0,0.1,0,0.2,0
					c9.3-1.9,15.6-10,14.2-18.1c-6.5-36.8-13-71.2-21.3-87.7c-3.7-7.4-13-11.2-22.3-9.3c-17.4,3.8-48.2,12.8-72.9,20.1
					C516.8,1539.8,505.7,1543.1,497.7,1545.3L497.7,1545.3z"/>
				<path class="st5" d="M509.6,1551.5c19.8-5.5,62.6-18.8,83.2-23.2c8.8-1.9,17.5,1.8,21.1,9c7,14,12.5,43.5,17.3,70.9
					c1.4,8.2-4.7,16.2-13.9,18l-76.6,14.8c-9.4,1.8-18.5-3-21.1-11.2L500,1567C498,1560.5,502.3,1553.5,509.6,1551.5z"/>
				<g class="st9">
					<path class="st2" d="M705.7,1568.4c4.9,9.9,15.9,15.3,26.8,13l883.5-187.3c10-2.1,16.3-12,14.1-22
						c-2.2-9.7-11.7-15.9-21.4-13.9l-885.8,175.7C707.1,1537,698.7,1554.1,705.7,1568.4z"/>
				</g>
				<path class="st2" d="M674.2,1843.7c-0.1,0-0.2,0-0.3,0.1l-95.8,18.5c-13.7,2.6-26.9-4.5-30.7-16.5l-24.7-78.5
					c-1.5-4.6-0.9-9.6,1.5-14c2.7-4.9,7.5-8.6,13.2-10.2l0,0c7.9-2.2,19.1-5.5,30.9-8.9c24.9-7.3,55.8-16.4,73.5-20.2
					c0.1,0,0.3-0.1,0.4-0.1c12.6-2.6,25,2.9,30.2,13.4c8.7,17.4,15.4,52.4,22,89.7C696.4,1829.1,687.4,1841,674.2,1843.7z
					 M539.3,1750.3c-3.7,1-6.9,3.4-8.6,6.6c-1.4,2.6-1.7,5.5-0.9,8.1l24.7,78.5c2.7,8.4,12.2,13.4,22.1,11.4l95.8-18.5
					c0.1,0,0.1,0,0.2,0c9.3-1.9,15.6-10,14.2-18.1c-6.5-36.8-13-71.2-21.3-87.7c-3.7-7.4-13.1-11.3-22.3-9.3
					c-17.4,3.8-48.2,12.8-72.9,20.1C558.5,1744.8,547.3,1748.1,539.3,1750.3L539.3,1750.3z"/>
				<path class="st5" d="M551.3,1756.5c19.8-5.5,62.6-18.8,83.2-23.2c8.8-1.9,17.5,1.8,21.1,9c7,14,12.5,43.5,17.3,70.9
					c1.4,8.2-4.7,16.2-13.9,18l-76.6,14.8c-9.4,1.8-18.5-3-21.1-11.2l-19.7-62.8C539.6,1765.5,543.9,1758.5,551.3,1756.5z"/>
				<g class="st9">
					<path class="st2" d="M747.4,1773.4c4.9,9.9,15.9,15.3,26.8,13l883.5-187.3c10-2.1,16.3-12,14.1-22
						c-2.2-9.7-11.7-15.9-21.4-13.9l-885.8,175.7C748.7,1742,740.3,1759.1,747.4,1773.4z"/>
				</g>
				<path class="st2" d="M715.8,2048.7c-0.1,0-0.2,0-0.3,0.1l-95.8,18.5c-13.7,2.6-26.9-4.5-30.7-16.5l-24.7-78.5
					c-1.5-4.6-0.9-9.6,1.5-14c2.7-4.9,7.5-8.6,13.2-10.2l0,0c7.9-2.2,19.1-5.5,30.9-8.9c24.9-7.3,55.8-16.4,73.5-20.2
					c0.1,0,0.3-0.1,0.4-0.1c12.6-2.6,25,2.9,30.2,13.4c8.7,17.4,15.4,52.4,22,89.7C738,2034.1,729,2046,715.8,2048.7z M580.9,1955.3
					c-3.7,1-6.9,3.4-8.6,6.6c-1.4,2.6-1.7,5.5-0.9,8.1l24.7,78.5c2.7,8.4,12.2,13.4,22.1,11.4l95.8-18.5c0.1,0,0.1,0,0.2,0
					c9.3-1.9,15.6-10,14.2-18.1c-6.5-36.8-13-71.2-21.3-87.7c-3.7-7.4-13.1-11.4-22.3-9.3c-17.4,3.8-48.2,12.8-72.9,20.1
					C600.1,1949.8,588.9,1953.1,580.9,1955.3L580.9,1955.3z"/>
				<path class="st5" d="M592.9,1961.5c19.8-5.5,62.6-18.8,83.2-23.2c8.8-1.9,17.5,1.8,21.1,9c7,14,12.5,43.5,17.3,70.9
					c1.4,8.2-4.7,16.2-13.9,18l-76.6,14.8c-9.4,1.8-18.5-3-21.1-11.2l-19.7-62.8C581.2,1970.5,585.6,1963.5,592.9,1961.5z"/>
				<g class="st9">
					<path class="st2" d="M789,1978.4c4.9,9.9,15.9,15.3,26.8,13l883.5-187.3c10-2.1,16.3-12,14.1-22c-2.2-9.7-11.7-15.9-21.4-13.9
						L806,1943.9C790.4,1947,781.9,1964.1,789,1978.4z"/>
				</g>
				<path class="st2" d="M757.4,2253.7c-0.1,0-0.2,0-0.3,0.1l-95.8,18.5c-13.7,2.6-26.9-4.5-30.7-16.5l-24.7-78.5
					c-1.5-4.6-0.9-9.6,1.5-14c2.7-4.9,7.5-8.6,13.2-10.2l0,0c7.9-2.2,19.1-5.5,30.9-8.9c24.9-7.3,55.8-16.4,73.5-20.2
					c0.1,0,0.3-0.1,0.4-0.1c12.6-2.6,25,2.9,30.2,13.4c8.7,17.4,15.4,52.4,22,89.7C779.7,2239.1,770.7,2251,757.4,2253.7z
					 M622.6,2160.3c-3.7,1-6.9,3.4-8.6,6.6c-1.4,2.6-1.7,5.5-0.9,8.1l24.7,78.5c2.7,8.4,12.2,13.4,22.1,11.4l95.8-18.5
					c0.1,0,0.1,0,0.2,0c9.3-1.9,15.6-10,14.2-18.1c-6.5-36.8-13-71.2-21.3-87.7c-3.7-7.4-13.1-11.4-22.3-9.3
					c-17.4,3.8-48.2,12.8-72.9,20.1C641.8,2154.8,630.6,2158.1,622.6,2160.3L622.6,2160.3z"/>
				<path class="st5" d="M634.5,2166.5c19.8-5.5,62.6-18.8,83.2-23.2c8.8-1.9,17.5,1.8,21.1,9c7,14,12.5,43.5,17.3,70.9
					c1.4,8.2-4.7,16.2-13.9,18l-76.6,14.8c-9.4,1.8-18.5-3-21.1-11.2l-19.7-62.8C622.9,2175.5,627.2,2168.5,634.5,2166.5z"/>
				<g class="st9">
					<path class="st2" d="M830.6,2183.4L830.6,2183.4c4.9,9.9,15.9,15.3,26.8,13l883.5-187.3c10-2.1,16.3-12,14.1-22
						c-2.2-9.7-11.7-15.9-21.4-13.9l-885.8,175.7C832,2152,823.6,2169.1,830.6,2183.4z"/>
				</g>
				
					<linearGradient id="SVGID_8_" gradientUnits="userSpaceOnUse" x1="383.977" y1="1502.5276" x2="-114.4081" y2="2353.1538" gradientTransform="matrix(0.98 -0.199 0.199 0.98 341.4683 -183.7914)">
					<stop  offset="0" style="stop-color:#A737D5"/>
					<stop  offset="1" style="stop-color:#EF497A"/>
				</linearGradient>
				<path class="st14" d="M641.2,2178.2L641.2,2178.2c6.3-5.6,15.9-5,21.4,1.4l25.7,30c2.6,3,7.5,1.8,8.3-2.1l25.6-113.7
					c1.3-5.7,9.4-5.5,10.4,0.2c6,32,9.8,94.3-30.8,155.3c0,0-30.3-5.2-62.9-50.2C634.3,2192.6,635.2,2183.6,641.2,2178.2z"/>
			</g>
		</g>
		<g>
			<g>
				<path class="st15" d="M600.2,2080.5c8.8,92.1,29.4,213.8,54.1,318.6h15.5c-32-126.6-61.5-299.9-52.8-499.7
					c8.7-201.5,58.1-446.1-33.9-563c-76.6-97.3-401.5-111.8-508.4-113.9c-13.4-0.3-21,15.1-12.7,25.6
					c41,51.5,126.7,170.9,134.2,275.2c9.9,137.4,116.6,245.2,222.7,290.1C525.1,1858.4,582.3,1892.6,600.2,2080.5z"/>
				<path class="st16" d="M208.3,1307.5c65.7,16.7,127.9,46.7,182.3,87.7c27.2,20.5,51.9,44.5,73.2,71.3c21.1,27,38.8,56.9,51,89
					l4.5,12.1c1.5,4,2.6,8.2,3.9,12.3c1.2,4.1,2.6,8.2,3.7,12.3l3.2,12.2c4.4,16.3,8.7,32.6,12.8,48.9c8.3,32.7,16.1,65.5,23.3,98.4
					c14.5,65.8,27.1,132.1,35.5,199.1c0.2,1.6-0.9,3.1-2.5,3.3c-1.6,0.2-3-0.9-3.3-2.4l0-0.1c-6-33-12.6-66-19.9-98.7
					c-7.1-32.8-14.6-65.6-22.5-98.2l-12-48.9l-12.5-48.8c-4.2-16.3-8.5-32.5-12.9-48.7L513,1596c-1.1-4.1-2.4-7.9-3.6-11.9
					c-1.2-3.9-2.3-7.9-3.7-11.8l-4.3-11.6c-11.5-30.9-28.5-59.5-48.4-85.8c-10.2-13-20.9-25.6-32.7-37.2l-4.4-4.4l-4.5-4.2
					c-3-2.8-6-5.7-9.1-8.5c-6.3-5.4-12.5-10.9-19-16c-25.8-20.9-54.2-38.6-83.8-54.1c-29.5-15.5-60.6-28.6-92.4-38.3l-0.1,0
					c-1.2-0.4-1.9-1.7-1.6-2.9C205.9,1307.9,207.1,1307.2,208.3,1307.5z"/>
			</g>
			<g>
				<path class="st17" d="M603.2,2205.2c55.6,81.6,48.4,127.2,50.1,165.9c0.3,6.9,0.7,16.6,1.5,28H670c-3.1-15.7-5.3-31.6-6.1-47.2
					c-5.4-106.8-29.5-289.1-121.6-398.1c-92.1-109-193-119-320-19.9c-105.9,82.6-172,124.3-210.7,132c-9.6,1.9-14.5,12.7-9.8,21.3
					c24.8,45.8,95.1,150.9,213.1,143.5C365.3,2221.4,547.6,2123.6,603.2,2205.2z"/>
				<path class="st16" d="M265.4,2065.3c8.3-7.9,17.1-15.1,26.2-22c9.1-6.9,18.5-13.4,28.2-19.4c19.5-12,40.2-22.3,62.3-29.3
					c11.1-3.5,22.4-6.2,34.1-7.7c11.6-1.4,23.5-1.6,35.4-0.1c2.9,0.5,5.9,0.8,8.8,1.4c2.9,0.7,5.9,1.2,8.7,2l16.6,5.1l16.2,6.3
					l15.7,7.6c20.6,10.9,39.3,25.5,54.8,42.8c15.6,17.2,27.9,37.1,37.9,57.7l3.8,7.7c1.3,2.6,2.2,5.3,3.4,7.9
					c2.1,5.3,4.4,10.6,6.4,15.9l5.6,16.2c2,5.4,3.2,10.9,4.8,16.4c6.3,21.9,10.6,44.2,14.4,66.5c0.2,1.2-0.6,2.4-1.9,2.6
					c-1.2,0.2-2.3-0.6-2.6-1.7l0-0.1c-5.3-21.9-10.4-43.8-17.7-65c-3.3-10.7-7.5-21.1-11.4-31.5c-2.1-5.2-4.5-10.2-6.7-15.3
					c-1.2-2.5-2.2-5.1-3.5-7.6l-3.9-7.4c-10.3-19.7-22.7-38.1-37.6-54.2c-14.9-16.1-32.6-29.4-51.9-39.6l-14.8-7l-15.4-5.9
					l-15.8-4.8c-2.6-0.7-5.2-1.2-7.8-1.9c-2.6-0.6-5.3-0.9-7.9-1.3c-10.6-1.4-21.4-1.3-32.2-0.1c-10.8,1.2-21.5,3.4-32.1,6.5
					c-21.1,6.1-41.5,15.3-61,26c-9.7,5.4-19.4,11.1-28.8,17.2c-9.3,6.1-18.6,12.6-27.4,19.4l-0.1,0c-1,0.8-2.5,0.6-3.3-0.4
					C264.4,2067.6,264.5,2066.2,265.4,2065.3z"/>
			</g>
		</g>
		<g>
			<path class="st18" d="M606.4,606.9c0-83.6,67.8-151.4,151.4-151.4h1287.4c71,0,129.6,55.7,133.2,126.6l95,1866.4
				c2.8,55.5-40.9,102.3-96.4,103.3l-1475.5,26.8c-52.2,0.9-95.1-41.1-95.1-93.3V606.9z"/>
			<g>
				<path class="st5" d="M711.8,484.2c-0.2-26.7,23.4-47.5,49.9-43.9c175.8,23.8,780.3,97.6,1280.2,59.2
					c22.8-1.7,42.6,15.5,43.8,38.3l99.6,1874.8c1.4,25.7-18.3,47.7-44,49.2c-210.2,12.4-1075.9,60.5-1384.7,28.2
					c-18.8-2-33.1-17.8-33.2-36.7L711.8,484.2z"/>
				<path class="st4" d="M732.5,531.2c-0.2-25.7,22.5-45.7,48-42.2c169.2,22.9,750.9,93.9,1231.9,57c21.9-1.7,41,14.9,42.1,36.9
					l95.9,1804.2c1.3,24.7-17.6,45.9-42.3,47.4c-202.3,12-1035.4,58.3-1332.6,27.1c-18.1-1.9-31.8-17.1-31.9-35.3L732.5,531.2z"/>
				<path class="st19" d="M889.1,670.3l18,386.8c0.6,12.9,11,23.1,23.9,23.5c71.6,2,294.9,7.5,420.9,0.9c14.3-0.7,25.5-12.3,26-26.5
					c2.4-72.5,7.7-283.7-8.9-371.9c-2.7-14.3-14.9-24.7-29.4-25.2l-423.4-14.8C900.9,642.4,888.4,655,889.1,670.3z"/>
				
					<ellipse transform="matrix(0.2298 -0.9732 0.9732 0.2298 85.5764 1725.2878)" class="st20" cx="1132.8" cy="808.6" rx="83.1" ry="83.1"/>
				<path class="st20" d="M1006.5,1052.7h264.9c16.2,0,26-17.9,17.2-31.6c-22.5-35.2-69.6-86.9-151.1-84.6
					c-78.6,2.2-125.2,49-148.6,82.5C979,1033.2,989.1,1052.7,1006.5,1052.7z"/>
				<g class="st9">
					<path class="st19" d="M1948.5,704c8.3,0,14.9-5.8,14.7-13c-0.2-7.1-7.2-13.1-15.5-13.2l-464.3-8.3c-8.3-0.1-12.8,6.1-10.1,14
						l2.2,6.3c2.8,7.8,11.8,14.2,20.1,14.2H1948.5z"/>
				</g>
				<g class="st9">
					<path class="st19" d="M1483.4,741.6c-8.3-0.1-12.8,6.1-10.1,14l2.2,6.3c2.8,7.8,11.8,14.2,20.1,14.2h452.8
						c8.3,0,14.9-5.8,14.7-13c-0.2-7.1-7.2-13.1-15.5-13.2L1483.4,741.6z"/>
				</g>
				<g class="st9">
					<path class="st19" d="M1483.4,814.7c-8.3-0.1-12.8,6.1-10.1,14l2.2,6.3c2.8,7.8,11.8,14.2,20.1,14.2h452.8
						c8.3,0,14.9-5.8,14.7-13c-0.2-7.1-7.2-13.1-15.5-13.2L1483.4,814.7z"/>
				</g>
				<g class="st9">
					<path class="st19" d="M1993.6,1202c8.3,0,14.7-5.8,14.2-13c-0.5-7.1-7.6-13-15.9-13.1l-1087.7-8.6c-8.3-0.1-10.9,5.2-5.7,11.7
						l8.9,11.2c5.2,6.5,16.2,11.8,24.5,11.8H1993.6z"/>
				</g>
				<g class="st9">
					<path class="st19" d="M904.1,1239.5c-8.3-0.1-10.9,5.2-5.7,11.7l8.9,11.2c5.2,6.5,16.2,11.8,24.5,11.8h1061.8
						c8.3,0,14.7-5.8,14.2-13c-0.5-7.1-7.6-13-15.9-13.1L904.1,1239.5z"/>
				</g>
				<linearGradient id="SVGID_9_" gradientUnits="userSpaceOnUse" x1="745.1636" y1="1254.5708" x2="1984.4535" y2="2245.2117">
					<stop  offset="0" style="stop-color:#4F52FF"/>
					<stop  offset="1" style="stop-color:#4042E2"/>
				</linearGradient>
				<path class="st21" d="M899.2,1359.9c26.2-2,75.1-2.9,102.1-3.3c11.4-0.2,21.4,7.6,24.1,18.7c5.2,21.6,12.4,59,11.5,98.7
					c-0.3,11.9-10,21.4-21.9,21.2l-99.5-1.1c-12.2-0.1-22.4-9.5-23.5-21.7l-8.7-93.6C882.3,1369.2,889.5,1360.6,899.2,1359.9z"/>
				<linearGradient id="SVGID_10_" gradientUnits="userSpaceOnUse" x1="956.4691" y1="990.2285" x2="2195.7593" y2="1980.8695">
					<stop  offset="0" style="stop-color:#4F52FF"/>
					<stop  offset="1" style="stop-color:#4042E2"/>
				</linearGradient>
				<path class="st22" d="M1441.2,1359.9c26.2-2,75.1-2.9,102.1-3.3c11.4-0.2,21.4,7.6,24.1,18.7c5.2,21.6,12.4,59,11.5,98.7
					c-0.3,11.9-10,21.4-21.9,21.2l-99.5-1.1c-12.2-0.1-22.4-9.5-23.5-21.7l-8.7-93.6C1424.3,1369.2,1431.5,1360.6,1441.2,1359.9z"/>
				<g class="st9">
					<path class="st23" d="M1625.2,1398.3c-8.3-0.3-14.1,6.1-12.8,14.3l2.4,16c1.2,8.2,9,14.9,17.3,14.9h241.6
						c8.3,0,15-6.8,14.9-15.1l-0.1-4.1c-0.1-8.3-7-15.4-15.3-15.7L1625.2,1398.3z"/>
				</g>
				<g class="st9">
					<path class="st23" d="M1092.4,1398.3c-8.3-0.3-14.1,6.1-12.8,14.3l2.4,16c1.2,8.2,9,14.9,17.3,14.9H1341
						c8.3,0,15-6.8,14.9-15.1l-0.1-4.1c-0.1-8.3-7-15.4-15.3-15.7L1092.4,1398.3z"/>
				</g>
				<g>
					<path class="st23" d="M1039.6,1731.2c-0.1,0-0.2,0-0.3,0l-91.8-0.9c-13.1-0.1-23.9-9.2-25.2-21l-8.1-77c-0.5-4.5,0.9-9,4-12.6
						c3.4-4,8.5-6.6,14-6.9l0,0c7.7-0.5,18.6-1.5,30.2-2.4c24.3-2.1,54.5-4.6,71.5-4.9c12.3-0.1,22.8,7.2,25.7,18
						c4.8,17.7,4.4,51.2,3.5,86.8C1062.8,1721.9,1052.3,1731.2,1039.6,1731.2z M932.7,1619.8c-3.6,0.2-7,1.9-9.1,4.4
						c-1.8,2.1-2.6,4.7-2.3,7.3l8.1,77c0.9,8.3,8.7,14.6,18.2,14.7l91.8,0.9c0.1,0,0.1,0,0.2,0c8.9,0,16.3-6.3,16.5-14
						c0.9-35.1,1.3-68-3.2-84.8c-2-7.5-9.9-12.7-18.8-12.8c-16.7,0.2-46.8,2.8-71,4.8C951.5,1618.4,940.5,1619.3,932.7,1619.8
						L932.7,1619.8z"/>
					<path class="st24" d="M942.6,1627.8c19.3-1.3,61.2-5.6,81.1-5.8c8.4-0.1,15.8,5,17.8,12.3c3.8,14.2,3.3,42.5,2.7,68.6
						c-0.2,7.8-7.4,14.1-16.1,14l-73.4-0.7c-9-0.1-16.5-6.2-17.4-14.2l-6.4-61.6C930.2,1633.9,935.5,1628.3,942.6,1627.8z"/>
					<g class="st9">
						<path class="st23" d="M1120.2,1680.1c2.7,10.1,11.8,17.1,22.2,17l849.4-7.2c9.6-0.1,17.3-8,17.1-17.6
							c-0.2-9.3-7.8-16.8-17.2-16.9l-849.4-3.9C1127.4,1651.4,1116.4,1665.6,1120.2,1680.1z"/>
					</g>
					<linearGradient id="SVGID_11_" gradientUnits="userSpaceOnUse" x1="1216.0853" y1="1259.1904" x2="747.3063" y2="2059.2859">
						<stop  offset="0" style="stop-color:#4F52FF"/>
						<stop  offset="1" style="stop-color:#4042E2"/>
					</linearGradient>
					<path class="st25" d="M946.5,1639.9L946.5,1639.9c6.8-4,15.6-1.6,19.4,5.3l18.1,32.5c1.8,3.2,6.6,3,8.1-0.4l44.9-100
						c2.2-5,9.7-3.3,9.6,2.2c-0.5,30.6-8.6,88.7-57.4,137.4c0,0-26.9-10.5-48.6-58.1C937.5,1651.8,940,1643.7,946.5,1639.9z"/>
					<path class="st23" d="M1039.6,1928c-0.1,0-0.2,0-0.3,0l-91.8-0.9c-13.1-0.1-23.9-9.2-25.2-21l-8.1-77c-0.5-4.5,0.9-9,4-12.6
						c3.4-4,8.5-6.6,14-6.9l0,0c7.7-0.5,18.6-1.5,30.2-2.4c24.3-2.1,54.5-4.6,71.5-4.9c0.1,0,0.2,0,0.4,0c12.1,0,22.5,7.4,25.3,18
						c4.8,17.7,4.4,51.2,3.5,86.8C1062.8,1918.6,1052.3,1928,1039.6,1928z M932.7,1816.6c-3.6,0.2-7,1.9-9.1,4.4
						c-1.8,2.1-2.6,4.7-2.3,7.3l8.1,77c0.9,8.3,8.7,14.6,18.2,14.7l91.8,0.9c0.1,0,0.1,0,0.2,0c8.9,0,16.3-6.3,16.5-14
						c0.9-35.1,1.3-68-3.2-84.8c-2-7.5-10-12.9-18.8-12.8c-16.7,0.2-46.8,2.8-71,4.8C951.5,1815.1,940.5,1816.1,932.7,1816.6
						L932.7,1816.6z"/>
					<path class="st24" d="M942.6,1824.5c19.3-1.3,61.2-5.6,81.1-5.8c8.4-0.1,15.8,5,17.8,12.3c3.8,14.2,3.3,42.5,2.7,68.6
						c-0.2,7.8-7.4,14.1-16.1,14l-73.4-0.7c-9-0.1-16.5-6.2-17.4-14.2l-6.4-61.6C930.2,1830.7,935.5,1825,942.6,1824.5z"/>
					<g class="st9">
						<path class="st23" d="M1120.2,1876.8c2.7,10.1,11.8,17.1,22.2,17l849.4-7.2c9.6-0.1,17.3-8,17.1-17.6
							c-0.2-9.3-7.8-16.8-17.2-16.9l-849.4-3.9C1127.4,1848.1,1116.4,1862.3,1120.2,1876.8z"/>
					</g>
					<linearGradient id="SVGID_12_" gradientUnits="userSpaceOnUse" x1="1301.9061" y1="1309.4724" x2="833.1262" y2="2109.5696">
						<stop  offset="0" style="stop-color:#4F52FF"/>
						<stop  offset="1" style="stop-color:#4042E2"/>
					</linearGradient>
					<path class="st26" d="M946.5,1836.6L946.5,1836.6c6.8-4,15.6-1.6,19.4,5.3l18.1,32.5c1.8,3.2,6.6,3,8.1-0.4l44.9-100
						c2.2-5,9.7-3.3,9.6,2.2c-0.5,30.6-8.6,88.7-57.4,137.4c0,0-26.9-10.5-48.6-58.1C937.5,1848.6,940,1840.4,946.5,1836.6z"/>
					<path class="st23" d="M1039.6,2124.7c-0.1,0-0.2,0-0.3,0l-91.8-0.9c-13.1-0.1-23.9-9.1-25.2-21l-8.1-77c-0.5-4.5,0.9-9,4-12.6
						c3.4-4,8.5-6.6,14-6.9l0,0c7.7-0.5,18.6-1.5,30.2-2.4c24.3-2.1,54.5-4.6,71.5-4.9c0.1,0,0.2,0,0.4,0c12.1,0,22.5,7.4,25.3,18
						c4.8,17.7,4.4,51.2,3.5,86.8C1062.8,2115.4,1052.3,2124.7,1039.6,2124.7z M932.7,2013.3c-3.6,0.2-7,1.9-9.1,4.4
						c-1.8,2.1-2.6,4.7-2.3,7.3l8.1,77c0.9,8.3,8.7,14.6,18.2,14.7l91.8,0.9c0.1,0,0.1,0,0.2,0c8.9,0,16.3-6.3,16.5-14
						c0.9-35.1,1.3-68-3.2-84.8c-2-7.5-10-12.9-18.8-12.8c-16.7,0.2-46.8,2.8-71,4.8C951.5,2011.9,940.5,2012.8,932.7,2013.3
						L932.7,2013.3z"/>
					<path class="st24" d="M942.6,2021.3c19.3-1.3,61.2-5.6,81.1-5.8c8.4-0.1,15.8,5,17.8,12.3c3.8,14.2,3.3,42.5,2.7,68.6
						c-0.2,7.8-7.4,14.1-16.1,14l-73.4-0.7c-9-0.1-16.5-6.2-17.4-14.2l-6.4-61.6C930.2,2027.4,935.5,2021.8,942.6,2021.3z"/>
					<g class="st9">
						<path class="st23" d="M1120.2,2073.6c2.7,10.1,11.8,17.1,22.2,17l849.4-7.2c9.6-0.1,17.3-8,17.1-17.6
							c-0.2-9.3-7.8-16.8-17.2-16.9l-849.4-3.9C1127.4,2044.9,1116.4,2059.1,1120.2,2073.6z"/>
					</g>
					<linearGradient id="SVGID_13_" gradientUnits="userSpaceOnUse" x1="1374.0653" y1="1506.7063" x2="757.2504" y2="2366.7219">
						<stop  offset="0" style="stop-color:#4F52FF"/>
						<stop  offset="1" style="stop-color:#4042E2"/>
					</linearGradient>
					<path class="st27" d="M946.5,2033.4L946.5,2033.4c6.8-4,15.6-1.6,19.4,5.3l18.1,32.5c1.8,3.2,6.6,3,8.1-0.4l44.9-100
						c2.2-5,9.7-3.3,9.6,2.2c-0.5,30.6-8.6,88.7-57.4,137.4c0,0-26.9-10.5-48.6-58.1C937.5,2045.4,940,2037.2,946.5,2033.4z"/>
					<path class="st23" d="M1039.6,2321.5c-0.1,0-0.2,0-0.3,0l-91.8-0.9c-13.1-0.1-23.9-9.1-25.2-21l-8.1-77c-0.5-4.5,0.9-9,4-12.6
						c3.4-4,8.5-6.6,14-6.9l0,0c7.7-0.5,18.6-1.5,30.2-2.4c24.3-2.1,54.5-4.6,71.5-4.9c0.1,0,0.2,0,0.4,0c12.1,0,22.5,7.4,25.3,18
						c4.8,17.7,4.4,51.2,3.5,86.8C1062.8,2312.1,1052.3,2321.5,1039.6,2321.5z M932.7,2210.1c-3.6,0.2-7,1.9-9.1,4.4
						c-1.8,2.1-2.6,4.7-2.3,7.3l8.1,77c0.9,8.3,8.7,14.6,18.2,14.7l91.8,0.9c0.1,0,0.1,0,0.2,0c8.9,0,16.3-6.3,16.5-14
						c0.9-35.1,1.3-68-3.2-84.8c-2-7.5-10-13-18.8-12.8c-16.7,0.2-46.8,2.8-71,4.8C951.5,2208.6,940.5,2209.6,932.7,2210.1
						L932.7,2210.1z"/>
					<path class="st24" d="M942.6,2218.1c19.3-1.3,61.2-5.6,81.1-5.8c8.4-0.1,15.8,5,17.8,12.3c3.8,14.2,3.3,42.5,2.7,68.6
						c-0.2,7.8-7.4,14.1-16.1,14l-73.4-0.7c-9-0.1-16.5-6.2-17.4-14.2l-6.4-61.6C930.2,2224.2,935.5,2218.5,942.6,2218.1z"/>
					<g class="st9">
						<path class="st23" d="M1120.2,2270.3L1120.2,2270.3c2.7,10.1,11.8,17.1,22.2,17l849.4-7.2c9.6-0.1,17.3-8,17.1-17.6
							c-0.2-9.3-7.8-16.8-17.2-16.9l-849.4-3.9C1127.4,2241.7,1116.4,2255.8,1120.2,2270.3z"/>
					</g>
					<linearGradient id="SVGID_14_" gradientUnits="userSpaceOnUse" x1="1473.5471" y1="1410.0371" x2="1004.7676" y2="2210.1333">
						<stop  offset="0" style="stop-color:#4F52FF"/>
						<stop  offset="1" style="stop-color:#4042E2"/>
					</linearGradient>
					<path class="st28" d="M946.5,2230.1L946.5,2230.1c6.8-4,15.6-1.6,19.4,5.3l18.1,32.5c1.8,3.2,6.6,3,8.1-0.4l44.9-100
						c2.2-5,9.7-3.3,9.6,2.2c-0.5,30.6-8.6,88.7-57.4,137.4c0,0-26.9-10.5-48.6-58.1C937.5,2242.1,940,2234,946.5,2230.1z"/>
				</g>
			</g>
			<path class="st18" d="M1481.3,201c-46.5-32.4-86.9-31.7-115.4-23.3c-26,7.7-42.8,32.7-40.3,59.7l12.3,134l146.1,13
				C1483.9,384.3,1572.5,264.4,1481.3,201z M1417,309.1c-20.1,0-36.4-16.3-36.4-36.4c0-20.1,16.3-36.4,36.4-36.4
				c20.1,0,36.4,16.3,36.4,36.4C1453.5,292.8,1437.1,309.1,1417,309.1z"/>
			<path class="st2" d="M1352.4,315c-1.8,0-3.3-1.4-3.5-3.2l-2-21.3c-0.2-1.9,1.2-3.7,3.2-3.8c2-0.2,3.7,1.2,3.8,3.2l2,21.3
				c0.2,1.9-1.2,3.7-3.2,3.8C1352.6,315,1352.5,315,1352.4,315z M1348.6,273.2c-1.8,0-3.3-1.4-3.5-3.2l-1.5-16.2
				c-2.4-25.7,13.8-49.6,38.4-56.9c17.4-5.1,35.4-5.9,53.4-2.2c1.9,0.4,3.1,2.3,2.7,4.2c-0.4,1.9-2.2,3.1-4.2,2.7
				c-16.9-3.4-33.7-2.8-50,2c-21.4,6.3-35.4,27.1-33.4,49.5l1.5,16.2c0.2,1.9-1.2,3.7-3.2,3.8
				C1348.8,273.2,1348.7,273.2,1348.6,273.2z"/>
			<path class="st18" d="M1138.5,457.9v-67.4c0-23.3,19.3-41.9,42.5-41.1l464.4,15.9c20.6,0.7,37.3,17,38.5,37.6l3.9,64.7
				L1138.5,457.9z"/>
			<path class="st2" d="M1311.6,374.9h-20c-1.9,0-3.5-1.6-3.5-3.5c0-1.9,1.6-3.5,3.5-3.5h20c1.9,0,3.5,1.6,3.5,3.5
				C1315.2,373.3,1313.6,374.9,1311.6,374.9z"/>
			<path class="st2" d="M1163.6,436.8c-1.9,0-3.5-1.6-3.5-3.5V406c0-21.1,17.1-38.2,38.2-38.2h73.4c1.9,0,3.5,1.6,3.5,3.5
				c0,1.9-1.6,3.5-3.5,3.5h-73.4c-17.2,0-31.1,14-31.1,31.1v27.3C1167.1,435.2,1165.5,436.8,1163.6,436.8z"/>
			<path class="st20" d="M1810.8,898l-109.3-89.1L1592.1,898c8.7-83.9,12.8-177.4,8.2-278.9c-1.5-32.3-3.7-63.7-6.6-93.9
				c-0.4-3.9,0.9-7.7,3.5-10.6c2.6-2.9,6.4-4.5,10.3-4.5c63.4,0,126.8,0,190.2,0c7.4,0,13.4,5.8,13.8,13.1
				c2.4,46.4,4,94.5,4.5,144.1C1816.9,748.1,1814.9,825.1,1810.8,898z"/>
			<linearGradient id="SVGID_15_" gradientUnits="userSpaceOnUse" x1="1615.2277" y1="105.867" x2="1206.3668" y2="856.6185">
				<stop  offset="0" style="stop-color:#4F52FF"/>
				<stop  offset="1" style="stop-color:#4042E2"/>
			</linearGradient>
			<path class="st29" d="M949.2,475c1.1-23.3,20.4-41.7,43.7-41.7l812.1,0c29.2,0,54.2,21,59.1,49.8l0.7,4
				c5.5,31.5-18.8,60.3-50.8,60.3H980.9c-19.1,0-34.4-16-33.5-35.1L949.2,475z"/>
		</g>
		<g>
			<path class="st30" d="M2367,2723.2c-42.5,2-83.7,0.7-111.2-0.7c25-17.8,82.7-56.6,131-72l33.1-2c0,0,11.2,17.1,15.2,56.1
				C2429.7,2711.5,2413.6,2721,2367,2723.2z"/>
			<linearGradient id="SVGID_16_" gradientUnits="userSpaceOnUse" x1="2114.657" y1="2453.8962" x2="2495.302" y2="2890.6731">
				<stop  offset="0" style="stop-color:#090056"/>
				<stop  offset="1" style="stop-color:#020039"/>
			</linearGradient>
			<path class="st31" d="M2255.5,2722.7c0.1-0.1,0.2-0.2,0.3-0.2c27.5,1.4,68.7,2.6,111.2,0.7c46.6-2.1,62.6-11.7,68.1-18.5
				c0.2,1.8,0.4,3.6,0.5,5.5c0.7,8.6-5.7,16.1-14.3,16.8c-34.8,2.6-121.2,8.6-162.9,6.4C2253,2733,2251,2725.9,2255.5,2722.7z"/>
			<path class="st30" d="M2671.3,2711.8c3.1-20,8.1-48.8,12-56.2c6.1-11.6,26.8,0,26.8,0s14.6,6.8,21.3,18.1
				c4.3,7.2,16.1,27.7,24.1,41.7c0.9,1.6,1.3,3.3,1.3,5l-83,2.9C2671.6,2719.9,2670.7,2716,2671.3,2711.8z"/>
			<linearGradient id="SVGID_17_" gradientUnits="userSpaceOnUse" x1="2323.2112" y1="2272.1406" x2="2703.8557" y2="2708.917">
				<stop  offset="0" style="stop-color:#090056"/>
				<stop  offset="1" style="stop-color:#020039"/>
			</linearGradient>
			<path class="st32" d="M2756.7,2720.3c-0.1,4.7-3.9,9-9.2,9.2l-59.1,1.6c-6.2,0.2-11.7-3.1-14.7-7.9L2756.7,2720.3z"/>
			<path class="st33" d="M2665,2589.2c0.7,2.4,11.4,54.4,16.1,77.2c1.3,6.3,7,10.7,13.4,10.4c3.5-0.2,7.6-0.5,11.9-1
				c7.6-1,13.4-7.3,13.7-15c0.8-20,1.1-58.4-6.2-73.2C2703.8,2567,2665,2589.2,2665,2589.2z"/>
			<path class="st33" d="M2426.4,2604.1c-4.6-0.1,1.8,23.8-5.1,47.2c-1.6,5.3-5.5,9.5-11.1,9.5c-3.6,0-7.8,0-12.1-0.4
				c-6.5-0.5-11.7-5.5-12.3-12l-5.7-60.9L2426.4,2604.1z"/>
			<path class="st30" d="M2297.8,1956.4c2.1,10,74.5,432.7,78.9,651.5c0.1,3.7,2.8,6.7,6.4,7.3c9.2,1.3,27.1,2.9,44.5-0.3
				c2.4-0.4,4.2-2.4,4.3-4.8c2.5-40.8,22.9-385.4-2-547.7c0,0,206.1,433.7,237.3,553.3c0.8,2.9,3.4,4.9,6.4,4.7
				c8.8-0.5,27.2-2.1,41.8-7.4c5.2-1.9,8.2-7.4,6.9-12.8c-17.5-71.6-139.8-564.7-222.8-673.3L2297.8,1956.4z"/>
			
				<linearGradient id="SVGID_18_" gradientUnits="userSpaceOnUse" x1="-1218.9548" y1="1912.9413" x2="-1408.3054" y2="2157.7441" gradientTransform="matrix(-1 0 0 1 1092.441 0)">
				<stop  offset="0" style="stop-color:#CB236D"/>
				<stop  offset="1" style="stop-color:#4C246D"/>
			</linearGradient>
			<path class="st34" d="M2429.9,2065.1c0.7,0,1.4-0.3,1.9-0.8c1.1-1,1.1-2.8,0-3.8l-27.6-28.2c-1-1.1-2.8-1.1-3.8,0
				c-1.1,1-1.1,2.8,0,3.8l27.6,28.2C2428.5,2064.8,2429.2,2065.1,2429.9,2065.1z"/>
			<path class="st35" d="M2228.1,1410.9c61.7-9.3,182.7-22.5,261.6,0.6l-8.6,243.9l-286-30.8l-24.3-34.5
				C2170.9,1590.1,2182.1,1417.8,2228.1,1410.9z"/>
			<path class="st36" d="M2370.5,1280.3c0,0,5.7,97,4.6,127.2c0,0-79.4,13-98.3-0.6l14.9-115L2370.5,1280.3z"/>
			<g>
				<path class="st33" d="M2293.3,1183.1c0,0-32,56.1-37,86.9c-5.1,30.7-13.9,50.1,21.2,60.1c35.1,10.1,67.1-4.5,86.7-33.5
					c0,0,30.7-44.7,27-64.8C2387.6,1211.8,2293.3,1183.1,2293.3,1183.1z"/>
				<linearGradient id="SVGID_19_" gradientUnits="userSpaceOnUse" x1="2245.3638" y1="1190.1035" x2="2613.7295" y2="1290.0883">
					<stop  offset="0" style="stop-color:#090056"/>
					<stop  offset="1" style="stop-color:#020039"/>
				</linearGradient>
				<path class="st37" d="M2354.3,1273.2l-4.5-0.5c0,0,22.7-36.2,7.1-44.7c-15.6-8.5-79-28.7-90.5-53.2c-11.1-23.6,4-51,22.9-57
					c1.2-0.4,2.5,0.3,2.9,1.5l1.2,3c0.8,2,3.7,2.1,4.5,0l0,0c0.8-1.9,3.5-2.1,4.4-0.2c3.5,7.3,13.9,19.8,44.4,28.9
					c43.2,12.9,70.5,33.9,67.9,64.4c-0.2,1.9,1.8,3.2,3.5,2.4c3.5-1.6,8.8-2,15.1,4.6c11,11.5,3.2,37.4-25.7,56.2
					c-1.4,0.9-1.6,2.9-0.3,3.9c4.5,3.7,10.8,11.9-8.8,19.8c-20.1,8.1-31.2,5.8-35.4,4.3c-1.1-0.4-1.8-1.5-1.6-2.7l4.6-26.8
					c0.2-1.4-0.7-2.7-2.1-2.8L2354.3,1273.2z"/>
				<path class="st33" d="M2352.6,1278.7c0,0,13.8-36.6,29.6-24.2c15.7,12.4-13.3,41.2-27,41.2L2352.6,1278.7z"/>
			</g>
			<g>
				<path class="st20" d="M2010.1,1601.7l7.6-29.8c3.8-14.7,18.4-23.9,33.3-20.9l714.1,145.7c16.3,3.3,26.7,19.2,23.3,35.5
					l-43.5,206.4L2010.1,1601.7z"/>
				<path class="st2" d="M1942.4,1963.7l53.7-386c1.1-8,8.8-13.3,16.7-11.6l733.5,162.9c15.7,3.5,25.5,19,21.9,34.7l-61.6,266.8
					L1942.4,1963.7z"/>
				<path class="st2" d="M1961.8,1946.3l20.6-344.6c0.5-8.9,8.8-15.2,17.5-13.3l741.2,156.8c10.5,2.2,17.3,12.2,15.7,22.8
					l-39.5,248.9L1961.8,1946.3z"/>
				<path class="st20" d="M1908.1,2027.7l46.7-373.2c2.3-18.6,19.9-31.4,38.3-27.9l760,143.5c15.4,2.9,25.5,17.8,22.6,33.2
					l-64.2,340.1c-3,16-18.1,26.9-34.3,24.8l-736.8-98.4C1920,2066.9,1905.5,2048.2,1908.1,2027.7z"/>
				<path class="st20" d="M2260.5,1677.1L2260.5,1677.1c-3,15.8-18.2,26.2-34.1,23.3l-169.5-32c-15.8-3-26.2-18.2-23.3-34.1l0,0
					c3-15.8,18.2-26.2,34.1-23.3l169.5,32C2253,1646,2263.5,1661.2,2260.5,1677.1z"/>
			</g>
			<path class="st35" d="M2409.9,1517.9l79.8-106.4c0,0,128.2,136.2,152.8,309l-79.9,39C2537.6,1701.3,2492,1622.4,2409.9,1517.9z"
				/>
			<path class="st33" d="M2524.2,1997c9.4-15.8,27.9-45.9,36.9-55.3c0,0-8.2-5.2-23.9-3.2c-15.7,1.9-28.1-5.7-27.6-14.3l75.1-23
				c3.4-7,18.2-47-22.1-141.7l79.9-39c9.2,64.7,3.9,134.5-28.1,204.3c0,0-24.8,77.1-53.4,94.2
				C2486.5,2063.6,2520.5,2003.1,2524.2,1997z"/>
		</g>
		<g>
			<path class="st2" d="M615,996.5l-15.8,19.9l-0.1,0.1c-1.1,1.5-3.3,1.7-4.7,0.6c-1.5-1.1-1.7-3.3-0.6-4.7c0,0,0,0,0-0.1l16.3-19.7
				c1.1-1.3,3-1.5,4.3-0.4C615.9,993.3,616.1,995.1,615,996.5L615,996.5z"/>
			<path class="st2" d="M561.7,1069.1l-26.7,42.6l-0.1,0.2c-1.4,2.2-4.2,2.8-6.4,1.5c-2.2-1.4-2.8-4.2-1.5-6.4c0,0,0-0.1,0-0.1
				l27.8-42.5c1.2-1.9,3.8-2.4,5.7-1.2c1.9,1.2,2.4,3.7,1.2,5.6L561.7,1069.1z"/>
			<path class="st2" d="M504,1168.4l-21.4,45.4l-0.1,0.3c-1.3,2.8-4.7,4-7.5,2.7c-2.8-1.3-4-4.7-2.7-7.5c0,0,0-0.1,0-0.1l22.5-45.6
				c1.3-2.6,4.4-3.6,6.9-2.4c2.5,1.3,3.6,4.3,2.4,6.9L504,1168.4z"/>
			<path class="st2" d="M458.8,1273.8l-15.5,47.7l-0.1,0.4c-1.1,3.5-4.9,5.4-8.4,4.3c-3.5-1.1-5.4-4.9-4.3-8.4c0,0,0-0.1,0-0.1
				l16.6-48.1c1.1-3.2,4.7-5,7.9-3.8c3.2,1.1,4.9,4.6,3.9,7.8L458.8,1273.8z"/>
			<path class="st2" d="M427.2,1383.8l-9.3,49.2l-0.1,0.4c-0.8,4-4.6,6.7-8.7,5.9c-4-0.8-6.7-4.6-5.9-8.7l0-0.1l10-49.9
				c0.8-3.9,4.5-6.4,8.4-5.6c3.8,0.8,6.3,4.5,5.6,8.3L427.2,1383.8z"/>
			<path class="st2" d="M410.3,1496.9l-2.5,50l0,0.5c-0.2,4.4-4,7.9-8.4,7.6c-4.4-0.2-7.9-4-7.6-8.4l0-0.1l3.1-50.9
				c0.3-4.3,3.9-7.5,8.2-7.3c4.3,0.3,7.5,3.9,7.3,8.1L410.3,1496.9z"/>
			<path class="st2" d="M409.2,1611.2l4.4,49.8l0,0.5c0.4,4.8-3.1,9-7.9,9.4c-4.8,0.4-9-3.1-9.4-7.9l0-0.1l-4-50.9
				c-0.4-4.6,3.1-8.7,7.7-9c4.6-0.4,8.6,3,9,7.6L409.2,1611.2z"/>
			<path class="st2" d="M423.7,1724.4l11.2,48.7l0.1,0.5c1.2,5-2,10-7,11.1c-5,1.1-10-2-11.1-7l0-0.1l-10.9-49.9
				c-1.1-4.9,2-9.7,6.9-10.7c4.8-1.1,9.6,2,10.7,6.8L423.7,1724.4z"/>
			<path class="st2" d="M453.5,1834.6l17.5,46.8l0.2,0.5c1.9,5.1-0.7,10.7-5.7,12.6c-5.1,1.9-10.7-0.7-12.6-5.7l0,0l-17.6-47.9
				c-1.8-5,0.7-10.5,5.7-12.4c5-1.8,10.5,0.7,12.4,5.7L453.5,1834.6z"/>
			<path class="st2" d="M497.2,1940l23.3,44.2l0.3,0.5c2.6,4.9,0.7,10.9-4.2,13.5c-4.9,2.6-10.9,0.7-13.5-4.2l0,0l-23.7-45.2
				c-2.5-4.8-0.7-10.8,4.2-13.3c4.8-2.5,10.8-0.7,13.3,4.2L497.2,1940z"/>
			<path class="st2" d="M554.1,2038.9l28.7,40.9l0.3,0.5c3.2,4.6,2.1,11-2.5,14.2c-4.6,3.2-11,2.1-14.2-2.5l0,0l-29.2-41.9
				c-3.2-4.6-2.1-10.9,2.5-14.1c4.6-3.2,10.9-2.1,14.1,2.5L554.1,2038.9z"/>
			<path class="st2" d="M622.9,2130l33.6,37l0.4,0.4c3.9,4.2,3.5,10.8-0.7,14.7c-4.2,3.9-10.8,3.5-14.7-0.7l0,0l-34.2-37.9
				c-3.8-4.2-3.5-10.7,0.8-14.6c4.2-3.8,10.7-3.5,14.6,0.7L622.9,2130z"/>
			<path class="st2" d="M702.6,2211.6l38.1,32.2l0.5,0.4c4.5,3.8,5,10.5,1.2,14.9c-3.8,4.5-10.5,5-14.9,1.2l0,0l-38.9-33.2
				c-4.4-3.8-4.9-10.4-1.2-14.8c3.8-4.4,10.4-4.9,14.8-1.2L702.6,2211.6z"/>
			<path class="st2" d="M792.3,2281.6l21.1,13.2l10.6,6.6c3.5,2.2,7,4.5,10.6,6.5c5.2,2.9,7.1,9.5,4.2,14.7
				c-2.9,5.2-9.5,7.1-14.7,4.2l0,0l-0.3-0.2c-3.7-2.1-7.3-4.5-10.9-6.7l-10.9-6.8l-21.7-13.6c-5-3.2-6.5-9.8-3.4-14.8
				c3.1-5,9.8-6.5,14.8-3.4L792.3,2281.6z"/>
			<path class="st2" d="M891.5,2336.9c15.1,6.9,30.4,13.3,45.9,19.1c5.6,2.1,8.5,8.4,6.3,14c-2.1,5.6-8.4,8.5-14,6.4
				c-16-6-31.8-12.5-47.3-19.6c-5.5-2.5-7.9-9-5.4-14.5C879.5,2336.8,886,2334.4,891.5,2336.9L891.5,2336.9z"/>
			<path class="st2" d="M998.2,2376l48.4,12l0.7,0.2c5.8,1.4,9.3,7.2,7.8,13c-1.4,5.8-7.2,9.3-13,7.8l-49.7-12.2
				c-5.8-1.4-9.3-7.3-7.9-13.1c1.4-5.8,7.3-9.3,13.1-7.9l0,0L998.2,2376z"/>
			<path class="st2" d="M1109.7,2399l49.6,5.3l0.6,0.1c5.8,0.6,10,5.8,9.4,11.6c-0.6,5.8-5.8,10-11.6,9.4l-50.8-5.2
				c-5.8-0.6-10.1-5.8-9.5-11.7c0.6-5.8,5.8-10.1,11.7-9.5l0,0L1109.7,2399z"/>
			<path class="st2" d="M1223.4,2407.1l50-0.8l0.5,0c5.6-0.1,10.2,4.4,10.3,10c0.1,5.6-4.3,10.2-9.9,10.3l-51,1.2
				c-5.7,0.1-10.4-4.4-10.6-10.1c-0.1-5.7,4.4-10.4,10.1-10.6l0.1,0L1223.4,2407.1z"/>
			<path class="st2" d="M1337.5,2401.6l49.6-6.4l0.5-0.1c5.3-0.7,10.2,3.1,10.8,8.4c0.7,5.3-3,10.1-8.3,10.8l-50.5,6.9
				c-5.4,0.7-10.4-3-11.1-8.4c-0.7-5.4,3-10.4,8.4-11.1l0.1,0L1337.5,2401.6z"/>
			<path class="st2" d="M1450.5,2383.8l48.8-11.4l0.4-0.1c4.8-1.1,9.5,1.8,10.6,6.6c1.1,4.7-1.8,9.4-6.5,10.6l-49.4,12.3
				c-4.9,1.2-9.9-1.8-11.2-6.7c-1.2-4.9,1.8-9.9,6.7-11.2c0,0,0.1,0,0.1,0L1450.5,2383.8z"/>
			<path class="st2" d="M1561.3,2354.7l47.5-16l0.3-0.1c4.2-1.4,8.7,0.8,10.1,5c1.4,4.1-0.8,8.6-4.9,10.1l-47.9,16.9
				c-4.4,1.5-9.1-0.7-10.7-5.1c-1.5-4.4,0.7-9.1,5.1-10.7c0,0,0,0,0.1,0L1561.3,2354.7z"/>
			<path class="st2" d="M1669.1,2315.3l46-20.3l0.3-0.1c3.6-1.6,7.8,0,9.4,3.7c1.6,3.6,0,7.7-3.6,9.4l-46.2,21.2
				c-3.8,1.7-8.2,0.1-10-3.7c-1.7-3.8-0.1-8.2,3.7-10c0,0,0,0,0.1,0L1669.1,2315.3z"/>
			<path class="st2" d="M1773.1,2266.7l44.2-23.9l0.2-0.1c2.8-1.5,6.4-0.5,7.9,2.4c1.5,2.8,0.5,6.3-2.2,7.8l-44,25.2
				c-3.1,1.8-7,0.7-8.8-2.4c-1.8-3.1-0.7-7,2.4-8.8c0,0,0.1,0,0.1-0.1L1773.1,2266.7z"/>
			<path class="st2" d="M1872.9,2209.7l42.2-27.5l0.1-0.1c2.1-1.3,4.8-0.8,6.2,1.3c1.3,2,0.8,4.7-1.2,6.1l-41.8,28.7
				c-2.3,1.6-5.5,1-7-1.3c-1.6-2.3-1-5.5,1.3-7c0,0,0.1,0,0.1-0.1L1872.9,2209.7z"/>
			<path class="st2" d="M1968.2,2144.8l20.4-15.3l0,0c1.3-1,3.3-0.7,4.3,0.6c1,1.3,0.7,3.2-0.5,4.2l-20,16c-1.5,1.2-3.7,1-4.9-0.5
				c-1.2-1.5-1-3.7,0.5-4.9C1968.1,2144.9,1968.2,2144.9,1968.2,2144.8L1968.2,2144.8z"/>
		</g>
	</g>
</g>
</svg>
