<?xml version="1.0" encoding="utf-8"?>
<!-- Generator: Adobe Illustrator 23.1.0, SVG Export Plug-In . SVG Version: 6.00 Build 0)  -->
<svg version="1.1" id="Layer_1" xmlns="http://www.w3.org/2000/svg" xmlns:xlink="http://www.w3.org/1999/xlink" x="0px" y="0px"
	 viewBox="0 0 2776.8 2628.5" style="enable-background:new 0 0 2776.8 2628.5;" xml:space="preserve">
<style type="text/css">
	.st0{display:none;}
	.st1{display:inline;}
	.st2{fill:#FFFFFF;}
	.st3{display:none;fill:url(#SVGID_1_);}
	.st4{fill:#B394F0;}
	.st5{opacity:0.6;fill:#FFFFFF;enable-background:new    ;}
	.st6{opacity:0.78;fill:#FFFFFF;enable-background:new    ;}
	.st7{fill:url(#SVGID_2_);}
	.st8{fill:url(#SVGID_3_);}
	.st9{opacity:0.6;}
	.st10{fill:url(#SVGID_4_);}
	.st11{fill:url(#SVGID_5_);}
	.st12{fill:url(#SVGID_6_);}
	.st13{fill:url(#SVGID_7_);}
	.st14{fill:url(#SVGID_8_);}
	.st15{fill:#A2E6EA;}
	.st16{opacity:0.5;fill:#FFFFFF;enable-background:new    ;}
	.st17{fill:#78CAD2;}
	.st18{fill:#2F11AA;}
	.st19{fill:#E1D4F9;}
	.st20{fill:#FF8F8A;}
	.st21{fill:url(#SVGID_9_);}
	.st22{fill:url(#SVGID_10_);}
	.st23{fill:#E2D6F9;}
	.st24{opacity:0.6;fill:#E2D6F9;enable-background:new    ;}
	.st25{fill:url(#SVGID_11_);}
	.st26{fill:url(#SVGID_12_);}
	.st27{fill:url(#SVGID_13_);}
	.st28{fill:url(#SVGID_14_);}
	.st29{fill:url(#SVGID_15_);}
	.st30{fill:#18093C;}
	.st31{fill:url(#SVGID_16_);}
	.st32{fill:url(#SVGID_17_);}
	.st33{fill:#FFB27D;}
	.st34{fill:url(#SVGID_18_);}
	.st35{fill:#6836E0;}
	.st36{fill:#EF9D65;}
	.st37{fill:url(#SVGID_19_);}
</style>
<g id="Background" class="st0">
	<g class="st1">
		<g>
			<rect x="-460" y="-560.4" class="st2" width="3710" height="3710"/>
		</g>
	</g>
</g>
<g id="Illustration">
	<g>
		
			<linearGradient id="SVGID_1_" gradientUnits="userSpaceOnUse" x1="2793.5916" y1="-308.1042" x2="292.4612" y2="2541.2893" gradientTransform="matrix(1 0 0 -1 0 2589.2395)">
			<stop  offset="0" style="stop-color:#DAE3FE"/>
			<stop  offset="1" style="stop-color:#E9EFFD"/>
		</linearGradient>
		<path class="st3" d="M2450.4,2267.7c-503.7,531.6-1277.5,374.3-1391.9,349c-144.1-31.8-486.9-107.6-742.7-406.7
			C-75.9,1752.1-36.3,1036.5,266.2,554.1c88-140.4,384.2-557.5,940.4-648.3c32.5-5.3,613.3-90.5,1080.6,301.6
			c63,52.9,164.7,148.6,253.9,288C2817.6,928.1,2948.5,1742.1,2450.4,2267.7z"/>
		<g>
			<path class="st4" d="M1358.9,37.4c5.7-27.9,34.7-44.2,61.5-34.7C1598.1,66,2210.8,275.3,2739.2,345c24.1,3.2,40.9,25.5,37.1,49.5
				l-307.4,1972.2c-4.2,27-29.5,45.6-56.5,41.6C2191,2375.2,1279.8,2235.4,965.7,2134c-19.1-6.2-30.5-25.8-26.5-45.4L1358.9,37.4z"
				/>
			<path class="st5" d="M1370.1,90.8c5.5-26.8,33.4-42.6,59.2-33.4c171,61,760.6,262.3,1269.1,329.4c23.2,3.1,39.3,24.5,35.7,47.6
				l-295.8,1897.9c-4.1,26-28.3,43.9-54.4,40c-213.1-31.9-1089.9-166.4-1392.3-264c-18.4-5.9-29.3-24.8-25.5-43.7L1370.1,90.8z"/>
			<path class="st6" d="M1536.7,247.4c-15.8-3.9-31.5,6.5-34.1,22.5l-66.1,406.3c-2.2,13.5,6.4,26.4,19.7,29.6
				c74.1,17.8,305.1,72.4,437.7,93.2c15,2.4,29.3-7.2,32.9-21.9c18.4-74.9,70.2-293.4,72.3-388.9c0.3-15.4-10.1-29-25.1-32.7
				L1536.7,247.4z"/>
			
				<linearGradient id="SVGID_2_" gradientUnits="userSpaceOnUse" x1="1938.2649" y1="2369.6274" x2="1271.2428" y2="1376.5896" gradientTransform="matrix(0.9785 0.2062 0.2062 -0.9785 -523.3556 2253.7808)">
				<stop  offset="0" style="stop-color:#FDF53F"/>
				<stop  offset="1" style="stop-color:#D93C65"/>
			</linearGradient>
			<circle class="st7" cx="1725.7" cy="467.2" r="88.4"/>
			
				<linearGradient id="SVGID_3_" gradientUnits="userSpaceOnUse" x1="2052.1807" y1="2293.0979" x2="1385.1713" y2="1300.0789" gradientTransform="matrix(0.9785 0.2062 0.2062 -0.9785 -523.3556 2253.7808)">
				<stop  offset="0" style="stop-color:#FDF53F"/>
				<stop  offset="1" style="stop-color:#D93C65"/>
			</linearGradient>
			<path class="st8" d="M1540.8,693.4l275.6,58.1c16.9,3.6,31-13,24.9-29.1c-15.7-41.6-53.3-105.7-138.7-121.1
				c-82.2-14.9-140.9,23.5-172.6,53.2C1516.5,667.1,1522.7,689.6,1540.8,693.4z"/>
			<g class="st9">
				<path class="st2" d="M2597.2,537.2c8.6,1.8,16.8-2.8,18.1-10.3s-4.6-15.2-13.2-17.2L2121,399.3c-8.6-2-14.7,3.6-13.5,12.3l0.9,7
					c1.2,8.7,9.2,17.4,17.8,19.2L2597.2,537.2z"/>
			</g>
			<g class="st9">
				<path class="st2" d="M2105.1,474.3c-8.6-2-14.7,3.6-13.5,12.3l0.9,7c1.2,8.7,9.2,17.4,17.8,19.2l471.1,99.3
					c8.6,1.8,16.8-2.8,18.1-10.3s-4.6-15.2-13.2-17.2L2105.1,474.3z"/>
			</g>
			<g class="st9">
				<path class="st2" d="M2089.1,550.4c-8.6-2-14.7,3.6-13.5,12.3l0.9,7c1.2,8.7,9.2,17.4,17.8,19.2l471.1,99.3
					c8.6,1.8,16.8-2.8,18.1-10.3s-4.6-15.2-13.2-17.2L2089.1,550.4z"/>
			</g>
			<g class="st9">
				<path class="st2" d="M2534.9,1065.2c8.6,1.8,16.6-2.9,17.6-10.4s-5.1-15.2-13.7-17.1L1409.1,790.3c-8.6-1.9-12.4,3-8.5,10.9
					l6.8,13.6c4,7.9,14.2,15.8,22.9,17.6L2534.9,1065.2z"/>
			</g>
			<g class="st9">
				<path class="st2" d="M1393.3,865.3c-8.6-1.9-12.4,3-8.5,10.9l6.8,13.6c4,7.9,14.2,15.8,22.9,17.6l1104.6,232.8
					c8.6,1.8,16.6-2.9,17.6-10.4s-5.1-15.2-13.7-17.1L1393.3,865.3z"/>
			</g>
			<path class="st5" d="M1361.8,989.5c27.6,3.6,78.8,13.4,106.9,18.9c11.9,2.3,20.6,12.6,21,24.7c0.7,23.6-0.1,64.1-9.7,105.2
				c-2.9,12.3-15.1,20-27.4,17.3l-103.3-22.9c-12.7-2.8-21.2-14.8-19.7-27.7l11.4-99.3C1342.2,995.5,1351.6,988.1,1361.8,989.5z"/>
			<g class="st9">
				<path class="st2" d="M1544.8,1069.8c-8.5-2.2-16,3.2-16.5,12l-1,17.2c-0.5,8.8,6.1,17.5,14.8,19.3l251.4,53
					c8.6,1.8,17.1-3.8,18.8-12.4l0.8-4.3c1.7-8.7-3.9-17.5-12.4-19.7L1544.8,1069.8z"/>
			</g>
			<path class="st5" d="M1925.7,1108.3c27.6,3.6,78.8,13.4,106.9,18.9c11.9,2.3,20.6,12.6,21,24.7c0.7,23.6-0.1,64.1-9.7,105.2
				c-2.9,12.3-15.1,20-27.4,17.3l-103.3-22.9c-12.7-2.8-21.2-14.8-19.7-27.7l11.4-99.3C1906.1,1114.3,1915.4,1106.9,1925.7,1108.3z"
				/>
			<g class="st9">
				<path class="st2" d="M2108.6,1188.6c-8.5-2.2-16,3.2-16.5,12l-1,17.2c-0.5,8.8,6.1,17.5,14.8,19.3l251.4,53
					c8.6,1.8,17.1-3.8,18.8-12.4l0.8-4.3c1.7-8.7-3.9-17.5-12.4-19.7L2108.6,1188.6z"/>
			</g>
			<g>
				<path class="st2" d="M1426.4,1406.5c-0.1,0-0.2,0-0.3-0.1l-95.3-21c-13.6-3-22.9-14.8-21.6-27.4l8.5-81.9
					c0.5-4.8,2.9-9.1,6.9-12.2c4.4-3.4,10.3-4.9,16.1-4.1l0,0c8.2,1.1,19.7,2.6,31.9,4.1c25.7,3.2,57.7,7.1,75.4,10.6
					c12.8,2.6,22.1,12.5,22.8,24.3c1.1,19.4-6.7,54.2-15.4,91.1C1452.6,1401.9,1439.6,1409.3,1426.4,1406.5z M1339.7,1267.2
					c-3.8-0.5-7.7,0.4-10.5,2.6c-2.3,1.8-3.8,4.3-4,7.1l-8.5,81.9c-0.9,8.8,5.9,17.1,15.8,19.3l95.3,21c0.1,0,0.1,0,0.2,0
					c9.3,2,18.3-3,20.2-11c8.6-36.3,16.3-70.5,15.2-88.9c-0.5-8.3-7.5-15.4-16.8-17.4c-17.5-3.5-49.3-7.4-74.9-10.5
					C1359.5,1269.8,1348,1268.4,1339.7,1267.2L1339.7,1267.2z"/>
				<path class="st5" d="M1348.3,1277.7c20.4,2.9,64.9,7.6,85.6,11.7c8.8,1.7,15.4,8.7,15.8,16.7c0.9,15.6-5.8,44.9-12.3,71.9
					c-1.9,8.1-10.8,13-19.9,11l-76.2-16.8c-9.4-2.1-15.8-10.1-14.9-18.6l6.8-65.4C1334,1281.3,1340.7,1276.6,1348.3,1277.7z"/>
				<g class="st9">
					<path class="st2" d="M1521.5,1371c0.6,11.1,8.5,20.3,19.4,22.5l885.2,178.7c10,2,19.7-4.5,21.6-14.6
						c1.8-9.8-4.4-19.2-14.1-21.3L1550.8,1346C1535.3,1342.7,1520.7,1355.1,1521.5,1371z"/>
				</g>
				
					<linearGradient id="SVGID_4_" gradientUnits="userSpaceOnUse" x1="1920.8967" y1="1732.9178" x2="1422.5027" y2="882.2764" gradientTransform="matrix(0.9785 0.2062 0.2062 -0.9785 -523.3556 2253.7808)">
					<stop  offset="0" style="stop-color:#A737D5"/>
					<stop  offset="1" style="stop-color:#EF497A"/>
				</linearGradient>
				<path class="st10" d="M1349.7,1291.1L1349.7,1291.1c8-2.7,16.6,1.7,19.1,9.8l11.7,37.7c1.2,3.8,6.2,4.6,8.5,1.4l68.6-94.2
					c3.4-4.7,10.8-1.3,9.5,4.4c-7.2,31.7-28.4,90.4-89.9,130.3c0,0-25.7-16.8-37.8-71.1C1337.6,1301.6,1342.1,1293.7,1349.7,1291.1z
					"/>
				<path class="st2" d="M1383.3,1611.2c-0.1,0-0.2,0-0.3-0.1l-95.3-21c-13.6-3-22.9-14.8-21.6-27.4l8.5-81.9
					c0.5-4.8,2.9-9.1,6.9-12.2c4.4-3.4,10.3-4.9,16.1-4.1l0,0c8.2,1.1,19.7,2.6,31.9,4.1c25.7,3.2,57.7,7.1,75.4,10.6
					c0.1,0,0.3,0.1,0.4,0.1c12.6,2.6,21.8,12.6,22.4,24.3c1.1,19.4-6.7,54.2-15.4,91.1C1409.5,1606.6,1396.5,1614,1383.3,1611.2z
					 M1296.6,1471.9c-3.8-0.5-7.7,0.4-10.5,2.6c-2.3,1.8-3.8,4.3-4,7.1l-8.5,81.9c-0.9,8.8,5.9,17.1,15.8,19.3l95.3,21
					c0.1,0,0.1,0,0.2,0c9.3,2,18.3-3,20.2-11c8.6-36.3,16.3-70.5,15.2-88.9c-0.5-8.3-7.5-15.6-16.8-17.4
					c-17.5-3.5-49.3-7.4-74.9-10.5C1316.4,1474.5,1304.8,1473.1,1296.6,1471.9L1296.6,1471.9z"/>
				<path class="st5" d="M1305.1,1482.4c20.4,2.9,64.9,7.6,85.6,11.7c8.8,1.7,15.4,8.7,15.8,16.7c0.9,15.6-5.8,44.9-12.3,71.9
					c-1.9,8.1-10.8,13-19.9,11l-76.2-16.8c-9.4-2.1-15.8-10.1-14.9-18.6l6.8-65.4C1290.8,1486,1297.6,1481.3,1305.1,1482.4z"/>
				<g class="st9">
					<path class="st2" d="M1478.4,1575.7c0.6,11.1,8.5,20.3,19.4,22.5l885.2,178.7c10,2,19.7-4.5,21.6-14.6
						c1.8-9.8-4.4-19.2-14.1-21.3l-882.8-190.3C1492.1,1547.4,1477.6,1559.8,1478.4,1575.7z"/>
				</g>
				
					<linearGradient id="SVGID_5_" gradientUnits="userSpaceOnUse" x1="2012.0966" y1="1679.4821" x2="1513.7013" y2="828.8387" gradientTransform="matrix(0.9785 0.2062 0.2062 -0.9785 -523.3556 2253.7808)">
					<stop  offset="0" style="stop-color:#A737D5"/>
					<stop  offset="1" style="stop-color:#EF497A"/>
				</linearGradient>
				<path class="st11" d="M1306.5,1495.8L1306.5,1495.8c8-2.7,16.6,1.7,19.1,9.8l11.7,37.7c1.2,3.8,6.2,4.6,8.5,1.4l68.6-94.2
					c3.4-4.7,10.8-1.3,9.5,4.4c-7.2,31.7-28.4,90.4-89.9,130.3c0,0-25.7-16.8-37.8-71.1C1294.5,1506.3,1298.9,1498.3,1306.5,1495.8z
					"/>
				<path class="st2" d="M1340.2,1815.9c-0.1,0-0.2,0-0.3-0.1l-95.3-21c-13.6-3-22.9-14.8-21.6-27.4l8.5-81.9
					c0.5-4.8,2.9-9.2,6.9-12.2c4.4-3.4,10.3-5,16.1-4.1l0,0c8.2,1.1,19.7,2.6,31.9,4.1c25.7,3.2,57.7,7.1,75.4,10.6
					c0.1,0,0.3,0.1,0.4,0.1c12.6,2.6,21.8,12.6,22.4,24.3c1.1,19.4-6.7,54.2-15.4,91.1C1366.4,1811.3,1353.4,1818.7,1340.2,1815.9z
					 M1253.5,1676.6c-3.8-0.5-7.7,0.4-10.5,2.6c-2.3,1.8-3.8,4.3-4,7.1l-8.5,81.9c-0.9,8.8,5.9,17.1,15.8,19.3l95.3,21
					c0.1,0,0.1,0,0.2,0c9.3,2,18.3-3,20.2-11c8.6-36.3,16.3-70.5,15.2-88.9c-0.5-8.3-7.5-15.6-16.8-17.4
					c-17.5-3.5-49.3-7.4-74.9-10.5C1273.2,1679.2,1261.7,1677.8,1253.5,1676.6L1253.5,1676.6z"/>
				<path class="st5" d="M1262,1687.1c20.4,2.9,64.9,7.6,85.6,11.7c8.8,1.7,15.4,8.7,15.8,16.7c0.9,15.6-5.8,44.9-12.3,71.9
					c-1.9,8.1-10.8,13-19.9,11l-76.2-16.8c-9.4-2.1-15.8-10.1-14.9-18.6l6.8-65.4C1247.7,1690.7,1254.4,1686,1262,1687.1z"/>
				<g class="st9">
					<path class="st2" d="M1435.3,1780.4c0.6,11.1,8.5,20.3,19.4,22.5l885.2,178.7c10,2,19.7-4.5,21.6-14.6
						c1.8-9.8-4.4-19.2-14.1-21.3l-882.8-190.3C1449,1752.1,1434.5,1764.5,1435.3,1780.4z"/>
				</g>
				
					<linearGradient id="SVGID_6_" gradientUnits="userSpaceOnUse" x1="2088.8352" y1="1469.7753" x2="1433.052" y2="555.4268" gradientTransform="matrix(0.9785 0.2062 0.2062 -0.9785 -523.3556 2253.7808)">
					<stop  offset="0" style="stop-color:#A737D5"/>
					<stop  offset="1" style="stop-color:#EF497A"/>
				</linearGradient>
				<path class="st12" d="M1263.4,1700.5L1263.4,1700.5c8-2.7,16.6,1.7,19.1,9.8l11.7,37.7c1.2,3.8,6.2,4.6,8.5,1.4l68.6-94.2
					c3.4-4.7,10.8-1.3,9.5,4.4c-7.2,31.7-28.4,90.4-89.9,130.3c0,0-25.7-16.8-37.8-71.1C1251.3,1711,1255.8,1703,1263.4,1700.5z"/>
				<path class="st2" d="M1297,2020.6c-0.1,0-0.2,0-0.3-0.1l-95.3-21c-13.6-3-22.9-14.8-21.6-27.4l8.5-81.9
					c0.5-4.8,2.9-9.2,6.9-12.2c4.4-3.4,10.3-5,16.1-4.1l0,0c8.2,1.1,19.7,2.6,31.9,4.1c25.7,3.2,57.7,7.1,75.4,10.6
					c0.1,0,0.3,0.1,0.4,0.1c12.6,2.6,21.8,12.6,22.4,24.3c1.1,19.4-6.7,54.2-15.4,91.1C1323.2,2016,1310.2,2023.4,1297,2020.6z
					 M1210.3,1881.3c-3.8-0.5-7.7,0.4-10.5,2.6c-2.3,1.8-3.8,4.3-4,7.1l-8.5,81.9c-0.9,8.8,5.9,17.1,15.8,19.3l95.3,21
					c0.1,0,0.1,0,0.2,0c9.3,2,18.3-3,20.2-11c8.6-36.3,16.3-70.5,15.2-88.9c-0.5-8.3-7.5-15.7-16.8-17.4
					c-17.5-3.5-49.3-7.4-74.9-10.5C1230.1,1883.9,1218.5,1882.5,1210.3,1881.3L1210.3,1881.3z"/>
				<path class="st5" d="M1218.8,1891.7c20.4,2.9,64.9,7.6,85.6,11.7c8.8,1.7,15.4,8.7,15.8,16.7c0.9,15.6-5.8,44.9-12.3,71.9
					c-1.9,8.1-10.8,13-19.9,11l-76.2-16.8c-9.4-2.1-15.8-10.1-14.9-18.6l6.8-65.4C1204.6,1895.4,1211.3,1890.7,1218.8,1891.7z"/>
				<g class="st9">
					<path class="st2" d="M1392.1,1985.1L1392.1,1985.1c0.6,11.1,8.5,20.3,19.4,22.5l885.2,178.7c10,2,19.7-4.5,21.6-14.6
						c1.8-9.8-4.4-19.2-14.1-21.3l-882.8-190.3C1405.9,1956.8,1391.3,1969.2,1392.1,1985.1z"/>
				</g>
				
					<linearGradient id="SVGID_7_" gradientUnits="userSpaceOnUse" x1="2194.6125" y1="1572.5411" x2="1696.2178" y2="721.8983" gradientTransform="matrix(0.9785 0.2062 0.2062 -0.9785 -523.3556 2253.7808)">
					<stop  offset="0" style="stop-color:#A737D5"/>
					<stop  offset="1" style="stop-color:#EF497A"/>
				</linearGradient>
				<path class="st13" d="M1220.3,1905.2L1220.3,1905.2c8-2.7,16.6,1.7,19.1,9.8l11.7,37.7c1.2,3.8,6.2,4.6,8.5,1.4l68.6-94.2
					c3.4-4.7,10.8-1.3,9.5,4.4c-7.2,31.7-28.4,90.4-89.9,130.3c0,0-25.7-16.8-37.8-71.1C1208.2,1915.7,1212.6,1907.7,1220.3,1905.2z
					"/>
			</g>
		</g>
		<g>
			<path class="st4" d="M27.1,303.4c-5.8-27.8,14.3-54.4,42.7-56.2C258,234.8,903.5,183.7,1416.1,38c23.4-6.6,47.6,7.2,53.7,30.7
				l500.5,1932.2c6.9,26.5-8.9,53.6-35.4,60.6c-216.4,57.4-1108.2,290.8-1436.8,322.4c-20,1.9-38.2-11.5-42.3-31.2L27.1,303.4z"/>
			<path class="st5" d="M58.7,348c-5.6-26.8,13.8-52.3,41.1-54.1C280.9,282,902.1,232.8,1395.4,92.6c22.5-6.4,45.8,6.9,51.7,29.5
				l481.7,1859.4c6.6,25.5-8.6,51.5-34.1,58.3c-208.2,55.3-1066.5,279.8-1382.7,310.3c-19.2,1.9-36.8-11.1-40.7-30L58.7,348z"/>
			<path class="st6" d="M251.3,459.8L351.9,859c3.3,13.3,16.3,21.7,29.8,19.4c75.1-13.1,308.8-54.6,438.7-88.1
				c14.7-3.8,24-18.2,21.5-33.2c-12.8-76.1-52-297.2-87.9-385.6c-5.8-14.3-20.8-22.6-36-20l-444.3,74.1
				C257.6,428.3,247.3,444,251.3,459.8z"/>
			<ellipse class="st4" cx="534.4" cy="552.3" rx="88.4" ry="88.4"/>
			<path class="st4" d="M454.5,833.4l276-56.1c16.9-3.4,23.3-24.2,11.3-36.6c-30.9-31.9-90.9-75.9-175.3-56.2
				c-81.4,19-120,77.5-137.3,117.4C421.7,818.9,436.4,837.1,454.5,833.4z"/>
			<g class="st9">
				<path class="st2" d="M1362.1,270.7c8.6-1.8,14.3-9.2,12.6-16.6c-1.7-7.4-10.2-12.1-18.9-10.5l-485.5,89.6
					c-8.7,1.6-12.1,9.1-7.5,16.7l3.6,6.1c4.5,7.6,15.3,12.3,23.9,10.6L1362.1,270.7z"/>
			</g>
			<g class="st9">
				<path class="st2" d="M885.5,408.3c-8.7,1.6-12.1,9.1-7.5,16.7l3.6,6.1c4.5,7.6,15.3,12.3,23.9,10.6l471.8-95.8
					c8.6-1.8,14.3-9.2,12.6-16.6c-1.7-7.4-10.2-12.1-18.9-10.5L885.5,408.3z"/>
			</g>
			<g class="st9">
				<path class="st2" d="M901,484.5c-8.7,1.6-12.1,9.1-7.5,16.7l3.6,6.1c4.5,7.6,15.3,12.3,23.9,10.6l471.8-95.8
					c8.6-1.8,14.3-9.2,12.6-16.6c-1.7-7.4-10.2-12.1-18.9-10.5L901,484.5z"/>
			</g>
			<g class="st9">
				<path class="st2" d="M1514.5,780.1c8.6-1.8,14.1-9.2,12.1-16.5s-10.7-12-19.4-10.3L372,974.5c-8.7,1.7-10.2,7.7-3.5,13.4
					l11.6,9.7c6.8,5.7,19.4,8.9,28,7.1L1514.5,780.1z"/>
			</g>
			<g class="st9">
				<path class="st2" d="M387.3,1049.7c-8.7,1.7-10.2,7.7-3.5,13.4l11.6,9.7c6.8,5.7,19.4,8.9,28,7.1l1106.2-224.7
					c8.6-1.8,14.1-9.2,12.1-16.5s-10.7-12-19.4-10.3L387.3,1049.7z"/>
			</g>
			<path class="st5" d="M407.7,1176.1c26.8-7.6,77.7-19,105.7-25.1c11.9-2.6,23.9,3.4,29.1,14.4c10,21.4,25.4,58.9,32.8,100.4
				c2.2,12.4-5.9,24.4-18.3,26.8l-103.9,20c-12.8,2.5-25.3-5.1-29.1-17.6l-28.9-95.7C392.1,1189.4,397.7,1179,407.7,1176.1z"/>
			<g class="st9">
				<path class="st2" d="M607.5,1177.2c-8.7,1.4-13.4,9.3-10.3,17.6l5.9,16.2c3,8.3,12.6,13.6,21.2,11.9l251.7-51.1
					c8.6-1.8,14.2-10.2,12.3-18.9l-0.9-4.2c-1.9-8.6-10.5-14.5-19.2-13.1L607.5,1177.2z"/>
			</g>
			<path class="st5" d="M972.4,1061.4c26.8-7.6,77.7-19,105.7-25.1c11.9-2.6,23.9,3.4,29.1,14.4c10,21.4,25.4,58.9,32.8,100.4
				c2.2,12.4-5.9,24.4-18.3,26.8l-103.9,19.9c-12.8,2.5-25.3-5.1-29.1-17.6l-28.9-95.7C956.8,1074.7,962.4,1064.3,972.4,1061.4z"/>
			<g class="st9">
				<path class="st2" d="M1172.2,1062.5c-8.7,1.4-13.4,9.3-10.3,17.6l5.9,16.2c3,8.3,12.6,13.6,21.2,11.9l251.7-51.1
					c8.6-1.8,14.2-10.2,12.3-18.9l-0.9-4.2c-1.9-8.6-10.5-14.5-19.2-13.1L1172.2,1062.5z"/>
			</g>
			<g>
				<path class="st2" d="M632.5,1533.3c-0.1,0-0.2,0-0.3,0.1l-95.8,18.5c-13.7,2.6-26.9-4.5-30.7-16.5l-24.7-78.5
					c-1.5-4.6-0.9-9.6,1.5-14c2.7-4.9,7.5-8.6,13.2-10.2l0,0c7.9-2.2,19.1-5.5,30.9-8.9c24.9-7.3,55.8-16.4,73.5-20.2
					c12.8-2.7,25.3,2.7,30.6,13.3c8.7,17.4,15.4,52.4,22,89.7C654.7,1518.7,645.7,1530.6,632.5,1533.3z M497.6,1439.9
					c-3.7,1-6.9,3.4-8.6,6.6c-1.4,2.6-1.7,5.5-0.9,8.1l24.7,78.5c2.7,8.4,12.2,13.4,22.1,11.4l95.8-18.5c0.1,0,0.1,0,0.2,0
					c9.3-1.9,15.6-10,14.2-18.1c-6.5-36.8-13-71.2-21.3-87.7c-3.7-7.4-13-11.2-22.3-9.3c-17.4,3.8-48.2,12.8-72.9,20.1
					C516.8,1434.4,505.6,1437.7,497.6,1439.9L497.6,1439.9z"/>
				<path class="st5" d="M509.6,1446.1c19.8-5.5,62.6-18.8,83.2-23.2c8.8-1.9,17.5,1.8,21.1,9c7,14,12.5,43.5,17.3,70.9
					c1.4,8.2-4.7,16.2-13.9,18l-76.6,14.8c-9.4,1.8-18.5-3-21.1-11.2l-19.6-62.8C497.9,1455.1,502.3,1448.1,509.6,1446.1z"/>
				<g class="st9">
					<path class="st2" d="M705.7,1463c4.9,9.9,15.9,15.3,26.8,13l883.5-187.3c10-2.1,16.3-12,14.1-22c-2.2-9.7-11.7-15.9-21.4-13.9
						l-885.8,175.7C707.1,1431.6,698.6,1448.7,705.7,1463z"/>
				</g>
				<path class="st2" d="M674.1,1738.3c-0.1,0-0.2,0-0.3,0.1l-95.8,18.5c-13.7,2.6-26.9-4.5-30.7-16.5l-24.7-78.5
					c-1.5-4.6-0.9-9.6,1.5-14c2.7-4.9,7.5-8.6,13.2-10.2l0,0c7.9-2.2,19.1-5.5,30.9-8.9c24.9-7.3,55.8-16.4,73.5-20.2
					c0.1,0,0.3-0.1,0.4-0.1c12.6-2.6,25,2.9,30.2,13.4c8.7,17.4,15.4,52.4,22,89.7C696.4,1723.7,687.4,1735.6,674.1,1738.3z
					 M539.3,1644.9c-3.7,1-6.9,3.4-8.6,6.6c-1.4,2.6-1.7,5.5-0.9,8.1l24.7,78.5c2.7,8.4,12.2,13.4,22.1,11.4l95.8-18.5
					c0.1,0,0.1,0,0.2,0c9.3-1.9,15.6-10,14.2-18.1c-6.5-36.8-13-71.2-21.3-87.7c-3.7-7.4-13.1-11.3-22.3-9.3
					c-17.4,3.8-48.2,12.8-72.9,20.1C558.5,1639.4,547.3,1642.7,539.3,1644.9L539.3,1644.9z"/>
				<path class="st5" d="M551.2,1651.1c19.8-5.5,62.6-18.8,83.2-23.2c8.8-1.9,17.5,1.8,21.1,9c7,14,12.5,43.5,17.3,70.9
					c1.4,8.2-4.7,16.2-13.9,18l-76.6,14.8c-9.4,1.8-18.5-3-21.1-11.2l-19.7-62.8C539.6,1660.1,543.9,1653.1,551.2,1651.1z"/>
				<g class="st9">
					<path class="st2" d="M747.3,1668c4.9,9.9,15.9,15.3,26.8,13l883.5-187.3c10-2.1,16.3-12,14.1-22c-2.2-9.7-11.7-15.9-21.4-13.9
						l-885.8,175.7C748.7,1636.6,740.3,1653.7,747.3,1668z"/>
				</g>
				<path class="st2" d="M715.8,1943.3c-0.1,0-0.2,0-0.3,0.1l-95.8,18.5c-13.7,2.6-26.9-4.5-30.7-16.5l-24.7-78.5
					c-1.5-4.6-0.9-9.6,1.5-14c2.7-4.9,7.5-8.6,13.2-10.2l0,0c7.9-2.2,19.1-5.5,30.9-8.9c24.9-7.3,55.8-16.4,73.5-20.2
					c0.1,0,0.3-0.1,0.4-0.1c12.6-2.6,25,2.9,30.2,13.4c8.7,17.4,15.4,52.4,22,89.7C738,1928.7,729,1940.6,715.8,1943.3z
					 M580.9,1849.9c-3.7,1-6.9,3.4-8.6,6.6c-1.4,2.6-1.7,5.5-0.9,8.1l24.7,78.5c2.7,8.4,12.2,13.4,22.1,11.4L714,1936
					c0.1,0,0.1,0,0.2,0c9.3-1.9,15.6-10,14.2-18.1c-6.5-36.8-13-71.2-21.3-87.7c-3.7-7.4-13.1-11.4-22.3-9.3
					c-17.4,3.8-48.2,12.8-72.9,20.1C600.1,1844.4,588.9,1847.7,580.9,1849.9L580.9,1849.9z"/>
				<path class="st5" d="M592.9,1856.1c19.8-5.5,62.6-18.8,83.2-23.2c8.8-1.9,17.5,1.8,21.1,9c7,14,12.5,43.5,17.3,70.9
					c1.4,8.2-4.7,16.2-13.9,18l-76.6,14.8c-9.4,1.8-18.5-3-21.1-11.2l-19.7-62.8C581.2,1865.1,585.5,1858.1,592.9,1856.1z"/>
				<g class="st9">
					<path class="st2" d="M789,1873c4.9,9.9,15.9,15.3,26.8,13l883.5-187.3c10-2.1,16.3-12,14.1-22c-2.2-9.7-11.7-15.9-21.4-13.9
						l-886,175.7C790.3,1841.6,781.9,1858.7,789,1873z"/>
				</g>
				<path class="st2" d="M757.4,2148.3c-0.1,0-0.2,0-0.3,0.1l-95.8,18.5c-13.7,2.6-26.9-4.5-30.7-16.5l-24.7-78.5
					c-1.5-4.6-0.9-9.6,1.5-14c2.7-4.9,7.5-8.6,13.2-10.2l0,0c7.9-2.2,19.1-5.5,30.9-8.9c24.9-7.3,55.8-16.4,73.5-20.2
					c0.1,0,0.3-0.1,0.4-0.1c12.6-2.6,25,2.9,30.2,13.4c8.7,17.4,15.4,52.4,22,89.7C779.6,2133.7,770.6,2145.6,757.4,2148.3z
					 M622.5,2054.9c-3.7,1-6.9,3.4-8.6,6.6c-1.4,2.6-1.7,5.5-0.9,8.1l24.7,78.5c2.7,8.4,12.2,13.4,22.1,11.4l95.8-18.5
					c0.1,0,0.1,0,0.2,0c9.3-1.9,15.6-10,14.2-18.1c-6.5-36.8-13-71.2-21.3-87.7c-3.7-7.4-13.1-11.4-22.3-9.3
					c-17.4,3.8-48.2,12.8-72.9,20.1C641.7,2049.4,630.5,2052.7,622.5,2054.9L622.5,2054.9z"/>
				<path class="st5" d="M634.5,2061.1c19.8-5.5,62.6-18.8,83.2-23.2c8.8-1.9,17.5,1.8,21.1,9c7,14,12.5,43.5,17.3,70.9
					c1.4,8.2-4.7,16.2-13.9,18l-76.6,14.8c-9.4,1.8-18.5-3-21.1-11.2l-19.7-62.8C622.8,2070.1,627.2,2063.1,634.5,2061.1z"/>
				<g class="st9">
					<path class="st2" d="M830.6,2078L830.6,2078c4.9,9.9,15.9,15.3,26.8,13l883.5-187.3c10-2.1,16.3-12,14.1-22
						c-2.2-9.7-11.7-15.9-21.4-13.9l-885.8,175.7C832,2046.6,823.6,2063.7,830.6,2078z"/>
				</g>
				
					<linearGradient id="SVGID_8_" gradientUnits="userSpaceOnUse" x1="784.6302" y1="1519.7142" x2="286.2451" y2="669.0881" gradientTransform="matrix(0.98 -0.199 -0.199 -0.98 550.1271 2752.3206)">
					<stop  offset="0" style="stop-color:#A737D5"/>
					<stop  offset="1" style="stop-color:#EF497A"/>
				</linearGradient>
				<path class="st14" d="M641.1,2072.8L641.1,2072.8c6.3-5.6,15.9-5,21.4,1.4l25.7,30c2.6,3,7.5,1.8,8.3-2.1l25.6-113.7
					c1.3-5.7,9.4-5.5,10.4,0.2c6,32,9.8,94.3-30.8,155.3c0,0-30.3-5.2-62.9-50.2C634.2,2087.2,635.2,2078.2,641.1,2072.8z"/>
			</g>
		</g>
		<g>
			<g>
				<path class="st15" d="M600.1,1975.1c8.8,92.1,29.4,213.8,54.1,318.6h15.5c-32-126.6-61.5-299.9-52.8-499.7
					c8.7-201.5,58.1-446.1-33.9-563c-76.6-97.3-401.5-111.8-508.4-113.9c-13.4-0.3-21,15.1-12.7,25.6
					c41,51.5,126.7,170.9,134.2,275.2c9.9,137.4,116.6,245.2,222.7,290.1S582.2,1787.2,600.1,1975.1z"/>
				<path class="st16" d="M208.3,1202.1c65.7,16.7,127.9,46.7,182.3,87.7c27.2,20.5,51.9,44.5,73.2,71.3c21.1,27,38.8,56.9,51,89
					l4.5,12.1c1.5,4,2.6,8.2,3.9,12.3c1.2,4.1,2.6,8.2,3.7,12.3l3.2,12.2c4.4,16.3,8.7,32.6,12.8,48.9c8.3,32.7,16.1,65.5,23.3,98.4
					c14.5,65.8,27.1,132.1,35.5,199.1c0.2,1.6-0.9,3.1-2.5,3.3s-3-0.9-3.3-2.4v-0.1c-6-33-12.6-66-19.9-98.7
					c-7.1-32.8-14.6-65.6-22.5-98.2l-12-48.9l-12.5-48.8c-4.2-16.3-8.5-32.5-12.9-48.7l-3.1-12.3c-1.1-4.1-2.4-7.9-3.6-11.9
					c-1.2-3.9-2.3-7.9-3.7-11.8l-4.3-11.6c-11.5-30.9-28.5-59.5-48.4-85.8c-10.2-13-20.9-25.6-32.7-37.2l-4.4-4.4l-4.5-4.2
					c-3-2.8-6-5.7-9.1-8.5c-6.3-5.4-12.5-10.9-19-16c-25.8-20.9-54.2-38.6-83.8-54.1c-29.5-15.5-60.6-28.6-92.4-38.3H207
					c-1.2-0.4-1.9-1.7-1.6-2.9C205.8,1202.5,207.1,1201.8,208.3,1202.1z"/>
			</g>
			<g>
				<path class="st17" d="M603.2,2099.8c55.6,81.6,48.4,127.2,50.1,165.9c0.3,6.9,0.7,16.6,1.5,28H670c-3.1-15.7-5.3-31.6-6.1-47.2
					c-5.4-106.8-29.5-289.1-121.6-398.1s-193-119-320-19.9c-105.9,82.6-172,124.3-210.7,132c-9.6,1.9-14.5,12.7-9.8,21.3
					c24.8,45.8,95.1,150.9,213.1,143.5C365.3,2116,547.6,2018.2,603.2,2099.8z"/>
				<path class="st16" d="M265.3,1959.9c8.3-7.9,17.1-15.1,26.2-22c9.1-6.9,18.5-13.4,28.2-19.4c19.5-12,40.2-22.3,62.3-29.3
					c11.1-3.5,22.4-6.2,34.1-7.7c11.6-1.4,23.5-1.6,35.4-0.1c2.9,0.5,5.9,0.8,8.8,1.4c2.9,0.7,5.9,1.2,8.7,2l16.6,5.1l16.2,6.3
					l15.7,7.6c20.6,10.9,39.3,25.5,54.8,42.8c15.6,17.2,27.9,37.1,37.9,57.7l3.8,7.7c1.3,2.6,2.2,5.3,3.4,7.9
					c2.1,5.3,4.4,10.6,6.4,15.9l5.6,16.2c2,5.4,3.2,10.9,4.8,16.4c6.3,21.9,10.6,44.2,14.4,66.5c0.2,1.2-0.6,2.4-1.9,2.6
					c-1.2,0.2-2.3-0.6-2.6-1.7v-0.1c-5.3-21.9-10.4-43.8-17.7-65c-3.3-10.7-7.5-21.1-11.4-31.5c-2.1-5.2-4.5-10.2-6.7-15.3
					c-1.2-2.5-2.2-5.1-3.5-7.6l-3.9-7.4c-10.3-19.7-22.7-38.1-37.6-54.2c-14.9-16.1-32.6-29.4-51.9-39.6l-14.8-7l-15.4-5.9
					l-15.8-4.8c-2.6-0.7-5.2-1.2-7.8-1.9c-2.6-0.6-5.3-0.9-7.9-1.3c-10.6-1.4-21.4-1.3-32.2-0.1s-21.5,3.4-32.1,6.5
					c-21.1,6.1-41.5,15.3-61,26c-9.7,5.4-19.4,11.1-28.8,17.2c-9.3,6.1-18.6,12.6-27.4,19.4h-0.1c-1,0.8-2.5,0.6-3.3-0.4
					C264.3,1962.2,264.5,1960.8,265.3,1959.9z"/>
			</g>
		</g>
		<g>
			<path class="st18" d="M606.3,501.5c0-83.6,67.8-151.4,151.4-151.4h1287.4c71,0,129.6,55.7,133.2,126.6l95,1866.4
				c2.8,55.5-40.9,102.3-96.4,103.3l-1475.5,26.8c-52.2,0.9-95.1-41.1-95.1-93.3L606.3,501.5L606.3,501.5z"/>
			<g>
				<path class="st5" d="M711.8,378.8c-0.2-26.7,23.4-47.5,49.9-43.9c175.8,23.8,780.3,97.6,1280.2,59.2
					c22.8-1.7,42.6,15.5,43.8,38.3l99.6,1874.8c1.4,25.7-18.3,47.7-44,49.2c-210.2,12.4-1075.9,60.5-1384.7,28.2
					c-18.8-2-33.1-17.8-33.2-36.7L711.8,378.8z"/>
				<path class="st4" d="M732.5,425.8c-0.2-25.7,22.5-45.7,48-42.2c169.2,22.9,750.9,93.9,1231.9,57c21.9-1.7,41,14.9,42.1,36.9
					l95.9,1804.2c1.3,24.7-17.6,45.9-42.3,47.4c-202.3,12-1035.4,58.3-1332.6,27.1c-18.1-1.9-31.8-17.1-31.9-35.3L732.5,425.8z"/>
				<path class="st19" d="M889.1,564.9l18,386.8c0.6,12.9,11,23.1,23.9,23.5c71.6,2,294.9,7.5,420.9,0.9c14.3-0.7,25.5-12.3,26-26.5
					c2.4-72.5,7.7-283.7-8.9-371.9c-2.7-14.3-14.9-24.7-29.4-25.2l-423.4-14.8C900.9,537,888.4,549.6,889.1,564.9z"/>
				<ellipse class="st20" cx="1132.8" cy="703.3" rx="83.1" ry="83.1"/>
				<path class="st20" d="M1006.5,947.3h264.9c16.2,0,26-17.9,17.2-31.6c-22.5-35.2-69.6-86.9-151.1-84.6
					c-78.6,2.2-125.2,49-148.6,82.5C979,927.8,989.1,947.3,1006.5,947.3z"/>
				<g class="st9">
					<path class="st19" d="M1948.4,598.6c8.3,0,14.9-5.8,14.7-13c-0.2-7.1-7.2-13.1-15.5-13.2l-464.3-8.3c-8.3-0.1-12.8,6.1-10.1,14
						l2.2,6.3c2.8,7.8,11.8,14.2,20.1,14.2H1948.4z"/>
				</g>
				<g class="st9">
					<path class="st19" d="M1483.4,636.2c-8.3-0.1-12.8,6.1-10.1,14l2.2,6.3c2.8,7.8,11.8,14.2,20.1,14.2h452.8
						c8.3,0,14.9-5.8,14.7-13c-0.2-7.1-7.2-13.1-15.5-13.2L1483.4,636.2z"/>
				</g>
				<g class="st9">
					<path class="st19" d="M1483.4,709.3c-8.3-0.1-12.8,6.1-10.1,14l2.2,6.3c2.8,7.8,11.8,14.2,20.1,14.2h452.8
						c8.3,0,14.9-5.8,14.7-13c-0.2-7.1-7.2-13.1-15.5-13.2L1483.4,709.3z"/>
				</g>
				<g class="st9">
					<path class="st19" d="M1993.5,1096.6c8.3,0,14.7-5.8,14.2-13s-7.6-13-15.9-13.1l-1087.7-8.6c-8.3-0.1-10.9,5.2-5.7,11.7
						l8.9,11.2c5.2,6.5,16.2,11.8,24.5,11.8H1993.5z"/>
				</g>
				<g class="st9">
					<path class="st19" d="M904.1,1134.1c-8.3-0.1-10.9,5.2-5.7,11.7l8.9,11.2c5.2,6.5,16.2,11.8,24.5,11.8h1061.8
						c8.3,0,14.7-5.8,14.2-13s-7.6-13-15.9-13.1L904.1,1134.1z"/>
				</g>
				
					<linearGradient id="SVGID_9_" gradientUnits="userSpaceOnUse" x1="745.1487" y1="1440.062" x2="1984.4386" y2="449.4212" gradientTransform="matrix(1 0 0 -1 0 2589.2395)">
					<stop  offset="0" style="stop-color:#4F52FF"/>
					<stop  offset="1" style="stop-color:#4042E2"/>
				</linearGradient>
				<path class="st21" d="M899.2,1254.5c26.2-2,75.1-2.9,102.1-3.3c11.4-0.2,21.4,7.6,24.1,18.7c5.2,21.6,12.4,59,11.5,98.7
					c-0.3,11.9-10,21.4-21.9,21.2l-99.5-1.1c-12.2-0.1-22.4-9.5-23.5-21.7l-8.7-93.6C882.3,1263.8,889.5,1255.2,899.2,1254.5z"/>
				
					<linearGradient id="SVGID_10_" gradientUnits="userSpaceOnUse" x1="956.4553" y1="1704.4056" x2="2195.7454" y2="713.7646" gradientTransform="matrix(1 0 0 -1 0 2589.2395)">
					<stop  offset="0" style="stop-color:#4F52FF"/>
					<stop  offset="1" style="stop-color:#4042E2"/>
				</linearGradient>
				<path class="st22" d="M1441.2,1254.5c26.2-2,75.1-2.9,102.1-3.3c11.4-0.2,21.4,7.6,24.1,18.7c5.2,21.6,12.4,59,11.5,98.7
					c-0.3,11.9-10,21.4-21.9,21.2l-99.5-1.1c-12.2-0.1-22.4-9.5-23.5-21.7l-8.7-93.6C1424.3,1263.8,1431.5,1255.2,1441.2,1254.5z"/>
				<g class="st9">
					<path class="st23" d="M1625.1,1292.9c-8.3-0.3-14.1,6.1-12.8,14.3l2.4,16c1.2,8.2,9,14.9,17.3,14.9h241.6
						c8.3,0,15-6.8,14.9-15.1l-0.1-4.1c-0.1-8.3-7-15.4-15.3-15.7L1625.1,1292.9z"/>
				</g>
				<g class="st9">
					<path class="st23" d="M1092.4,1292.9c-8.3-0.3-14.1,6.1-12.8,14.3l2.4,16c1.2,8.2,9,14.9,17.3,14.9h241.6
						c8.3,0,15-6.8,14.9-15.1l-0.1-4.1c-0.1-8.3-7-15.4-15.3-15.7L1092.4,1292.9z"/>
				</g>
				<g>
					<path class="st23" d="M1039.5,1625.8c-0.1,0-0.2,0-0.3,0l-91.8-0.9c-13.1-0.1-23.9-9.2-25.2-21l-8.1-77c-0.5-4.5,0.9-9,4-12.6
						c3.4-4,8.5-6.6,14-6.9l0,0c7.7-0.5,18.6-1.5,30.2-2.4c24.3-2.1,54.5-4.6,71.5-4.9c12.3-0.1,22.8,7.2,25.7,18
						c4.8,17.7,4.4,51.2,3.5,86.8C1062.8,1616.5,1052.2,1625.8,1039.5,1625.8z M932.7,1514.4c-3.6,0.2-7,1.9-9.1,4.4
						c-1.8,2.1-2.6,4.7-2.3,7.3l8.1,77c0.9,8.3,8.7,14.6,18.2,14.7l91.8,0.9c0.1,0,0.1,0,0.2,0c8.9,0,16.3-6.3,16.5-14
						c0.9-35.1,1.3-68-3.2-84.8c-2-7.5-9.9-12.7-18.8-12.8c-16.7,0.2-46.8,2.8-71,4.8C951.4,1513,940.5,1513.9,932.7,1514.4
						L932.7,1514.4z"/>
					<path class="st24" d="M942.6,1522.4c19.3-1.3,61.2-5.6,81.1-5.8c8.4-0.1,15.8,5,17.8,12.3c3.8,14.2,3.3,42.5,2.7,68.6
						c-0.2,7.8-7.4,14.1-16.1,14l-73.4-0.7c-9-0.1-16.5-6.2-17.4-14.2l-6.4-61.6C930.1,1528.5,935.4,1522.9,942.6,1522.4z"/>
					<g class="st9">
						<path class="st23" d="M1120.2,1574.7c2.7,10.1,11.8,17.1,22.2,17l849.4-7.2c9.6-0.1,17.3-8,17.1-17.6
							c-0.2-9.3-7.8-16.8-17.2-16.9l-849.4-3.9C1127.3,1546,1116.3,1560.2,1120.2,1574.7z"/>
					</g>
					
						<linearGradient id="SVGID_11_" gradientUnits="userSpaceOnUse" x1="1216.0748" y1="1435.4205" x2="747.2958" y2="635.3251" gradientTransform="matrix(1 0 0 -1 0 2589.2395)">
						<stop  offset="0" style="stop-color:#4F52FF"/>
						<stop  offset="1" style="stop-color:#4042E2"/>
					</linearGradient>
					<path class="st25" d="M946.5,1534.5L946.5,1534.5c6.8-4,15.6-1.6,19.4,5.3l18.1,32.5c1.8,3.2,6.6,3,8.1-0.4l44.9-100
						c2.2-5,9.7-3.3,9.6,2.2c-0.5,30.6-8.6,88.7-57.4,137.4c0,0-26.9-10.5-48.6-58.1C937.4,1546.4,940,1538.3,946.5,1534.5z"/>
					<path class="st23" d="M1039.5,1822.6c-0.1,0-0.2,0-0.3,0l-91.8-0.9c-13.1-0.1-23.9-9.2-25.2-21l-8.1-77c-0.5-4.5,0.9-9,4-12.6
						c3.4-4,8.5-6.6,14-6.9l0,0c7.7-0.5,18.6-1.5,30.2-2.4c24.3-2.1,54.5-4.6,71.5-4.9c0.1,0,0.2,0,0.4,0c12.1,0,22.5,7.4,25.3,18
						c4.8,17.7,4.4,51.2,3.5,86.8C1062.8,1813.2,1052.2,1822.6,1039.5,1822.6z M932.7,1711.2c-3.6,0.2-7,1.9-9.1,4.4
						c-1.8,2.1-2.6,4.7-2.3,7.3l8.1,77c0.9,8.3,8.7,14.6,18.2,14.7l91.8,0.9c0.1,0,0.1,0,0.2,0c8.9,0,16.3-6.3,16.5-14
						c0.9-35.1,1.3-68-3.2-84.8c-2-7.5-10-12.9-18.8-12.8c-16.7,0.2-46.8,2.8-71,4.8C951.4,1709.7,940.5,1710.7,932.7,1711.2
						L932.7,1711.2z"/>
					<path class="st24" d="M942.6,1719.1c19.3-1.3,61.2-5.6,81.1-5.8c8.4-0.1,15.8,5,17.8,12.3c3.8,14.2,3.3,42.5,2.7,68.6
						c-0.2,7.8-7.4,14.1-16.1,14l-73.4-0.7c-9-0.1-16.5-6.2-17.4-14.2l-6.4-61.6C930.1,1725.3,935.4,1719.6,942.6,1719.1z"/>
					<g class="st9">
						<path class="st23" d="M1120.2,1771.4c2.7,10.1,11.8,17.1,22.2,17l849.4-7.2c9.6-0.1,17.3-8,17.1-17.6
							c-0.2-9.3-7.8-16.8-17.2-16.9l-849.4-3.9C1127.3,1742.7,1116.3,1756.9,1120.2,1771.4z"/>
					</g>
					
						<linearGradient id="SVGID_12_" gradientUnits="userSpaceOnUse" x1="1301.8754" y1="1385.1503" x2="833.0955" y2="585.0531" gradientTransform="matrix(1 0 0 -1 0 2589.2395)">
						<stop  offset="0" style="stop-color:#4F52FF"/>
						<stop  offset="1" style="stop-color:#4042E2"/>
					</linearGradient>
					<path class="st26" d="M946.5,1731.2L946.5,1731.2c6.8-4,15.6-1.6,19.4,5.3L984,1769c1.8,3.2,6.6,3,8.1-0.4l44.9-100
						c2.2-5,9.7-3.3,9.6,2.2c-0.5,30.6-8.6,88.7-57.4,137.4c0,0-26.9-10.5-48.6-58.1C937.4,1743.2,940,1735,946.5,1731.2z"/>
					<path class="st23" d="M1039.5,2019.3c-0.1,0-0.2,0-0.3,0l-91.8-0.9c-13.1-0.1-23.9-9.1-25.2-21l-8.1-77c-0.5-4.5,0.9-9,4-12.6
						c3.4-4,8.5-6.6,14-6.9l0,0c7.7-0.5,18.6-1.5,30.2-2.4c24.3-2.1,54.5-4.6,71.5-4.9c0.1,0,0.2,0,0.4,0c12.1,0,22.5,7.4,25.3,18
						c4.8,17.7,4.4,51.2,3.5,86.8C1062.8,2010,1052.2,2019.3,1039.5,2019.3z M932.7,1907.9c-3.6,0.2-7,1.9-9.1,4.4
						c-1.8,2.1-2.6,4.7-2.3,7.3l8.1,77c0.9,8.3,8.7,14.6,18.2,14.7l91.8,0.9c0.1,0,0.1,0,0.2,0c8.9,0,16.3-6.3,16.5-14
						c0.9-35.1,1.3-68-3.2-84.8c-2-7.5-10-12.9-18.8-12.8c-16.7,0.2-46.8,2.8-71,4.8C951.4,1906.5,940.5,1907.4,932.7,1907.9
						L932.7,1907.9z"/>
					<path class="st24" d="M942.6,1915.9c19.3-1.3,61.2-5.6,81.1-5.8c8.4-0.1,15.8,5,17.8,12.3c3.8,14.2,3.3,42.5,2.7,68.6
						c-0.2,7.8-7.4,14.1-16.1,14l-73.4-0.7c-9-0.1-16.5-6.2-17.4-14.2l-6.4-61.6C930.1,1922,935.4,1916.4,942.6,1915.9z"/>
					<g class="st9">
						<path class="st23" d="M1120.2,1968.2c2.7,10.1,11.8,17.1,22.2,17l849.4-7.2c9.6-0.1,17.3-8,17.1-17.6
							c-0.2-9.3-7.8-16.8-17.2-16.9l-849.4-3.9C1127.3,1939.5,1116.3,1953.7,1120.2,1968.2z"/>
					</g>
					
						<linearGradient id="SVGID_13_" gradientUnits="userSpaceOnUse" x1="1374.0599" y1="1187.8989" x2="757.2451" y2="327.8834" gradientTransform="matrix(1 0 0 -1 0 2589.2395)">
						<stop  offset="0" style="stop-color:#4F52FF"/>
						<stop  offset="1" style="stop-color:#4042E2"/>
					</linearGradient>
					<path class="st27" d="M946.5,1928L946.5,1928c6.8-4,15.6-1.6,19.4,5.3l18.1,32.5c1.8,3.2,6.6,3,8.1-0.4l44.9-100
						c2.2-5,9.7-3.3,9.6,2.2c-0.5,30.6-8.6,88.7-57.4,137.4c0,0-26.9-10.5-48.6-58.1C937.4,1940,940,1931.8,946.5,1928z"/>
					<path class="st23" d="M1039.5,2216.1c-0.1,0-0.2,0-0.3,0l-91.8-0.9c-13.1-0.1-23.9-9.1-25.2-21l-8.1-77c-0.5-4.5,0.9-9,4-12.6
						c3.4-4,8.5-6.6,14-6.9l0,0c7.7-0.5,18.6-1.5,30.2-2.4c24.3-2.1,54.5-4.6,71.5-4.9c0.1,0,0.2,0,0.4,0c12.1,0,22.5,7.4,25.3,18
						c4.8,17.7,4.4,51.2,3.5,86.8C1062.8,2206.7,1052.2,2216.1,1039.5,2216.1z M932.7,2104.7c-3.6,0.2-7,1.9-9.1,4.4
						c-1.8,2.1-2.6,4.7-2.3,7.3l8.1,77c0.9,8.3,8.7,14.6,18.2,14.7l91.8,0.9c0.1,0,0.1,0,0.2,0c8.9,0,16.3-6.3,16.5-14
						c0.9-35.1,1.3-68-3.2-84.8c-2-7.5-10-13-18.8-12.8c-16.7,0.2-46.8,2.8-71,4.8C951.4,2103.2,940.5,2104.2,932.7,2104.7
						L932.7,2104.7z"/>
					<path class="st24" d="M942.6,2112.7c19.3-1.3,61.2-5.6,81.1-5.8c8.4-0.1,15.8,5,17.8,12.3c3.8,14.2,3.3,42.5,2.7,68.6
						c-0.2,7.8-7.4,14.1-16.1,14l-73.4-0.7c-9-0.1-16.5-6.2-17.4-14.2l-6.4-61.6C930.1,2118.8,935.4,2113.1,942.6,2112.7z"/>
					<g class="st9">
						<path class="st23" d="M1120.2,2164.9L1120.2,2164.9c2.7,10.1,11.8,17.1,22.2,17l849.4-7.2c9.6-0.1,17.3-8,17.1-17.6
							c-0.2-9.3-7.8-16.8-17.2-16.9l-849.4-3.9C1127.3,2136.3,1116.3,2150.4,1120.2,2164.9z"/>
					</g>
					
						<linearGradient id="SVGID_14_" gradientUnits="userSpaceOnUse" x1="1473.5195" y1="1284.5839" x2="1004.74" y2="484.4877" gradientTransform="matrix(1 0 0 -1 0 2589.2395)">
						<stop  offset="0" style="stop-color:#4F52FF"/>
						<stop  offset="1" style="stop-color:#4042E2"/>
					</linearGradient>
					<path class="st28" d="M946.5,2124.7L946.5,2124.7c6.8-4,15.6-1.6,19.4,5.3l18.1,32.5c1.8,3.2,6.6,3,8.1-0.4l44.9-100
						c2.2-5,9.7-3.3,9.6,2.2c-0.5,30.6-8.6,88.7-57.4,137.4c0,0-26.9-10.5-48.6-58.1C937.4,2136.7,940,2128.6,946.5,2124.7z"/>
				</g>
			</g>
			<path class="st18" d="M1481.2,95.6c-46.5-32.4-86.9-31.7-115.4-23.3c-26,7.7-42.8,32.7-40.3,59.7l12.3,134l146.1,13
				C1483.9,278.9,1572.4,159,1481.2,95.6z M1417,203.7c-20.1,0-36.4-16.3-36.4-36.4c0-20.1,16.3-36.4,36.4-36.4s36.4,16.3,36.4,36.4
				S1437.1,203.7,1417,203.7z"/>
			<path class="st2" d="M1352.4,209.6c-1.8,0-3.3-1.4-3.5-3.2l-2-21.3c-0.2-1.9,1.2-3.7,3.2-3.8c2-0.2,3.7,1.2,3.8,3.2l2,21.3
				c0.2,1.9-1.2,3.7-3.2,3.8C1352.6,209.6,1352.5,209.6,1352.4,209.6z M1348.5,167.8c-1.8,0-3.3-1.4-3.5-3.2l-1.5-16.2
				c-2.4-25.7,13.8-49.6,38.4-56.9c17.4-5.1,35.4-5.9,53.4-2.2c1.9,0.4,3.1,2.3,2.7,4.2s-2.2,3.1-4.2,2.7c-16.9-3.4-33.7-2.8-50,2
				c-21.4,6.3-35.4,27.1-33.4,49.5l1.5,16.2c0.2,1.9-1.2,3.7-3.2,3.8C1348.8,167.8,1348.7,167.8,1348.5,167.8z"/>
			<path class="st18" d="M1138.4,352.5v-67.4c0-23.3,19.3-41.9,42.5-41.1l464.4,15.9c20.6,0.7,37.3,17,38.5,37.6l3.9,64.7
				L1138.4,352.5z"/>
			<path class="st2" d="M1311.6,269.5h-20c-1.9,0-3.5-1.6-3.5-3.5s1.6-3.5,3.5-3.5h20c1.9,0,3.5,1.6,3.5,3.5
				C1315.1,267.9,1313.6,269.5,1311.6,269.5z"/>
			<path class="st2" d="M1163.6,331.4c-1.9,0-3.5-1.6-3.5-3.5v-27.3c0-21.1,17.1-38.2,38.2-38.2h73.4c1.9,0,3.5,1.6,3.5,3.5
				s-1.6,3.5-3.5,3.5h-73.4c-17.2,0-31.1,14-31.1,31.1v27.3C1167.1,329.8,1165.5,331.4,1163.6,331.4z"/>
			<path class="st20" d="M1810.7,792.6l-109.3-89.1l-109.3,89.1c8.7-83.9,12.8-177.4,8.2-278.9c-1.5-32.3-3.7-63.7-6.6-93.9
				c-0.4-3.9,0.9-7.7,3.5-10.6s6.4-4.5,10.3-4.5c63.4,0,126.8,0,190.2,0c7.4,0,13.4,5.8,13.8,13.1c2.4,46.4,4,94.5,4.5,144.1
				C1816.8,642.7,1814.8,719.7,1810.7,792.6z"/>
			
				<linearGradient id="SVGID_15_" gradientUnits="userSpaceOnUse" x1="1615.1967" y1="2588.7556" x2="1206.3359" y2="1838.0042" gradientTransform="matrix(1 0 0 -1 0 2589.2395)">
				<stop  offset="0" style="stop-color:#4F52FF"/>
				<stop  offset="1" style="stop-color:#4042E2"/>
			</linearGradient>
			<path class="st29" d="M949.2,369.6c1.1-23.3,20.4-41.7,43.7-41.7H1805c29.2,0,54.2,21,59.1,49.8l0.7,4
				c5.5,31.5-18.8,60.3-50.8,60.3H980.8c-19.1,0-34.4-16-33.5-35.1L949.2,369.6z"/>
		</g>
		<g>
			<path class="st30" d="M2367,2617.8c-42.5,2-83.7,0.7-111.2-0.7c25-17.8,82.7-56.6,131-72l33.1-2c0,0,11.2,17.1,15.2,56.1
				C2429.6,2606.1,2413.6,2615.6,2367,2617.8z"/>
			
				<linearGradient id="SVGID_16_" gradientUnits="userSpaceOnUse" x1="2114.5957" y1="240.6924" x2="2495.241" y2="-196.0845" gradientTransform="matrix(1 0 0 -1 0 2589.2395)">
				<stop  offset="0" style="stop-color:#090056"/>
				<stop  offset="1" style="stop-color:#020039"/>
			</linearGradient>
			<path class="st31" d="M2255.5,2617.3c0.1-0.1,0.2-0.2,0.3-0.2c27.5,1.4,68.7,2.6,111.2,0.7c46.6-2.1,62.6-11.7,68.1-18.5
				c0.2,1.8,0.4,3.6,0.5,5.5c0.7,8.6-5.7,16.1-14.3,16.8c-34.8,2.6-121.2,8.6-162.9,6.4C2253,2627.6,2251,2620.5,2255.5,2617.3z"/>
			<path class="st30" d="M2671.3,2606.4c3.1-20,8.1-48.8,12-56.2c6.1-11.6,26.8,0,26.8,0s14.6,6.8,21.3,18.1
				c4.3,7.2,16.1,27.7,24.1,41.7c0.9,1.6,1.3,3.3,1.3,5l-83,2.9C2671.6,2614.5,2670.7,2610.6,2671.3,2606.4z"/>
			
				<linearGradient id="SVGID_17_" gradientUnits="userSpaceOnUse" x1="2323.1594" y1="422.4559" x2="2703.804" y2="-14.3204" gradientTransform="matrix(1 0 0 -1 0 2589.2395)">
				<stop  offset="0" style="stop-color:#090056"/>
				<stop  offset="1" style="stop-color:#020039"/>
			</linearGradient>
			<path class="st32" d="M2756.6,2614.9c-0.1,4.7-3.9,9-9.2,9.2l-59.1,1.6c-6.2,0.2-11.7-3.1-14.7-7.9L2756.6,2614.9z"/>
			<path class="st33" d="M2665,2483.8c0.7,2.4,11.4,54.4,16.1,77.2c1.3,6.3,7,10.7,13.4,10.4c3.5-0.2,7.6-0.5,11.9-1
				c7.6-1,13.4-7.3,13.7-15c0.8-20,1.1-58.4-6.2-73.2C2703.7,2461.6,2665,2483.8,2665,2483.8z"/>
			<path class="st33" d="M2426.4,2498.7c-4.6-0.1,1.8,23.8-5.1,47.2c-1.6,5.3-5.5,9.5-11.1,9.5c-3.6,0-7.8,0-12.1-0.4
				c-6.5-0.5-11.7-5.5-12.3-12l-5.7-60.9L2426.4,2498.7z"/>
			<path class="st30" d="M2297.7,1851c2.1,10,74.5,432.7,78.9,651.5c0.1,3.7,2.8,6.7,6.4,7.3c9.2,1.3,27.1,2.9,44.5-0.3
				c2.4-0.4,4.2-2.4,4.3-4.8c2.5-40.8,22.9-385.4-2-547.7c0,0,206.1,433.7,237.3,553.3c0.8,2.9,3.4,4.9,6.4,4.7
				c8.8-0.5,27.2-2.1,41.8-7.4c5.2-1.9,8.2-7.4,6.9-12.8c-17.5-71.6-139.8-564.7-222.8-673.3L2297.7,1851z"/>
			
				<linearGradient id="SVGID_18_" gradientUnits="userSpaceOnUse" x1="2441.0588" y1="781.6482" x2="2251.7083" y2="536.8452" gradientTransform="matrix(-1 0 0 -1 4752.3901 2589.2395)">
				<stop  offset="0" style="stop-color:#CB236D"/>
				<stop  offset="1" style="stop-color:#4C246D"/>
			</linearGradient>
			<path class="st34" d="M2429.8,1959.7c0.7,0,1.4-0.3,1.9-0.8c1.1-1,1.1-2.8,0-3.8l-27.6-28.2c-1-1.1-2.8-1.1-3.8,0
				c-1.1,1-1.1,2.8,0,3.8l27.6,28.2C2428.4,1959.4,2429.1,1959.7,2429.8,1959.7z"/>
			<path class="st35" d="M2228,1305.5c61.7-9.3,182.7-22.5,261.6,0.6L2481,1550l-286-30.8l-24.3-34.5
				C2170.8,1484.7,2182.1,1312.4,2228,1305.5z"/>
			<path class="st36" d="M2370.5,1174.9c0,0,5.7,97,4.6,127.2c0,0-79.4,13-98.3-0.6l14.9-115L2370.5,1174.9z"/>
			<g>
				<path class="st33" d="M2293.2,1077.7c0,0-32,56.1-37,86.9c-5.1,30.7-13.9,50.1,21.2,60.1c35.1,10.1,67.1-4.5,86.7-33.5
					c0,0,30.7-44.7,27-64.8C2387.5,1106.4,2293.2,1077.7,2293.2,1077.7z"/>
				
					<linearGradient id="SVGID_19_" gradientUnits="userSpaceOnUse" x1="2245.3381" y1="1504.5145" x2="2613.7039" y2="1404.5298" gradientTransform="matrix(1 0 0 -1 0 2589.2395)">
					<stop  offset="0" style="stop-color:#090056"/>
					<stop  offset="1" style="stop-color:#020039"/>
				</linearGradient>
				<path class="st37" d="M2354.3,1167.8l-4.5-0.5c0,0,22.7-36.2,7.1-44.7c-15.6-8.5-79-28.7-90.5-53.2c-11.1-23.6,4-51,22.9-57
					c1.2-0.4,2.5,0.3,2.9,1.5l1.2,3c0.8,2,3.7,2.1,4.5,0l0,0c0.8-1.9,3.5-2.1,4.4-0.2c3.5,7.3,13.9,19.8,44.4,28.9
					c43.2,12.9,70.5,33.9,67.9,64.4c-0.2,1.9,1.8,3.2,3.5,2.4c3.5-1.6,8.8-2,15.1,4.6c11,11.5,3.2,37.4-25.7,56.2
					c-1.4,0.9-1.6,2.9-0.3,3.9c4.5,3.7,10.8,11.9-8.8,19.8c-20.1,8.1-31.2,5.8-35.4,4.3c-1.1-0.4-1.8-1.5-1.6-2.7l4.6-26.8
					c0.2-1.4-0.7-2.7-2.1-2.8L2354.3,1167.8z"/>
				<path class="st33" d="M2352.6,1173.3c0,0,13.8-36.6,29.6-24.2c15.7,12.4-13.3,41.2-27,41.2L2352.6,1173.3z"/>
			</g>
			<g>
				<path class="st20" d="M2010.1,1496.3l7.6-29.8c3.8-14.7,18.4-23.9,33.3-20.9l714.1,145.7c16.3,3.3,26.7,19.2,23.3,35.5
					l-43.5,206.4L2010.1,1496.3z"/>
				<path class="st2" d="M1942.4,1858.3l53.7-386c1.1-8,8.8-13.3,16.7-11.6l733.5,162.9c15.7,3.5,25.5,19,21.9,34.7l-61.6,266.8
					L1942.4,1858.3z"/>
				<path class="st2" d="M1961.7,1840.9l20.6-344.6c0.5-8.9,8.8-15.2,17.5-13.3l741.2,156.8c10.5,2.2,17.3,12.2,15.7,22.8
					l-39.5,248.9L1961.7,1840.9z"/>
				<path class="st20" d="M1908.1,1922.3l46.7-373.2c2.3-18.6,19.9-31.4,38.3-27.9l760,143.5c15.4,2.9,25.5,17.8,22.6,33.2
					l-64.2,340.1c-3,16-18.1,26.9-34.3,24.8l-736.8-98.4C1919.9,1961.5,1905.5,1942.8,1908.1,1922.3z"/>
				<path class="st20" d="M2260.4,1571.7L2260.4,1571.7c-3,15.8-18.2,26.2-34.1,23.3l-169.5-32c-15.8-3-26.2-18.2-23.3-34.1l0,0
					c3-15.8,18.2-26.2,34.1-23.3l169.5,32C2253,1540.6,2263.4,1555.8,2260.4,1571.7z"/>
			</g>
			<path class="st35" d="M2409.8,1412.5l79.8-106.4c0,0,128.2,136.2,152.8,309l-79.9,39C2537.6,1595.9,2491.9,1517,2409.8,1412.5z"
				/>
			<path class="st33" d="M2524.1,1891.6c9.4-15.8,27.9-45.9,36.9-55.3c0,0-8.2-5.2-23.9-3.2c-15.7,1.9-28.1-5.7-27.6-14.3l75.1-23
				c3.4-7,18.2-47-22.1-141.7l79.9-39c9.2,64.7,3.9,134.5-28.1,204.3c0,0-24.8,77.1-53.4,94.2
				C2486.5,1958.2,2520.5,1897.7,2524.1,1891.6z"/>
		</g>
		<g>
			<path class="st2" d="M615,891.1L599.2,911l-0.1,0.1c-1.1,1.5-3.3,1.7-4.7,0.6c-1.5-1.1-1.7-3.3-0.6-4.7c0,0,0,0,0-0.1l16.3-19.7
				c1.1-1.3,3-1.5,4.3-0.4C615.8,887.9,616,889.7,615,891.1L615,891.1z"/>
			<path class="st2" d="M561.7,963.7l-26.7,42.6l-0.1,0.2c-1.4,2.2-4.2,2.8-6.4,1.5c-2.2-1.4-2.8-4.2-1.5-6.4v-0.1l27.8-42.5
				c1.2-1.9,3.8-2.4,5.7-1.2c1.9,1.2,2.4,3.7,1.2,5.6V963.7z"/>
			<path class="st2" d="M504,1063l-21.4,45.4l-0.1,0.3c-1.3,2.8-4.7,4-7.5,2.7s-4-4.7-2.7-7.5v-0.1l22.5-45.6
				c1.3-2.6,4.4-3.6,6.9-2.4c2.5,1.3,3.6,4.3,2.4,6.9L504,1063z"/>
			<path class="st2" d="M458.7,1168.4l-15.5,47.7l-0.1,0.4c-1.1,3.5-4.9,5.4-8.4,4.3s-5.4-4.9-4.3-8.4v-0.1l16.6-48.1
				c1.1-3.2,4.7-5,7.9-3.8c3.2,1.1,4.9,4.6,3.9,7.8L458.7,1168.4z"/>
			<path class="st2" d="M427.2,1278.4l-9.3,49.2l-0.1,0.4c-0.8,4-4.6,6.7-8.7,5.9c-4-0.8-6.7-4.6-5.9-8.7v-0.1l10-49.9
				c0.8-3.9,4.5-6.4,8.4-5.6c3.8,0.8,6.3,4.5,5.6,8.3V1278.4z"/>
			<path class="st2" d="M410.3,1391.5l-2.5,50v0.5c-0.2,4.4-4,7.9-8.4,7.6c-4.4-0.2-7.9-4-7.6-8.4v-0.1l3.1-50.9
				c0.3-4.3,3.9-7.5,8.2-7.3c4.3,0.3,7.5,3.9,7.3,8.1L410.3,1391.5z"/>
			<path class="st2" d="M409.1,1505.8l4.4,49.8v0.5c0.4,4.8-3.1,9-7.9,9.4c-4.8,0.4-9-3.1-9.4-7.9v-0.1l-4-50.9
				c-0.4-4.6,3.1-8.7,7.7-9c4.6-0.4,8.6,3,9,7.6L409.1,1505.8z"/>
			<path class="st2" d="M423.7,1619l11.2,48.7l0.1,0.5c1.2,5-2,10-7,11.1c-5,1.2-10-2-11.1-7v-0.1l-10.9-49.9
				c-1.1-4.9,2-9.7,6.9-10.7c4.8-1.1,9.6,2,10.7,6.8L423.7,1619z"/>
			<path class="st2" d="M453.4,1729.2l17.5,46.8l0.2,0.5c1.9,5.1-0.7,10.7-5.7,12.6c-5.1,1.9-10.7-0.7-12.6-5.7l0,0l-17.6-47.9
				c-1.8-5,0.7-10.5,5.7-12.4c5-1.8,10.5,0.7,12.4,5.7L453.4,1729.2z"/>
			<path class="st2" d="M497.2,1834.6l23.3,44.2l0.3,0.5c2.6,4.9,0.7,10.9-4.2,13.5c-4.9,2.6-10.9,0.7-13.5-4.2l0,0l-23.7-45.2
				c-2.5-4.8-0.7-10.8,4.2-13.3c4.8-2.5,10.8-0.7,13.3,4.2L497.2,1834.6z"/>
			<path class="st2" d="M554,1933.5l28.7,40.9l0.3,0.5c3.2,4.6,2.1,11-2.5,14.2s-11,2.1-14.2-2.5l0,0l-29.2-41.9
				c-3.2-4.6-2.1-10.9,2.5-14.1c4.6-3.2,10.9-2.1,14.1,2.5L554,1933.5z"/>
			<path class="st2" d="M622.8,2024.6l33.6,37l0.4,0.4c3.9,4.2,3.5,10.8-0.7,14.7s-10.8,3.5-14.7-0.7l0,0l-34.2-37.9
				c-3.8-4.2-3.5-10.7,0.8-14.6c4.2-3.8,10.7-3.5,14.6,0.7L622.8,2024.6z"/>
			<path class="st2" d="M702.5,2106.2l38.1,32.2l0.5,0.4c4.5,3.8,5,10.5,1.2,14.9c-3.8,4.5-10.5,5-14.9,1.2l0,0l-38.9-33.2
				c-4.4-3.8-4.9-10.4-1.2-14.8c3.8-4.4,10.4-4.9,14.8-1.2L702.5,2106.2z"/>
			<path class="st2" d="M792.3,2176.2l21.1,13.2l10.6,6.6c3.5,2.2,7,4.5,10.6,6.5c5.2,2.9,7.1,9.5,4.2,14.7s-9.5,7.1-14.7,4.2l0,0
				l-0.3-0.2c-3.7-2.1-7.3-4.5-10.9-6.7l-10.9-6.8l-21.7-13.6c-5-3.2-6.5-9.8-3.4-14.8s9.8-6.5,14.8-3.4L792.3,2176.2z"/>
			<path class="st2" d="M891.5,2231.5c15.1,6.9,30.4,13.3,45.9,19.1c5.6,2.1,8.5,8.4,6.3,14c-2.1,5.6-8.4,8.5-14,6.4
				c-16-6-31.8-12.5-47.3-19.6c-5.5-2.5-7.9-9-5.4-14.5C879.5,2231.4,886,2229,891.5,2231.5L891.5,2231.5z"/>
			<path class="st2" d="M998.2,2270.6l48.4,12l0.7,0.2c5.8,1.4,9.3,7.2,7.8,13c-1.4,5.8-7.2,9.3-13,7.8l-49.7-12.2
				c-5.8-1.4-9.3-7.3-7.9-13.1s7.3-9.3,13.1-7.9l0,0L998.2,2270.6z"/>
			<path class="st2" d="M1109.7,2293.6l49.6,5.3l0.6,0.1c5.8,0.6,10,5.8,9.4,11.6s-5.8,10-11.6,9.4l-50.8-5.2
				c-5.8-0.6-10.1-5.8-9.5-11.7c0.6-5.8,5.8-10.1,11.7-9.5l0,0L1109.7,2293.6z"/>
			<path class="st2" d="M1223.4,2301.7l50-0.8h0.5c5.6-0.1,10.2,4.4,10.3,10c0.1,5.6-4.3,10.2-9.9,10.3l-51,1.2
				c-5.7,0.1-10.4-4.4-10.6-10.1c-0.1-5.7,4.4-10.4,10.1-10.6h0.1L1223.4,2301.7z"/>
			<path class="st2" d="M1337.5,2296.2l49.6-6.4l0.5-0.1c5.3-0.7,10.2,3.1,10.8,8.4c0.7,5.3-3,10.1-8.3,10.8l-50.5,6.9
				c-5.4,0.7-10.4-3-11.1-8.4s3-10.4,8.4-11.1h0.1L1337.5,2296.2z"/>
			<path class="st2" d="M1450.5,2278.4l48.8-11.4l0.4-0.1c4.8-1.1,9.5,1.8,10.6,6.6c1.1,4.7-1.8,9.4-6.5,10.6l-49.4,12.3
				c-4.9,1.2-9.9-1.8-11.2-6.7c-1.2-4.9,1.8-9.9,6.7-11.2h0.1L1450.5,2278.4z"/>
			<path class="st2" d="M1561.3,2249.3l47.5-16l0.3-0.1c4.2-1.4,8.7,0.8,10.1,5c1.4,4.1-0.8,8.6-4.9,10.1l-47.9,16.9
				c-4.4,1.5-9.1-0.7-10.7-5.1c-1.5-4.4,0.7-9.1,5.1-10.7c0,0,0,0,0.1,0L1561.3,2249.3z"/>
			<path class="st2" d="M1669,2209.9l46-20.3l0.3-0.1c3.6-1.6,7.8,0,9.4,3.7c1.6,3.6,0,7.7-3.6,9.4l-46.2,21.2
				c-3.8,1.7-8.2,0.1-10-3.7c-1.7-3.8-0.1-8.2,3.7-10c0,0,0,0,0.1,0L1669,2209.9z"/>
			<path class="st2" d="M1773,2161.3l44.2-23.9l0.2-0.1c2.8-1.5,6.4-0.5,7.9,2.4c1.5,2.8,0.5,6.3-2.2,7.8l-44,25.2
				c-3.1,1.8-7,0.7-8.8-2.4c-1.8-3.1-0.7-7,2.4-8.8c0,0,0.1,0,0.1-0.1L1773,2161.3z"/>
			<path class="st2" d="M1872.9,2104.3l42.2-27.5l0.1-0.1c2.1-1.3,4.8-0.8,6.2,1.3c1.3,2,0.8,4.7-1.2,6.1l-41.8,28.7
				c-2.3,1.6-5.5,1-7-1.3c-1.6-2.3-1-5.5,1.3-7C1872.7,2104.5,1872.8,2104.5,1872.9,2104.3L1872.9,2104.3z"/>
			<path class="st2" d="M1968.2,2039.4l20.4-15.3l0,0c1.3-1,3.3-0.7,4.3,0.6s0.7,3.2-0.5,4.2l-20,16c-1.5,1.2-3.7,1-4.9-0.5
				s-1-3.7,0.5-4.9C1968.1,2039.5,1968.1,2039.5,1968.2,2039.4L1968.2,2039.4z"/>
		</g>
	</g>
</g>
</svg>
