<?xml version="1.0" encoding="utf-8"?>
<!-- Generator: Adobe Illustrator 23.1.0, SVG Export Plug-In . SVG Version: 6.00 Build 0)  -->
<svg version="1.1" xmlns="http://www.w3.org/2000/svg" xmlns:xlink="http://www.w3.org/1999/xlink" x="0px" y="0px"
	 viewBox="0 0 2794.6 2727" style="enable-background:new 0 0 2794.6 2727;" xml:space="preserve">
<style type="text/css">
	.st0{display:none;}
	.st1{display:inline;}
	.st2{fill:#FFFFFF;}
	.st3{fill:#A284EB;}
	.st4{display:inline;fill:#272F77;}
	.st5{fill:#7D97F4;}
	.st6{display:inline;fill:#F47E7E;}
	.st7{display:inline;fill:url(#SVGID_1_);}
	.st8{display:inline;fill:url(#SVGID_2_);}
	.st9{display:inline;opacity:0.7;fill:#FFFFFF;}
	.st10{fill:#18093C;}
	.st11{fill:#FFB27D;}
	.st12{fill:url(#SVGID_3_);}
	.st13{fill:#7F50E7;}
	.st14{fill:url(#SVGID_4_);}
	.st15{fill:#885AE9;}
	.st16{fill:#A477F2;}
	.st17{fill:#EF9D65;}
	.st18{display:inline;fill:#EF9D65;}
	.st19{fill:url(#SVGID_5_);}
</style>
<g id="Background" class="st0">
	<g class="st1">
		<g>
			<rect y="0" class="st2" width="2794.6" height="2727"/>
		</g>
	</g>
</g>
<g id="Illustration">
	<g>
		<path class="st3" d="M116.8,1849C399,2492.6,1143.9,2769,1727.6,2721.9c159.4-12.9,480-38.8,730.4-269.8
			c480.8-443.6,406.8-1371-53.5-1917C2345.2,464.8,1934.9-6.2,1295.6,0.1C827.5,4.7,498.9,262.7,459,294.8
			C408.5,335.4,297.2,431.9,196.9,585C-38.8,944.7-59.6,1446.8,116.8,1849z"/>
		<g class="st0">
			<path class="st4" d="M1768.6,2216.8c-1.2-14.3-15.8-26.7-40.6-36.7c26.9-14.8,41.8-30.8,40.6-46.4c-3.8-47.2-153.3-73.7-334-59.1
				c-180.6,14.6-324,64.6-320.2,111.9c1.2,14.3,15.8,26.7,40.6,36.7c-26.9,14.8-41.8,30.8-40.6,46.4c1.2,14.3,15.8,26.7,40.6,36.7
				c-26.9,14.8-41.8,30.8-40.6,46.4c1.2,14.3,15.8,26.7,40.6,36.7c-26.9,14.8-41.8,30.8-40.6,46.4c1.7,20.9,31.9,37.7,80.7,48.7
				c-0.6,15.4-0.3,32.3,1.2,51c7.1,87,104.9,155.2,234.4,155.2c129.4,0,241.5-93,242.7-180.3c0.3-21.4-0.6-40.2-2.5-56.9
				c61.9-20.7,99.6-45.9,97.7-70.4c-1.2-14.3-15.8-26.7-40.6-36.7c26.9-14.8,41.8-30.8,40.6-46.4c-1.2-14.3-15.8-26.7-40.6-36.7
				C1755,2248.3,1769.9,2232.4,1768.6,2216.8z"/>
			<g class="st1">
				<path class="st5" d="M1351.1,2503.1c-53.6,0-102.7-3.9-143.3-11.7c-2.4-0.4-3.9-2.7-3.4-5.1c0.4-2.4,2.7-3.9,5.1-3.4
					c63.5,12.2,148.2,14.8,238.7,7.5c74-6,143.2-17.9,200.2-34.5c2.3-0.7,4.7,0.6,5.4,2.9c0.7,2.3-0.6,4.7-2.9,5.4
					c-57.5,16.8-127.3,28.8-201.9,34.8C1415.2,2501.7,1382.4,2503.1,1351.1,2503.1z"/>
				<path class="st5" d="M1352,2420c-69.7,0-132-6.6-175.9-19.1c-2.3-0.7-3.6-3.1-3-5.4c0.7-2.3,3.1-3.6,5.4-3
					c62.6,17.8,163.4,23.4,269.7,14.8c105.1-8.5,203.1-29.8,262.2-57.1c2.2-1,4.8-0.1,5.8,2.1c1,2.2,0.1,4.8-2.1,5.8
					c-60,27.7-159.1,49.3-265.2,57.8C1415.7,2418.7,1383.1,2420,1352,2420z"/>
				<path class="st5" d="M1351.1,2337c-75.3,0-141.1-7.7-185.4-22.3c-2.3-0.7-3.5-3.2-2.8-5.5c0.7-2.3,3.2-3.5,5.5-2.8
					c61.7,20.3,166.3,27,279.7,17.9c105.1-8.5,203.1-29.8,262.2-57.1c2.2-1,4.8-0.1,5.8,2.1c1,2.2,0.1,4.8-2.1,5.8
					c-60,27.7-159.1,49.3-265.2,57.8C1415.2,2335.7,1382.3,2337,1351.1,2337z"/>
				<path class="st5" d="M1351.7,2254c-59.7,0-114-4.8-156.2-14.2c-2.3-0.5-3.8-2.8-3.3-5.2c0.5-2.3,2.8-3.8,5.2-3.3
					c63.5,14.1,154.9,17.8,250.8,10c104.2-8.4,201.7-29.5,260.9-56.4c2.2-1,4.8,0,5.7,2.2c1,2.2,0,4.8-2.2,5.7
					c-60.1,27.3-158.7,48.7-263.8,57.2C1415.6,2252.7,1382.9,2254,1351.7,2254z"/>
			</g>
			<path class="st6" d="M993.2,1797.8c-21.9-77.7-59.2-150.3-109.4-213.6c-107.5-135.5-283-411.2-304.6-787.4
				C547.9,249.7,1033.2-24.3,1476,12.9c442.8,37.2,879.8,366.9,832,876c-29.4,313.2-204.7,550.8-335.3,687.2
				c-82.9,86.6-142,192.8-174,308.3c-39.2,141.4-132.4,317.7-354,328.4C1158,2226.7,1038.9,1959.5,993.2,1797.8z"/>
			<linearGradient id="SVGID_1_" gradientUnits="userSpaceOnUse" x1="1605.9692" y1="1384.8644" x2="1669.6" y2="3406.5901">
				<stop  offset="0" style="stop-color:#E1473D"/>
				<stop  offset="1" style="stop-color:#E9605A"/>
			</linearGradient>
			<path class="st7" d="M1517.9,2103.7l154.9-1007.8c3.2-20.8,13.4-34.8,22.9-31.2c9.4,3.6,14.5,23.3,11.3,44.2
				c-0.1,0.6-0.2,1.2-0.3,1.8l-176.5,998.4c-1.3,7.5-5.1,12.3-8.5,10.6C1518.5,2118.1,1516.8,2111,1517.9,2103.7z"/>
			<linearGradient id="SVGID_2_" gradientUnits="userSpaceOnUse" x1="1255.4567" y1="1395.8972" x2="1319.0875" y2="3417.6274">
				<stop  offset="0" style="stop-color:#E1473D"/>
				<stop  offset="1" style="stop-color:#E9605A"/>
			</linearGradient>
			<path class="st8" d="M1357.1,2111.7l-154.9-1007.8c-3.2-20.8-13.4-34.8-22.9-31.2c-9.4,3.6-14.5,23.3-11.3,44.2
				c0.1,0.6,0.2,1.2,0.3,1.8l176.5,998.4c1.3,7.5,5.1,12.3,8.5,10.6C1356.5,2126.1,1358.2,2119,1357.1,2111.7z"/>
			<path class="st9" d="M1671.8,1009.4c-3.9-6.3-13-8.7-20.3-5.3l-86.3,40.3l-29.9-85.3c-1.6-4.5-5.3-8.4-10.5-10.6
				c-9.9-4.1-21.8-0.4-26.5,8.2l-0.2,0.3l-71,129.4l-65.8-184.2l-0.1-0.3c-1.6-4.5-5-8.5-10-11.2c-11-6-25.6-3.2-32.6,6.4
				l-99.2,136.6c-4,5.6-2.6,13.1,3.5,17.2c6.6,4.4,16,3.4,21.1-2.3l87.3-97.4l78.6,175.2l0.1,0.1c1.3,2.8,3.6,5.2,6.9,6.8
				c7.4,3.5,16.6,1.1,20.6-5.3l75.9-121.8l28.6,61.6l0.3,0.5c0.2,0.4,0.4,0.9,0.7,1.3c3.9,6.3,13,8.7,20.3,5.3l102.4-47.9
				C1673,1023.6,1675.7,1015.7,1671.8,1009.4z"/>
		</g>
		<g class="st0">
			<g class="st1">
				<path class="st10" d="M52.1,2705.1c0,0-12.2,19.3-15.3,73.1c-0.3,5,3.7,9.3,8.7,9.3H141c3.8,0,6.6-3.8,5.4-7.4
					c-5.6-16.6-22.5-57-60.3-80L52.1,2705.1z"/>
				<path class="st11" d="M47.9,2668.6l5.4,45.3c0.5,3.9,3.5,7,7.4,7.5c5.2,0.6,12.8,1,20.2-0.2c6.7-1.1,11.5-7.1,11.5-13.9v-43.7
					L47.9,2668.6z"/>
				<path class="st10" d="M288.4,2700.2c0,0-18.3,28.4-17.9,67.4c0.1,9.2,7.8,16.5,17,16.5h148.3c6.9,0,9.8-8.9,4.1-12.9
					c-28.1-19.7-83.2-56.5-123.1-71H288.4z"/>
				<linearGradient id="SVGID_3_" gradientUnits="userSpaceOnUse" x1="273.1255" y1="2673.0098" x2="317.4528" y2="2673.0098">
					<stop  offset="0" style="stop-color:#FEBBBA"/>
					<stop  offset="1" style="stop-color:#FF928E"/>
				</linearGradient>
				<path class="st12" d="M273.1,2651.2l11.5,55.9c1.3,6.3,7.4,10.5,13.6,9.1c3.8-0.8,8.3-2.5,13-5.5c4.5-2.8,6.8-8.2,5.9-13.5
					l-11.9-67.8L273.1,2651.2z"/>
				<path class="st10" d="M69.1,1873.4c0,0-40.1,35.3-47.6,77.8c-7.5,42.5,21.4,733.2,21.4,733.2s40.1,6.7,60.7-5.8
					c0,0,24.5-448.3,43.1-551.9c0,0,97.6,464.4,124.7,548.3c0,0,38.6,4.7,51-2.6c0,0-17.2-673.4-49.3-780.5L69.1,1873.4z"/>
				<path class="st5" d="M145.5,2112.2c-1.9,0-3.7-1.3-4.2-3.3l-16.6-63.6l-35.3-22.7c-2-1.3-2.6-4-1.3-6c1.3-2,4-2.6,6-1.3
					l36.8,23.6c0.9,0.6,1.6,1.5,1.9,2.6l17,65.3c0.6,2.3-0.8,4.7-3.1,5.3C146.2,2112.1,145.9,2112.2,145.5,2112.2z"/>
				<path class="st13" d="M381,1402.8c-168.4,16.5-205.6,58.7-205.6,58.7l102.7,111.4c0,0,162.5-32.9,262.9-144.3
					c-26.2-19.6-46.1-42.8-59.5-61.3C453.6,1385.3,420.3,1399,381,1402.8z"/>
				<path class="st11" d="M596.4,1111.9c-1.2-5.3-8.7-5.4-10-0.2l-12.9,49c-2.5,9.5-2,19.5,1.3,28.7l12.2,24.9
					c4.6,12.4,3.6,26.2-2.7,37.8c-15,27.9-48.4,79.8-102.9,115.1c13.4,18.5,33.4,41.7,59.5,61.3c36.8-40.9,65.3-92.2,74.4-156.5
					c9.1-4.7,13.9-14.9,11.6-24.9L596.4,1111.9z"/>
				<path class="st11" d="M263.6,1273.7l-27.6,130.5c0,0,64.4,29.2,109.7,17l4.9-113.7L263.6,1273.7z"/>
				<g>
					<path class="st11" d="M332.5,1175.6c1.4,1.4,59.2,121,59.2,121l-69,31.6L251.2,1223C251.2,1223,308.5,1152.1,332.5,1175.6z"/>
					
						<linearGradient id="SVGID_4_" gradientUnits="userSpaceOnUse" x1="-225.1158" y1="3635.8218" x2="-43.1194" y2="3635.8218" gradientTransform="matrix(0.7004 -0.7138 0.7138 0.7004 -2172.1484 -1392.5104)">
						<stop  offset="0" style="stop-color:#09005D"/>
						<stop  offset="1" style="stop-color:#1A0F91"/>
					</linearGradient>
					<path class="st14" d="M281.6,1235.4l33.4,58.3c0.4,0.7,0.9,1.4,1.6,2c3.8,3.7,17.6,15.5,28.8,0.6
						c10.1-13.5,19.6-25.8,29.7-29.5c4.5-1.7,9.6,0.4,11.7,4.7c5.2,10.9,16.6,35.6,23.2,58.5c1.3,4.7-1.2,9.5-5.7,11.3
						c-13.6,5.3-42.7,15.5-68,18.3c-3.4,0.4-6.8-1.1-8.8-3.9c-9.6-13.8-39.1-55.6-49.1-66c-9.4-9.8-27.4-6.1-34.9-4.1
						c-2.4,0.7-5,0.3-7.2-1c-7.7-4.6-23-17.1-8.5-38.1c3-4.4,1.8-10.4-2.6-13.3c-8.9-5.8-19.4-17-9.6-35.1
						c10-18.4,27.5-18.9,38.6-17c4.5,0.8,8.8-1.9,10.4-6.1c0.9-2.4,2.9-4.5,6.9-4.9c5.4-0.5,9.1-5.8,8-11.1
						c-2.1-10.2-0.7-23.9,16.1-32.7c29.8-15.6,55.1,11.3,61.2,33.8c6.1,22.4-27.2,37.5-47.9,39.7c-15.8,1.7-24.6,19.2-27.8,27.5
						C279.9,1230,280.2,1232.9,281.6,1235.4z"/>
					<path class="st11" d="M290.8,1310.8c0,0-12.3-38.6-29.1-37.5c-16.8,1.1-30.3,17.5-10,36.7
						C277.1,1333.9,290.8,1310.8,290.8,1310.8z"/>
				</g>
				<g>
					<path class="st15" d="M1397.7,1065.8c-28,26.7-73.9,52.8-144,45.8c-133.2-13.5-147.4-137.1-132.9-201.7
						c12.2-54.5,126.3-137.4,226.2-86.3c21.2,10.8,45.1-7.7,40.9-32.2l-50.4-293.2l-321.9,64.7c-28,5.6-51.8-22-43.9-51.3
						c8.6-32,14.9-74.6,10.2-125.2c-10.8-117-114-151.4-206.1-125.7c-79.3,22.1-157.2,168.6-47.7,285.9c21.4,23,9.8,62.6-19.8,68.6
						l-270.8,54.5l59.6,346.9c64.9-123.8,192.7-118.9,259.6-19.2c67.1,100.2,44.6,206.8-63.3,235.6c-55.2,14.7-96.2-0.1-123.1-18
						c-14.1-9.3-31.3,3.1-28.3,20.5l48.1,280l267.6-44.4c29.7-4.9,53.7,29.1,39.4,57.1c-12.3,24.3-20.4,53.7-16.3,86.7
						c11.9,95.5,93.8,175.4,184.5,171.3c91.4-4.1,170.7-109.8,141.4-198.8c-13.9-42.2-37.2-80.6-57.9-109.3
						c-17.3-23.9-4.8-58,22.8-62.6l321.3-53.4l-47.9-278.8C1441.2,1059.8,1414.3,1050,1397.7,1065.8z"/>
				</g>
				<path class="st16" d="M448.9,1465.9c-69.9-52.3-186.3-60.5-252.9-60.4c-29.2,0-54.1,20.8-59.2,49.5
					c-14.8,83.2-56.7,300.3-65.6,338c-7.3,30.9-15.3,61.2-20.5,80.1c-3.1,11.3,3.5,23,14.9,26.1c59,16.2,161.9,28,203.5,32.4
					c9.2,1,16.6-7.2,15-16.2c-1.4-7.7-0.7-15.6,2.1-22.9l104.3-276.8c112.2,86.5,195.6,81,254.3,46.9
					c-16.5-30.7-29.4-62.1-38.7-94.3C510.4,1569.3,448.9,1465.9,448.9,1465.9z"/>
				<path class="st17" d="M756.2,1523l-20.8-19.3c-47.4,47.1-91.1,64.2-129.3,64.6c9.3,32.1,22.1,63.6,38.7,94.3
					C722,1617.7,756.2,1523,756.2,1523z"/>
				<path class="st17" d="M744.5,1525.6l95-13.5l78-64.3c-13.9-5.5-81.5,23.3-81.5,23.3s-75.7,2.3-95.7,5.9
					c-16.6,3-9.9,26.4-7.1,34.2c0.6,1.6,1,2.6,1,2.6L744.5,1525.6z"/>
			</g>
		</g>
		<g class="st0">
			<path class="st18" d="M2394.9,1048.5c0,0-182.4,233.5,25.7,471.1l78.2-7.3c0,0-150.6-241.8-83.5-434.6l110.8,8.1l61.3-39.9
				L2394.9,1048.5z"/>
			<g class="st1">
				<path class="st15" d="M2708.7,697.8c-23.5,14.5-52.2,28.1-85.1,35.8c-182,42.8-171.1-190.9-82-290.7
					c45.6-51.1,103.8-39.6,150-15.8c34,17.4,74.3-9,72-47.9l-18.9-319.4l-298.3,26.1c-33.4,2.9-52,41-34.9,70.1
					c19.7,33.5,38.6,79.6,41.9,135.5c7.3,123.6-152.5,165.3-204.1,173.1c-46.6,7.1-236.9-66.3-134.7-281.5
					c14.9-31.3-8.1-66.8-41.2-63.9l-329.8,28.9l18.7,316.4c1.6,26.4-26,43.2-47.1,29.2c-99.8-65.9-230.3,8.4-249.7,64.7
					c-23,66.7-22.5,199.3,116.9,229.2c73.3,15.8,125.1-6.5,157.8-31.5c19.5-14.8,46.8-1.2,48.3,24l17.8,300.8l340.2-18.3
					c33.8-1.8,51.4-42.2,30.4-69.9c-30-39.6-63.7-87.7-73.4-115.9c-18.6-54,5.4-168.7,132.7-194.9
					c128.5-26.4,227.8,56.5,229.5,174.1c0.8,52.9-9.3,97.1-20.6,129.7c-10.2,29.4,12.9,60,43.4,58.4l311.8-16.8L2783.2,737
					C2780.9,699.5,2740.3,678.3,2708.7,697.8z"/>
			</g>
			<g class="st1">
				<path class="st11" d="M2494.8,2191.9c0,0,147.8,322.1,225.3,455.5c0,0,15.4,83.9,0,110.3l-13.1,5.8l61.3-1.8
					c0,0,5.4-112.9,1.2-119.2c-4.2-6.3-12.7-5.9-12.7-5.9s-26.3-208.1-102.3-252.5l-73.7-253.9L2494.8,2191.9z"/>
				<path class="st10" d="M2680.9,2779.4c-0.1,1.5,47.8,0.8,73.9,0.3c9.6-0.2,17.8-6.9,19.9-16.3l19.7-103.3
					c1.9-9.8-4.4-19.3-14.1-21.6l-11-2.5c0,0-15.7,21.5-10.7,41.7s9.3,72.6-3.1,78.7c-12.5,6.1-48.3,7.2-48.3,7.2
					S2681.7,2766.1,2680.9,2779.4z"/>
				<path class="st10" d="M2354.8,2781.3c-4.8,2.8-2.8,10.2,2.7,10.1c43.6-0.4,141.2-1.8,149.8-5.4c11.2-4.7-4.1-44.9-20.2-58.5
					l-88.8,29L2354.8,2781.3z"/>
				<path class="st11" d="M2327.2,2171.4c0,0,95.5,462,122.5,552.1l-63.9,40.1c0,0,32-5.4,55.8-7.2c23.7-1.7,45.6-29,45.6-29
					l-7.7-12.2c0,0-23.9-459.5-18.1-511.7L2327.2,2171.4z"/>
				<path class="st11" d="M2090.1,1093.7c0,0-13.2,240.3,205.6,363.1l-52.7,120.1c0,0-198-119.8-190.8-446.5
					c0.2-9.4-3.1-18.6-9.3-25.7l-42.1-48.8c-16-18.6-22-43.9-16.1-67.7l5.5-22.2c1.9-7.4,10.3-11,16.9-7.1l4.4,2.6
					c14,8.1,25.1,20.5,31.7,35.3l20.7,46.2c5,11.2,6.6,15.1,12.3,15.9c7.6,1.2,14.8-4.2,16.5-11.7l1.5-6.3
					C2112.9,1056.7,2112.1,1074.2,2090.1,1093.7z"/>
				<path class="st16" d="M2288.1,1438.9c36.6,10.2,160.6,42.8,238,41.4l-47.5,268.2l3.8,43.8l-155-0.7c0,0-43.6-101.3-78.1-151.8
					c-9.9-14.6-2.5-32,3.1-48.7l-7.7-5.2c-7.9-5.2-11.3-15.1-8.4-24.1l37.7-115.5C2276.1,1440.5,2282.2,1437.2,2288.1,1438.9z"/>
				<path class="st10" d="M2315,1768.7l3,26.5c0,0-43.8,131.2,21.9,437.5c0,0,142.3,40.3,259.2-56.1c0,0-33-289.1-42-302.6
					c-44.9-67.1-74.8-81.7-74.8-81.7l-1.3-29C2481.1,1763.3,2356,1786,2315,1768.7z"/>
				<path class="st17" d="M2375.7,1460.5c-0.5-0.7,32.4-99.3,32.4-99.3l47.1,4.3l18.4,111.9
					C2473.6,1477.3,2399.7,1492.2,2375.7,1460.5z"/>
				<path class="st11" d="M2443.9,1205.6c-3.1,2-100.7,42.3-79.7,143.6c1.2,6,5.2,11.1,10.8,13.5c14.3,6.4,45.1,17.3,82,13.6
					c51.1-5.2,84.6-94.4,83.2-120.3C2538.7,1230,2475,1186.3,2443.9,1205.6z"/>
				<linearGradient id="SVGID_5_" gradientUnits="userSpaceOnUse" x1="2678.3257" y1="1275.064" x2="1836.3534" y2="2261.0576">
					<stop  offset="0" style="stop-color:#09005D"/>
					<stop  offset="1" style="stop-color:#1A0F91"/>
				</linearGradient>
				<path class="st19" d="M2473.6,1166.3c-2.6,0.3-56.4,19.1-29.7,58.1c26.7,39,36.7,61.9,24.1,79.1c-11.5,15.6-37,6.7-34.8,39.2
					c0.4,6.5-2.4,12.8-7.8,16.5c-24,16.2-82.6,66.3-24.5,137.6c4.7,5.8,5.7,13.8,2,20.3c-17,30.5-52.7,119.8,76.5,169.3
					c127.7,48.9,173.8-34.5,186.7-67.9c2.8-7.2,9.9-11.6,17.6-11.3c14,0.7,33.9-1.7,33-20.4c-0.6-11.4-7.7-21.6-16.1-29.8
					c-8.3-8.1-6.7-22.3,3.4-28c7.6-4.3,14.4-11.1,17.2-21.6c7.7-28.7-7.7-114.4-89.9-129c-6.9-1.2-14-7.6-15-14.5c0-0.1,0-0.2,0-0.3
					c-1.1-6.7,1.2-13.5,6.6-17.5c13.1-9.6,30-29,16.3-60.1c-12.1-27.6-35.4-36.9-52.7-39.8c-10.1-1.7-16.8-11.3-14.7-21.4
					C2577.8,1197.2,2572.7,1153.3,2473.6,1166.3z"/>
			</g>
		</g>
	</g>
</g>
</svg>
