<?xml version="1.0" encoding="utf-8"?>
<!-- Generator: Adobe Illustrator 23.1.0, SVG Export Plug-In . SVG Version: 6.00 Build 0)  -->
<svg version="1.1" id="_x2018_лой_x5F_1" xmlns="http://www.w3.org/2000/svg" xmlns:xlink="http://www.w3.org/1999/xlink"
	 x="0px" y="0px" viewBox="0 0 2405 1722.9" style="enable-background:new 0 0 2405 1722.9;" xml:space="preserve">
<style type="text/css">
	.st0{display:none;fill:#FFFFFF;}
	.st1{fill:#E6E3F4;}
	.st2{display:none;}
	.st3{display:inline;fill:#CAC2ED;}
	.st4{display:none;opacity:0.8;}
	.st5{display:inline;fill:#D7D2EC;}
	.st6{display:inline;}
	.st7{fill:#D7D2EC;}
	.st8{display:none;opacity:0.5;}
	.st9{fill:#CAC2ED;}
	.st10{fill:#6332DF;}
	.st11{fill:#F3FAFF;}
	.st12{fill:#2F11AA;}
	.st13{fill:#B186F5;}
	.st14{fill:#6A39E0;}
	.st15{fill:#F49390;}
	.st16{fill:#AEC3FF;}
	.st17{display:inline;fill:#FFB27D;}
	.st18{display:inline;fill:#7F50E7;}
	.st19{display:inline;fill:#373C7A;}
	.st20{display:inline;fill:#18093C;}
	.st21{display:inline;fill:#A477F2;}
	.st22{display:inline;fill:#FCA56B;}
	.st23{display:inline;fill:#163560;}
	.st24{fill:#1F4D84;}
	.st25{fill:#739AF0;}
	.st26{opacity:0.5;}
	.st27{fill:#B3CFF9;}
	.st28{fill:#FFB27D;}
	.st29{fill:#A477F2;}
	.st30{display:inline;fill:#233862;}
	.st31{display:inline;fill:#2B1B5B;}
	.st32{fill:#233862;}
	.st33{display:none;fill:#939BA5;}
	.st34{display:none;fill:#96A6BC;}
	.st35{display:inline;fill:#F2CCAA;}
	.st36{fill:#FFFFFF;}
	.st37{display:inline;fill:#2B478B;}
	.st38{display:inline;fill:#E8945B;}
	.st39{fill:#373C7A;}
	.st40{fill:#020007;}
	.st41{fill:#18093C;}
	.st42{fill:#ED975D;}
	.st43{fill:#7F50E7;}
	.st44{fill:#EBF3FA;}
	.st45{display:none;fill:#78CAD2;}
	.st46{display:none;fill:#233862;}
</style>
<rect x="-275" y="-138.6" class="st0" width="3000" height="2000"/>
<g>
	<path class="st1" d="M213.3,1716.9c0,0-406.2-346.8-97.4-675.5c328.8-350,37.5-799.3,483.8-980.6c482.5-196,606.6,149.2,808.6,96.2
		c402.9-105.7,913.9-53.7,828.8,459.9c-106.7,644.6,331.2,562.4,71.1,1102.2L213.3,1716.9z"/>
	<g class="st2">
		<path class="st3" d="M1408.2,672.3c0,0,67.4-285.7,294.9-317.2c0,0,44.3-5.4,59,43.3s-73.2,49.1-127.6,68.7
			C1580,486.7,1453.2,569.8,1408.2,672.3z"/>
		<path class="st3" d="M1403,618.9c0,0-23.6-236.7,142.3-320.7c0,0,32.5-15.8,56.6,17.6s-43.2,56.9-79.7,86.3
			C1485.8,431.4,1410.5,528.5,1403,618.9z"/>
	</g>
	<g class="st4">
		<path class="st5" d="M891.6,839.8c0,0,97.5-54.6,52-128.8c0,0-36.4-45.5-75.4-57.2c0,0,20.8,110.6,0,113.2
			c-20.8,2.6-14.3-124.9-14.3-124.9s-102.8-49.4-143.1-45.5c0,0,63.7,108,42.9,105.4s-92.3-111.9-92.3-111.9S556,570.5,539.1,633
			c-16.9,62.4,10.4,93.6,26,97.5s115.8,2.6,113.2,15.6s-70.2,33.8-108,22.1c0,0,41.6,102.8,96.2,97.5c54.6-5.2,71.5-39,105.4-41.6
			c33.8-2.6,58.5,6.5,41.6,15.6s-74.1,3-101.5,26.2c-27.3,23.2-49.4,37.5,1.3,47.9s141.8,3.9,160-35.1
			C891.6,839.8,891.6,839.8,891.6,839.8z"/>
		<g class="st6">
			<path class="st7" d="M587.3,652.5c0,0,273.1,88.4,304.4,187.3c0,0-1.3,44.2,26,94.9v19.5c0,0-28.6-66.3-44.2-75.4
				C873.4,878.8,934.5,792.9,587.3,652.5z"/>
			<path class="st7" d="M917.6,934.7c0,0,42.1,64,18.1,141.8l-10.8-2.9c0,0,10.5-85.8-11.5-128.9
				C891.3,901.6,917.6,934.7,917.6,934.7z"/>
		</g>
	</g>
	<g class="st8">
		<path class="st3" d="M945.8,1280.8c0,0,63.9-191.5-86.9-235.2c0,0-103.9-16.5-170.3,15.2c0,0,162.1,122.4,137.5,151.1
			c-24.6,28.8-170.8-149.4-170.8-149.4s-197.3,58.8-246.4,113c0,0,216.2,66.7,185.3,88.5S335,1227,335,1227
			s-164.4,101.9-111.1,205.8s127.7,112.4,153.2,98.7c25.6-13.8,157.7-137.1,170.1-116.6c12.3,20.5-52.7,130.5-117.3,160.7
			c0,0,180.4,86.7,247,13.3c66.6-73.3,48.1-139,90.1-183.6s86.1-62.4,74.5-29.7s-95.4,94-103.6,158.2c-8.3,64.2-20.4,110.2,60,62.4
			c80.4-47.7,194.1-167,171-241.2C945.8,1280.8,945.8,1280.8,945.8,1280.8z"/>
		<g class="st6">
			<path class="st9" d="M311.8,1400.4c0,0,472.2-213.7,634-119.6c0,0,55,67.4,23.1,74.2C968.9,1355,946.2,1166.1,311.8,1400.4z"/>
		</g>
	</g>
	<g class="st2">
		<path class="st5" d="M1644.1,1301.3c0,0,18.8-114.5,107.3-96.3c0,0,57.3,19.4,82.5,53.4c0,0-115.2,18.8-110.4,40
			c4.8,21.2,126.9-30.2,126.9-30.2s84.5,82.8,95,123.5c0,0-127.9-24-118-4.6s141.8,50.6,141.8,50.6s56.3,95.9,1.3,134.5
			c-54.9,38.6-95.1,22.9-104.4,9.1c-9.3-13.9-43.5-112-55.2-104.9c-11.8,7.1-8.2,80.5,16.6,113.2c0,0-115-4.3-129.2-59.4
			s12.8-83.6,3.4-117.5s-27-54.8-29.9-35.1c-2.9,19.7,23.3,73.4,10.3,108.3s-19.2,61.5-47.2,15.7c-28.1-45.8-53.9-137-22.3-168.5
			C1644.1,1301.3,1644.1,1301.3,1644.1,1301.3z"/>
		<g class="st6">
			<path class="st7" d="M1934.4,1532.1c0,0-182.9-235.3-290.3-230.8c0,0-42.7,16.9-101.8,8.2l-19,6.9c0,0,74.8,4.5,89.2,16.5
				C1612.5,1332.8,1674.6,1242.8,1934.4,1532.1z"/>
			<path class="st7" d="M1542.2,1309.4c0,0-77.3-18.5-144.8,32.5l6.7,9.5c0,0,80-40.6,129.8-34.3
				C1583.8,1323.4,1542.2,1309.4,1542.2,1309.4z"/>
		</g>
	</g>
	<g class="st2">
		<path class="st3" d="M1609.7,827.1c0,0-119.2-66.8-63.6-157.4c0,0,44.5-55.6,92.2-70c0,0-25.4,135.1,0,138.3
			s17.5-152.6,17.5-152.6s125.6-60.4,174.9-55.6c0,0-77.9,132-52.5,128.8s112.9-136.7,112.9-136.7s128.8-23.8,149.5,52.5
			c20.7,76.3-12.7,114.5-31.8,119.2c-19.1,4.8-141.5,3.2-138.3,19.1c3.2,15.9,85.9,41.3,132,27c0,0-50.9,125.6-117.7,119.2
			c-66.8-6.4-87.4-47.7-128.8-50.9c-41.3-3.2-71.5,7.9-50.9,19.1c20.7,11.1,90.6,3.6,124,32s60.4,45.9-1.6,58.6
			c-62,12.7-173.3,4.8-195.6-42.9C1609.7,827.1,1609.7,827.1,1609.7,827.1z"/>
		<g class="st6">
			<path class="st9" d="M1981.8,598.1c0,0-333.9,108.1-372,228.9c0,0,1.6,54.1-31.8,116.1V967c0,0,35-81.1,54.1-92.2
				C1632,874.8,1557.3,769.8,1981.8,598.1z"/>
			<path class="st9" d="M1577.9,943.1c0,0-51.5,78.2-22.1,173.4l13.2-3.6c0,0-12.9-104.8,14.1-157.6
				C1610.1,902.6,1577.9,943.1,1577.9,943.1z"/>
		</g>
	</g>
	<g class="st2">
		<g class="st6">
			<rect x="809.9" y="496.4" class="st10" width="891.3" height="1218.9"/>
			<rect x="847.9" y="529.3" class="st11" width="815.3" height="1152.4"/>
			<path class="st12" d="M1086.5,496.4v41.5c0,22.9,18.6,41.5,41.5,41.5h222.8c22.9,0,41.5-18.6,41.5-41.5v-41.5L1086.5,496.4
				L1086.5,496.4z"/>
		</g>
		<g class="st6">
			<rect x="942.5" y="1518.6" class="st13" width="100.9" height="10.2"/>
			<rect x="1066.7" y="1518.6" class="st13" width="100.9" height="10.2"/>
			<rect x="942.5" y="1541.2" class="st13" width="139.9" height="10.2"/>
		</g>
		<g class="st6">
			<g>
				<path class="st14" d="M1059.7,668.5h36.9c10.3,0,18.2,2.9,23.5,8.2c4.5,4.5,6.9,10.8,6.9,18.7c0,13-7,21.2-17.3,25l19.7,28.8
					h-20.8l-17.5-25.8h-13.7v25.8h-17.8v-80.7H1059.7z M1095.4,707.8c8.7,0,13.6-4.6,13.6-11.7c0-7.6-5.3-11.5-14-11.5h-17.7v23.2
					H1095.4z"/>
				<path class="st14" d="M1141.8,714.7v-46.2h17.8v45.7c0,13.2,6.6,20,17.4,20s17.4-6.6,17.4-19.4v-46.3h17.8v45.6
					c0,24.5-13.7,36.5-35.4,36.5C1155.1,750.6,1141.8,738.4,1141.8,714.7z"/>
				<path class="st14" d="M1230.3,668.5h17.8v64.6h40.3v16.2h-58v-80.8H1230.3z"/>
				<path class="st14" d="M1301.8,668.5h60.9v15.8h-43.3v16.4h38.1v15.8h-38.1v17h43.8v15.8h-61.5L1301.8,668.5L1301.8,668.5z"/>
				<path class="st14" d="M1373.5,737.5l10.5-12.6c7.3,6,14.9,9.8,24.1,9.8c7.3,0,11.7-2.9,11.7-7.8c0-4.5-2.8-6.8-16.3-10.3
					c-16.3-4.2-26.8-8.7-26.8-24.9c0-14.7,11.8-24.3,28.3-24.3c11.8,0,21.8,3.7,30,10.3l-9.2,13.4c-7.2-5-14.2-8-21-8
					s-10.4,3.1-10.4,7.3c0,5.3,3.5,7,17.4,10.6c16.4,4.3,25.6,10.2,25.6,24.5c0,16-12.2,25-29.7,25
					C1395.6,750.4,1383.2,746.2,1373.5,737.5z"/>
			</g>
			<rect x="1029.5" y="768.3" class="st14" width="438" height="5.7"/>
		</g>
		<g class="st6">
			<g>
				<g>
					<path class="st13" d="M1581.6,957.5h-147.5V810.1h147.5V957.5z M1441.1,950.6h133.6V817h-133.6V950.6z"/>
				</g>
				<g>
					<path class="st15" d="M1511.6,927.9c-3.1,0-6-1.4-8-3.8l-45.5-55c-3.7-4.4-3-11,1.4-14.7s11-3,14.7,1.4l36.1,43.7l65.3-109.6
						c2.9-4.9,9.3-6.6,14.3-3.6c4.9,2.9,6.6,9.3,3.6,14.3l-72.8,122.3c-1.7,2.9-4.8,4.8-8.2,5.1
						C1512.1,927.9,1511.8,927.9,1511.6,927.9z"/>
				</g>
			</g>
			<g>
				<g>
					<g>
						<rect x="992.8" y="831.8" class="st13" width="327.6" height="14.4"/>
					</g>
					<g>
						<rect x="992.8" y="896.1" class="st13" width="301.9" height="14.4"/>
					</g>
					<g>
						<rect x="1231.1" y="864" class="st13" width="89.3" height="14.4"/>
						<rect x="992.8" y="864" class="st13" width="213.5" height="14.4"/>
					</g>
				</g>
				<g>
					<g>
						<path class="st13" d="M919.4,844.7l-14.7,4.1l-3-11.6l21.9-7h10v82h-14.2V844.7z"/>
					</g>
					<path class="st13" d="M943,907c0-2.9,2.3-5.2,5.2-5.2s5.2,2.3,5.2,5.2s-2.3,5.2-5.2,5.2C945.3,912.1,943,909.8,943,907z"/>
				</g>
			</g>
		</g>
		<g class="st6">
			<g>
				<g>
					<path class="st13" d="M1582.8,1177.8h-147.5v-147.5h147.5V1177.8z M1442.3,1170.9h133.6v-133.6h-133.6V1170.9z"/>
				</g>
				<g>
					<path class="st15" d="M1512.7,1148.2c-3.1,0-6-1.4-8-3.8l-45.5-55c-3.7-4.4-3-11,1.4-14.7s11-3,14.7,1.4l36.1,43.7l65.3-109.6
						c2.9-4.9,9.3-6.6,14.3-3.6c4.9,2.9,6.6,9.3,3.6,14.3l-72.8,122.3c-1.7,2.9-4.8,4.8-8.2,5.1
						C1513.2,1148.2,1513,1148.2,1512.7,1148.2z"/>
				</g>
			</g>
			<g>
				<g>
					<g>
						<path class="st13" d="M901.1,1121.2l27.8-23.7c11.1-9.4,15.1-14.6,15.1-21.8c0-8-5.7-12.6-13.1-12.6c-7.4,0-12.5,4-18.7,12.1
							l-10-7.9c7.7-10.9,15.4-17,29.8-17c15.8,0,26.7,9.7,26.7,24.4c0,12.7-6.8,19.5-21,31.3l-16.6,13.9h38.5v12.5h-58.4
							L901.1,1121.2L901.1,1121.2z"/>
					</g>
					<path class="st13" d="M969.2,1127.3c0-2.8,2.3-5.1,5.1-5.1s5.1,2.3,5.1,5.1c0,2.8-2.3,5.1-5.1,5.1S969.2,1130.1,969.2,1127.3z"
						/>
				</g>
				<g>
					<g>
						<g>
							<rect x="995.5" y="1052.1" class="st13" width="344.2" height="14.4"/>
						</g>
						<g>
							<rect x="995.5" y="1116.4" class="st13" width="317.2" height="14.4"/>
						</g>
						<g>
							<rect x="1245.9" y="1084.2" class="st13" width="93.8" height="14.4"/>
							<rect x="995.5" y="1084.2" class="st13" width="224.4" height="14.4"/>
						</g>
					</g>
				</g>
			</g>
		</g>
		<g class="st6">
			<g>
				<g>
					<path class="st13" d="M1582.8,1399.7h-147.5v-147.5h147.5V1399.7z M1442.3,1392.8h133.6v-133.6h-133.6V1392.8z"/>
				</g>
				<g>
					<path class="st15" d="M1512.7,1370.1c-3.1,0-6-1.4-8-3.8l-45.5-55c-3.7-4.4-3-11,1.4-14.7s11-3,14.7,1.4l36.1,43.7l65.3-109.6
						c2.9-4.9,9.3-6.6,14.3-3.6c4.9,2.9,6.6,9.3,3.6,14.3l-72.8,122.3c-1.7,2.9-4.8,4.8-8.2,5.1
						C1513.2,1370.1,1513,1370.1,1512.7,1370.1z"/>
				</g>
			</g>
			<g>
				<g>
					<g>
						<rect x="995.5" y="1274" class="st13" width="344.2" height="14.4"/>
					</g>
					<g>
						<rect x="995.5" y="1338.3" class="st13" width="317.2" height="14.4"/>
					</g>
					<g>
						<rect x="1245.9" y="1306.1" class="st13" width="93.8" height="14.4"/>
						<rect x="995.5" y="1306.1" class="st13" width="224.4" height="14.4"/>
					</g>
				</g>
			</g>
			<g>
				<g>
					<path class="st13" d="M900.1,1339.7l9.7-9c5.7,6.7,12,10.4,20.8,10.4c7.8,0,13.7-4.7,13.7-12.2c0-7.8-7.1-12.2-18.2-12.2h-6.4
						l-2.3-8.7l21.4-22.7h-34.2v-12.1h52.3v10.4l-22,22.6c12.5,1.8,23.3,8.3,23.3,22.5c0,14.6-11.3,25-27.7,25
						C916.6,1353.6,906.8,1347.8,900.1,1339.7z"/>
				</g>
				<path class="st13" d="M962.1,1348.5c0-2.8,2.3-5,5-5c2.8,0,5,2.3,5,5s-2.3,5-5,5C964.3,1353.6,962.1,1351.3,962.1,1348.5z"/>
			</g>
		</g>
		<g class="st6">
			<g>
				<path class="st16" d="M1315.5,1551.2c-29.6,0-55.4-21-61.3-49.9c-0.5-2.3,1-4.6,3.3-5.1s4.6,1,5.1,3.3
					c5.1,25,27.3,43.1,52.9,43.1c25.3,0,47.5-17.9,52.8-42.6c0.5-2.3,2.8-3.8,5.1-3.3c2.3,0.5,3.8,2.8,3.3,5.1
					C1370.5,1530.4,1344.8,1551.2,1315.5,1551.2z"/>
			</g>
			<g>
				<path class="st16" d="M1258.4,1481.8c-0.3,0-0.5,0-0.8-0.1c-2.3-0.4-3.8-2.7-3.4-5c5.7-29.3,31.5-50.6,61.4-50.6
					c28.7,0,53.7,19.4,60.7,47.3c0.6,2.3-0.8,4.6-3.1,5.2c-2.3,0.6-4.6-0.8-5.2-3.1c-6-24-27.6-40.8-52.4-40.8
					c-25.8,0-48.1,18.4-53,43.7C1262.2,1480.3,1260.4,1481.8,1258.4,1481.8z"/>
			</g>
			<g>
				<path class="st16" d="M1315.5,1577.5c-49,0-88.9-39.9-88.9-88.9s39.9-88.9,88.9-88.9s88.9,39.9,88.9,88.9
					S1364.6,1577.5,1315.5,1577.5z M1315.5,1411.9c-42.3,0-76.7,34.4-76.7,76.7c0,42.3,34.4,76.7,76.7,76.7
					c42.3,0,76.7-34.4,76.7-76.7C1392.3,1446.3,1357.9,1411.9,1315.5,1411.9z"/>
			</g>
			<g>
				<rect x="1297.9" y="1477.5" class="st16" width="35.2" height="5.6"/>
				<rect x="1297.9" y="1500.5" class="st16" width="35.2" height="5.6"/>
				<rect x="1289.6" y="1488.6" class="st16" width="51.8" height="5.6"/>
			</g>
		</g>
	</g>
	<g class="st2">
		<path class="st17" d="M738.7,1106.3c0,0,2.8-6.2,4.6-9.2s9.5-11.6,10.8-9.6s6.5,15.1,3.7,18.8c-2.8,3.7,0.2,10.1-13.6,14
			L738.7,1106.3z"/>
		<path class="st18" d="M585.6,1067c0,0,70.6,58.9,98.1,53.4c21.5-4.3,54.5-15.6,54.5-15.6l6.6,16.9c0,0-29.6,40.2-60.5,40.4
			c-48.3,0.4-83.9-20.9-83.9-20.9L585.6,1067z"/>
		<path class="st19" d="M461.8,1688.2c0,0,2,33,8.4,33.5c0.9,0.1,32.4,0.1,32.4,0.1l40.3-0.2c0,0-0.3-9.7-12-11.8
			c-11.8-2.1-31.5-10.3-38.6-25.9C484.8,1667.5,461.8,1688.2,461.8,1688.2z"/>
		<path class="st20" d="M459.5,1690.5c0,0,12.3,4.1,21.8,4.1c10.7,0,20.4-2.9,20.4-2.9s2.3-22.3,15-71.5
			c6.7-25.8,16.2-58.9,29.7-100c37.4-113.8,48.8-180.3,49.8-186.6c0.1-0.3,0.1-0.5,0.1-0.5l-0.1-0.1l-114.9-50.5
			c0,0,14.2,156.8-3.9,217c-2.5,8.4-4.7,18.2-6.6,28.8C459.2,1593.8,459.5,1690.5,459.5,1690.5z"/>
		<path class="st20" d="M516.7,1620.3c6.7-25.8,16.2-58.9,29.7-100c37.4-113.8,48.8-180.3,49.8-186.6c0-0.2,0-0.4,0-0.6l-114.9-50.5
			c0,0,14.2,156.8-3.9,217C474.7,1508,516.7,1620.3,516.7,1620.3z"/>
		<path class="st19" d="M551.6,1688.2c0,0,2,33,8.4,33.5c0.9,0.1,32.4,0.1,32.4,0.1l40.3-0.2c0,0-0.3-9.7-12-11.8
			c-11.8-2.1-31.5-10.3-38.6-25.9C574.6,1667.5,551.6,1688.2,551.6,1688.2z"/>
		<path class="st20" d="M616.7,1286.3c0,0,1.5,101.6-16.1,226.3S589,1690.3,589,1690.3s-12.1,3.9-17,4.3c-12.4,1-25.1-2.9-25.1-2.9
			s-25.2-124.8-17.9-187.2c7.2-62.4-34.5-214.3-34.5-214.3L616.7,1286.3z"/>
		<path class="st17" d="M535.2,1048.5l22.4,14.7l20.4-5.8c3.7-5.3,4.7-15.6,4.8-24.5c0.1-8.8-0.8-16.3-0.8-16.3l-30.3-13.4l-11.3-5
			c0,0.2,0.9,9.3,1,10.6C543.6,1032.5,535.2,1048.5,535.2,1048.5z"/>
		<path class="st21" d="M617.3,1314.5c-27.9,27-133.6,22.4-140.1-7.3c-6.5-29.7,7.1-252.9,54.8-266.9c9.9-2.9,62.8,14.2,62.8,14.2
			s8.3,21.7,13.8,49.4c1.1,5.4,4.1,62.4,6.5,115.8c1.1,25,2,49.1,2.5,66.8C617.8,1303.1,617.9,1313.9,617.3,1314.5z"/>
		<path class="st22" d="M543.8,1009.3c6.1,10.4,27.7,19.5,39.1,23.6c0.1-8.8-0.8-16.3-0.8-16.3l-30.3-13.4
			C545.1,1003.2,541.1,1004.7,543.8,1009.3z"/>
		<path class="st17" d="M593.5,1014.8c0,0-48.8,15.2-57.8-15.3s-21.4-49.1,9.4-60.1c30.8-11,40.3-1.2,45.8,8.3
			C596.4,957.1,606,1010.1,593.5,1014.8z"/>
		<path class="st23" d="M589,944.8c0,0-3.1,35.5-10.5,34c-7.3-1.5-15.4-4.8-14.4,5.9c1.1,10.7-7.1,29.1-17.7,29
			c-22.7-0.1-47.4-58.4-41.2-69.4C523.2,912.3,614.9,905.8,589,944.8z"/>
		<path class="st18" d="M581.8,1041.1c-0.6-0.3-36.3-16.3-40.5-14.9s-9.4,14.1-9.4,14.1l62.8,14.2
			C594.8,1054.5,589.8,1044.5,581.8,1041.1z"/>
		<g class="st6">
			<path class="st24" d="M803.9,1214l-200,188.3c-3.9,3.7-8.9,4.9-11,2.6l-6.8-7.2c-2.1-2.3-0.7-7.1,3.3-10.8l200-188.3
				c3.9-3.7,8.9-4.9,11-2.6l6.8,7.2C809.3,1205.4,807.8,1210.3,803.9,1214z"/>
			<path class="st25" d="M691.7,1319.6l-87.8,82.6c-3.9,3.7-8.9,4.9-11,2.6l-6.8-7.2c-2.1-2.3-0.7-7.1,3.3-10.8l87.8-82.6
				L691.7,1319.6z"/>
			<path class="st24" d="M757.9,1142.9c7.7,25.3,21.9,49,42.5,68.4c63.1,59.3,162.3,56.3,221.6-6.8c58.5-62.2,56.4-159.6-4.3-219.2
				c-0.8-0.8-1.6-1.6-2.5-2.4c-63-59.3-162.2-56.3-221.6,6.7C753.8,1032.1,742.1,1090.9,757.9,1142.9z M802.8,998.2
				c34.5-36.7,83.7-51.3,129.9-43.3c26.9,4.7,52.8,17,74.2,37.1c58.1,54.6,60.9,146,6.2,204.1c-20.1,21.4-45.2,35.3-71.8,41.6
				c-45.6,10.8-95.6-0.8-132.3-35.3C750.9,1147.6,748.1,1056.3,802.8,998.2z"/>
			<g class="st26">
				<path class="st27" d="M1013.1,1196.1c-20.1,21.4-45.2,35.3-71.8,41.6c-45.6,10.8-95.6-0.8-132.3-35.3
					c-58.1-54.6-60.9-146-6.2-204.1c34.5-36.7,83.7-51.3,129.9-43.3c26.9,4.7,52.8,17,74.2,37.1
					C1064.9,1046.6,1067.7,1138,1013.1,1196.1z"/>
			</g>
		</g>
		<path class="st18" d="M617.4,1286.5c-110.2-78.5-101-183.3-101-183.3c40.3,22.7,80.2,72.9,98.6,116.5
			C616,1244.6,616.9,1268.8,617.4,1286.5z"/>
		<g class="st6">
			<path class="st28" d="M726.2,1250.7c7.8-1.8,13-7.7,14.1-8.7c0,0,3.3,0.2-0.5,7.3c-0.3,0.6-1,2.1-1.6,3.2c-0.2,0.4,0.1,0.9,0.6,1
				c4.5,0.3,9-1.4,17.6,0.4c1.2,0.2,1.5,3.1,1.5,4.3c-0.1,2.1,0.1,4.4-2.3,7.5c-1.4,1.8-5.3,3.8-13.9,7.3
				c-3.3,1.3-12.7,0.3-21.5-2.7l-7.1-3.3l2.2-13.1l1.8,0.4C719.8,1254.9,723.2,1251.5,726.2,1250.7z"/>
			<path class="st29" d="M550.6,1054.5c0,0-99,18.9,29.1,162.2c20.5,22.9,131.2,52.8,131.2,52.8s11.2-9.6,5.6-17.3
				c0,0-76.2-55.4-93-64.2c-7.5-4-29.3-88.4-41.6-108.7C569.6,1059.1,550.6,1054.5,550.6,1054.5z"/>
		</g>
		<path class="st17" d="M741.4,1108c0,0,3.2-6.2,3.9-9.5c0.6-3.3,4.7-12.8,6.4-14.5c0.7-0.7,2.9,0.2,3.2,3.1
			c0.1,1.3-0.5,3.5-1.6,6.3c-1.8,4.4-1.5,10.4-2.1,12.4C749.6,1110.9,741.4,1108,741.4,1108z"/>
	</g>
	<g class="st2">
		<path class="st30" d="M1068.5,1675.1c0,1.7,0.1,3.4,0.3,5c0.6,5.2,2.2,10.1,4.6,14.6c1.9,3.5,4.2,6.6,7,9.3
			c7.4,7.4,17.6,12,28.9,12h574.5c22.6,0,40.9-18.3,40.9-40.8c0-11.3-4.6-21.5-12-28.9s-17.6-12-28.9-12h-574.5
			C1086.8,1634.2,1068.5,1652.5,1068.5,1675.1z"/>
		<path class="st30" d="M1112.3,1626.8h197c3.4,0,6.3-2.8,6.3-6.3l0,0c0-3.4-2.8-6.3-6.3-6.3h-197c-3.4,0-6.3,2.8-6.3,6.3l0,0
			C1106,1624,1108.8,1626.8,1112.3,1626.8z"/>
		<rect x="1123.1" y="1626.8" class="st30" width="21.4" height="7.4"/>
		<path class="st30" d="M1073.4,1694.6c1.9,3.5,4.2,6.6,7,9.3c7.4,7.4,17.6,12,28.9,12H1231v-21.3H1073.4z"/>
		<path class="st31" d="M1800.8,1663.1v23.9c0,2.6-0.4,5.2-1,7.6c-3.3,12.3-14.5,21.3-27.9,21.3h-598.5c-13.3,0-24.6-9-27.9-21.3
			c-0.7-2.4-1-5-1-7.6v-23.9c0-16,12.9-28.9,28.9-28.9h598.5C1787.8,1634.2,1800.8,1647.1,1800.8,1663.1z"/>
		<path class="st20" d="M1799.7,1694.6c-3.3,12.3-14.5,21.3-27.9,21.3h-598.5c-13.3,0-24.6-9-27.9-21.3H1799.7z"/>
		<g class="st6">
			<path class="st32" d="M1741.3,1675.2c0,12.7,4.6,24,11.9,31.5c0.2,0.2,0.3,0.3,0.5,0.5c5.6,5.6,12.7,9,20.5,9
				c12.1,0,42.1-18.3,60.8-30.4c9.3-6.1,15.7-10.6,15.7-10.6s-6.4-4.5-15.7-10.6c-18.6-12.1-48.6-30.4-60.8-30.4
				c-3.5,0-6.9,0.7-10.1,1.9c-5.3,2.1-10.1,6-13.9,10.9c-4.1,5.5-7.1,12.3-8.3,20c0,0.1,0,0.2,0,0.3
				C1741.5,1669.9,1741.3,1672.5,1741.3,1675.2z"/>
			<path class="st33" d="M1741.3,1675.2c0,12.7,4.6,24,11.9,31.5l92.1-31.7l-103.4-7.7C1741.5,1669.9,1741.3,1672.5,1741.3,1675.2z"
				/>
			<path class="st34" d="M1750.3,1647.1l91.9,25.1l-78-36C1758.8,1638.3,1754,1642.1,1750.3,1647.1z"/>
			<path class="st32" d="M1828.9,1675.2c0,4.9,2.5,9,6,10.6c9.3-6.1,15.7-10.6,15.7-10.6s-6.4-4.5-15.7-10.6
				C1831.4,1666.2,1828.9,1670.3,1828.9,1675.2z"/>
		</g>
	</g>
	<g class="st2">
		<path class="st23" d="M1991.9,928.3c-15.2-7.9-27.4-2.9-27.4-2.9c-46.6-5.5-60.2,48.8-59.5,67.5c0.6,18.7,2.8,38.8-18,63
			c-60.1,70.1,65.7,73.2,65.7,73.2c1.1-56,68.2-35.6,65.3-29.9C2104.1,1119.9,2026.5,946.3,1991.9,928.3z"/>
		<path class="st17" d="M1812.3,1150.7c0,0-8.2-12.5-14.8-12.7c-6.6-0.2-18.8-3.7-17.8-1.2c1,2.4,8.6,2.7,9.3,4.2
			s-11.2,3.7-14.7,3.9c-3.4,0.2-11.5,0-11.2,1.7c0.2,1.7,14.5,8.8,24.6,7.8s22.6,2.9,22.6,2.9L1812.3,1150.7z"/>
		<path class="st20" d="M1930.7,1154.7c0,0-4.5,8.8-12.5,18.9c-9.7,12.2-24.7,26.3-43.6,29c-9,1.3-17.8-0.6-25.9-4.2l0,0
			c-22.9-10.2-40.1-33.5-40.1-33.5c-4-11,2.6-18.5,2.6-18.5s46.2,10.4,50.6,8.2c4.4-2.2,31.5-62.2,36.3-72.2
			c10.4-21.2,26.8-27.3,26.8-27.3L1930.7,1154.7z"/>
		<path class="st20" d="M1918.2,1173.6c-9.7,12.2-24.7,26.3-43.6,29c-9,1.3-17.8-0.6-25.9-4.2c0.9,0.1,23.7,2.9,32.9-13.4
			c9.3-16.6,19.3-43,33.1-34.2C1920.7,1154.7,1920.4,1164.1,1918.2,1173.6z"/>
		<path class="st19" d="M2103.1,1653.4c0,0,14.1,12.9,11.3,22s-15.5,15.2-17.2,26.4s-8.6,17.3-14.8,17.3s-29.5,0-29.5,0
			s-4.6-7.9,6.4-10.2c11-2.4,15.2-15.5,14.5-27.7s1-28.4,1-28.4l23.4-5.4L2103.1,1653.4z"/>
		<path class="st19" d="M1983.8,1658.8c0,0,5.1,54.5-1.1,57.5l-79.2-0.2c0,0,0-9.1,12.7-11.2c12.7-2,35.1-9.5,38.9-26.1
			C1958.8,1662.4,1983.8,1658.8,1983.8,1658.8z"/>
		<path class="st20" d="M2044.7,1117.9c0,0,1.2,16.6,0,36.6c-0.8,13.2-14.2,31-16.1,35.4c-4.8,11-10.1,12.8-10.1,12.8l-41.6,10.2
			l-14.6,3.6l-46.1-13.8c0,0-21-58.6-12.6-91.6s21.3-55.9,21.3-55.9s31.3-12.3,86.6-3.1L2044.7,1117.9z"/>
		<path class="st35" d="M2032.5,1159.9c-0.8,13.2-2,25.6-3.9,29.9c-4.8,11-10.1,12.8-10.1,12.8l-41.6,10.2l-18.1-5.3
			c0,0,60.3-9.1,53.6-61L2032.5,1159.9z"/>
		<path class="st18" d="M1919.1,1211.6c0,0-22.8,71.1-24.3,95.3c-1.5,24.2,43.7,343.8,45.5,354.9c1.7,10.5,14.8,17.2,14.8,17.2
			s6,3.5,14.6,1.1c11.9-3.4,15.6-7.4,15.6-7.4s17.8-227.9,6.8-309.3s-11.1-151.8-11.1-151.8L1919.1,1211.6L1919.1,1211.6z"/>
		<path class="st21" d="M2015.8,1209.5c0,0,34.8,46.7,38.1,78.3c3.2,31.6,5.1,142.6,12,173.4s32.3,90.1,32.3,186.1
			c0,0-2.6,5.5-10.8,8.4c-2.6,0.9-6.1,1.8-9.5,2.6c-6.7,1.5-13.6-1.7-16.7-7.9c-17.2-34.6-71.9-146.2-74.7-169.4
			c-2-16.4-19.3-124.9-57-188.6c-9.1-15.3,5.6-76.1,5.6-76.1L2015.8,1209.5z"/>
		<path class="st30" d="M1915.4,1200.6c0,0,9.2,7.3,27.4,7.6c21.8,0.4,75.7-5.5,75.7-5.5s2.4,6.7,2.3,13.8c0,0-65.8,16.6-104,2.4
			C1916.8,1218.9,1911.9,1209.6,1915.4,1200.6z"/>
		<g class="st6">
			<path class="st36" d="M1937.6,1227c-5.5,0-9.9-5-9.9-11.2s4.5-11.2,9.9-11.2c5.5,0,9.9,5,9.9,11.2
				C1947.5,1221.9,1943.1,1227,1937.6,1227z M1937.6,1207.8c-3.7,0-6.6,3.6-6.6,7.9c0,4.4,3,7.9,6.6,7.9c3.7,0,6.6-3.6,6.6-7.9
				C1944.2,1211.3,1941.3,1207.8,1937.6,1207.8z"/>
		</g>
		<path class="st37" d="M2082.3,1219.5l-53.5,46.5c-3.9,3.4-9.7,3-13.1-0.9l-68.2-78.3c-3.4-3.9-3-9.7,0.9-13.1l53.5-46.5
			c3.9-3.4,9.7-3,13.1,0.9l68.2,78.3C2086.6,1210.3,2086.2,1216.2,2082.3,1219.5z"/>
		<path class="st17" d="M2003.3,1213.7c-0.8,0.2-28.4,3.5-28.4,9.2c0,6.6,8.1,15.5,15.7,15c3.1-0.2,17.4-13.3,17.4-13.3
			L2003.3,1213.7z"/>
		<path class="st17" d="M1989.1,1049c-3.1-7.6-5-19.2-4.9-33.6l-2.1,0.4l-35.1,7c0,0,0.8,11,0.8,21.5c0,0.1,0,0.2,0,0.3
			c0,9-6.1,18.1,8.4,21.7C1960.6,1067.3,1995.7,1065,1989.1,1049z"/>
		<path class="st38" d="M1946.9,1022.7c0,0,0.8,11,0.8,21.5c19.6-0.6,30-18.5,34.3-28.4L1946.9,1022.7z"/>
		<path class="st17" d="M1940.4,1032.6c0,0,46.5,0.8,46.5-28.2c0-29,6.1-48.4-23.6-50.1c-29.7-1.7-35.5,9.3-37.8,19
			C1923.1,983,1928.3,1031.6,1940.4,1032.6z"/>
		<path class="st23" d="M1942.1,953.6c0,0,12.7,34,32.3,39c19.5,5,28-0.2,28-0.2s-15-11.9-18.1-32.7
			C1984.3,959.7,1951.7,937.5,1942.1,953.6z"/>
		<path class="st23" d="M1945.3,956.4c0,0-9.4,3.5-13.3,10.4c-3.8,6.7-7,15.6-6.3,26.6c0,0-9.6-23.1,1.2-36.1
			C1938.3,943.4,1945.3,956.4,1945.3,956.4z"/>
		<path class="st17" d="M2003.3,1213.7c0,0-6.6-2.1-11-1.5s-7.7-0.1-7.7,1.2c0,1.2,5.7,1.8,6.9,2.4
			C1992.7,1216.3,2003.3,1213.7,2003.3,1213.7z"/>
		<path class="st20" d="M2011.5,1052c0,0,33,2.3,45.6,33.1s36.6,82.4,36.6,91s-13.4,35.5-85.4,50.8c0,0-7.4-7.8-7-14
			c0,0,44.9-38.6,44.8-43.1c-0.2-8.5-7.4-19.8-46.8-59.3C1988.7,1099.8,2011.5,1052,2011.5,1052z"/>
	</g>
	<g class="st2">
		<g class="st6">
			<path class="st32" d="M894.9,138c0,0-26.5-4.5-43.3,8.2s-19.5,8.6-28.9,16.4c-9.5,7.8,0.2,17.2-5,22.4s-5.4,15.3,2.3,17.9
				c7.7,2.6,2.5,16.8,19.3,18.6c16.8,1.9,9.3,9.6,25.2,10.8s29.1,1.7,37.5,5.2s16-0.1,18.4-6.5s9.1,1.9,11.1-6.9
				c2-8.7-5-12.2-1.1-19.3C934.2,197.9,943.9,147.5,894.9,138z"/>
			<path class="st28" d="M940.7,646.1c-1.8,2.1-2,4.5-1.1,7l0,0c1.7,4.6,7.3,9.8,13.8,15c0.8,0.7,1.6,1.3,2.2,1.8
				c0.2,0.1,0.3,0.3,0.5,0.4c0.1,0.1,0.3,0.2,0.4,0.3c6.1,5.5,3.8,6.8,14.7,18c12.5,12.8,21,13,23.4,11.8c2-1-2.2-7.8-6.8-15.4
				c-0.2-0.4-0.4-0.7-0.7-1.1c-0.6-1-1.2-2-1.9-3.1c-5.5-9.2-4.1-13.5-2.9-27.3c1-11.2,16.9-62.5,16.9-62.5l-23.7-3.9
				c0,0-6.8,40.8-14.7,47.2c-4.2,3.4-8.9,3.5-12.9,6c-0.3,0.2-0.6,0.4-0.8,0.5C944.8,642.3,942.5,643.9,940.7,646.1z"/>
			<path class="st39" d="M940.7,646.1c-1.8,2.1-2,4.5-1.1,7l0,0c2.1,4.6,7.6,9.8,13.9,14.9c0.8,0.7,1.5,1.3,2.2,1.9
				c0.2,0.1,0.3,0.3,0.5,0.4c0.1,0.1,0.3,0.2,0.4,0.3c6.1,5.5,3.8,6.8,14.7,18c12.5,12.8,21,13,23.4,11.8c2-1-2.2-7.8-6.8-15.4
				c-2.4-0.9-13.6-5.3-22.2-16.1c-7.5-9.5-12.6-21.6-17.7-28.7c-0.3,0.2-0.6,0.4-0.8,0.5C944.8,642.3,942.5,643.9,940.7,646.1z"/>
			<path class="st28" d="M1131.7,629.9c1.5,7.3,11.9,6,23.6,3.1c11.6-2.9,8.9,0.5,25.5-1.5s21.5-8.2,22-10.6
				c0.4-2.2-7.8-2.9-16.6-3.9c-1.1-0.1-2.2-0.2-3.3-0.4c-9.9-1.2-17.2-7.5-26.3-12.7c-8.6-4.9-21.5-25.1-21.5-25.1l-22.7,2
				c0,0,12.1,18,16.7,25.9c2.7,4.6,2.6,10.7,2.3,15.5C1131.3,624.7,1131.1,627.3,1131.7,629.9z"/>
			<path class="st39" d="M1155.2,633c11.6-2.9,8.9,0.5,25.5-1.5s21.5-8.2,22-10.6c0.4-2.2-7.8-2.9-16.6-3.9l-0.1,0.2
				c0,0-9.9,7.1-23.7,7.5c-11.2,0.4-23.2-2.8-31-2.6c-0.2,2.6-0.3,5.2,0.2,7.8C1133.2,637.2,1143.6,635.9,1155.2,633z"/>
			<path class="st40" d="M1043.5,485.1l-20.9,57.4l-27.2,74.9c0,0-7.5,0.8-14.8-1.2c-6.7-1.9-14.3-6.8-14.3-6.8s7.1-80.2,21.2-126.4
				c3.6-11.8,7.7-21.4,12.2-26.8C1021.8,429.6,1043.5,485.1,1043.5,485.1z"/>
			<path class="st41" d="M1021.2,394.4c-14-4.4-53.6,1.7-93.5,9.7l-8.5-13.7l-86.2-6.1c0,0-27,59.7-12.1,103.3
				c2.9,8.5,16.7,8.8,16.7,8.8s50.5,0.6,67.2,0.4c42.9-0.3,90.5-30.1,96.7-31.4c10.1-2.1,14.3,18.1,24.6,39.3
				c10.3,21.2,95.9,93.5,95.9,93.5s13.1,0,18.5-2c5.8-2.2,7.9-5.1,7.9-5.1S1052.7,404.3,1021.2,394.4z"/>
			<path class="st28" d="M892.1,257.6c0.1,0.1-15.1,5.4-25.3,1c-9.6-4.2-17-19.9-16.8-19.9c4.4-0.2,9.1-4.1,12.6-29.1l1.9,0.7
				l31.3,11c0,0-2.2,10-3.6,19.6C891,248.8,890.4,256.5,892.1,257.6z"/>
			<path class="st42" d="M895.8,221.2c0,0-1.3,7-3.2,17.1c-18-3.1-25.5-18.4-28.1-28.1L895.8,221.2z"/>
			<path class="st28" d="M900.5,231.1c0,0-42.7-5.4-39-32c3.8-26.6,0.8-45.2,28.3-42.8c27.5,2.3,31.3,13.2,32.2,22.4
				S911.7,231.8,900.5,231.1z"/>
			<path class="st32" d="M920.4,164.2c0,0-27.2,23.8-45.8,25.8s-25.7-3.9-25.7-3.9s10.9-9.2,17.4-23.9c1.9-4.3,6-7.3,10.7-7.8
				C890.3,153.1,915.5,152.4,920.4,164.2z"/>
			<path class="st32" d="M903.3,162.2c0,0,9.2,8.8,12.1,15.3c2.8,6.3,3.8,21.4,1.6,27.5c0,0,14.1-27.8,5.9-41.2
				C914.2,149.5,903.3,162.2,903.3,162.2z"/>
			<path class="st29" d="M928.5,320.2c-0.7,86.5,0.1,68.4-9.3,76.7c-2.3,2-8.7,3.2-17.1,3.8c-26.5,1.9-73.1-2.1-74.9-7
				c-6.2-16.9-2-22.2-7.2-48.1c-0.6-2.8-1.2-5.7-2-9c-4.4-17.8-8.6-23.8,6.3-52.6c13.5-26,27.6-47.2,28.9-46.4
				c36.3,21.2,39,3.1,39,3.1S928.9,278.1,928.5,320.2z"/>
			<path class="st41" d="M1022.6,542.5l-27.2,74.9c0,0-7.5,0.8-14.8-1.2c-6.7-1.9-14.3-6.8-14.3-6.8s7.1-80.2,21.2-126.4
				L1022.6,542.5z"/>
			<path class="st29" d="M892.2,240.8c0,0,37.2,6,41.7,22s30.8,109.8,30.8,109.8s-18.9,3.5-27.6-5.1c-8.8-8.7-30.9-80.7-30.9-80.7
				L892.2,240.8z"/>
			<path class="st43" d="M902.2,400.7c-26.5,1.9-73.1-2.1-74.9-7c-6.2-16.9-2-22.2-7.2-48.1l12.5-36.1c0,0-1.8,40.1,10.1,50.6
				c11.9,10.5,48.5,20,54.4,28.8C899.8,393.1,901.6,397.3,902.2,400.7z"/>
			<path class="st28" d="M871.7,384.1c0,0,26.1-6,30.3-3.7s14.6,10.7,15.9,13.6c1.3,2.9-9.4-2.2-12.9-3.1c-2.3-0.6-8.2,1.5-11.1,2.5
				c-12.3,4.2-19.9,2.1-19.9,2.1L871.7,384.1z"/>
			<path class="st29" d="M853.2,237.6c0,0-35.1,2.4-47.1,19.4c-16.9,24-50.2,125.9-30.6,139.4c22,15.1,99.7,3.3,99.7,3.3
				s2.5-12.1-1.1-17.9s-62.2-14.9-65-17.6c-2.7-2.7,33.4-52.9,33.3-61C842.3,295.1,853.2,237.6,853.2,237.6z"/>
			<path class="st28" d="M903.4,387.6c0,0,5.5,7,7.3,7.9c1.8,0.8,3,0.6,3,0.6l-3.7-6.6L903.4,387.6z"/>
			<path class="st28" d="M902,380.4l16,7.6c0,0-0.7,1.1-2.6,1c-2-0.1-6.9-1.9-6.9-1.9L902,380.4z"/>
		</g>
		<g class="st6">
			<g>
				<polygon class="st32" points="907.3,406.9 1033.3,406 1070.5,311.5 944.7,312.4 				"/>
				<polygon class="st32" points="1034.7,402.3 868.3,403.5 868.4,407.2 1033.3,406 				"/>
			</g>
			<path class="st44" d="M1001.2,359.1c0.9-3.3-1-6-4.3-6s-6.8,2.7-7.7,6.1c-0.9,3.3,1,6,4.3,6
				C996.8,365.1,1000.2,362.4,1001.2,359.1z"/>
		</g>
	</g>
	<path class="st45" d="M266.3,1715.6h92c4.9-4.2-3.4-13.7-12.1-14.3c-3.8-0.3-8.6,0.5-14,1.7c-1.3-16.8-8.5-92.4-35.7-89.3
		c-30.6,3.4,0,33.3,8.7,51c6.4,13.1,13.2,31.9,16.3,40.8c-2.5,0.5-5.1,1.1-7.7,1.6c-4.1-12.5-19.2-54.4-38.4-51.9
		c-22.6,2.9-13.5,19.7,2.5,29.6c11.7,7.3,26.1,17.8,33,22.8c-5.8,0.9-11.8,1.6-18,1.4C277,1708.5,269.3,1713.1,266.3,1715.6z"/>
	<path class="st45" d="M2256.6,1715.4h-101.7c-5.5-4.6,3.8-15.1,13.4-15.8c4.2-0.3,9.5,0.6,15.5,1.8c1.4-18.6,9.4-102.2,39.5-98.8
		c33.9,3.8,0,36.8-9.6,56.4c-7.1,14.5-14.6,35.3-18,45.1c2.8,0.6,5.6,1.2,8.5,1.7c4.5-13.8,21.2-60.2,42.4-57.5
		c24.9,3.2,14.9,21.8-2.8,32.8c-13,8.1-28.9,19.7-36.5,25.2c6.4,1,13.1,1.8,19.9,1.6C2244.8,1707.5,2253.3,1712.6,2256.6,1715.4z"/>
	<path class="st46" d="M2402.1,1722.9h-2290c-1.6,0-2.9-1.3-2.9-2.9v-1.8c0-1.6,1.3-2.9,2.9-2.9h2290c1.6,0,2.9,1.3,2.9,2.9v1.8
		C2405,1721.5,2403.7,1722.9,2402.1,1722.9z"/>
</g>
</svg>
