<?xml version="1.0" encoding="utf-8"?>
<!-- Generator: Adobe Illustrator 23.1.0, SVG Export Plug-In . SVG Version: 6.00 Build 0)  -->
<svg version="1.1" xmlns="http://www.w3.org/2000/svg" xmlns:xlink="http://www.w3.org/1999/xlink" x="0px" y="0px"
	 viewBox="0 0 2825.8 2772.6" style="enable-background:new 0 0 2825.8 2772.6;" xml:space="preserve">
<style type="text/css">
	.st0{display:none;}
	.st1{display:inline;}
	.st2{fill:#FFFFFF;}
	.st3{fill:url(#SVGID_1_);}
	.st4{opacity:0.3;}
	.st5{fill:#91B3FA;}
	.st6{fill:#78CAD2;}
	.st7{fill:#B9E4E8;}
	.st8{fill:#885AE9;}
	.st9{opacity:0.31;fill:#CDBAF6;}
	.st10{opacity:0.68;}
	.st11{fill:#FFB27D;}
	.st12{fill:#18093C;}
	.st13{fill:#EF9D65;}
	.st14{fill:#1D1B59;}
	.st15{fill:url(#SVGID_2_);}
	.st16{fill:#6836E0;}
	.st17{fill:#F49390;}
	.st18{fill:#F8706C;}
	.st19{fill:url(#SVGID_3_);}
	.st20{fill:url(#SVGID_4_);}
	.st21{fill:url(#SVGID_5_);}
	.st22{fill:url(#SVGID_6_);}
	.st23{fill:url(#SVGID_7_);}
	.st24{fill:url(#SVGID_8_);}
	.st25{fill:url(#SVGID_9_);}
	.st26{fill:#BDD0FB;}
	.st27{opacity:0.8;fill:#FFFFFF;}
	.st28{fill:url(#SVGID_10_);}
</style>
<g id="Background" class="st0">
	<g class="st1">
		<g>
			<rect x="-450.7" y="-474.5" class="st2" width="3710" height="3710"/>
		</g>
	</g>
</g>
<g id="Illustration">
	<g>
		<linearGradient id="SVGID_1_" gradientUnits="userSpaceOnUse" x1="3166.9214" y1="3594.0227" x2="689.6735" y2="517.4364">
			<stop  offset="0" style="stop-color:#DAE3FE"/>
			<stop  offset="1" style="stop-color:#E9EFFD"/>
		</linearGradient>
		<path class="st3" d="M2485.4,2380.7c-56.9,59.9-110.7,98.5-153.3,129.1c-500,358.8-1091.7,254.2-1217.4,228.7
			c-185.7-37.7-544.6-110.6-804.1-415.8C-82,1861-20.9,1133.6,283.7,653.5c55.7-87.8,349.9-575.3,948-653.5
			c361.9-47.3,783.8,48.1,1089.3,304.1C2962.3,841.4,2916.6,1926.8,2485.4,2380.7z"/>
		<g>
			<g>
				<g class="st4">
					<path class="st5" d="M617.9,906.1c4.3-5.8,12.5-7.1,18.3-2.8c11.3,8.3,23.2,16.3,35.2,23.7c6.1,3.7,8.1,11.7,4.5,17.8
						c0,0.1-0.1,0.1-0.1,0.2c-3.8,6.2-11.8,8.1-18,4.3c-12.7-7.8-25.2-16.2-37.1-24.9c-5.4-4-6.9-11.4-3.5-17.2
						C617.3,906.9,617.6,906.5,617.9,906.1z M732.5,958.9c12.9,5.7,26.2,10.8,39.5,15.4c6.8,2.3,10.5,9.8,8.2,16.6
						c-2.4,6.9-9.8,10.5-16.6,8.2c-14-4.8-28-10.2-41.6-16.2c-6.6-2.9-9.6-10.6-6.7-17.3c0.2-0.5,0.4-0.9,0.7-1.4
						C719.3,958.6,726.4,956.2,732.5,958.9z M838.7,991.9c13.8,2.6,27.9,4.7,42,6.1c7.2,0.7,12.4,7.2,11.7,14.4
						c-0.7,7.2-7.2,12.4-14.4,11.7c-14.8-1.5-29.6-3.7-44.2-6.5c-7.1-1.4-11.8-8.2-10.4-15.3c0.3-1.5,0.8-2.9,1.6-4.2
						C827.6,993.4,833.1,990.8,838.7,991.9z M949.5,1000.2c14.1-0.5,28.3-1.7,42.3-3.4c7.2-0.9,13.7,4.2,14.6,11.4
						c0.9,7.2-4.2,13.7-11.4,14.6c-14.7,1.8-29.7,3-44.5,3.6c-7.2,0.3-13.3-5.4-13.6-12.6c-0.1-2.6,0.6-5,1.8-7.1
						C940.9,1003,944.9,1000.4,949.5,1000.2z M1059.5,983.7c13.6-3.6,27.2-7.9,40.5-12.7c6.8-2.4,14.3,1.1,16.8,7.9
						c2.5,6.8-1.1,14.3-7.9,16.8c-14,5-28.3,9.5-42.6,13.3c-7,1.9-14.2-2.3-16-9.3c-0.9-3.5-0.4-7.1,1.4-10
						C1053.2,986.8,1056,984.6,1059.5,983.7z M1163,943.2c12.5-6.6,24.8-13.7,36.7-21.3c6.1-3.9,14.2-2.1,18.1,4
						c3.9,6.1,2.1,14.2-4,18.1c-12.5,8-25.5,15.5-38.6,22.4c-6.4,3.4-14.3,0.9-17.7-5.5c-2.2-4.2-1.9-9,0.3-12.7
						C1159,946.1,1160.8,944.4,1163,943.2z M1440.2,543.5c7.2,0.7,12.4,7.2,11.7,14.4c-1.5,14.7-3.7,29.6-6.5,44.2
						c-1.4,7.1-8.2,11.8-15.3,10.4c-7.1-1.4-11.8-8.2-10.4-15.3c2.7-13.9,4.8-28,6.2-42c0.2-1.9,0.8-3.7,1.7-5.3
						C1430,545.7,1434.9,543,1440.2,543.5z M1255,880.9c10.7-9.2,21.1-18.9,31-28.9c5.1-5.2,13.4-5.2,18.5-0.2
						c5.2,5.1,5.2,13.3,0.2,18.5c-10.4,10.6-21.4,20.8-32.6,30.5c-5.5,4.7-13.8,4.1-18.5-1.4c-3.7-4.4-4.1-10.5-1.4-15.1
						C1252.9,883,1253.8,881.8,1255,880.9z M1418.5,655.6c6.8,2.3,10.5,9.8,8.2,16.6c-4.8,14-10.3,28-16.2,41.6
						c-2.9,6.6-10.6,9.6-17.3,6.7c-6.6-2.9-9.6-10.6-6.7-17.3c5.7-12.9,10.9-26.2,15.4-39.5c0.3-0.8,0.7-1.6,1.1-2.4
						C1406,656.1,1412.5,653.6,1418.5,655.6z M1330.7,799.5c8.4-11.3,16.4-23.1,23.7-35.1c3.8-6.2,11.9-8.1,18-4.3
						c6.1,3.7,8,11.6,4.4,17.8c0,0.1-0.1,0.2-0.1,0.2c-7.8,12.6-16.2,25.1-25,37c-4.3,5.8-12.5,7-18.3,2.7c-5.4-4-6.9-11.4-3.5-17.1
						C1330.1,800.3,1330.4,799.9,1330.7,799.5z"/>
					<path class="st5" d="M1428.7,458c-1.3,2.2-2,4.9-1.8,7.6c0.5,6.7,0.9,13.6,1.2,20.4c0.3,7.2,6.3,12.9,13.6,12.6
						c7.2-0.3,12.9-6.3,12.6-13.6c-0.3-7.1-0.7-14.4-1.2-21.4c-0.6-7.2-6.9-12.6-14.1-12C1434.6,451.9,1430.8,454.4,1428.7,458z"/>
				</g>
				<g class="st4">
					<path class="st5" d="M1244.9,103.5c-3.2,5.5-2.1,12.6,3,16.7c5.2,4.3,10.4,8.8,15.5,13.3c5.4,4.8,13.7,4.4,18.5-1
						c4.8-5.4,4.4-13.7-1-18.5c-5.3-4.8-10.8-9.5-16.3-14c-5.6-4.6-13.8-3.8-18.4,1.8C1245.6,102.3,1245.2,102.9,1244.9,103.5z"/>
					<path class="st5" d="M494,216.5c4-6.1,12.1-7.8,18.1-3.8c6.1,4,7.7,12.1,3.8,18.1c-7.5,11.5-14.7,23.5-21.4,35.9
						c-3.4,6.3-11.4,8.7-17.8,5.3c-6.4-3.4-8.7-11.4-5.3-17.8c2.9-5.3,5.9-10.6,8.9-15.8C484.7,231,489.3,223.6,494,216.5z
						 M458.7,311.5c6.8,2.6,10.2,10.1,7.6,16.9c-4.9,13-9.3,26.3-13.1,39.6c-2,7-9.2,11-16.2,9c-7-2-11-9.2-9-16.2
						c4-14,8.6-28.1,13.8-41.7c0.3-0.7,0.6-1.4,1-2C445.9,311.7,452.6,309.2,458.7,311.5z M537.1,159.6c9.6-11,19.7-21.7,30.2-31.9
						c5.2-5,13.5-4.9,18.5,0.3c5,5.2,4.9,13.5-0.3,18.5c-10,9.7-19.6,19.8-28.7,30.3c-4.8,5.5-13,6-18.5,1.3
						c-4.8-4.2-5.8-11.2-2.7-16.5C536,160.9,536.5,160.2,537.1,159.6z M428,419.6c7.2,1,12.2,7.6,11.1,14.8
						c-1.9,13.7-3.3,27.7-4.1,41.5c-0.4,7.2-6.6,12.8-13.8,12.4c-7.2-0.4-12.8-6.6-12.4-13.8c0.8-14.6,2.2-29.3,4.3-43.7
						c0.2-1.7,0.8-3.4,1.7-4.8C417.5,421.5,422.6,418.8,428,419.6z M621.8,81.7c11.7-8.6,24-16.8,36.5-24.5c6.2-3.8,14.2-1.8,18,4.3
						c3.8,6.2,1.8,14.2-4.3,18c-11.8,7.2-23.5,15-34.7,23.2c-5.8,4.3-14,3-18.3-2.8c-3.2-4.3-3.3-10-0.7-14.4
						C619.1,84.1,620.3,82.8,621.8,81.7z M721.6,24.3c13.4-5.8,27.2-11.2,41-15.9c6.8-2.3,14.3,1.3,16.6,8.2
						c2.3,6.9-1.3,14.3-8.2,16.6c-13.1,4.5-26.2,9.6-38.9,15.1c-6.6,2.9-14.3-0.1-17.2-6.8c-1.7-4-1.3-8.4,0.7-11.9
						C716.9,27.4,718.9,25.4,721.6,24.3z M831.5-10c14.3-2.8,29-5,43.4-6.6c7.2-0.8,13.7,4.4,14.4,11.6c0.8,7.2-4.4,13.7-11.6,14.4
						c-13.8,1.5-27.7,3.6-41.3,6.3c-7.1,1.4-14-3.2-15.4-10.3c-0.6-3.3,0-6.5,1.6-9.1C824.5-6.9,827.7-9.3,831.5-10z M946.3-19.5
						c14.6,0.4,29.4,1.4,43.9,3.1c7.2,0.8,12.4,7.3,11.5,14.5c-0.8,7.2-7.3,12.4-14.5,11.5C973.4,8,959.4,7,945.5,6.7
						c-7.2-0.2-12.9-6.2-12.7-13.5c0.1-2.3,0.7-4.4,1.8-6.3C936.9-17,941.3-19.7,946.3-19.5z M1060.4-3.6
						c14.1,3.6,28.3,7.9,42.1,12.7c6.8,2.4,10.5,9.8,8.1,16.7c-2.4,6.8-9.8,10.4-16.7,8.1c-13.1-4.6-26.5-8.6-40-12
						c-7-1.8-11.2-8.9-9.4-15.9c0.3-1.2,0.8-2.4,1.4-3.4C1048.7-2.4,1054.6-5,1060.4-3.6z M1168.1,37c9.6,4.9,19.1,10.1,28.4,15.5
						c3.3,2,6.7,4,10,6c6.2,3.8,8.2,11.9,4.3,18c-3.8,6.2-11.9,8.1-18,4.3c-3.1-1.9-6.3-3.8-9.5-5.7c-8.8-5.2-17.9-10.1-27-14.7
						c-6.5-3.3-9-11.2-5.8-17.6c0.1-0.2,0.3-0.5,0.4-0.7C1154.4,36.1,1161.9,33.9,1168.1,37z"/>
					<path class="st5" d="M411.7,538.5c-1.3,2.2-2,4.9-1.8,7.7c0.6,7.1,1.3,14.3,2.2,21.4c0.9,7.2,7.4,12.3,14.6,11.4
						c7.2-0.9,12.3-7.4,11.4-14.6c-0.8-6.8-1.5-13.6-2.1-20.3c-0.6-7.2-6.9-12.6-14.1-12C417.5,532.4,413.8,535,411.7,538.5z"/>
				</g>
				<g>
					<path class="st6" d="M582.8,683.9c0.9,2.4,3.3,4,5.9,4l74.5-1.8c19.2,29,43.2,55.1,71.5,77.1l-7.2,74.1
						c-0.3,2.6,1.2,5.1,3.5,6.2l81.3,37.2c2.4,1.1,5.2,0.5,7-1.3l51.4-53.9c35.1,7.1,70.6,8.2,105.1,3.8l47.3,57.6
						c1.7,2,4.4,2.8,6.9,1.8l83.8-31.1c2.4-0.9,4-3.3,4-5.9l-1.8-74.5c29-19.2,55.1-43.2,77.1-71.5l74.1,7.2
						c2.6,0.3,5.1-1.2,6.2-3.5l37.2-81.3c1.1-2.4,0.5-5.2-1.3-7l-53.9-51.4c7.1-35.1,8.2-70.6,3.8-105.1l57.6-47.3
						c2-1.7,2.8-4.4,1.8-6.9l-31.1-83.8c-0.9-2.4-3.3-4-5.9-4l-74.5,1.8c-19.2-29-43.2-55.1-71.5-77.1l7.2-74.1
						c0.3-2.6-1.2-5.1-3.5-6.2l-81.3-37.2c-2.4-1.1-5.2-0.5-7,1.3l-51.4,53.9c-35.1-7.1-70.6-8.2-105.1-3.8l-47.3-57.6
						c-1.7-2-4.4-2.8-6.9-1.9L756.4,153c-2.4,0.9-4,3.3-4,5.9l1.8,74.5c-29,19.2-55.1,43.2-77.1,71.5l-74.1-7.2
						c-2.6-0.3-5.1,1.2-6.2,3.5l-37.2,81.3c-1.1,2.4-0.5,5.2,1.3,7l53.9,51.4c-7.1,35.1-8.2,70.6-3.8,105.1l-57.6,47.3
						c-2,1.7-2.8,4.4-1.9,6.9L582.8,683.9z"/>
					<g>
						<path class="st7" d="M865,449c31-38.6,87.7-44.8,126.3-13.8c18.7,15,30.4,36.4,33,60.3c2.6,23.8-4.2,47.3-19.3,66
							c-31,38.6-87.7,44.8-126.3,13.8c-35.1-28.2-43.4-77.7-21.3-115.4C859.7,456.1,862.2,452.5,865,449z M1003.5,497.8
							c-2-18.3-11-34.7-25.3-46.2c-29.6-23.8-73-19-96.8,10.6c-23.8,29.6-19,73,10.6,96.8c29.6,23.8,73,19,96.8-10.6
							c2.2-2.7,4.1-5.5,5.8-8.4C1002,527.3,1005.1,512.7,1003.5,497.8z"/>
					</g>
					<path class="st7" d="M746.5,392.6c-3.8,6.5-7.3,13.2-10.5,20.1l0,0c-1,2.2-2,4.4-2.9,6.6c-4.6,10.9-8.3,22.2-11.1,33.6
						c0,0.2-0.1,0.3-0.1,0.5c-0.1,0.4-0.2,0.9-0.3,1.3c-0.2,0.9-0.4,1.7-0.6,2.6c-0.5,2.3,0.6,4.5,2.5,5.6c0.5,0.3,1,0.5,1.5,0.6
						c2.8,0.6,5.6-1.2,6.2-4c3.2-14.5,8-28.8,14.3-42.5c31-67.8,93.8-111.2,162.7-120.8c38.3-5.3,78.5-0.2,116.2,17.1
						c6.6,3,13,6.4,19.2,10c41.6,24.4,73.4,62.1,90.4,108c19.6,52.7,17.5,109.8-5.9,160.9c-48.3,105.5-173.4,152-278.9,103.7
						c-6.5-3-12.8-6.3-19-9.9c-26.6-15.6-49.4-36.8-66.9-62.2c-0.5-0.7-1-1.2-1.7-1.6c-1.7-1-3.9-1-5.6,0.2c-2.4,1.6-3,4.9-1.4,7.3
						c18.3,26.7,42.3,49,70.2,65.3c6.4,3.8,13.1,7.2,19.9,10.4c110.7,50.7,242.1,1.8,292.8-108.9c24.6-53.6,26.8-113.6,6.2-168.9
						c-17.9-48.1-51.2-87.7-94.9-113.4c-6.5-3.8-13.2-7.3-20.2-10.5c-53.6-24.6-113.6-26.8-168.9-6.2
						C811.8,315.6,772.2,348.9,746.5,392.6z"/>
				</g>
			</g>
			<g>
				<g class="st4">
					<path class="st5" d="M93.3,1118.2c-1.8,3-1.4,7,1.1,9.6c4.7,5,9.6,9.9,14.6,14.6c3.2,3.1,8.4,2.9,11.4-0.3
						c3.1-3.2,2.9-8.4-0.3-11.4c-4.8-4.5-9.5-9.2-13.9-14c-3.1-3.3-8.2-3.4-11.4-0.3C94.1,1117,93.6,1117.6,93.3,1118.2z"/>
					<path class="st5" d="M140.3,1158.8c2.6-3.6,7.7-4.4,11.3-1.7c9.1,6.7,18.6,12.9,28.4,18.6c2.1,1.2,4.1,2.4,6.2,3.6
						c3.9,2.2,5.3,7.1,3.1,11c-2.2,3.6-7.1,5.3-11,3.1c-2.2-1.2-4.4-2.5-6.5-3.7c-10.2-6-20.2-12.6-29.7-19.5
						c-3.4-2.5-4.3-7.1-2.2-10.6C140,1159.2,140.2,1159,140.3,1158.8z M223.3,1197c12.7,5.2,25.7,9.6,38.9,13.2
						c4.3,1.2,6.9,5.6,5.7,9.9c-1.2,4.3-5.6,6.9-9.9,5.7c-13.8-3.7-27.5-8.4-40.8-13.8c-4.1-1.7-6.1-6.4-4.4-10.6
						c0.1-0.4,0.3-0.7,0.5-1C215.2,1197,219.5,1195.5,223.3,1197z M302.4,1218.4c13.5,1.9,27.3,3,41,3.2c4.5,0.1,8,3.8,8,8.2
						c-0.1,4.5-3.7,8-8.2,8c-14.3-0.2-28.8-1.4-43-3.3c-4.4-0.6-7.5-4.7-6.9-9.1c0.2-1.1,0.5-2.1,1-3
						C295.9,1219.6,299.1,1218,302.4,1218.4z M384.4,1219.7c13.6-1.5,27.2-3.8,40.5-6.9c4.4-1,8.7,1.7,9.7,6c1,4.3-1.7,8.7-6,9.7
						c-13.9,3.3-28.2,5.7-42.5,7.3c-4.4,0.5-8.4-2.7-8.9-7.2c-0.2-1.8,0.2-3.5,1.1-5C379.5,1221.5,381.8,1220,384.4,1219.7z
						 M464.2,1201c12.8-4.7,25.5-10.3,37.6-16.5c4-2,8.8-0.5,10.9,3.5c2,4,0.5,8.9-3.5,10.9c-12.7,6.6-26,12.4-39.4,17.3
						c-4.2,1.5-8.8-0.6-10.4-4.8c-0.9-2.4-0.6-4.9,0.6-6.9C461,1202.9,462.4,1201.6,464.2,1201z M537.1,1163.4
						c11.3-7.7,22.2-16.2,32.4-25.2c3.3-3,8.5-2.6,11.4,0.7c3,3.3,2.6,8.4-0.7,11.4c-10.7,9.5-22.1,18.4-34,26.4
						c-3.7,2.5-8.7,1.6-11.2-2.1c-1.8-2.7-1.8-6-0.3-8.7C535.3,1165,536.1,1164.1,537.1,1163.4z M598.5,1109.2
						c9-10.2,17.5-21.1,25.2-32.4c2.5-3.7,7.6-4.6,11.2-2.1c3.7,2.5,4.6,7.5,2.1,11.2c-8.1,11.8-17,23.3-26.5,34
						c-3,3.3-8.1,3.7-11.4,0.7c-2.9-2.6-3.5-6.9-1.6-10.1C597.9,1110,598.2,1109.6,598.5,1109.2z M671.8,999.1
						c4.2,1.6,6.3,6.2,4.8,10.4c-4.3,11.6-9.3,23.2-14.9,34.3c-0.8,1.7-1.7,3.4-2.6,5.1c-1.9,4-6.9,5.5-10.9,3.5
						c-4-2.1-5.5-6.9-3.5-10.9c0.8-1.6,1.6-3.2,2.4-4.8c5.3-10.7,10.1-21.7,14.2-32.8c0.2-0.5,0.4-0.9,0.6-1.3
						C664,999.3,668.1,997.8,671.8,999.1z"/>
				</g>
				<g class="st4">
					<path class="st5" d="M50,707.4c7.3-12.1,15.4-23.8,24-34.9c2.8-3.5,7.8-4.1,11.4-1.4c3.5,2.8,4.1,7.8,1.4,11.4
						c-8.3,10.5-16,21.7-22.9,33.2c-2.3,3.8-7.3,5.1-11.1,2.7C48.9,716.3,47.7,711.3,50,707.4C49.9,707.5,49.9,707.5,50,707.4z
						 M41,740.9c4.1,1.8,5.9,6.6,4,10.7c-5.5,12.3-10.4,25-14.4,37.8c-1.3,4.2-5.9,6.6-10.1,5.3c-4.3-1.3-6.6-5.9-5.3-10.1
						c4.2-13.4,9.3-26.8,15.1-39.6c0.1-0.3,0.3-0.5,0.4-0.8C32.7,740.7,37.2,739.2,41,740.9z M102.1,640.9c10-10,20.7-19.4,31.8-28
						c3.5-2.7,8.6-2.1,11.4,1.4c2.8,3.5,2.1,8.6-1.4,11.4c-10.6,8.2-20.8,17.2-30.3,26.7c-3.2,3.2-8.3,3.1-11.4,0
						c-2.7-2.7-3.1-6.7-1.3-9.8C101.2,641.9,101.6,641.4,102.1,640.9z M14.5,819.2c4.4,0.8,7.3,5,6.5,9.4c-2.4,13.2-4,26.7-4.8,40.1
						c-0.3,4.5-4.1,7.9-8.5,7.6c-4.5-0.3-7.9-4.1-7.6-8.5c0.8-14.1,2.5-28.2,5.1-42.1c0.2-1,0.5-1.8,1-2.6
						C7.7,820.2,11,818.6,14.5,819.2z M168.8,588.9c12.1-7.2,24.7-13.8,37.6-19.6c4.1-1.8,8.9,0,10.7,4.1c1.8,4.1,0,8.9-4.1,10.7
						c-12.3,5.5-24.3,11.7-35.8,18.7c-3.8,2.3-8.8,1.1-11.1-2.8c-1.6-2.6-1.5-5.8,0-8.3C166.7,590.6,167.6,589.6,168.8,588.9z
						 M246,554.5c13.5-4.1,27.3-7.5,41.2-10c4.4-0.8,8.6,2.1,9.4,6.5c0.8,4.4-2.1,8.6-6.5,9.4c-13.2,2.4-26.4,5.6-39.3,9.6
						c-4.3,1.3-8.8-1.1-10.1-5.4c-0.7-2.3-0.4-4.6,0.8-6.5C242.4,556.4,244,555.1,246,554.5z M329.3,539.5
						c14.1-0.8,28.4-0.7,42.4,0.2c4.5,0.3,7.8,4.1,7.5,8.6c-0.3,4.5-4.1,7.8-8.6,7.5c-13.4-0.9-27-0.9-40.4-0.2
						c-4.5,0.3-8.3-3.2-8.5-7.6c-0.1-1.7,0.3-3.2,1.1-4.5C324.1,541.2,326.5,539.7,329.3,539.5z"/>
					<path class="st5" d="M1.2,906c-0.8,1.3-1.2,2.9-1.1,4.6c0.4,6.9,1.1,13.8,1.9,20.6c0.6,4.4,4.6,7.6,9,7c4.4-0.6,7.6-4.6,7-9
						c-0.8-6.4-1.4-13.1-1.9-19.6c-0.3-4.5-4.1-7.8-8.6-7.5C4.9,902.1,2.5,903.7,1.2,906z"/>
				</g>
				<g>
					<path class="st6" d="M115.6,1009.1c0.6,1.6,2.2,2.7,3.9,2.7l49.8-1.2c12.9,19.4,28.9,36.9,47.9,51.6l-4.8,49.6
						c-0.2,1.7,0.8,3.4,2.4,4.1l54.4,24.9c1.6,0.7,3.5,0.4,4.7-0.9l34.4-36.1c23.5,4.7,47.2,5.5,70.3,2.6l31.7,38.5
						c1.1,1.4,3,1.8,4.6,1.2l56.1-20.8c1.6-0.6,2.7-2.2,2.7-3.9l-1.2-49.8c19.4-12.9,36.9-28.9,51.6-47.9l49.6,4.8
						c1.7,0.2,3.4-0.8,4.1-2.4l24.9-54.4c0.7-1.6,0.4-3.5-0.9-4.7l-36.1-34.4c4.7-23.5,5.5-47.2,2.6-70.3l38.5-31.7
						c1.3-1.1,1.8-3,1.2-4.6L587,770c-0.6-1.6-2.2-2.7-3.9-2.7l-49.8,1.2c-12.9-19.4-28.9-36.9-47.9-51.6l4.8-49.6
						c0.2-1.7-0.8-3.4-2.4-4.1l-54.4-24.9c-1.6-0.7-3.5-0.4-4.7,0.9l-34.4,36.1c-23.5-4.7-47.2-5.5-70.3-2.6l-31.7-38.5
						c-1.1-1.4-3-1.8-4.6-1.2l-56.1,20.8c-1.6,0.6-2.7,2.2-2.7,3.9l1.2,49.8c-19.4,12.9-36.9,28.9-51.6,47.9l-49.6-4.8
						c-1.7-0.2-3.4,0.8-4.1,2.4l-24.9,54.4c-0.7,1.6-0.4,3.5,0.9,4.7l36.1,34.4c-4.7,23.5-5.5,47.2-2.6,70.3L96,948.4
						c-1.3,1.1-1.8,3-1.2,4.6L115.6,1009.1z"/>
					<g>
						<path class="st7" d="M303.6,851.2c10.2-12.7,24.8-20.7,41.1-22.5c16.2-1.8,32.2,2.9,45,13.1c26.3,21.1,30.5,59.7,9.4,86
							c-21.1,26.3-59.7,30.5-86,9.4c-12.7-10.2-20.7-24.8-22.5-41.1c-1.4-13.2,1.4-26.2,8-37.5C300,856.1,301.7,853.6,303.6,851.2z
							 M379.5,854.5c-9.4-7.5-21.1-11-33.1-9.7c-11.9,1.3-22.7,7.2-30.2,16.6l0,0c-7.5,9.4-11,21.1-9.7,33.1
							c1.3,11.9,7.2,22.7,16.6,30.2c19.3,15.5,47.7,12.4,63.3-6.9c1.4-1.7,2.6-3.6,3.8-5.4C401.3,893.4,397.1,868.6,379.5,854.5z"/>
					</g>
					<path class="st7" d="M221.1,812c-2.6,4.4-5,9-7.2,13.7c-4.3,9.4-7.7,19.3-10,29.4c-0.1,0.5-0.2,0.9-0.3,1.4
						c-0.8,3.5,0.9,7,3.8,8.7c0.7,0.4,1.5,0.7,2.4,0.9c4.4,1,8.7-1.8,9.6-6.2c2.1-9.4,5.2-18.7,9.2-27.5l0,0c0.2-0.5,0.4-1,0.7-1.4
						c9.8-20.8,24.3-38.3,42.3-51.6c9.8-7.2,20.6-13.1,32.2-17.5c0.1,0,0.2-0.1,0.3-0.1c0.3-0.1,0.6-0.2,0.9-0.3
						c34.1-12.7,71.1-11.3,104.2,3.8c4.3,2,8.4,4.1,12.4,6.5c27,15.8,47.5,40.2,58.5,69.9c12.7,34.1,11.3,71.1-3.8,104.2
						c-15.2,33.1-42.3,58.3-76.4,71c-34.1,12.7-71.1,11.3-104.2-3.8c-4.2-1.9-8.3-4.1-12.3-6.4c-17.2-10.1-32-23.8-43.3-40.3
						c-0.7-1-1.6-1.8-2.6-2.4c-2.6-1.5-6-1.5-8.7,0.3c-3.7,2.5-4.6,7.6-2.1,11.3c12.6,18.4,29.2,33.8,48.4,45.1
						c4.4,2.6,9,5,13.7,7.1c37,16.9,78.4,18.5,116.6,4.3c38.1-14.2,68.5-42.3,85.4-79.4c17-37,18.5-78.4,4.3-116.6
						c-12.3-33.2-35.3-60.5-65.5-78.2c-4.5-2.6-9.1-5-13.9-7.2C344.3,717.8,260.2,745.4,221.1,812z"/>
				</g>
			</g>
		</g>
		<g>
			
				<ellipse transform="matrix(4.385825e-02 -0.999 0.999 4.385825e-02 -269.9886 3091.5459)" class="st8" cx="1480.1" cy="1686.8" rx="1074" ry="1159.2"/>
			<ellipse class="st9" cx="1417.4" cy="1609.3" rx="909.6" ry="859.3"/>
			<g class="st10">
				<path class="st2" d="M1776.3,1692c-0.3,189.4-13.3,379.2-46.6,566c-8.5,46.6-18.2,93.1-29.9,139c-11.7,46-25.2,91.5-41.8,136.1
					c-16.7,44.4-36.1,88.2-62.3,128.2c-13.2,19.9-28.3,38.9-46.8,54.6c-9.3,7.8-19.4,14.7-30.6,19.7c-11.2,5-23.4,8.2-35.7,8.4
					c-12.4,0.4-24.8-2.1-36.1-6.6c-11.4-4.5-21.8-11.1-31.3-18.7c-19-15.2-34.3-34-47.8-53.7c-26.7-39.7-46.4-83.4-63.2-127.8
					c-16.8-44.5-30.4-90-42.2-135.9c-11.8-45.9-21.7-92.4-30.2-139c-17-93.3-28.6-187.5-36.4-281.9c-7.8-94.5-11.7-189.2-12.1-284
					c-0.2-47.4,1.1-94.7,2.7-142.1c1.8-47.3,4.4-94.6,7.9-141.9c7-94.5,17.5-188.7,33-282.2c7.8-46.7,16.9-93.3,27.9-139.4
					c11-46.1,23.7-91.9,39.6-136.6c8-22.4,16.6-44.5,26.6-66.1c9.9-21.6,21-42.7,34-62.7c13.1-19.9,28.1-38.9,46.7-54
					c9.3-7.5,19.6-14.1,30.9-18.5c11.2-4.5,23.4-6.8,35.5-6.3c12.1,0.3,24.1,3.4,35.1,8.2c11,4.9,21.2,11.5,30.5,19
					c18.6,15.1,34.1,33.7,47.8,53.1c27.2,39.2,47.7,82.4,65.5,126.3c17.6,44.1,32.2,89.3,44.9,135c12.6,45.7,23.3,91.9,32.6,138.4
					C1760.8,1312.7,1775.7,1502.6,1776.3,1692z M1762.3,1692c0.2-94.4-3.4-188.8-11.3-282.8c-7.7-94-19.4-187.8-36.9-280.6
					c-8.7-46.4-18.9-92.5-30.9-138.1C1671,945,1657,899.9,1640,855.9c-17.2-43.8-37-86.9-63.4-125.7c-13.3-19.3-28.2-37.6-46.2-52.6
					c-9-7.4-18.7-13.9-29.3-18.7c-10.5-4.7-21.9-7.8-33.4-8.2c-11.5-0.4-23.1,2-33.7,6.3c-10.7,4.3-20.5,10.7-29.5,18.1
					c-17.9,14.9-32.5,33.6-45.1,53.3c-12.6,19.8-23.3,40.8-32.9,62.3c-9.6,21.5-18,43.5-25.6,65.8c-15.2,44.6-27.4,90.2-37.8,136.2
					c-10.4,46-18.9,92.4-26.2,139.1c-14.5,93.3-23.9,187.3-29.8,281.5c-6,94.2-8.1,188.7-7.9,283c-0.2,94.4,2.9,188.8,9.9,282.9
					c7.1,94.1,17.9,188,34.1,280.9c8.1,46.5,17.6,92.7,29,138.4c11.4,45.7,24.6,91,40.9,135.2c16.3,44,35.5,87.4,61.3,126.4
					c13,19.4,27.8,37.7,45.7,52.3c9,7.2,18.7,13.5,29.2,17.7c10.5,4.3,21.8,6.7,33.1,6.3c11.3-0.3,22.4-3.3,32.8-8
					c10.3-4.8,19.9-11.3,28.7-18.8c17.5-15.1,32-33.6,44.8-53.2c25.4-39.3,44.2-82.8,60.4-126.9c16-44.2,29.1-89.6,40.4-135.4
					c11.2-45.8,20.6-92,28.7-138.5c16.1-93,26.8-186.8,33.9-280.9C1759,1880.8,1762.3,1786.4,1762.3,1692z"/>
				<path class="st2" d="M2254.1,1692c-0.7,122-16.3,244-49,361.6c-33.2,117.4-83.3,230.3-151.3,331.6
					c-34,50.6-72.5,98.3-115.6,141.5c-43,43.2-90.6,82-142.3,114.5c-51.7,32.4-107.5,58.3-166,75.9
					c-58.4,17.6-119.4,26.8-180.4,26.9c-61,0-122-9.1-180.5-26.7c-58.5-17.5-114.4-43.4-166.1-75.8
					c-51.7-32.5-99.4-71.2-142.4-114.4c-43.1-43.2-81.7-90.9-115.8-141.5c-68.1-101.4-118.3-214.3-151.7-331.7
					c-16.4-58.8-28.6-118.8-36.7-179.3c-8-60.5-12.1-121.6-12.4-182.6c0.3-61.1,4.4-122.1,12.5-182.6
					c8.1-60.5,20.4-120.5,36.9-179.3c33.5-117.4,83.7-230.2,151.9-331.5c34.1-50.6,72.7-98.2,115.8-141.3
					c43.1-43.1,90.7-81.9,142.4-114.2c51.7-32.3,107.6-58,166-75.5c58.3-17.6,119.2-26.8,180.2-26.8c61,0.1,121.8,9.3,180.2,27
					c58.3,17.6,114.2,43.3,165.8,75.6c51.6,32.4,99.2,71.2,142.2,114.3c43,43.2,81.6,90.8,115.6,141.4
					c68,101.3,118.2,214.1,151.5,331.4C2237.6,1448,2253.4,1570,2254.1,1692z M2238,1692c-0.2-120.6-15.2-241.3-47-357.7
					c-32-116.2-80.2-228.4-146.5-329.4c-33.1-50.4-70.8-97.9-112.9-141.1c-42.2-43.1-88.8-82.1-139.7-114.6
					c-51-32.2-106.1-58.2-163.9-75.8c-57.7-17.6-118-26.8-178.4-27c-60.4,0.3-120.7,9.5-178.4,27.1
					c-57.7,17.6-112.8,43.6-163.7,75.9c-50.9,32.5-97.4,71.5-139.5,114.6c-42.1,43.2-79.7,90.7-112.7,141.1
					c-66.2,100.9-114.3,213.1-146.1,329.2c-15.9,58.2-27.3,117.5-35.1,177.2c-7.8,59.7-11.6,120-11.8,180.3
					c0.2,60.3,4.1,120.5,11.9,180.2c7.8,59.7,19.4,119,35.3,177.1c31.9,116.1,80.1,228.2,146.3,329c33.1,50.4,70.7,97.8,112.7,141
					c42.1,43.1,88.6,82.1,139.5,114.4c50.9,32.2,106,58,163.6,75.6c57.6,17.6,117.8,27,178.1,27.3c60.3-0.3,120.5-9.5,178.1-27.1
					c57.7-17.5,112.7-43.3,163.7-75.5c50.9-32.3,97.5-71.3,139.7-114.4c42.2-43.1,79.8-90.6,113-140.9
					c66.4-100.8,114.6-212.9,146.7-329.1C2222.7,1933.3,2237.8,1812.6,2238,1692z"/>
				<path class="st2" d="M510.8,1275.7l241.6-2l241.6-1.1l483.2-0.9l483.2,1l241.6,1.2l241.6,2.1c0.4,0,0.7,0.3,0.7,0.7
					c0,0.4-0.3,0.7-0.7,0.7l-241.6,2.1l-241.6,1.2l-483.2,1l-483.2-0.9l-241.6-1.1l-241.6-2c-0.6,0-1.1-0.5-1-1.1
					C509.7,1276.2,510.2,1275.7,510.8,1275.7z"/>
				<path class="st2" d="M791.1,871c57.2-0.9,114.4-1.3,171.5-2l171.5-1.1c57.2-0.5,114.4-0.4,171.5-0.6l171.5-0.3l343.1,1
					l171.5,1.2c57.2,0.7,114.4,1.1,171.5,2.1c0.4,0,0.7,0.3,0.7,0.7c0,0.4-0.3,0.7-0.7,0.7c-57.2,1-114.4,1.4-171.5,2.1l-171.5,1.2
					l-343.1,1l-171.5-0.3c-57.2-0.1-114.4-0.1-171.5-0.6l-171.5-1.1c-57.2-0.7-114.4-1-171.5-2c-0.6,0-1-0.5-1-1.1
					C790,871.5,790.5,871,791.1,871z"/>
				<path class="st2" d="M426.8,1680.4l262.6-1.9l262.6-1.1l525.2-0.9l525.2,1l262.6,1.2l262.6,2.1c0.4,0,0.7,0.3,0.7,0.7
					c0,0.4-0.3,0.7-0.7,0.7l-262.6,2.1l-262.6,1.2l-525.2,1l-525.2-0.9l-262.6-1.1l-262.6-1.9c-0.6,0-1.1-0.5-1-1.1
					C425.8,1680.8,426.2,1680.4,426.8,1680.4z"/>
				<path class="st2" d="M510.8,2085l241.6-2L994,2082l483.2-0.9l483.2,1l241.6,1.2l241.6,2.1c0.4,0,0.7,0.3,0.7,0.7
					c0,0.4-0.3,0.7-0.7,0.7l-241.6,2.1l-241.6,1.2l-483.2,1l-483.2-0.9l-241.6-1.1l-241.6-2c-0.6,0-1.1-0.5-1-1.1
					C509.7,2085.5,510.2,2085,510.8,2085z"/>
				<path class="st2" d="M2197.9,2494.5H825.6c-2,0-3.7-1.7-3.7-3.7c0-2,1.7-3.7,3.7-3.7h1372.3c2,0,3.7,1.7,3.7,3.7
					C2201.6,2492.8,2200,2494.5,2197.9,2494.5z"/>
			</g>
		</g>
		<g>
			<path class="st11" d="M1191.5,1091.9c0,0-58.1-38.1-66.2-29.3c-2.9,3.1-9.6,13.8-15.8,25.4c-4.4,8.2-3,18.3,3.4,24.9l15,15.5
				c14.3,14.8,38.4,13.7,51-2.5C1185.3,1117.7,1190.4,1106.6,1191.5,1091.9z"/>
			<g>
				<g>
					<path class="st11" d="M1250.7,1019.5c0,0-19.9-52.5-43.2-47.7c-23.3,4.8-48.8,22.7-48.8,22.7l-37.4,50.6c0,0,105,41.4,142,17.7
						c0,0,107.3,18.5,242.8-3.7c-19.6-41.4-31.3-82.9-38.2-115C1399.3,982.9,1325.4,1011.9,1250.7,1019.5z"/>
					<path class="st12" d="M1819,638.8c0,0-153.6,193.5-351.1,305.3c6.9,32.2,18.6,73.6,38.2,115c102.5-16.8,221.1-56.9,321.6-146.1
						L1819,638.8z"/>
				</g>
				<path class="st12" d="M2010.6,1496.3c-30-142.7-60.1-225.3-160.7-495.8c-31.7-85.1-60.4-171.2-46.5-261l15.6-100.8
					c0,0,195.5-66.1,412.2-2.8c0,0,295.6,128.4,94.8,762.7C2235.5,1499.9,2129.6,1528.8,2010.6,1496.3z"/>
				<path class="st13" d="M1852.3,510.1l50.7,121.8c3.2,7.7,10.1,13.2,18.3,14.6c29.2,5,99.9,12.8,146.3-17.7
					c5.5-3.6,6.9-11.2,3.2-16.6l-93.6-134.4L1852.3,510.1z"/>
				<g>
					<path class="st11" d="M1904.7,323.8c-2.1,2-89.8,174.3-89.8,174.3l99.4,48l107.4-150.9C2021.7,395.2,1940.4,290.3,1904.7,323.8
						z"/>
					<path class="st14" d="M1976.5,413.3l-49.6,82.7c-0.8,1.3-1.6,2.4-2.7,3.4c-5.9,5.5-26.1,21.5-41.7-0.3
						c-13.3-18.5-25.8-35.4-39.2-42.4c-7.8-4.1-17.4-0.8-21.4,7c-8.2,16.2-24,49.2-33.9,80.5c-2.5,7.8,1.6,16.3,9.2,19.4
						c20.1,8.2,59.9,22.9,95.2,27.8c5.8,0.8,11.5-1.6,15-6.4c15.2-20.8,58-79,72.6-93.5c13.6-13.5,38.6-8.4,49.9-5.2
						c4.3,1.2,8.8,0.6,12.7-1.7c11.5-6.9,31.4-24.1,13.2-53.2c-4.5-7.2-2.2-16.9,4.9-21.6c12.8-8.4,26.7-24.2,13.4-49.8
						c-13.4-25.9-37.3-28.2-53.6-26.2c-7.2,0.9-14.5-2.9-17.3-9.6c-1.2-3-3.7-5.5-8.2-6.4c-8.5-1.7-14.1-9.5-12.5-18.1
						c2.9-14.6,0.7-33.7-22.7-46.5c-42.9-23.6-80.5,14.8-90,47.3c-9.6,32.4,38.4,55.4,68.6,59.2c22.2,2.8,34.3,27,39.2,39.6
						C1979.5,403.9,1979,409,1976.5,413.3z"/>
					<path class="st11" d="M1959.1,516.2c0,0,21.3-50.2,45.8-48.2c24.4,2,43.6,26.4,13.4,53.7
						C1980.6,555.8,1959.1,516.2,1959.1,516.2z"/>
				</g>
				<g>
					
						<linearGradient id="SVGID_2_" gradientUnits="userSpaceOnUse" x1="1726.0916" y1="2298.3069" x2="1731.1818" y2="2785.2644" gradientTransform="matrix(-1 0 0 1 3852.3318 0)">
						<stop  offset="0" style="stop-color:#09005D"/>
						<stop  offset="1" style="stop-color:#1A0F91"/>
					</linearGradient>
					<path class="st15" d="M1991.4,2753.8c47.2,4.1,129.1,10.7,193.7,13.6c38.8,1.7,61.2-2.1,74.1-7.2c0,1.5-0.1,2.8-0.1,4.1
						c-0.3,6.8-5.8,12.2-12.7,12.6c-122.1,6.8-219.1,2.4-253.7,0.3c-7.1-0.4-11.4-8.2-7.8-14.3
						C1986.7,2759.8,1989,2756.8,1991.4,2753.8z"/>
					<path class="st12" d="M2185.1,2767.4c-64.6-2.8-146.5-9.5-193.7-13.6c46.4-56.9,193.7-95.3,193.7-95.3h41.6
						c28.6,41.3,32.8,80.5,32.4,101.6C2246.3,2765.3,2223.9,2769.1,2185.1,2767.4z"/>
					<path class="st11" d="M2233.7,2590.6l-3.9,77.1c-0.4,8.3-6.7,15.4-15,16.6c-8.3,1.2-19.4,1.3-31.3-2.6c-7.3-2.4-12.7-8.5-14-16
						l-13.5-75H2233.7z"/>
				</g>
				<g>
					<g>
						<path class="st12" d="M2774.2,2766.8c20.5-2.9,29.7-13.5,33.6-24.9c0,0.1,0.1,0.2,0.1,0.3c3,12-4,24.4-17.9,30.3
							c-16.9,7.1-35.3,8.4-49.6,7.8c-15.4-0.6-29.5-7-37.2-17.2l-0.1-0.2C2718.4,2770.7,2740,2771.6,2774.2,2766.8z"/>
						<path class="st12" d="M2677.7,2590.1h34.3c52.3-1.1,85.1,109.2,95.8,151.9c-3.9,11.4-13.1,22-33.6,24.9
							c-34.1,4.8-55.8,3.9-71.2-3.8c-28.2-37.2-42.2-91.6-49-123.3C2646.3,2603.6,2677.7,2590.1,2677.7,2590.1z"/>
					</g>
					<path class="st11" d="M2707.6,2518.5l19.1,75.8c2.3,9.3-2.1,18.9-10.7,23.3c-10.7,5.5-25.7,11.2-39.5,9.6
						c-6.5-0.8-11.9-5.4-14-11.5l-28-79.7L2707.6,2518.5z"/>
				</g>
				<path class="st16" d="M2730.3,2540.4c-23.7,21-100.8,23.8-100.8,23.8c-277.8-666.7-393.6-850.2-393.6-850.2
					c40.1,251.6,8.6,897.5,8.6,897.5c-45.8,20.2-104.9,0-104.9,0c-3.7-411.9-61.7-854.6-136.5-1137.8
					c187.7-4.2,289.8-45.1,322.4-70.9C2481.9,1655.1,2730.3,2540.4,2730.3,2540.4z"/>
				<g>
					<path class="st17" d="M1955.8,1660l34.5,214.9c6,37.5,40.7,63.5,78.6,58.8l517-63.1c25.3-3.1,44.5-24.2,45-49.6
						c1.1-55.5-1.1-154.3-24.4-244.3L1955.8,1660z"/>
					<path class="st2" d="M2079.8,1919.6c-0.6,0-1.1-0.4-1.2-1c-0.1-0.6,0.4-1.2,1-1.3l9.3-1.1c0.7-0.1,1.2,0.4,1.3,1
						s-0.4,1.2-1,1.3l-9.3,1.1C2079.8,1919.6,2079.8,1919.6,2079.8,1919.6z M2058.1,1918.9c-0.1,0-0.1,0-0.2,0
						c-3.1-0.6-6.2-1.4-9.1-2.5c-0.6-0.2-0.9-0.9-0.7-1.5c0.2-0.6,0.9-0.9,1.5-0.7c2.9,1,5.9,1.8,8.8,2.4c0.6,0.1,1,0.7,0.9,1.4
						C2059.1,1918.5,2058.6,1918.9,2058.1,1918.9z M2110.6,1915.8c-0.6,0-1.1-0.4-1.2-1c-0.1-0.6,0.4-1.2,1-1.3l9.3-1.1
						c0.7-0.1,1.2,0.4,1.3,1c0.1,0.6-0.4,1.2-1,1.3l-9.3,1.1C2110.7,1915.8,2110.7,1915.8,2110.6,1915.8z M2141.5,1912.1
						c-0.6,0-1.1-0.4-1.2-1c-0.1-0.6,0.4-1.2,1-1.3l9.3-1.1c0.7-0.1,1.2,0.4,1.3,1c0.1,0.6-0.4,1.2-1,1.3l-9.3,1.1
						C2141.6,1912.1,2141.5,1912.1,2141.5,1912.1z M2172.3,1908.3c-0.6,0-1.1-0.4-1.2-1c-0.1-0.6,0.4-1.2,1-1.3l9.3-1.1
						c0.7-0.1,1.2,0.4,1.3,1c0.1,0.6-0.4,1.2-1,1.3l-9.3,1.1C2172.4,1908.3,2172.4,1908.3,2172.3,1908.3z M2030,1906.3
						c-0.2,0-0.5-0.1-0.7-0.2c-2.5-1.9-4.9-4-7.1-6.3c-0.5-0.5-0.4-1.2,0-1.6c0.5-0.5,1.2-0.4,1.6,0c2.1,2.2,4.5,4.2,6.9,6
						c0.5,0.4,0.6,1.1,0.2,1.6C2030.7,1906.1,2030.4,1906.3,2030,1906.3z M2203.2,1904.5c-0.6,0-1.1-0.4-1.2-1
						c-0.1-0.6,0.4-1.2,1-1.3l9.3-1.1c0.7-0.1,1.2,0.4,1.3,1c0.1,0.6-0.4,1.2-1,1.3l-9.3,1.1
						C2203.3,1904.5,2203.2,1904.5,2203.2,1904.5z M2234,1900.8c-0.6,0-1.1-0.4-1.2-1c-0.1-0.6,0.4-1.2,1-1.3l9.3-1.1
						c0.7-0.1,1.2,0.4,1.3,1c0.1,0.6-0.4,1.2-1,1.3l-9.3,1.1C2234.1,1900.8,2234.1,1900.8,2234,1900.8z M2264.9,1897
						c-0.6,0-1.1-0.4-1.2-1c-0.1-0.6,0.4-1.2,1-1.3l9.3-1.1c0.7-0.1,1.2,0.4,1.3,1c0.1,0.6-0.4,1.2-1,1.3l-9.3,1.1
						C2265,1897,2264.9,1897,2264.9,1897z M2295.7,1893.2c-0.6,0-1.1-0.4-1.2-1c-0.1-0.6,0.4-1.2,1-1.3l9.3-1.1
						c0.7-0.1,1.2,0.4,1.3,1c0.1,0.6-0.4,1.2-1,1.3l-9.3,1.1C2295.8,1893.2,2295.8,1893.2,2295.7,1893.2z M2326.6,1889.5
						c-0.6,0-1.1-0.4-1.2-1c-0.1-0.6,0.4-1.2,1-1.3l9.3-1.1c0.7-0.1,1.2,0.4,1.3,1c0.1,0.6-0.4,1.2-1,1.3l-9.3,1.1
						C2326.7,1889.5,2326.6,1889.5,2326.6,1889.5z M2357.4,1885.7c-0.6,0-1.1-0.4-1.2-1c-0.1-0.6,0.4-1.2,1-1.3l9.3-1.1
						c0.7-0.1,1.2,0.4,1.3,1c0.1,0.6-0.4,1.2-1,1.3l-9.3,1.1C2357.5,1885.7,2357.5,1885.7,2357.4,1885.7z M2010.5,1882.5
						c-0.4,0-0.8-0.2-1-0.7c-1.4-2.8-2.6-5.8-3.6-8.8c-0.2-0.6,0.1-1.3,0.7-1.5c0.6-0.2,1.3,0.1,1.5,0.7c0.9,2.9,2.1,5.8,3.4,8.5
						c0.3,0.6,0,1.3-0.5,1.6C2010.8,1882.4,2010.7,1882.5,2010.5,1882.5z M2388.3,1882c-0.6,0-1.1-0.4-1.2-1c-0.1-0.6,0.4-1.2,1-1.3
						l9.3-1.1c0.7-0.1,1.2,0.4,1.3,1c0.1,0.6-0.4,1.2-1,1.3l-9.3,1.1C2388.4,1882,2388.3,1882,2388.3,1882z M2419.1,1878.2
						c-0.6,0-1.1-0.4-1.2-1c-0.1-0.6,0.4-1.2,1-1.3l9.3-1.1c0.7-0.1,1.2,0.4,1.3,1s-0.4,1.2-1,1.3l-9.3,1.1
						C2419.2,1878.2,2419.2,1878.2,2419.1,1878.2z M2450,1874.4c-0.6,0-1.1-0.4-1.2-1c-0.1-0.6,0.4-1.2,1-1.3l9.3-1.1
						c0.7-0.1,1.2,0.4,1.3,1c0.1,0.6-0.4,1.2-1,1.3l-9.3,1.1C2450.1,1874.4,2450,1874.4,2450,1874.4z M2480.8,1870.7
						c-0.6,0-1.1-0.4-1.2-1c-0.1-0.6,0.4-1.2,1-1.3l9.3-1.1c0.7-0.1,1.2,0.4,1.3,1c0.1,0.6-0.4,1.2-1,1.3l-9.3,1.1
						C2480.9,1870.7,2480.9,1870.7,2480.8,1870.7z M2511.7,1866.9c-0.6,0-1.1-0.4-1.2-1c-0.1-0.6,0.4-1.2,1-1.3l9.3-1.1
						c0.7-0.1,1.2,0.4,1.3,1c0.1,0.6-0.4,1.2-1,1.3l-9.3,1.1C2511.8,1866.9,2511.7,1866.9,2511.7,1866.9z M2542.5,1863.1
						c-0.6,0-1.1-0.4-1.2-1c-0.1-0.6,0.4-1.2,1-1.3l9.3-1.1c0.7-0.1,1.2,0.4,1.3,1c0.1,0.6-0.4,1.2-1,1.3l-9.3,1.1
						C2542.6,1863.1,2542.6,1863.1,2542.5,1863.1z M2573.4,1859.3c-0.6,0-1.1-0.4-1.1-1c-0.1-0.6,0.3-1.2,1-1.3c3-0.5,6-1.3,8.8-2.3
						c0.6-0.2,1.3,0.1,1.5,0.7c0.2,0.6-0.1,1.3-0.7,1.5c-3,1.1-6.1,1.9-9.2,2.4C2573.5,1859.3,2573.5,1859.3,2573.4,1859.3z
						 M2002.7,1852.5c-0.6,0-1.1-0.4-1.1-1l-1.5-9.2c-0.1-0.6,0.3-1.2,1-1.3c0.6-0.1,1.2,0.3,1.3,1l1.5,9.2c0.1,0.6-0.3,1.2-1,1.3
						C2002.9,1852.5,2002.8,1852.5,2002.7,1852.5z M2600.5,1845.2c-0.3,0-0.6-0.1-0.8-0.3c-0.5-0.4-0.5-1.2,0-1.6
						c2.1-2.2,4-4.6,5.7-7.1c0.4-0.5,1.1-0.7,1.6-0.3c0.5,0.4,0.7,1.1,0.3,1.6c-1.7,2.7-3.7,5.2-6,7.4
						C2601.1,1845.1,2600.8,1845.2,2600.5,1845.2z M1997.8,1821.8c-0.6,0-1.1-0.4-1.1-1l-1.5-9.2c-0.1-0.6,0.3-1.2,1-1.3
						c0.7-0.1,1.2,0.3,1.3,1l1.5,9.2c0.1,0.6-0.3,1.2-1,1.3C1997.9,1821.8,1997.9,1821.8,1997.8,1821.8z M2613.8,1817.7
						c0,0-0.1,0-0.1,0c-0.6-0.1-1.1-0.7-1-1.3c0.2-1.7,0.3-3.4,0.4-5.1l0.1-4.1c0-0.6,0.5-1.1,1.2-1.1c0,0,0,0,0,0
						c0.6,0,1.2,0.5,1.1,1.2l-0.1,4.1c0,1.8-0.2,3.6-0.4,5.4C2614.8,1817.3,2614.3,1817.7,2613.8,1817.7z M1992.9,1791.1
						c-0.6,0-1.1-0.4-1.1-1l-1.5-9.2c-0.1-0.6,0.3-1.2,1-1.3c0.7-0.1,1.2,0.3,1.3,1l1.5,9.2c0.1,0.6-0.3,1.2-1,1.3
						C1993,1791.1,1992.9,1791.1,1992.9,1791.1z M2614.4,1786.6c-0.6,0-1.2-0.5-1.2-1.2c0-3,0-6.1-0.1-9.3c0-0.6,0.5-1.2,1.2-1.2
						c0,0,0,0,0,0c0.6,0,1.2,0.5,1.2,1.1c0,3.2,0.1,6.3,0.1,9.3C2615.5,1786.1,2615,1786.6,2614.4,1786.6L2614.4,1786.6z
						 M1987.9,1760.5c-0.6,0-1.1-0.4-1.1-1l-1.5-9.2c-0.1-0.6,0.3-1.2,1-1.3c0.6-0.1,1.2,0.3,1.3,1l1.5,9.2c0.1,0.6-0.3,1.2-1,1.3
						C1988.1,1760.4,1988,1760.5,1987.9,1760.5z M2613.8,1755.5c-0.6,0-1.1-0.5-1.2-1.1c-0.1-3.1-0.2-6.2-0.3-9.3
						c0-0.6,0.5-1.2,1.1-1.2c0,0,0,0,0,0c0.6,0,1.1,0.5,1.2,1.1c0.1,3.2,0.2,6.3,0.3,9.3C2615,1755,2614.5,1755.5,2613.8,1755.5
						C2613.8,1755.5,2613.8,1755.5,2613.8,1755.5z M1983,1729.8c-0.6,0-1.1-0.4-1.1-1l-1.5-9.2c-0.1-0.6,0.3-1.2,1-1.3
						c0.7-0.1,1.2,0.3,1.3,1l1.5,9.2c0.1,0.6-0.3,1.2-1,1.3C1983.1,1729.8,1983.1,1729.8,1983,1729.8z M2612.4,1724.5
						c-0.6,0-1.1-0.5-1.2-1.1c-0.2-3.1-0.4-6.2-0.6-9.3c0-0.6,0.4-1.2,1.1-1.2c0.7,0,1.2,0.4,1.2,1.1c0.2,3.1,0.4,6.2,0.6,9.3
						C2613.6,1723.9,2613.1,1724.4,2612.4,1724.5C2612.4,1724.5,2612.4,1724.5,2612.4,1724.5z M1978.1,1699.1c-0.6,0-1.1-0.4-1.1-1
						l-1.5-9.2c-0.1-0.6,0.3-1.2,1-1.3c0.6-0.1,1.2,0.3,1.3,1l1.5,9.2c0.1,0.6-0.3,1.2-1,1.3
						C1978.2,1699.1,1978.1,1699.1,1978.1,1699.1z M2610,1693.5c-0.6,0-1.1-0.5-1.2-1.1c-0.3-3.1-0.6-6.2-0.9-9.3
						c-0.1-0.6,0.4-1.2,1-1.3c0.6-0.1,1.2,0.4,1.3,1c0.3,3.1,0.6,6.2,0.9,9.3c0.1,0.6-0.4,1.2-1.1,1.3
						C2610,1693.5,2610,1693.5,2610,1693.5z M1973.1,1668.4c-0.6,0-1.1-0.4-1.1-1l-1.5-9.2c-0.1-0.6,0.3-1.2,1-1.3
						c0.7-0.1,1.2,0.3,1.3,1l1.5,9.2c0.1,0.6-0.3,1.2-1,1.3C1973.3,1668.4,1973.2,1668.4,1973.1,1668.4z M2606.5,1662.6
						c-0.6,0-1.1-0.4-1.2-1c-0.4-3.1-0.8-6.1-1.2-9.2c-0.1-0.6,0.4-1.2,1-1.3c0.7-0.1,1.2,0.4,1.3,1c0.4,3.1,0.9,6.2,1.2,9.3
						c0.1,0.6-0.4,1.2-1,1.3C2606.6,1662.6,2606.6,1662.6,2606.5,1662.6z M1986.9,1657.2c-0.6,0-1.1-0.4-1.2-1
						c-0.1-0.6,0.4-1.2,1-1.3l9.2-1.2c0.7-0.1,1.2,0.4,1.3,1c0.1,0.6-0.4,1.2-1,1.3l-9.2,1.2C1987,1657.2,1987,1657.2,1986.9,1657.2
						z M2017.7,1653.3c-0.6,0-1.1-0.4-1.2-1c-0.1-0.6,0.4-1.2,1-1.3l9.2-1.2c0.7-0.1,1.2,0.4,1.3,1c0.1,0.6-0.4,1.2-1,1.3l-9.2,1.2
						C2017.8,1653.3,2017.8,1653.3,2017.7,1653.3z M2048.6,1649.3c-0.6,0-1.1-0.4-1.2-1c-0.1-0.6,0.4-1.2,1-1.3l9.2-1.2
						c0.7-0.1,1.2,0.4,1.3,1c0.1,0.6-0.4,1.2-1,1.3l-9.2,1.2C2048.7,1649.3,2048.6,1649.3,2048.6,1649.3z M2079.4,1645.4
						c-0.6,0-1.1-0.4-1.2-1c-0.1-0.6,0.4-1.2,1-1.3l9.2-1.2c0.7-0.1,1.2,0.4,1.3,1c0.1,0.6-0.4,1.2-1,1.3l-9.2,1.2
						C2079.5,1645.4,2079.5,1645.4,2079.4,1645.4z M2110.2,1641.4c-0.6,0-1.1-0.4-1.2-1c-0.1-0.6,0.4-1.2,1-1.3l9.2-1.2
						c0.7-0.1,1.2,0.4,1.3,1c0.1,0.6-0.4,1.2-1,1.3l-9.2,1.2C2110.3,1641.4,2110.3,1641.4,2110.2,1641.4z M2141.1,1637.5
						c-0.6,0-1.1-0.4-1.2-1c-0.1-0.6,0.4-1.2,1-1.3l9.2-1.2c0.7-0.1,1.2,0.4,1.3,1c0.1,0.6-0.4,1.2-1,1.3l-9.2,1.2
						C2141.2,1637.5,2141.1,1637.5,2141.1,1637.5z M2171.9,1633.6c-0.6,0-1.1-0.4-1.2-1c-0.1-0.6,0.4-1.2,1-1.3l9.2-1.2
						c0.7-0.1,1.2,0.4,1.3,1c0.1,0.6-0.4,1.2-1,1.3l-9.2,1.2C2172,1633.6,2171.9,1633.6,2171.9,1633.6z M2602,1631.8
						c-0.6,0-1.1-0.4-1.1-1c-0.5-3.1-1.1-6.1-1.6-9.2c-0.1-0.6,0.3-1.2,0.9-1.4c0.6-0.1,1.2,0.3,1.4,0.9c0.6,3.1,1.1,6.1,1.6,9.2
						c0.1,0.6-0.3,1.2-1,1.3C2602.1,1631.8,2602,1631.8,2602,1631.8z M2202.7,1629.6c-0.6,0-1.1-0.4-1.2-1c-0.1-0.6,0.4-1.2,1-1.3
						l9.2-1.2c0.7-0.1,1.2,0.4,1.3,1c0.1,0.6-0.4,1.2-1,1.3l-9.2,1.2C2202.8,1629.6,2202.8,1629.6,2202.7,1629.6z M2233.6,1625.7
						c-0.6,0-1.1-0.4-1.2-1c-0.1-0.6,0.4-1.2,1-1.3l9.2-1.2c0.7-0.1,1.2,0.4,1.3,1c0.1,0.6-0.4,1.2-1,1.3l-9.2,1.2
						C2233.7,1625.7,2233.6,1625.7,2233.6,1625.7z M2264.4,1621.7c-0.6,0-1.1-0.4-1.2-1c-0.1-0.6,0.4-1.2,1-1.3l9.2-1.2
						c0.7-0.1,1.2,0.4,1.3,1c0.1,0.6-0.4,1.2-1,1.3l-9.2,1.2C2264.5,1621.7,2264.4,1621.7,2264.4,1621.7z M2295.2,1617.8
						c-0.6,0-1.1-0.4-1.2-1c-0.1-0.6,0.4-1.2,1-1.3l9.2-1.2c0.7-0.1,1.2,0.4,1.3,1c0.1,0.6-0.4,1.2-1,1.3l-9.2,1.2
						C2295.3,1617.8,2295.3,1617.8,2295.2,1617.8z M2326,1613.8c-0.6,0-1.1-0.4-1.2-1c-0.1-0.6,0.4-1.2,1-1.3l9.2-1.2
						c0.7-0.1,1.2,0.4,1.3,1c0.1,0.6-0.4,1.2-1,1.3l-9.2,1.2C2326.1,1613.8,2326.1,1613.8,2326,1613.8z M2356.9,1609.9
						c-0.6,0-1.1-0.4-1.2-1c-0.1-0.6,0.4-1.2,1-1.3l9.2-1.2c0.7-0.1,1.2,0.4,1.3,1c0.1,0.6-0.4,1.2-1,1.3l-9.2,1.2
						C2357,1609.9,2356.9,1609.9,2356.9,1609.9z M2387.7,1605.9c-0.6,0-1.1-0.4-1.2-1c-0.1-0.6,0.4-1.2,1-1.3l9.2-1.2
						c0.7-0.1,1.2,0.4,1.3,1c0.1,0.6-0.4,1.2-1,1.3l-9.2,1.2C2387.8,1605.9,2387.8,1605.9,2387.7,1605.9z M2418.5,1602
						c-0.6,0-1.1-0.4-1.2-1c-0.1-0.6,0.4-1.2,1-1.3l9.2-1.2c0.7-0.1,1.2,0.4,1.3,1c0.1,0.6-0.4,1.2-1,1.3l-9.2,1.2
						C2418.6,1602,2418.6,1602,2418.5,1602z M2596,1601.3c-0.5,0-1-0.4-1.1-0.9c-0.7-3-1.3-6.1-2.1-9.1c-0.1-0.6,0.2-1.3,0.9-1.4
						c0.6-0.1,1.3,0.2,1.4,0.9c0.7,3,1.4,6.1,2.1,9.1c0.1,0.6-0.3,1.3-0.9,1.4C2596.2,1601.3,2596.1,1601.3,2596,1601.3z
						 M2449.4,1598.1c-0.6,0-1.1-0.4-1.2-1c-0.1-0.6,0.4-1.2,1-1.3l9.2-1.2c0.7-0.1,1.2,0.4,1.3,1c0.1,0.6-0.4,1.2-1,1.3l-9.2,1.2
						C2449.5,1598,2449.4,1598.1,2449.4,1598.1z M2480.2,1594.1c-0.6,0-1.1-0.4-1.2-1c-0.1-0.6,0.4-1.2,1-1.3l9.2-1.2
						c0.7-0.1,1.2,0.4,1.3,1c0.1,0.6-0.4,1.2-1,1.3l-9.2,1.2C2480.3,1594.1,2480.2,1594.1,2480.2,1594.1z M2511,1590.2
						c-0.6,0-1.1-0.4-1.2-1c-0.1-0.6,0.4-1.2,1-1.3l9.2-1.2c0.7-0.1,1.2,0.4,1.3,1c0.1,0.6-0.4,1.2-1,1.3l-9.2,1.2
						C2511.1,1590.2,2511.1,1590.2,2511,1590.2z M2541.9,1586.2c-0.6,0-1.1-0.4-1.2-1c-0.1-0.6,0.4-1.2,1-1.3l9.2-1.2
						c0.7-0.1,1.2,0.4,1.3,1c0.1,0.6-0.4,1.2-1,1.3l-9.2,1.2C2542,1586.2,2541.9,1586.2,2541.9,1586.2z M2572.7,1582.3
						c-0.6,0-1.1-0.4-1.2-1c-0.1-0.6,0.4-1.2,1-1.3l9.2-1.2c0.7-0.1,1.2,0.4,1.3,1c0.1,0.6-0.4,1.2-1,1.3l-9.2,1.2
						C2572.8,1582.3,2572.7,1582.3,2572.7,1582.3z"/>
					<path class="st18" d="M2087.2,1484.1l-0.6-16.8c1.2-4.2,4.5-7.5,8.7-8.7c15.8-4.6,55.1-14.2,76.2-2.3l5.3,19L2087.2,1484.1z"/>
					<path class="st18" d="M2135.4,1461.6c-3.6,1.4-7.3,1.9-11.1,1.4c-4.6-0.5-8.3-4.1-8.9-8.8l-6.7-52.1l26.5-3.4l6.7,52.1
						C2142.4,1455.5,2139.8,1459.9,2135.4,1461.6z"/>
					
						<linearGradient id="SVGID_3_" gradientUnits="userSpaceOnUse" x1="110.2042" y1="-382.1761" x2="115.2948" y2="-706.2681" gradientTransform="matrix(0.9919 -0.127 0.127 0.9919 2046.6111 -670.6812)">
						<stop  offset="0" style="stop-color:#E1473D"/>
						<stop  offset="1" style="stop-color:#E9605A"/>
					</linearGradient>
					<path class="st19" d="M2344,1451.2l-0.6-16.8c1.2-4.2,4.5-7.5,8.7-8.7c15.8-4.6,55.1-14.2,76.2-2.3l5.3,19L2344,1451.2z"/>
					<path class="st18" d="M2392.2,1428.7c-3.6,1.4-7.3,1.9-11.1,1.4c-4.6-0.5-8.3-4.1-8.9-8.8l-7.4-57.6l26.5-3.4l7.4,57.6
						C2399.3,1422.6,2396.6,1427.1,2392.2,1428.7z"/>
					<path class="st18" d="M2107.6,1415.3l283.9-45.9c6.5-1,11.4-6.4,11.7-13c0.4-9.1,0.1-22.7-3.7-36.3
						c-4.4-15.5-19.4-25.4-35.4-23.8c-53.4,5.5-188.8,22.9-259.6,62c-7.5,4.1-12.5,11.6-13.4,20.1c-0.9,8.1-0.8,18.7,3,29
						C2096.1,1413,2101.8,1416.2,2107.6,1415.3z"/>
					<linearGradient id="SVGID_4_" gradientUnits="userSpaceOnUse" x1="2140.8835" y1="1330.3507" x2="2144.2769" y2="1002.884">
						<stop  offset="0" style="stop-color:#FEBBBA"/>
						<stop  offset="1" style="stop-color:#FF928E"/>
					</linearGradient>
					<path class="st20" d="M2100.6,1402.9c-1.4,0-2.7-1-3-2.4c-0.1-0.5-2.6-11.4-1.1-22.4c1.2-8.7,7-16.4,15.2-20
						c15.4-6.7,44.9-18.6,69.8-22.5c1.7-0.3,3.3,0.9,3.6,2.6c0.3,1.7-0.9,3.3-2.6,3.6c-24.2,3.8-53.2,15.4-68.3,22.1
						c-6.2,2.7-10.6,8.5-11.5,15.1c-1.4,9.9,1,20,1,20.1c0.4,1.7-0.7,3.3-2.3,3.7C2101.1,1402.9,2100.9,1402.9,2100.6,1402.9z"/>
					<path class="st17" d="M1954,1494.5c92-13,489.9-68.1,607.5-69c10.1-0.1,19.2,6.2,22.6,15.7c10.8,30,33.8,100.1,41.2,171.5
						c1,9.7-5,18.8-14.4,21.8l-257.8,83.8l-93.9,12l-288.7-19.9c-10.2-0.7-18.6-8.2-20.4-18.2c-6.4-35.6-20-119.3-17.3-174.6
						C1933.5,1505.9,1942.3,1496.1,1954,1494.5z"/>
					<path class="st2" d="M2258.6,1708.5C2258.6,1708.5,2258.6,1708.5,2258.6,1708.5l-9.4-0.6c-0.6,0-1.1-0.6-1.1-1.2
						c0-0.6,0.6-1.1,1.2-1.1l9.3,0.6c0,0,0,0,0,0c0.1,0,0.2-0.1,0.3-0.1l9.2-1.2c0.7-0.1,1.2,0.4,1.3,1c0.1,0.6-0.4,1.2-1,1.3
						l-9.2,1.2c-0.1,0-0.2,0-0.3,0C2258.9,1708.4,2258.7,1708.5,2258.6,1708.5z M2227.6,1706.3
						C2227.6,1706.3,2227.5,1706.3,2227.6,1706.3l-9.4-0.6c-0.6,0-1.1-0.6-1.1-1.2c0-0.6,0.6-1.1,1.2-1.1l9.3,0.6
						c0.6,0,1.1,0.6,1.1,1.2C2228.7,1705.9,2228.2,1706.3,2227.6,1706.3z M2290,1704.5c-0.6,0-1.1-0.4-1.2-1c-0.1-0.6,0.4-1.2,1-1.3
						l9.2-1.2c0.7-0.1,1.2,0.4,1.3,1c0.1,0.6-0.4,1.2-1,1.3l-9.2,1.2C2290.1,1704.4,2290,1704.5,2290,1704.5z M2196.6,1704.2
						C2196.6,1704.2,2196.5,1704.2,2196.6,1704.2l-9.4-0.6c-0.6,0-1.1-0.6-1.1-1.2c0-0.6,0.6-1.1,1.2-1.1l9.3,0.6
						c0.6,0,1.1,0.6,1.1,1.2C2197.7,1703.7,2197.2,1704.2,2196.6,1704.2z M2165.6,1702C2165.6,1702,2165.5,1702,2165.6,1702
						l-9.4-0.6c-0.6,0-1.1-0.6-1.1-1.2c0-0.6,0.6-1.1,1.2-1.1l9.3,0.6c0.6,0,1.1,0.6,1.1,1.2C2166.7,1701.6,2166.2,1702,2165.6,1702
						z M2320.8,1700.5c-0.6,0-1.1-0.4-1.2-1c-0.1-0.6,0.4-1.2,1-1.3l9.2-1.2c0.7-0.1,1.2,0.4,1.3,1c0.1,0.6-0.4,1.2-1,1.3l-9.2,1.2
						C2320.9,1700.5,2320.8,1700.5,2320.8,1700.5z M2134.6,1699.9C2134.6,1699.9,2134.5,1699.9,2134.6,1699.9l-9.4-0.6
						c-0.6,0-1.1-0.6-1.1-1.2c0-0.6,0.6-1.1,1.2-1.1l9.3,0.6c0.6,0,1.1,0.6,1.1,1.2C2135.7,1699.4,2135.2,1699.9,2134.6,1699.9z
						 M2103.6,1697.8C2103.5,1697.8,2103.5,1697.8,2103.6,1697.8l-9.4-0.6c-0.6,0-1.1-0.6-1.1-1.2c0-0.6,0.6-1.1,1.2-1.1l9.3,0.6
						c0.6,0,1.1,0.6,1.1,1.2C2104.7,1697.3,2104.2,1697.8,2103.6,1697.8z M2351.5,1695.9c-0.5,0-0.9-0.3-1.1-0.8
						c-0.2-0.6,0.1-1.3,0.7-1.5l8.9-2.9c0.6-0.2,1.3,0.1,1.5,0.7c0.2,0.6-0.1,1.3-0.7,1.5l-8.9,2.9
						C2351.7,1695.9,2351.6,1695.9,2351.5,1695.9z M2072.6,1695.6C2072.5,1695.6,2072.5,1695.6,2072.6,1695.6l-9.4-0.6
						c-0.6,0-1.1-0.6-1.1-1.2c0-0.6,0.6-1.1,1.2-1.1l9.3,0.6c0.6,0,1.1,0.6,1.1,1.2C2073.7,1695.1,2073.2,1695.6,2072.6,1695.6z
						 M2041.6,1693.5C2041.5,1693.5,2041.5,1693.5,2041.6,1693.5l-9.4-0.6c-0.6,0-1.1-0.6-1.1-1.2c0-0.6,0.7-1.1,1.2-1.1l9.3,0.6
						c0.6,0,1.1,0.6,1.1,1.2C2042.7,1693,2042.2,1693.5,2041.6,1693.5z M2010.5,1691.3C2010.5,1691.3,2010.5,1691.3,2010.5,1691.3
						l-9.4-0.6c-0.6,0-1.1-0.6-1.1-1.2c0-0.6,0.6-1.1,1.2-1.1l9.3,0.6c0.6,0,1.1,0.6,1.1,1.2
						C2011.7,1690.9,2011.2,1691.3,2010.5,1691.3z M1979.5,1689.2C1979.5,1689.2,1979.5,1689.2,1979.5,1689.2l-7.8-0.5l-0.6-3.3
						c-0.1-0.6,0.3-1.2,0.9-1.4c0.7-0.1,1.2,0.3,1.4,0.9l0.3,1.5l6,0.4c0.6,0,1.1,0.6,1.1,1.2
						C1980.7,1688.7,1980.1,1689.2,1979.5,1689.2z M2381,1686.3c-0.5,0-0.9-0.3-1.1-0.8c-0.2-0.6,0.1-1.3,0.7-1.5l8.9-2.9
						c0.6-0.2,1.3,0.1,1.5,0.7c0.2,0.6-0.1,1.3-0.7,1.5l-8.9,2.9C2381.3,1686.3,2381.2,1686.3,2381,1686.3z M2410.6,1676.7
						c-0.5,0-0.9-0.3-1.1-0.8c-0.2-0.6,0.1-1.3,0.7-1.5l8.9-2.9c0.6-0.2,1.3,0.1,1.5,0.7c0.2,0.6-0.1,1.3-0.7,1.5l-8.9,2.9
						C2410.8,1676.7,2410.7,1676.7,2410.6,1676.7z M2440.2,1667.1c-0.5,0-0.9-0.3-1.1-0.8c-0.2-0.6,0.1-1.3,0.7-1.5l8.9-2.9
						c0.6-0.2,1.3,0.1,1.5,0.7c0.2,0.6-0.1,1.3-0.7,1.5l-8.9,2.9C2440.4,1667.1,2440.3,1667.1,2440.2,1667.1z M1968.6,1664.8
						c-0.6,0-1.1-0.4-1.2-1c-0.5-3-1-6-1.5-9.2c-0.1-0.6,0.3-1.2,1-1.3c0.6-0.1,1.2,0.3,1.3,1c0.5,3.2,1,6.3,1.5,9.2
						c0.1,0.6-0.3,1.2-1,1.3C1968.7,1664.8,1968.7,1664.8,1968.6,1664.8z M2469.7,1657.5c-0.5,0-0.9-0.3-1.1-0.8
						c-0.2-0.6,0.1-1.3,0.7-1.5l8.9-2.9c0.6-0.2,1.3,0.1,1.5,0.7c0.2,0.6-0.1,1.3-0.7,1.5l-8.9,2.9
						C2470,1657.5,2469.8,1657.5,2469.7,1657.5z M2499.3,1647.9c-0.5,0-0.9-0.3-1.1-0.8c-0.2-0.6,0.1-1.3,0.7-1.5l8.9-2.9
						c0.6-0.2,1.3,0.1,1.5,0.7c0.2,0.6-0.1,1.3-0.7,1.5l-8.9,2.9C2499.5,1647.9,2499.4,1647.9,2499.3,1647.9z M2528.8,1638.3
						c-0.5,0-0.9-0.3-1.1-0.8c-0.2-0.6,0.1-1.3,0.7-1.5l8.9-2.9c0.6-0.2,1.3,0.1,1.5,0.7c0.2,0.6-0.1,1.3-0.7,1.5l-8.9,2.9
						C2529.1,1638.3,2529,1638.3,2528.8,1638.3z M1963.9,1634.1c-0.6,0-1.1-0.4-1.2-1c-0.4-3-0.8-6.1-1.3-9.3
						c-0.1-0.6,0.4-1.2,1-1.3c0.6-0.1,1.2,0.4,1.3,1c0.4,3.1,0.8,6.2,1.3,9.2c0.1,0.6-0.4,1.2-1,1.3
						C1964,1634.1,1964,1634.1,1963.9,1634.1z M2558.4,1628.7c-0.5,0-0.9-0.3-1.1-0.8c-0.2-0.6,0.1-1.3,0.7-1.5l8.9-2.9
						c0.6-0.2,1.3,0.1,1.5,0.7c0.2,0.6-0.1,1.3-0.7,1.5l-8.9,2.9C2558.6,1628.6,2558.5,1628.7,2558.4,1628.7z M2588,1619.1
						c-0.5,0-0.9-0.3-1.1-0.8c-0.2-0.6,0.1-1.3,0.7-1.5l8.9-2.9c0.6-0.2,1.3,0.1,1.5,0.7c0.2,0.6-0.1,1.3-0.7,1.5l-8.9,2.9
						C2588.2,1619,2588.1,1619.1,2588,1619.1z M1960,1603.2c-0.6,0-1.1-0.4-1.2-1c-0.3-3.1-0.7-6.2-1-9.3c-0.1-0.6,0.4-1.2,1-1.3
						c0.7-0.1,1.2,0.4,1.3,1c0.3,3.1,0.7,6.2,1,9.3c0.1,0.6-0.4,1.2-1,1.3C1960.1,1603.2,1960.1,1603.2,1960,1603.2z M2600.3,1598.5
						c-0.6,0-1.1-0.4-1.2-1c-0.4-3.1-0.9-6.1-1.4-9.2c-0.1-0.6,0.3-1.2,1-1.3c0.6-0.1,1.2,0.3,1.3,1c0.5,3.1,0.9,6.2,1.4,9.2
						c0.1,0.6-0.4,1.2-1,1.3C2600.5,1598.5,2600.4,1598.5,2600.3,1598.5z M1957.1,1572.3c-0.6,0-1.1-0.5-1.2-1.1
						c-0.2-3.1-0.4-6.2-0.6-9.3c0-0.6,0.5-1.2,1.1-1.2c0.7-0.1,1.2,0.5,1.2,1.1c0.2,3.1,0.4,6.2,0.6,9.3
						C1958.3,1571.7,1957.8,1572.2,1957.1,1572.3C1957.2,1572.3,1957.1,1572.3,1957.1,1572.3z M2595.2,1567.9c-0.5,0-1-0.4-1.1-0.9
						c-0.6-3.1-1.2-6.1-1.8-9.1c-0.1-0.6,0.3-1.2,0.9-1.4c0.6-0.1,1.2,0.3,1.4,0.9c0.6,3,1.2,6.1,1.8,9.2c0.1,0.6-0.3,1.2-0.9,1.4
						C2595.3,1567.9,2595.3,1567.9,2595.2,1567.9z M1955.6,1541.2c-0.6,0-1.2-0.5-1.2-1.1c0-2.2-0.1-4.5-0.1-6.7l0-2.7
						c0-0.6,0.5-1.2,1.2-1.2c0.7,0,1.2,0.5,1.2,1.2l0,2.7c0,2.2,0,4.4,0.1,6.6C1956.8,1540.7,1956.2,1541.2,1955.6,1541.2
						C1955.6,1541.2,1955.6,1541.2,1955.6,1541.2z M2588.6,1537.5c-0.5,0-1-0.4-1.1-0.9c-0.7-3.1-1.5-6.1-2.2-9
						c-0.2-0.6,0.2-1.3,0.8-1.4c0.6-0.2,1.3,0.2,1.4,0.8c0.8,3,1.5,6,2.2,9.1c0.1,0.6-0.2,1.3-0.9,1.4
						C2588.8,1537.5,2588.7,1537.5,2588.6,1537.5z M1964.7,1517.3c-0.6,0-1.1-0.4-1.2-1c-0.1-0.6,0.4-1.2,1-1.3l9.2-1.3
						c0.7-0.1,1.2,0.4,1.3,1c0.1,0.6-0.4,1.2-1,1.3l-9.2,1.3C1964.8,1517.3,1964.8,1517.3,1964.7,1517.3z M1995.5,1513
						c-0.6,0-1.1-0.4-1.2-1c-0.1-0.6,0.4-1.2,1-1.3l9.2-1.3c0.6-0.1,1.2,0.4,1.3,1c0.1,0.6-0.4,1.2-1,1.3l-9.2,1.3
						C1995.6,1513,1995.6,1513,1995.5,1513z M2026.3,1508.8c-0.6,0-1.1-0.4-1.2-1c-0.1-0.6,0.4-1.2,1-1.3l9.2-1.3
						c0.7-0.1,1.2,0.4,1.3,1c0.1,0.6-0.4,1.2-1,1.3l-9.2,1.3C2026.4,1508.8,2026.4,1508.8,2026.3,1508.8z M2580.8,1507.4
						c-0.5,0-1-0.3-1.1-0.9c-0.9-3.1-1.7-6-2.6-9c-0.2-0.6,0.2-1.3,0.8-1.4c0.6-0.2,1.3,0.2,1.4,0.8c0.9,2.9,1.7,5.9,2.6,9
						c0.2,0.6-0.2,1.3-0.8,1.4C2581,1507.4,2580.9,1507.4,2580.8,1507.4z M2057.1,1504.6c-0.6,0-1.1-0.4-1.2-1
						c-0.1-0.6,0.4-1.2,1-1.3l9.2-1.3c0.6-0.1,1.2,0.4,1.3,1c0.1,0.6-0.4,1.2-1,1.3l-9.2,1.3
						C2057.3,1504.6,2057.2,1504.6,2057.1,1504.6z M2088,1500.4c-0.6,0-1.1-0.4-1.2-1c-0.1-0.6,0.4-1.2,1-1.3l9.2-1.2
						c0.6-0.1,1.2,0.4,1.3,1c0.1,0.6-0.4,1.2-1,1.3l-9.2,1.2C2088.1,1500.4,2088,1500.4,2088,1500.4z M2118.8,1496.3
						c-0.6,0-1.1-0.4-1.2-1c-0.1-0.6,0.4-1.2,1-1.3l9.2-1.2c0.7-0.1,1.2,0.4,1.3,1c0.1,0.6-0.4,1.2-1,1.3l-9.2,1.2
						C2118.9,1496.3,2118.8,1496.3,2118.8,1496.3z M2149.6,1492.3c-0.6,0-1.1-0.4-1.2-1c-0.1-0.6,0.4-1.2,1-1.3l9.3-1.2
						c0.6-0.1,1.2,0.4,1.3,1c0.1,0.6-0.4,1.2-1,1.3l-9.2,1.2C2149.7,1492.3,2149.7,1492.3,2149.6,1492.3z M2180.4,1488.3
						c-0.6,0-1.1-0.4-1.2-1c-0.1-0.6,0.4-1.2,1-1.3l9.2-1.2c0.6,0,1.3,0.5,1.3,1.2c0,0.6-0.4,1.2-1.1,1.2l-9.1,1.2
						C2180.5,1488.3,2180.5,1488.3,2180.4,1488.3z M2211.3,1484.4c-0.6,0-1.1-0.4-1.2-1c-0.1-0.6,0.4-1.2,1-1.3l9.2-1.2
						c0.7-0.1,1.2,0.4,1.3,1c0.1,0.6-0.4,1.2-1,1.3l-9.2,1.2C2211.4,1484.4,2211.3,1484.4,2211.3,1484.4z M2242.1,1480.5
						c-0.6,0-1.1-0.4-1.2-1c-0.1-0.6,0.4-1.2,1-1.3l9.3-1.1c0.7-0.1,1.2,0.4,1.3,1c0.1,0.6-0.4,1.2-1,1.3l-9.3,1.1
						C2242.2,1480.5,2242.2,1480.5,2242.1,1480.5z M2571.8,1477.6c-0.5,0-1-0.3-1.1-0.8c-1-3.1-2-6.1-2.9-8.9
						c-0.2-0.6,0.1-1.3,0.7-1.5c0.6-0.2,1.3,0.1,1.5,0.7c0.9,2.8,1.9,5.8,2.9,8.9c0.2,0.6-0.1,1.3-0.8,1.5
						C2572.1,1477.6,2571.9,1477.6,2571.8,1477.6z M2273,1476.7c-0.6,0-1.1-0.4-1.2-1c-0.1-0.6,0.4-1.2,1-1.3l9.3-1.1
						c0.6-0.1,1.2,0.4,1.3,1c0.1,0.6-0.4,1.2-1,1.3l-9.3,1.1C2273.1,1476.7,2273,1476.7,2273,1476.7z M2303.8,1473
						c-0.6,0-1.1-0.4-1.2-1c-0.1-0.6,0.4-1.2,1-1.3l9.3-1.1c0.6-0.1,1.2,0.4,1.3,1c0.1,0.6-0.4,1.2-1,1.3l-9.3,1.1
						C2303.9,1473,2303.9,1473,2303.8,1473z M2334.7,1469.4c-0.6,0-1.1-0.4-1.2-1c-0.1-0.6,0.4-1.2,1-1.3l9.3-1.1
						c0.7-0.1,1.2,0.4,1.3,1c0.1,0.6-0.4,1.2-1,1.3l-9.3,1.1C2334.8,1469.4,2334.7,1469.4,2334.7,1469.4z M2365.6,1465.9
						c-0.6,0-1.1-0.4-1.2-1c-0.1-0.6,0.4-1.2,1-1.3l9.3-1c0.7-0.1,1.2,0.4,1.3,1c0.1,0.6-0.4,1.2-1,1.3l-9.3,1
						C2365.7,1465.9,2365.6,1465.9,2365.6,1465.9z M2396.5,1462.5c-0.6,0-1.1-0.4-1.2-1c-0.1-0.6,0.4-1.2,1-1.3l9.3-1
						c0.7-0.1,1.2,0.4,1.3,1c0.1,0.6-0.4,1.2-1,1.3l-9.3,1C2396.6,1462.5,2396.5,1462.5,2396.5,1462.5z M2427.4,1459.3
						c-0.6,0-1.1-0.4-1.2-1c-0.1-0.6,0.4-1.2,1-1.3l9.3-0.9c0.6-0.1,1.2,0.4,1.3,1c0.1,0.6-0.4,1.2-1,1.3l-9.3,0.9
						C2427.5,1459.3,2427.4,1459.3,2427.4,1459.3z M2458.3,1456.3c-0.6,0-1.1-0.5-1.2-1.1c-0.1-0.6,0.4-1.2,1.1-1.3l9.3-0.8
						c0.6-0.1,1.2,0.4,1.3,1.1c0.1,0.6-0.4,1.2-1.1,1.3l-9.3,0.8C2458.4,1456.3,2458.4,1456.3,2458.3,1456.3z M2489.3,1453.6
						c-0.6,0-1.1-0.5-1.2-1.1c0-0.6,0.4-1.2,1.1-1.3c3.2-0.3,6.3-0.5,9.3-0.7c0.6-0.1,1.2,0.4,1.3,1.1c0,0.6-0.4,1.2-1.1,1.3
						C2495.7,1453.1,2492.6,1453.4,2489.3,1453.6C2489.4,1453.6,2489.3,1453.6,2489.3,1453.6z M2520.3,1451.3
						c-0.6,0-1.1-0.5-1.2-1.1c0-0.6,0.4-1.2,1.1-1.2c3.2-0.2,6.3-0.4,9.3-0.6c0.8-0.1,1.2,0.5,1.2,1.1c0,0.6-0.5,1.2-1.1,1.2
						C2526.7,1450.9,2523.6,1451.1,2520.3,1451.3C2520.4,1451.3,2520.3,1451.3,2520.3,1451.3z M2551.3,1449.8
						c-0.6,0-1.1-0.5-1.2-1.1c0-0.6,0.5-1.2,1.1-1.2c3.3-0.1,6.4-0.2,9.3-0.2c0,0,0,0,0,0c0.6,0,1.2,0.5,1.2,1.2
						c0,0.6-0.5,1.2-1.2,1.2C2557.8,1449.7,2554.7,1449.7,2551.3,1449.8C2551.4,1449.8,2551.4,1449.8,2551.3,1449.8z"/>
					<path class="st18" d="M2349.3,1758.9l-82.2,10.5c-10.8,1.4-20.9-5.5-23.5-16l-19.6-77.9c-3.1-12.4,5.3-24.8,18.1-26.4
						l98.8-12.6c12.5-1.6,23.7,7.8,24.1,20.3l3.1,80C2368.5,1747.9,2360.4,1757.5,2349.3,1758.9z"/>
					<linearGradient id="SVGID_5_" gradientUnits="userSpaceOnUse" x1="2357.45" y1="1430.3312" x2="2264.1301" y2="1849.4205">
						<stop  offset="0" style="stop-color:#FE7062"/>
						<stop  offset="1" style="stop-color:#FF928E"/>
					</linearGradient>
					<path class="st21" d="M2337.4,1745.6l-62.6,8c-8.2,1-15.9-4.2-17.9-12.2l-14.9-59.3c-2.4-9.4,4.1-18.8,13.8-20.1l75.2-9.6
						c9.5-1.2,18,5.9,18.4,15.5l2.3,60.9C2351.9,1737.3,2345.8,1744.5,2337.4,1745.6z"/>
				</g>
				<path class="st11" d="M2288.5,1115.1c19.4,80.1,19.9,158.6,17,187.1c-1.1,10.8-9.8,19.2-20.6,19.9c-12.3,0.9-28.9,2-43.9,2.8
					c-16.4,0.9-34.6-9.4-46.8-18.1c-6.2-4.4-14.2,2.5-10.8,9.3c6,11.7,16.4,20.9,26.7,28.7c6.2,4.7,26.8,13.1,25.4,22.4
					c-0.5,2.9-2.2,5.5-4.1,7.7c-11.5,13.7-28.8,21.1-45.9,26.3c-2.1,0.7-4.4,1.4-5.9,3c-0.4,11.1,33.6,23.3,42.4,26.3
					c13.2,4.4,27.1,6.2,40.9,4.8c34.2-3.6,65.8-27.2,84.3-55.7c49.3-76.1,74.7-168.1,84.1-238.4
					C2385.3,1095.4,2316.1,1107,2288.5,1115.1z"/>
				<g>
					<path class="st12" d="M2431.2,1148.4c36.6-276.1-176.2-488.5-176.2-488.5l-126.6,147.6c96.1,119.8,141.8,229.6,162.7,315.8
						C2318.7,1115.4,2385.3,1102.6,2431.2,1148.4z"/>
					<path class="st12" d="M2288,1122.1c-3.5,0-6.7-2.4-7.6-6c-25.7-106.3-80-211.5-161.2-312.8c-2.7-3.4-2.2-8.3,1.2-11
						c3.4-2.7,8.3-2.2,11,1.2c82.7,103.1,137.9,210.3,164.2,318.9c1,4.2-1.6,8.4-5.8,9.5C2289.2,1122,2288.6,1122.1,2288,1122.1z"/>
				</g>
			</g>
			<g>
				<g>
					<path class="st12" d="M573.3,2759c0-1.3-0.1-2.7-0.4-4.1c-20.4-80.7-121.4-131-121.4-131l-40,3.1
						c-23,71.2-20.1,114.8-16.4,134.2c0.1,0.5,0.3,1.1,0.4,1.6C428.5,2765.8,496.5,2767.8,573.3,2759z"/>
					
						<linearGradient id="SVGID_6_" gradientUnits="userSpaceOnUse" x1="-444.9846" y1="2481.3726" x2="-1102.697" y2="2997.8101" gradientTransform="matrix(1 0 0 1 1290.1023 0)">
						<stop  offset="0" style="stop-color:#4F52FF"/>
						<stop  offset="1" style="stop-color:#4042E2"/>
					</linearGradient>
					<path class="st22" d="M395.5,2762.9c1.8,6.5,6.6,11.5,12.7,12.8c47,9.9,121.7,1.9,153-2.2c6.9-0.9,12-7.3,12.1-14.5
						C496.5,2767.8,428.5,2765.8,395.5,2762.9z"/>
					<path class="st11" d="M395.3,2567.4l17,81.7c1.2,6,5.8,10.5,11.4,11c6.8,0.6,16.5,1,26.3-0.4c8.7-1.3,14.8-10.2,13.3-19.7
						l-11.8-72.5H395.3z"/>
					
						<linearGradient id="SVGID_7_" gradientUnits="userSpaceOnUse" x1="-328.1458" y1="2629.9592" x2="-985.8589" y2="3146.3975" gradientTransform="matrix(1 0 0 1 1290.1023 0)">
						<stop  offset="0" style="stop-color:#4F52FF"/>
						<stop  offset="1" style="stop-color:#4042E2"/>
					</linearGradient>
					<path class="st23" d="M746.7,2761.9c-44.2-1.2-67.1-6.4-78.9-11.3c0,4.4,0,8.9,0.1,13.5c0.2,5,3.8,8.9,8.3,8.9l242.8-1.6
						c7.8,0,12.3-9,8.9-16.1C896.2,2757.9,815.1,2763.8,746.7,2761.9z"/>
					<path class="st12" d="M928.1,2755.2c-0.3-0.6-0.5-1.2-1-1.8c-21.4-30-76.1-89.6-184-115.5l-51.8-1.6c0,0-23.1,40.1-23.5,114.3
						c11.8,4.8,34.7,10,78.9,11.3C815.1,2763.8,896.2,2757.9,928.1,2755.2z"/>
					<path class="st11" d="M679.4,2560.2c0.8,3.8,11.6,61.9,15.8,84.4c1,5.4,5.2,9.3,10.1,9.6c8.9,0.5,23.2,0.6,35.5-2.8
						c6.6-1.8,11.1-8.6,10.6-16.1l-5.8-91.9L679.4,2560.2z"/>
					<path class="st12" d="M640.2,1487.5c0,0,71.2,489.5,122.6,1071.9c1,10.8-7.7,20.3-18.3,22.5c-15.7,3.3-38.8,7.2-57.9,6.7
						c-10.2-0.3-18.7-7.9-20.4-17.9c-17.5-102.7-142.5-653.8-175.3-775.1c0,0-37.7,515.3-25.6,782.6c0.3,6.6-4.6,12.4-11.2,13.2
						c-10,1.2-26.1,2-46.5-0.1c-7.7-0.8-14-6.7-15.1-14.4c-12.5-86.9-84.3-604.3-81.2-976.9c0.2-21,24.7-193.7,24.7-193.7
						L640.2,1487.5z"/>
				</g>
				<path class="st17" d="M325.2,1515.7c-7.3-2.6-12.4-9.2-13.2-17c-9.5-91.9-55.3-661.7,234.2-896.1c0,0,16.6-43.4,153.1,63.3
					c136.5,106.8,63.4,218.7,30.7,373.1c-39.5,186.8-108.9,339.5-78.2,454.5c2.1,7.9-2.1,16.3-9.8,19.1
					C536,1551.8,430.4,1553,325.2,1515.7z"/>
				<path class="st13" d="M659.1,431.9C659,440,543.4,604.2,543.4,604.2s20.8,40.9,119.8,74.1l85.5-175.8L659.1,431.9z"/>
				<g>
					<path class="st11" d="M750.1,337.8c0,0,41.1,94.5,43.9,144.1c2.8,49.6,13.5,81.8-43.9,91.8c-57.4,10-105.7-18.6-131.8-68
						c0,0-41-76.1-31.8-107.3C595.7,367.2,750.1,337.8,750.1,337.8z"/>
					<path class="st14" d="M637.9,470.1l3.3-1.4c4.2-1.8,5.9-6.8,3.8-10.8c-8.1-15.6-23.9-51.4-3.5-59.8
						c26.2-10.8,130.2-32,152.7-68.9c21.6-35.5,2.5-81.2-26.3-94.2c-1.9-0.9-4.2-0.2-5.2,1.7l-2.4,4.5c-1.6,3.1-6.2,2.6-7.2-0.7l0,0
						c-0.9-3.2-5.2-3.9-7-1c-6.9,11-25.5,28.9-75.3,38.1c-70.8,13.1-117.5,41.7-118.7,90.6c-0.1,3.1-3.4,4.8-6,3.2
						c-5.2-3.2-13.6-4.7-24.8,4.7c-19.4,16.3-11.5,58.7,31.1,93.6c2,1.7,2,4.8-0.2,6.2c-7.7,5-19.2,17,10.6,32.9
						c30.9,16.5,53.9,15.1,62.8,13.7c2.2-0.4,3.6-2.5,3.1-4.7l-9.5-43c-0.5-2.4,1.3-4.7,3.8-4.7H637.9z"/>
					<path class="st11" d="M639.7,479.2c0,0-15.7-60.4-42.8-43.4c-27.1,16.9,14,67.6,35.8,69.9L639.7,479.2z"/>
				</g>
				<g>
					<path class="st17" d="M743.2,715.5l8,214.1c22.6,7.8,44.2,13.9,64.7,18.4c12.8-41.3,41.1-92.1,64.3-129.8
						C795.1,788.1,743.2,715.5,743.2,715.5z"/>
					<path class="st11" d="M1167.8,711.9c-116.7,126-211.1,133.4-287.7,106.3c-23.2,37.7-51.4,88.5-64.3,129.8
						c311.6,68.7,385-217.7,385-217.7L1167.8,711.9z"/>
					<path class="st11" d="M1191.5,698.5c0,0,13.4-14.4,38.3-9.9c24.9,4.5,47,13.2,62.5,0c15.5-13.2,20.9,4.5,20.9,4.5l-46.4,35.3
						L1191.5,698.5z"/>
					<path class="st11" d="M1163.7,723.2c0,0,9.2-38.5,37-33.2c27.8,5.3,90.8,39.5,107,33.2c16.2-6.3,37-21.4,47.7-16.1l-18.8,23.3
						c0,0,48.2-27.8,56.5-10.7l-80.3,45.2C1312.9,764.8,1195.4,753.1,1163.7,723.2z"/>
				</g>
				<path class="st11" d="M613.7,995.7c0,0,219.4,183.7,456.2,103.6c14.7-5,30.8-3.9,44.5,3.4l68.1,36c28.6,15.1,64,5.2,80.6-22.6
					c9.5-15.8,17.5-33.9,19.1-51.2l-133.2-53.9l9.8-16.3c0,0-65.1-5.5-82.1,41.1c0,0-123.9,51.5-332.9-178.3
					C743.7,857.3,648.9,937.9,613.7,995.7z"/>
				<linearGradient id="SVGID_8_" gradientUnits="userSpaceOnUse" x1="1815.8555" y1="-1184.2388" x2="1001.4285" y2="145.994">
					<stop  offset="0" style="stop-color:#E1473D"/>
					<stop  offset="1" style="stop-color:#E9605A"/>
				</linearGradient>
				<path class="st24" d="M601.8,993.8c-0.7,0-1.5-0.2-2.1-0.6C507.4,930.8,463.9,830,463.5,829c-0.8-1.9,0.1-4.1,2-4.9
					c1.9-0.8,4.1,0.1,4.9,2c0.4,1,43.1,99.7,133.5,160.9c1.7,1.2,2.2,3.5,1,5.2C604.2,993.2,603,993.8,601.8,993.8z"/>
				<linearGradient id="SVGID_9_" gradientUnits="userSpaceOnUse" x1="1811.0712" y1="-1187.1697" x2="996.6484" y2="143.0564">
					<stop  offset="0" style="stop-color:#E1473D"/>
					<stop  offset="1" style="stop-color:#E9605A"/>
				</linearGradient>
				<path class="st25" d="M739.4,854.2c-1.2,0-2.4-0.6-3.2-1.7c-0.3-0.4-28.5-44.4-82.2-140.6c-16.5-29.6-38.2-48.3-64.6-55.7
					c-43.6-12.2-85.6,11.2-86,11.4c-1.8,1-4.1,0.4-5.1-1.4c-1-1.8-0.4-4.1,1.4-5.1c1.8-1,45-25.2,91.6-12.1
					c28.3,7.9,51.6,27.8,69.2,59.3c53.6,96,81.7,139.8,82,140.2c1.1,1.7,0.6,4.1-1.1,5.2C740.8,854,740.1,854.2,739.4,854.2z"/>
			</g>
		</g>
		<g class="st0">
			<g class="st1">
				<g>
					
						<ellipse transform="matrix(0.7071 -0.7071 0.7071 0.7071 -636.1999 1592.4572)" class="st5" cx="1604.2" cy="1564.2" rx="174.5" ry="174.5"/>
					<path class="st5" d="M1778.3,1548.2h-174.1h-174.5c0,0-13.9,100.2,141.8,365.4c6.8,11.6,19.2,20.2,32.6,20.2
						c13.4,0,25.9-9.3,32.6-20.9C1792.5,1647.6,1778.3,1548.2,1778.3,1548.2z"/>
				</g>
				<g>
					<path class="st26" d="M1608.4,1941v0.8h-4.2c-15.2,0-29.4-8.2-37-21.2c-91-155-124.4-253-136.3-307.8c-3.4-12.6-5.4-25-6-37.6
						c-1.1-13-0.2-18.4-0.2-19l0.5-2.8c7-93.7,85-166.6,179-166.6c95.2,0,173.9,74,179.2,168.4c0.1,1.2,0.4,4.4,0.3,9.6l0,0.6
						c0,17.1-2.4,34.1-7.2,50.4c-12.4,54.8-43.8,151.9-133.2,304.3C1635.6,1933.1,1621.9,1941,1608.4,1941z M1434.5,1561.7
						c0,0,0,6.8,0.5,12.5l0,0.2c0.6,12,2.4,23.7,5.7,35.7l0.1,0.3c11.8,54.1,44.8,150.9,135.2,304.9c5.8,9.9,18.8,16.1,30.4,16.1
						l2.1,5.1v-5.1c3.4,0,20.8-6.2,26.7-16.2c88.9-151.4,122.6-247.7,132.8-301.7v-0.3c6.8-15.5,6.8-31.5,6.8-47.8l0-0.7v-0.1
						c0-5-0.7-7.8-0.8-8.5l-0.3-0.3c-5-89.2-79.4-159-169.3-159c-89.7,0-164,70.3-169.2,160.3l-0.3,4.7H1434.5z"/>
				</g>
				
					<ellipse transform="matrix(0.7071 -0.7071 0.7071 0.7071 -635.6373 1592.6902)" class="st27" cx="1604.7" cy="1563.6" rx="100.7" ry="100.7"/>
				<g>
					<linearGradient id="SVGID_10_" gradientUnits="userSpaceOnUse" x1="1622.6566" y1="1523.5298" x2="1938.2467" y2="817.6956">
						<stop  offset="0" style="stop-color:#4F52FF"/>
						<stop  offset="1" style="stop-color:#4042E2"/>
					</linearGradient>
					<path class="st28" d="M1604.7,1670c-58.6,0-106.4-47.7-106.4-106.4s47.7-106.4,106.4-106.4s106.4,47.7,106.4,106.4
						S1663.4,1670,1604.7,1670z M1604.7,1468.5c-52.4,0-95.1,42.7-95.1,95.1s42.7,95.1,95.1,95.1s95.1-42.7,95.1-95.1
						S1657.2,1468.5,1604.7,1468.5z"/>
				</g>
			</g>
			<g class="st1">
				<path class="st26" d="M1509.2,1458.8c-0.5,0-0.9-0.2-1.3-0.6c-0.6-0.7-0.5-1.8,0.2-2.4c28.3-24.3,64.5-37.7,101.8-37.7
					c0.9,0,1.7,0.8,1.7,1.7c0,0.9-0.8,1.7-1.7,1.7c-36.5,0-71.9,13.1-99.6,36.9C1510,1458.6,1509.6,1458.8,1509.2,1458.8z"/>
			</g>
			<g class="st1">
				<path class="st26" d="M1455.2,1576.1c-0.9,0-1.7-0.8-1.7-1.7c0-29.2,8.1-57.6,23.4-82.3c0.5-0.8,1.5-1,2.3-0.5
					c0.8,0.5,1,1.5,0.5,2.3c-15,24.1-22.9,52-22.9,80.5C1456.9,1575.4,1456.2,1576.1,1455.2,1576.1z"/>
			</g>
		</g>
	</g>
</g>
</svg>
