<svg xmlns="http://www.w3.org/2000/svg" xmlns:xlink="http://www.w3.org/1999/xlink" viewBox="0 0 344.98 249.49"><defs><style>.cls-1{fill:none;}.cls-2{isolation:isolate;}.cls-3,.cls-8{fill:#666;}.cls-31,.cls-4{fill:#a6a6a6;}.cls-5{fill:#4c2c96;}.cls-6{fill:#f44404;opacity:0.4;}.cls-24,.cls-27,.cls-30,.cls-31,.cls-6,.cls-8,.cls-9{mix-blend-mode:multiply;}.cls-7{fill:#adbfc4;}.cls-24,.cls-27,.cls-30,.cls-8{opacity:0.5;}.cls-9{fill:#6b6b6b;}.cls-10{fill:#6e3fd8;}.cls-11{fill:#f5e4da;}.cls-12{fill:url(#linear-gradient);}.cls-13{fill:url(#linear-gradient-2);}.cls-14{clip-path:url(#clip-path);}.cls-15{fill:#5f828c;}.cls-16{fill:#fff;opacity:0.35;}.cls-17{fill:#ebc6b2;}.cls-18{fill:url(#linear-gradient-3);}.cls-19{opacity:0.65;}.cls-20{clip-path:url(#clip-path-2);}.cls-21{fill:#5d7f8a;}.cls-22{fill:url(#linear-gradient-4);}.cls-23{clip-path:url(#clip-path-3);}.cls-24{fill:#d56343;}.cls-25{fill:#455a64;}.cls-26{fill:#9b6fef;}.cls-28{fill:#263238;}.cls-29,.cls-30{fill:#c7d3d7;}.cls-32{fill:#eb9531;}.cls-33{fill:#d82929;}.cls-34{fill:#1dc605;}.cls-35{fill:#8a6a3d;}.cls-36{fill:#fae7d0;}</style><linearGradient id="linear-gradient" x1="175.13" y1="190.71" x2="175.13" y2="109.93" gradientUnits="userSpaceOnUse"><stop offset="0" stop-color="#5f828c"/><stop offset="0.28" stop-color="#5b7d87"/><stop offset="0.62" stop-color="#506e77"/><stop offset="1" stop-color="#3f575e"/></linearGradient><linearGradient id="linear-gradient-2" x1="175.13" y1="190.71" x2="175.13" y2="109.93" xlink:href="#linear-gradient"/><clipPath id="clip-path" transform="translate(-10.26 -2.36)"><rect class="cls-1" x="172" y="125.98" width="26.79" height="33.67"/></clipPath><linearGradient id="linear-gradient-3" x1="105.36" y1="177.95" x2="105.36" y2="116.7" xlink:href="#linear-gradient"/><clipPath id="clip-path-2" transform="translate(-10.26 -2.36)"><rect class="cls-1" x="93.94" y="123.34" width="43.36" height="48.73"/></clipPath><linearGradient id="linear-gradient-4" x1="244.65" y1="181.52" x2="244.65" y2="106.73" xlink:href="#linear-gradient"/><clipPath id="clip-path-3" transform="translate(-10.26 -2.36)"><rect class="cls-1" x="233.23" y="123.34" width="43.36" height="48.73"/></clipPath></defs><title>fastfood</title><g class="cls-2"><g id="objects"><path class="cls-3" d="M42.66,190.18H314.09c5.62,0,13.78,1,17.35,6.12s23.47,36.95,23.47,40.78c0,3.1,2.55,13.31-6.63,14.33s-329.61,0-329.61,0-8.41,0-8.41-8.42v-6.68S29,200,31.43,194.77C34.49,188.14,42.66,190.18,42.66,190.18Z" transform="translate(-10.26 -2.36)"/><path class="cls-4" d="M42.66,182.87H314.09c5.62,0,13.78,1,17.35,6.12s22.45,39.8,23,42.86,3.06,11.22-6.12,12.24-329.61,0-329.61,0-8.41,0-8.41-8.42,18.11-41.58,21.17-48.21S42.66,182.87,42.66,182.87Z" transform="translate(-10.26 -2.36)"/><rect class="cls-5" x="71.69" y="23.35" width="192.35" height="41.33"/><path class="cls-6" d="M194.36,31.33c2.34,2.19,4.17,3.26,5.94,4.81a7.32,7.32,0,0,0-1.69,2.33c-.85,2.21-2.55,5.1,4.09,9.53s15.47,8.16,26.36,10.37,24.49.85,27.38-.17a8.73,8.73,0,0,0,1.4-.64,8.77,8.77,0,0,0,3.54.95c4.33.26,8-2.5,8.23-6.15a6.25,6.25,0,0,0-2.39-5.15c1.47-.31,2.75,1.31,4.36.11,2-1.53,3.4-3.58,1-6.81-1.31-1.77-3.38-2.57-5.66-3a11.72,11.72,0,0,0,1.52-11.75h-75C192.73,28.29,192,29.09,194.36,31.33Z" transform="translate(-10.26 -2.36)"/><rect class="cls-7" x="52.04" y="126.1" width="5.36" height="41.39"/><path class="cls-8" d="M42.66,182.87s-8.17-2.05-11.23,4.59c-.53,1.14-1.5,3.07-2.75,5.51L59,205.83l11.23-3.07L75,182.87Z" transform="translate(-10.26 -2.36)"/><rect class="cls-9" x="52.04" y="126.03" width="5.36" height="6.25"/><path class="cls-10" d="M66.13,193.58V64.49H297.26V193.58S65.36,194.35,66.13,193.58Z" transform="translate(-10.26 -2.36)"/><path class="cls-11" d="M302.36,205.83H59V190h97V102.25s58.16-1.53,58.16,0V190h88.27Z" transform="translate(-10.26 -2.36)"/><rect class="cls-5" x="153.83" y="112.9" width="42.86" height="85.97"/><rect class="cls-4" x="157.15" y="152.95" width="2.04" height="15.56"/><rect class="cls-12" x="161.74" y="162.39" width="26.79" height="25.51"/><rect class="cls-13" x="161.74" y="123.61" width="26.79" height="33.67"/><g class="cls-14"><path class="cls-15" d="M156.44,116.88c0,6.38-1.86,27.89,11.84,27.89s13.33-21.51,13.33-27.89Z" transform="translate(-10.26 -2.36)"/><path class="cls-15" d="M181.27,116.88c0,6.38-1.88,27.89,12,27.89s13.5-21.51,13.5-27.89Z" transform="translate(-10.26 -2.36)"/></g><polygon class="cls-16" points="161.74 142.91 181.04 123.61 178.75 123.61 161.74 140.62 161.74 142.91"/><polygon class="cls-16" points="188.53 134.84 188.53 123.61 186.23 123.61 161.74 148.1 161.74 157.29 166.08 157.29 188.53 134.84"/><polygon class="cls-16" points="188.53 151.59 182.83 157.29 184.19 157.29 188.53 152.95 188.53 151.59"/><polygon class="cls-16" points="161.74 166.64 161.74 170.04 169.4 162.39 165.99 162.39 161.74 166.64"/><path class="cls-16" d="M195.3,164.75,172,188.05v1.53l24.83-24.83Z" transform="translate(-10.26 -2.36)"/><path class="cls-16" d="M186.45,190.26l12.33-12.33v-4.38c-2.47,2.61-11.19,11.78-16.23,16.71Z" transform="translate(-10.26 -2.36)"/><rect class="cls-17" x="79.6" y="116.72" width="51.53" height="57.91"/><rect class="cls-18" x="83.68" y="121.32" width="43.36" height="48.73"/><g class="cls-19"><g class="cls-20"><path class="cls-21" d="M91.47,115.18c0,6.38-1.72,27.89,10.88,27.89s12.25-21.51,12.25-27.89Z" transform="translate(-10.26 -2.36)"/><path class="cls-21" d="M114.94,115.18c0,6.38-1.83,27.89,11.69,27.89s13.14-21.51,13.14-27.89Z" transform="translate(-10.26 -2.36)"/></g></g><polygon class="cls-16" points="83.68 146.31 83.68 151.1 112.59 121.31 107.59 121.31 83.68 146.31"/><path class="cls-16" d="M102.54,172.41l34.76-36v-8.62c-10.94,11.35-37.33,38.76-42.61,44.64Z" transform="translate(-10.26 -2.36)"/><path class="cls-16" d="M137.3,144.84v-2.18c-7.49,7.34-24.57,24.08-30.33,29.75h2.54Z" transform="translate(-10.26 -2.36)"/><path class="cls-16" d="M93.94,144.46l21-20.78h-2l-18.9,18.53Z" transform="translate(-10.26 -2.36)"/><rect class="cls-17" x="218.89" y="116.72" width="51.53" height="57.91"/><rect class="cls-22" x="222.97" y="121.32" width="43.36" height="48.73"/><g class="cls-19"><g class="cls-23"><path class="cls-21" d="M212.91,115.18c0,6.38-1.84,27.89,11.68,27.89s13.14-21.51,13.14-27.89Z" transform="translate(-10.26 -2.36)"/><path class="cls-21" d="M237.05,115.18c0,6.38-1.69,27.89,10.73,27.89s12.06-21.51,12.06-27.89Z" transform="translate(-10.26 -2.36)"/><path class="cls-21" d="M260.18,115.18c0,6.38-1.59,27.89,10.08,27.89s11.35-21.51,11.35-27.89Z" transform="translate(-10.26 -2.36)"/></g></g><polygon class="cls-16" points="222.97 142.82 222.97 151.67 253.33 121.31 244.48 121.31 222.97 142.82"/><polygon class="cls-16" points="260.81 121.31 222.97 159.15 222.97 162.04 263.7 121.31 260.81 121.31"/><polygon class="cls-16" points="266.33 143.34 266.33 136.2 232.49 170.04 239.64 170.04 266.33 143.34"/><polygon class="cls-16" points="266.33 152.02 266.33 148.45 244.74 170.04 248.31 170.04 266.33 152.02"/><path class="cls-24" d="M282.29,74.7,82.71,72.4l-16.58,13L65.62,163l1,15.3v11.61c3.16-3.3,3.65-8.41,3.73-11.61h.3c-.17,5,0,14.8,11.9,14.8,9.38,0,12.16-6,13-11,.39,5,2.5,11,12,11,8.8,0,11.87-5.16,12.93-9.91.61,4.75,3,9.91,11.58,9.91s11.51-5.09,12.57-9.82c.58,4.73,2.8,9.82,10.61,9.82,10.82,0,11.95-9.76,12.06-14.8h.3c-.14,5,0,14.8,10.13,14.8s11.24-9.76,11.34-14.8h.64c-.16,5-.05,14.8,11.9,14.8s13.19-9.76,13.31-14.8h.3c-.17,5,0,14.8,12.54,14.8s13.9-9.76,14-14.8h.35Z" transform="translate(-10.26 -2.36)"/><polygon class="cls-25" points="74.75 72.33 22.7 98.36 48.91 98.36 90.33 72.33 74.75 72.33"/><polygon class="cls-26" points="90.33 72.33 48.91 98.36 73.93 98.36 104.18 72.33 90.33 72.33"/><polygon class="cls-25" points="104.18 72.33 73.93 98.36 97.43 98.36 122.49 72.33 104.18 72.33"/><polygon class="cls-25" points="138.62 72.33 122.42 98.36 146.08 98.36 156.92 72.33 138.62 72.33"/><polygon class="cls-26" points="156.92 72.33 146.08 98.36 171.35 98.36 171.35 72.33 156.92 72.33"/><polygon class="cls-26" points="188.63 72.33 195.88 98.36 220.07 98.36 206 72.33 188.63 72.33"/><polygon class="cls-26" points="224.94 72.33 242.95 98.36 265.09 98.36 239.35 72.33 224.94 72.33"/><polygon class="cls-25" points="239.35 72.33 265.09 98.36 291.44 98.36 256.93 72.33 239.35 72.33"/><polygon class="cls-26" points="272.04 72.33 256.93 72.33 291.44 98.36 316.94 98.36 272.04 72.33"/><polygon class="cls-25" points="206 72.33 220.07 98.36 242.95 98.36 224.94 72.33 206 72.33"/><polygon class="cls-25" points="171.35 72.33 171.35 98.36 195.88 98.36 188.63 72.33 171.35 72.33"/><polygon class="cls-26" points="122.49 72.33 97.43 98.36 122.42 98.36 138.62 72.33 122.49 72.33"/><path class="cls-25" d="M33.4,100.63c0,6.39-2,27.9,12.48,27.9s14-21.51,14-27.9Z" transform="translate(-10.26 -2.36)"/><path class="cls-26" d="M60.52,100.89c0,6.39-1.81,27.89,11.52,27.89s13-21.5,13-27.89Z" transform="translate(-10.26 -2.36)"/><path class="cls-25" d="M84.66,100.89c0,6.39-1.71,27.89,10.89,27.89s12.24-21.5,12.24-27.89Z" transform="translate(-10.26 -2.36)"/><path class="cls-26" d="M108.14,100.89c0,6.39-1.84,27.89,11.68,27.89S133,107.28,133,100.89Z" transform="translate(-10.26 -2.36)"/><path class="cls-25" d="M133,100.89c0,6.39-1.71,27.89,10.89,27.89s12.25-21.5,12.25-27.89Z" transform="translate(-10.26 -2.36)"/><path class="cls-26" d="M156.44,100.89c0,6.39-1.86,27.89,11.84,27.89s13.33-21.5,13.33-27.89Z" transform="translate(-10.26 -2.36)"/><path class="cls-25" d="M181.27,100.89c0,6.39-1.88,27.89,12,27.89s13.5-21.5,13.5-27.89Z" transform="translate(-10.26 -2.36)"/><path class="cls-26" d="M206.1,100.89c0,6.39-1.83,27.89,11.69,27.89s13.14-21.5,13.14-27.89Z" transform="translate(-10.26 -2.36)"/><path class="cls-25" d="M230.25,100.89c0,6.39-1.69,27.89,10.72,27.89S253,107.28,253,100.89Z" transform="translate(-10.26 -2.36)"/><path class="cls-26" d="M253.37,100.89c0,6.39-1.58,27.89,10.09,27.89s11.35-21.5,11.35-27.89Z" transform="translate(-10.26 -2.36)"/><path class="cls-25" d="M275.49,100.89c0,6.39-1.86,27.89,11.85,27.89s13.32-21.5,13.32-27.89Z" transform="translate(-10.26 -2.36)"/><path class="cls-26" d="M301,100.89c0,6.39-2,27.89,12.48,27.89s14-21.5,14-27.89Z" transform="translate(-10.26 -2.36)"/><g class="cls-27"><path class="cls-28" d="M59.92,100.63H33.4c0,3.15-.47,10,.76,16.05l24.57-1.4A68,68,0,0,0,59.92,100.63Z" transform="translate(-10.26 -2.36)"/><path class="cls-5" d="M85,100.89H60.52c0,2.84-.36,8.67.42,14.27l23.28-1.33A80.06,80.06,0,0,0,85,100.89Z" transform="translate(-10.26 -2.36)"/><path class="cls-28" d="M107.79,100.89H84.66a114.94,114.94,0,0,0,.24,12.9l22.34-1.27A90.19,90.19,0,0,0,107.79,100.89Z" transform="translate(-10.26 -2.36)"/><path class="cls-5" d="M133,100.89H108.14c0,2.39-.26,6.88.13,11.58l24.28-1.39A89.71,89.71,0,0,0,133,100.89Z" transform="translate(-10.26 -2.36)"/><path class="cls-28" d="M156.1,100.89H133c0,2.15-.2,6,0,10.17l22.84-1.3C156.12,106.1,156.1,102.81,156.1,100.89Z" transform="translate(-10.26 -2.36)"/><path class="cls-5" d="M181.61,100.89H156.44c0,1.91-.16,5.19,0,8.84l25-1.43C181.63,105.24,181.61,102.55,181.61,100.89Z" transform="translate(-10.26 -2.36)"/><path class="cls-28" d="M206.78,100.89H181.27c0,1.66-.12,4.36-.07,7.43l25.48-1.45C206.8,104.41,206.78,102.29,206.78,100.89Z" transform="translate(-10.26 -2.36)"/><path class="cls-5" d="M230.93,100.89H206.1c0,1.4-.09,3.54-.08,6l24.86-1.41C230.94,103.62,230.93,102,230.93,100.89Z" transform="translate(-10.26 -2.36)"/><path class="cls-28" d="M253,100.89H230.25c0,1.14-.06,2.75-.07,4.64l22.84-1.3C253,102.9,253,101.75,253,100.89Z" transform="translate(-10.26 -2.36)"/><path class="cls-5" d="M274.81,100.89H253.37c0,.86,0,2-.05,3.32L274.81,103Z" transform="translate(-10.26 -2.36)"/><path class="cls-28" d="M300.66,100.89H275.49c0,.57,0,1.27,0,2.06l25.2-1.43Z" transform="translate(-10.26 -2.36)"/><path class="cls-5" d="M301,100.89v.61l10.74-.61Z" transform="translate(-10.26 -2.36)"/></g><rect class="cls-5" x="21.68" y="97.59" width="297.21" height="3.06" rx="1.5"/><rect class="cls-29" x="27.81" y="125.91" width="24.49" height="47.96"/><polygon class="cls-30" points="52.3 125.91 27.81 125.91 27.81 143.76 40.05 143.76 40.05 173.87 52.3 173.87 52.3 125.91"/><rect class="cls-31" x="27.81" y="125.91" width="24.49" height="6.38"/><path class="cls-32" d="M207.46,32s-3.4,2.21-4.25,4.42-2.56,5.1,4.08,9.53,15.47,8.16,26.36,10.37,24.49.85,27.38-.17,3.74-2.55,3.74-4.59-1.53-9-1.53-9S244.53,39,232.12,36.09A216.12,216.12,0,0,0,207.46,32Z" transform="translate(-10.26 -2.36)"/><ellipse class="cls-33" cx="203.75" cy="35.43" rx="9.27" ry="6.63"/><path class="cls-33" d="M243,52.53c-2.6,2.58-7.18,2.18-10.24-.89s-3.43-7.67-.83-10.25,7.18-2.18,10.24.89S245.59,50,243,52.53Z" transform="translate(-10.26 -2.36)"/><path class="cls-33" d="M274.21,50.32C274,54,270.3,56.73,266,56.47s-7.66-3.43-7.44-7.08,3.9-6.42,8.23-6.16S274.42,46.66,274.21,50.32Z" transform="translate(-10.26 -2.36)"/><path class="cls-34" d="M212.05,21.29s-3.4,1.88-6.12,1.37-7-3.75-7.66-.17-2,4.25.68,6.8,4.77,3.57,6.81,5.61,2.89,4.08,6.12,5.1,8.67.68,11.39,1.53,3.92,4.09,6.81,4.94,7-.34,10.71.17,3.74,3.57,8,5.1,6.63,1.87,9.86.68,4.42-.34,7.48-1.36,2.38-2.89,4.43-5.1,3.57.85,5.61-.68,3.4-3.58,1-6.81-7.31-3.23-11.4-3.91-5.1-2.21-9.86-3.4-6.12.85-10.21-.17-7-3.06-11.9-4.93-6.12-5.62-11.23-6S215.45,19.42,212.05,21.29Z" transform="translate(-10.26 -2.36)"/><path class="cls-35" d="M209.16,24.19s-.85.34-1.11,2.8a8,8,0,0,0,2,5.72c2.51,2.51,8.24,5.74,19.73,9.16,21.09,6.3,26,4.6,30.95,3.24a40,40,0,0,0,4.58-1.76c1.33-.62,2.05-1.91,2.8-3.79a15.84,15.84,0,0,0,.78-6.7s-15.13,9.52-34.86,2S209.16,24.19,209.16,24.19Z" transform="translate(-10.26 -2.36)"/><path class="cls-32" d="M206.61,15.34c.21-3.87,3.91-13.77,21.94-12.92s32.65,6.46,39.79,14.11,7,14.65,2.39,19.9c-6.13,7-24,6.75-39.63,1.53C213.75,32.18,205.93,27.59,206.61,15.34Z" transform="translate(-10.26 -2.36)"/><path class="cls-36" d="M231.69,12.45c0,1-.33,1.4-1.14,1.4s-1.79-.45-1.79-1.4A1.4,1.4,0,0,1,230.42,11C231.69,11.37,231.69,11.49,231.69,12.45Z" transform="translate(-10.26 -2.36)"/><path class="cls-36" d="M236.43,19.28c.46.68.44,1.16-.13,1.55a1.37,1.37,0,0,1-1.93-.14,1.18,1.18,0,0,1,.49-1.78C235.91,18.52,236,18.61,236.43,19.28Z" transform="translate(-10.26 -2.36)"/><path class="cls-36" d="M244.5,15.59c-.76-.29-1-.64-.84-1.14a1.16,1.16,0,0,1,1.55-.66c.75.3,1.06,1,.71,1.46C245.36,15.93,245.26,15.89,244.5,15.59Z" transform="translate(-10.26 -2.36)"/><path class="cls-36" d="M255.79,22.19c.14.95-.08,1.44-.76,1.54a1.43,1.43,0,0,1-1.69-1.19c-.14-.95.51-1.7,1.19-1.59C255.64,21.12,255.66,21.24,255.79,22.19Z" transform="translate(-10.26 -2.36)"/><path class="cls-36" d="M248,25.72c-.57.4-1,.31-1.51-.37s-.79-1.68-.22-2.08,1.47.06,1.81.79C248.64,25.26,248.56,25.32,248,25.72Z" transform="translate(-10.26 -2.36)"/><rect class="cls-31" x="29" y="138.92" width="22.79" height="0.85"/><rect class="cls-31" x="29" y="147.46" width="22.79" height="0.85"/><rect class="cls-31" x="29" y="156.07" width="22.79" height="0.85"/><rect class="cls-31" x="29" y="165.07" width="22.79" height="0.85"/><polygon class="cls-6" points="225.42 64.68 71.69 34.94 71.69 64.68 225.42 64.68"/></g></g></svg>