<svg xmlns="http://www.w3.org/2000/svg" viewBox="0 0 330.14 308.61"><defs><style>.cls-1{isolation:isolate;}.cls-2,.cls-3,.cls-4{fill:#8396a3;}.cls-2,.cls-25{opacity:0.3;}.cls-2{mix-blend-mode:lighten;}.cls-19,.cls-24,.cls-26,.cls-29,.cls-4{opacity:0.5;}.cls-11,.cls-14,.cls-16,.cls-19,.cls-24,.cls-25,.cls-26,.cls-29,.cls-30,.cls-4{mix-blend-mode:multiply;}.cls-26,.cls-5{fill:#9b738d;}.cls-6{fill:#455a64;}.cls-7{fill:#263238;}.cls-8{fill:#666;}.cls-9{fill:#a6a6a6;}.cls-10,.cls-24,.cls-25{fill:#6e3fd8;}.cls-11,.cls-21{fill:#edcab6;}.cls-11{opacity:0.8;}.cls-12{fill:#4c2c96;}.cls-13,.cls-15,.cls-29{fill:#fff;}.cls-14{fill:#b2b2b2;opacity:0.53;}.cls-15{opacity:0.35;}.cls-16,.cls-17{fill:#cab5c3;}.cls-18{fill:#787878;}.cls-19,.cls-30{fill:#7b3029;}.cls-20{fill:#835826;}.cls-22{fill:none;stroke:#050505;stroke-miterlimit:10;}.cls-23{fill:#636363;}.cls-27{fill:#927010;}.cls-28{fill:#ad944c;}.cls-30{opacity:0.15;}</style></defs><title>restaurant</title><g class="cls-1"><g id="objects"><polygon points="68.64 18.24 68.64 1.35 60.2 0 61.88 18.24 68.64 18.24"/><path class="cls-2" d="M74.82,1.35,69.9.56c.78,6,.63,11.91,1.1,17.68h3.82Z" transform="translate(-6.18)"/><path class="cls-3" d="M59.71,16.21H75.24V52H62.07a55.57,55.57,0,0,1-3-17.23A130.73,130.73,0,0,1,59.71,16.21Z" transform="translate(-6.18)"/><path class="cls-4" d="M69.39,38.41c-2.59-7.59-5-18.26,2.49-22.2H59.71A130.73,130.73,0,0,0,59,34.78a55.57,55.57,0,0,0,3,17.23H75.24V40.59l-.32.16A4,4,0,0,1,69.39,38.41Z" transform="translate(-6.18)"/><polygon class="cls-5" points="238.89 30.62 84.19 30.62 52.18 55.05 269.32 55.05 238.89 30.62"/><polygon class="cls-6" points="238.89 30.62 84.19 30.62 52.18 55.05 269.32 55.05 238.89 30.62"/><path class="cls-7" d="M85.54,52.6a11.31,11.31,0,0,0,10.14-6.3,11.29,11.29,0,0,0,20.26,0,11.29,11.29,0,0,0,20.26,0,11.29,11.29,0,0,0,20.26,0,11.3,11.3,0,0,0,20.27,0,11.29,11.29,0,0,0,20.26,0,11.29,11.29,0,0,0,20.26,0,11.29,11.29,0,0,0,20.26,0,11.3,11.3,0,0,0,20.27,0,11.3,11.3,0,0,0,10.13,6.3,11.05,11.05,0,0,0,3.74-.65l-18-14.46H81.37L62.15,52.16a11.49,11.49,0,0,0,3.13.44,11.3,11.3,0,0,0,10.13-6.3A11.31,11.31,0,0,0,85.54,52.6Z" transform="translate(-6.18)"/><path class="cls-8" d="M36.58,247.37h257c5.58,0,13.68,1,17.23,6.08s23.3,36.69,23.3,40.48c0,3.09,2.53,13.22-6.59,14.23s-314.74,0-314.74,0-6.59-.42-6.59-8.78c0-1.76.51-8.1.51-8.1S23,257.13,25.43,251.93C28.47,245.35,36.58,247.37,36.58,247.37Z" transform="translate(-6.18)"/><path class="cls-9" d="M38.6,240.11h257c5.57,0,13.68,1,17.22,6.08s22.29,39.51,22.8,42.55,3,11.15-6.08,12.16-314.75,0-314.75,0-8.35,0-8.35-8.36,17.7-41.42,21-47.87C30.33,239.1,38.6,240.11,38.6,240.11Z" transform="translate(-6.18)"/><rect class="cls-10" x="54.88" y="59.27" width="215.46" height="207.19"/><path class="cls-4" d="M38.6,240.11s-8.27-1-11.14,4.56c-.91,1.77-2.9,5.53-5.31,10.23,7.6,5.63,29.4,21.59,33.84,22.7,0,0,7.43-.34,9.12-2,1.1-1.1,2.2-21.44,2.84-35.46Z" transform="translate(-6.18)"/><path class="cls-11" d="M72.29,177.3,69.5,178v88.48h2.79S71.82,176.83,72.29,177.3Z" transform="translate(-6.18)"/><rect class="cls-12" x="47.45" y="54.03" width="229.31" height="7.43"/><rect class="cls-6" x="66.11" y="177.3" width="190.47" height="89.49"/><polygon class="cls-11" points="255.14 174.6 63.32 174.6 63.32 152.65 66.7 149.61 256.83 171.22 255.14 174.6"/><polygon class="cls-11" points="270.34 58.76 54.88 58.76 54.88 67.2 77.76 67.2 77.76 149.69 84.93 149.69 84.93 67.2 175.69 67.2 175.69 149.69 182.87 149.69 182.87 67.2 270.34 67.2 270.34 58.76"/><rect class="cls-7" x="66.11" y="149.27" width="190.47" height="23.3"/><rect class="cls-3" x="69.91" y="181.1" width="58.76" height="51.92"/><path class="cls-13" d="M89.6,181.1H76.09V233h14.4C89.48,215.9,88,198.13,89.6,181.1Z" transform="translate(-6.18)"/><path class="cls-14" d="M82.42,181.1H80.53c-.77,17.55-1.69,34.48-1.06,51.92h2.92C81.15,215.8,80,198.13,82.42,181.1Z" transform="translate(-6.18)"/><path class="cls-14" d="M85.71,203.77c-.4,10.11-.65,19.28-.2,29.25h1.62A185.46,185.46,0,0,1,85.71,203.77Z" transform="translate(-6.18)"/><path class="cls-13" d="M134.85,181.1H123.2V233h11.65Z" transform="translate(-6.18)"/><path class="cls-14" d="M129.1,181.1h-2.87c0,17.58-.81,34.45-1,51.92h3C125.73,215.55,127.34,198.68,129.1,181.1Z" transform="translate(-6.18)"/><path class="cls-14" d="M133.33,194.52c-1.92,12.5-2,25.91-2,38.5h2.37C132.57,220.07,133.33,207.67,133.33,194.52Z" transform="translate(-6.18)"/><rect class="cls-15" x="69.91" y="233.02" width="58.76" height="6.08"/><rect class="cls-7" x="69.91" y="239.1" width="58.76" height="27.69"/><rect class="cls-3" x="194.01" y="181.1" width="58.76" height="51.92"/><path class="cls-13" d="M212.12,181.1H200.2V233h11.33C211.79,215.55,209.78,198.68,212.12,181.1Z" transform="translate(-6.18)"/><path class="cls-14" d="M207.29,233h1.81c-.65-3.71-1-5.57-1.81-10.13Z" transform="translate(-6.18)"/><path class="cls-13" d="M259,181.1H245.71q-1.29,26-.11,51.92H259Z" transform="translate(-6.18)"/><path class="cls-14" d="M207.29,220.86c0-13.58-.15-26.44,2.19-39.85l-2.2.09C207.21,194.05,205.3,207.94,207.29,220.86Z" transform="translate(-6.18)"/><path class="cls-14" d="M203.87,181.1H200.2V233h3C202.89,215.71,201.66,198.4,203.87,181.1Z" transform="translate(-6.18)"/><path class="cls-14" d="M251.82,181.1h-3.23c-2.3,17.3,1.55,34.61.56,51.92h4.2C249.06,216.56,250.84,198.4,251.82,181.1Z" transform="translate(-6.18)"/><path class="cls-14" d="M256.86,181.1h-2c-.65,17.58,2.64,34.37,1.34,51.92H257C258.78,215.71,256.14,198.4,256.86,181.1Z" transform="translate(-6.18)"/><rect class="cls-3" x="194.01" y="233.02" width="58.76" height="6.08"/><rect class="cls-7" x="194.01" y="239.1" width="58.76" height="27.69"/><rect class="cls-12" x="135" y="177.3" width="46.1" height="89.49"/><rect class="cls-10" x="137.53" y="182.11" width="40.27" height="84.68"/><path class="cls-16" d="M148.53,219.85a2,2,0,1,0-2,2A2,2,0,0,0,148.53,219.85Z" transform="translate(-6.18)"/><rect class="cls-3" x="145.89" y="219.6" width="8.86" height="27.35"/><rect class="cls-3" x="159.82" y="219.6" width="8.86" height="27.35"/><rect class="cls-3" x="145.89" y="188.19" width="8.86" height="27.35"/><rect class="cls-3" x="159.82" y="188.19" width="8.86" height="27.35"/><polygon class="cls-15" points="145.89 234.37 154.76 225.51 154.76 221.28 145.89 230.15 145.89 234.37"/><polygon class="cls-15" points="168.69 211.58 168.69 207.35 160.5 215.54 164.72 215.54 168.69 211.58"/><polygon class="cls-15" points="154.76 230.74 145.89 239.61 145.89 246.95 154.76 246.95 154.76 230.74"/><polygon class="cls-15" points="168.69 245.35 168.69 242.48 164.21 246.95 167.08 246.95 168.69 245.35"/><polygon class="cls-15" points="145.89 219.6 145.89 221.54 147.83 219.6 145.89 219.6"/><polygon class="cls-15" points="159.82 244.59 168.69 235.72 168.69 219.6 165.9 219.6 159.82 225.68 159.82 244.59"/><polygon class="cls-15" points="154.76 209.13 148.34 215.54 151.88 215.54 154.76 212.67 154.76 209.13"/><polygon class="cls-15" points="145.89 189.62 145.89 209.04 154.76 200.18 154.76 188.19 147.33 188.19 145.89 189.62"/><polygon class="cls-15" points="168.69 195.2 159.82 204.06 159.82 207.61 168.69 198.74 168.69 195.2"/><path class="cls-17" d="M150.3,219.34a2,2,0,1,0-2,2A2,2,0,0,0,150.3,219.34Z" transform="translate(-6.18)"/><path class="cls-18" d="M80.31,159.4a2,2,0,0,1-1.86,1.86,1.71,1.71,0,0,1-1.52-1.86,1.69,1.69,0,0,1,3.38,0Z" transform="translate(-6.18)"/><path class="cls-18" d="M79.3,169.28a2,2,0,0,1-2.58-.5,1.71,1.71,0,0,1,.69-2.3,1.69,1.69,0,0,1,1.89,2.8Z" transform="translate(-6.18)"/><path class="cls-18" d="M253.89,168.4a1.81,1.81,0,0,1,1.61-1.74,1.54,1.54,0,0,1,1.44,1.62,1.53,1.53,0,0,1-3.05.12Z" transform="translate(-6.18)"/><path class="cls-18" d="M256.81,156.38a1.59,1.59,0,0,1,1.16,1.75,1.42,1.42,0,1,1-1.16-1.75Z" transform="translate(-6.18)"/><text x="-6.18"/><rect class="cls-6" x="82.82" y="67.37" width="59.52" height="81.81"/><rect class="cls-3" x="93.21" y="77.62" width="38.75" height="49.92"/><polygon class="cls-15" points="104.24 77.62 93.21 88.65 93.21 96.25 111.84 77.62 104.24 77.62"/><polygon class="cls-15" points="93.21 104.18 93.21 108.24 123.83 77.62 119.77 77.62 93.21 104.18"/><path class="cls-15" d="M138.14,109.33v-23L99.39,125.12v2.42h20.55Z" transform="translate(-6.18)"/><polygon class="cls-15" points="131.96 120.14 131.96 116.43 120.85 127.53 124.57 127.53 131.96 120.14"/><polygon class="cls-4" points="93.21 77.62 93.21 80.56 129.68 80.56 129.68 127.53 131.96 127.53 131.96 77.62 93.21 77.62"/><rect class="cls-7" x="101.57" y="77.62" width="0.76" height="49.92"/><rect class="cls-7" x="122.34" y="77.62" width="0.76" height="49.92"/><rect class="cls-7" x="93.21" y="115.2" width="38.75" height="1.51"/><rect class="cls-7" x="93.21" y="86.76" width="38.75" height="1.51"/><rect class="cls-7" x="93.21" y="131.56" width="38.75" height="14.35"/><polygon class="cls-19" points="93.21 131.56 93.21 132.89 130.19 132.89 130.19 145.91 131.96 145.91 131.96 131.56 93.21 131.56"/><line class="cls-20" x1="120.06" y1="127.54" x2="120.06" y2="77.62"/><rect class="cls-6" x="182.36" y="67.37" width="59.52" height="81.81"/><rect class="cls-3" x="193.51" y="77.51" width="38.75" height="49.92"/><polygon class="cls-15" points="193.51 85.1 193.51 94.47 210.47 77.52 201.1 77.52 193.51 85.1"/><path class="cls-15" d="M199.69,110.94l33.42-33.43h-4.72c-6.34,6-20.53,19.59-28.7,27.95Z" transform="translate(-6.18)"/><path class="cls-15" d="M238.44,101.82V89.92l-37.51,37.51h11.9Z" transform="translate(-6.18)"/><polygon class="cls-15" points="232.26 111.44 232.26 108.66 213.49 127.43 216.27 127.43 232.26 111.44"/><rect class="cls-7" x="201.11" y="77.62" width="0.76" height="49.92"/><rect class="cls-7" x="224.41" y="77.62" width="0.76" height="49.92"/><rect class="cls-7" x="193" y="115.2" width="39.34" height="1.51"/><rect class="cls-7" x="193.42" y="86.76" width="39.26" height="1.51"/><rect class="cls-7" x="192.75" y="131.56" width="38.75" height="14.35"/><line class="cls-20" x1="219.6" y1="127.54" x2="219.6" y2="77.62"/><polygon class="cls-4" points="193.51 77.45 193.51 80.39 229.98 80.39 229.98 127.37 232.26 127.37 232.26 77.45 193.51 77.45"/><polygon class="cls-21" points="198.41 292.63 200.43 291.61 201.28 285.37 199.25 285.2 198.41 292.63"/><line class="cls-22" x1="88.73" y1="192.75" x2="89.49" y2="180.93"/><path class="cls-13" d="M94.07,194a5.43,5.43,0,0,0-3,4.06c-.5,3-.76,5.32-.76,5.32l8.49.7a.53.53,0,0,0,.58-.58,24.88,24.88,0,0,0-1-5.44A15.83,15.83,0,0,0,95.84,194Z" transform="translate(-6.18)"/><path class="cls-14" d="M93.15,194.57a5.4,5.4,0,0,0-2.12,3.5c-.5,3-.76,5.32-.76,5.32l2.92.24C92.91,200.55,92.34,197.37,93.15,194.57Z" transform="translate(-6.18)"/><path class="cls-13" d="M239.33,194a25.62,25.62,0,0,0-2.28,3.8,18.5,18.5,0,0,0-1.9,6.34l9-.69a.54.54,0,0,0,.58-.58,20.59,20.59,0,0,0-1.14-4.81A15.92,15.92,0,0,0,241.1,194Z" transform="translate(-6.18)"/><rect class="cls-23" x="86.71" y="191.82" width="4.39" height="2.45"/><line class="cls-22" x1="109.84" y1="192.75" x2="108.91" y2="181.18"/><line class="cls-22" x1="234.2" y1="192.62" x2="233.27" y2="181.06"/><path class="cls-13" d="M115.18,194a5.43,5.43,0,0,0-3,4.06,36.56,36.56,0,0,0-.43,5.67.54.54,0,0,0,.57.54l8-.53a.42.42,0,0,0,.4-.45,20.07,20.07,0,0,0-.82-5.23,13.19,13.19,0,0,0-3-4.06Z" transform="translate(-6.18)"/><path class="cls-14" d="M117.84,194.94c-.5-.56-.89-.93-.89-.93h-1.77a5.43,5.43,0,0,0-3,4.06,36.56,36.56,0,0,0-.43,5.67.54.54,0,0,0,.57.54l3.09-.2C114.28,200.49,114.6,196.26,117.84,194.94Z" transform="translate(-6.18)"/><rect class="cls-23" x="107.81" y="191.82" width="4.39" height="2.45"/><rect class="cls-23" x="231.67" y="191.82" width="4.39" height="2.45"/><path class="cls-13" d="M220,193.59a22.17,22.17,0,0,1,2.11,3.46,14.34,14.34,0,0,1,1.69,6.17l-8.87.84a1.07,1.07,0,0,1-1-1.18,31.54,31.54,0,0,1,1.6-4.73,41.51,41.51,0,0,1,2.45-4.56Z" transform="translate(-6.18)"/><path class="cls-14" d="M241.1,194h-1.77a25.62,25.62,0,0,0-2.28,3.8,18.5,18.5,0,0,0-1.9,6.34l4.47-.34c.41-3.12.39-6.33,2.09-9C241.36,194.31,241.1,194,241.1,194Z" transform="translate(-6.18)"/><path class="cls-14" d="M220.47,194.19c-.29-.43-.43-.6-.43-.6h-2a41.51,41.51,0,0,0-2.45,4.56,31.54,31.54,0,0,0-1.6,4.73,1.07,1.07,0,0,0,1,1.18l1.83-.17C217.21,200,217.41,195.9,220.47,194.19Z" transform="translate(-6.18)"/><line class="cls-22" x1="212.76" y1="192.66" x2="213.35" y2="181.1"/><rect class="cls-23" x="210.65" y="191.82" width="4.39" height="2.45"/><path class="cls-6" d="M246.69,31.91h-158L70.21,46a11.18,11.18,0,0,0,4.7,1A11.3,11.3,0,0,0,85,40.72a11.29,11.29,0,0,0,20.26,0,11.29,11.29,0,0,0,20.26,0,11.29,11.29,0,0,0,20.27,0,11.29,11.29,0,0,0,20.26,0,11.29,11.29,0,0,0,20.26,0,11.29,11.29,0,0,0,20.26,0,11.29,11.29,0,0,0,20.27,0,11.29,11.29,0,0,0,20.26,0,11.28,11.28,0,0,0,16.18,4.55Z" transform="translate(-6.18)"/><path class="cls-7" d="M105.64,39.92a11.31,11.31,0,0,0,10.13-6.3,11.29,11.29,0,0,0,20.26,0,11.29,11.29,0,0,0,20.26,0,11.3,11.3,0,0,0,20.27,0,11.29,11.29,0,0,0,20.26,0,11.29,11.29,0,0,0,20.26,0,11.29,11.29,0,0,0,20.26,0,11.31,11.31,0,0,0,10.14,6.3A11.19,11.19,0,0,0,254,37.82l-9-7.2H90.37L80,38.54a11.27,11.27,0,0,0,15.52-4.92A11.3,11.3,0,0,0,105.64,39.92Z" transform="translate(-6.18)"/><polygon class="cls-24" points="222.38 294.48 219.68 290.77 199.42 289.08 195.7 292.63 161.26 279.29 167 275.57 208.87 278.27 202.46 280.98 187.26 280.3 197.05 284.69 226.44 288.74 222.38 294.48"/><polygon class="cls-13" points="224.53 286.38 199.08 286.38 205.5 245.68 230.32 245.68 224.53 286.38"/><polygon class="cls-10" points="230.32 245.68 222.38 294.48 225.42 294.48 233.36 245.68 230.32 245.68"/><polygon class="cls-10" points="202.79 245.68 195.7 292.63 198.41 292.63 205.5 245.68 202.79 245.68"/><polygon class="cls-12" points="225.42 294.48 227.45 293.64 233.53 253.79 233.36 245.68 225.42 294.48"/><polygon class="cls-12" points="233.36 245.68 233.53 253.79 237.92 286.04 240.11 284.52 233.36 245.68"/><polygon class="cls-10" points="237.92 286.04 233.53 253.79 229.81 279.79 233.7 279.79 235.22 285.87 237.92 286.04"/><polygon class="cls-25" points="237.92 286.04 233.53 253.79 229.81 279.79 233.7 279.79 235.22 285.87 237.92 286.04"/><path class="cls-25" d="M227.55,271.52c-11.47-1.77-15.26-15.07-12.69-25.84H209l-7.09,46.95h2.7l2-1,.71-5.23h22.56l-1.32,8.1h2.87l3.11-22.39A28.8,28.8,0,0,1,227.55,271.52Z" transform="translate(-6.18)"/><text x="-6.18"/><path class="cls-10" d="M211.78,257.66A6.8,6.8,0,0,0,214,258c.87,0,1.72.09,2.59.1l5,.07,10.13.13a.86.86,0,0,0,.74-.43.72.72,0,0,0,0-.86.85.85,0,0,0-.74-.42l-10.13.13-5,.06c-1.49,0-3.45-.16-4.84.41a.26.26,0,0,0,0,.5Z" transform="translate(-6.18)"/><path class="cls-10" d="M212.56,264.63a6.61,6.61,0,0,1,.68-.29c.21-.1.41-.21.62-.29l-1-.8a1.76,1.76,0,0,0,.88,1.51,3,3,0,0,0,1.84.34,4.7,4.7,0,0,1,.75,0c-.12,0-.08,0,.12,0l.33,0a1.32,1.32,0,0,1,.24,0,2.63,2.63,0,0,0,2-.29l-.45.12c.55-.06,1.12.14,1.68.1s1.23-.16,1.47-.7a.47.47,0,0,0-.16-.62c-.72-.48-1.79,0-2.54-.45l.32.33a3.08,3.08,0,0,0-2.92-1.21,10.06,10.06,0,0,0-1.54.24,1.44,1.44,0,0,1-.46.05c-.17,0,0,0-.14-.09a.84.84,0,0,0-1.16,0,5.31,5.31,0,0,0-.65.6,8.5,8.5,0,0,0-.47.75c-.26.36.25.85.61.61Z" transform="translate(-6.18)"/><path class="cls-10" d="M226.59,265.35l.15,0c.07,0,.07,0,0,0s-.08,0,0,0l.29,0-.28,0h0l-.49-.28a1.58,1.58,0,0,0,.64.37l-.77-.59v0a1.43,1.43,0,0,0,1.21.69,5,5,0,0,0,.87-.08l-.41.05a2,2,0,0,1,.48,0l-.42-.06a5.67,5.67,0,0,0,.72.1l.35,0,.32,0a2.33,2.33,0,0,0,1.09-.34,1.61,1.61,0,0,0,.8-1.4,1.54,1.54,0,0,0-.22-.81,1.64,1.64,0,0,0-.58-.59,2.28,2.28,0,0,0-1.87-.27,3.62,3.62,0,0,0-1,.38l.38-.16c-.27.09-.54.2-.8.31a2.34,2.34,0,0,0-.66.47,1.43,1.43,0,0,0-.36,1.36h0l.13-1a1.57,1.57,0,0,0-.19.74l.15-.56c0,.1-.12.18-.16.28s.12-.16,0,0-.15.18-.22.28a.76.76,0,0,0,.06.83.75.75,0,0,0,.79.27Z" transform="translate(-6.18)"/><path class="cls-10" d="M210.25,270.36c.23,1.21,1.81,1.32,2.78,1.39a21.07,21.07,0,0,0,2.5-.14c.83,0,1.67,0,2.5,0s2.09.17,2.78-.53a1.17,1.17,0,0,0,0-1.63c-.68-.73-2-.55-3-.59-.75,0-1.65,0-2.29-.11a24.64,24.64,0,0,0-2.71-.28c-1.16,0-2.91.35-2.6,1.91Z" transform="translate(-6.18)"/><path class="cls-10" d="M226,270.81a13,13,0,0,0,1.54.2l-.27,0a5.82,5.82,0,0,1,.91.17,1.86,1.86,0,0,0,1.84-.34,1.23,1.23,0,0,0,.31-.65,1,1,0,0,0-.14-.73,1.41,1.41,0,0,0-.49-.48,1.93,1.93,0,0,0-.4-.15,2,2,0,0,0-1,0l-.79.18-.79.22a3.58,3.58,0,0,0-.9.38.69.69,0,0,0-.33.69.7.7,0,0,0,.49.58Z" transform="translate(-6.18)"/><path class="cls-10" d="M210,275.66a5.6,5.6,0,0,0,2.27.48,18.87,18.87,0,0,1,2.07.2,10,10,0,0,0,1.21.24l1,0a19.63,19.63,0,0,0,2.29.12,1.75,1.75,0,0,0,1.7-1.5,1.72,1.72,0,0,0-1.24-1.9,13,13,0,0,0-2.57,0,10.71,10.71,0,0,0-2.46.33c-.7.18-1.44.26-2.16.37a5.43,5.43,0,0,0-2.16.6.63.63,0,0,0,0,1.06Z" transform="translate(-6.18)"/><path class="cls-10" d="M226,275.39a5.69,5.69,0,0,0,.92.15l-.57-.24a2.08,2.08,0,0,0,1.19.46l-.47-.28a1.49,1.49,0,0,0,1,.42l.44.07a1.37,1.37,0,0,0,1.16-.42,1.2,1.2,0,0,0,0-1.65,1.39,1.39,0,0,0-1-.43,3.33,3.33,0,0,0-.61.09,1.43,1.43,0,0,0-1,.41l.47-.28a2.23,2.23,0,0,0-1.19.46l.57-.23a5.68,5.68,0,0,0-.92.14.71.71,0,0,0-.51.67.69.69,0,0,0,.51.66Z" transform="translate(-6.18)"/><path class="cls-10" d="M219.65,280.48c-.54-.63-1.65-.64-2.41-.73s-1.63-.16-2.44-.27a24.59,24.59,0,0,0-2.57-.14,5,5,0,0,0-2.77.52,1.09,1.09,0,0,0,.26,2,5.56,5.56,0,0,0,2.69.12c.85-.08,1.7-.09,2.54-.21a17.47,17.47,0,0,1,2.29-.09,3.89,3.89,0,0,0,2.41-.42.55.55,0,0,0,0-.75Z" transform="translate(-6.18)"/><path class="cls-10" d="M226.06,281l.05.05-.19-.33a.89.89,0,0,0,.38.51l.27.11.23.09.23.08a1.66,1.66,0,0,0,.49.07l.51,0h.26a1.17,1.17,0,0,0,1-.57,1,1,0,0,0,0-1.05,1.19,1.19,0,0,0-1-.56H228l-.51,0a1.39,1.39,0,0,0-.49.07l-.23.08-.23.09a1.28,1.28,0,0,0-.27.11.89.89,0,0,0-.38.51l.19-.34-.05.06a.69.69,0,0,0,0,1Z" transform="translate(-6.18)"/><polygon class="cls-15" points="194.01 187.43 194.01 194.52 207.44 181.1 200.35 181.1 194.01 187.43"/><path class="cls-15" d="M200.2,220.36l39.26-39.26H232c-8.92,8.37-23.61,22.32-31.84,31Z" transform="translate(-6.18)"/><path class="cls-15" d="M246.23,181.1c-10.71,10.38-37,36-46,45.53v5l50.57-50.57Z" transform="translate(-6.18)"/><path class="cls-15" d="M238.7,233,259,212.76V194.52L220.46,233Z" transform="translate(-6.18)"/><path class="cls-15" d="M248.83,233,259,222.89v-3.95c-4.22,3.9-11.63,10.86-14.43,14.08Z" transform="translate(-6.18)"/><path class="cls-7" d="M72.25,256.75c0,2.51-5.6,4.53-12.5,4.53s-12.49-2-12.49-4.53,3.88-2.64,12.53-2.64S72.25,254.25,72.25,256.75Z" transform="translate(-6.18)"/><path class="cls-7" d="M72.25,258.91c0,2.5-5.6,4.53-12.5,4.53s-12.49-2-12.49-4.53,3.88-2.65,12.53-2.65S72.25,256.41,72.25,258.91Z" transform="translate(-6.18)"/><path class="cls-6" d="M63,278.61H57.3A6.39,6.39,0,0,1,51,273.08L49.07,259s3.6,3.34,10.47,3.38c7.58.05,11.65-3.38,11.65-3.38l-1.9,14.06A6.38,6.38,0,0,1,63,278.61Z" transform="translate(-6.18)"/><path class="cls-26" d="M70.61,263.32l.58-4.3s-4.07,3.43-11.65,3.38c-6.87,0-10.47-3.38-10.47-3.38L51,273.08a6.35,6.35,0,0,0,3.44,4.81C49.3,266,60.78,266,70.61,263.32Z" transform="translate(-6.18)"/><path class="cls-6" d="M72.51,255.33a3.43,3.43,0,0,0-1.74-.46,1.71,1.71,0,0,1,.44,1.23c-.08,3.08-3.12,5.12-11.16,5.12s-12.77-3.47-12.27-5.38c.19-.72.54-.7.55-.81-1.33.19-2.3,2.12-2.3,3.15,0,3.45,5,6.25,14,6.25s14-2.8,14-6.25A3.85,3.85,0,0,0,72.51,255.33Z" transform="translate(-6.18)"/><path class="cls-26" d="M52.22,259.91c-3.12-1.19-4.74-2.91-4.44-4.07.19-.72.54-.7.55-.81-1.33.19-2.3,2.12-2.3,3.15,0,2.29,2.22,4.29,6.33,5.37a.47.47,0,0,1-.08-.14C52.28,262.56,50.85,261,52.22,259.91Z" transform="translate(-6.18)"/><path class="cls-27" d="M55.89,260c-5-1-9-5.6-10.53-10.45a5.91,5.91,0,0,1,5.28-.24,10.31,10.31,0,0,1-2-8.37,8.48,8.48,0,0,1,3.76,2.4,15.7,15.7,0,0,1,.51-13.78,11.83,11.83,0,0,1,4,5.6,26.7,26.7,0,0,0,1.26-9,10.48,10.48,0,0,1,5.71,8.66L67.09,229a13.88,13.88,0,0,1,2,11.18l3.46-2.46c.23,3.52.3,7.51-2.17,10a15.39,15.39,0,0,0,3.45-1.09,24,24,0,0,1-2.64,7.54c-1.66,3.06-3.82,5.54-7.26,6.08A28.17,28.17,0,0,1,55.89,260Z" transform="translate(-6.18)"/><circle class="cls-28" cx="52.18" cy="246.53" r="1.86"/><circle class="cls-28" cx="51.33" cy="255.82" r="2.2"/><path class="cls-28" d="M67.14,250.07a1.52,1.52,0,1,1-1.52-1.52A1.52,1.52,0,0,1,67.14,250.07Z" transform="translate(-6.18)"/><path class="cls-28" d="M64.27,243.15A1.19,1.19,0,1,1,63.09,242,1.18,1.18,0,0,1,64.27,243.15Z" transform="translate(-6.18)"/><path class="cls-28" d="M54.14,247.88a1,1,0,1,1-1-1A1,1,0,0,1,54.14,247.88Z" transform="translate(-6.18)"/><path class="cls-28" d="M63.85,255.48a1.27,1.27,0,1,1-1.27-1.27A1.26,1.26,0,0,1,63.85,255.48Z" transform="translate(-6.18)"/><rect class="cls-26" x="248.05" y="233.02" width="8.44" height="6.08"/><polygon class="cls-15" points="69.91 191.65 80.46 181.1 77.42 181.1 69.91 188.61 69.91 191.65"/><path class="cls-15" d="M76.09,213.6l32.5-32.5H99.21c-6,5.32-16.51,14.68-23.12,21.5Z" transform="translate(-6.18)"/><path class="cls-15" d="M76.09,221,116,181.1h-3.14c-8.81,8.6-28.93,28.31-36.79,36.46Z" transform="translate(-6.18)"/><path class="cls-15" d="M81.51,233h5l48.29-48.29V181.1h-.41C124.27,190.76,92,221.53,81.51,233Z" transform="translate(-6.18)"/><path class="cls-15" d="M119.15,233l15.7-15.7v-9.09c-5.41,6.08-17.15,19.08-23.57,24.79Z" transform="translate(-6.18)"/><path class="cls-15" d="M134.85,224.24,126.07,233h2.68c1.73-1.6,4.26-4.3,6.1-6.32Z" transform="translate(-6.18)"/><rect class="cls-26" x="121.07" y="233.02" width="7.77" height="6.08"/><polygon class="cls-29" points="180.84 176.96 175.51 176.96 66.06 176.96 66.06 183.72 117.76 183.72 117.76 233.02 128.84 233.02 128.84 183.72 173.75 183.72 173.75 266.79 180.84 266.79 180.84 183.72 245.41 183.72 245.41 233.02 256.49 233.02 256.49 183.72 256.52 183.72 256.52 176.96 180.84 176.96"/><polygon class="cls-26" points="128.67 239.1 128.67 238.76 69.91 238.76 69.91 241.8 117.76 241.8 117.76 266.79 128.84 266.79 128.84 239.1 128.67 239.1"/><polygon class="cls-26" points="252.94 239.1 252.94 238.76 194.18 238.76 194.18 241.8 245.41 241.8 245.41 266.79 256.49 266.79 256.49 239.1 252.94 239.1"/><polygon class="cls-19" points="192.66 131.56 192.66 132.89 229.64 132.89 229.64 145.91 231.42 145.91 231.42 131.56 192.66 131.56"/><path class="cls-30" d="M96.86,161.09c-8.11-2-18.24-2-23.3-10.13a16.05,16.05,0,0,1-.62-1.69h-.65v23.3H224.45C182.19,169.83,139.81,166.46,96.86,161.09Z" transform="translate(-6.18)"/><path class="cls-4" d="M279.22,275.32c-5.06,0-11.14-2.61-14.86-4.21a12.54,12.54,0,0,1-5.4-4.32v-2.88s-2.37.26-3-.8,1.69-3.21,1.69-3.21,0-.8-2.37-3.46a6.25,6.25,0,0,1-1.69-5.34l3,1.34a25.61,25.61,0,0,1,0-5.34A13.48,13.48,0,0,1,259,242s2,3.47,2.36,4.27,2-.8,2.37-3.2a10.85,10.85,0,0,1,1.35-4l4,4.27,1.55,5.95a4.23,4.23,0,0,0,3.18-3.55c.34-2.94,2.36-2.67,2.36-2.67l1.35,4.27-.67,4.8s1.11,2.09,1.4,1.44,1.59-1.26,1.59-1.26l-1,5.15-.22,3.69s-1.13,4.05,1.24,5.92,4.72,4.53,3.37,5.87A14.09,14.09,0,0,1,279.22,275.32Z" transform="translate(-6.18)"/><path class="cls-6" d="M267.92,256.46c0,2.15,4.81,3.89,10.74,3.89s10.73-1.74,10.73-3.89-3.34-2.27-10.77-2.27S267.92,254.32,267.92,256.46Z" transform="translate(-6.18)"/><path class="cls-7" d="M267.92,258.31c0,2.15,4.81,3.89,10.74,3.89s10.73-1.74,10.73-3.89S286.05,256,278.62,256,267.92,256.17,267.92,258.31Z" transform="translate(-6.18)"/><path class="cls-6" d="M275.9,275.23h4.86a5.48,5.48,0,0,0,5.43-4.75l1.64-12.07s-3.09,2.87-9,2.9c-6.51,0-10-2.9-10-2.9l1.63,12.07A5.5,5.5,0,0,0,275.9,275.23Z" transform="translate(-6.18)"/><path class="cls-26" d="M287.13,263.58l.7-5.17s-3.09,2.87-9,2.9c-6.51,0-10-2.9-10-2.9l1.63,12.07a5.5,5.5,0,0,0,5.44,4.75h.68a5.39,5.39,0,0,1-.4-.67C272.36,265,280.27,264.46,287.13,263.58Z" transform="translate(-6.18)"/><path class="cls-6" d="M267.7,255.24a2.88,2.88,0,0,1,1.49-.4,1.47,1.47,0,0,0-.38,1.06c.07,2.64,2.69,4.4,9.59,4.4s11-3,10.53-4.62c-.16-.62-.46-.6-.47-.69,1.14.16,2,1.82,2,2.7,0,3-4.3,5.36-12,5.36s-12-2.4-12-5.36A3.32,3.32,0,0,1,267.7,255.24Z" transform="translate(-6.18)"/><path class="cls-26" d="M276.26,260.23c-5.31-.34-7.38-2-7.45-4.33a1.47,1.47,0,0,1,.38-1.06,2.88,2.88,0,0,0-1.49.4,3.32,3.32,0,0,0-1.33,2.45c0,2.87,4,5.21,11.35,5.35a11.09,11.09,0,0,1-1.54-.64C276.76,261.82,276.34,260.9,276.26,260.23Z" transform="translate(-6.18)"/><path class="cls-27" d="M282,259.25c4.28-.84,7.75-4.82,9-9a5.08,5.08,0,0,0-4.54-.21,8.88,8.88,0,0,0,1.71-7.19,7.47,7.47,0,0,0-3.23,2.06,13.47,13.47,0,0,0-.44-11.83,10.14,10.14,0,0,0-3.47,4.81,22.57,22.57,0,0,1-1.09-7.74,9,9,0,0,0-4.91,7.44l-2.7-5a11.88,11.88,0,0,0-1.71,9.6l-3-2.1c-.2,3-.27,6.44,1.86,8.6a13.5,13.5,0,0,1-3-.94,21,21,0,0,0,2.27,6.48c1.43,2.63,3.28,4.76,6.24,5.22A24.56,24.56,0,0,0,282,259.25Z" transform="translate(-6.18)"/><path class="cls-28" d="M278.26,247.68a1.6,1.6,0,1,0,1.59-1.59A1.6,1.6,0,0,0,278.26,247.68Z" transform="translate(-6.18)"/><circle class="cls-28" cx="274.39" cy="255.66" r="1.89"/><path class="cls-28" d="M272.31,250.73a1.31,1.31,0,1,0,1.31-1.31A1.31,1.31,0,0,0,272.31,250.73Z" transform="translate(-6.18)"/><circle class="cls-28" cx="269.61" cy="244.78" r="1.02"/><circle class="cls-28" cx="278.17" cy="248.84" r="0.87"/><path class="cls-28" d="M275.14,255.37a1.09,1.09,0,1,0,1.09-1.09A1.08,1.08,0,0,0,275.14,255.37Z" transform="translate(-6.18)"/></g></g></svg>